<?xml version="1.0" encoding="utf-8" standalone="no"?>
<!DOCTYPE svg PUBLIC "-//W3C//DTD SVG 1.1//EN"
  "http://www.w3.org/Graphics/SVG/1.1/DTD/svg11.dtd">
<svg xmlns:xlink="http://www.w3.org/1999/xlink" width="429.727812pt" height="325.986375pt" viewBox="0 0 429.727812 325.986375" xmlns="http://www.w3.org/2000/svg" version="1.1">
 <metadata>
  <rdf:RDF xmlns:dc="http://purl.org/dc/elements/1.1/" xmlns:cc="http://creativecommons.org/ns#" xmlns:rdf="http://www.w3.org/1999/02/22-rdf-syntax-ns#">
   <cc:Work>
    <dc:type rdf:resource="http://purl.org/dc/dcmitype/StillImage"/>
    <dc:date>2026-05-08T09:28:03.963572</dc:date>
    <dc:format>image/svg+xml</dc:format>
    <dc:creator>
     <cc:Agent>
      <dc:title>Matplotlib v3.10.8, https://matplotlib.org/</dc:title>
     </cc:Agent>
    </dc:creator>
   </cc:Work>
  </rdf:RDF>
 </metadata>
 <defs>
  <style type="text/css">*{stroke-linejoin: round; stroke-linecap: butt}</style>
 </defs>
 <g id="figure_1">
  <g id="patch_1">
   <path d="M 0 325.986375 
L 429.727812 325.986375 
L 429.727812 0 
L 0 0 
z
" style="fill: #ffffff"/>
  </g>
  <g id="axes_1">
   <g id="patch_2">
    <path d="M 65.407813 288.430125 
L 422.527812 288.430125 
L 422.527812 22.318125 
L 65.407813 22.318125 
z
" style="fill: #ffffff"/>
   </g>
   <g id="matplotlib.axis_1">
    <g id="xtick_1">
     <g id="line2d_1">
      <defs>
       <path id="m7f186b4bea" d="M 0 0 
L 0 3.5 
" style="stroke: #000000; stroke-width: 0.8"/>
      </defs>
      <g>
       <use xlink:href="#m7f186b4bea" x="81.64054" y="288.430125" style="stroke: #000000; stroke-width: 0.8"/>
      </g>
     </g>
     <g id="text_1">
      <!-- 0 -->
      <g transform="translate(78.45929 303.028562) scale(0.1 -0.1)">
       <defs>
        <path id="DejaVuSans-30" d="M 2034 4250 
Q 1547 4250 1301 3770 
Q 1056 3291 1056 2328 
Q 1056 1369 1301 889 
Q 1547 409 2034 409 
Q 2525 409 2770 889 
Q 3016 1369 3016 2328 
Q 3016 3291 2770 3770 
Q 2525 4250 2034 4250 
z
M 2034 4750 
Q 2819 4750 3233 4129 
Q 3647 3509 3647 2328 
Q 3647 1150 3233 529 
Q 2819 -91 2034 -91 
Q 1250 -91 836 529 
Q 422 1150 422 2328 
Q 422 3509 836 4129 
Q 1250 4750 2034 4750 
z
" transform="scale(0.015625)"/>
       </defs>
       <use xlink:href="#DejaVuSans-30"/>
      </g>
     </g>
    </g>
    <g id="xtick_2">
     <g id="line2d_2">
      <g>
       <use xlink:href="#m7f186b4bea" x="146.571449" y="288.430125" style="stroke: #000000; stroke-width: 0.8"/>
      </g>
     </g>
     <g id="text_2">
      <!-- 2 -->
      <g transform="translate(143.390199 303.028562) scale(0.1 -0.1)">
       <defs>
        <path id="DejaVuSans-32" d="M 1228 531 
L 3431 531 
L 3431 0 
L 469 0 
L 469 531 
Q 828 903 1448 1529 
Q 2069 2156 2228 2338 
Q 2531 2678 2651 2914 
Q 2772 3150 2772 3378 
Q 2772 3750 2511 3984 
Q 2250 4219 1831 4219 
Q 1534 4219 1204 4116 
Q 875 4013 500 3803 
L 500 4441 
Q 881 4594 1212 4672 
Q 1544 4750 1819 4750 
Q 2544 4750 2975 4387 
Q 3406 4025 3406 3419 
Q 3406 3131 3298 2873 
Q 3191 2616 2906 2266 
Q 2828 2175 2409 1742 
Q 1991 1309 1228 531 
z
" transform="scale(0.015625)"/>
       </defs>
       <use xlink:href="#DejaVuSans-32"/>
      </g>
     </g>
    </g>
    <g id="xtick_3">
     <g id="line2d_3">
      <g>
       <use xlink:href="#m7f186b4bea" x="211.502358" y="288.430125" style="stroke: #000000; stroke-width: 0.8"/>
      </g>
     </g>
     <g id="text_3">
      <!-- 4 -->
      <g transform="translate(208.321108 303.028562) scale(0.1 -0.1)">
       <defs>
        <path id="DejaVuSans-34" d="M 2419 4116 
L 825 1625 
L 2419 1625 
L 2419 4116 
z
M 2253 4666 
L 3047 4666 
L 3047 1625 
L 3713 1625 
L 3713 1100 
L 3047 1100 
L 3047 0 
L 2419 0 
L 2419 1100 
L 313 1100 
L 313 1709 
L 2253 4666 
z
" transform="scale(0.015625)"/>
       </defs>
       <use xlink:href="#DejaVuSans-34"/>
      </g>
     </g>
    </g>
    <g id="xtick_4">
     <g id="line2d_4">
      <g>
       <use xlink:href="#m7f186b4bea" x="276.433267" y="288.430125" style="stroke: #000000; stroke-width: 0.8"/>
      </g>
     </g>
     <g id="text_4">
      <!-- 6 -->
      <g transform="translate(273.252017 303.028562) scale(0.1 -0.1)">
       <defs>
        <path id="DejaVuSans-36" d="M 2113 2584 
Q 1688 2584 1439 2293 
Q 1191 2003 1191 1497 
Q 1191 994 1439 701 
Q 1688 409 2113 409 
Q 2538 409 2786 701 
Q 3034 994 3034 1497 
Q 3034 2003 2786 2293 
Q 2538 2584 2113 2584 
z
M 3366 4563 
L 3366 3988 
Q 3128 4100 2886 4159 
Q 2644 4219 2406 4219 
Q 1781 4219 1451 3797 
Q 1122 3375 1075 2522 
Q 1259 2794 1537 2939 
Q 1816 3084 2150 3084 
Q 2853 3084 3261 2657 
Q 3669 2231 3669 1497 
Q 3669 778 3244 343 
Q 2819 -91 2113 -91 
Q 1303 -91 875 529 
Q 447 1150 447 2328 
Q 447 3434 972 4092 
Q 1497 4750 2381 4750 
Q 2619 4750 2861 4703 
Q 3103 4656 3366 4563 
z
" transform="scale(0.015625)"/>
       </defs>
       <use xlink:href="#DejaVuSans-36"/>
      </g>
     </g>
    </g>
    <g id="xtick_5">
     <g id="line2d_5">
      <g>
       <use xlink:href="#m7f186b4bea" x="341.364176" y="288.430125" style="stroke: #000000; stroke-width: 0.8"/>
      </g>
     </g>
     <g id="text_5">
      <!-- 8 -->
      <g transform="translate(338.182926 303.028562) scale(0.1 -0.1)">
       <defs>
        <path id="DejaVuSans-38" d="M 2034 2216 
Q 1584 2216 1326 1975 
Q 1069 1734 1069 1313 
Q 1069 891 1326 650 
Q 1584 409 2034 409 
Q 2484 409 2743 651 
Q 3003 894 3003 1313 
Q 3003 1734 2745 1975 
Q 2488 2216 2034 2216 
z
M 1403 2484 
Q 997 2584 770 2862 
Q 544 3141 544 3541 
Q 544 4100 942 4425 
Q 1341 4750 2034 4750 
Q 2731 4750 3128 4425 
Q 3525 4100 3525 3541 
Q 3525 3141 3298 2862 
Q 3072 2584 2669 2484 
Q 3125 2378 3379 2068 
Q 3634 1759 3634 1313 
Q 3634 634 3220 271 
Q 2806 -91 2034 -91 
Q 1263 -91 848 271 
Q 434 634 434 1313 
Q 434 1759 690 2068 
Q 947 2378 1403 2484 
z
M 1172 3481 
Q 1172 3119 1398 2916 
Q 1625 2713 2034 2713 
Q 2441 2713 2670 2916 
Q 2900 3119 2900 3481 
Q 2900 3844 2670 4047 
Q 2441 4250 2034 4250 
Q 1625 4250 1398 4047 
Q 1172 3844 1172 3481 
z
" transform="scale(0.015625)"/>
       </defs>
       <use xlink:href="#DejaVuSans-38"/>
      </g>
     </g>
    </g>
    <g id="xtick_6">
     <g id="line2d_6">
      <g>
       <use xlink:href="#m7f186b4bea" x="406.295085" y="288.430125" style="stroke: #000000; stroke-width: 0.8"/>
      </g>
     </g>
     <g id="text_6">
      <!-- 10 -->
      <g transform="translate(399.932585 303.028562) scale(0.1 -0.1)">
       <defs>
        <path id="DejaVuSans-31" d="M 794 531 
L 1825 531 
L 1825 4091 
L 703 3866 
L 703 4441 
L 1819 4666 
L 2450 4666 
L 2450 531 
L 3481 531 
L 3481 0 
L 794 0 
L 794 531 
z
" transform="scale(0.015625)"/>
       </defs>
       <use xlink:href="#DejaVuSans-31"/>
       <use xlink:href="#DejaVuSans-30" transform="translate(63.623047 0)"/>
      </g>
     </g>
    </g>
    <g id="text_7">
     <!-- $t/s$ -->
     <g transform="translate(237.717813 316.706687) scale(0.1 -0.1)">
      <defs>
       <path id="DejaVuSans-Oblique-74" d="M 2706 3500 
L 2619 3053 
L 1472 3053 
L 1100 1153 
Q 1081 1047 1072 975 
Q 1063 903 1063 863 
Q 1063 663 1183 572 
Q 1303 481 1569 481 
L 2150 481 
L 2053 0 
L 1503 0 
Q 991 0 739 200 
Q 488 400 488 806 
Q 488 878 497 964 
Q 506 1050 525 1153 
L 897 3053 
L 409 3053 
L 500 3500 
L 978 3500 
L 1172 4494 
L 1747 4494 
L 1556 3500 
L 2706 3500 
z
" transform="scale(0.015625)"/>
       <path id="DejaVuSans-2f" d="M 1625 4666 
L 2156 4666 
L 531 -594 
L 0 -594 
L 1625 4666 
z
" transform="scale(0.015625)"/>
       <path id="DejaVuSans-Oblique-73" d="M 3200 3397 
L 3091 2853 
Q 2863 2978 2609 3040 
Q 2356 3103 2088 3103 
Q 1634 3103 1373 2948 
Q 1113 2794 1113 2528 
Q 1113 2219 1719 2053 
Q 1766 2041 1788 2034 
L 1972 1978 
Q 2547 1819 2739 1644 
Q 2931 1469 2931 1166 
Q 2931 609 2489 259 
Q 2047 -91 1331 -91 
Q 1053 -91 747 -37 
Q 441 16 72 128 
L 184 722 
Q 500 559 806 475 
Q 1113 391 1394 391 
Q 1816 391 2080 572 
Q 2344 753 2344 1031 
Q 2344 1331 1650 1516 
L 1591 1531 
L 1394 1581 
Q 956 1697 753 1886 
Q 550 2075 550 2369 
Q 550 2928 970 3256 
Q 1391 3584 2113 3584 
Q 2397 3584 2667 3537 
Q 2938 3491 3200 3397 
z
" transform="scale(0.015625)"/>
      </defs>
      <use xlink:href="#DejaVuSans-Oblique-74" transform="translate(0 0.09375)"/>
      <use xlink:href="#DejaVuSans-2f" transform="translate(39.208984 0.09375)"/>
      <use xlink:href="#DejaVuSans-Oblique-73" transform="translate(72.900391 0.09375)"/>
     </g>
    </g>
   </g>
   <g id="matplotlib.axis_2">
    <g id="ytick_1">
     <g id="line2d_7">
      <defs>
       <path id="mc7a3476979" d="M 0 0 
L -3.5 0 
" style="stroke: #000000; stroke-width: 0.8"/>
      </defs>
      <g>
       <use xlink:href="#mc7a3476979" x="65.407813" y="283.672585" style="stroke: #000000; stroke-width: 0.8"/>
      </g>
     </g>
     <g id="text_8">
      <!-- −0.015 -->
      <g transform="translate(21.4 287.471804) scale(0.1 -0.1)">
       <defs>
        <path id="DejaVuSans-2212" d="M 678 2272 
L 4684 2272 
L 4684 1741 
L 678 1741 
L 678 2272 
z
" transform="scale(0.015625)"/>
        <path id="DejaVuSans-2e" d="M 684 794 
L 1344 794 
L 1344 0 
L 684 0 
L 684 794 
z
" transform="scale(0.015625)"/>
        <path id="DejaVuSans-35" d="M 691 4666 
L 3169 4666 
L 3169 4134 
L 1269 4134 
L 1269 2991 
Q 1406 3038 1543 3061 
Q 1681 3084 1819 3084 
Q 2600 3084 3056 2656 
Q 3513 2228 3513 1497 
Q 3513 744 3044 326 
Q 2575 -91 1722 -91 
Q 1428 -91 1123 -41 
Q 819 9 494 109 
L 494 744 
Q 775 591 1075 516 
Q 1375 441 1709 441 
Q 2250 441 2565 725 
Q 2881 1009 2881 1497 
Q 2881 1984 2565 2268 
Q 2250 2553 1709 2553 
Q 1456 2553 1204 2497 
Q 953 2441 691 2322 
L 691 4666 
z
" transform="scale(0.015625)"/>
       </defs>
       <use xlink:href="#DejaVuSans-2212"/>
       <use xlink:href="#DejaVuSans-30" transform="translate(83.789062 0)"/>
       <use xlink:href="#DejaVuSans-2e" transform="translate(147.412109 0)"/>
       <use xlink:href="#DejaVuSans-30" transform="translate(179.199219 0)"/>
       <use xlink:href="#DejaVuSans-31" transform="translate(242.822266 0)"/>
       <use xlink:href="#DejaVuSans-35" transform="translate(306.445312 0)"/>
      </g>
     </g>
    </g>
    <g id="ytick_2">
     <g id="line2d_8">
      <g>
       <use xlink:href="#mc7a3476979" x="65.407813" y="240.909608" style="stroke: #000000; stroke-width: 0.8"/>
      </g>
     </g>
     <g id="text_9">
      <!-- −0.010 -->
      <g transform="translate(21.4 244.708826) scale(0.1 -0.1)">
       <use xlink:href="#DejaVuSans-2212"/>
       <use xlink:href="#DejaVuSans-30" transform="translate(83.789062 0)"/>
       <use xlink:href="#DejaVuSans-2e" transform="translate(147.412109 0)"/>
       <use xlink:href="#DejaVuSans-30" transform="translate(179.199219 0)"/>
       <use xlink:href="#DejaVuSans-31" transform="translate(242.822266 0)"/>
       <use xlink:href="#DejaVuSans-30" transform="translate(306.445312 0)"/>
      </g>
     </g>
    </g>
    <g id="ytick_3">
     <g id="line2d_9">
      <g>
       <use xlink:href="#mc7a3476979" x="65.407813" y="198.14663" style="stroke: #000000; stroke-width: 0.8"/>
      </g>
     </g>
     <g id="text_10">
      <!-- −0.005 -->
      <g transform="translate(21.4 201.945849) scale(0.1 -0.1)">
       <use xlink:href="#DejaVuSans-2212"/>
       <use xlink:href="#DejaVuSans-30" transform="translate(83.789062 0)"/>
       <use xlink:href="#DejaVuSans-2e" transform="translate(147.412109 0)"/>
       <use xlink:href="#DejaVuSans-30" transform="translate(179.199219 0)"/>
       <use xlink:href="#DejaVuSans-30" transform="translate(242.822266 0)"/>
       <use xlink:href="#DejaVuSans-35" transform="translate(306.445312 0)"/>
      </g>
     </g>
    </g>
    <g id="ytick_4">
     <g id="line2d_10">
      <g>
       <use xlink:href="#mc7a3476979" x="65.407813" y="155.383653" style="stroke: #000000; stroke-width: 0.8"/>
      </g>
     </g>
     <g id="text_11">
      <!-- 0.000 -->
      <g transform="translate(29.779688 159.182872) scale(0.1 -0.1)">
       <use xlink:href="#DejaVuSans-30"/>
       <use xlink:href="#DejaVuSans-2e" transform="translate(63.623047 0)"/>
       <use xlink:href="#DejaVuSans-30" transform="translate(95.410156 0)"/>
       <use xlink:href="#DejaVuSans-30" transform="translate(159.033203 0)"/>
       <use xlink:href="#DejaVuSans-30" transform="translate(222.65625 0)"/>
      </g>
     </g>
    </g>
    <g id="ytick_5">
     <g id="line2d_11">
      <g>
       <use xlink:href="#mc7a3476979" x="65.407813" y="112.620676" style="stroke: #000000; stroke-width: 0.8"/>
      </g>
     </g>
     <g id="text_12">
      <!-- 0.005 -->
      <g transform="translate(29.779688 116.419895) scale(0.1 -0.1)">
       <use xlink:href="#DejaVuSans-30"/>
       <use xlink:href="#DejaVuSans-2e" transform="translate(63.623047 0)"/>
       <use xlink:href="#DejaVuSans-30" transform="translate(95.410156 0)"/>
       <use xlink:href="#DejaVuSans-30" transform="translate(159.033203 0)"/>
       <use xlink:href="#DejaVuSans-35" transform="translate(222.65625 0)"/>
      </g>
     </g>
    </g>
    <g id="ytick_6">
     <g id="line2d_12">
      <g>
       <use xlink:href="#mc7a3476979" x="65.407813" y="69.857698" style="stroke: #000000; stroke-width: 0.8"/>
      </g>
     </g>
     <g id="text_13">
      <!-- 0.010 -->
      <g transform="translate(29.779688 73.656917) scale(0.1 -0.1)">
       <use xlink:href="#DejaVuSans-30"/>
       <use xlink:href="#DejaVuSans-2e" transform="translate(63.623047 0)"/>
       <use xlink:href="#DejaVuSans-30" transform="translate(95.410156 0)"/>
       <use xlink:href="#DejaVuSans-31" transform="translate(159.033203 0)"/>
       <use xlink:href="#DejaVuSans-30" transform="translate(222.65625 0)"/>
      </g>
     </g>
    </g>
    <g id="ytick_7">
     <g id="line2d_13">
      <g>
       <use xlink:href="#mc7a3476979" x="65.407813" y="27.094721" style="stroke: #000000; stroke-width: 0.8"/>
      </g>
     </g>
     <g id="text_14">
      <!-- 0.015 -->
      <g transform="translate(29.779688 30.89394) scale(0.1 -0.1)">
       <use xlink:href="#DejaVuSans-30"/>
       <use xlink:href="#DejaVuSans-2e" transform="translate(63.623047 0)"/>
       <use xlink:href="#DejaVuSans-30" transform="translate(95.410156 0)"/>
       <use xlink:href="#DejaVuSans-31" transform="translate(159.033203 0)"/>
       <use xlink:href="#DejaVuSans-35" transform="translate(222.65625 0)"/>
      </g>
     </g>
    </g>
    <g id="text_15">
     <!-- $x \ / \ \mathrm{m}, \ v \ / \ \mathrm{m} \ s^{-1}$ -->
     <g transform="translate(15.320313 194.874125) rotate(-90) scale(0.1 -0.1)">
      <defs>
       <path id="DejaVuSans-Oblique-78" d="M 3841 3500 
L 2234 1784 
L 3219 0 
L 2559 0 
L 1819 1388 
L 531 0 
L -166 0 
L 1556 1844 
L 641 3500 
L 1300 3500 
L 1972 2234 
L 3144 3500 
L 3841 3500 
z
" transform="scale(0.015625)"/>
       <path id="DejaVuSans-6d" d="M 3328 2828 
Q 3544 3216 3844 3400 
Q 4144 3584 4550 3584 
Q 5097 3584 5394 3201 
Q 5691 2819 5691 2113 
L 5691 0 
L 5113 0 
L 5113 2094 
Q 5113 2597 4934 2840 
Q 4756 3084 4391 3084 
Q 3944 3084 3684 2787 
Q 3425 2491 3425 1978 
L 3425 0 
L 2847 0 
L 2847 2094 
Q 2847 2600 2669 2842 
Q 2491 3084 2119 3084 
Q 1678 3084 1418 2786 
Q 1159 2488 1159 1978 
L 1159 0 
L 581 0 
L 581 3500 
L 1159 3500 
L 1159 2956 
Q 1356 3278 1631 3431 
Q 1906 3584 2284 3584 
Q 2666 3584 2933 3390 
Q 3200 3197 3328 2828 
z
" transform="scale(0.015625)"/>
       <path id="DejaVuSans-2c" d="M 750 794 
L 1409 794 
L 1409 256 
L 897 -744 
L 494 -744 
L 750 256 
L 750 794 
z
" transform="scale(0.015625)"/>
       <path id="DejaVuSans-Oblique-76" d="M 459 3500 
L 1069 3500 
L 1581 525 
L 3256 3500 
L 3866 3500 
L 1875 0 
L 1100 0 
L 459 3500 
z
" transform="scale(0.015625)"/>
      </defs>
      <use xlink:href="#DejaVuSans-Oblique-78" transform="translate(0 0.684375)"/>
      <use xlink:href="#DejaVuSans-2f" transform="translate(91.650066 0.684375)"/>
      <use xlink:href="#DejaVuSans-6d" transform="translate(157.811851 0.684375)"/>
      <use xlink:href="#DejaVuSans-2c" transform="translate(255.22396 0.684375)"/>
      <use xlink:href="#DejaVuSans-Oblique-76" transform="translate(338.96387 0.684375)"/>
      <use xlink:href="#DejaVuSans-2f" transform="translate(430.613936 0.684375)"/>
      <use xlink:href="#DejaVuSans-6d" transform="translate(496.77572 0.684375)"/>
      <use xlink:href="#DejaVuSans-Oblique-73" transform="translate(626.658208 0.684375)"/>
      <use xlink:href="#DejaVuSans-2212" transform="translate(683.407713 38.965625) scale(0.7)"/>
      <use xlink:href="#DejaVuSans-31" transform="translate(742.060057 38.965625) scale(0.7)"/>
     </g>
    </g>
   </g>
   <g id="line2d_14">
    <path d="M 81.64054 69.857698 
L 83.27197 70.073577 
L 84.9034 70.720122 
L 86.534829 71.79407 
L 88.166259 73.289999 
L 89.797689 75.200358 
L 91.429119 77.515502 
L 93.060549 80.223744 
L 94.691979 83.311413 
L 96.323409 86.76292 
L 97.954839 90.560843 
L 99.586268 94.686007 
L 102.849128 103.833214 
L 106.111988 114.020066 
L 109.374848 125.04112 
L 114.269137 142.647114 
L 125.689146 184.548441 
L 128.952006 195.643279 
L 132.214866 205.92618 
L 135.477726 215.189763 
L 137.109156 219.380019 
L 138.740585 223.247205 
L 140.372015 226.771798 
L 142.003445 229.936007 
L 143.634875 232.723856 
L 145.266305 235.121272 
L 146.897735 237.116153 
L 148.529165 238.698427 
L 150.160595 239.860108 
L 151.792024 240.59533 
L 153.423454 240.900382 
L 155.054884 240.773724 
L 156.686314 240.215995 
L 158.317744 239.230011 
L 159.949174 237.82075 
L 161.580604 235.995325 
L 163.212034 233.762953 
L 164.843463 231.134902 
L 166.474893 228.124439 
L 168.106323 224.746763 
L 169.737753 221.018924 
L 171.369183 216.959741 
L 174.632043 207.930883 
L 177.894902 197.842277 
L 181.157762 186.897386 
L 186.052052 169.360996 
L 197.472061 127.402902 
L 200.734921 116.236674 
L 203.997781 105.859943 
L 207.26064 96.481983 
L 208.89207 92.227539 
L 210.5235 88.291924 
L 212.15493 84.695004 
L 213.78636 81.454939 
L 215.41779 78.588084 
L 217.04922 76.108913 
L 218.680649 74.02994 
L 220.312079 72.361662 
L 221.943509 71.1125 
L 223.574939 70.288759 
L 225.206369 69.8946 
L 226.837799 69.93201 
L 228.469229 70.400802 
L 230.100659 71.298609 
L 231.732088 72.620898 
L 233.363518 74.360995 
L 234.994948 76.510114 
L 236.626378 79.057407 
L 238.257808 81.990014 
L 239.889238 85.293131 
L 241.520668 88.950083 
L 243.152098 92.942407 
L 246.414957 101.850969 
L 249.677817 111.839152 
L 252.940677 122.70552 
L 257.834966 140.168522 
L 270.886405 187.873945 
L 274.149265 198.753171 
L 277.412125 208.757742 
L 280.674985 217.685889 
L 282.306415 221.689086 
L 283.937844 225.357555 
L 285.569274 228.672779 
L 287.200704 231.61802 
L 288.832134 234.178412 
L 290.463564 236.341027 
L 292.094994 238.094949 
L 293.726424 239.431324 
L 295.357854 240.343405 
L 296.989283 240.826588 
L 298.620713 240.878433 
L 300.252143 240.498679 
L 301.883573 239.689242 
L 303.515003 238.45421 
L 305.146433 236.799817 
L 306.777863 234.734414 
L 308.409293 232.268429 
L 310.040723 229.41431 
L 311.672152 226.186466 
L 313.303582 222.601191 
L 314.935012 218.676585 
L 318.197872 209.890242 
L 321.460732 200.004637 
L 324.723591 189.219136 
L 329.617881 171.83329 
L 342.66932 124.058879 
L 345.93218 113.101509 
L 349.19504 102.996866 
L 352.457899 93.948735 
L 354.089329 89.878822 
L 355.720759 86.139594 
L 357.352189 82.749928 
L 358.983619 79.726935 
L 360.615049 77.085876 
L 362.246479 74.840084 
L 363.877908 73.000896 
L 365.509338 71.577597 
L 367.140768 70.577372 
L 368.772198 70.005271 
L 370.403628 69.864182 
L 372.035058 70.154816 
L 373.666488 70.875707 
L 375.297918 72.023215 
L 376.929347 73.591548 
L 378.560777 75.572788 
L 380.192207 77.956934 
L 381.823637 80.731949 
L 383.455067 83.883825 
L 385.086497 87.39665 
L 386.717927 91.25269 
L 389.980786 99.914918 
L 393.243646 109.695814 
L 396.506506 120.39812 
L 399.769366 131.805997 
L 406.295085 155.808603 
L 406.295085 155.808603 
" clip-path="url(#pb3558e133b)" style="fill: none; stroke: #000000; stroke-width: 1.5; stroke-linecap: square"/>
   </g>
   <g id="line2d_15">
    <path d="M 81.64054 155.383653 
L 88.166259 189.304764 
L 91.429119 205.408446 
L 94.691979 220.503253 
L 97.954839 234.284758 
L 101.217698 246.475023 
L 102.849128 251.895219 
L 104.480558 256.8282 
L 106.111988 261.249064 
L 107.743418 265.135492 
L 109.374848 268.467866 
L 111.006278 271.229362 
L 112.637707 273.406039 
L 114.269137 274.98691 
L 115.900567 275.963993 
L 117.531997 276.332356 
L 119.163427 276.09014 
L 120.794857 275.238567 
L 122.426287 273.781936 
L 124.057717 271.7276 
L 125.689146 269.085931 
L 127.320576 265.870265 
L 128.952006 262.096834 
L 130.583436 257.784687 
L 132.214866 252.955595 
L 133.846296 247.633935 
L 135.477726 241.846572 
L 138.740585 228.993806 
L 142.003445 214.656505 
L 145.266305 199.123818 
L 150.160595 174.273729 
L 161.580604 114.974565 
L 164.843463 99.23319 
L 168.106323 84.62423 
L 171.369183 71.442313 
L 173.000613 65.470848 
L 174.632043 59.953285 
L 176.263473 54.917479 
L 177.894902 50.388852 
L 179.526332 46.390264 
L 181.157762 42.941903 
L 182.789192 40.061176 
L 184.420622 37.762626 
L 186.052052 36.057857 
L 187.683482 34.955474 
L 189.314912 34.461044 
L 190.946342 34.577061 
L 192.577771 35.30294 
L 194.209201 36.635017 
L 195.840631 38.566567 
L 197.472061 41.08784 
L 199.103491 44.186106 
L 200.734921 47.845726 
L 202.366351 52.048224 
L 203.997781 56.772385 
L 205.62921 61.994361 
L 207.26064 67.68779 
L 210.5235 80.371804 
L 213.78636 94.56862 
L 217.04922 109.991926 
L 221.943509 134.7409 
L 233.363518 194.113945 
L 236.626378 209.954582 
L 239.889238 224.694657 
L 243.152098 238.036902 
L 244.783527 244.098496 
L 246.414957 249.712235 
L 248.046387 254.849779 
L 249.677817 259.485193 
L 251.309247 263.595077 
L 252.940677 267.158682 
L 254.572107 270.158018 
L 256.203537 272.577945 
L 257.834966 274.406245 
L 259.466396 275.633689 
L 261.097826 276.254081 
L 262.729256 276.264288 
L 264.360686 275.664259 
L 265.992116 274.457023 
L 267.623546 272.648675 
L 269.254976 270.248343 
L 270.886405 267.268146 
L 272.517835 263.723127 
L 274.149265 259.631184 
L 275.780695 255.012972 
L 277.412125 249.891807 
L 279.043555 244.29354 
L 282.306415 231.781016 
L 285.569274 217.727746 
L 288.832134 202.41715 
L 293.726424 177.774629 
L 306.777863 110.25837 
L 310.040723 94.817149 
L 313.303582 80.597404 
L 316.566442 67.885913 
L 318.197872 62.177208 
L 319.829302 56.939034 
L 321.460732 52.197833 
L 323.092162 47.97754 
L 324.723591 44.29946 
L 326.355021 41.182161 
L 327.986451 38.64138 
L 329.617881 36.689943 
L 331.249311 35.337703 
L 332.880741 34.591484 
L 334.512171 34.455055 
L 336.143601 34.929104 
L 337.77503 36.011238 
L 339.40646 37.695994 
L 341.03789 39.974867 
L 342.66932 42.836353 
L 344.30075 46.266006 
L 345.93218 50.246512 
L 347.56361 54.757777 
L 349.19504 59.777027 
L 350.826469 65.278923 
L 352.457899 71.235691 
L 355.720759 84.391411 
L 358.983619 98.978869 
L 362.246479 114.703872 
L 367.140768 139.725834 
L 376.929347 190.731651 
L 380.192207 206.760536 
L 383.455067 221.753276 
L 386.717927 235.407506 
L 389.980786 247.447852 
L 391.612216 252.785527 
L 393.243646 257.631492 
L 394.875076 261.961284 
L 396.506506 265.753045 
L 398.137936 268.987634 
L 399.769366 271.648721 
L 401.400796 273.722873 
L 403.032225 275.199619 
L 404.663655 276.071503 
L 406.295085 276.334125 
L 406.295085 276.334125 
" clip-path="url(#pb3558e133b)" style="fill: none; stroke: #000000; stroke-width: 1.5; stroke-linecap: square"/>
   </g>
   <g id="line2d_16">
    <defs>
     <path id="m366150c5c8" d="M 0 3 
C 0.795609 3 1.55874 2.683901 2.12132 2.12132 
C 2.683901 1.55874 3 0.795609 3 0 
C 3 -0.795609 2.683901 -1.55874 2.12132 -2.12132 
C 1.55874 -2.683901 0.795609 -3 0 -3 
C -0.795609 -3 -1.55874 -2.683901 -2.12132 -2.12132 
C -2.683901 -1.55874 -3 -0.795609 -3 0 
C -3 0.795609 -2.683901 1.55874 -2.12132 2.12132 
C -1.55874 2.683901 -0.795609 3 0 3 
z
" style="stroke: #1f77b4"/>
    </defs>
    <g clip-path="url(#pb3558e133b)">
     <use xlink:href="#m366150c5c8" x="81.64054" y="69.857698" style="fill: #1f77b4; stroke: #1f77b4"/>
     <use xlink:href="#m366150c5c8" x="86.534829" y="71.792977" style="fill: #1f77b4; stroke: #1f77b4"/>
     <use xlink:href="#m366150c5c8" x="91.429119" y="77.513431" style="fill: #1f77b4; stroke: #1f77b4"/>
     <use xlink:href="#m366150c5c8" x="96.323409" y="86.764069" style="fill: #1f77b4; stroke: #1f77b4"/>
     <use xlink:href="#m366150c5c8" x="101.217698" y="99.118583" style="fill: #1f77b4; stroke: #1f77b4"/>
     <use xlink:href="#m366150c5c8" x="106.111988" y="114.015743" style="fill: #1f77b4; stroke: #1f77b4"/>
     <use xlink:href="#m366150c5c8" x="111.006278" y="130.791759" style="fill: #1f77b4; stroke: #1f77b4"/>
     <use xlink:href="#m366150c5c8" x="115.900567" y="148.696901" style="fill: #1f77b4; stroke: #1f77b4"/>
     <use xlink:href="#m366150c5c8" x="120.794857" y="166.900357" style="fill: #1f77b4; stroke: #1f77b4"/>
     <use xlink:href="#m366150c5c8" x="125.689146" y="184.586826" style="fill: #1f77b4; stroke: #1f77b4"/>
     <use xlink:href="#m366150c5c8" x="130.583436" y="200.942154" style="fill: #1f77b4; stroke: #1f77b4"/>
     <use xlink:href="#m366150c5c8" x="135.477726" y="215.224915" style="fill: #1f77b4; stroke: #1f77b4"/>
     <use xlink:href="#m366150c5c8" x="140.372015" y="226.799464" style="fill: #1f77b4; stroke: #1f77b4"/>
     <use xlink:href="#m366150c5c8" x="145.266305" y="235.146315" style="fill: #1f77b4; stroke: #1f77b4"/>
     <use xlink:href="#m366150c5c8" x="150.160595" y="239.898738" style="fill: #1f77b4; stroke: #1f77b4"/>
     <use xlink:href="#m366150c5c8" x="155.054884" y="240.806848" style="fill: #1f77b4; stroke: #1f77b4"/>
     <use xlink:href="#m366150c5c8" x="159.949174" y="237.819494" style="fill: #1f77b4; stroke: #1f77b4"/>
     <use xlink:href="#m366150c5c8" x="164.843463" y="231.094017" style="fill: #1f77b4; stroke: #1f77b4"/>
     <use xlink:href="#m366150c5c8" x="169.737753" y="220.966034" style="fill: #1f77b4; stroke: #1f77b4"/>
     <use xlink:href="#m366150c5c8" x="174.632043" y="207.873626" style="fill: #1f77b4; stroke: #1f77b4"/>
     <use xlink:href="#m366150c5c8" x="179.526332" y="192.392927" style="fill: #1f77b4; stroke: #1f77b4"/>
     <use xlink:href="#m366150c5c8" x="184.420622" y="175.219843" style="fill: #1f77b4; stroke: #1f77b4"/>
     <use xlink:href="#m366150c5c8" x="189.314912" y="157.158105" style="fill: #1f77b4; stroke: #1f77b4"/>
     <use xlink:href="#m366150c5c8" x="194.209201" y="139.014164" style="fill: #1f77b4; stroke: #1f77b4"/>
     <use xlink:href="#m366150c5c8" x="199.103491" y="121.620463" style="fill: #1f77b4; stroke: #1f77b4"/>
     <use xlink:href="#m366150c5c8" x="203.997781" y="105.757572" style="fill: #1f77b4; stroke: #1f77b4"/>
     <use xlink:href="#m366150c5c8" x="208.89207" y="92.13661" style="fill: #1f77b4; stroke: #1f77b4"/>
     <use xlink:href="#m366150c5c8" x="213.78636" y="81.376745" style="fill: #1f77b4; stroke: #1f77b4"/>
     <use xlink:href="#m366150c5c8" x="218.680649" y="73.957069" style="fill: #1f77b4; stroke: #1f77b4"/>
     <use xlink:href="#m366150c5c8" x="223.574939" y="70.24479" style="fill: #1f77b4; stroke: #1f77b4"/>
     <use xlink:href="#m366150c5c8" x="228.469229" y="70.409448" style="fill: #1f77b4; stroke: #1f77b4"/>
     <use xlink:href="#m366150c5c8" x="233.363518" y="74.417967" style="fill: #1f77b4; stroke: #1f77b4"/>
     <use xlink:href="#m366150c5c8" x="238.257808" y="82.068158" style="fill: #1f77b4; stroke: #1f77b4"/>
     <use xlink:href="#m366150c5c8" x="243.152098" y="93.036614" style="fill: #1f77b4; stroke: #1f77b4"/>
     <use xlink:href="#m366150c5c8" x="248.046387" y="106.84866" style="fill: #1f77b4; stroke: #1f77b4"/>
     <use xlink:href="#m366150c5c8" x="252.940677" y="122.87883" style="fill: #1f77b4; stroke: #1f77b4"/>
     <use xlink:href="#m366150c5c8" x="257.834966" y="140.36427" style="fill: #1f77b4; stroke: #1f77b4"/>
     <use xlink:href="#m366150c5c8" x="262.729256" y="158.526415" style="fill: #1f77b4; stroke: #1f77b4"/>
     <use xlink:href="#m366150c5c8" x="267.623546" y="176.539385" style="fill: #1f77b4; stroke: #1f77b4"/>
     <use xlink:href="#m366150c5c8" x="272.517835" y="193.597502" style="fill: #1f77b4; stroke: #1f77b4"/>
     <use xlink:href="#m366150c5c8" x="277.412125" y="208.93208" style="fill: #1f77b4; stroke: #1f77b4"/>
     <use xlink:href="#m366150c5c8" x="282.306415" y="221.840863" style="fill: #1f77b4; stroke: #1f77b4"/>
     <use xlink:href="#m366150c5c8" x="287.200704" y="231.747888" style="fill: #1f77b4; stroke: #1f77b4"/>
     <use xlink:href="#m366150c5c8" x="292.094994" y="238.177491" style="fill: #1f77b4; stroke: #1f77b4"/>
     <use xlink:href="#m366150c5c8" x="296.989283" y="240.841392" style="fill: #1f77b4; stroke: #1f77b4"/>
     <use xlink:href="#m366150c5c8" x="301.883573" y="239.64267" style="fill: #1f77b4; stroke: #1f77b4"/>
     <use xlink:href="#m366150c5c8" x="306.777863" y="234.653812" style="fill: #1f77b4; stroke: #1f77b4"/>
     <use xlink:href="#m366150c5c8" x="311.672152" y="226.073259" style="fill: #1f77b4; stroke: #1f77b4"/>
     <use xlink:href="#m366150c5c8" x="316.566442" y="214.265331" style="fill: #1f77b4; stroke: #1f77b4"/>
     <use xlink:href="#m366150c5c8" x="321.460732" y="199.768811" style="fill: #1f77b4; stroke: #1f77b4"/>
     <use xlink:href="#m366150c5c8" x="326.355021" y="183.283497" style="fill: #1f77b4; stroke: #1f77b4"/>
     <use xlink:href="#m366150c5c8" x="331.249311" y="165.542528" style="fill: #1f77b4; stroke: #1f77b4"/>
     <use xlink:href="#m366150c5c8" x="336.143601" y="147.346087" style="fill: #1f77b4; stroke: #1f77b4"/>
     <use xlink:href="#m366150c5c8" x="341.03789" y="129.506112" style="fill: #1f77b4; stroke: #1f77b4"/>
     <use xlink:href="#m366150c5c8" x="345.93218" y="112.830259" style="fill: #1f77b4; stroke: #1f77b4"/>
     <use xlink:href="#m366150c5c8" x="350.826469" y="98.085714" style="fill: #1f77b4; stroke: #1f77b4"/>
     <use xlink:href="#m366150c5c8" x="355.720759" y="85.931435" style="fill: #1f77b4; stroke: #1f77b4"/>
     <use xlink:href="#m366150c5c8" x="360.615049" y="76.939826" style="fill: #1f77b4; stroke: #1f77b4"/>
     <use xlink:href="#m366150c5c8" x="365.509338" y="71.511616" style="fill: #1f77b4; stroke: #1f77b4"/>
     <use xlink:href="#m366150c5c8" x="370.403628" y="69.87193" style="fill: #1f77b4; stroke: #1f77b4"/>
     <use xlink:href="#m366150c5c8" x="375.297918" y="72.079413" style="fill: #1f77b4; stroke: #1f77b4"/>
     <use xlink:href="#m366150c5c8" x="380.192207" y="78.066923" style="fill: #1f77b4; stroke: #1f77b4"/>
     <use xlink:href="#m366150c5c8" x="385.086497" y="87.585743" style="fill: #1f77b4; stroke: #1f77b4"/>
     <use xlink:href="#m366150c5c8" x="389.980786" y="100.194393" style="fill: #1f77b4; stroke: #1f77b4"/>
     <use xlink:href="#m366150c5c8" x="394.875076" y="115.276232" style="fill: #1f77b4; stroke: #1f77b4"/>
     <use xlink:href="#m366150c5c8" x="399.769366" y="132.166215" style="fill: #1f77b4; stroke: #1f77b4"/>
     <use xlink:href="#m366150c5c8" x="404.663655" y="150.107899" style="fill: #1f77b4; stroke: #1f77b4"/>
    </g>
   </g>
   <g id="line2d_17">
    <defs>
     <path id="md867d66e6d" d="M 0 4.242641 
L 4.242641 0 
L 0 -4.242641 
L -4.242641 0 
z
" style="stroke: #808080; stroke-linejoin: miter"/>
    </defs>
    <g clip-path="url(#pb3558e133b)">
     <use xlink:href="#md867d66e6d" x="81.64054" y="155.383653" style="fill: #808080; stroke: #808080; stroke-linejoin: miter"/>
     <use xlink:href="#md867d66e6d" x="86.534829" y="180.978106" style="fill: #808080; stroke: #808080; stroke-linejoin: miter"/>
     <use xlink:href="#md867d66e6d" x="91.429119" y="205.411828" style="fill: #808080; stroke: #808080; stroke-linejoin: miter"/>
     <use xlink:href="#md867d66e6d" x="96.323409" y="227.577347" style="fill: #808080; stroke: #808080; stroke-linejoin: miter"/>
     <use xlink:href="#md867d66e6d" x="101.217698" y="246.487995" style="fill: #808080; stroke: #808080; stroke-linejoin: miter"/>
     <use xlink:href="#md867d66e6d" x="106.111988" y="261.285446" style="fill: #808080; stroke: #808080; stroke-linejoin: miter"/>
     <use xlink:href="#md867d66e6d" x="111.006278" y="271.262331" style="fill: #808080; stroke: #808080; stroke-linejoin: miter"/>
     <use xlink:href="#md867d66e6d" x="115.900567" y="275.971836" style="fill: #808080; stroke: #808080; stroke-linejoin: miter"/>
     <use xlink:href="#md867d66e6d" x="120.794857" y="275.232672" style="fill: #808080; stroke: #808080; stroke-linejoin: miter"/>
     <use xlink:href="#md867d66e6d" x="125.689146" y="269.100838" style="fill: #808080; stroke: #808080; stroke-linejoin: miter"/>
     <use xlink:href="#md867d66e6d" x="130.583436" y="257.812532" style="fill: #808080; stroke: #808080; stroke-linejoin: miter"/>
     <use xlink:href="#md867d66e6d" x="135.477726" y="241.846706" style="fill: #808080; stroke: #808080; stroke-linejoin: miter"/>
     <use xlink:href="#md867d66e6d" x="140.372015" y="221.937305" style="fill: #808080; stroke: #808080; stroke-linejoin: miter"/>
     <use xlink:href="#md867d66e6d" x="145.266305" y="199.047294" style="fill: #808080; stroke: #808080; stroke-linejoin: miter"/>
     <use xlink:href="#md867d66e6d" x="150.160595" y="174.190299" style="fill: #808080; stroke: #808080; stroke-linejoin: miter"/>
     <use xlink:href="#md867d66e6d" x="155.054884" y="148.486088" style="fill: #808080; stroke: #808080; stroke-linejoin: miter"/>
     <use xlink:href="#md867d66e6d" x="159.949174" y="123.080183" style="fill: #808080; stroke: #808080; stroke-linejoin: miter"/>
     <use xlink:href="#md867d66e6d" x="164.843463" y="99.127815" style="fill: #808080; stroke: #808080; stroke-linejoin: miter"/>
     <use xlink:href="#md867d66e6d" x="169.737753" y="77.729906" style="fill: #808080; stroke: #808080; stroke-linejoin: miter"/>
     <use xlink:href="#md867d66e6d" x="174.632043" y="59.845851" style="fill: #808080; stroke: #808080; stroke-linejoin: miter"/>
     <use xlink:href="#md867d66e6d" x="179.526332" y="46.311921" style="fill: #808080; stroke: #808080; stroke-linejoin: miter"/>
     <use xlink:href="#md867d66e6d" x="184.420622" y="37.728851" style="fill: #808080; stroke: #808080; stroke-linejoin: miter"/>
     <use xlink:href="#md867d66e6d" x="189.314912" y="34.456704" style="fill: #808080; stroke: #808080; stroke-linejoin: miter"/>
     <use xlink:href="#md867d66e6d" x="194.209201" y="36.628581" style="fill: #808080; stroke: #808080; stroke-linejoin: miter"/>
     <use xlink:href="#md867d66e6d" x="199.103491" y="44.19548" style="fill: #808080; stroke: #808080; stroke-linejoin: miter"/>
     <use xlink:href="#md867d66e6d" x="203.997781" y="56.840549" style="fill: #808080; stroke: #808080; stroke-linejoin: miter"/>
     <use xlink:href="#md867d66e6d" x="208.89207" y="73.967799" style="fill: #808080; stroke: #808080; stroke-linejoin: miter"/>
     <use xlink:href="#md867d66e6d" x="213.78636" y="94.742805" style="fill: #808080; stroke: #808080; stroke-linejoin: miter"/>
     <use xlink:href="#md867d66e6d" x="218.680649" y="118.253595" style="fill: #808080; stroke: #808080; stroke-linejoin: miter"/>
     <use xlink:href="#md867d66e6d" x="223.574939" y="143.449038" style="fill: #808080; stroke: #808080; stroke-linejoin: miter"/>
     <use xlink:href="#md867d66e6d" x="228.469229" y="169.206248" style="fill: #808080; stroke: #808080; stroke-linejoin: miter"/>
     <use xlink:href="#md867d66e6d" x="233.363518" y="194.337283" style="fill: #808080; stroke: #808080; stroke-linejoin: miter"/>
     <use xlink:href="#md867d66e6d" x="238.257808" y="217.706123" style="fill: #808080; stroke: #808080; stroke-linejoin: miter"/>
     <use xlink:href="#md867d66e6d" x="243.152098" y="238.24634" style="fill: #808080; stroke: #808080; stroke-linejoin: miter"/>
     <use xlink:href="#md867d66e6d" x="248.046387" y="255.012208" style="fill: #808080; stroke: #808080; stroke-linejoin: miter"/>
     <use xlink:href="#md867d66e6d" x="252.940677" y="267.260477" style="fill: #808080; stroke: #808080; stroke-linejoin: miter"/>
     <use xlink:href="#md867d66e6d" x="257.834966" y="274.456889" style="fill: #808080; stroke: #808080; stroke-linejoin: miter"/>
     <use xlink:href="#md867d66e6d" x="262.729256" y="276.291453" style="fill: #808080; stroke: #808080; stroke-linejoin: miter"/>
     <use xlink:href="#md867d66e6d" x="267.623546" y="272.63106" style="fill: #808080; stroke: #808080; stroke-linejoin: miter"/>
     <use xlink:href="#md867d66e6d" x="272.517835" y="263.619192" style="fill: #808080; stroke: #808080; stroke-linejoin: miter"/>
     <use xlink:href="#md867d66e6d" x="277.412125" y="249.690194" style="fill: #808080; stroke: #808080; stroke-linejoin: miter"/>
     <use xlink:href="#md867d66e6d" x="282.306415" y="231.529384" style="fill: #808080; stroke: #808080; stroke-linejoin: miter"/>
     <use xlink:href="#md867d66e6d" x="287.200704" y="209.931118" style="fill: #808080; stroke: #808080; stroke-linejoin: miter"/>
     <use xlink:href="#md867d66e6d" x="292.094994" y="185.854074" style="fill: #808080; stroke: #808080; stroke-linejoin: miter"/>
     <use xlink:href="#md867d66e6d" x="296.989283" y="160.372936" style="fill: #808080; stroke: #808080; stroke-linejoin: miter"/>
     <use xlink:href="#md867d66e6d" x="301.883573" y="134.671468" style="fill: #808080; stroke: #808080; stroke-linejoin: miter"/>
     <use xlink:href="#md867d66e6d" x="306.777863" y="109.903892" style="fill: #808080; stroke: #808080; stroke-linejoin: miter"/>
     <use xlink:href="#md867d66e6d" x="311.672152" y="87.206258" style="fill: #808080; stroke: #808080; stroke-linejoin: miter"/>
     <use xlink:href="#md867d66e6d" x="316.566442" y="67.612467" style="fill: #808080; stroke: #808080; stroke-linejoin: miter"/>
     <use xlink:href="#md867d66e6d" x="321.460732" y="51.993487" style="fill: #808080; stroke: #808080; stroke-linejoin: miter"/>
     <use xlink:href="#md867d66e6d" x="326.355021" y="41.047601" style="fill: #808080; stroke: #808080; stroke-linejoin: miter"/>
     <use xlink:href="#md867d66e6d" x="331.249311" y="35.2521" style="fill: #808080; stroke: #808080; stroke-linejoin: miter"/>
     <use xlink:href="#md867d66e6d" x="336.143601" y="34.9175" style="fill: #808080; stroke: #808080; stroke-linejoin: miter"/>
     <use xlink:href="#md867d66e6d" x="341.03789" y="40.077413" style="fill: #808080; stroke: #808080; stroke-linejoin: miter"/>
     <use xlink:href="#md867d66e6d" x="345.93218" y="50.470587" style="fill: #808080; stroke: #808080; stroke-linejoin: miter"/>
     <use xlink:href="#md867d66e6d" x="350.826469" y="65.577714" style="fill: #808080; stroke: #808080; stroke-linejoin: miter"/>
     <use xlink:href="#md867d66e6d" x="355.720759" y="84.741619" style="fill: #808080; stroke: #808080; stroke-linejoin: miter"/>
     <use xlink:href="#md867d66e6d" x="360.615049" y="107.117994" style="fill: #808080; stroke: #808080; stroke-linejoin: miter"/>
     <use xlink:href="#md867d66e6d" x="365.509338" y="131.704959" style="fill: #808080; stroke: #808080; stroke-linejoin: miter"/>
     <use xlink:href="#md867d66e6d" x="370.403628" y="157.353668" style="fill: #808080; stroke: #808080; stroke-linejoin: miter"/>
     <use xlink:href="#md867d66e6d" x="375.297918" y="182.916054" style="fill: #808080; stroke: #808080; stroke-linejoin: miter"/>
     <use xlink:href="#md867d66e6d" x="380.192207" y="207.219407" style="fill: #808080; stroke: #808080; stroke-linejoin: miter"/>
     <use xlink:href="#md867d66e6d" x="385.086497" y="229.167808" style="fill: #808080; stroke: #808080; stroke-linejoin: miter"/>
     <use xlink:href="#md867d66e6d" x="389.980786" y="247.781267" style="fill: #808080; stroke: #808080; stroke-linejoin: miter"/>
     <use xlink:href="#md867d66e6d" x="394.875076" y="262.205853" style="fill: #808080; stroke: #808080; stroke-linejoin: miter"/>
     <use xlink:href="#md867d66e6d" x="399.769366" y="271.790675" style="fill: #808080; stroke: #808080; stroke-linejoin: miter"/>
     <use xlink:href="#md867d66e6d" x="404.663655" y="276.098838" style="fill: #808080; stroke: #808080; stroke-linejoin: miter"/>
    </g>
   </g>
   <g id="patch_3">
    <path d="M 65.407813 288.430125 
L 65.407813 22.318125 
" style="fill: none; stroke: #000000; stroke-width: 0.8; stroke-linejoin: miter; stroke-linecap: square"/>
   </g>
   <g id="patch_4">
    <path d="M 422.527812 288.430125 
L 422.527812 22.318125 
" style="fill: none; stroke: #000000; stroke-width: 0.8; stroke-linejoin: miter; stroke-linecap: square"/>
   </g>
   <g id="patch_5">
    <path d="M 65.407813 288.430125 
L 422.527813 288.430125 
" style="fill: none; stroke: #000000; stroke-width: 0.8; stroke-linejoin: miter; stroke-linecap: square"/>
   </g>
   <g id="patch_6">
    <path d="M 65.407813 22.318125 
L 422.527813 22.318125 
" style="fill: none; stroke: #000000; stroke-width: 0.8; stroke-linejoin: miter; stroke-linecap: square"/>
   </g>
   <g id="text_16">
    <!-- Numerical Integration vs Exact calculation of QHO -->
    <g transform="translate(93.190625 16.318125) scale(0.12 -0.12)">
     <defs>
      <path id="DejaVuSans-4e" d="M 628 4666 
L 1478 4666 
L 3547 763 
L 3547 4666 
L 4159 4666 
L 4159 0 
L 3309 0 
L 1241 3903 
L 1241 0 
L 628 0 
L 628 4666 
z
" transform="scale(0.015625)"/>
      <path id="DejaVuSans-75" d="M 544 1381 
L 544 3500 
L 1119 3500 
L 1119 1403 
Q 1119 906 1312 657 
Q 1506 409 1894 409 
Q 2359 409 2629 706 
Q 2900 1003 2900 1516 
L 2900 3500 
L 3475 3500 
L 3475 0 
L 2900 0 
L 2900 538 
Q 2691 219 2414 64 
Q 2138 -91 1772 -91 
Q 1169 -91 856 284 
Q 544 659 544 1381 
z
M 1991 3584 
L 1991 3584 
z
" transform="scale(0.015625)"/>
      <path id="DejaVuSans-65" d="M 3597 1894 
L 3597 1613 
L 953 1613 
Q 991 1019 1311 708 
Q 1631 397 2203 397 
Q 2534 397 2845 478 
Q 3156 559 3463 722 
L 3463 178 
Q 3153 47 2828 -22 
Q 2503 -91 2169 -91 
Q 1331 -91 842 396 
Q 353 884 353 1716 
Q 353 2575 817 3079 
Q 1281 3584 2069 3584 
Q 2775 3584 3186 3129 
Q 3597 2675 3597 1894 
z
M 3022 2063 
Q 3016 2534 2758 2815 
Q 2500 3097 2075 3097 
Q 1594 3097 1305 2825 
Q 1016 2553 972 2059 
L 3022 2063 
z
" transform="scale(0.015625)"/>
      <path id="DejaVuSans-72" d="M 2631 2963 
Q 2534 3019 2420 3045 
Q 2306 3072 2169 3072 
Q 1681 3072 1420 2755 
Q 1159 2438 1159 1844 
L 1159 0 
L 581 0 
L 581 3500 
L 1159 3500 
L 1159 2956 
Q 1341 3275 1631 3429 
Q 1922 3584 2338 3584 
Q 2397 3584 2469 3576 
Q 2541 3569 2628 3553 
L 2631 2963 
z
" transform="scale(0.015625)"/>
      <path id="DejaVuSans-69" d="M 603 3500 
L 1178 3500 
L 1178 0 
L 603 0 
L 603 3500 
z
M 603 4863 
L 1178 4863 
L 1178 4134 
L 603 4134 
L 603 4863 
z
" transform="scale(0.015625)"/>
      <path id="DejaVuSans-63" d="M 3122 3366 
L 3122 2828 
Q 2878 2963 2633 3030 
Q 2388 3097 2138 3097 
Q 1578 3097 1268 2742 
Q 959 2388 959 1747 
Q 959 1106 1268 751 
Q 1578 397 2138 397 
Q 2388 397 2633 464 
Q 2878 531 3122 666 
L 3122 134 
Q 2881 22 2623 -34 
Q 2366 -91 2075 -91 
Q 1284 -91 818 406 
Q 353 903 353 1747 
Q 353 2603 823 3093 
Q 1294 3584 2113 3584 
Q 2378 3584 2631 3529 
Q 2884 3475 3122 3366 
z
" transform="scale(0.015625)"/>
      <path id="DejaVuSans-61" d="M 2194 1759 
Q 1497 1759 1228 1600 
Q 959 1441 959 1056 
Q 959 750 1161 570 
Q 1363 391 1709 391 
Q 2188 391 2477 730 
Q 2766 1069 2766 1631 
L 2766 1759 
L 2194 1759 
z
M 3341 1997 
L 3341 0 
L 2766 0 
L 2766 531 
Q 2569 213 2275 61 
Q 1981 -91 1556 -91 
Q 1019 -91 701 211 
Q 384 513 384 1019 
Q 384 1609 779 1909 
Q 1175 2209 1959 2209 
L 2766 2209 
L 2766 2266 
Q 2766 2663 2505 2880 
Q 2244 3097 1772 3097 
Q 1472 3097 1187 3025 
Q 903 2953 641 2809 
L 641 3341 
Q 956 3463 1253 3523 
Q 1550 3584 1831 3584 
Q 2591 3584 2966 3190 
Q 3341 2797 3341 1997 
z
" transform="scale(0.015625)"/>
      <path id="DejaVuSans-6c" d="M 603 4863 
L 1178 4863 
L 1178 0 
L 603 0 
L 603 4863 
z
" transform="scale(0.015625)"/>
      <path id="DejaVuSans-20" transform="scale(0.015625)"/>
      <path id="DejaVuSans-49" d="M 628 4666 
L 1259 4666 
L 1259 0 
L 628 0 
L 628 4666 
z
" transform="scale(0.015625)"/>
      <path id="DejaVuSans-6e" d="M 3513 2113 
L 3513 0 
L 2938 0 
L 2938 2094 
Q 2938 2591 2744 2837 
Q 2550 3084 2163 3084 
Q 1697 3084 1428 2787 
Q 1159 2491 1159 1978 
L 1159 0 
L 581 0 
L 581 3500 
L 1159 3500 
L 1159 2956 
Q 1366 3272 1645 3428 
Q 1925 3584 2291 3584 
Q 2894 3584 3203 3211 
Q 3513 2838 3513 2113 
z
" transform="scale(0.015625)"/>
      <path id="DejaVuSans-74" d="M 1172 4494 
L 1172 3500 
L 2356 3500 
L 2356 3053 
L 1172 3053 
L 1172 1153 
Q 1172 725 1289 603 
Q 1406 481 1766 481 
L 2356 481 
L 2356 0 
L 1766 0 
Q 1100 0 847 248 
Q 594 497 594 1153 
L 594 3053 
L 172 3053 
L 172 3500 
L 594 3500 
L 594 4494 
L 1172 4494 
z
" transform="scale(0.015625)"/>
      <path id="DejaVuSans-67" d="M 2906 1791 
Q 2906 2416 2648 2759 
Q 2391 3103 1925 3103 
Q 1463 3103 1205 2759 
Q 947 2416 947 1791 
Q 947 1169 1205 825 
Q 1463 481 1925 481 
Q 2391 481 2648 825 
Q 2906 1169 2906 1791 
z
M 3481 434 
Q 3481 -459 3084 -895 
Q 2688 -1331 1869 -1331 
Q 1566 -1331 1297 -1286 
Q 1028 -1241 775 -1147 
L 775 -588 
Q 1028 -725 1275 -790 
Q 1522 -856 1778 -856 
Q 2344 -856 2625 -561 
Q 2906 -266 2906 331 
L 2906 616 
Q 2728 306 2450 153 
Q 2172 0 1784 0 
Q 1141 0 747 490 
Q 353 981 353 1791 
Q 353 2603 747 3093 
Q 1141 3584 1784 3584 
Q 2172 3584 2450 3431 
Q 2728 3278 2906 2969 
L 2906 3500 
L 3481 3500 
L 3481 434 
z
" transform="scale(0.015625)"/>
      <path id="DejaVuSans-6f" d="M 1959 3097 
Q 1497 3097 1228 2736 
Q 959 2375 959 1747 
Q 959 1119 1226 758 
Q 1494 397 1959 397 
Q 2419 397 2687 759 
Q 2956 1122 2956 1747 
Q 2956 2369 2687 2733 
Q 2419 3097 1959 3097 
z
M 1959 3584 
Q 2709 3584 3137 3096 
Q 3566 2609 3566 1747 
Q 3566 888 3137 398 
Q 2709 -91 1959 -91 
Q 1206 -91 779 398 
Q 353 888 353 1747 
Q 353 2609 779 3096 
Q 1206 3584 1959 3584 
z
" transform="scale(0.015625)"/>
      <path id="DejaVuSans-76" d="M 191 3500 
L 800 3500 
L 1894 563 
L 2988 3500 
L 3597 3500 
L 2284 0 
L 1503 0 
L 191 3500 
z
" transform="scale(0.015625)"/>
      <path id="DejaVuSans-73" d="M 2834 3397 
L 2834 2853 
Q 2591 2978 2328 3040 
Q 2066 3103 1784 3103 
Q 1356 3103 1142 2972 
Q 928 2841 928 2578 
Q 928 2378 1081 2264 
Q 1234 2150 1697 2047 
L 1894 2003 
Q 2506 1872 2764 1633 
Q 3022 1394 3022 966 
Q 3022 478 2636 193 
Q 2250 -91 1575 -91 
Q 1294 -91 989 -36 
Q 684 19 347 128 
L 347 722 
Q 666 556 975 473 
Q 1284 391 1588 391 
Q 1994 391 2212 530 
Q 2431 669 2431 922 
Q 2431 1156 2273 1281 
Q 2116 1406 1581 1522 
L 1381 1569 
Q 847 1681 609 1914 
Q 372 2147 372 2553 
Q 372 3047 722 3315 
Q 1072 3584 1716 3584 
Q 2034 3584 2315 3537 
Q 2597 3491 2834 3397 
z
" transform="scale(0.015625)"/>
      <path id="DejaVuSans-45" d="M 628 4666 
L 3578 4666 
L 3578 4134 
L 1259 4134 
L 1259 2753 
L 3481 2753 
L 3481 2222 
L 1259 2222 
L 1259 531 
L 3634 531 
L 3634 0 
L 628 0 
L 628 4666 
z
" transform="scale(0.015625)"/>
      <path id="DejaVuSans-78" d="M 3513 3500 
L 2247 1797 
L 3578 0 
L 2900 0 
L 1881 1375 
L 863 0 
L 184 0 
L 1544 1831 
L 300 3500 
L 978 3500 
L 1906 2253 
L 2834 3500 
L 3513 3500 
z
" transform="scale(0.015625)"/>
      <path id="DejaVuSans-66" d="M 2375 4863 
L 2375 4384 
L 1825 4384 
Q 1516 4384 1395 4259 
Q 1275 4134 1275 3809 
L 1275 3500 
L 2222 3500 
L 2222 3053 
L 1275 3053 
L 1275 0 
L 697 0 
L 697 3053 
L 147 3053 
L 147 3500 
L 697 3500 
L 697 3744 
Q 697 4328 969 4595 
Q 1241 4863 1831 4863 
L 2375 4863 
z
" transform="scale(0.015625)"/>
      <path id="DejaVuSans-51" d="M 2522 4238 
Q 1834 4238 1429 3725 
Q 1025 3213 1025 2328 
Q 1025 1447 1429 934 
Q 1834 422 2522 422 
Q 3209 422 3611 934 
Q 4013 1447 4013 2328 
Q 4013 3213 3611 3725 
Q 3209 4238 2522 4238 
z
M 3406 84 
L 4238 -825 
L 3475 -825 
L 2784 -78 
Q 2681 -84 2626 -87 
Q 2572 -91 2522 -91 
Q 1538 -91 948 567 
Q 359 1225 359 2328 
Q 359 3434 948 4092 
Q 1538 4750 2522 4750 
Q 3503 4750 4090 4092 
Q 4678 3434 4678 2328 
Q 4678 1516 4351 937 
Q 4025 359 3406 84 
z
" transform="scale(0.015625)"/>
      <path id="DejaVuSans-48" d="M 628 4666 
L 1259 4666 
L 1259 2753 
L 3553 2753 
L 3553 4666 
L 4184 4666 
L 4184 0 
L 3553 0 
L 3553 2222 
L 1259 2222 
L 1259 0 
L 628 0 
L 628 4666 
z
" transform="scale(0.015625)"/>
      <path id="DejaVuSans-4f" d="M 2522 4238 
Q 1834 4238 1429 3725 
Q 1025 3213 1025 2328 
Q 1025 1447 1429 934 
Q 1834 422 2522 422 
Q 3209 422 3611 934 
Q 4013 1447 4013 2328 
Q 4013 3213 3611 3725 
Q 3209 4238 2522 4238 
z
M 2522 4750 
Q 3503 4750 4090 4092 
Q 4678 3434 4678 2328 
Q 4678 1225 4090 567 
Q 3503 -91 2522 -91 
Q 1538 -91 948 565 
Q 359 1222 359 2328 
Q 359 3434 948 4092 
Q 1538 4750 2522 4750 
z
" transform="scale(0.015625)"/>
     </defs>
     <use xlink:href="#DejaVuSans-4e"/>
     <use xlink:href="#DejaVuSans-75" transform="translate(74.804688 0)"/>
     <use xlink:href="#DejaVuSans-6d" transform="translate(138.183594 0)"/>
     <use xlink:href="#DejaVuSans-65" transform="translate(235.595703 0)"/>
     <use xlink:href="#DejaVuSans-72" transform="translate(297.119141 0)"/>
     <use xlink:href="#DejaVuSans-69" transform="translate(338.232422 0)"/>
     <use xlink:href="#DejaVuSans-63" transform="translate(366.015625 0)"/>
     <use xlink:href="#DejaVuSans-61" transform="translate(420.996094 0)"/>
     <use xlink:href="#DejaVuSans-6c" transform="translate(482.275391 0)"/>
     <use xlink:href="#DejaVuSans-20" transform="translate(510.058594 0)"/>
     <use xlink:href="#DejaVuSans-49" transform="translate(541.845703 0)"/>
     <use xlink:href="#DejaVuSans-6e" transform="translate(571.337891 0)"/>
     <use xlink:href="#DejaVuSans-74" transform="translate(634.716797 0)"/>
     <use xlink:href="#DejaVuSans-65" transform="translate(673.925781 0)"/>
     <use xlink:href="#DejaVuSans-67" transform="translate(735.449219 0)"/>
     <use xlink:href="#DejaVuSans-72" transform="translate(798.925781 0)"/>
     <use xlink:href="#DejaVuSans-61" transform="translate(840.039062 0)"/>
     <use xlink:href="#DejaVuSans-74" transform="translate(901.318359 0)"/>
     <use xlink:href="#DejaVuSans-69" transform="translate(940.527344 0)"/>
     <use xlink:href="#DejaVuSans-6f" transform="translate(968.310547 0)"/>
     <use xlink:href="#DejaVuSans-6e" transform="translate(1029.492188 0)"/>
     <use xlink:href="#DejaVuSans-20" transform="translate(1092.871094 0)"/>
     <use xlink:href="#DejaVuSans-76" transform="translate(1124.658203 0)"/>
     <use xlink:href="#DejaVuSans-73" transform="translate(1183.837891 0)"/>
     <use xlink:href="#DejaVuSans-20" transform="translate(1235.9375 0)"/>
     <use xlink:href="#DejaVuSans-45" transform="translate(1267.724609 0)"/>
     <use xlink:href="#DejaVuSans-78" transform="translate(1330.908203 0)"/>
     <use xlink:href="#DejaVuSans-61" transform="translate(1390.087891 0)"/>
     <use xlink:href="#DejaVuSans-63" transform="translate(1451.367188 0)"/>
     <use xlink:href="#DejaVuSans-74" transform="translate(1506.347656 0)"/>
     <use xlink:href="#DejaVuSans-20" transform="translate(1545.556641 0)"/>
     <use xlink:href="#DejaVuSans-63" transform="translate(1577.34375 0)"/>
     <use xlink:href="#DejaVuSans-61" transform="translate(1632.324219 0)"/>
     <use xlink:href="#DejaVuSans-6c" transform="translate(1693.603516 0)"/>
     <use xlink:href="#DejaVuSans-63" transform="translate(1721.386719 0)"/>
     <use xlink:href="#DejaVuSans-75" transform="translate(1776.367188 0)"/>
     <use xlink:href="#DejaVuSans-6c" transform="translate(1839.746094 0)"/>
     <use xlink:href="#DejaVuSans-61" transform="translate(1867.529297 0)"/>
     <use xlink:href="#DejaVuSans-74" transform="translate(1928.808594 0)"/>
     <use xlink:href="#DejaVuSans-69" transform="translate(1968.017578 0)"/>
     <use xlink:href="#DejaVuSans-6f" transform="translate(1995.800781 0)"/>
     <use xlink:href="#DejaVuSans-6e" transform="translate(2056.982422 0)"/>
     <use xlink:href="#DejaVuSans-20" transform="translate(2120.361328 0)"/>
     <use xlink:href="#DejaVuSans-6f" transform="translate(2152.148438 0)"/>
     <use xlink:href="#DejaVuSans-66" transform="translate(2213.330078 0)"/>
     <use xlink:href="#DejaVuSans-20" transform="translate(2248.535156 0)"/>
     <use xlink:href="#DejaVuSans-51" transform="translate(2280.322266 0)"/>
     <use xlink:href="#DejaVuSans-48" transform="translate(2359.033203 0)"/>
     <use xlink:href="#DejaVuSans-4f" transform="translate(2434.228516 0)"/>
    </g>
   </g>
   <g id="legend_1">
    <g id="patch_7">
     <path d="M 72.407813 89.030625 
L 150.307813 89.030625 
Q 152.307813 89.030625 152.307813 87.030625 
L 152.307813 29.318125 
Q 152.307813 27.318125 150.307813 27.318125 
L 72.407813 27.318125 
Q 70.407813 27.318125 70.407813 29.318125 
L 70.407813 87.030625 
Q 70.407813 89.030625 72.407813 89.030625 
z
" style="fill: #ffffff; opacity: 0.8; stroke: #cccccc; stroke-linejoin: miter"/>
    </g>
    <g id="line2d_18">
     <path d="M 74.407813 35.416562 
L 84.407813 35.416562 
L 94.407813 35.416562 
" style="fill: none; stroke: #000000; stroke-width: 1.5; stroke-linecap: square"/>
    </g>
    <g id="text_17">
     <!-- $\mathrm{x-exact}$ -->
     <g transform="translate(102.407813 38.916562) scale(0.1 -0.1)">
      <use xlink:href="#DejaVuSans-78" transform="translate(0 0.78125)"/>
      <use xlink:href="#DejaVuSans-2212" transform="translate(78.662109 0.78125)"/>
      <use xlink:href="#DejaVuSans-65" transform="translate(181.933594 0.78125)"/>
      <use xlink:href="#DejaVuSans-78" transform="translate(243.457031 0.78125)"/>
      <use xlink:href="#DejaVuSans-61" transform="translate(302.636719 0.78125)"/>
      <use xlink:href="#DejaVuSans-63" transform="translate(363.916016 0.78125)"/>
      <use xlink:href="#DejaVuSans-74" transform="translate(418.896484 0.78125)"/>
     </g>
    </g>
    <g id="line2d_19">
     <path d="M 74.407813 50.094688 
L 84.407813 50.094688 
L 94.407813 50.094688 
" style="fill: none; stroke: #000000; stroke-width: 1.5; stroke-linecap: square"/>
    </g>
    <g id="text_18">
     <!-- $\mathrm{v-exact}$ -->
     <g transform="translate(102.407813 53.594688) scale(0.1 -0.1)">
      <use xlink:href="#DejaVuSans-76" transform="translate(0 0.78125)"/>
      <use xlink:href="#DejaVuSans-2212" transform="translate(78.662109 0.78125)"/>
      <use xlink:href="#DejaVuSans-65" transform="translate(181.933594 0.78125)"/>
      <use xlink:href="#DejaVuSans-78" transform="translate(243.457031 0.78125)"/>
      <use xlink:href="#DejaVuSans-61" transform="translate(302.636719 0.78125)"/>
      <use xlink:href="#DejaVuSans-63" transform="translate(363.916016 0.78125)"/>
      <use xlink:href="#DejaVuSans-74" transform="translate(418.896484 0.78125)"/>
     </g>
    </g>
    <g id="line2d_20">
     <g>
      <use xlink:href="#m366150c5c8" x="84.407813" y="64.772812" style="fill: #1f77b4; stroke: #1f77b4"/>
     </g>
    </g>
    <g id="text_19">
     <!-- $x$ -->
     <g transform="translate(102.407813 68.272812) scale(0.1 -0.1)">
      <use xlink:href="#DejaVuSans-Oblique-78" transform="translate(0 0.3125)"/>
     </g>
    </g>
    <g id="line2d_21">
     <g>
      <use xlink:href="#md867d66e6d" x="84.407813" y="79.450938" style="fill: #808080; stroke: #808080; stroke-linejoin: miter"/>
     </g>
    </g>
    <g id="text_20">
     <!-- $v$ -->
     <g transform="translate(102.407813 82.950938) scale(0.1 -0.1)">
      <use xlink:href="#DejaVuSans-Oblique-76" transform="translate(0 0.3125)"/>
     </g>
    </g>
   </g>
  </g>
 </g>
 <defs>
  <clipPath id="pb3558e133b">
   <rect x="65.407813" y="22.318125" width="357.12" height="266.112"/>
  </clipPath>
 </defs>
</svg>
