<?xml version="1.0" encoding="utf-8" standalone="no"?>
<!DOCTYPE svg PUBLIC "-//W3C//DTD SVG 1.1//EN"
  "http://www.w3.org/Graphics/SVG/1.1/DTD/svg11.dtd">
<svg xmlns:xlink="http://www.w3.org/1999/xlink" width="408.362187pt" height="311.109822pt" viewBox="0 0 408.362187 311.109822" xmlns="http://www.w3.org/2000/svg" version="1.1">
 <metadata>
  <rdf:RDF xmlns:dc="http://purl.org/dc/elements/1.1/" xmlns:cc="http://creativecommons.org/ns#" xmlns:rdf="http://www.w3.org/1999/02/22-rdf-syntax-ns#">
   <cc:Work>
    <dc:type rdf:resource="http://purl.org/dc/dcmitype/StillImage"/>
    <dc:date>2026-05-29T12:21:46.534042</dc:date>
    <dc:format>image/svg+xml</dc:format>
    <dc:creator>
     <cc:Agent>
      <dc:title>Matplotlib v3.10.8, https://matplotlib.org/</dc:title>
     </cc:Agent>
    </dc:creator>
   </cc:Work>
  </rdf:RDF>
 </metadata>
 <defs>
  <style type="text/css">*{stroke-linejoin: round; stroke-linecap: butt}</style>
 </defs>
 <g id="figure_1">
  <g id="patch_1">
   <path d="M 0 311.109822 
L 408.362187 311.109822 
L 408.362187 0 
L 0 0 
z
" style="fill: #ffffff"/>
  </g>
  <g id="axes_1">
   <g id="patch_2">
    <path d="M 44.042187 85.709807 
L 401.162188 85.709807 
L 401.162188 7.441572 
L 44.042187 7.441572 
z
" style="fill: #ffffff"/>
   </g>
   <g id="matplotlib.axis_1">
    <g id="xtick_1">
     <g id="line2d_1">
      <defs>
       <path id="m987c05691d" d="M 0 0 
L 0 3.5 
" style="stroke: #000000; stroke-width: 0.8"/>
      </defs>
      <g>
       <use xlink:href="#m987c05691d" x="60.274915" y="85.709807" style="stroke: #000000; stroke-width: 0.8"/>
      </g>
     </g>
    </g>
    <g id="xtick_2">
     <g id="line2d_2">
      <g>
       <use xlink:href="#m987c05691d" x="100.856733" y="85.709807" style="stroke: #000000; stroke-width: 0.8"/>
      </g>
     </g>
    </g>
    <g id="xtick_3">
     <g id="line2d_3">
      <g>
       <use xlink:href="#m987c05691d" x="141.438551" y="85.709807" style="stroke: #000000; stroke-width: 0.8"/>
      </g>
     </g>
    </g>
    <g id="xtick_4">
     <g id="line2d_4">
      <g>
       <use xlink:href="#m987c05691d" x="182.020369" y="85.709807" style="stroke: #000000; stroke-width: 0.8"/>
      </g>
     </g>
    </g>
    <g id="xtick_5">
     <g id="line2d_5">
      <g>
       <use xlink:href="#m987c05691d" x="222.602188" y="85.709807" style="stroke: #000000; stroke-width: 0.8"/>
      </g>
     </g>
    </g>
    <g id="xtick_6">
     <g id="line2d_6">
      <g>
       <use xlink:href="#m987c05691d" x="263.184006" y="85.709807" style="stroke: #000000; stroke-width: 0.8"/>
      </g>
     </g>
    </g>
    <g id="xtick_7">
     <g id="line2d_7">
      <g>
       <use xlink:href="#m987c05691d" x="303.765824" y="85.709807" style="stroke: #000000; stroke-width: 0.8"/>
      </g>
     </g>
    </g>
    <g id="xtick_8">
     <g id="line2d_8">
      <g>
       <use xlink:href="#m987c05691d" x="344.347642" y="85.709807" style="stroke: #000000; stroke-width: 0.8"/>
      </g>
     </g>
    </g>
    <g id="xtick_9">
     <g id="line2d_9">
      <g>
       <use xlink:href="#m987c05691d" x="384.92946" y="85.709807" style="stroke: #000000; stroke-width: 0.8"/>
      </g>
     </g>
    </g>
   </g>
   <g id="matplotlib.axis_2">
    <g id="ytick_1">
     <g id="line2d_10">
      <defs>
       <path id="md189149b9e" d="M 0 0 
L -3.5 0 
" style="stroke: #000000; stroke-width: 0.8"/>
      </defs>
      <g>
       <use xlink:href="#md189149b9e" x="44.042187" y="80.377794" style="stroke: #000000; stroke-width: 0.8"/>
      </g>
     </g>
     <g id="text_1">
      <!-- −4 -->
      <g transform="translate(22.3 84.177013) scale(0.1 -0.1)">
       <defs>
        <path id="DejaVuSans-2212" d="M 678 2272 
L 4684 2272 
L 4684 1741 
L 678 1741 
L 678 2272 
z
" transform="scale(0.015625)"/>
        <path id="DejaVuSans-34" d="M 2419 4116 
L 825 1625 
L 2419 1625 
L 2419 4116 
z
M 2253 4666 
L 3047 4666 
L 3047 1625 
L 3713 1625 
L 3713 1100 
L 3047 1100 
L 3047 0 
L 2419 0 
L 2419 1100 
L 313 1100 
L 313 1709 
L 2253 4666 
z
" transform="scale(0.015625)"/>
       </defs>
       <use xlink:href="#DejaVuSans-2212"/>
       <use xlink:href="#DejaVuSans-34" transform="translate(83.789062 0)"/>
      </g>
     </g>
    </g>
    <g id="ytick_2">
     <g id="line2d_11">
      <g>
       <use xlink:href="#md189149b9e" x="44.042187" y="45.688506" style="stroke: #000000; stroke-width: 0.8"/>
      </g>
     </g>
     <g id="text_2">
      <!-- −2 -->
      <g transform="translate(22.3 49.487725) scale(0.1 -0.1)">
       <defs>
        <path id="DejaVuSans-32" d="M 1228 531 
L 3431 531 
L 3431 0 
L 469 0 
L 469 531 
Q 828 903 1448 1529 
Q 2069 2156 2228 2338 
Q 2531 2678 2651 2914 
Q 2772 3150 2772 3378 
Q 2772 3750 2511 3984 
Q 2250 4219 1831 4219 
Q 1534 4219 1204 4116 
Q 875 4013 500 3803 
L 500 4441 
Q 881 4594 1212 4672 
Q 1544 4750 1819 4750 
Q 2544 4750 2975 4387 
Q 3406 4025 3406 3419 
Q 3406 3131 3298 2873 
Q 3191 2616 2906 2266 
Q 2828 2175 2409 1742 
Q 1991 1309 1228 531 
z
" transform="scale(0.015625)"/>
       </defs>
       <use xlink:href="#DejaVuSans-2212"/>
       <use xlink:href="#DejaVuSans-32" transform="translate(83.789062 0)"/>
      </g>
     </g>
    </g>
    <g id="ytick_3">
     <g id="line2d_12">
      <g>
       <use xlink:href="#md189149b9e" x="44.042187" y="10.999219" style="stroke: #000000; stroke-width: 0.8"/>
      </g>
     </g>
     <g id="text_3">
      <!-- 0 -->
      <g transform="translate(30.679687 14.798438) scale(0.1 -0.1)">
       <defs>
        <path id="DejaVuSans-30" d="M 2034 4250 
Q 1547 4250 1301 3770 
Q 1056 3291 1056 2328 
Q 1056 1369 1301 889 
Q 1547 409 2034 409 
Q 2525 409 2770 889 
Q 3016 1369 3016 2328 
Q 3016 3291 2770 3770 
Q 2525 4250 2034 4250 
z
M 2034 4750 
Q 2819 4750 3233 4129 
Q 3647 3509 3647 2328 
Q 3647 1150 3233 529 
Q 2819 -91 2034 -91 
Q 1250 -91 836 529 
Q 422 1150 422 2328 
Q 422 3509 836 4129 
Q 1250 4750 2034 4750 
z
" transform="scale(0.015625)"/>
       </defs>
       <use xlink:href="#DejaVuSans-30"/>
      </g>
     </g>
    </g>
    <g id="text_4">
     <!-- $\log_{10} (x) \ (\mathrm{HBrO_2})$ -->
     <g transform="translate(16.2 87.625689) rotate(-90) scale(0.1 -0.1)">
      <defs>
       <path id="DejaVuSans-6c" d="M 603 4863 
L 1178 4863 
L 1178 0 
L 603 0 
L 603 4863 
z
" transform="scale(0.015625)"/>
       <path id="DejaVuSans-6f" d="M 1959 3097 
Q 1497 3097 1228 2736 
Q 959 2375 959 1747 
Q 959 1119 1226 758 
Q 1494 397 1959 397 
Q 2419 397 2687 759 
Q 2956 1122 2956 1747 
Q 2956 2369 2687 2733 
Q 2419 3097 1959 3097 
z
M 1959 3584 
Q 2709 3584 3137 3096 
Q 3566 2609 3566 1747 
Q 3566 888 3137 398 
Q 2709 -91 1959 -91 
Q 1206 -91 779 398 
Q 353 888 353 1747 
Q 353 2609 779 3096 
Q 1206 3584 1959 3584 
z
" transform="scale(0.015625)"/>
       <path id="DejaVuSans-67" d="M 2906 1791 
Q 2906 2416 2648 2759 
Q 2391 3103 1925 3103 
Q 1463 3103 1205 2759 
Q 947 2416 947 1791 
Q 947 1169 1205 825 
Q 1463 481 1925 481 
Q 2391 481 2648 825 
Q 2906 1169 2906 1791 
z
M 3481 434 
Q 3481 -459 3084 -895 
Q 2688 -1331 1869 -1331 
Q 1566 -1331 1297 -1286 
Q 1028 -1241 775 -1147 
L 775 -588 
Q 1028 -725 1275 -790 
Q 1522 -856 1778 -856 
Q 2344 -856 2625 -561 
Q 2906 -266 2906 331 
L 2906 616 
Q 2728 306 2450 153 
Q 2172 0 1784 0 
Q 1141 0 747 490 
Q 353 981 353 1791 
Q 353 2603 747 3093 
Q 1141 3584 1784 3584 
Q 2172 3584 2450 3431 
Q 2728 3278 2906 2969 
L 2906 3500 
L 3481 3500 
L 3481 434 
z
" transform="scale(0.015625)"/>
       <path id="DejaVuSans-31" d="M 794 531 
L 1825 531 
L 1825 4091 
L 703 3866 
L 703 4441 
L 1819 4666 
L 2450 4666 
L 2450 531 
L 3481 531 
L 3481 0 
L 794 0 
L 794 531 
z
" transform="scale(0.015625)"/>
       <path id="DejaVuSans-28" d="M 1984 4856 
Q 1566 4138 1362 3434 
Q 1159 2731 1159 2009 
Q 1159 1288 1364 580 
Q 1569 -128 1984 -844 
L 1484 -844 
Q 1016 -109 783 600 
Q 550 1309 550 2009 
Q 550 2706 781 3412 
Q 1013 4119 1484 4856 
L 1984 4856 
z
" transform="scale(0.015625)"/>
       <path id="DejaVuSans-Oblique-78" d="M 3841 3500 
L 2234 1784 
L 3219 0 
L 2559 0 
L 1819 1388 
L 531 0 
L -166 0 
L 1556 1844 
L 641 3500 
L 1300 3500 
L 1972 2234 
L 3144 3500 
L 3841 3500 
z
" transform="scale(0.015625)"/>
       <path id="DejaVuSans-29" d="M 513 4856 
L 1013 4856 
Q 1481 4119 1714 3412 
Q 1947 2706 1947 2009 
Q 1947 1309 1714 600 
Q 1481 -109 1013 -844 
L 513 -844 
Q 928 -128 1133 580 
Q 1338 1288 1338 2009 
Q 1338 2731 1133 3434 
Q 928 4138 513 4856 
z
" transform="scale(0.015625)"/>
       <path id="DejaVuSans-48" d="M 628 4666 
L 1259 4666 
L 1259 2753 
L 3553 2753 
L 3553 4666 
L 4184 4666 
L 4184 0 
L 3553 0 
L 3553 2222 
L 1259 2222 
L 1259 0 
L 628 0 
L 628 4666 
z
" transform="scale(0.015625)"/>
       <path id="DejaVuSans-42" d="M 1259 2228 
L 1259 519 
L 2272 519 
Q 2781 519 3026 730 
Q 3272 941 3272 1375 
Q 3272 1813 3026 2020 
Q 2781 2228 2272 2228 
L 1259 2228 
z
M 1259 4147 
L 1259 2741 
L 2194 2741 
Q 2656 2741 2882 2914 
Q 3109 3088 3109 3444 
Q 3109 3797 2882 3972 
Q 2656 4147 2194 4147 
L 1259 4147 
z
M 628 4666 
L 2241 4666 
Q 2963 4666 3353 4366 
Q 3744 4066 3744 3513 
Q 3744 3084 3544 2831 
Q 3344 2578 2956 2516 
Q 3422 2416 3680 2098 
Q 3938 1781 3938 1306 
Q 3938 681 3513 340 
Q 3088 0 2303 0 
L 628 0 
L 628 4666 
z
" transform="scale(0.015625)"/>
       <path id="DejaVuSans-72" d="M 2631 2963 
Q 2534 3019 2420 3045 
Q 2306 3072 2169 3072 
Q 1681 3072 1420 2755 
Q 1159 2438 1159 1844 
L 1159 0 
L 581 0 
L 581 3500 
L 1159 3500 
L 1159 2956 
Q 1341 3275 1631 3429 
Q 1922 3584 2338 3584 
Q 2397 3584 2469 3576 
Q 2541 3569 2628 3553 
L 2631 2963 
z
" transform="scale(0.015625)"/>
       <path id="DejaVuSans-4f" d="M 2522 4238 
Q 1834 4238 1429 3725 
Q 1025 3213 1025 2328 
Q 1025 1447 1429 934 
Q 1834 422 2522 422 
Q 3209 422 3611 934 
Q 4013 1447 4013 2328 
Q 4013 3213 3611 3725 
Q 3209 4238 2522 4238 
z
M 2522 4750 
Q 3503 4750 4090 4092 
Q 4678 3434 4678 2328 
Q 4678 1225 4090 567 
Q 3503 -91 2522 -91 
Q 1538 -91 948 565 
Q 359 1222 359 2328 
Q 359 3434 948 4092 
Q 1538 4750 2522 4750 
z
" transform="scale(0.015625)"/>
      </defs>
      <use xlink:href="#DejaVuSans-6c" transform="translate(0 0.015625)"/>
      <use xlink:href="#DejaVuSans-6f" transform="translate(27.783203 0.015625)"/>
      <use xlink:href="#DejaVuSans-67" transform="translate(88.964844 0.015625)"/>
      <use xlink:href="#DejaVuSans-31" transform="translate(153.398438 -16.390625) scale(0.7)"/>
      <use xlink:href="#DejaVuSans-30" transform="translate(197.93457 -16.390625) scale(0.7)"/>
      <use xlink:href="#DejaVuSans-28" transform="translate(261.440754 0.015625)"/>
      <use xlink:href="#DejaVuSans-Oblique-78" transform="translate(300.454426 0.015625)"/>
      <use xlink:href="#DejaVuSans-29" transform="translate(359.634114 0.015625)"/>
      <use xlink:href="#DejaVuSans-28" transform="translate(431.118164 0.015625)"/>
      <use xlink:href="#DejaVuSans-48" transform="translate(470.131836 0.015625)"/>
      <use xlink:href="#DejaVuSans-42" transform="translate(545.327148 0.015625)"/>
      <use xlink:href="#DejaVuSans-72" transform="translate(613.930664 0.015625)"/>
      <use xlink:href="#DejaVuSans-4f" transform="translate(655.043945 0.015625)"/>
      <use xlink:href="#DejaVuSans-32" transform="translate(734.711914 -16.390625) scale(0.7)"/>
      <use xlink:href="#DejaVuSans-29" transform="translate(781.982422 0.015625)"/>
     </g>
    </g>
   </g>
   <g id="line2d_13">
    <path d="M 60.274915 10.999219 
L 60.339852 18.873769 
L 60.567133 82.051515 
L 65.502376 82.056745 
L 92.224117 81.96128 
L 93.165709 81.990725 
L 94.367051 81.989202 
L 96.997016 81.962094 
L 106.835033 81.720448 
L 110.114371 81.48171 
L 112.127431 81.339976 
L 112.322243 81.465114 
L 113.848272 81.243065 
L 117.322423 80.76399 
L 119.952388 80.201585 
L 121.478417 79.706354 
L 123.296664 78.931821 
L 124.562944 78.144218 
L 125.569473 77.250901 
L 126.316253 76.2785 
L 126.868221 75.201616 
L 127.322783 73.78696 
L 127.64747 72.051322 
L 127.90722 69.509148 
L 128.134501 64.995456 
L 128.329313 56.407448 
L 129.108562 11.501854 
L 129.270905 11.375903 
L 129.595592 11.642102 
L 130.796934 12.991466 
L 131.64112 14.255848 
L 132.193088 15.477885 
L 132.550244 16.829503 
L 132.777525 18.601921 
L 132.939869 22.17026 
L 133.004806 26.852338 
L 133.037275 33.990335 
L 133.167149 82.017785 
L 133.589243 82.046677 
L 136.024395 82.052725 
L 157.031645 81.939372 
L 158.200518 81.992968 
L 161.15517 81.944573 
L 169.694439 81.704873 
L 174.986837 81.359957 
L 179.240237 80.850632 
L 183.071544 80.197071 
L 183.233887 79.888356 
L 183.396231 79.862594 
L 186.90285 78.119278 
L 187.811974 77.310377 
L 188.558754 76.369755 
L 189.143191 75.262511 
L 189.597753 73.887266 
L 189.954908 72.001241 
L 190.214658 69.41556 
L 190.441939 64.766968 
L 190.636751 55.911686 
L 191.383531 11.586995 
L 191.545875 11.369503 
L 191.805624 11.555271 
L 192.942029 12.797227 
L 193.851152 14.098279 
L 194.435589 15.322306 
L 194.792745 16.548133 
L 195.052494 18.325177 
L 195.214838 21.266313 
L 195.312244 27.967513 
L 195.344713 37.853585 
L 195.474587 82.018725 
L 195.896681 82.047482 
L 198.688989 82.06 
L 209.468598 82.046723 
L 217.001337 81.952386 
L 218.981927 81.950724 
L 219.468958 82.046141 
L 220.443019 81.925592 
L 221.514486 81.970898 
L 229.631661 81.792811 
L 236.742307 81.408294 
L 240.833363 80.942147 
L 243.820484 80.376743 
L 246.125762 79.705412 
L 247.814134 78.980914 
L 249.145351 78.167865 
L 250.184349 77.246354 
L 250.898661 76.329531 
L 251.450629 75.262115 
L 251.905191 73.899381 
L 252.262346 72.011965 
L 252.522096 69.441961 
L 252.749377 64.827827 
L 252.944189 56.055529 
L 253.690969 11.596751 
L 253.853313 11.369221 
L 254.113062 11.553155 
L 255.249467 12.794473 
L 256.15859 14.094465 
L 256.743027 15.316396 
L 257.100183 16.537854 
L 257.359932 18.301528 
L 257.522276 21.195283 
L 257.619682 27.628859 
L 257.652151 36.582755 
L 257.782025 82.018867 
L 258.204119 82.047366 
L 260.801615 82.054684 
L 263.853673 82.049308 
L 280.769866 81.850664 
L 281.354303 81.903595 
L 282.393301 82.035733 
L 283.886861 81.970758 
L 285.770046 81.931641 
L 289.601353 81.858964 
L 295.023626 81.64279 
L 303.757707 80.846252 
L 306.582484 80.265198 
L 308.757887 79.586177 
L 310.348853 78.863613 
L 311.68007 77.996602 
L 312.556725 77.176324 
L 313.271036 76.222885 
L 313.823004 75.118227 
L 314.245097 73.775569 
L 314.569784 72.036143 
L 314.829534 69.485828 
L 315.056815 64.913638 
L 315.251627 56.231466 
L 315.998407 11.607946 
L 316.160751 11.368354 
L 316.4205 11.55071 
L 317.524436 12.751191 
L 318.43356 14.035359 
L 319.017996 15.223587 
L 319.407621 16.52445 
L 319.66737 18.270247 
L 319.829714 21.105915 
L 319.92712 27.220365 
L 319.959589 35.170192 
L 320.089464 82.017354 
L 320.544025 82.047735 
L 327.784546 82.055877 
L 340.869432 82.004604 
L 357.980438 81.635128 
L 363.597523 81.183699 
L 369.247077 80.171686 
L 371.260137 79.506788 
L 372.948509 78.699874 
L 374.149851 77.863928 
L 375.026506 76.992879 
L 375.708349 76.007792 
L 376.227848 74.863087 
L 376.649941 73.365945 
L 376.974628 71.286539 
L 377.234378 68.004838 
L 377.461659 61.552356 
L 377.68894 46.520372 
L 378.17597 13.049649 
L 378.370783 11.430411 
L 378.533126 11.39036 
L 378.955219 11.772318 
L 380.156561 13.161148 
L 380.968279 14.434156 
L 381.487778 15.668755 
L 381.812465 17.007143 
L 382.039746 19.023282 
L 382.169621 22.158864 
L 382.234558 26.817183 
L 382.267027 33.88187 
L 382.396902 82.018059 
L 382.851463 82.04864 
L 384.92946 82.052371 
L 384.92946 82.052371 
" clip-path="url(#p1fe6e8eeb7)" style="fill: none; stroke: #000000; stroke-width: 1.5; stroke-linecap: square"/>
   </g>
   <g id="patch_3">
    <path d="M 44.042187 85.709807 
L 44.042187 7.441572 
" style="fill: none; stroke: #000000; stroke-width: 0.8; stroke-linejoin: miter; stroke-linecap: square"/>
   </g>
   <g id="patch_4">
    <path d="M 401.162188 85.709807 
L 401.162188 7.441572 
" style="fill: none; stroke: #000000; stroke-width: 0.8; stroke-linejoin: miter; stroke-linecap: square"/>
   </g>
   <g id="patch_5">
    <path d="M 44.042187 85.709807 
L 401.162188 85.709807 
" style="fill: none; stroke: #000000; stroke-width: 0.8; stroke-linejoin: miter; stroke-linecap: square"/>
   </g>
   <g id="patch_6">
    <path d="M 44.042187 7.441572 
L 401.162188 7.441572 
" style="fill: none; stroke: #000000; stroke-width: 0.8; stroke-linejoin: miter; stroke-linecap: square"/>
   </g>
  </g>
  <g id="axes_2">
   <g id="patch_7">
    <path d="M 44.042187 179.631689 
L 401.162188 179.631689 
L 401.162188 101.363454 
L 44.042187 101.363454 
z
" style="fill: #ffffff"/>
   </g>
   <g id="matplotlib.axis_3">
    <g id="xtick_10">
     <g id="line2d_14">
      <g>
       <use xlink:href="#m987c05691d" x="60.274915" y="179.631689" style="stroke: #000000; stroke-width: 0.8"/>
      </g>
     </g>
    </g>
    <g id="xtick_11">
     <g id="line2d_15">
      <g>
       <use xlink:href="#m987c05691d" x="100.856733" y="179.631689" style="stroke: #000000; stroke-width: 0.8"/>
      </g>
     </g>
    </g>
    <g id="xtick_12">
     <g id="line2d_16">
      <g>
       <use xlink:href="#m987c05691d" x="141.438551" y="179.631689" style="stroke: #000000; stroke-width: 0.8"/>
      </g>
     </g>
    </g>
    <g id="xtick_13">
     <g id="line2d_17">
      <g>
       <use xlink:href="#m987c05691d" x="182.020369" y="179.631689" style="stroke: #000000; stroke-width: 0.8"/>
      </g>
     </g>
    </g>
    <g id="xtick_14">
     <g id="line2d_18">
      <g>
       <use xlink:href="#m987c05691d" x="222.602188" y="179.631689" style="stroke: #000000; stroke-width: 0.8"/>
      </g>
     </g>
    </g>
    <g id="xtick_15">
     <g id="line2d_19">
      <g>
       <use xlink:href="#m987c05691d" x="263.184006" y="179.631689" style="stroke: #000000; stroke-width: 0.8"/>
      </g>
     </g>
    </g>
    <g id="xtick_16">
     <g id="line2d_20">
      <g>
       <use xlink:href="#m987c05691d" x="303.765824" y="179.631689" style="stroke: #000000; stroke-width: 0.8"/>
      </g>
     </g>
    </g>
    <g id="xtick_17">
     <g id="line2d_21">
      <g>
       <use xlink:href="#m987c05691d" x="344.347642" y="179.631689" style="stroke: #000000; stroke-width: 0.8"/>
      </g>
     </g>
    </g>
    <g id="xtick_18">
     <g id="line2d_22">
      <g>
       <use xlink:href="#m987c05691d" x="384.92946" y="179.631689" style="stroke: #000000; stroke-width: 0.8"/>
      </g>
     </g>
    </g>
   </g>
   <g id="matplotlib.axis_4">
    <g id="ytick_4">
     <g id="line2d_23">
      <g>
       <use xlink:href="#md189149b9e" x="44.042187" y="151.890044" style="stroke: #000000; stroke-width: 0.8"/>
      </g>
     </g>
     <g id="text_5">
      <!-- 0.0 -->
      <g transform="translate(21.139062 155.689263) scale(0.1 -0.1)">
       <defs>
        <path id="DejaVuSans-2e" d="M 684 794 
L 1344 794 
L 1344 0 
L 684 0 
L 684 794 
z
" transform="scale(0.015625)"/>
       </defs>
       <use xlink:href="#DejaVuSans-30"/>
       <use xlink:href="#DejaVuSans-2e" transform="translate(63.623047 0)"/>
       <use xlink:href="#DejaVuSans-30" transform="translate(95.410156 0)"/>
      </g>
     </g>
    </g>
    <g id="ytick_5">
     <g id="line2d_24">
      <g>
       <use xlink:href="#md189149b9e" x="44.042187" y="119.850455" style="stroke: #000000; stroke-width: 0.8"/>
      </g>
     </g>
     <g id="text_6">
      <!-- 2.5 -->
      <g transform="translate(21.139062 123.649674) scale(0.1 -0.1)">
       <defs>
        <path id="DejaVuSans-35" d="M 691 4666 
L 3169 4666 
L 3169 4134 
L 1269 4134 
L 1269 2991 
Q 1406 3038 1543 3061 
Q 1681 3084 1819 3084 
Q 2600 3084 3056 2656 
Q 3513 2228 3513 1497 
Q 3513 744 3044 326 
Q 2575 -91 1722 -91 
Q 1428 -91 1123 -41 
Q 819 9 494 109 
L 494 744 
Q 775 591 1075 516 
Q 1375 441 1709 441 
Q 2250 441 2565 725 
Q 2881 1009 2881 1497 
Q 2881 1984 2565 2268 
Q 2250 2553 1709 2553 
Q 1456 2553 1204 2497 
Q 953 2441 691 2322 
L 691 4666 
z
" transform="scale(0.015625)"/>
       </defs>
       <use xlink:href="#DejaVuSans-32"/>
       <use xlink:href="#DejaVuSans-2e" transform="translate(63.623047 0)"/>
       <use xlink:href="#DejaVuSans-35" transform="translate(95.410156 0)"/>
      </g>
     </g>
    </g>
    <g id="text_7">
     <!-- $\log_{10} (y) \ (\mathrm{Br^-})$ -->
     <g transform="translate(15.039062 175.947572) rotate(-90) scale(0.1 -0.1)">
      <defs>
       <path id="DejaVuSans-Oblique-79" d="M 1588 -325 
Q 1188 -997 936 -1164 
Q 684 -1331 294 -1331 
L -159 -1331 
L -63 -850 
L 269 -850 
Q 509 -850 678 -719 
Q 847 -588 1056 -206 
L 1234 128 
L 459 3500 
L 1069 3500 
L 1650 819 
L 3256 3500 
L 3859 3500 
L 1588 -325 
z
" transform="scale(0.015625)"/>
      </defs>
      <use xlink:href="#DejaVuSans-6c" transform="translate(0 0.015625)"/>
      <use xlink:href="#DejaVuSans-6f" transform="translate(27.783203 0.015625)"/>
      <use xlink:href="#DejaVuSans-67" transform="translate(88.964844 0.015625)"/>
      <use xlink:href="#DejaVuSans-31" transform="translate(153.398438 -16.390625) scale(0.7)"/>
      <use xlink:href="#DejaVuSans-30" transform="translate(197.93457 -16.390625) scale(0.7)"/>
      <use xlink:href="#DejaVuSans-28" transform="translate(261.440754 0.015625)"/>
      <use xlink:href="#DejaVuSans-Oblique-79" transform="translate(300.454426 0.015625)"/>
      <use xlink:href="#DejaVuSans-29" transform="translate(359.634114 0.015625)"/>
      <use xlink:href="#DejaVuSans-28" transform="translate(431.118164 0.015625)"/>
      <use xlink:href="#DejaVuSans-42" transform="translate(470.131836 0.015625)"/>
      <use xlink:href="#DejaVuSans-72" transform="translate(538.735352 0.015625)"/>
      <use xlink:href="#DejaVuSans-2212" transform="translate(594.443359 38.296875) scale(0.7)"/>
      <use xlink:href="#DejaVuSans-29" transform="translate(669.467773 0.015625)"/>
     </g>
    </g>
   </g>
   <g id="line2d_25">
    <path d="M 60.274915 151.890044 
L 60.339852 146.155943 
L 60.534664 113.946811 
L 60.794414 109.398735 
L 61.119101 107.163187 
L 61.508725 105.908779 
L 61.930819 105.266439 
L 62.38538 104.979805 
L 62.90488 104.927327 
L 63.619191 105.105591 
L 64.723127 105.650064 
L 66.833592 106.990205 
L 75.989766 113.249197 
L 121.868041 144.846999 
L 124.985037 147.259637 
L 126.41366 148.619392 
L 127.192908 149.652712 
L 127.64747 150.617907 
L 127.939689 151.762284 
L 128.134501 153.359458 
L 128.296844 156.73054 
L 128.459188 166.721965 
L 128.686469 175.748417 
L 128.751406 176.073923 
L 128.783875 175.987679 
L 128.91375 174.380863 
L 129.433249 166.507997 
L 129.887811 163.297749 
L 130.472247 160.758623 
L 131.251496 158.41081 
L 132.582713 154.627504 
L 132.809994 153.07083 
L 132.939869 150.761177 
L 133.004806 147.413487 
L 133.297024 118.958206 
L 133.589243 115.482345 
L 133.946398 113.674852 
L 134.336023 112.729901 
L 134.758116 112.245596 
L 135.212678 112.050504 
L 135.764646 112.060038 
L 136.543894 112.316123 
L 137.810174 113.001046 
L 140.537545 114.791001 
L 161.122701 128.899255 
L 184.272885 144.913589 
L 187.454818 147.403981 
L 188.786035 148.700461 
L 189.532815 149.720545 
L 189.954908 150.639298 
L 190.247127 151.804694 
L 190.441939 153.456924 
L 190.604282 157.00791 
L 190.799094 169.56052 
L 191.026375 176.033559 
L 191.058844 176.067406 
L 191.091313 175.945066 
L 191.221188 174.238963 
L 191.740687 166.434887 
L 192.195249 163.25571 
L 192.779685 160.73103 
L 193.558934 158.391003 
L 194.857682 154.740786 
L 195.084963 153.316375 
L 195.214838 151.419517 
L 195.312244 146.639818 
L 195.539525 120.245252 
L 195.799274 116.229586 
L 196.15643 114.008425 
L 196.546055 112.891654 
L 196.968148 112.31806 
L 197.42271 112.07017 
L 197.942209 112.042137 
L 198.65652 112.23774 
L 199.792925 112.812587 
L 202.033265 114.248245 
L 213.105092 121.824505 
L 246.028356 144.522309 
L 249.405101 147.099526 
L 250.931129 148.51713 
L 251.710378 149.506085 
L 252.197409 150.457296 
L 252.522096 151.616977 
L 252.749377 153.428762 
L 252.91172 156.925525 
L 253.074064 167.152509 
L 253.301345 175.805172 
L 253.366282 176.070168 
L 253.398751 175.958261 
L 253.528626 174.279652 
L 254.048125 166.455758 
L 254.502687 163.267737 
L 255.087123 160.738961 
L 255.866372 158.396871 
L 257.16512 154.750683 
L 257.392401 153.337122 
L 257.554745 150.580314 
L 257.619682 146.873699 
L 257.879432 119.515635 
L 258.17165 115.687575 
L 258.528806 113.76846 
L 258.91843 112.775496 
L 259.340523 112.266596 
L 259.795085 112.055155 
L 260.347053 112.055913 
L 261.126302 112.304843 
L 262.392581 112.985273 
L 265.087483 114.750842 
L 283.140081 127.122086 
L 308.985168 144.993211 
L 311.972288 147.317495 
L 313.368442 148.658295 
L 314.115222 149.656903 
L 314.569784 150.625478 
L 314.862003 151.776272 
L 315.056815 153.394687 
L 315.219158 156.828821 
L 315.381502 166.940914 
L 315.608783 175.777955 
L 315.67372 176.07262 
L 315.706189 175.973251 
L 315.836064 174.330607 
L 316.355563 166.481507 
L 316.810125 163.282613 
L 317.394561 160.748704 
L 318.17381 158.403411 
L 319.505027 154.614169 
L 319.732308 153.040898 
L 319.862183 150.673862 
L 319.92712 147.155683 
L 320.219338 118.903927 
L 320.511557 115.46168 
L 320.868712 113.665419 
L 321.258337 112.725112 
L 321.68043 112.243729 
L 322.134992 112.050308 
L 322.68696 112.060193 
L 323.466208 112.317552 
L 324.700019 112.983371 
L 327.329984 114.704588 
L 346.713799 127.988342 
L 371.065325 144.824773 
L 374.214789 147.25937 
L 375.643412 148.619066 
L 376.42266 149.652053 
L 376.877222 150.616235 
L 377.169441 151.759163 
L 377.364253 153.354729 
L 377.526596 156.716424 
L 377.68894 166.691644 
L 377.916221 175.744 
L 377.981158 176.074042 
L 378.013627 175.989757 
L 378.143502 174.387609 
L 378.663001 166.511857 
L 379.117563 163.299972 
L 379.701999 160.760184 
L 380.481248 158.412539 
L 381.812465 154.630375 
L 382.039746 153.074618 
L 382.169621 150.768586 
L 382.267027 142.838843 
L 382.42937 121.460941 
L 382.68912 116.636697 
L 383.013807 114.32965 
L 383.403431 113.044853 
L 383.825524 112.387405 
L 384.280086 112.092747 
L 384.799585 112.034485 
L 384.92946 112.049322 
L 384.92946 112.049322 
" clip-path="url(#p3c922847dc)" style="fill: none; stroke: #0000ff; stroke-width: 1.5; stroke-linecap: square"/>
   </g>
   <g id="patch_8">
    <path d="M 44.042187 179.631689 
L 44.042187 101.363454 
" style="fill: none; stroke: #000000; stroke-width: 0.8; stroke-linejoin: miter; stroke-linecap: square"/>
   </g>
   <g id="patch_9">
    <path d="M 401.162188 179.631689 
L 401.162188 101.363454 
" style="fill: none; stroke: #000000; stroke-width: 0.8; stroke-linejoin: miter; stroke-linecap: square"/>
   </g>
   <g id="patch_10">
    <path d="M 44.042187 179.631689 
L 401.162188 179.631689 
" style="fill: none; stroke: #000000; stroke-width: 0.8; stroke-linejoin: miter; stroke-linecap: square"/>
   </g>
   <g id="patch_11">
    <path d="M 44.042187 101.363454 
L 401.162188 101.363454 
" style="fill: none; stroke: #000000; stroke-width: 0.8; stroke-linejoin: miter; stroke-linecap: square"/>
   </g>
  </g>
  <g id="axes_3">
   <g id="patch_12">
    <path d="M 44.042187 273.553572 
L 401.162188 273.553572 
L 401.162188 195.285336 
L 44.042187 195.285336 
z
" style="fill: #ffffff"/>
   </g>
   <g id="matplotlib.axis_5">
    <g id="xtick_19">
     <g id="line2d_26">
      <g>
       <use xlink:href="#m987c05691d" x="60.274915" y="273.553572" style="stroke: #000000; stroke-width: 0.8"/>
      </g>
     </g>
     <g id="text_8">
      <!-- 0 -->
      <g transform="translate(57.093665 288.152009) scale(0.1 -0.1)">
       <use xlink:href="#DejaVuSans-30"/>
      </g>
     </g>
    </g>
    <g id="xtick_20">
     <g id="line2d_27">
      <g>
       <use xlink:href="#m987c05691d" x="100.856733" y="273.553572" style="stroke: #000000; stroke-width: 0.8"/>
      </g>
     </g>
     <g id="text_9">
      <!-- 5 -->
      <g transform="translate(97.675483 288.152009) scale(0.1 -0.1)">
       <use xlink:href="#DejaVuSans-35"/>
      </g>
     </g>
    </g>
    <g id="xtick_21">
     <g id="line2d_28">
      <g>
       <use xlink:href="#m987c05691d" x="141.438551" y="273.553572" style="stroke: #000000; stroke-width: 0.8"/>
      </g>
     </g>
     <g id="text_10">
      <!-- 10 -->
      <g transform="translate(135.076051 288.152009) scale(0.1 -0.1)">
       <use xlink:href="#DejaVuSans-31"/>
       <use xlink:href="#DejaVuSans-30" transform="translate(63.623047 0)"/>
      </g>
     </g>
    </g>
    <g id="xtick_22">
     <g id="line2d_29">
      <g>
       <use xlink:href="#m987c05691d" x="182.020369" y="273.553572" style="stroke: #000000; stroke-width: 0.8"/>
      </g>
     </g>
     <g id="text_11">
      <!-- 15 -->
      <g transform="translate(175.657869 288.152009) scale(0.1 -0.1)">
       <use xlink:href="#DejaVuSans-31"/>
       <use xlink:href="#DejaVuSans-35" transform="translate(63.623047 0)"/>
      </g>
     </g>
    </g>
    <g id="xtick_23">
     <g id="line2d_30">
      <g>
       <use xlink:href="#m987c05691d" x="222.602188" y="273.553572" style="stroke: #000000; stroke-width: 0.8"/>
      </g>
     </g>
     <g id="text_12">
      <!-- 20 -->
      <g transform="translate(216.239688 288.152009) scale(0.1 -0.1)">
       <use xlink:href="#DejaVuSans-32"/>
       <use xlink:href="#DejaVuSans-30" transform="translate(63.623047 0)"/>
      </g>
     </g>
    </g>
    <g id="xtick_24">
     <g id="line2d_31">
      <g>
       <use xlink:href="#m987c05691d" x="263.184006" y="273.553572" style="stroke: #000000; stroke-width: 0.8"/>
      </g>
     </g>
     <g id="text_13">
      <!-- 25 -->
      <g transform="translate(256.821506 288.152009) scale(0.1 -0.1)">
       <use xlink:href="#DejaVuSans-32"/>
       <use xlink:href="#DejaVuSans-35" transform="translate(63.623047 0)"/>
      </g>
     </g>
    </g>
    <g id="xtick_25">
     <g id="line2d_32">
      <g>
       <use xlink:href="#m987c05691d" x="303.765824" y="273.553572" style="stroke: #000000; stroke-width: 0.8"/>
      </g>
     </g>
     <g id="text_14">
      <!-- 30 -->
      <g transform="translate(297.403324 288.152009) scale(0.1 -0.1)">
       <defs>
        <path id="DejaVuSans-33" d="M 2597 2516 
Q 3050 2419 3304 2112 
Q 3559 1806 3559 1356 
Q 3559 666 3084 287 
Q 2609 -91 1734 -91 
Q 1441 -91 1130 -33 
Q 819 25 488 141 
L 488 750 
Q 750 597 1062 519 
Q 1375 441 1716 441 
Q 2309 441 2620 675 
Q 2931 909 2931 1356 
Q 2931 1769 2642 2001 
Q 2353 2234 1838 2234 
L 1294 2234 
L 1294 2753 
L 1863 2753 
Q 2328 2753 2575 2939 
Q 2822 3125 2822 3475 
Q 2822 3834 2567 4026 
Q 2313 4219 1838 4219 
Q 1578 4219 1281 4162 
Q 984 4106 628 3988 
L 628 4550 
Q 988 4650 1302 4700 
Q 1616 4750 1894 4750 
Q 2613 4750 3031 4423 
Q 3450 4097 3450 3541 
Q 3450 3153 3228 2886 
Q 3006 2619 2597 2516 
z
" transform="scale(0.015625)"/>
       </defs>
       <use xlink:href="#DejaVuSans-33"/>
       <use xlink:href="#DejaVuSans-30" transform="translate(63.623047 0)"/>
      </g>
     </g>
    </g>
    <g id="xtick_26">
     <g id="line2d_33">
      <g>
       <use xlink:href="#m987c05691d" x="344.347642" y="273.553572" style="stroke: #000000; stroke-width: 0.8"/>
      </g>
     </g>
     <g id="text_15">
      <!-- 35 -->
      <g transform="translate(337.985142 288.152009) scale(0.1 -0.1)">
       <use xlink:href="#DejaVuSans-33"/>
       <use xlink:href="#DejaVuSans-35" transform="translate(63.623047 0)"/>
      </g>
     </g>
    </g>
    <g id="xtick_27">
     <g id="line2d_34">
      <g>
       <use xlink:href="#m987c05691d" x="384.92946" y="273.553572" style="stroke: #000000; stroke-width: 0.8"/>
      </g>
     </g>
     <g id="text_16">
      <!-- 40 -->
      <g transform="translate(378.56696 288.152009) scale(0.1 -0.1)">
       <use xlink:href="#DejaVuSans-34"/>
       <use xlink:href="#DejaVuSans-30" transform="translate(63.623047 0)"/>
      </g>
     </g>
    </g>
    <g id="text_17">
     <!-- scaled time, $\tau$ -->
     <g transform="translate(187.452188 301.830134) scale(0.1 -0.1)">
      <defs>
       <path id="DejaVuSans-73" d="M 2834 3397 
L 2834 2853 
Q 2591 2978 2328 3040 
Q 2066 3103 1784 3103 
Q 1356 3103 1142 2972 
Q 928 2841 928 2578 
Q 928 2378 1081 2264 
Q 1234 2150 1697 2047 
L 1894 2003 
Q 2506 1872 2764 1633 
Q 3022 1394 3022 966 
Q 3022 478 2636 193 
Q 2250 -91 1575 -91 
Q 1294 -91 989 -36 
Q 684 19 347 128 
L 347 722 
Q 666 556 975 473 
Q 1284 391 1588 391 
Q 1994 391 2212 530 
Q 2431 669 2431 922 
Q 2431 1156 2273 1281 
Q 2116 1406 1581 1522 
L 1381 1569 
Q 847 1681 609 1914 
Q 372 2147 372 2553 
Q 372 3047 722 3315 
Q 1072 3584 1716 3584 
Q 2034 3584 2315 3537 
Q 2597 3491 2834 3397 
z
" transform="scale(0.015625)"/>
       <path id="DejaVuSans-63" d="M 3122 3366 
L 3122 2828 
Q 2878 2963 2633 3030 
Q 2388 3097 2138 3097 
Q 1578 3097 1268 2742 
Q 959 2388 959 1747 
Q 959 1106 1268 751 
Q 1578 397 2138 397 
Q 2388 397 2633 464 
Q 2878 531 3122 666 
L 3122 134 
Q 2881 22 2623 -34 
Q 2366 -91 2075 -91 
Q 1284 -91 818 406 
Q 353 903 353 1747 
Q 353 2603 823 3093 
Q 1294 3584 2113 3584 
Q 2378 3584 2631 3529 
Q 2884 3475 3122 3366 
z
" transform="scale(0.015625)"/>
       <path id="DejaVuSans-61" d="M 2194 1759 
Q 1497 1759 1228 1600 
Q 959 1441 959 1056 
Q 959 750 1161 570 
Q 1363 391 1709 391 
Q 2188 391 2477 730 
Q 2766 1069 2766 1631 
L 2766 1759 
L 2194 1759 
z
M 3341 1997 
L 3341 0 
L 2766 0 
L 2766 531 
Q 2569 213 2275 61 
Q 1981 -91 1556 -91 
Q 1019 -91 701 211 
Q 384 513 384 1019 
Q 384 1609 779 1909 
Q 1175 2209 1959 2209 
L 2766 2209 
L 2766 2266 
Q 2766 2663 2505 2880 
Q 2244 3097 1772 3097 
Q 1472 3097 1187 3025 
Q 903 2953 641 2809 
L 641 3341 
Q 956 3463 1253 3523 
Q 1550 3584 1831 3584 
Q 2591 3584 2966 3190 
Q 3341 2797 3341 1997 
z
" transform="scale(0.015625)"/>
       <path id="DejaVuSans-65" d="M 3597 1894 
L 3597 1613 
L 953 1613 
Q 991 1019 1311 708 
Q 1631 397 2203 397 
Q 2534 397 2845 478 
Q 3156 559 3463 722 
L 3463 178 
Q 3153 47 2828 -22 
Q 2503 -91 2169 -91 
Q 1331 -91 842 396 
Q 353 884 353 1716 
Q 353 2575 817 3079 
Q 1281 3584 2069 3584 
Q 2775 3584 3186 3129 
Q 3597 2675 3597 1894 
z
M 3022 2063 
Q 3016 2534 2758 2815 
Q 2500 3097 2075 3097 
Q 1594 3097 1305 2825 
Q 1016 2553 972 2059 
L 3022 2063 
z
" transform="scale(0.015625)"/>
       <path id="DejaVuSans-64" d="M 2906 2969 
L 2906 4863 
L 3481 4863 
L 3481 0 
L 2906 0 
L 2906 525 
Q 2725 213 2448 61 
Q 2172 -91 1784 -91 
Q 1150 -91 751 415 
Q 353 922 353 1747 
Q 353 2572 751 3078 
Q 1150 3584 1784 3584 
Q 2172 3584 2448 3432 
Q 2725 3281 2906 2969 
z
M 947 1747 
Q 947 1113 1208 752 
Q 1469 391 1925 391 
Q 2381 391 2643 752 
Q 2906 1113 2906 1747 
Q 2906 2381 2643 2742 
Q 2381 3103 1925 3103 
Q 1469 3103 1208 2742 
Q 947 2381 947 1747 
z
" transform="scale(0.015625)"/>
       <path id="DejaVuSans-20" transform="scale(0.015625)"/>
       <path id="DejaVuSans-74" d="M 1172 4494 
L 1172 3500 
L 2356 3500 
L 2356 3053 
L 1172 3053 
L 1172 1153 
Q 1172 725 1289 603 
Q 1406 481 1766 481 
L 2356 481 
L 2356 0 
L 1766 0 
Q 1100 0 847 248 
Q 594 497 594 1153 
L 594 3053 
L 172 3053 
L 172 3500 
L 594 3500 
L 594 4494 
L 1172 4494 
z
" transform="scale(0.015625)"/>
       <path id="DejaVuSans-69" d="M 603 3500 
L 1178 3500 
L 1178 0 
L 603 0 
L 603 3500 
z
M 603 4863 
L 1178 4863 
L 1178 4134 
L 603 4134 
L 603 4863 
z
" transform="scale(0.015625)"/>
       <path id="DejaVuSans-6d" d="M 3328 2828 
Q 3544 3216 3844 3400 
Q 4144 3584 4550 3584 
Q 5097 3584 5394 3201 
Q 5691 2819 5691 2113 
L 5691 0 
L 5113 0 
L 5113 2094 
Q 5113 2597 4934 2840 
Q 4756 3084 4391 3084 
Q 3944 3084 3684 2787 
Q 3425 2491 3425 1978 
L 3425 0 
L 2847 0 
L 2847 2094 
Q 2847 2600 2669 2842 
Q 2491 3084 2119 3084 
Q 1678 3084 1418 2786 
Q 1159 2488 1159 1978 
L 1159 0 
L 581 0 
L 581 3500 
L 1159 3500 
L 1159 2956 
Q 1356 3278 1631 3431 
Q 1906 3584 2284 3584 
Q 2666 3584 2933 3390 
Q 3200 3197 3328 2828 
z
" transform="scale(0.015625)"/>
       <path id="DejaVuSans-2c" d="M 750 794 
L 1409 794 
L 1409 256 
L 897 -744 
L 494 -744 
L 750 256 
L 750 794 
z
" transform="scale(0.015625)"/>
       <path id="DejaVuSans-Oblique-3c4" d="M 2103 638 
Q 2188 488 2525 488 
L 2800 488 
L 2706 0 
L 2363 0 
Q 1800 0 1600 300 
Q 1403 606 1534 1269 
L 1856 2925 
L 541 2925 
L 653 3500 
L 3881 3500 
L 3769 2925 
L 2444 2925 
L 2113 1234 
Q 2025 781 2103 638 
z
" transform="scale(0.015625)"/>
      </defs>
      <use xlink:href="#DejaVuSans-73" transform="translate(0 0.015625)"/>
      <use xlink:href="#DejaVuSans-63" transform="translate(52.099609 0.015625)"/>
      <use xlink:href="#DejaVuSans-61" transform="translate(107.080078 0.015625)"/>
      <use xlink:href="#DejaVuSans-6c" transform="translate(168.359375 0.015625)"/>
      <use xlink:href="#DejaVuSans-65" transform="translate(196.142578 0.015625)"/>
      <use xlink:href="#DejaVuSans-64" transform="translate(257.666016 0.015625)"/>
      <use xlink:href="#DejaVuSans-20" transform="translate(321.142578 0.015625)"/>
      <use xlink:href="#DejaVuSans-74" transform="translate(352.929688 0.015625)"/>
      <use xlink:href="#DejaVuSans-69" transform="translate(392.138672 0.015625)"/>
      <use xlink:href="#DejaVuSans-6d" transform="translate(419.921875 0.015625)"/>
      <use xlink:href="#DejaVuSans-65" transform="translate(517.333984 0.015625)"/>
      <use xlink:href="#DejaVuSans-2c" transform="translate(578.857422 0.015625)"/>
      <use xlink:href="#DejaVuSans-20" transform="translate(610.644531 0.015625)"/>
      <use xlink:href="#DejaVuSans-Oblique-3c4" transform="translate(642.431641 0.015625)"/>
     </g>
    </g>
   </g>
   <g id="matplotlib.axis_6">
    <g id="ytick_6">
     <g id="line2d_35">
      <g>
       <use xlink:href="#md189149b9e" x="44.042187" y="240.396352" style="stroke: #000000; stroke-width: 0.8"/>
      </g>
     </g>
     <g id="text_18">
      <!-- −2 -->
      <g transform="translate(22.3 244.195571) scale(0.1 -0.1)">
       <use xlink:href="#DejaVuSans-2212"/>
       <use xlink:href="#DejaVuSans-32" transform="translate(83.789062 0)"/>
      </g>
     </g>
    </g>
    <g id="ytick_7">
     <g id="line2d_36">
      <g>
       <use xlink:href="#md189149b9e" x="44.042187" y="198.842983" style="stroke: #000000; stroke-width: 0.8"/>
      </g>
     </g>
     <g id="text_19">
      <!-- 0 -->
      <g transform="translate(30.679687 202.642202) scale(0.1 -0.1)">
       <use xlink:href="#DejaVuSans-30"/>
      </g>
     </g>
    </g>
    <g id="text_20">
     <!-- $\log_{10} (z) \ (\mathrm{Ce^{4+}})$ -->
     <g transform="translate(16.2 272.819454) rotate(-90) scale(0.1 -0.1)">
      <defs>
       <path id="DejaVuSans-Oblique-7a" d="M 744 3500 
L 3475 3500 
L 3372 2975 
L 738 459 
L 2913 459 
L 2822 0 
L -19 0 
L 84 525 
L 2719 3041 
L 653 3041 
L 744 3500 
z
" transform="scale(0.015625)"/>
       <path id="DejaVuSans-43" d="M 4122 4306 
L 4122 3641 
Q 3803 3938 3442 4084 
Q 3081 4231 2675 4231 
Q 1875 4231 1450 3742 
Q 1025 3253 1025 2328 
Q 1025 1406 1450 917 
Q 1875 428 2675 428 
Q 3081 428 3442 575 
Q 3803 722 4122 1019 
L 4122 359 
Q 3791 134 3420 21 
Q 3050 -91 2638 -91 
Q 1578 -91 968 557 
Q 359 1206 359 2328 
Q 359 3453 968 4101 
Q 1578 4750 2638 4750 
Q 3056 4750 3426 4639 
Q 3797 4528 4122 4306 
z
" transform="scale(0.015625)"/>
       <path id="DejaVuSans-2b" d="M 2944 4013 
L 2944 2272 
L 4684 2272 
L 4684 1741 
L 2944 1741 
L 2944 0 
L 2419 0 
L 2419 1741 
L 678 1741 
L 678 2272 
L 2419 2272 
L 2419 4013 
L 2944 4013 
z
" transform="scale(0.015625)"/>
      </defs>
      <use xlink:href="#DejaVuSans-6c" transform="translate(0 0.684375)"/>
      <use xlink:href="#DejaVuSans-6f" transform="translate(27.783203 0.684375)"/>
      <use xlink:href="#DejaVuSans-67" transform="translate(88.964844 0.684375)"/>
      <use xlink:href="#DejaVuSans-31" transform="translate(153.398438 -15.721875) scale(0.7)"/>
      <use xlink:href="#DejaVuSans-30" transform="translate(197.93457 -15.721875) scale(0.7)"/>
      <use xlink:href="#DejaVuSans-28" transform="translate(261.440754 0.684375)"/>
      <use xlink:href="#DejaVuSans-Oblique-7a" transform="translate(300.454426 0.684375)"/>
      <use xlink:href="#DejaVuSans-29" transform="translate(352.944661 0.684375)"/>
      <use xlink:href="#DejaVuSans-28" transform="translate(424.428711 0.684375)"/>
      <use xlink:href="#DejaVuSans-43" transform="translate(463.442383 0.684375)"/>
      <use xlink:href="#DejaVuSans-65" transform="translate(533.266602 0.684375)"/>
      <use xlink:href="#DejaVuSans-34" transform="translate(595.74707 38.965625) scale(0.7)"/>
      <use xlink:href="#DejaVuSans-2b" transform="translate(653.920898 38.965625) scale(0.7)"/>
      <use xlink:href="#DejaVuSans-29" transform="translate(728.945312 0.684375)"/>
     </g>
    </g>
   </g>
   <g id="line2d_37">
    <path d="M 60.274915 198.842983 
L 60.437258 198.968542 
L 104.65963 247.961826 
L 113.523585 257.46583 
L 118.91339 262.944547 
L 122.582353 266.376703 
L 125.14738 268.494036 
L 126.835753 269.626194 
L 127.712408 269.984576 
L 128.069563 269.92921 
L 128.231907 269.70781 
L 128.361782 269.138455 
L 128.491656 267.136526 
L 128.654 258.91055 
L 129.14103 228.946353 
L 129.498186 222.249863 
L 129.952748 217.99134 
L 130.472247 215.126403 
L 131.056684 213.068413 
L 131.673589 211.645813 
L 132.290495 210.742673 
L 132.777525 210.372787 
L 133.037275 210.407162 
L 135.569833 213.219651 
L 167.519036 248.558528 
L 176.285585 257.939413 
L 181.610452 263.326348 
L 185.14954 266.611814 
L 187.617162 268.621996 
L 189.240597 269.684187 
L 190.052314 269.991214 
L 190.377001 269.924572 
L 190.539345 269.689637 
L 190.66922 269.078487 
L 190.799094 266.918734 
L 190.961438 258.329841 
L 191.448468 228.72798 
L 191.805624 222.151492 
L 192.260186 217.937033 
L 192.779685 215.092453 
L 193.364122 213.046535 
L 193.981027 211.631364 
L 194.597933 210.734154 
L 195.084963 210.370309 
L 195.312244 210.387559 
L 195.864212 210.991405 
L 229.631661 248.354409 
L 238.398211 257.743771 
L 243.690609 263.109092 
L 247.294635 266.467324 
L 249.827194 268.547046 
L 251.483097 269.647286 
L 252.327284 269.985544 
L 252.684439 269.925434 
L 252.846783 269.69436 
L 252.976658 269.095653 
L 253.106532 266.982404 
L 253.268876 258.497861 
L 253.755907 228.790353 
L 254.113062 222.17961 
L 254.567624 217.952576 
L 255.087123 215.102139 
L 255.67156 213.052832 
L 256.288465 211.635473 
L 256.905371 210.73658 
L 257.392401 210.371039 
L 257.619682 210.386036 
L 258.139181 210.952838 
L 291.939099 248.35186 
L 300.770586 257.809209 
L 306.030516 263.138346 
L 309.634542 266.493924 
L 312.1671 268.569631 
L 313.790535 269.646049 
L 314.634722 269.98568 
L 314.991877 269.927851 
L 315.154221 269.701552 
L 315.284096 269.117613 
L 315.41397 267.06003 
L 315.576314 258.703114 
L 316.063345 228.867134 
L 316.4205 222.2143 
L 316.875062 217.971741 
L 317.394561 215.114252 
L 317.978998 213.06048 
L 318.595903 211.64064 
L 319.212809 210.739611 
L 319.699839 210.371838 
L 319.959589 210.409784 
L 323.303865 214.124798 
L 354.473818 248.596793 
L 363.013087 257.73824 
L 368.273016 263.071795 
L 371.909511 266.462511 
L 374.44207 268.542937 
L 376.097973 269.644183 
L 376.94216 269.985035 
L 377.299315 269.929999 
L 377.461659 269.709167 
L 377.591534 269.141936 
L 377.721409 267.148028 
L 377.883752 258.941434 
L 378.370783 228.958285 
L 378.727938 222.255202 
L 379.1825 217.994258 
L 379.701999 215.128084 
L 380.286436 213.069694 
L 380.903341 211.646482 
L 381.520247 210.743088 
L 382.007277 210.373042 
L 382.267027 210.40705 
L 384.734648 213.147321 
L 384.92946 213.363814 
L 384.92946 213.363814 
" clip-path="url(#p487f38c461)" style="fill: none; stroke-dasharray: 5.55,2.4; stroke-dashoffset: 0; stroke: #ff0000; stroke-width: 1.5"/>
   </g>
   <g id="patch_13">
    <path d="M 44.042187 273.553572 
L 44.042187 195.285336 
" style="fill: none; stroke: #000000; stroke-width: 0.8; stroke-linejoin: miter; stroke-linecap: square"/>
   </g>
   <g id="patch_14">
    <path d="M 401.162188 273.553572 
L 401.162188 195.285336 
" style="fill: none; stroke: #000000; stroke-width: 0.8; stroke-linejoin: miter; stroke-linecap: square"/>
   </g>
   <g id="patch_15">
    <path d="M 44.042187 273.553572 
L 401.162188 273.553572 
" style="fill: none; stroke: #000000; stroke-width: 0.8; stroke-linejoin: miter; stroke-linecap: square"/>
   </g>
   <g id="patch_16">
    <path d="M 44.042187 195.285336 
L 401.162188 195.285336 
" style="fill: none; stroke: #000000; stroke-width: 0.8; stroke-linejoin: miter; stroke-linecap: square"/>
   </g>
  </g>
 </g>
 <defs>
  <clipPath id="p1fe6e8eeb7">
   <rect x="44.042187" y="7.441572" width="357.12" height="78.268235"/>
  </clipPath>
  <clipPath id="p3c922847dc">
   <rect x="44.042187" y="101.363454" width="357.12" height="78.268235"/>
  </clipPath>
  <clipPath id="p487f38c461">
   <rect x="44.042187" y="195.285336" width="357.12" height="78.268235"/>
  </clipPath>
 </defs>
</svg>
