<?xml version="1.0" encoding="utf-8" standalone="no"?>
<!DOCTYPE svg PUBLIC "-//W3C//DTD SVG 1.1//EN"
  "http://www.w3.org/Graphics/SVG/1.1/DTD/svg11.dtd">
<svg xmlns:xlink="http://www.w3.org/1999/xlink" width="401.690625pt" height="266.51625pt" viewBox="0 0 401.690625 266.51625" xmlns="http://www.w3.org/2000/svg" version="1.1">
 <metadata>
  <rdf:RDF xmlns:dc="http://purl.org/dc/elements/1.1/" xmlns:cc="http://creativecommons.org/ns#" xmlns:rdf="http://www.w3.org/1999/02/22-rdf-syntax-ns#">
   <cc:Work>
    <dc:type rdf:resource="http://purl.org/dc/dcmitype/StillImage"/>
    <dc:date>2026-02-23T13:22:33.604445</dc:date>
    <dc:format>image/svg+xml</dc:format>
    <dc:creator>
     <cc:Agent>
      <dc:title>Matplotlib v3.10.8, https://matplotlib.org/</dc:title>
     </cc:Agent>
    </dc:creator>
   </cc:Work>
  </rdf:RDF>
 </metadata>
 <defs>
  <style type="text/css">*{stroke-linejoin: round; stroke-linecap: butt}</style>
 </defs>
 <g id="figure_1">
  <g id="patch_1">
   <path d="M 0 266.51625 
L 401.690625 266.51625 
L 401.690625 0 
L 0 0 
z
" style="fill: #ffffff"/>
  </g>
  <g id="axes_1">
   <g id="patch_2">
    <path d="M 59.690625 228.96 
L 394.490625 228.96 
L 394.490625 7.2 
L 59.690625 7.2 
z
" style="fill: #ffffff"/>
   </g>
   <g id="matplotlib.axis_1">
    <g id="xtick_1">
     <g id="line2d_1">
      <defs>
       <path id="mc0ff54bcaf" d="M 0 0 
L 0 3.5 
" style="stroke: #000000; stroke-width: 0.8"/>
      </defs>
      <g>
       <use xlink:href="#mc0ff54bcaf" x="78.695602" y="228.96" style="stroke: #000000; stroke-width: 0.8"/>
      </g>
     </g>
     <g id="text_1">
      <!-- 0.3 -->
      <g transform="translate(70.744039 243.558437) scale(0.1 -0.1)">
       <defs>
        <path id="DejaVuSans-30" d="M 2034 4250 
Q 1547 4250 1301 3770 
Q 1056 3291 1056 2328 
Q 1056 1369 1301 889 
Q 1547 409 2034 409 
Q 2525 409 2770 889 
Q 3016 1369 3016 2328 
Q 3016 3291 2770 3770 
Q 2525 4250 2034 4250 
z
M 2034 4750 
Q 2819 4750 3233 4129 
Q 3647 3509 3647 2328 
Q 3647 1150 3233 529 
Q 2819 -91 2034 -91 
Q 1250 -91 836 529 
Q 422 1150 422 2328 
Q 422 3509 836 4129 
Q 1250 4750 2034 4750 
z
" transform="scale(0.015625)"/>
        <path id="DejaVuSans-2e" d="M 684 794 
L 1344 794 
L 1344 0 
L 684 0 
L 684 794 
z
" transform="scale(0.015625)"/>
        <path id="DejaVuSans-33" d="M 2597 2516 
Q 3050 2419 3304 2112 
Q 3559 1806 3559 1356 
Q 3559 666 3084 287 
Q 2609 -91 1734 -91 
Q 1441 -91 1130 -33 
Q 819 25 488 141 
L 488 750 
Q 750 597 1062 519 
Q 1375 441 1716 441 
Q 2309 441 2620 675 
Q 2931 909 2931 1356 
Q 2931 1769 2642 2001 
Q 2353 2234 1838 2234 
L 1294 2234 
L 1294 2753 
L 1863 2753 
Q 2328 2753 2575 2939 
Q 2822 3125 2822 3475 
Q 2822 3834 2567 4026 
Q 2313 4219 1838 4219 
Q 1578 4219 1281 4162 
Q 984 4106 628 3988 
L 628 4550 
Q 988 4650 1302 4700 
Q 1616 4750 1894 4750 
Q 2613 4750 3031 4423 
Q 3450 4097 3450 3541 
Q 3450 3153 3228 2886 
Q 3006 2619 2597 2516 
z
" transform="scale(0.015625)"/>
       </defs>
       <use xlink:href="#DejaVuSans-30"/>
       <use xlink:href="#DejaVuSans-2e" transform="translate(63.623047 0)"/>
       <use xlink:href="#DejaVuSans-33" transform="translate(95.410156 0)"/>
      </g>
     </g>
    </g>
    <g id="xtick_2">
     <g id="line2d_2">
      <g>
       <use xlink:href="#mc0ff54bcaf" x="126.030537" y="228.96" style="stroke: #000000; stroke-width: 0.8"/>
      </g>
     </g>
     <g id="text_2">
      <!-- 0.4 -->
      <g transform="translate(118.078975 243.558437) scale(0.1 -0.1)">
       <defs>
        <path id="DejaVuSans-34" d="M 2419 4116 
L 825 1625 
L 2419 1625 
L 2419 4116 
z
M 2253 4666 
L 3047 4666 
L 3047 1625 
L 3713 1625 
L 3713 1100 
L 3047 1100 
L 3047 0 
L 2419 0 
L 2419 1100 
L 313 1100 
L 313 1709 
L 2253 4666 
z
" transform="scale(0.015625)"/>
       </defs>
       <use xlink:href="#DejaVuSans-30"/>
       <use xlink:href="#DejaVuSans-2e" transform="translate(63.623047 0)"/>
       <use xlink:href="#DejaVuSans-34" transform="translate(95.410156 0)"/>
      </g>
     </g>
    </g>
    <g id="xtick_3">
     <g id="line2d_3">
      <g>
       <use xlink:href="#mc0ff54bcaf" x="173.365473" y="228.96" style="stroke: #000000; stroke-width: 0.8"/>
      </g>
     </g>
     <g id="text_3">
      <!-- 0.5 -->
      <g transform="translate(165.413911 243.558437) scale(0.1 -0.1)">
       <defs>
        <path id="DejaVuSans-35" d="M 691 4666 
L 3169 4666 
L 3169 4134 
L 1269 4134 
L 1269 2991 
Q 1406 3038 1543 3061 
Q 1681 3084 1819 3084 
Q 2600 3084 3056 2656 
Q 3513 2228 3513 1497 
Q 3513 744 3044 326 
Q 2575 -91 1722 -91 
Q 1428 -91 1123 -41 
Q 819 9 494 109 
L 494 744 
Q 775 591 1075 516 
Q 1375 441 1709 441 
Q 2250 441 2565 725 
Q 2881 1009 2881 1497 
Q 2881 1984 2565 2268 
Q 2250 2553 1709 2553 
Q 1456 2553 1204 2497 
Q 953 2441 691 2322 
L 691 4666 
z
" transform="scale(0.015625)"/>
       </defs>
       <use xlink:href="#DejaVuSans-30"/>
       <use xlink:href="#DejaVuSans-2e" transform="translate(63.623047 0)"/>
       <use xlink:href="#DejaVuSans-35" transform="translate(95.410156 0)"/>
      </g>
     </g>
    </g>
    <g id="xtick_4">
     <g id="line2d_4">
      <g>
       <use xlink:href="#mc0ff54bcaf" x="220.700409" y="228.96" style="stroke: #000000; stroke-width: 0.8"/>
      </g>
     </g>
     <g id="text_4">
      <!-- 0.6 -->
      <g transform="translate(212.748846 243.558437) scale(0.1 -0.1)">
       <defs>
        <path id="DejaVuSans-36" d="M 2113 2584 
Q 1688 2584 1439 2293 
Q 1191 2003 1191 1497 
Q 1191 994 1439 701 
Q 1688 409 2113 409 
Q 2538 409 2786 701 
Q 3034 994 3034 1497 
Q 3034 2003 2786 2293 
Q 2538 2584 2113 2584 
z
M 3366 4563 
L 3366 3988 
Q 3128 4100 2886 4159 
Q 2644 4219 2406 4219 
Q 1781 4219 1451 3797 
Q 1122 3375 1075 2522 
Q 1259 2794 1537 2939 
Q 1816 3084 2150 3084 
Q 2853 3084 3261 2657 
Q 3669 2231 3669 1497 
Q 3669 778 3244 343 
Q 2819 -91 2113 -91 
Q 1303 -91 875 529 
Q 447 1150 447 2328 
Q 447 3434 972 4092 
Q 1497 4750 2381 4750 
Q 2619 4750 2861 4703 
Q 3103 4656 3366 4563 
z
" transform="scale(0.015625)"/>
       </defs>
       <use xlink:href="#DejaVuSans-30"/>
       <use xlink:href="#DejaVuSans-2e" transform="translate(63.623047 0)"/>
       <use xlink:href="#DejaVuSans-36" transform="translate(95.410156 0)"/>
      </g>
     </g>
    </g>
    <g id="xtick_5">
     <g id="line2d_5">
      <g>
       <use xlink:href="#mc0ff54bcaf" x="268.035344" y="228.96" style="stroke: #000000; stroke-width: 0.8"/>
      </g>
     </g>
     <g id="text_5">
      <!-- 0.7 -->
      <g transform="translate(260.083782 243.558437) scale(0.1 -0.1)">
       <defs>
        <path id="DejaVuSans-37" d="M 525 4666 
L 3525 4666 
L 3525 4397 
L 1831 0 
L 1172 0 
L 2766 4134 
L 525 4134 
L 525 4666 
z
" transform="scale(0.015625)"/>
       </defs>
       <use xlink:href="#DejaVuSans-30"/>
       <use xlink:href="#DejaVuSans-2e" transform="translate(63.623047 0)"/>
       <use xlink:href="#DejaVuSans-37" transform="translate(95.410156 0)"/>
      </g>
     </g>
    </g>
    <g id="xtick_6">
     <g id="line2d_6">
      <g>
       <use xlink:href="#mc0ff54bcaf" x="315.37028" y="228.96" style="stroke: #000000; stroke-width: 0.8"/>
      </g>
     </g>
     <g id="text_6">
      <!-- 0.8 -->
      <g transform="translate(307.418718 243.558437) scale(0.1 -0.1)">
       <defs>
        <path id="DejaVuSans-38" d="M 2034 2216 
Q 1584 2216 1326 1975 
Q 1069 1734 1069 1313 
Q 1069 891 1326 650 
Q 1584 409 2034 409 
Q 2484 409 2743 651 
Q 3003 894 3003 1313 
Q 3003 1734 2745 1975 
Q 2488 2216 2034 2216 
z
M 1403 2484 
Q 997 2584 770 2862 
Q 544 3141 544 3541 
Q 544 4100 942 4425 
Q 1341 4750 2034 4750 
Q 2731 4750 3128 4425 
Q 3525 4100 3525 3541 
Q 3525 3141 3298 2862 
Q 3072 2584 2669 2484 
Q 3125 2378 3379 2068 
Q 3634 1759 3634 1313 
Q 3634 634 3220 271 
Q 2806 -91 2034 -91 
Q 1263 -91 848 271 
Q 434 634 434 1313 
Q 434 1759 690 2068 
Q 947 2378 1403 2484 
z
M 1172 3481 
Q 1172 3119 1398 2916 
Q 1625 2713 2034 2713 
Q 2441 2713 2670 2916 
Q 2900 3119 2900 3481 
Q 2900 3844 2670 4047 
Q 2441 4250 2034 4250 
Q 1625 4250 1398 4047 
Q 1172 3844 1172 3481 
z
" transform="scale(0.015625)"/>
       </defs>
       <use xlink:href="#DejaVuSans-30"/>
       <use xlink:href="#DejaVuSans-2e" transform="translate(63.623047 0)"/>
       <use xlink:href="#DejaVuSans-38" transform="translate(95.410156 0)"/>
      </g>
     </g>
    </g>
    <g id="xtick_7">
     <g id="line2d_7">
      <g>
       <use xlink:href="#mc0ff54bcaf" x="362.705216" y="228.96" style="stroke: #000000; stroke-width: 0.8"/>
      </g>
     </g>
     <g id="text_7">
      <!-- 0.9 -->
      <g transform="translate(354.753653 243.558437) scale(0.1 -0.1)">
       <defs>
        <path id="DejaVuSans-39" d="M 703 97 
L 703 672 
Q 941 559 1184 500 
Q 1428 441 1663 441 
Q 2288 441 2617 861 
Q 2947 1281 2994 2138 
Q 2813 1869 2534 1725 
Q 2256 1581 1919 1581 
Q 1219 1581 811 2004 
Q 403 2428 403 3163 
Q 403 3881 828 4315 
Q 1253 4750 1959 4750 
Q 2769 4750 3195 4129 
Q 3622 3509 3622 2328 
Q 3622 1225 3098 567 
Q 2575 -91 1691 -91 
Q 1453 -91 1209 -44 
Q 966 3 703 97 
z
M 1959 2075 
Q 2384 2075 2632 2365 
Q 2881 2656 2881 3163 
Q 2881 3666 2632 3958 
Q 2384 4250 1959 4250 
Q 1534 4250 1286 3958 
Q 1038 3666 1038 3163 
Q 1038 2656 1286 2365 
Q 1534 2075 1959 2075 
z
" transform="scale(0.015625)"/>
       </defs>
       <use xlink:href="#DejaVuSans-30"/>
       <use xlink:href="#DejaVuSans-2e" transform="translate(63.623047 0)"/>
       <use xlink:href="#DejaVuSans-39" transform="translate(95.410156 0)"/>
      </g>
     </g>
    </g>
    <g id="text_8">
     <!-- $l_1 \; /\; \mathrm{m}$ -->
     <g transform="translate(214.040625 257.236562) scale(0.1 -0.1)">
      <defs>
       <path id="DejaVuSans-Oblique-6c" d="M 1172 4863 
L 1747 4863 
L 800 0 
L 225 0 
L 1172 4863 
z
" transform="scale(0.015625)"/>
       <path id="DejaVuSans-31" d="M 794 531 
L 1825 531 
L 1825 4091 
L 703 3866 
L 703 4441 
L 1819 4666 
L 2450 4666 
L 2450 531 
L 3481 531 
L 3481 0 
L 794 0 
L 794 531 
z
" transform="scale(0.015625)"/>
       <path id="DejaVuSans-2f" d="M 1625 4666 
L 2156 4666 
L 531 -594 
L 0 -594 
L 1625 4666 
z
" transform="scale(0.015625)"/>
       <path id="DejaVuSans-6d" d="M 3328 2828 
Q 3544 3216 3844 3400 
Q 4144 3584 4550 3584 
Q 5097 3584 5394 3201 
Q 5691 2819 5691 2113 
L 5691 0 
L 5113 0 
L 5113 2094 
Q 5113 2597 4934 2840 
Q 4756 3084 4391 3084 
Q 3944 3084 3684 2787 
Q 3425 2491 3425 1978 
L 3425 0 
L 2847 0 
L 2847 2094 
Q 2847 2600 2669 2842 
Q 2491 3084 2119 3084 
Q 1678 3084 1418 2786 
Q 1159 2488 1159 1978 
L 1159 0 
L 581 0 
L 581 3500 
L 1159 3500 
L 1159 2956 
Q 1356 3278 1631 3431 
Q 1906 3584 2284 3584 
Q 2666 3584 2933 3390 
Q 3200 3197 3328 2828 
z
" transform="scale(0.015625)"/>
      </defs>
      <use xlink:href="#DejaVuSans-Oblique-6c" transform="translate(0 0.015625)"/>
      <use xlink:href="#DejaVuSans-31" transform="translate(27.783203 -16.390625) scale(0.7)"/>
      <use xlink:href="#DejaVuSans-2f" transform="translate(102.112847 0.015625)"/>
      <use xlink:href="#DejaVuSans-6d" transform="translate(162.863389 0.015625)"/>
     </g>
    </g>
   </g>
   <g id="matplotlib.axis_2">
    <g id="ytick_1">
     <g id="line2d_8">
      <defs>
       <path id="md1af89e4d3" d="M 0 0 
L -3.5 0 
" style="stroke: #000000; stroke-width: 0.8"/>
      </defs>
      <g>
       <use xlink:href="#md1af89e4d3" x="59.690625" y="203.410563" style="stroke: #000000; stroke-width: 0.8"/>
      </g>
     </g>
     <g id="text_9">
      <!-- 3000 -->
      <g transform="translate(27.240625 207.209782) scale(0.1 -0.1)">
       <use xlink:href="#DejaVuSans-33"/>
       <use xlink:href="#DejaVuSans-30" transform="translate(63.623047 0)"/>
       <use xlink:href="#DejaVuSans-30" transform="translate(127.246094 0)"/>
       <use xlink:href="#DejaVuSans-30" transform="translate(190.869141 0)"/>
      </g>
     </g>
    </g>
    <g id="ytick_2">
     <g id="line2d_9">
      <g>
       <use xlink:href="#md1af89e4d3" x="59.690625" y="176.371364" style="stroke: #000000; stroke-width: 0.8"/>
      </g>
     </g>
     <g id="text_10">
      <!-- 4000 -->
      <g transform="translate(27.240625 180.170583) scale(0.1 -0.1)">
       <use xlink:href="#DejaVuSans-34"/>
       <use xlink:href="#DejaVuSans-30" transform="translate(63.623047 0)"/>
       <use xlink:href="#DejaVuSans-30" transform="translate(127.246094 0)"/>
       <use xlink:href="#DejaVuSans-30" transform="translate(190.869141 0)"/>
      </g>
     </g>
    </g>
    <g id="ytick_3">
     <g id="line2d_10">
      <g>
       <use xlink:href="#md1af89e4d3" x="59.690625" y="149.332166" style="stroke: #000000; stroke-width: 0.8"/>
      </g>
     </g>
     <g id="text_11">
      <!-- 5000 -->
      <g transform="translate(27.240625 153.131385) scale(0.1 -0.1)">
       <use xlink:href="#DejaVuSans-35"/>
       <use xlink:href="#DejaVuSans-30" transform="translate(63.623047 0)"/>
       <use xlink:href="#DejaVuSans-30" transform="translate(127.246094 0)"/>
       <use xlink:href="#DejaVuSans-30" transform="translate(190.869141 0)"/>
      </g>
     </g>
    </g>
    <g id="ytick_4">
     <g id="line2d_11">
      <g>
       <use xlink:href="#md1af89e4d3" x="59.690625" y="122.292967" style="stroke: #000000; stroke-width: 0.8"/>
      </g>
     </g>
     <g id="text_12">
      <!-- 6000 -->
      <g transform="translate(27.240625 126.092186) scale(0.1 -0.1)">
       <use xlink:href="#DejaVuSans-36"/>
       <use xlink:href="#DejaVuSans-30" transform="translate(63.623047 0)"/>
       <use xlink:href="#DejaVuSans-30" transform="translate(127.246094 0)"/>
       <use xlink:href="#DejaVuSans-30" transform="translate(190.869141 0)"/>
      </g>
     </g>
    </g>
    <g id="ytick_5">
     <g id="line2d_12">
      <g>
       <use xlink:href="#md1af89e4d3" x="59.690625" y="95.253769" style="stroke: #000000; stroke-width: 0.8"/>
      </g>
     </g>
     <g id="text_13">
      <!-- 7000 -->
      <g transform="translate(27.240625 99.052988) scale(0.1 -0.1)">
       <use xlink:href="#DejaVuSans-37"/>
       <use xlink:href="#DejaVuSans-30" transform="translate(63.623047 0)"/>
       <use xlink:href="#DejaVuSans-30" transform="translate(127.246094 0)"/>
       <use xlink:href="#DejaVuSans-30" transform="translate(190.869141 0)"/>
      </g>
     </g>
    </g>
    <g id="ytick_6">
     <g id="line2d_13">
      <g>
       <use xlink:href="#md1af89e4d3" x="59.690625" y="68.21457" style="stroke: #000000; stroke-width: 0.8"/>
      </g>
     </g>
     <g id="text_14">
      <!-- 8000 -->
      <g transform="translate(27.240625 72.013789) scale(0.1 -0.1)">
       <use xlink:href="#DejaVuSans-38"/>
       <use xlink:href="#DejaVuSans-30" transform="translate(63.623047 0)"/>
       <use xlink:href="#DejaVuSans-30" transform="translate(127.246094 0)"/>
       <use xlink:href="#DejaVuSans-30" transform="translate(190.869141 0)"/>
      </g>
     </g>
    </g>
    <g id="ytick_7">
     <g id="line2d_14">
      <g>
       <use xlink:href="#md1af89e4d3" x="59.690625" y="41.175372" style="stroke: #000000; stroke-width: 0.8"/>
      </g>
     </g>
     <g id="text_15">
      <!-- 9000 -->
      <g transform="translate(27.240625 44.974591) scale(0.1 -0.1)">
       <use xlink:href="#DejaVuSans-39"/>
       <use xlink:href="#DejaVuSans-30" transform="translate(63.623047 0)"/>
       <use xlink:href="#DejaVuSans-30" transform="translate(127.246094 0)"/>
       <use xlink:href="#DejaVuSans-30" transform="translate(190.869141 0)"/>
      </g>
     </g>
    </g>
    <g id="ytick_8">
     <g id="line2d_15">
      <g>
       <use xlink:href="#md1af89e4d3" x="59.690625" y="14.136173" style="stroke: #000000; stroke-width: 0.8"/>
      </g>
     </g>
     <g id="text_16">
      <!-- 10000 -->
      <g transform="translate(20.878125 17.935392) scale(0.1 -0.1)">
       <use xlink:href="#DejaVuSans-31"/>
       <use xlink:href="#DejaVuSans-30" transform="translate(63.623047 0)"/>
       <use xlink:href="#DejaVuSans-30" transform="translate(127.246094 0)"/>
       <use xlink:href="#DejaVuSans-30" transform="translate(190.869141 0)"/>
       <use xlink:href="#DejaVuSans-30" transform="translate(254.492188 0)"/>
      </g>
     </g>
    </g>
    <g id="text_17">
     <!-- $p_1 - p_0 \; /\;\mathrm{Pa}$ -->
     <g transform="translate(14.778125 145.78) rotate(-90) scale(0.1 -0.1)">
      <defs>
       <path id="DejaVuSans-Oblique-70" d="M 3175 2156 
Q 3175 2616 2975 2859 
Q 2775 3103 2400 3103 
Q 2144 3103 1911 2972 
Q 1678 2841 1497 2591 
Q 1319 2344 1212 1994 
Q 1106 1644 1106 1300 
Q 1106 863 1306 627 
Q 1506 391 1875 391 
Q 2147 391 2380 519 
Q 2613 647 2778 891 
Q 2956 1147 3065 1494 
Q 3175 1841 3175 2156 
z
M 1394 2969 
Q 1625 3272 1939 3428 
Q 2253 3584 2638 3584 
Q 3175 3584 3472 3232 
Q 3769 2881 3769 2247 
Q 3769 1728 3584 1258 
Q 3400 788 3053 416 
Q 2822 169 2531 39 
Q 2241 -91 1919 -91 
Q 1547 -91 1294 64 
Q 1041 219 916 525 
L 556 -1331 
L -19 -1331 
L 922 3500 
L 1497 3500 
L 1394 2969 
z
" transform="scale(0.015625)"/>
       <path id="DejaVuSans-2212" d="M 678 2272 
L 4684 2272 
L 4684 1741 
L 678 1741 
L 678 2272 
z
" transform="scale(0.015625)"/>
       <path id="DejaVuSans-50" d="M 1259 4147 
L 1259 2394 
L 2053 2394 
Q 2494 2394 2734 2622 
Q 2975 2850 2975 3272 
Q 2975 3691 2734 3919 
Q 2494 4147 2053 4147 
L 1259 4147 
z
M 628 4666 
L 2053 4666 
Q 2838 4666 3239 4311 
Q 3641 3956 3641 3272 
Q 3641 2581 3239 2228 
Q 2838 1875 2053 1875 
L 1259 1875 
L 1259 0 
L 628 0 
L 628 4666 
z
" transform="scale(0.015625)"/>
       <path id="DejaVuSans-61" d="M 2194 1759 
Q 1497 1759 1228 1600 
Q 959 1441 959 1056 
Q 959 750 1161 570 
Q 1363 391 1709 391 
Q 2188 391 2477 730 
Q 2766 1069 2766 1631 
L 2766 1759 
L 2194 1759 
z
M 3341 1997 
L 3341 0 
L 2766 0 
L 2766 531 
Q 2569 213 2275 61 
Q 1981 -91 1556 -91 
Q 1019 -91 701 211 
Q 384 513 384 1019 
Q 384 1609 779 1909 
Q 1175 2209 1959 2209 
L 2766 2209 
L 2766 2266 
Q 2766 2663 2505 2880 
Q 2244 3097 1772 3097 
Q 1472 3097 1187 3025 
Q 903 2953 641 2809 
L 641 3341 
Q 956 3463 1253 3523 
Q 1550 3584 1831 3584 
Q 2591 3584 2966 3190 
Q 3341 2797 3341 1997 
z
" transform="scale(0.015625)"/>
      </defs>
      <use xlink:href="#DejaVuSans-Oblique-70" transform="translate(0 0.09375)"/>
      <use xlink:href="#DejaVuSans-31" transform="translate(63.476562 -16.3125) scale(0.7)"/>
      <use xlink:href="#DejaVuSans-2212" transform="translate(130.229492 0.09375)"/>
      <use xlink:href="#DejaVuSans-Oblique-70" transform="translate(233.500977 0.09375)"/>
      <use xlink:href="#DejaVuSans-30" transform="translate(296.977539 -16.3125) scale(0.7)"/>
      <use xlink:href="#DejaVuSans-2f" transform="translate(371.307183 0.09375)"/>
      <use xlink:href="#DejaVuSans-50" transform="translate(432.057725 0.09375)"/>
      <use xlink:href="#DejaVuSans-61" transform="translate(492.360459 0.09375)"/>
     </g>
    </g>
   </g>
   <g id="LineCollection_1">
    <path d="M 74.908807 197.807595 
L 75.855506 197.807595 
" clip-path="url(#pe79128eeec)" style="fill: none; stroke: #000000; stroke-width: 1.5"/>
    <path d="M 98.576275 182.82995 
L 99.522973 182.82995 
" clip-path="url(#pe79128eeec)" style="fill: none; stroke: #000000; stroke-width: 1.5"/>
    <path d="M 121.770393 182.82995 
L 122.717092 182.82995 
" clip-path="url(#pe79128eeec)" style="fill: none; stroke: #000000; stroke-width: 1.5"/>
    <path d="M 146.857909 197.807595 
L 147.804608 197.807595 
" clip-path="url(#pe79128eeec)" style="fill: none; stroke: #000000; stroke-width: 1.5"/>
    <path d="M 168.631979 152.404159 
L 169.578678 152.404159 
" clip-path="url(#pe79128eeec)" style="fill: none; stroke: #000000; stroke-width: 1.5"/>
    <path d="M 191.826098 136.951059 
L 192.772797 136.951059 
" clip-path="url(#pe79128eeec)" style="fill: none; stroke: #000000; stroke-width: 1.5"/>
    <path d="M 214.073518 105.551676 
L 215.020216 105.551676 
" clip-path="url(#pe79128eeec)" style="fill: none; stroke: #000000; stroke-width: 1.5"/>
    <path d="M 239.161034 136.951059 
L 240.107732 136.951059 
" clip-path="url(#pe79128eeec)" style="fill: none; stroke: #000000; stroke-width: 1.5"/>
    <path d="M 262.355152 105.551676 
L 263.301851 105.551676 
" clip-path="url(#pe79128eeec)" style="fill: none; stroke: #000000; stroke-width: 1.5"/>
    <path d="M 284.129222 73.477038 
L 285.075921 73.477038 
" clip-path="url(#pe79128eeec)" style="fill: none; stroke: #000000; stroke-width: 1.5"/>
    <path d="M 308.27004 57.179654 
L 309.216738 57.179654 
" clip-path="url(#pe79128eeec)" style="fill: none; stroke: #000000; stroke-width: 1.5"/>
    <path d="M 332.410857 73.477038 
L 333.357556 73.477038 
" clip-path="url(#pe79128eeec)" style="fill: none; stroke: #000000; stroke-width: 1.5"/>
    <path d="M 355.604975 57.179654 
L 356.551674 57.179654 
" clip-path="url(#pe79128eeec)" style="fill: none; stroke: #000000; stroke-width: 1.5"/>
    <path d="M 378.325744 40.705125 
L 379.272443 40.705125 
" clip-path="url(#pe79128eeec)" style="fill: none; stroke: #000000; stroke-width: 1.5"/>
   </g>
   <g id="LineCollection_2">
    <path d="M 75.382156 218.88 
L 75.382156 176.73519 
" clip-path="url(#pe79128eeec)" style="fill: none; stroke: #000000; stroke-width: 1.5"/>
    <path d="M 99.049624 204.121288 
L 99.049624 161.538613 
" clip-path="url(#pe79128eeec)" style="fill: none; stroke: #000000; stroke-width: 1.5"/>
    <path d="M 122.243742 204.121288 
L 122.243742 161.538613 
" clip-path="url(#pe79128eeec)" style="fill: none; stroke: #000000; stroke-width: 1.5"/>
    <path d="M 147.331258 218.88 
L 147.331258 176.73519 
" clip-path="url(#pe79128eeec)" style="fill: none; stroke: #000000; stroke-width: 1.5"/>
    <path d="M 169.105329 174.143723 
L 169.105329 130.664595 
" clip-path="url(#pe79128eeec)" style="fill: none; stroke: #000000; stroke-width: 1.5"/>
    <path d="M 192.299447 158.920063 
L 192.299447 114.982056 
" clip-path="url(#pe79128eeec)" style="fill: none; stroke: #000000; stroke-width: 1.5"/>
    <path d="M 214.546867 127.990592 
L 214.546867 83.112761 
" clip-path="url(#pe79128eeec)" style="fill: none; stroke: #000000; stroke-width: 1.5"/>
    <path d="M 239.634383 158.920063 
L 239.634383 114.982056 
" clip-path="url(#pe79128eeec)" style="fill: none; stroke: #000000; stroke-width: 1.5"/>
    <path d="M 262.828501 127.990592 
L 262.828501 83.112761 
" clip-path="url(#pe79128eeec)" style="fill: none; stroke: #000000; stroke-width: 1.5"/>
    <path d="M 284.602572 96.401105 
L 284.602572 50.552971 
" clip-path="url(#pe79128eeec)" style="fill: none; stroke: #000000; stroke-width: 1.5"/>
    <path d="M 308.743389 80.352219 
L 308.743389 34.007089 
" clip-path="url(#pe79128eeec)" style="fill: none; stroke: #000000; stroke-width: 1.5"/>
    <path d="M 332.884206 96.401105 
L 332.884206 50.552971 
" clip-path="url(#pe79128eeec)" style="fill: none; stroke: #000000; stroke-width: 1.5"/>
    <path d="M 356.078325 80.352219 
L 356.078325 34.007089 
" clip-path="url(#pe79128eeec)" style="fill: none; stroke: #000000; stroke-width: 1.5"/>
    <path d="M 378.799094 64.13025 
L 378.799094 17.28 
" clip-path="url(#pe79128eeec)" style="fill: none; stroke: #000000; stroke-width: 1.5"/>
   </g>
   <g id="line2d_16">
    <defs>
     <path id="m067d7801e0" d="M 0 4 
L 0 -4 
" style="stroke: #000000"/>
    </defs>
    <g clip-path="url(#pe79128eeec)">
     <use xlink:href="#m067d7801e0" x="74.908807" y="197.807595" style="stroke: #000000"/>
     <use xlink:href="#m067d7801e0" x="98.576275" y="182.82995" style="stroke: #000000"/>
     <use xlink:href="#m067d7801e0" x="121.770393" y="182.82995" style="stroke: #000000"/>
     <use xlink:href="#m067d7801e0" x="146.857909" y="197.807595" style="stroke: #000000"/>
     <use xlink:href="#m067d7801e0" x="168.631979" y="152.404159" style="stroke: #000000"/>
     <use xlink:href="#m067d7801e0" x="191.826098" y="136.951059" style="stroke: #000000"/>
     <use xlink:href="#m067d7801e0" x="214.073518" y="105.551676" style="stroke: #000000"/>
     <use xlink:href="#m067d7801e0" x="239.161034" y="136.951059" style="stroke: #000000"/>
     <use xlink:href="#m067d7801e0" x="262.355152" y="105.551676" style="stroke: #000000"/>
     <use xlink:href="#m067d7801e0" x="284.129222" y="73.477038" style="stroke: #000000"/>
     <use xlink:href="#m067d7801e0" x="308.27004" y="57.179654" style="stroke: #000000"/>
     <use xlink:href="#m067d7801e0" x="332.410857" y="73.477038" style="stroke: #000000"/>
     <use xlink:href="#m067d7801e0" x="355.604975" y="57.179654" style="stroke: #000000"/>
     <use xlink:href="#m067d7801e0" x="378.325744" y="40.705125" style="stroke: #000000"/>
    </g>
   </g>
   <g id="line2d_17">
    <g clip-path="url(#pe79128eeec)">
     <use xlink:href="#m067d7801e0" x="75.855506" y="197.807595" style="stroke: #000000"/>
     <use xlink:href="#m067d7801e0" x="99.522973" y="182.82995" style="stroke: #000000"/>
     <use xlink:href="#m067d7801e0" x="122.717092" y="182.82995" style="stroke: #000000"/>
     <use xlink:href="#m067d7801e0" x="147.804608" y="197.807595" style="stroke: #000000"/>
     <use xlink:href="#m067d7801e0" x="169.578678" y="152.404159" style="stroke: #000000"/>
     <use xlink:href="#m067d7801e0" x="192.772797" y="136.951059" style="stroke: #000000"/>
     <use xlink:href="#m067d7801e0" x="215.020216" y="105.551676" style="stroke: #000000"/>
     <use xlink:href="#m067d7801e0" x="240.107732" y="136.951059" style="stroke: #000000"/>
     <use xlink:href="#m067d7801e0" x="263.301851" y="105.551676" style="stroke: #000000"/>
     <use xlink:href="#m067d7801e0" x="285.075921" y="73.477038" style="stroke: #000000"/>
     <use xlink:href="#m067d7801e0" x="309.216738" y="57.179654" style="stroke: #000000"/>
     <use xlink:href="#m067d7801e0" x="333.357556" y="73.477038" style="stroke: #000000"/>
     <use xlink:href="#m067d7801e0" x="356.551674" y="57.179654" style="stroke: #000000"/>
     <use xlink:href="#m067d7801e0" x="379.272443" y="40.705125" style="stroke: #000000"/>
    </g>
   </g>
   <g id="line2d_18">
    <defs>
     <path id="m950e1da8d4" d="M 4 0 
L -4 -0 
" style="stroke: #000000"/>
    </defs>
    <g clip-path="url(#pe79128eeec)">
     <use xlink:href="#m950e1da8d4" x="75.382156" y="218.88" style="stroke: #000000"/>
     <use xlink:href="#m950e1da8d4" x="99.049624" y="204.121288" style="stroke: #000000"/>
     <use xlink:href="#m950e1da8d4" x="122.243742" y="204.121288" style="stroke: #000000"/>
     <use xlink:href="#m950e1da8d4" x="147.331258" y="218.88" style="stroke: #000000"/>
     <use xlink:href="#m950e1da8d4" x="169.105329" y="174.143723" style="stroke: #000000"/>
     <use xlink:href="#m950e1da8d4" x="192.299447" y="158.920063" style="stroke: #000000"/>
     <use xlink:href="#m950e1da8d4" x="214.546867" y="127.990592" style="stroke: #000000"/>
     <use xlink:href="#m950e1da8d4" x="239.634383" y="158.920063" style="stroke: #000000"/>
     <use xlink:href="#m950e1da8d4" x="262.828501" y="127.990592" style="stroke: #000000"/>
     <use xlink:href="#m950e1da8d4" x="284.602572" y="96.401105" style="stroke: #000000"/>
     <use xlink:href="#m950e1da8d4" x="308.743389" y="80.352219" style="stroke: #000000"/>
     <use xlink:href="#m950e1da8d4" x="332.884206" y="96.401105" style="stroke: #000000"/>
     <use xlink:href="#m950e1da8d4" x="356.078325" y="80.352219" style="stroke: #000000"/>
     <use xlink:href="#m950e1da8d4" x="378.799094" y="64.13025" style="stroke: #000000"/>
    </g>
   </g>
   <g id="line2d_19">
    <g clip-path="url(#pe79128eeec)">
     <use xlink:href="#m950e1da8d4" x="75.382156" y="176.73519" style="stroke: #000000"/>
     <use xlink:href="#m950e1da8d4" x="99.049624" y="161.538613" style="stroke: #000000"/>
     <use xlink:href="#m950e1da8d4" x="122.243742" y="161.538613" style="stroke: #000000"/>
     <use xlink:href="#m950e1da8d4" x="147.331258" y="176.73519" style="stroke: #000000"/>
     <use xlink:href="#m950e1da8d4" x="169.105329" y="130.664595" style="stroke: #000000"/>
     <use xlink:href="#m950e1da8d4" x="192.299447" y="114.982056" style="stroke: #000000"/>
     <use xlink:href="#m950e1da8d4" x="214.546867" y="83.112761" style="stroke: #000000"/>
     <use xlink:href="#m950e1da8d4" x="239.634383" y="114.982056" style="stroke: #000000"/>
     <use xlink:href="#m950e1da8d4" x="262.828501" y="83.112761" style="stroke: #000000"/>
     <use xlink:href="#m950e1da8d4" x="284.602572" y="50.552971" style="stroke: #000000"/>
     <use xlink:href="#m950e1da8d4" x="308.743389" y="34.007089" style="stroke: #000000"/>
     <use xlink:href="#m950e1da8d4" x="332.884206" y="50.552971" style="stroke: #000000"/>
     <use xlink:href="#m950e1da8d4" x="356.078325" y="34.007089" style="stroke: #000000"/>
     <use xlink:href="#m950e1da8d4" x="378.799094" y="17.28" style="stroke: #000000"/>
    </g>
   </g>
   <g id="line2d_20">
    <defs>
     <path id="m9dee76c05f" d="M 0 3 
C 0.795609 3 1.55874 2.683901 2.12132 2.12132 
C 2.683901 1.55874 3 0.795609 3 0 
C 3 -0.795609 2.683901 -1.55874 2.12132 -2.12132 
C 1.55874 -2.683901 0.795609 -3 0 -3 
C -0.795609 -3 -1.55874 -2.683901 -2.12132 -2.12132 
C -2.683901 -1.55874 -3 -0.795609 -3 0 
C -3 0.795609 -2.683901 1.55874 -2.12132 2.12132 
C -1.55874 2.683901 -0.795609 3 0 3 
z
" style="stroke: #000000"/>
    </defs>
    <g clip-path="url(#pe79128eeec)">
     <use xlink:href="#m9dee76c05f" x="75.382156" y="197.807595" style="stroke: #000000"/>
     <use xlink:href="#m9dee76c05f" x="99.049624" y="182.82995" style="stroke: #000000"/>
     <use xlink:href="#m9dee76c05f" x="122.243742" y="182.82995" style="stroke: #000000"/>
     <use xlink:href="#m9dee76c05f" x="147.331258" y="197.807595" style="stroke: #000000"/>
     <use xlink:href="#m9dee76c05f" x="169.105329" y="152.404159" style="stroke: #000000"/>
     <use xlink:href="#m9dee76c05f" x="192.299447" y="136.951059" style="stroke: #000000"/>
     <use xlink:href="#m9dee76c05f" x="214.546867" y="105.551676" style="stroke: #000000"/>
     <use xlink:href="#m9dee76c05f" x="239.634383" y="136.951059" style="stroke: #000000"/>
     <use xlink:href="#m9dee76c05f" x="262.828501" y="105.551676" style="stroke: #000000"/>
     <use xlink:href="#m9dee76c05f" x="284.602572" y="73.477038" style="stroke: #000000"/>
     <use xlink:href="#m9dee76c05f" x="308.743389" y="57.179654" style="stroke: #000000"/>
     <use xlink:href="#m9dee76c05f" x="332.884206" y="73.477038" style="stroke: #000000"/>
     <use xlink:href="#m9dee76c05f" x="356.078325" y="57.179654" style="stroke: #000000"/>
     <use xlink:href="#m9dee76c05f" x="378.799094" y="40.705125" style="stroke: #000000"/>
    </g>
   </g>
   <g id="patch_3">
    <path d="M 59.690625 228.96 
L 59.690625 7.2 
" style="fill: none; stroke: #000000; stroke-width: 0.8; stroke-linejoin: miter; stroke-linecap: square"/>
   </g>
   <g id="patch_4">
    <path d="M 394.490625 228.96 
L 394.490625 7.2 
" style="fill: none; stroke: #000000; stroke-width: 0.8; stroke-linejoin: miter; stroke-linecap: square"/>
   </g>
   <g id="patch_5">
    <path d="M 59.690625 228.96 
L 394.490625 228.96 
" style="fill: none; stroke: #000000; stroke-width: 0.8; stroke-linejoin: miter; stroke-linecap: square"/>
   </g>
   <g id="patch_6">
    <path d="M 59.690625 7.2 
L 394.490625 7.2 
" style="fill: none; stroke: #000000; stroke-width: 0.8; stroke-linejoin: miter; stroke-linecap: square"/>
   </g>
  </g>
 </g>
 <defs>
  <clipPath id="pe79128eeec">
   <rect x="59.690625" y="7.2" width="334.8" height="221.76"/>
  </clipPath>
 </defs>
</svg>
