<?xml version="1.0" encoding="utf-8" standalone="no"?>
<!DOCTYPE svg PUBLIC "-//W3C//DTD SVG 1.1//EN"
  "http://www.w3.org/Graphics/SVG/1.1/DTD/svg11.dtd">
<svg xmlns:xlink="http://www.w3.org/1999/xlink" width="329.41825pt" height="333.550125pt" viewBox="0 0 329.41825 333.550125" xmlns="http://www.w3.org/2000/svg" version="1.1">
 <metadata>
  <rdf:RDF xmlns:dc="http://purl.org/dc/elements/1.1/" xmlns:cc="http://creativecommons.org/ns#" xmlns:rdf="http://www.w3.org/1999/02/22-rdf-syntax-ns#">
   <cc:Work>
    <dc:type rdf:resource="http://purl.org/dc/dcmitype/StillImage"/>
    <dc:date>2026-01-05T19:17:28.074766</dc:date>
    <dc:format>image/svg+xml</dc:format>
    <dc:creator>
     <cc:Agent>
      <dc:title>Matplotlib v3.10.8, https://matplotlib.org/</dc:title>
     </cc:Agent>
    </dc:creator>
   </cc:Work>
  </rdf:RDF>
 </metadata>
 <defs>
  <style type="text/css">*{stroke-linejoin: round; stroke-linecap: butt}</style>
 </defs>
 <g id="figure_1">
  <g id="patch_1">
   <path d="M 0 333.550125 
L 329.41825 333.550125 
L 329.41825 0 
L 0 0 
z
" style="fill: #ffffff"/>
  </g>
  <g id="axes_1">
   <g id="patch_2">
    <path d="M 296.1745 174.455062 
C 296.1745 156.982309 292.732748 139.679455 286.046215 123.536736 
C 279.359682 107.394016 269.558403 92.725365 257.2033 80.370263 
C 244.848197 68.01516 230.179546 58.213881 214.036827 51.527347 
C 197.894107 44.840814 180.591254 41.399062 163.1185 41.399062 
C 145.645746 41.399062 128.342893 44.840814 112.200173 51.527347 
C 96.057454 58.213881 81.388803 68.01516 69.0337 80.370263 
C 56.678597 92.725365 46.877318 107.394016 40.190785 123.536736 
C 33.504252 139.679455 30.0625 156.982309 30.0625 174.455062 
C 30.0625 191.927816 33.504252 209.23067 40.190785 225.373389 
C 46.877318 241.516109 56.678597 256.18476 69.0337 268.539862 
C 81.388803 280.894965 96.057454 290.696244 112.200173 297.382778 
C 128.342893 304.069311 145.645746 307.511062 163.1185 307.511062 
C 180.591254 307.511062 197.894107 304.069311 214.036827 297.382778 
C 230.179546 290.696244 244.848197 280.894965 257.2033 268.539862 
C 269.558403 256.18476 279.359682 241.516109 286.046215 225.373389 
C 292.732748 209.23067 296.1745 191.927816 296.1745 174.455062 
M 163.1185 174.455062 
C 163.1185 174.455062 163.1185 174.455062 163.1185 174.455062 
C 163.1185 174.455062 163.1185 174.455062 163.1185 174.455062 
C 163.1185 174.455062 163.1185 174.455062 163.1185 174.455062 
C 163.1185 174.455062 163.1185 174.455062 163.1185 174.455062 
C 163.1185 174.455062 163.1185 174.455062 163.1185 174.455062 
C 163.1185 174.455062 163.1185 174.455062 163.1185 174.455062 
C 163.1185 174.455062 163.1185 174.455062 163.1185 174.455062 
C 163.1185 174.455062 163.1185 174.455062 163.1185 174.455062 
C 163.1185 174.455062 163.1185 174.455062 163.1185 174.455062 
C 163.1185 174.455062 163.1185 174.455062 163.1185 174.455062 
C 163.1185 174.455062 163.1185 174.455062 163.1185 174.455062 
C 163.1185 174.455062 163.1185 174.455062 163.1185 174.455062 
C 163.1185 174.455062 163.1185 174.455062 163.1185 174.455062 
C 163.1185 174.455062 163.1185 174.455062 163.1185 174.455062 
C 163.1185 174.455062 163.1185 174.455062 163.1185 174.455062 
C 163.1185 174.455062 163.1185 174.455062 163.1185 174.455062 
z
" style="fill: #ffffff"/>
   </g>
   <g id="matplotlib.axis_1">
    <g id="xtick_1">
     <g id="line2d_1">
      <path d="M 163.1185 174.455062 
L 163.1185 41.399062 
" clip-path="url(#pf5a85c3090)" style="fill: none; stroke: #b0b0b0; stroke-width: 0.8; stroke-linecap: square"/>
     </g>
     <g id="text_1">
      <!-- 0° -->
      <g transform="translate(157.43725 30.158437) scale(0.1 -0.1)">
       <defs>
        <path id="DejaVuSans-30" d="M 2034 4250 
Q 1547 4250 1301 3770 
Q 1056 3291 1056 2328 
Q 1056 1369 1301 889 
Q 1547 409 2034 409 
Q 2525 409 2770 889 
Q 3016 1369 3016 2328 
Q 3016 3291 2770 3770 
Q 2525 4250 2034 4250 
z
M 2034 4750 
Q 2819 4750 3233 4129 
Q 3647 3509 3647 2328 
Q 3647 1150 3233 529 
Q 2819 -91 2034 -91 
Q 1250 -91 836 529 
Q 422 1150 422 2328 
Q 422 3509 836 4129 
Q 1250 4750 2034 4750 
z
" transform="scale(0.015625)"/>
        <path id="DejaVuSans-b0" d="M 1600 4347 
Q 1350 4347 1178 4173 
Q 1006 4000 1006 3750 
Q 1006 3503 1178 3333 
Q 1350 3163 1600 3163 
Q 1850 3163 2022 3333 
Q 2194 3503 2194 3750 
Q 2194 3997 2020 4172 
Q 1847 4347 1600 4347 
z
M 1600 4750 
Q 1800 4750 1984 4673 
Q 2169 4597 2303 4453 
Q 2447 4313 2519 4134 
Q 2591 3956 2591 3750 
Q 2591 3338 2302 3052 
Q 2013 2766 1594 2766 
Q 1172 2766 890 3047 
Q 609 3328 609 3750 
Q 609 4169 896 4459 
Q 1184 4750 1600 4750 
z
" transform="scale(0.015625)"/>
       </defs>
       <use xlink:href="#DejaVuSans-30"/>
       <use xlink:href="#DejaVuSans-b0" transform="translate(63.623047 0)"/>
      </g>
     </g>
    </g>
    <g id="xtick_2">
     <g id="line2d_2">
      <path d="M 163.1185 174.455062 
L 69.0337 80.370263 
" clip-path="url(#pf5a85c3090)" style="fill: none; stroke: #b0b0b0; stroke-width: 0.8; stroke-linecap: square"/>
     </g>
     <g id="text_2">
      <!-- 45° -->
      <g transform="translate(50.271705 73.230143) scale(0.1 -0.1)">
       <defs>
        <path id="DejaVuSans-34" d="M 2419 4116 
L 825 1625 
L 2419 1625 
L 2419 4116 
z
M 2253 4666 
L 3047 4666 
L 3047 1625 
L 3713 1625 
L 3713 1100 
L 3047 1100 
L 3047 0 
L 2419 0 
L 2419 1100 
L 313 1100 
L 313 1709 
L 2253 4666 
z
" transform="scale(0.015625)"/>
        <path id="DejaVuSans-35" d="M 691 4666 
L 3169 4666 
L 3169 4134 
L 1269 4134 
L 1269 2991 
Q 1406 3038 1543 3061 
Q 1681 3084 1819 3084 
Q 2600 3084 3056 2656 
Q 3513 2228 3513 1497 
Q 3513 744 3044 326 
Q 2575 -91 1722 -91 
Q 1428 -91 1123 -41 
Q 819 9 494 109 
L 494 744 
Q 775 591 1075 516 
Q 1375 441 1709 441 
Q 2250 441 2565 725 
Q 2881 1009 2881 1497 
Q 2881 1984 2565 2268 
Q 2250 2553 1709 2553 
Q 1456 2553 1204 2497 
Q 953 2441 691 2322 
L 691 4666 
z
" transform="scale(0.015625)"/>
       </defs>
       <use xlink:href="#DejaVuSans-34"/>
       <use xlink:href="#DejaVuSans-35" transform="translate(63.623047 0)"/>
       <use xlink:href="#DejaVuSans-b0" transform="translate(127.246094 0)"/>
      </g>
     </g>
    </g>
    <g id="xtick_3">
     <g id="line2d_3">
      <path d="M 163.1185 174.455062 
L 30.0625 174.455062 
" clip-path="url(#pf5a85c3090)" style="fill: none; stroke: #b0b0b0; stroke-width: 0.8; stroke-linecap: square"/>
     </g>
     <g id="text_3">
      <!-- 90° -->
      <g transform="translate(7.2 177.214437) scale(0.1 -0.1)">
       <defs>
        <path id="DejaVuSans-39" d="M 703 97 
L 703 672 
Q 941 559 1184 500 
Q 1428 441 1663 441 
Q 2288 441 2617 861 
Q 2947 1281 2994 2138 
Q 2813 1869 2534 1725 
Q 2256 1581 1919 1581 
Q 1219 1581 811 2004 
Q 403 2428 403 3163 
Q 403 3881 828 4315 
Q 1253 4750 1959 4750 
Q 2769 4750 3195 4129 
Q 3622 3509 3622 2328 
Q 3622 1225 3098 567 
Q 2575 -91 1691 -91 
Q 1453 -91 1209 -44 
Q 966 3 703 97 
z
M 1959 2075 
Q 2384 2075 2632 2365 
Q 2881 2656 2881 3163 
Q 2881 3666 2632 3958 
Q 2384 4250 1959 4250 
Q 1534 4250 1286 3958 
Q 1038 3666 1038 3163 
Q 1038 2656 1286 2365 
Q 1534 2075 1959 2075 
z
" transform="scale(0.015625)"/>
       </defs>
       <use xlink:href="#DejaVuSans-39"/>
       <use xlink:href="#DejaVuSans-30" transform="translate(63.623047 0)"/>
       <use xlink:href="#DejaVuSans-b0" transform="translate(127.246094 0)"/>
      </g>
     </g>
    </g>
    <g id="xtick_4">
     <g id="line2d_4">
      <path d="M 163.1185 174.455062 
L 69.0337 268.539862 
" clip-path="url(#pf5a85c3090)" style="fill: none; stroke: #b0b0b0; stroke-width: 0.8; stroke-linecap: square"/>
     </g>
     <g id="text_4">
      <!-- 135° -->
      <g transform="translate(47.090455 281.198732) scale(0.1 -0.1)">
       <defs>
        <path id="DejaVuSans-31" d="M 794 531 
L 1825 531 
L 1825 4091 
L 703 3866 
L 703 4441 
L 1819 4666 
L 2450 4666 
L 2450 531 
L 3481 531 
L 3481 0 
L 794 0 
L 794 531 
z
" transform="scale(0.015625)"/>
        <path id="DejaVuSans-33" d="M 2597 2516 
Q 3050 2419 3304 2112 
Q 3559 1806 3559 1356 
Q 3559 666 3084 287 
Q 2609 -91 1734 -91 
Q 1441 -91 1130 -33 
Q 819 25 488 141 
L 488 750 
Q 750 597 1062 519 
Q 1375 441 1716 441 
Q 2309 441 2620 675 
Q 2931 909 2931 1356 
Q 2931 1769 2642 2001 
Q 2353 2234 1838 2234 
L 1294 2234 
L 1294 2753 
L 1863 2753 
Q 2328 2753 2575 2939 
Q 2822 3125 2822 3475 
Q 2822 3834 2567 4026 
Q 2313 4219 1838 4219 
Q 1578 4219 1281 4162 
Q 984 4106 628 3988 
L 628 4550 
Q 988 4650 1302 4700 
Q 1616 4750 1894 4750 
Q 2613 4750 3031 4423 
Q 3450 4097 3450 3541 
Q 3450 3153 3228 2886 
Q 3006 2619 2597 2516 
z
" transform="scale(0.015625)"/>
       </defs>
       <use xlink:href="#DejaVuSans-31"/>
       <use xlink:href="#DejaVuSans-33" transform="translate(63.623047 0)"/>
       <use xlink:href="#DejaVuSans-35" transform="translate(127.246094 0)"/>
       <use xlink:href="#DejaVuSans-b0" transform="translate(190.869141 0)"/>
      </g>
     </g>
    </g>
    <g id="xtick_5">
     <g id="line2d_5">
      <path d="M 163.1185 174.455062 
L 163.1185 307.511062 
" clip-path="url(#pf5a85c3090)" style="fill: none; stroke: #b0b0b0; stroke-width: 0.8; stroke-linecap: square"/>
     </g>
     <g id="text_5">
      <!-- 180° -->
      <g transform="translate(151.07475 324.270437) scale(0.1 -0.1)">
       <defs>
        <path id="DejaVuSans-38" d="M 2034 2216 
Q 1584 2216 1326 1975 
Q 1069 1734 1069 1313 
Q 1069 891 1326 650 
Q 1584 409 2034 409 
Q 2484 409 2743 651 
Q 3003 894 3003 1313 
Q 3003 1734 2745 1975 
Q 2488 2216 2034 2216 
z
M 1403 2484 
Q 997 2584 770 2862 
Q 544 3141 544 3541 
Q 544 4100 942 4425 
Q 1341 4750 2034 4750 
Q 2731 4750 3128 4425 
Q 3525 4100 3525 3541 
Q 3525 3141 3298 2862 
Q 3072 2584 2669 2484 
Q 3125 2378 3379 2068 
Q 3634 1759 3634 1313 
Q 3634 634 3220 271 
Q 2806 -91 2034 -91 
Q 1263 -91 848 271 
Q 434 634 434 1313 
Q 434 1759 690 2068 
Q 947 2378 1403 2484 
z
M 1172 3481 
Q 1172 3119 1398 2916 
Q 1625 2713 2034 2713 
Q 2441 2713 2670 2916 
Q 2900 3119 2900 3481 
Q 2900 3844 2670 4047 
Q 2441 4250 2034 4250 
Q 1625 4250 1398 4047 
Q 1172 3844 1172 3481 
z
" transform="scale(0.015625)"/>
       </defs>
       <use xlink:href="#DejaVuSans-31"/>
       <use xlink:href="#DejaVuSans-38" transform="translate(63.623047 0)"/>
       <use xlink:href="#DejaVuSans-30" transform="translate(127.246094 0)"/>
       <use xlink:href="#DejaVuSans-b0" transform="translate(190.869141 0)"/>
      </g>
     </g>
    </g>
    <g id="xtick_6">
     <g id="line2d_6">
      <path d="M 163.1185 174.455062 
L 257.2033 268.539862 
" clip-path="url(#pf5a85c3090)" style="fill: none; stroke: #b0b0b0; stroke-width: 0.8; stroke-linecap: square"/>
     </g>
     <g id="text_6">
      <!-- 225° -->
      <g transform="translate(255.059045 281.198732) scale(0.1 -0.1)">
       <defs>
        <path id="DejaVuSans-32" d="M 1228 531 
L 3431 531 
L 3431 0 
L 469 0 
L 469 531 
Q 828 903 1448 1529 
Q 2069 2156 2228 2338 
Q 2531 2678 2651 2914 
Q 2772 3150 2772 3378 
Q 2772 3750 2511 3984 
Q 2250 4219 1831 4219 
Q 1534 4219 1204 4116 
Q 875 4013 500 3803 
L 500 4441 
Q 881 4594 1212 4672 
Q 1544 4750 1819 4750 
Q 2544 4750 2975 4387 
Q 3406 4025 3406 3419 
Q 3406 3131 3298 2873 
Q 3191 2616 2906 2266 
Q 2828 2175 2409 1742 
Q 1991 1309 1228 531 
z
" transform="scale(0.015625)"/>
       </defs>
       <use xlink:href="#DejaVuSans-32"/>
       <use xlink:href="#DejaVuSans-32" transform="translate(63.623047 0)"/>
       <use xlink:href="#DejaVuSans-35" transform="translate(127.246094 0)"/>
       <use xlink:href="#DejaVuSans-b0" transform="translate(190.869141 0)"/>
      </g>
     </g>
    </g>
    <g id="xtick_7">
     <g id="line2d_7">
      <path d="M 163.1185 174.455062 
L 296.1745 174.455062 
" clip-path="url(#pf5a85c3090)" style="fill: none; stroke: #b0b0b0; stroke-width: 0.8; stroke-linecap: square"/>
     </g>
     <g id="text_7">
      <!-- 270° -->
      <g transform="translate(298.13075 177.214437) scale(0.1 -0.1)">
       <defs>
        <path id="DejaVuSans-37" d="M 525 4666 
L 3525 4666 
L 3525 4397 
L 1831 0 
L 1172 0 
L 2766 4134 
L 525 4134 
L 525 4666 
z
" transform="scale(0.015625)"/>
       </defs>
       <use xlink:href="#DejaVuSans-32"/>
       <use xlink:href="#DejaVuSans-37" transform="translate(63.623047 0)"/>
       <use xlink:href="#DejaVuSans-30" transform="translate(127.246094 0)"/>
       <use xlink:href="#DejaVuSans-b0" transform="translate(190.869141 0)"/>
      </g>
     </g>
    </g>
    <g id="xtick_8">
     <g id="line2d_8">
      <path d="M 163.1185 174.455062 
L 257.2033 80.370263 
" clip-path="url(#pf5a85c3090)" style="fill: none; stroke: #b0b0b0; stroke-width: 0.8; stroke-linecap: square"/>
     </g>
     <g id="text_8">
      <!-- 315° -->
      <g transform="translate(255.059045 73.230143) scale(0.1 -0.1)">
       <use xlink:href="#DejaVuSans-33"/>
       <use xlink:href="#DejaVuSans-31" transform="translate(63.623047 0)"/>
       <use xlink:href="#DejaVuSans-35" transform="translate(127.246094 0)"/>
       <use xlink:href="#DejaVuSans-b0" transform="translate(190.869141 0)"/>
      </g>
     </g>
    </g>
   </g>
   <g id="matplotlib.axis_2">
    <g id="ytick_1">
     <g id="line2d_9">
      <path d="M 163.1185 154.355377 
C 160.479033 154.355377 157.865232 154.875294 155.426683 155.885374 
C 152.988134 156.895454 150.772261 158.376054 148.905876 160.242438 
C 147.039491 162.108823 145.558892 164.324697 144.548812 166.763246 
C 143.538731 169.201795 143.018814 171.815596 143.018814 174.455062 
C 143.018814 177.094529 143.538731 179.70833 144.548812 182.146879 
C 145.558892 184.585428 147.039491 186.801302 148.905876 188.667687 
C 150.772261 190.534071 152.988134 192.014671 155.426683 193.024751 
C 157.865232 194.034831 160.479033 194.554748 163.1185 194.554748 
C 165.757967 194.554748 168.371768 194.034831 170.810317 193.024751 
C 173.248866 192.014671 175.464739 190.534071 177.331124 188.667687 
C 179.197509 186.801302 180.678108 184.585428 181.688188 182.146879 
C 182.698269 179.70833 183.218186 177.094529 183.218186 174.455062 
C 183.218186 171.815596 182.698269 169.201795 181.688188 166.763246 
C 180.678108 164.324697 179.197509 162.108823 177.331124 160.242438 
C 175.464739 158.376054 173.248866 156.895454 170.810317 155.885374 
C 168.371768 154.875294 165.757967 154.355377 163.1185 154.355377 
" clip-path="url(#pf5a85c3090)" style="fill: none; stroke: #b0b0b0; stroke-width: 0.8; stroke-linecap: square"/>
     </g>
     <g id="text_9">
      <!-- 0.1 -->
      <g transform="translate(155.426683 153.805687) scale(0.1 -0.1)">
       <defs>
        <path id="DejaVuSans-2e" d="M 684 794 
L 1344 794 
L 1344 0 
L 684 0 
L 684 794 
z
" transform="scale(0.015625)"/>
       </defs>
       <use xlink:href="#DejaVuSans-30"/>
       <use xlink:href="#DejaVuSans-2e" transform="translate(63.623047 0)"/>
       <use xlink:href="#DejaVuSans-31" transform="translate(95.410156 0)"/>
      </g>
     </g>
    </g>
    <g id="ytick_2">
     <g id="line2d_10">
      <path d="M 163.1185 134.255691 
C 157.839567 134.255691 152.611965 135.295525 147.734866 137.315686 
C 142.857768 139.335846 138.426021 142.297045 134.693252 146.029814 
C 130.960482 149.762584 127.999283 154.194331 125.979123 159.071429 
C 123.958963 163.948527 122.919128 169.176129 122.919128 174.455062 
C 122.919128 179.733996 123.958963 184.961598 125.979123 189.838696 
C 127.999283 194.715794 130.960482 199.147541 134.693252 202.880311 
C 138.426021 206.61308 142.857768 209.574279 147.734866 211.594439 
C 152.611965 213.6146 157.839567 214.654434 163.1185 214.654434 
C 168.397433 214.654434 173.625035 213.6146 178.502134 211.594439 
C 183.379232 209.574279 187.810979 206.61308 191.543748 202.880311 
C 195.276518 199.147541 198.237717 194.715794 200.257877 189.838696 
C 202.278037 184.961598 203.317872 179.733996 203.317872 174.455062 
C 203.317872 169.176129 202.278037 163.948527 200.257877 159.071429 
C 198.237717 154.194331 195.276518 149.762584 191.543748 146.029814 
C 187.810979 142.297045 183.379232 139.335846 178.502134 137.315686 
C 173.625035 135.295525 168.397433 134.255691 163.1185 134.255691 
" clip-path="url(#pf5a85c3090)" style="fill: none; stroke: #b0b0b0; stroke-width: 0.8; stroke-linecap: square"/>
     </g>
     <g id="text_10">
      <!-- 0.2 -->
      <g transform="translate(147.734866 135.235998) scale(0.1 -0.1)">
       <use xlink:href="#DejaVuSans-30"/>
       <use xlink:href="#DejaVuSans-2e" transform="translate(63.623047 0)"/>
       <use xlink:href="#DejaVuSans-32" transform="translate(95.410156 0)"/>
      </g>
     </g>
    </g>
    <g id="ytick_3">
     <g id="line2d_11">
      <path d="M 163.1185 114.156005 
C 155.2001 114.156005 147.358697 115.715757 140.04305 118.745997 
C 132.727402 121.776238 126.079782 126.218036 120.480627 131.81719 
C 114.881473 137.416344 110.439675 144.063965 107.409435 151.379612 
C 104.379194 158.69526 102.819442 166.536663 102.819442 174.455062 
C 102.819442 182.373462 104.379194 190.214865 107.409435 197.530513 
C 110.439675 204.84616 114.881473 211.493781 120.480627 217.092935 
C 126.079782 222.692089 132.727402 227.133887 140.04305 230.164128 
C 147.358697 233.194368 155.2001 234.75412 163.1185 234.75412 
C 171.0369 234.75412 178.878303 233.194368 186.19395 230.164128 
C 193.509598 227.133887 200.157218 222.692089 205.756373 217.092935 
C 211.355527 211.493781 215.797325 204.84616 218.827565 197.530513 
C 221.857806 190.214865 223.417558 182.373462 223.417558 174.455062 
C 223.417558 166.536663 221.857806 158.69526 218.827565 151.379612 
C 215.797325 144.063965 211.355527 137.416344 205.756373 131.81719 
C 200.157218 126.218036 193.509598 121.776238 186.19395 118.745997 
C 178.878303 115.715757 171.0369 114.156005 163.1185 114.156005 
" clip-path="url(#pf5a85c3090)" style="fill: none; stroke: #b0b0b0; stroke-width: 0.8; stroke-linecap: square"/>
     </g>
     <g id="text_11">
      <!-- 0.3 -->
      <g transform="translate(140.04305 116.66631) scale(0.1 -0.1)">
       <use xlink:href="#DejaVuSans-30"/>
       <use xlink:href="#DejaVuSans-2e" transform="translate(63.623047 0)"/>
       <use xlink:href="#DejaVuSans-33" transform="translate(95.410156 0)"/>
      </g>
     </g>
    </g>
    <g id="ytick_4">
     <g id="line2d_12">
      <path d="M 163.1185 94.056319 
C 152.560634 94.056319 142.105429 96.135988 132.351233 100.176309 
C 122.597036 104.216629 113.733542 110.139027 106.268003 117.604566 
C 98.802464 125.070105 92.880067 133.933599 88.839746 143.687795 
C 84.799426 153.441992 82.719757 163.897196 82.719757 174.455062 
C 82.719757 185.012929 84.799426 195.468133 88.839746 205.22233 
C 92.880067 214.976526 98.802464 223.84002 106.268003 231.305559 
C 113.733542 238.771098 122.597036 244.693496 132.351233 248.733816 
C 142.105429 252.774137 152.560634 254.853806 163.1185 254.853806 
C 173.676366 254.853806 184.131571 252.774137 193.885767 248.733816 
C 203.639964 244.693496 212.503458 238.771098 219.968997 231.305559 
C 227.434536 223.84002 233.356933 214.976526 237.397254 205.22233 
C 241.437574 195.468133 243.517243 185.012929 243.517243 174.455062 
C 243.517243 163.897196 241.437574 153.441992 237.397254 143.687795 
C 233.356933 133.933599 227.434536 125.070105 219.968997 117.604566 
C 212.503458 110.139027 203.639964 104.216629 193.885767 100.176309 
C 184.131571 96.135988 173.676366 94.056319 163.1185 94.056319 
" clip-path="url(#pf5a85c3090)" style="fill: none; stroke: #b0b0b0; stroke-width: 0.8; stroke-linecap: square"/>
     </g>
     <g id="text_12">
      <!-- 0.4 -->
      <g transform="translate(132.351233 98.096621) scale(0.1 -0.1)">
       <use xlink:href="#DejaVuSans-30"/>
       <use xlink:href="#DejaVuSans-2e" transform="translate(63.623047 0)"/>
       <use xlink:href="#DejaVuSans-34" transform="translate(95.410156 0)"/>
      </g>
     </g>
    </g>
    <g id="ytick_5">
     <g id="line2d_13">
      <path d="M 163.1185 73.956633 
C 149.921167 73.956633 136.852162 76.55622 124.659416 81.606621 
C 112.46667 86.657021 101.387303 94.060018 92.055379 103.391942 
C 82.723456 112.723865 75.320459 123.803233 70.270058 135.995979 
C 65.219657 148.188724 62.620071 161.25773 62.620071 174.455062 
C 62.620071 187.652395 65.219657 200.721401 70.270058 212.914146 
C 75.320459 225.106892 82.723456 236.18626 92.055379 245.518183 
C 101.387303 254.850107 112.46667 262.253104 124.659416 267.303504 
C 136.852162 272.353905 149.921167 274.953492 163.1185 274.953492 
C 176.315833 274.953492 189.384838 272.353905 201.577584 267.303504 
C 213.77033 262.253104 224.849697 254.850107 234.181621 245.518183 
C 243.513544 236.18626 250.916541 225.106892 255.966942 212.914146 
C 261.017343 200.721401 263.616929 187.652395 263.616929 174.455062 
C 263.616929 161.25773 261.017343 148.188724 255.966942 135.995979 
C 250.916541 123.803233 243.513544 112.723865 234.181621 103.391942 
C 224.849697 94.060018 213.77033 86.657021 201.577584 81.606621 
C 189.384838 76.55622 176.315833 73.956633 163.1185 73.956633 
" clip-path="url(#pf5a85c3090)" style="fill: none; stroke: #b0b0b0; stroke-width: 0.8; stroke-linecap: square"/>
     </g>
     <g id="text_13">
      <!-- 0.5 -->
      <g transform="translate(124.659416 79.526933) scale(0.1 -0.1)">
       <use xlink:href="#DejaVuSans-30"/>
       <use xlink:href="#DejaVuSans-2e" transform="translate(63.623047 0)"/>
       <use xlink:href="#DejaVuSans-35" transform="translate(95.410156 0)"/>
      </g>
     </g>
    </g>
    <g id="ytick_6">
     <g id="line2d_14">
      <path d="M 163.1185 53.856947 
C 147.281701 53.856947 131.598894 56.976451 116.967599 63.036932 
C 102.336305 69.097413 89.041063 77.981009 77.842755 89.179317 
C 66.644447 100.377626 57.76085 113.672867 51.70037 128.304162 
C 45.639889 142.935457 42.520385 158.618263 42.520385 174.455062 
C 42.520385 190.291862 45.639889 205.974668 51.70037 220.605963 
C 57.76085 235.237258 66.644447 248.532499 77.842755 259.730808 
C 89.041063 270.929116 102.336305 279.812712 116.967599 285.873193 
C 131.598894 291.933674 147.281701 295.053178 163.1185 295.053178 
C 178.955299 295.053178 194.638106 291.933674 209.269401 285.873193 
C 223.900695 279.812712 237.195937 270.929116 248.394245 259.730808 
C 259.592553 248.532499 268.47615 235.237258 274.53663 220.605963 
C 280.597111 205.974668 283.716615 190.291862 283.716615 174.455062 
C 283.716615 158.618263 280.597111 142.935457 274.53663 128.304162 
C 268.47615 113.672867 259.592553 100.377626 248.394245 89.179317 
C 237.195937 77.981009 223.900695 69.097413 209.269401 63.036932 
C 194.638106 56.976451 178.955299 53.856947 163.1185 53.856947 
" clip-path="url(#pf5a85c3090)" style="fill: none; stroke: #b0b0b0; stroke-width: 0.8; stroke-linecap: square"/>
     </g>
     <g id="text_14">
      <!-- 0.6 -->
      <g transform="translate(116.967599 60.957245) scale(0.1 -0.1)">
       <defs>
        <path id="DejaVuSans-36" d="M 2113 2584 
Q 1688 2584 1439 2293 
Q 1191 2003 1191 1497 
Q 1191 994 1439 701 
Q 1688 409 2113 409 
Q 2538 409 2786 701 
Q 3034 994 3034 1497 
Q 3034 2003 2786 2293 
Q 2538 2584 2113 2584 
z
M 3366 4563 
L 3366 3988 
Q 3128 4100 2886 4159 
Q 2644 4219 2406 4219 
Q 1781 4219 1451 3797 
Q 1122 3375 1075 2522 
Q 1259 2794 1537 2939 
Q 1816 3084 2150 3084 
Q 2853 3084 3261 2657 
Q 3669 2231 3669 1497 
Q 3669 778 3244 343 
Q 2819 -91 2113 -91 
Q 1303 -91 875 529 
Q 447 1150 447 2328 
Q 447 3434 972 4092 
Q 1497 4750 2381 4750 
Q 2619 4750 2861 4703 
Q 3103 4656 3366 4563 
z
" transform="scale(0.015625)"/>
       </defs>
       <use xlink:href="#DejaVuSans-30"/>
       <use xlink:href="#DejaVuSans-2e" transform="translate(63.623047 0)"/>
       <use xlink:href="#DejaVuSans-36" transform="translate(95.410156 0)"/>
      </g>
     </g>
    </g>
   </g>
   <g id="line2d_15">
    <path d="M 163.1185 47.669635 
L 159.122051 47.922258 
L 155.165419 48.678178 
L 151.288059 49.93156 
L 147.528708 51.672741 
L 143.925034 53.888307 
L 140.513291 56.561219 
L 137.327996 59.670958 
L 134.401609 63.193706 
L 131.764242 67.102556 
L 129.443386 71.367752 
L 127.463656 75.956944 
L 125.846572 80.835477 
L 124.610359 85.966694 
L 123.769782 91.312256 
L 123.336005 96.832481 
L 123.316497 102.48669 
L 123.714949 108.233561 
L 124.531249 114.031495 
L 125.761471 119.838974 
L 127.397913 125.614924 
L 129.429158 131.319076 
L 131.840175 136.912312 
L 134.612453 142.357002 
L 137.724159 147.617335 
L 141.150335 152.659621 
L 144.863115 157.452583 
L 148.831978 161.967621 
L 153.02401 166.179059 
L 157.404205 170.064355 
L 161.935772 173.604289 
L 159.656538 172.127001 
L 154.93809 169.321401 
L 150.186013 166.897471 
L 145.440847 164.859891 
L 140.743177 163.20956 
L 136.133273 161.943605 
L 131.650731 161.055423 
L 127.334118 160.534761 
L 123.220632 160.367822 
L 119.345764 160.537413 
L 115.742987 161.023111 
L 112.443453 161.80147 
L 109.475716 162.846247 
L 106.86548 164.128661 
L 104.635364 165.617665 
L 102.804705 167.280245 
L 101.389381 169.08174 
L 100.401673 170.986167 
L 99.850154 172.956566 
L 99.73961 174.955351 
L 100.071001 176.944666 
L 100.841451 178.886747 
L 102.044273 180.744275 
L 103.669027 182.480735 
L 105.70162 184.060765 
L 108.124422 185.450484 
L 110.916434 186.617826 
L 114.053466 187.53284 
L 117.508359 188.16798 
L 121.251228 188.498371 
L 125.249722 188.502052 
L 129.469322 188.160192 
L 133.873643 187.457276 
L 138.42476 186.381263 
L 143.083547 184.923714 
L 147.810027 183.079883 
L 152.563727 180.848779 
L 157.304039 178.233193 
L 161.990585 175.239688 
L 159.653427 177.031566 
L 155.192849 180.746369 
L 150.90224 184.79735 
L 146.817541 189.163607 
L 142.972748 193.821004 
L 139.399614 198.742376 
L 136.127367 203.897753 
L 133.182445 209.254615 
L 130.588272 214.778176 
L 128.365041 220.431674 
L 126.529542 226.176695 
L 125.095013 231.973502 
L 124.071024 237.781378 
L 123.463395 243.558984 
L 123.274148 249.264716 
L 123.501489 254.857066 
L 124.139833 260.294991 
L 125.179851 265.538264 
L 126.608565 270.547834 
L 128.40946 275.286161 
L 130.562642 279.71755 
L 133.045016 283.808461 
L 135.830499 287.527808 
L 138.890257 290.847226 
L 142.192969 293.741327 
L 145.705108 296.187918 
L 149.391249 298.168198 
L 153.214387 299.666924 
L 157.136279 300.672545 
L 161.117783 301.177304 
L 165.119217 301.177304 
L 169.100721 300.672545 
L 173.022613 299.666924 
L 176.845751 298.168198 
L 180.531892 296.187918 
L 184.044031 293.741327 
L 187.346743 290.847226 
L 190.406501 287.527808 
L 193.191984 283.808461 
L 195.674358 279.71755 
L 197.82754 275.286161 
L 199.628435 270.547834 
L 201.057149 265.538264 
L 202.097167 260.294991 
L 202.735511 254.857066 
L 202.962852 249.264716 
L 202.773605 243.558984 
L 202.165976 237.781378 
L 201.141987 231.973502 
L 199.707458 226.176695 
L 197.871959 220.431674 
L 195.648728 214.778176 
L 193.054555 209.254615 
L 190.109633 203.897753 
L 186.837386 198.742376 
L 183.264252 193.821004 
L 179.419459 189.163607 
L 175.33476 184.79735 
L 171.044151 180.746369 
L 166.583573 177.031566 
L 164.246415 175.239688 
L 168.932961 178.233193 
L 173.673273 180.848779 
L 178.426973 183.079883 
L 183.153453 184.923714 
L 187.81224 186.381263 
L 192.363357 187.457276 
L 196.767678 188.160192 
L 200.987278 188.502052 
L 204.985772 188.498371 
L 208.728641 188.16798 
L 212.183534 187.53284 
L 215.320566 186.617826 
L 218.112578 185.450484 
L 220.53538 184.060765 
L 222.567973 182.480735 
L 224.192727 180.744275 
L 225.395549 178.886747 
L 226.165999 176.944666 
L 226.49739 174.955351 
L 226.386846 172.956566 
L 225.835327 170.986167 
L 224.847619 169.08174 
L 223.432295 167.280245 
L 221.601636 165.617665 
L 219.37152 164.128661 
L 216.761284 162.846247 
L 213.793547 161.80147 
L 210.494013 161.023111 
L 206.891236 160.537413 
L 203.016368 160.367822 
L 198.902882 160.534761 
L 194.586269 161.055423 
L 190.103727 161.943605 
L 185.493823 163.20956 
L 180.796153 164.859891 
L 176.050987 166.897471 
L 171.29891 169.321401 
L 164.301228 173.604289 
L 168.832795 170.064355 
L 173.21299 166.179059 
L 177.405022 161.967621 
L 181.373885 157.452583 
L 185.086665 152.659621 
L 188.512841 147.617335 
L 191.624547 142.357002 
L 194.396825 136.912312 
L 196.807842 131.319076 
L 198.839087 125.614924 
L 200.475529 119.838974 
L 201.705751 114.031495 
L 202.522051 108.233561 
L 202.920503 102.48669 
L 202.900995 96.832481 
L 202.467218 91.312256 
L 201.626641 85.966694 
L 200.390428 80.835477 
L 198.773344 75.956944 
L 196.793614 71.367752 
L 194.472758 67.102556 
L 191.835391 63.193706 
L 188.909004 59.670958 
L 185.723709 56.561219 
L 182.311966 53.888307 
L 178.708292 51.672741 
L 174.948941 49.93156 
L 171.071581 48.678178 
L 167.114949 47.922258 
L 163.1185 47.669635 
L 163.1185 47.669635 
" clip-path="url(#pf5a85c3090)" style="fill: none; stroke: #1f77b4; stroke-width: 1.5; stroke-linecap: square"/>
   </g>
   <g id="patch_3">
    <path d="M 163.1185 41.399062 
C 145.645746 41.399062 128.342893 44.840814 112.200173 51.527347 
C 96.057454 58.213881 81.388803 68.01516 69.0337 80.370263 
C 56.678597 92.725365 46.877318 107.394016 40.190785 123.536736 
C 33.504252 139.679455 30.0625 156.982309 30.0625 174.455062 
C 30.0625 191.927816 33.504252 209.23067 40.190785 225.373389 
C 46.877318 241.516109 56.678597 256.18476 69.0337 268.539862 
C 81.388803 280.894965 96.057454 290.696244 112.200173 297.382778 
C 128.342893 304.069311 145.645746 307.511062 163.1185 307.511062 
C 180.591254 307.511062 197.894107 304.069311 214.036827 297.382778 
C 230.179546 290.696244 244.848197 280.894965 257.2033 268.539862 
C 269.558403 256.18476 279.359682 241.516109 286.046215 225.373389 
C 292.732748 209.23067 296.1745 191.927816 296.1745 174.455062 
C 296.1745 156.982309 292.732748 139.679455 286.046215 123.536736 
C 279.359682 107.394016 269.558403 92.725365 257.2033 80.370263 
C 244.848197 68.01516 230.179546 58.213881 214.036827 51.527347 
C 197.894107 44.840814 180.591254 41.399062 163.1185 41.399062 
" style="fill: none; stroke: #000000; stroke-width: 0.8; stroke-linejoin: miter; stroke-linecap: square"/>
   </g>
   <g id="text_15">
    <!-- $d_{z^{2}}\;orbital\;/\;Y_{l}^{m}(\theta)$ -->
    <g transform="translate(111.8185 16.56) scale(0.12 -0.12)">
     <defs>
      <path id="DejaVuSans-Oblique-64" d="M 2675 525 
Q 2444 222 2128 65 
Q 1813 -91 1428 -91 
Q 903 -91 598 267 
Q 294 625 294 1247 
Q 294 1766 478 2236 
Q 663 2706 1013 3078 
Q 1244 3325 1534 3454 
Q 1825 3584 2144 3584 
Q 2481 3584 2739 3421 
Q 2997 3259 3138 2956 
L 3513 4863 
L 4091 4863 
L 3144 0 
L 2566 0 
L 2675 525 
z
M 891 1350 
Q 891 897 1095 644 
Q 1300 391 1663 391 
Q 1931 391 2161 520 
Q 2391 650 2566 903 
Q 2750 1166 2856 1509 
Q 2963 1853 2963 2188 
Q 2963 2622 2758 2865 
Q 2553 3109 2194 3109 
Q 1922 3109 1687 2981 
Q 1453 2853 1288 2613 
Q 1106 2353 998 2009 
Q 891 1666 891 1350 
z
" transform="scale(0.015625)"/>
      <path id="DejaVuSans-Oblique-7a" d="M 744 3500 
L 3475 3500 
L 3372 2975 
L 738 459 
L 2913 459 
L 2822 0 
L -19 0 
L 84 525 
L 2719 3041 
L 653 3041 
L 744 3500 
z
" transform="scale(0.015625)"/>
      <path id="DejaVuSans-Oblique-6f" d="M 1625 -91 
Q 1009 -91 651 289 
Q 294 669 294 1325 
Q 294 1706 417 2101 
Q 541 2497 738 2766 
Q 1047 3184 1428 3384 
Q 1809 3584 2291 3584 
Q 2888 3584 3255 3212 
Q 3622 2841 3622 2241 
Q 3622 1825 3500 1412 
Q 3378 1000 3181 728 
Q 2875 309 2494 109 
Q 2113 -91 1625 -91 
z
M 891 1344 
Q 891 869 1089 633 
Q 1288 397 1691 397 
Q 2269 397 2648 901 
Q 3028 1406 3028 2181 
Q 3028 2634 2825 2865 
Q 2622 3097 2228 3097 
Q 1903 3097 1650 2945 
Q 1397 2794 1197 2484 
Q 1050 2253 970 1956 
Q 891 1659 891 1344 
z
" transform="scale(0.015625)"/>
      <path id="DejaVuSans-Oblique-72" d="M 2853 2969 
Q 2766 3016 2653 3041 
Q 2541 3066 2413 3066 
Q 1953 3066 1609 2717 
Q 1266 2369 1153 1784 
L 800 0 
L 225 0 
L 909 3500 
L 1484 3500 
L 1375 2956 
Q 1603 3259 1920 3421 
Q 2238 3584 2597 3584 
Q 2691 3584 2781 3573 
Q 2872 3563 2963 3538 
L 2853 2969 
z
" transform="scale(0.015625)"/>
      <path id="DejaVuSans-Oblique-62" d="M 3169 2138 
Q 3169 2591 2961 2847 
Q 2753 3103 2388 3103 
Q 2122 3103 1889 2973 
Q 1656 2844 1484 2597 
Q 1303 2338 1198 1995 
Q 1094 1653 1094 1313 
Q 1094 881 1298 636 
Q 1503 391 1863 391 
Q 2134 391 2365 517 
Q 2597 644 2772 891 
Q 2950 1147 3059 1487 
Q 3169 1828 3169 2138 
z
M 1381 2969 
Q 1594 3256 1914 3420 
Q 2234 3584 2584 3584 
Q 3122 3584 3439 3221 
Q 3756 2859 3756 2241 
Q 3756 1734 3570 1259 
Q 3384 784 3041 416 
Q 2816 172 2522 40 
Q 2228 -91 1906 -91 
Q 1566 -91 1316 65 
Q 1066 222 909 531 
L 806 0 
L 231 0 
L 1178 4863 
L 1753 4863 
L 1381 2969 
z
" transform="scale(0.015625)"/>
      <path id="DejaVuSans-Oblique-69" d="M 1172 4863 
L 1747 4863 
L 1606 4134 
L 1031 4134 
L 1172 4863 
z
M 909 3500 
L 1484 3500 
L 800 0 
L 225 0 
L 909 3500 
z
" transform="scale(0.015625)"/>
      <path id="DejaVuSans-Oblique-74" d="M 2706 3500 
L 2619 3053 
L 1472 3053 
L 1100 1153 
Q 1081 1047 1072 975 
Q 1063 903 1063 863 
Q 1063 663 1183 572 
Q 1303 481 1569 481 
L 2150 481 
L 2053 0 
L 1503 0 
Q 991 0 739 200 
Q 488 400 488 806 
Q 488 878 497 964 
Q 506 1050 525 1153 
L 897 3053 
L 409 3053 
L 500 3500 
L 978 3500 
L 1172 4494 
L 1747 4494 
L 1556 3500 
L 2706 3500 
z
" transform="scale(0.015625)"/>
      <path id="DejaVuSans-Oblique-61" d="M 3438 1997 
L 3047 0 
L 2472 0 
L 2578 531 
Q 2325 219 2001 64 
Q 1678 -91 1281 -91 
Q 834 -91 548 182 
Q 263 456 263 884 
Q 263 1497 752 1853 
Q 1241 2209 2100 2209 
L 2900 2209 
L 2931 2363 
Q 2938 2388 2941 2417 
Q 2944 2447 2944 2509 
Q 2944 2788 2717 2942 
Q 2491 3097 2081 3097 
Q 1800 3097 1504 3025 
Q 1209 2953 897 2809 
L 997 3341 
Q 1322 3463 1633 3523 
Q 1944 3584 2234 3584 
Q 2853 3584 3176 3315 
Q 3500 3047 3500 2534 
Q 3500 2431 3484 2292 
Q 3469 2153 3438 1997 
z
M 2816 1759 
L 2241 1759 
Q 1534 1759 1195 1570 
Q 856 1381 856 984 
Q 856 709 1029 553 
Q 1203 397 1509 397 
Q 1978 397 2328 733 
Q 2678 1069 2791 1631 
L 2816 1759 
z
" transform="scale(0.015625)"/>
      <path id="DejaVuSans-Oblique-6c" d="M 1172 4863 
L 1747 4863 
L 800 0 
L 225 0 
L 1172 4863 
z
" transform="scale(0.015625)"/>
      <path id="DejaVuSans-2f" d="M 1625 4666 
L 2156 4666 
L 531 -594 
L 0 -594 
L 1625 4666 
z
" transform="scale(0.015625)"/>
      <path id="DejaVuSans-Oblique-59" d="M 403 4666 
L 1081 4666 
L 1953 2747 
L 3616 4666 
L 4325 4666 
L 2209 2222 
L 1778 0 
L 1147 0 
L 1575 2222 
L 403 4666 
z
" transform="scale(0.015625)"/>
      <path id="DejaVuSans-Oblique-6d" d="M 5747 2113 
L 5338 0 
L 4763 0 
L 5166 2094 
Q 5191 2228 5203 2325 
Q 5216 2422 5216 2491 
Q 5216 2772 5059 2928 
Q 4903 3084 4622 3084 
Q 4203 3084 3875 2770 
Q 3547 2456 3450 1953 
L 3066 0 
L 2491 0 
L 2900 2094 
Q 2925 2209 2937 2307 
Q 2950 2406 2950 2484 
Q 2950 2769 2794 2926 
Q 2638 3084 2363 3084 
Q 1938 3084 1609 2770 
Q 1281 2456 1184 1953 
L 800 0 
L 225 0 
L 909 3500 
L 1484 3500 
L 1375 2956 
Q 1609 3263 1923 3423 
Q 2238 3584 2597 3584 
Q 2978 3584 3223 3384 
Q 3469 3184 3519 2828 
Q 3781 3197 4126 3390 
Q 4472 3584 4856 3584 
Q 5306 3584 5551 3325 
Q 5797 3066 5797 2591 
Q 5797 2488 5784 2364 
Q 5772 2241 5747 2113 
z
" transform="scale(0.015625)"/>
      <path id="DejaVuSans-28" d="M 1984 4856 
Q 1566 4138 1362 3434 
Q 1159 2731 1159 2009 
Q 1159 1288 1364 580 
Q 1569 -128 1984 -844 
L 1484 -844 
Q 1016 -109 783 600 
Q 550 1309 550 2009 
Q 550 2706 781 3412 
Q 1013 4119 1484 4856 
L 1984 4856 
z
" transform="scale(0.015625)"/>
      <path id="DejaVuSans-Oblique-3b8" d="M 2913 2219 
L 925 2219 
Q 791 1284 928 888 
Q 1100 400 1566 400 
Q 2034 400 2391 891 
Q 2703 1322 2913 2219 
z
M 3009 2750 
Q 3094 3638 2984 3950 
Q 2813 4444 2353 4444 
Q 1875 4444 1525 3956 
Q 1250 3563 1034 2750 
L 3009 2750 
z
M 2444 4913 
Q 3194 4913 3494 4250 
Q 3794 3591 3566 2422 
Q 3341 1256 2781 594 
Q 2225 -72 1475 -72 
Q 722 -72 425 594 
Q 128 1256 353 2422 
Q 581 3591 1134 4250 
Q 1691 4913 2444 4913 
z
" transform="scale(0.015625)"/>
      <path id="DejaVuSans-29" d="M 513 4856 
L 1013 4856 
Q 1481 4119 1714 3412 
Q 1947 2706 1947 2009 
Q 1947 1309 1714 600 
Q 1481 -109 1013 -844 
L 513 -844 
Q 928 -128 1133 580 
Q 1338 1288 1338 2009 
Q 1338 2731 1133 3434 
Q 928 4138 513 4856 
z
" transform="scale(0.015625)"/>
     </defs>
     <use xlink:href="#DejaVuSans-Oblique-64" transform="translate(0 0.454688)"/>
     <use xlink:href="#DejaVuSans-Oblique-7a" transform="translate(63.476562 -15.951562) scale(0.7)"/>
     <use xlink:href="#DejaVuSans-32" transform="translate(103.346029 10.845313) scale(0.49)"/>
     <use xlink:href="#DejaVuSans-Oblique-6f" transform="translate(166.228895 0.454688)"/>
     <use xlink:href="#DejaVuSans-Oblique-72" transform="translate(227.410535 0.454688)"/>
     <use xlink:href="#DejaVuSans-Oblique-62" transform="translate(268.523817 0.454688)"/>
     <use xlink:href="#DejaVuSans-Oblique-69" transform="translate(332.000379 0.454688)"/>
     <use xlink:href="#DejaVuSans-Oblique-74" transform="translate(359.783582 0.454688)"/>
     <use xlink:href="#DejaVuSans-Oblique-61" transform="translate(398.992567 0.454688)"/>
     <use xlink:href="#DejaVuSans-Oblique-6c" transform="translate(460.271864 0.454688)"/>
     <use xlink:href="#DejaVuSans-2f" transform="translate(515.114202 0.454688)"/>
     <use xlink:href="#DejaVuSans-Oblique-59" transform="translate(575.864744 0.454688)"/>
     <use xlink:href="#DejaVuSans-Oblique-6d" transform="translate(643.9655 38.8) scale(0.7)"/>
     <use xlink:href="#DejaVuSans-Oblique-6c" transform="translate(636.948729 -26.889062) scale(0.7)"/>
     <use xlink:href="#DejaVuSans-28" transform="translate(714.888351 0.454688)"/>
     <use xlink:href="#DejaVuSans-Oblique-3b8" transform="translate(753.902023 0.454688)"/>
     <use xlink:href="#DejaVuSans-29" transform="translate(815.083664 0.454688)"/>
    </g>
   </g>
  </g>
 </g>
 <defs>
  <clipPath id="pf5a85c3090">
   <path d="M 296.1745 174.455062 
C 296.1745 156.982309 292.732748 139.679455 286.046215 123.536736 
C 279.359682 107.394016 269.558403 92.725365 257.2033 80.370263 
C 244.848197 68.01516 230.179546 58.213881 214.036827 51.527347 
C 197.894107 44.840814 180.591254 41.399062 163.1185 41.399062 
C 145.645746 41.399062 128.342893 44.840814 112.200173 51.527347 
C 96.057454 58.213881 81.388803 68.01516 69.0337 80.370263 
C 56.678597 92.725365 46.877318 107.394016 40.190785 123.536736 
C 33.504252 139.679455 30.0625 156.982309 30.0625 174.455062 
C 30.0625 191.927816 33.504252 209.23067 40.190785 225.373389 
C 46.877318 241.516109 56.678597 256.18476 69.0337 268.539862 
C 81.388803 280.894965 96.057454 290.696244 112.200173 297.382778 
C 128.342893 304.069311 145.645746 307.511062 163.1185 307.511062 
C 180.591254 307.511062 197.894107 304.069311 214.036827 297.382778 
C 230.179546 290.696244 244.848197 280.894965 257.2033 268.539862 
C 269.558403 256.18476 279.359682 241.516109 286.046215 225.373389 
C 292.732748 209.23067 296.1745 191.927816 296.1745 174.455062 
M 163.1185 174.455062 
C 163.1185 174.455062 163.1185 174.455062 163.1185 174.455062 
C 163.1185 174.455062 163.1185 174.455062 163.1185 174.455062 
C 163.1185 174.455062 163.1185 174.455062 163.1185 174.455062 
C 163.1185 174.455062 163.1185 174.455062 163.1185 174.455062 
C 163.1185 174.455062 163.1185 174.455062 163.1185 174.455062 
C 163.1185 174.455062 163.1185 174.455062 163.1185 174.455062 
C 163.1185 174.455062 163.1185 174.455062 163.1185 174.455062 
C 163.1185 174.455062 163.1185 174.455062 163.1185 174.455062 
C 163.1185 174.455062 163.1185 174.455062 163.1185 174.455062 
C 163.1185 174.455062 163.1185 174.455062 163.1185 174.455062 
C 163.1185 174.455062 163.1185 174.455062 163.1185 174.455062 
C 163.1185 174.455062 163.1185 174.455062 163.1185 174.455062 
C 163.1185 174.455062 163.1185 174.455062 163.1185 174.455062 
C 163.1185 174.455062 163.1185 174.455062 163.1185 174.455062 
C 163.1185 174.455062 163.1185 174.455062 163.1185 174.455062 
C 163.1185 174.455062 163.1185 174.455062 163.1185 174.455062 
z
"/>
  </clipPath>
 </defs>
</svg>
