<?xml version="1.0" encoding="utf-8" standalone="no"?>
<!DOCTYPE svg PUBLIC "-//W3C//DTD SVG 1.1//EN"
  "http://www.w3.org/Graphics/SVG/1.1/DTD/svg11.dtd">
<svg xmlns:xlink="http://www.w3.org/1999/xlink" width="322.316687pt" height="326.010125pt" viewBox="0 0 322.316687 326.010125" xmlns="http://www.w3.org/2000/svg" version="1.1">
 <metadata>
  <rdf:RDF xmlns:dc="http://purl.org/dc/elements/1.1/" xmlns:cc="http://creativecommons.org/ns#" xmlns:rdf="http://www.w3.org/1999/02/22-rdf-syntax-ns#">
   <cc:Work>
    <dc:type rdf:resource="http://purl.org/dc/dcmitype/StillImage"/>
    <dc:date>2026-01-05T19:15:05.497532</dc:date>
    <dc:format>image/svg+xml</dc:format>
    <dc:creator>
     <cc:Agent>
      <dc:title>Matplotlib v3.10.8, https://matplotlib.org/</dc:title>
     </cc:Agent>
    </dc:creator>
   </cc:Work>
  </rdf:RDF>
 </metadata>
 <defs>
  <style type="text/css">*{stroke-linejoin: round; stroke-linecap: butt}</style>
 </defs>
 <g id="figure_1">
  <g id="patch_1">
   <path d="M -0 326.010125 
L 322.316687 326.010125 
L 322.316687 0 
L -0 0 
z
" style="fill: #ffffff"/>
  </g>
  <g id="axes_1">
   <g id="patch_2">
    <path d="M 49.004687 288.432 
L 315.116687 288.432 
L 315.116687 22.32 
L 49.004687 22.32 
z
" style="fill: #ffffff"/>
   </g>
   <g id="matplotlib.axis_1">
    <g id="xtick_1">
     <g id="line2d_1">
      <defs>
       <path id="md3e2ca66dc" d="M 0 0 
L 0 3.5 
" style="stroke: #000000; stroke-width: 0.8"/>
      </defs>
      <g>
       <use xlink:href="#md3e2ca66dc" x="71.183479" y="288.432" style="stroke: #000000; stroke-width: 0.8"/>
      </g>
     </g>
     <g id="text_1">
      <!-- −10 -->
      <g transform="translate(60.631135 303.030437) scale(0.1 -0.1)">
       <defs>
        <path id="DejaVuSans-2212" d="M 678 2272 
L 4684 2272 
L 4684 1741 
L 678 1741 
L 678 2272 
z
" transform="scale(0.015625)"/>
        <path id="DejaVuSans-31" d="M 794 531 
L 1825 531 
L 1825 4091 
L 703 3866 
L 703 4441 
L 1819 4666 
L 2450 4666 
L 2450 531 
L 3481 531 
L 3481 0 
L 794 0 
L 794 531 
z
" transform="scale(0.015625)"/>
        <path id="DejaVuSans-30" d="M 2034 4250 
Q 1547 4250 1301 3770 
Q 1056 3291 1056 2328 
Q 1056 1369 1301 889 
Q 1547 409 2034 409 
Q 2525 409 2770 889 
Q 3016 1369 3016 2328 
Q 3016 3291 2770 3770 
Q 2525 4250 2034 4250 
z
M 2034 4750 
Q 2819 4750 3233 4129 
Q 3647 3509 3647 2328 
Q 3647 1150 3233 529 
Q 2819 -91 2034 -91 
Q 1250 -91 836 529 
Q 422 1150 422 2328 
Q 422 3509 836 4129 
Q 1250 4750 2034 4750 
z
" transform="scale(0.015625)"/>
       </defs>
       <use xlink:href="#DejaVuSans-2212"/>
       <use xlink:href="#DejaVuSans-31" transform="translate(83.789062 0)"/>
       <use xlink:href="#DejaVuSans-30" transform="translate(147.412109 0)"/>
      </g>
     </g>
    </g>
    <g id="xtick_2">
     <g id="line2d_2">
      <g>
       <use xlink:href="#md3e2ca66dc" x="126.630458" y="288.432" style="stroke: #000000; stroke-width: 0.8"/>
      </g>
     </g>
     <g id="text_2">
      <!-- −5 -->
      <g transform="translate(119.259365 303.030437) scale(0.1 -0.1)">
       <defs>
        <path id="DejaVuSans-35" d="M 691 4666 
L 3169 4666 
L 3169 4134 
L 1269 4134 
L 1269 2991 
Q 1406 3038 1543 3061 
Q 1681 3084 1819 3084 
Q 2600 3084 3056 2656 
Q 3513 2228 3513 1497 
Q 3513 744 3044 326 
Q 2575 -91 1722 -91 
Q 1428 -91 1123 -41 
Q 819 9 494 109 
L 494 744 
Q 775 591 1075 516 
Q 1375 441 1709 441 
Q 2250 441 2565 725 
Q 2881 1009 2881 1497 
Q 2881 1984 2565 2268 
Q 2250 2553 1709 2553 
Q 1456 2553 1204 2497 
Q 953 2441 691 2322 
L 691 4666 
z
" transform="scale(0.015625)"/>
       </defs>
       <use xlink:href="#DejaVuSans-2212"/>
       <use xlink:href="#DejaVuSans-35" transform="translate(83.789062 0)"/>
      </g>
     </g>
    </g>
    <g id="xtick_3">
     <g id="line2d_3">
      <g>
       <use xlink:href="#md3e2ca66dc" x="182.077438" y="288.432" style="stroke: #000000; stroke-width: 0.8"/>
      </g>
     </g>
     <g id="text_3">
      <!-- 0 -->
      <g transform="translate(178.896188 303.030437) scale(0.1 -0.1)">
       <use xlink:href="#DejaVuSans-30"/>
      </g>
     </g>
    </g>
    <g id="xtick_4">
     <g id="line2d_4">
      <g>
       <use xlink:href="#md3e2ca66dc" x="237.524417" y="288.432" style="stroke: #000000; stroke-width: 0.8"/>
      </g>
     </g>
     <g id="text_4">
      <!-- 5 -->
      <g transform="translate(234.343167 303.030437) scale(0.1 -0.1)">
       <use xlink:href="#DejaVuSans-35"/>
      </g>
     </g>
    </g>
    <g id="xtick_5">
     <g id="line2d_5">
      <g>
       <use xlink:href="#md3e2ca66dc" x="292.971396" y="288.432" style="stroke: #000000; stroke-width: 0.8"/>
      </g>
     </g>
     <g id="text_5">
      <!-- 10 -->
      <g transform="translate(286.608896 303.030437) scale(0.1 -0.1)">
       <use xlink:href="#DejaVuSans-31"/>
       <use xlink:href="#DejaVuSans-30" transform="translate(63.623047 0)"/>
      </g>
     </g>
    </g>
    <g id="text_6">
     <!-- $x$-position [a.u.] -->
     <g transform="translate(142.560687 316.710125) scale(0.1 -0.1)">
      <defs>
       <path id="DejaVuSans-Oblique-78" d="M 3841 3500 
L 2234 1784 
L 3219 0 
L 2559 0 
L 1819 1388 
L 531 0 
L -166 0 
L 1556 1844 
L 641 3500 
L 1300 3500 
L 1972 2234 
L 3144 3500 
L 3841 3500 
z
" transform="scale(0.015625)"/>
       <path id="DejaVuSans-2d" d="M 313 2009 
L 1997 2009 
L 1997 1497 
L 313 1497 
L 313 2009 
z
" transform="scale(0.015625)"/>
       <path id="DejaVuSans-70" d="M 1159 525 
L 1159 -1331 
L 581 -1331 
L 581 3500 
L 1159 3500 
L 1159 2969 
Q 1341 3281 1617 3432 
Q 1894 3584 2278 3584 
Q 2916 3584 3314 3078 
Q 3713 2572 3713 1747 
Q 3713 922 3314 415 
Q 2916 -91 2278 -91 
Q 1894 -91 1617 61 
Q 1341 213 1159 525 
z
M 3116 1747 
Q 3116 2381 2855 2742 
Q 2594 3103 2138 3103 
Q 1681 3103 1420 2742 
Q 1159 2381 1159 1747 
Q 1159 1113 1420 752 
Q 1681 391 2138 391 
Q 2594 391 2855 752 
Q 3116 1113 3116 1747 
z
" transform="scale(0.015625)"/>
       <path id="DejaVuSans-6f" d="M 1959 3097 
Q 1497 3097 1228 2736 
Q 959 2375 959 1747 
Q 959 1119 1226 758 
Q 1494 397 1959 397 
Q 2419 397 2687 759 
Q 2956 1122 2956 1747 
Q 2956 2369 2687 2733 
Q 2419 3097 1959 3097 
z
M 1959 3584 
Q 2709 3584 3137 3096 
Q 3566 2609 3566 1747 
Q 3566 888 3137 398 
Q 2709 -91 1959 -91 
Q 1206 -91 779 398 
Q 353 888 353 1747 
Q 353 2609 779 3096 
Q 1206 3584 1959 3584 
z
" transform="scale(0.015625)"/>
       <path id="DejaVuSans-73" d="M 2834 3397 
L 2834 2853 
Q 2591 2978 2328 3040 
Q 2066 3103 1784 3103 
Q 1356 3103 1142 2972 
Q 928 2841 928 2578 
Q 928 2378 1081 2264 
Q 1234 2150 1697 2047 
L 1894 2003 
Q 2506 1872 2764 1633 
Q 3022 1394 3022 966 
Q 3022 478 2636 193 
Q 2250 -91 1575 -91 
Q 1294 -91 989 -36 
Q 684 19 347 128 
L 347 722 
Q 666 556 975 473 
Q 1284 391 1588 391 
Q 1994 391 2212 530 
Q 2431 669 2431 922 
Q 2431 1156 2273 1281 
Q 2116 1406 1581 1522 
L 1381 1569 
Q 847 1681 609 1914 
Q 372 2147 372 2553 
Q 372 3047 722 3315 
Q 1072 3584 1716 3584 
Q 2034 3584 2315 3537 
Q 2597 3491 2834 3397 
z
" transform="scale(0.015625)"/>
       <path id="DejaVuSans-69" d="M 603 3500 
L 1178 3500 
L 1178 0 
L 603 0 
L 603 3500 
z
M 603 4863 
L 1178 4863 
L 1178 4134 
L 603 4134 
L 603 4863 
z
" transform="scale(0.015625)"/>
       <path id="DejaVuSans-74" d="M 1172 4494 
L 1172 3500 
L 2356 3500 
L 2356 3053 
L 1172 3053 
L 1172 1153 
Q 1172 725 1289 603 
Q 1406 481 1766 481 
L 2356 481 
L 2356 0 
L 1766 0 
Q 1100 0 847 248 
Q 594 497 594 1153 
L 594 3053 
L 172 3053 
L 172 3500 
L 594 3500 
L 594 4494 
L 1172 4494 
z
" transform="scale(0.015625)"/>
       <path id="DejaVuSans-6e" d="M 3513 2113 
L 3513 0 
L 2938 0 
L 2938 2094 
Q 2938 2591 2744 2837 
Q 2550 3084 2163 3084 
Q 1697 3084 1428 2787 
Q 1159 2491 1159 1978 
L 1159 0 
L 581 0 
L 581 3500 
L 1159 3500 
L 1159 2956 
Q 1366 3272 1645 3428 
Q 1925 3584 2291 3584 
Q 2894 3584 3203 3211 
Q 3513 2838 3513 2113 
z
" transform="scale(0.015625)"/>
       <path id="DejaVuSans-20" transform="scale(0.015625)"/>
       <path id="DejaVuSans-5b" d="M 550 4863 
L 1875 4863 
L 1875 4416 
L 1125 4416 
L 1125 -397 
L 1875 -397 
L 1875 -844 
L 550 -844 
L 550 4863 
z
" transform="scale(0.015625)"/>
       <path id="DejaVuSans-61" d="M 2194 1759 
Q 1497 1759 1228 1600 
Q 959 1441 959 1056 
Q 959 750 1161 570 
Q 1363 391 1709 391 
Q 2188 391 2477 730 
Q 2766 1069 2766 1631 
L 2766 1759 
L 2194 1759 
z
M 3341 1997 
L 3341 0 
L 2766 0 
L 2766 531 
Q 2569 213 2275 61 
Q 1981 -91 1556 -91 
Q 1019 -91 701 211 
Q 384 513 384 1019 
Q 384 1609 779 1909 
Q 1175 2209 1959 2209 
L 2766 2209 
L 2766 2266 
Q 2766 2663 2505 2880 
Q 2244 3097 1772 3097 
Q 1472 3097 1187 3025 
Q 903 2953 641 2809 
L 641 3341 
Q 956 3463 1253 3523 
Q 1550 3584 1831 3584 
Q 2591 3584 2966 3190 
Q 3341 2797 3341 1997 
z
" transform="scale(0.015625)"/>
       <path id="DejaVuSans-2e" d="M 684 794 
L 1344 794 
L 1344 0 
L 684 0 
L 684 794 
z
" transform="scale(0.015625)"/>
       <path id="DejaVuSans-75" d="M 544 1381 
L 544 3500 
L 1119 3500 
L 1119 1403 
Q 1119 906 1312 657 
Q 1506 409 1894 409 
Q 2359 409 2629 706 
Q 2900 1003 2900 1516 
L 2900 3500 
L 3475 3500 
L 3475 0 
L 2900 0 
L 2900 538 
Q 2691 219 2414 64 
Q 2138 -91 1772 -91 
Q 1169 -91 856 284 
Q 544 659 544 1381 
z
M 1991 3584 
L 1991 3584 
z
" transform="scale(0.015625)"/>
       <path id="DejaVuSans-5d" d="M 1947 4863 
L 1947 -844 
L 622 -844 
L 622 -397 
L 1369 -397 
L 1369 4416 
L 622 4416 
L 622 4863 
L 1947 4863 
z
" transform="scale(0.015625)"/>
      </defs>
      <use xlink:href="#DejaVuSans-Oblique-78" transform="translate(0 0.015625)"/>
      <use xlink:href="#DejaVuSans-2d" transform="translate(59.179688 0.015625)"/>
      <use xlink:href="#DejaVuSans-70" transform="translate(95.263672 0.015625)"/>
      <use xlink:href="#DejaVuSans-6f" transform="translate(158.740234 0.015625)"/>
      <use xlink:href="#DejaVuSans-73" transform="translate(219.921875 0.015625)"/>
      <use xlink:href="#DejaVuSans-69" transform="translate(272.021484 0.015625)"/>
      <use xlink:href="#DejaVuSans-74" transform="translate(299.804688 0.015625)"/>
      <use xlink:href="#DejaVuSans-69" transform="translate(339.013672 0.015625)"/>
      <use xlink:href="#DejaVuSans-6f" transform="translate(366.796875 0.015625)"/>
      <use xlink:href="#DejaVuSans-6e" transform="translate(427.978516 0.015625)"/>
      <use xlink:href="#DejaVuSans-20" transform="translate(491.357422 0.015625)"/>
      <use xlink:href="#DejaVuSans-5b" transform="translate(523.144531 0.015625)"/>
      <use xlink:href="#DejaVuSans-61" transform="translate(562.158203 0.015625)"/>
      <use xlink:href="#DejaVuSans-2e" transform="translate(623.4375 0.015625)"/>
      <use xlink:href="#DejaVuSans-75" transform="translate(655.224609 0.015625)"/>
      <use xlink:href="#DejaVuSans-2e" transform="translate(718.603516 0.015625)"/>
      <use xlink:href="#DejaVuSans-5d" transform="translate(750.390625 0.015625)"/>
     </g>
    </g>
   </g>
   <g id="matplotlib.axis_2">
    <g id="ytick_1">
     <g id="line2d_6">
      <defs>
       <path id="mb07bd1e90e" d="M 0 0 
L -3.5 0 
" style="stroke: #000000; stroke-width: 0.8"/>
      </defs>
      <g>
       <use xlink:href="#mb07bd1e90e" x="49.004687" y="266.269958" style="stroke: #000000; stroke-width: 0.8"/>
      </g>
     </g>
     <g id="text_7">
      <!-- −10 -->
      <g transform="translate(20.9 270.069177) scale(0.1 -0.1)">
       <use xlink:href="#DejaVuSans-2212"/>
       <use xlink:href="#DejaVuSans-31" transform="translate(83.789062 0)"/>
       <use xlink:href="#DejaVuSans-30" transform="translate(147.412109 0)"/>
      </g>
     </g>
    </g>
    <g id="ytick_2">
     <g id="line2d_7">
      <g>
       <use xlink:href="#mb07bd1e90e" x="49.004687" y="210.822979" style="stroke: #000000; stroke-width: 0.8"/>
      </g>
     </g>
     <g id="text_8">
      <!-- −5 -->
      <g transform="translate(27.2625 214.622198) scale(0.1 -0.1)">
       <use xlink:href="#DejaVuSans-2212"/>
       <use xlink:href="#DejaVuSans-35" transform="translate(83.789062 0)"/>
      </g>
     </g>
    </g>
    <g id="ytick_3">
     <g id="line2d_8">
      <g>
       <use xlink:href="#mb07bd1e90e" x="49.004687" y="155.376" style="stroke: #000000; stroke-width: 0.8"/>
      </g>
     </g>
     <g id="text_9">
      <!-- 0 -->
      <g transform="translate(35.642187 159.175219) scale(0.1 -0.1)">
       <use xlink:href="#DejaVuSans-30"/>
      </g>
     </g>
    </g>
    <g id="ytick_4">
     <g id="line2d_9">
      <g>
       <use xlink:href="#mb07bd1e90e" x="49.004687" y="99.929021" style="stroke: #000000; stroke-width: 0.8"/>
      </g>
     </g>
     <g id="text_10">
      <!-- 5 -->
      <g transform="translate(35.642187 103.72824) scale(0.1 -0.1)">
       <use xlink:href="#DejaVuSans-35"/>
      </g>
     </g>
    </g>
    <g id="ytick_5">
     <g id="line2d_10">
      <g>
       <use xlink:href="#mb07bd1e90e" x="49.004687" y="44.482042" style="stroke: #000000; stroke-width: 0.8"/>
      </g>
     </g>
     <g id="text_11">
      <!-- 10 -->
      <g transform="translate(29.279687 48.28126) scale(0.1 -0.1)">
       <use xlink:href="#DejaVuSans-31"/>
       <use xlink:href="#DejaVuSans-30" transform="translate(63.623047 0)"/>
      </g>
     </g>
    </g>
    <g id="text_12">
     <!-- $y$-position [a.u.] -->
     <g transform="translate(14.8 194.876) rotate(-90) scale(0.1 -0.1)">
      <defs>
       <path id="DejaVuSans-Oblique-79" d="M 1588 -325 
Q 1188 -997 936 -1164 
Q 684 -1331 294 -1331 
L -159 -1331 
L -63 -850 
L 269 -850 
Q 509 -850 678 -719 
Q 847 -588 1056 -206 
L 1234 128 
L 459 3500 
L 1069 3500 
L 1650 819 
L 3256 3500 
L 3859 3500 
L 1588 -325 
z
" transform="scale(0.015625)"/>
      </defs>
      <use xlink:href="#DejaVuSans-Oblique-79" transform="translate(0 0.015625)"/>
      <use xlink:href="#DejaVuSans-2d" transform="translate(59.179688 0.015625)"/>
      <use xlink:href="#DejaVuSans-70" transform="translate(95.263672 0.015625)"/>
      <use xlink:href="#DejaVuSans-6f" transform="translate(158.740234 0.015625)"/>
      <use xlink:href="#DejaVuSans-73" transform="translate(219.921875 0.015625)"/>
      <use xlink:href="#DejaVuSans-69" transform="translate(272.021484 0.015625)"/>
      <use xlink:href="#DejaVuSans-74" transform="translate(299.804688 0.015625)"/>
      <use xlink:href="#DejaVuSans-69" transform="translate(339.013672 0.015625)"/>
      <use xlink:href="#DejaVuSans-6f" transform="translate(366.796875 0.015625)"/>
      <use xlink:href="#DejaVuSans-6e" transform="translate(427.978516 0.015625)"/>
      <use xlink:href="#DejaVuSans-20" transform="translate(491.357422 0.015625)"/>
      <use xlink:href="#DejaVuSans-5b" transform="translate(523.144531 0.015625)"/>
      <use xlink:href="#DejaVuSans-61" transform="translate(562.158203 0.015625)"/>
      <use xlink:href="#DejaVuSans-2e" transform="translate(623.4375 0.015625)"/>
      <use xlink:href="#DejaVuSans-75" transform="translate(655.224609 0.015625)"/>
      <use xlink:href="#DejaVuSans-2e" transform="translate(718.603516 0.015625)"/>
      <use xlink:href="#DejaVuSans-5d" transform="translate(750.390625 0.015625)"/>
     </g>
    </g>
   </g>
   <g id="QuadContourSet_1">
    <path d="M 182.077438 155.376 
L 182.077438 155.376 
L 182.077438 155.376 
L 182.077438 155.376 
L 182.077438 155.376 
L 182.077438 155.376 
L 182.077438 155.376 
L 182.077438 155.376 
L 182.077438 155.376 
L 182.077438 155.376 
L 182.077438 155.376 
L 182.077438 155.376 
L 182.077438 155.376 
L 182.077438 155.376 
L 182.077438 155.376 
L 182.077438 155.376 
L 182.077438 155.376 
L 182.077438 155.376 
L 182.077438 155.376 
L 182.077438 155.376 
L 182.077438 155.376 
L 182.077438 155.376 
L 182.077438 155.376 
L 182.077438 155.376 
L 182.077438 155.376 
L 182.077438 155.376 
L 182.077438 155.376 
L 182.077438 155.376 
L 182.077438 155.376 
L 182.077438 155.376 
L 182.077438 155.376 
L 182.077438 155.376 
L 182.077438 155.376 
L 182.077438 155.376 
L 182.077438 155.376 
L 182.077438 155.376 
L 182.077438 155.376 
L 182.077438 155.376 
L 182.077438 155.376 
L 182.077438 155.376 
L 182.077438 155.376 
L 182.077438 155.376 
L 182.077438 155.376 
L 182.077438 155.376 
L 182.077438 155.376 
L 182.077438 155.376 
L 182.077438 155.376 
L 182.077438 155.376 
L 182.077438 155.376 
L 182.077438 155.376 
L 182.077438 155.376 
L 182.077438 155.376 
L 182.077438 155.376 
L 182.077438 155.376 
L 182.077438 155.376 
L 182.077438 155.376 
L 182.077438 155.376 
L 182.077438 155.376 
L 182.077438 155.376 
L 182.077438 155.376 
L 182.077438 155.376 
L 182.077438 155.376 
L 182.077438 155.376 
L 182.077438 155.376 
L 182.077438 155.376 
L 182.077438 155.376 
L 182.077438 155.376 
L 182.077438 155.376 
L 182.077438 155.376 
L 182.077438 155.376 
L 182.077438 155.376 
L 182.077438 155.376 
L 182.077438 155.376 
L 182.077438 155.376 
L 182.077438 155.376 
L 182.077438 155.376 
L 182.077438 155.376 
L 182.077438 155.376 
L 182.077438 155.376 
L 182.077438 155.376 
L 182.077438 155.376 
L 182.077438 155.376 
L 182.077438 155.376 
L 182.077438 155.376 
L 182.077438 155.376 
L 182.077438 155.376 
L 182.077438 155.376 
L 182.077438 155.376 
L 182.077438 155.376 
L 182.077438 155.376 
L 182.077438 155.376 
L 182.077438 155.376 
L 182.077438 155.376 
L 182.077438 155.376 
L 182.077438 155.376 
L 182.077438 155.376 
L 182.077438 155.376 
L 182.077438 155.376 
L 182.077438 155.376 
L 182.077438 155.376 
z
" clip-path="url(#p8a6332cbda)" style="fill: none; stroke: #000080; stroke-width: 1.5"/>
    <path d="M 76.412363 155.376 
L 76.701654 162.072828 
L 77.569294 168.713243 
L 79.014624 175.239729 
L 79.426216 176.543179 
L 81.010617 181.599217 
L 83.565928 187.7303 
L 84.210614 188.953518 
L 86.645842 193.581048 
L 88.758522 196.817542 
L 90.244998 199.088432 
L 93.077081 202.634858 
L 94.333671 204.195321 
L 97.18354 207.122265 
L 98.88409 208.841118 
L 101.086399 210.686789 
L 103.870889 212.958262 
L 104.785438 213.574364 
L 108.307391 215.879514 
L 109.256311 216.480181 
L 111.667833 217.722476 
L 114.82536 219.236794 
L 115.011426 219.323313 
L 117.879075 220.374354 
L 120.728395 221.293731 
L 121.090344 221.403991 
L 123.490274 221.937823 
L 126.079096 222.403355 
L 127.460106 222.604403 
L 128.547438 222.689144 
L 130.917019 222.804189 
L 133.128647 222.799025 
L 134.090441 222.764308 
L 135.25897 222.660867 
L 137.300999 222.405787 
L 139.21008 222.062255 
L 140.957636 221.648483 
L 140.999724 221.636996 
L 142.779202 221.113047 
L 144.444885 220.523398 
L 146.006056 219.873409 
L 147.471194 219.167975 
L 148.066653 218.854207 
L 148.900401 218.403543 
L 150.279278 217.587489 
L 151.573993 216.729723 
L 152.791195 215.833541 
L 153.936958 214.901953 
L 155.016826 213.937706 
L 155.579521 213.398345 
L 156.066142 212.94044 
L 157.089393 211.912457 
L 158.052878 210.85944 
L 158.961009 209.783237 
L 159.817802 208.68553 
L 160.626906 207.567848 
L 161.391632 206.431577 
L 162.114971 205.27797 
L 162.799621 204.108158 
L 163.448 202.923153 
L 164.062263 201.723858 
L 164.644312 200.51107 
L 165.195805 199.285482 
L 165.71816 198.04769 
L 166.212559 196.798188 
L 166.679941 195.537369 
L 167.120997 194.265523 
L 167.536155 192.982829 
L 167.92556 191.689348 
L 168.289042 190.385009 
L 168.626075 189.069591 
L 168.935722 187.742702 
L 169.216553 186.403742 
L 169.466546 185.051866 
L 169.682943 183.685918 
L 169.862059 182.304353 
L 169.885949 182.071636 
L 170.044807 180.900789 
L 170.194266 179.475419 
L 170.294037 178.025423 
L 170.319327 177.321503 
L 170.369665 176.540481 
L 170.411715 175.013427 
L 170.402675 174.19213 
L 170.408598 173.431272 
L 170.353966 171.839312 
L 170.352429 171.7774 
L 170.254057 170.014225 
L 170.247806 169.937079 
L 170.11655 168.325516 
L 170.095168 168.088523 
L 169.979619 166.911247 
L 169.859519 165.898878 
L 169.831639 165.651446 
L 169.700492 164.488952 
L 169.56036 163.420237 
L 169.531047 163.189896 
L 169.44844 162.402586 
L 169.345015 161.43666 
L 169.246517 160.512726 
L 169.15706 159.619461 
L 169.086497 158.819722 
L 169.081795 158.747903 
L 169.037543 157.889234 
L 169.00457 157.044349 
L 168.984251 156.208096 
L 168.97739 155.376 
M 168.97739 155.376 
L 168.984251 154.543904 
L 169.00457 153.707651 
L 169.037543 152.862766 
L 169.081795 152.004097 
L 169.086497 151.932278 
L 169.15706 151.132539 
L 169.246517 150.239274 
L 169.345015 149.31534 
L 169.44844 148.349414 
L 169.531047 147.562104 
L 169.56036 147.331763 
L 169.700492 146.263048 
L 169.831639 145.100554 
L 169.859519 144.853122 
L 169.979619 143.840753 
L 170.095168 142.663477 
L 170.11655 142.426484 
L 170.247806 140.814921 
L 170.254057 140.737775 
L 170.352429 138.9746 
L 170.353966 138.912688 
L 170.408598 137.320728 
L 170.402675 136.55987 
L 170.411715 135.738573 
L 170.369665 134.211519 
L 170.319327 133.430497 
L 170.294037 132.726577 
L 170.194266 131.276581 
L 170.044807 129.851211 
L 169.885949 128.680364 
L 169.862059 128.447647 
L 169.682943 127.066082 
L 169.466546 125.700134 
L 169.216553 124.348258 
L 168.935722 123.009298 
L 168.626075 121.682409 
L 168.289042 120.366991 
L 167.92556 119.062652 
L 167.536155 117.769171 
L 167.120997 116.486477 
L 166.679941 115.214631 
L 166.212559 113.953812 
L 165.71816 112.70431 
L 165.195805 111.466518 
L 164.644312 110.24093 
L 164.062263 109.028142 
L 163.448 107.828847 
L 162.799621 106.643842 
L 162.114971 105.47403 
L 161.391632 104.320423 
L 160.626906 103.184152 
L 159.817802 102.06647 
L 158.961009 100.968763 
L 158.052878 99.89256 
L 157.089393 98.839543 
L 156.066142 97.81156 
L 155.579521 97.353655 
L 155.016826 96.814294 
L 153.936958 95.850047 
L 152.791195 94.918459 
L 151.573993 94.022277 
L 150.279278 93.164511 
L 148.900401 92.348457 
L 148.066653 91.897793 
L 147.471194 91.584025 
L 146.006056 90.878591 
L 144.444885 90.228602 
L 142.779202 89.638953 
L 140.999724 89.115004 
L 140.957636 89.103517 
L 139.21008 88.689745 
L 137.300999 88.346213 
L 135.25897 88.091133 
L 134.090441 87.987692 
L 133.128647 87.952975 
L 130.917019 87.947811 
L 128.547438 88.062856 
L 127.460106 88.147597 
L 126.079096 88.348645 
L 123.490274 88.814177 
L 121.090344 89.348009 
L 120.728395 89.458269 
L 117.879075 90.377646 
L 115.011426 91.428687 
L 114.82536 91.515206 
L 111.667833 93.029524 
L 109.256311 94.271819 
L 108.307391 94.872486 
L 104.785438 97.177636 
L 103.870889 97.793738 
L 101.086399 100.065211 
L 98.88409 101.910882 
L 97.18354 103.629735 
L 94.333671 106.556679 
L 93.077081 108.117142 
L 90.244998 111.663568 
L 88.758522 113.934458 
L 86.645842 117.170952 
L 84.210614 121.798482 
L 83.565928 123.0217 
L 81.010617 129.152783 
L 79.426216 134.208821 
L 79.014624 135.512271 
L 77.569294 142.038757 
L 76.701654 148.679172 
L 76.412363 155.376 
M 194.968594 186.406029 
L 195.231353 187.743845 
L 195.525307 189.069742 
L 195.848908 190.384313 
L 196.20114 191.687946 
L 196.581436 192.980857 
L 196.98961 194.263117 
L 197.42582 195.534667 
L 197.890528 196.795328 
L 198.384484 198.044816 
L 198.908704 199.282742 
L 199.464466 200.508617 
L 200.053307 201.721855 
L 200.677022 202.921769 
L 201.337668 204.107574 
L 202.037579 205.278377 
L 202.779373 206.43318 
L 203.565969 207.570866 
L 204.400608 208.690198 
L 204.418776 208.713362 
L 205.236199 209.786104 
L 206.118508 210.860129 
L 207.052296 211.910645 
L 208.041669 212.935776 
L 209.091129 213.933466 
L 210.205617 214.90146 
L 211.390543 215.837285 
L 212.406143 216.570267 
L 212.635889 216.7363 
L 213.89008 217.5885 
L 215.223408 218.398299 
L 216.642714 219.162032 
L 218.15549 219.875685 
L 219.676845 220.500084 
L 219.764126 220.533749 
L 221.379463 221.112578 
L 223.102719 221.624446 
L 224.943535 222.063373 
L 226.658963 222.384286 
L 226.897777 222.41849 
L 228.882152 222.654738 
L 231.004999 222.792381 
L 233.278932 222.822436 
L 233.406755 222.821936 
L 235.594318 222.680701 
L 238.068691 222.401463 
L 239.914533 222.123566 
L 240.685085 221.949937 
L 243.398641 221.272444 
L 246.142072 220.465274 
L 246.305603 220.402435 
L 249.302582 219.206161 
L 252.064076 217.991251 
L 252.506766 217.748821 
L 255.838859 215.867891 
L 257.640802 214.799686 
L 259.363497 213.555847 
L 262.824923 210.966579 
L 263.083837 210.732586 
L 266.978117 207.157968 
L 267.598947 206.577999 
L 271.079597 202.656147 
L 271.92319 201.694705 
L 275.401589 196.885505 
L 275.766418 196.378539 
L 279.113144 190.694109 
L 279.944029 188.925923 
L 281.937263 184.69749 
L 284.209778 178.443606 
L 284.728728 176.491658 
L 285.935073 171.994397 
L 287.091662 165.403643 
L 287.670186 158.727927 
L 287.670186 152.024073 
L 287.091662 145.348357 
L 285.935073 138.757603 
L 284.728728 134.260342 
L 284.209778 132.308394 
L 281.937263 126.05451 
L 279.944029 121.826077 
L 279.113144 120.057891 
L 275.766418 114.373461 
L 275.401589 113.866495 
L 271.92319 109.057295 
L 271.079597 108.095853 
L 267.598947 104.174001 
L 266.978117 103.594032 
L 263.083837 100.019414 
L 262.824923 99.785421 
L 259.363497 97.196153 
L 257.640802 95.952314 
L 255.838859 94.884109 
L 252.506766 93.003179 
L 252.064076 92.760749 
L 249.302582 91.545839 
L 246.305603 90.349565 
L 246.142072 90.286726 
L 243.398641 89.479556 
L 240.685085 88.802063 
L 239.914533 88.628434 
L 238.068691 88.350537 
L 235.594318 88.071299 
L 233.406755 87.930064 
L 233.278932 87.929564 
L 231.004999 87.959619 
L 228.882152 88.097262 
L 226.897777 88.33351 
L 226.658963 88.367714 
L 224.943535 88.688627 
L 223.102719 89.127554 
L 221.379463 89.639422 
L 219.764126 90.218251 
L 219.676845 90.251916 
L 218.15549 90.876315 
L 216.642714 91.589968 
L 215.223408 92.353701 
L 213.89008 93.1635 
L 212.635889 94.0157 
L 212.406143 94.181733 
L 211.390543 94.914715 
L 210.205617 95.85054 
L 209.091129 96.818534 
L 208.041669 97.816224 
L 207.052296 98.841355 
L 206.118508 99.891871 
L 205.236199 100.965896 
L 204.418776 102.038638 
L 204.400608 102.061802 
L 203.565969 103.181134 
L 202.779373 104.31882 
L 202.037579 105.473623 
L 201.337668 106.644426 
L 200.677022 107.830231 
L 200.053307 109.030145 
L 199.464466 110.243383 
L 198.908704 111.469258 
L 198.384484 112.707184 
L 197.890528 113.956672 
L 197.42582 115.217333 
L 196.98961 116.488883 
L 196.581436 117.771143 
L 196.20114 119.064054 
L 195.848908 120.367687 
L 195.525307 121.682258 
L 195.231353 123.008155 
L 194.968594 124.345971 
L 194.895928 124.773337 
L 194.711285 125.698582 
L 194.472304 127.066405 
L 194.267995 128.450063 
L 194.102894 129.851627 
L 193.982988 131.27383 
L 193.977761 131.364703 
L 193.856286 132.727555 
L 193.781674 134.211758 
L 193.769923 135.124021 
L 193.747121 135.738106 
L 193.748153 137.319837 
L 193.76531 137.808536 
L 193.792136 138.978272 
L 193.846564 139.911549 
L 193.893451 140.741809 
L 193.966824 141.654916 
L 194.05697 142.665298 
L 194.10582 143.155238 
L 194.251154 144.484488 
L 194.294731 144.854765 
L 194.387118 145.69556 
L 194.52386 146.807265 
L 194.623386 147.562876 
L 194.654456 147.8461 
L 194.758467 148.838475 
L 194.860005 149.78177 
L 194.954438 150.689155 
L 195.038116 151.570401 
L 195.068113 151.949265 
L 195.096507 152.435514 
L 195.135328 153.28659 
L 195.162109 154.126565 
L 195.175766 154.960208 
L 195.175766 155.791792 
L 195.162109 156.625435 
L 195.135328 157.46541 
L 195.096507 158.316486 
L 195.068113 158.802735 
L 195.038116 159.181599 
L 194.954438 160.062845 
L 194.860005 160.97023 
L 194.758467 161.913525 
L 194.654456 162.9059 
L 194.623386 163.189124 
L 194.52386 163.944735 
L 194.387118 165.05644 
L 194.294731 165.897235 
L 194.251154 166.267512 
L 194.10582 167.596762 
L 194.05697 168.086702 
L 193.966824 169.097084 
L 193.893451 170.010191 
L 193.846564 170.840451 
L 193.792136 171.773728 
L 193.76531 172.943464 
L 193.748153 173.432163 
L 193.747121 175.013894 
L 193.769923 175.627979 
L 193.781674 176.540242 
L 193.856286 178.024445 
L 193.977761 179.387297 
L 193.982988 179.47817 
L 194.102894 180.900373 
L 194.267995 182.301937 
L 194.472304 183.685595 
L 194.711285 185.053418 
L 194.895928 185.978663 
L 194.968594 186.406029 
z
" clip-path="url(#p8a6332cbda)" style="fill: none; stroke: #0000ff; stroke-width: 1.5"/>
    <path d="M 90.401161 155.376 
L 90.673623 161.184883 
L 91.2407 165.181428 
L 91.487112 166.937062 
L 92.828218 172.577377 
L 94.705594 178.045861 
L 95.308875 179.370987 
L 97.091703 183.288007 
L 99.175863 186.861 
L 99.984812 188.24093 
L 102.850269 192.156264 
L 103.360572 192.845392 
L 106.347477 196.124501 
L 107.197329 197.038173 
L 109.675486 199.217429 
L 111.476711 200.748332 
L 112.835132 201.690805 
L 115.830393 203.672313 
L 116.179722 203.89546 
L 118.702339 205.190621 
L 121.277974 206.392807 
L 121.401351 206.437649 
L 124.006307 207.334345 
L 126.444932 208.045127 
L 126.753552 208.127218 
L 128.801493 208.503754 
L 131.020408 208.802649 
L 132.602586 208.940203 
L 133.121976 208.951396 
L 135.152454 208.933121 
L 137.05892 208.807388 
L 138.851245 208.582751 
L 138.851537 208.582705 
L 140.606716 208.230447 
L 142.257431 207.798405 
L 143.811513 207.292819 
L 145.276384 206.719341 
L 145.624478 206.56702 
L 146.700566 206.068076 
L 148.055878 205.356114 
L 149.333975 204.59278 
L 150.540458 203.7818 
L 151.680418 202.926562 
L 152.758472 202.030136 
L 153.615324 201.248181 
L 153.784031 201.094053 
L 154.778171 200.116688 
L 155.716259 199.106962 
L 156.601624 198.066796 
L 157.437206 196.997889 
L 158.225567 195.901718 
L 158.9689 194.779549 
L 159.669029 193.632438 
L 160.327406 192.461221 
L 160.945101 191.266515 
L 161.522773 190.048703 
L 162.060647 188.807913 
L 162.55846 187.543994 
L 163.0154 186.256477 
L 163.116332 185.935476 
L 163.451601 184.93938 
L 163.854647 183.593863 
L 164.214675 182.219725 
L 164.527838 180.814408 
L 164.722744 179.747258 
L 164.800533 179.370331 
L 165.05216 177.873521 
L 165.241786 176.329525 
L 165.264008 176.071629 
L 165.404802 174.70529 
L 165.483395 173.341626 
L 165.506725 172.99776 
L 165.56003 171.165136 
L 165.559985 171.125359 
L 165.560362 169.235472 
L 165.560118 169.146549 
L 165.522398 167.565217 
L 165.497964 166.832044 
L 165.463573 166.053082 
L 165.39315 164.658888 
L 165.356579 163.989212 
L 165.322601 163.351337 
L 165.257051 162.109867 
L 165.192647 160.9215 
L 165.134122 159.772183 
L 165.127237 159.604902 
L 165.095309 158.649037 
L 165.06697 157.546862 
L 165.049223 156.458175 
L 165.043184 155.376 
M 165.043184 155.376 
L 165.049223 154.293825 
L 165.06697 153.205138 
L 165.095309 152.102963 
L 165.127237 151.147098 
L 165.134122 150.979817 
L 165.192647 149.8305 
L 165.257051 148.642133 
L 165.322601 147.400663 
L 165.356579 146.762788 
L 165.39315 146.093112 
L 165.463573 144.698918 
L 165.497964 143.919956 
L 165.522398 143.186783 
L 165.560118 141.605451 
L 165.560362 141.516528 
L 165.559985 139.626641 
L 165.56003 139.586864 
L 165.506725 137.75424 
L 165.483395 137.410374 
L 165.404802 136.04671 
L 165.264008 134.680371 
L 165.241786 134.422475 
L 165.05216 132.878479 
L 164.800533 131.381669 
L 164.722744 131.004742 
L 164.527838 129.937592 
L 164.214675 128.532275 
L 163.854647 127.158137 
L 163.451601 125.81262 
L 163.116332 124.816524 
L 163.0154 124.495523 
L 162.55846 123.208006 
L 162.060647 121.944087 
L 161.522773 120.703297 
L 160.945101 119.485485 
L 160.327406 118.290779 
L 159.669029 117.119562 
L 158.9689 115.972451 
L 158.225567 114.850282 
L 157.437206 113.754111 
L 156.601624 112.685204 
L 155.716259 111.645038 
L 154.778171 110.635312 
L 153.784031 109.657947 
L 153.615324 109.503819 
L 152.758472 108.721864 
L 151.680418 107.825438 
L 150.540458 106.9702 
L 149.333975 106.15922 
L 148.055878 105.395886 
L 146.700566 104.683924 
L 145.624478 104.18498 
L 145.276384 104.032659 
L 143.811513 103.459181 
L 142.257431 102.953595 
L 140.606716 102.521553 
L 138.851537 102.169295 
L 138.851245 102.169249 
L 137.05892 101.944612 
L 135.152454 101.818879 
L 133.121976 101.800604 
L 132.602586 101.811797 
L 131.020408 101.949351 
L 128.801493 102.248246 
L 126.753552 102.624782 
L 126.444932 102.706873 
L 124.006307 103.417655 
L 121.401351 104.314351 
L 121.277974 104.359193 
L 118.702339 105.561379 
L 116.179722 106.85654 
L 115.830393 107.079687 
L 112.835132 109.061195 
L 111.476711 110.003668 
L 109.675486 111.534571 
L 107.197329 113.713827 
L 106.347477 114.627499 
L 103.360572 117.906608 
L 102.850269 118.595736 
L 99.984812 122.51107 
L 99.175863 123.891 
L 97.091703 127.463993 
L 95.308875 131.381013 
L 94.705594 132.706139 
L 92.828218 138.174623 
L 91.487112 143.814938 
L 91.2407 145.570572 
L 90.673623 149.567117 
L 90.401161 155.376 
M 200.302665 183.595125 
L 200.689308 184.936315 
L 201.118183 186.251303 
L 201.587196 187.541387 
L 202.094971 188.80742 
L 202.640739 190.04988 
L 203.224249 191.268922 
L 203.845715 192.464414 
L 204.505763 193.635967 
L 205.205407 194.782952 
L 205.946023 195.904515 
L 206.729343 196.999583 
L 207.557445 198.066864 
L 208.432759 199.104851 
L 209.358074 200.111815 
L 210.336546 201.085797 
L 211.37172 202.024597 
L 212.467548 202.925763 
L 213.628418 203.786574 
L 214.807587 204.571069 
L 214.857266 204.603456 
L 216.112131 205.359186 
L 217.440733 206.062409 
L 218.848949 206.708938 
L 220.34323 207.29418 
L 221.93065 207.813098 
L 221.999871 207.833465 
L 223.551739 208.230575 
L 225.270661 208.565076 
L 227.09876 208.81088 
L 228.481878 208.92958 
L 229.023133 208.9459 
L 231.014091 208.935839 
L 233.135167 208.805592 
L 234.524855 208.662253 
L 235.365417 208.513761 
L 237.689969 208.022709 
L 240.171755 207.366754 
L 240.184711 207.363088 
L 242.734048 206.404357 
L 245.472259 205.231188 
L 245.47303 205.230844 
L 248.311482 203.641056 
L 250.378366 202.397751 
L 251.323275 201.697378 
L 254.487698 199.25844 
L 254.869109 198.956605 
L 257.805215 196.11845 
L 258.9343 194.998467 
L 261.300543 192.12461 
L 262.543641 190.591653 
L 264.978978 186.876009 
L 265.676542 185.803586 
L 268.317673 180.698418 
L 268.846587 179.36946 
L 270.455007 175.336954 
L 272.064245 169.774907 
L 272.914041 165.263487 
L 273.140682 164.071486 
L 273.685598 158.284002 
L 273.685598 152.467998 
L 273.140682 146.680514 
L 272.914041 145.488513 
L 272.064245 140.977093 
L 270.455007 135.415046 
L 268.846587 131.38254 
L 268.317673 130.053582 
L 265.676542 124.948414 
L 264.978978 123.875991 
L 262.543641 120.160347 
L 261.300543 118.62739 
L 258.9343 115.753533 
L 257.805215 114.63355 
L 254.869109 111.795395 
L 254.487698 111.49356 
L 251.323275 109.054622 
L 250.378366 108.354249 
L 248.311482 107.110944 
L 245.47303 105.521156 
L 245.472259 105.520812 
L 242.734048 104.347643 
L 240.184711 103.388912 
L 240.171755 103.385246 
L 237.689969 102.729291 
L 235.365417 102.238239 
L 234.524855 102.089747 
L 233.135167 101.946408 
L 231.014091 101.816161 
L 229.023133 101.8061 
L 228.481878 101.82242 
L 227.09876 101.94112 
L 225.270661 102.186924 
L 223.551739 102.521425 
L 221.999871 102.918535 
L 221.93065 102.938902 
L 220.34323 103.45782 
L 218.848949 104.043062 
L 217.440733 104.689591 
L 216.112131 105.392814 
L 214.857266 106.148544 
L 214.807587 106.180931 
L 213.628418 106.965426 
L 212.467548 107.826237 
L 211.37172 108.727403 
L 210.336546 109.666203 
L 209.358074 110.640185 
L 208.432759 111.647149 
L 207.557445 112.685136 
L 206.729343 113.752417 
L 205.946023 114.847485 
L 205.205407 115.969048 
L 204.505763 117.116033 
L 203.845715 118.287586 
L 203.224249 119.483078 
L 202.640739 120.70212 
L 202.094971 121.94458 
L 201.587196 123.210613 
L 201.118183 124.500697 
L 200.689308 125.815685 
L 200.302665 127.156875 
L 199.973283 128.477639 
L 199.959915 128.526491 
L 199.626505 129.938386 
L 199.342756 131.385644 
L 199.115165 132.872893 
L 199.099215 133.009646 
L 198.904736 134.427182 
L 198.759716 136.040343 
L 198.754754 136.129351 
L 198.64368 137.757351 
L 198.621493 138.567342 
L 198.587908 139.594934 
L 198.58804 140.604388 
L 198.590021 141.613279 
L 198.609121 142.375341 
L 198.660325 143.909328 
L 198.662564 143.957975 
L 198.724778 145.409185 
L 198.800476 146.746823 
L 198.800906 146.754453 
L 198.864848 148.029069 
L 198.930494 149.241989 
L 198.992476 150.409297 
L 199.027346 151.160316 
L 199.04199 151.544387 
L 199.07496 152.656204 
L 199.09819 153.750715 
L 199.110176 154.835314 
L 199.110176 155.916686 
L 199.09819 157.001285 
L 199.07496 158.095796 
L 199.04199 159.207613 
L 199.027346 159.591684 
L 198.992476 160.342703 
L 198.930494 161.510011 
L 198.864848 162.722931 
L 198.800906 163.997547 
L 198.800476 164.005177 
L 198.724778 165.342815 
L 198.662564 166.794025 
L 198.660325 166.842672 
L 198.609121 168.376659 
L 198.590021 169.138721 
L 198.58804 170.147612 
L 198.587908 171.157066 
L 198.621493 172.184658 
L 198.64368 172.994649 
L 198.754754 174.622649 
L 198.759716 174.711657 
L 198.904736 176.324818 
L 199.099215 177.742354 
L 199.115165 177.879107 
L 199.342756 179.366356 
L 199.626505 180.813614 
L 199.959915 182.225509 
L 199.973283 182.274361 
L 200.302665 183.595125 
z
" clip-path="url(#p8a6332cbda)" style="fill: none; stroke: #0080ff; stroke-width: 1.5"/>
    <path d="M 99.573732 155.376 
L 99.836976 160.602535 
L 100.62683 165.770659 
L 100.936921 166.969177 
L 101.930203 170.823113 
L 103.750082 175.699141 
L 104.437725 177.080232 
L 106.070574 180.339061 
L 107.766978 182.968132 
L 108.885502 184.677631 
L 110.932943 187.168263 
L 112.178932 188.647834 
L 113.944764 190.337605 
L 115.939496 192.174162 
L 116.80512 192.817811 
L 119.525204 194.745664 
L 120.155813 195.170612 
L 122.121649 196.226032 
L 124.572264 197.416422 
L 124.823935 197.530861 
L 126.926841 198.26191 
L 129.145334 198.909577 
L 129.954756 199.112123 
L 131.26747 199.330894 
L 133.284767 199.570747 
L 135.184274 199.678945 
L 135.607033 199.685441 
L 137.013757 199.620933 
L 138.748833 199.443605 
L 140.385159 199.169082 
L 141.930024 198.804538 
L 141.976581 198.791399 
L 143.427789 198.326786 
L 144.842434 197.774888 
L 146.178533 197.154929 
L 147.441382 196.471499 
L 148.635755 195.728734 
L 149.765933 194.930343 
L 150.257254 194.543423 
L 150.845355 194.074475 
L 151.871571 193.16716 
L 152.839308 192.215341 
L 153.75128 191.221082 
L 154.609748 190.186104 
L 155.41651 189.111776 
L 156.172889 187.999103 
L 156.879704 186.848711 
L 157.537232 185.660809 
L 157.635101 185.46204 
L 158.160215 184.427077 
L 158.739344 183.151199 
L 159.27 181.83332 
L 159.749656 180.47125 
L 160.162586 179.102227 
L 160.175659 179.061154 
L 160.577584 177.571662 
L 160.91791 176.021541 
L 161.015451 175.458564 
L 161.215585 174.371701 
L 161.443492 172.689937 
L 161.453577 172.618166 
L 161.646884 170.690599 
L 161.664835 170.405481 
L 161.778293 168.536752 
L 161.782011 168.419079 
L 161.83546 166.638334 
L 161.849653 165.982544 
L 161.855087 165.001881 
L 161.853082 163.472611 
L 161.848004 162.645835 
L 161.840998 162.022288 
L 161.824951 160.630794 
L 161.807819 159.282649 
L 161.793159 157.964663 
L 161.783414 156.665723 
L 161.780009 155.376 
M 161.780009 155.376 
L 161.783414 154.086277 
L 161.793159 152.787337 
L 161.807819 151.469351 
L 161.824951 150.121206 
L 161.840998 148.729712 
L 161.848004 148.106165 
L 161.853082 147.279389 
L 161.855087 145.750119 
L 161.849653 144.769456 
L 161.83546 144.113666 
L 161.782011 142.332921 
L 161.778293 142.215248 
L 161.664835 140.346519 
L 161.646884 140.061401 
L 161.453577 138.133834 
L 161.443492 138.062063 
L 161.215585 136.380299 
L 161.015451 135.293436 
L 160.91791 134.730459 
L 160.577584 133.180338 
L 160.175659 131.690846 
L 160.162586 131.649773 
L 159.749656 130.28075 
L 159.27 128.91868 
L 158.739344 127.600801 
L 158.160215 126.324923 
L 157.635101 125.28996 
L 157.537232 125.091191 
L 156.879704 123.903289 
L 156.172889 122.752897 
L 155.41651 121.640224 
L 154.609748 120.565896 
L 153.75128 119.530918 
L 152.839308 118.536659 
L 151.871571 117.58484 
L 150.845355 116.677525 
L 150.257254 116.208577 
L 149.765933 115.821657 
L 148.635755 115.023266 
L 147.441382 114.280501 
L 146.178533 113.597071 
L 144.842434 112.977112 
L 143.427789 112.425214 
L 141.976581 111.960601 
L 141.930024 111.947462 
L 140.385159 111.582918 
L 138.748833 111.308395 
L 137.013757 111.131067 
L 135.607033 111.066559 
L 135.184274 111.073055 
L 133.284767 111.181253 
L 131.26747 111.421106 
L 129.954756 111.639877 
L 129.145334 111.842423 
L 126.926841 112.49009 
L 124.823935 113.221139 
L 124.572264 113.335578 
L 122.121649 114.525968 
L 120.155813 115.581388 
L 119.525204 116.006336 
L 116.80512 117.934189 
L 115.939496 118.577838 
L 113.944764 120.414395 
L 112.178932 122.104166 
L 110.932943 123.583737 
L 108.885502 126.074369 
L 107.766978 127.783868 
L 106.070574 130.412939 
L 104.437725 133.671768 
L 103.750082 135.052859 
L 101.930203 139.928887 
L 100.936921 143.782823 
L 100.62683 144.981341 
L 99.836976 150.149465 
L 99.573732 155.376 
M 204.897772 181.841857 
L 205.415565 183.152172 
L 205.983699 184.42159 
L 206.600448 185.651512 
L 207.264846 186.842723 
L 207.976583 187.995476 
L 208.735922 189.109556 
L 209.543652 190.184323 
L 210.401042 191.218744 
L 211.30982 192.211418 
L 212.272157 193.16058 
L 213.29066 194.064111 
L 214.368376 194.919537 
L 215.508802 195.724016 
L 216.715899 196.474331 
L 217.99411 197.166871 
L 218.499307 197.409078 
L 219.32714 197.783788 
L 220.723729 198.322719 
L 222.20178 198.786406 
L 223.767526 199.169094 
L 225.427828 199.464444 
L 225.478906 199.471625 
L 227.140456 199.618044 
L 228.955112 199.661755 
L 230.881742 199.588031 
L 231.445913 199.544709 
L 232.887459 199.328136 
L 235.001839 198.89842 
L 236.825576 198.430412 
L 237.239767 198.284896 
L 239.570087 197.385862 
L 241.721322 196.437812 
L 242.043658 196.256744 
L 244.623882 194.726836 
L 246.164301 193.745008 
L 247.348685 192.80599 
L 250.149903 190.469795 
L 250.218573 190.398823 
L 253.224869 187.208994 
L 253.679805 186.712437 
L 256.390324 183.025698 
L 256.734672 182.549011 
L 259.304637 178.051952 
L 259.718231 177.105191 
L 261.37988 173.287246 
L 262.939315 168.314815 
L 263.218182 166.949269 
L 263.988817 163.197588 
L 264.515334 157.992902 
L 264.515334 152.759098 
L 263.988817 147.554412 
L 263.218182 143.802731 
L 262.939315 142.437185 
L 261.37988 137.464754 
L 259.718231 133.646809 
L 259.304637 132.700048 
L 256.734672 128.202989 
L 256.390324 127.726302 
L 253.679805 124.039563 
L 253.224869 123.543006 
L 250.218573 120.353177 
L 250.149903 120.282205 
L 247.348685 117.94601 
L 246.164301 117.006992 
L 244.623882 116.025164 
L 242.043658 114.495256 
L 241.721322 114.314188 
L 239.570087 113.366138 
L 237.239767 112.467104 
L 236.825576 112.321588 
L 235.001839 111.85358 
L 232.887459 111.423864 
L 231.445913 111.207291 
L 230.881742 111.163969 
L 228.955112 111.090245 
L 227.140456 111.133956 
L 225.478906 111.280375 
L 225.427828 111.287556 
L 223.767526 111.582906 
L 222.20178 111.965594 
L 220.723729 112.429281 
L 219.32714 112.968212 
L 218.499307 113.342922 
L 217.99411 113.585129 
L 216.715899 114.277669 
L 215.508802 115.027984 
L 214.368376 115.832463 
L 213.29066 116.687889 
L 212.272157 117.59142 
L 211.30982 118.540582 
L 210.401042 119.533256 
L 209.543652 120.567677 
L 208.735922 121.642444 
L 207.976583 122.756524 
L 207.264846 123.909277 
L 206.600448 125.100488 
L 205.983699 126.33041 
L 205.415565 127.599828 
L 204.897772 128.910143 
L 204.82434 129.124675 
L 204.408249 130.279548 
L 203.96674 131.700642 
L 203.582619 133.174743 
L 203.486792 133.624228 
L 203.234629 134.733936 
L 202.942809 136.374753 
L 202.891864 136.753866 
L 202.694782 138.14473 
L 202.587005 139.247098 
L 202.505611 140.068132 
L 202.423958 141.368445 
L 202.373501 142.22729 
L 202.341522 143.243829 
L 202.306563 144.758563 
L 202.305574 144.947671 
L 202.298886 146.526179 
L 202.307561 148.012837 
L 202.307987 148.083772 
L 202.321495 149.431808 
L 202.338605 150.799814 
L 202.354873 152.131381 
L 202.367315 153.438552 
L 202.374008 154.731707 
L 202.374008 156.020293 
L 202.367315 157.313448 
L 202.354873 158.620619 
L 202.338605 159.952186 
L 202.321495 161.320192 
L 202.307987 162.668228 
L 202.307561 162.739163 
L 202.298886 164.225821 
L 202.305574 165.804329 
L 202.306563 165.993437 
L 202.341522 167.508171 
L 202.373501 168.52471 
L 202.423958 169.383555 
L 202.505611 170.683868 
L 202.587005 171.504902 
L 202.694782 172.60727 
L 202.891864 173.998134 
L 202.942809 174.377247 
L 203.234629 176.018064 
L 203.486792 177.127772 
L 203.582619 177.577257 
L 203.96674 179.051358 
L 204.408249 180.472452 
L 204.82434 181.627325 
L 204.897772 181.841857 
z
" clip-path="url(#p8a6332cbda)" style="fill: none; stroke: #16ffe1; stroke-width: 1.5"/>
    <path d="M 106.878623 155.376 
L 107.137896 160.138548 
L 107.915984 164.840423 
L 109.213749 169.419325 
L 109.843222 170.957098 
L 111.022024 173.812333 
L 112.832495 177.058114 
L 113.33966 177.951663 
L 115.675397 181.12768 
L 116.158656 181.765899 
L 118.3814 184.082044 
L 119.477929 185.173496 
L 120.954083 186.34215 
L 123.305422 188.075872 
L 123.391319 188.125946 
L 125.724476 189.407524 
L 127.663769 190.345541 
L 127.926277 190.442131 
L 130.03623 191.137695 
L 132.024964 191.657183 
L 132.629033 191.784089 
L 133.927075 191.949794 
L 135.732862 192.072662 
L 137.437719 192.067187 
L 138.431039 191.999677 
L 139.060779 191.922236 
L 140.611677 191.640784 
L 142.076756 191.26341 
L 143.461609 190.796365 
L 144.771251 190.245256 
L 146.01015 189.615075 
L 146.430231 189.365543 
L 147.190138 188.901129 
L 148.307361 188.115675 
L 149.360393 187.26704 
L 150.351834 186.357784 
L 151.283757 185.389947 
L 152.157682 184.365025 
L 152.974554 183.283948 
L 153.262234 182.851241 
L 153.742383 182.138151 
L 154.461263 180.926731 
L 155.125298 179.654011 
L 155.732544 178.317816 
L 156.217146 177.075361 
L 156.282896 176.909994 
L 156.794784 175.387536 
L 157.240622 173.781089 
L 157.272502 173.639487 
L 157.642904 172.006839 
L 157.827296 170.96062 
L 157.983257 170.056292 
L 158.161394 168.68253 
L 158.265297 167.825682 
L 158.367645 166.661911 
L 158.484269 165.134436 
L 158.50117 164.814514 
L 158.57992 163.093329 
L 158.634302 161.458653 
L 158.636871 161.35954 
L 158.663243 159.888716 
L 158.680483 158.3619 
L 158.68962 156.86234 
L 158.692467 155.376 
M 158.692467 155.376 
L 158.68962 153.88966 
L 158.680483 152.3901 
L 158.663243 150.863284 
L 158.636871 149.39246 
L 158.634302 149.293347 
L 158.57992 147.658671 
L 158.50117 145.937486 
L 158.484269 145.617564 
L 158.367645 144.090089 
L 158.265297 142.926318 
L 158.161394 142.06947 
L 157.983257 140.695708 
L 157.827296 139.79138 
L 157.642904 138.745161 
L 157.272502 137.112513 
L 157.240622 136.970911 
L 156.794784 135.364464 
L 156.282896 133.842006 
L 156.217146 133.676639 
L 155.732544 132.434184 
L 155.125298 131.097989 
L 154.461263 129.825269 
L 153.742383 128.613849 
L 153.262234 127.900759 
L 152.974554 127.468052 
L 152.157682 126.386975 
L 151.283757 125.362053 
L 150.351834 124.394216 
L 149.360393 123.48496 
L 148.307361 122.636325 
L 147.190138 121.850871 
L 146.430231 121.386457 
L 146.01015 121.136925 
L 144.771251 120.506744 
L 143.461609 119.955635 
L 142.076756 119.48859 
L 140.611677 119.111216 
L 139.060779 118.829764 
L 138.431039 118.752323 
L 137.437719 118.684813 
L 135.732862 118.679338 
L 133.927075 118.802206 
L 132.629033 118.967911 
L 132.024964 119.094817 
L 130.03623 119.614305 
L 127.926277 120.309869 
L 127.663769 120.406459 
L 125.724476 121.344476 
L 123.391319 122.626054 
L 123.305422 122.676128 
L 120.954083 124.40985 
L 119.477929 125.578504 
L 118.3814 126.669956 
L 116.158656 128.986101 
L 115.675397 129.62432 
L 113.33966 132.800337 
L 112.832495 133.693886 
L 111.022024 136.939667 
L 109.843222 139.794902 
L 109.213749 141.332675 
L 107.915984 145.911577 
L 107.137896 150.613452 
L 106.878623 155.376 
M 209.037962 179.666041 
L 209.692366 180.926589 
L 210.403246 182.127908 
L 211.169478 183.271174 
L 211.9907 184.356768 
L 212.867222 185.384366 
L 213.799957 186.35301 
L 214.790381 187.261151 
L 215.8405 188.106685 
L 216.952837 188.886967 
L 218.130419 189.598822 
L 219.376789 190.238535 
L 220.696006 190.801848 
L 222.092671 191.283935 
L 222.268675 191.33407 
L 223.548625 191.646796 
L 225.085019 191.905896 
L 226.710941 192.058301 
L 228.433068 192.096053 
L 228.7601 192.087651 
L 230.227837 191.946731 
L 232.122295 191.639672 
L 234.09372 191.186592 
L 234.130702 191.174542 
L 236.219961 190.408591 
L 238.437663 189.442781 
L 238.739684 189.299867 
L 240.755206 188.076943 
L 242.827158 186.694657 
L 243.205826 186.376067 
L 245.774813 184.104952 
L 246.3994 183.526203 
L 248.477371 181.102385 
L 249.469277 179.904624 
L 251.321458 177.04627 
L 252.037104 175.918011 
L 254.09885 171.642753 
L 254.312681 171.028351 
L 255.655049 167.14925 
L 256.692825 162.500906 
L 257.211438 157.761047 
L 257.211438 152.990953 
L 256.692825 148.251094 
L 255.655049 143.60275 
L 254.312681 139.723649 
L 254.09885 139.109247 
L 252.037104 134.833989 
L 251.321458 133.70573 
L 249.469277 130.847376 
L 248.477371 129.649615 
L 246.3994 127.225797 
L 245.774813 126.647048 
L 243.205826 124.375933 
L 242.827158 124.057343 
L 240.755206 122.675057 
L 238.739684 121.452133 
L 238.437663 121.309219 
L 236.219961 120.343409 
L 234.130702 119.577458 
L 234.09372 119.565408 
L 232.122295 119.112328 
L 230.227837 118.805269 
L 228.7601 118.664349 
L 228.433068 118.655947 
L 226.710941 118.693699 
L 225.085019 118.846104 
L 223.548625 119.105204 
L 222.268675 119.41793 
L 222.092671 119.468065 
L 220.696006 119.950152 
L 219.376789 120.513465 
L 218.130419 121.153178 
L 216.952837 121.865033 
L 215.8405 122.645315 
L 214.790381 123.490849 
L 213.799957 124.39899 
L 212.867222 125.367634 
L 211.9907 126.395232 
L 211.169478 127.480826 
L 210.403246 128.624092 
L 209.692366 129.825411 
L 209.037962 131.085959 
L 208.911504 131.368249 
L 208.424429 132.432437 
L 207.864219 133.854909 
L 207.366221 135.351521 
L 207.317922 135.526664 
L 206.908864 136.98475 
L 206.564196 138.518099 
L 206.516052 138.733224 
L 206.173596 140.685353 
L 206.135661 140.972266 
L 205.891409 142.911857 
L 205.873589 143.108231 
L 205.712848 145.032074 
L 205.670236 145.626403 
L 205.610819 146.81055 
L 205.545152 148.485257 
L 205.517376 149.426495 
L 205.504207 150.084831 
L 205.481837 151.631031 
L 205.468954 153.142381 
L 205.463111 154.633647 
L 205.463111 156.118353 
L 205.468954 157.609619 
L 205.481837 159.120969 
L 205.504207 160.667169 
L 205.517376 161.325505 
L 205.545152 162.266743 
L 205.610819 163.94145 
L 205.670236 165.125597 
L 205.712848 165.719926 
L 205.873589 167.643769 
L 205.891409 167.840143 
L 206.135661 169.779734 
L 206.173596 170.066647 
L 206.516052 172.018776 
L 206.564196 172.233901 
L 206.908864 173.76725 
L 207.317922 175.225336 
L 207.366221 175.400479 
L 207.864219 176.897091 
L 208.424429 178.319563 
L 208.911504 179.383751 
L 209.037962 179.666041 
z
" clip-path="url(#p8a6332cbda)" style="fill: none; stroke: #7dff7a; stroke-width: 1.5"/>
    <path d="M 113.335477 155.376 
L 113.600279 159.727852 
L 113.730989 160.437695 
L 114.392996 164.013832 
L 115.715099 168.166292 
L 116.465086 169.784667 
L 117.568389 172.113786 
L 119.064216 174.438004 
L 119.958029 175.777981 
L 121.535752 177.588327 
L 122.898456 179.06769 
L 123.884252 179.901136 
L 126.113075 181.642962 
L 126.423432 181.867423 
L 128.239019 182.881317 
L 130.248798 183.847805 
L 130.622522 184.004746 
L 132.167767 184.476962 
L 133.984623 184.896173 
L 135.70156 185.148494 
L 135.744981 185.152062 
L 137.345284 185.169804 
L 138.898838 185.057178 
L 140.367329 184.820993 
L 141.755809 184.468589 
L 143.068738 184.006446 
L 143.386183 183.863767 
L 144.315618 183.426132 
L 145.492884 182.74977 
L 146.601446 181.986044 
L 147.643614 181.137892 
L 148.621086 180.207471 
L 149.149803 179.620104 
L 149.538109 179.188108 
L 150.399241 178.06971 
L 151.199577 176.863005 
L 151.937884 175.5662 
L 152.514905 174.374686 
L 152.614563 174.166288 
L 153.242026 172.598884 
L 153.721545 171.152795 
L 153.803076 170.897938 
L 154.309494 168.948314 
L 154.390975 168.554814 
L 154.753986 166.663713 
L 154.809563 166.29241 
L 155.081852 164.242205 
L 155.135582 163.76275 
L 155.258926 162.334442 
L 155.380626 160.521389 
L 155.451363 159.035635 
L 155.461023 158.772765 
L 155.499306 157.06509 
L 155.511816 155.376 
M 155.511816 155.376 
L 155.499306 153.68691 
L 155.461023 151.979235 
L 155.451363 151.716365 
L 155.380626 150.230611 
L 155.258926 148.417558 
L 155.135582 146.98925 
L 155.081852 146.509795 
L 154.809563 144.45959 
L 154.753986 144.088287 
L 154.390975 142.197186 
L 154.309494 141.803686 
L 153.803076 139.854062 
L 153.721545 139.599205 
L 153.242026 138.153116 
L 152.614563 136.585712 
L 152.514905 136.377314 
L 151.937884 135.1858 
L 151.199577 133.888995 
L 150.399241 132.68229 
L 149.538109 131.563892 
L 149.149803 131.131896 
L 148.621086 130.544529 
L 147.643614 129.614108 
L 146.601446 128.765956 
L 145.492884 128.00223 
L 144.315618 127.325868 
L 143.386183 126.888233 
L 143.068738 126.745554 
L 141.755809 126.283411 
L 140.367329 125.931007 
L 138.898838 125.694822 
L 137.345284 125.582196 
L 135.744981 125.599938 
L 135.70156 125.603506 
L 133.984623 125.855827 
L 132.167767 126.275038 
L 130.622522 126.747254 
L 130.248798 126.904195 
L 128.239019 127.870683 
L 126.423432 128.884577 
L 126.113075 129.109038 
L 123.884252 130.850864 
L 122.898456 131.68431 
L 121.535752 133.163673 
L 119.958029 134.974019 
L 119.064216 136.313996 
L 117.568389 138.638214 
L 116.465086 140.967333 
L 115.715099 142.585708 
L 114.392996 146.738168 
L 113.730989 150.314305 
L 113.600279 151.024148 
L 113.335477 155.376 
M 212.96006 176.87838 
L 213.753653 178.066483 
L 214.609431 179.170128 
L 215.526988 180.189867 
L 216.506669 181.12523 
L 217.549502 181.974823 
L 218.657145 182.736392 
L 219.831851 183.406878 
L 221.076455 183.982432 
L 222.394358 184.458432 
L 223.789538 184.829476 
L 225.228426 185.083283 
L 225.266137 185.088075 
L 226.810623 185.169807 
L 228.443949 185.113302 
L 230.172308 184.908923 
L 231.113324 184.733941 
L 231.990102 184.487724 
L 233.900534 183.817342 
L 235.726383 183.033954 
L 235.921764 182.9233 
L 238.037405 181.604587 
L 239.570184 180.537429 
L 240.271937 179.909656 
L 242.622143 177.653943 
L 242.79789 177.476437 
L 245.091607 174.486736 
L 245.459593 173.98668 
L 247.5794 170.170271 
L 247.691088 169.889492 
L 249.167189 166.111119 
L 250.224136 161.883221 
L 250.423928 160.25159 
L 250.753205 157.556038 
L 250.753205 153.195962 
L 250.423928 150.50041 
L 250.224136 148.868779 
L 249.167189 144.640881 
L 247.691088 140.862508 
L 247.5794 140.581729 
L 245.459593 136.76532 
L 245.091607 136.265264 
L 242.79789 133.275563 
L 242.622143 133.098057 
L 240.271937 130.842344 
L 239.570184 130.214571 
L 238.037405 129.147413 
L 235.921764 127.8287 
L 235.726383 127.718046 
L 233.900534 126.934658 
L 231.990102 126.264276 
L 231.113324 126.018059 
L 230.172308 125.843077 
L 228.443949 125.638698 
L 226.810623 125.582193 
L 225.266137 125.663925 
L 225.228426 125.668717 
L 223.789538 125.922524 
L 222.394358 126.293568 
L 221.076455 126.769568 
L 219.831851 127.345122 
L 218.657145 128.015608 
L 217.549502 128.777177 
L 216.506669 129.62677 
L 215.526988 130.562133 
L 214.609431 131.581872 
L 213.753653 132.685517 
L 212.96006 133.87362 
L 212.734647 134.270055 
L 212.218829 135.181918 
L 211.535443 136.603549 
L 210.928556 138.102744 
L 210.917892 138.129692 
L 210.348848 139.870209 
L 210.062469 140.948714 
L 209.844491 141.814375 
L 209.535304 143.359195 
L 209.400394 144.099429 
L 209.200641 145.503961 
L 209.019066 146.989468 
L 208.973133 147.478711 
L 208.829924 149.333685 
L 208.728248 151.111569 
L 208.703484 151.757977 
L 208.671383 152.836586 
L 208.646175 154.532604 
L 208.646175 156.219396 
L 208.671383 157.915414 
L 208.703484 158.994023 
L 208.728248 159.640431 
L 208.829924 161.418315 
L 208.973133 163.273289 
L 209.019066 163.762532 
L 209.200641 165.248039 
L 209.400394 166.652571 
L 209.535304 167.392805 
L 209.844491 168.937625 
L 210.062469 169.803286 
L 210.348848 170.881791 
L 210.917892 172.622308 
L 210.928556 172.649256 
L 211.535443 174.148451 
L 212.218829 175.570082 
L 212.734647 176.481945 
L 212.96006 176.87838 
z
" clip-path="url(#p8a6332cbda)" style="fill: none; stroke: #e4ff13; stroke-width: 1.5"/>
    <path d="M 119.589525 155.376 
L 119.869388 159.329438 
L 120.709725 163.207697 
L 120.769782 163.370166 
L 122.128766 166.930159 
L 123.094158 168.644148 
L 124.13969 170.408768 
L 125.30201 171.838579 
L 126.791043 173.533803 
L 127.397874 174.053829 
L 129.388424 175.594711 
L 130.19903 176.144981 
L 131.278645 176.69138 
L 133.071298 177.436578 
L 134.684755 177.935016 
L 134.76674 177.951692 
L 136.381664 178.152268 
L 137.907613 178.180257 
L 139.349549 178.045282 
L 140.711794 177.755729 
L 141.998048 177.318776 
L 143.211392 176.740395 
L 144.354277 176.025342 
L 145.428504 175.177112 
L 146.43519 174.197872 
L 147.374712 173.088351 
L 148.246628 171.847691 
L 148.541117 171.339359 
L 149.057257 170.40162 
L 149.803125 168.75496 
L 150.00196 168.217084 
L 150.486227 166.78259 
L 150.794417 165.650335 
L 151.104359 164.339707 
L 151.287963 163.364765 
L 151.610691 161.247984 
L 151.657257 160.833277 
L 151.798626 159.240157 
L 151.903614 157.293603 
L 151.93827 155.376 
M 151.93827 155.376 
L 151.903614 153.458397 
L 151.798626 151.511843 
L 151.657257 149.918723 
L 151.610691 149.504016 
L 151.287963 147.387235 
L 151.104359 146.412293 
L 150.794417 145.101665 
L 150.486227 143.96941 
L 150.00196 142.534916 
L 149.803125 141.99704 
L 149.057257 140.35038 
L 148.541117 139.412641 
L 148.246628 138.904309 
L 147.374712 137.663649 
L 146.43519 136.554128 
L 145.428504 135.574888 
L 144.354277 134.726658 
L 143.211392 134.011605 
L 141.998048 133.433224 
L 140.711794 132.996271 
L 139.349549 132.706718 
L 137.907613 132.571743 
L 136.381664 132.599732 
L 134.76674 132.800308 
L 134.684755 132.816984 
L 133.071298 133.315422 
L 131.278645 134.06062 
L 130.19903 134.607019 
L 129.388424 135.157289 
L 127.397874 136.698171 
L 126.791043 137.218197 
L 125.30201 138.913421 
L 124.13969 140.343232 
L 123.094158 142.107852 
L 122.128766 143.821841 
L 120.769782 147.381834 
L 120.709725 147.544303 
L 119.869388 151.422562 
L 119.589525 155.376 
M 217.721128 174.211085 
L 218.724752 175.170525 
L 219.797074 176.006492 
L 220.939232 176.716942 
L 222.153058 177.298583 
L 223.441044 177.746932 
L 224.806324 178.056361 
L 226.252661 178.220105 
L 226.394696 178.223135 
L 227.774576 178.157922 
L 229.3831 177.904578 
L 231.084741 177.455609 
L 231.886047 177.174502 
L 232.87692 176.692601 
L 234.765618 175.589682 
L 235.765242 174.916763 
L 236.75658 174.031379 
L 238.778993 172.025079 
L 238.855058 171.923392 
L 241.062097 168.766656 
L 241.101419 168.707154 
L 242.807391 165.09348 
L 243.38472 163.169509 
L 243.935484 161.282727 
L 244.495396 157.35739 
L 244.495396 153.39461 
L 243.935484 149.469273 
L 243.38472 147.582491 
L 242.807391 145.65852 
L 241.101419 142.044846 
L 241.062097 141.985344 
L 238.855058 138.828608 
L 238.778993 138.726921 
L 236.75658 136.720621 
L 235.765242 135.835237 
L 234.765618 135.162318 
L 232.87692 134.059399 
L 231.886047 133.577498 
L 231.084741 133.296391 
L 229.3831 132.847422 
L 227.774576 132.594078 
L 226.394696 132.528865 
L 226.252661 132.531895 
L 224.806324 132.695639 
L 223.441044 133.005068 
L 222.153058 133.453417 
L 220.939232 134.035058 
L 219.797074 134.745508 
L 218.724752 135.581475 
L 217.721128 136.540915 
L 217.009112 137.36747 
L 216.783864 137.637474 
L 215.906753 138.920704 
L 215.097543 140.346582 
L 214.758186 141.073425 
L 214.351389 142.007142 
L 213.689581 143.870121 
L 213.67058 143.929858 
L 213.071668 146.275273 
L 213.051671 146.367966 
L 212.692853 148.461203 
L 212.497408 149.933049 
L 212.436004 150.518286 
L 212.29482 152.49059 
L 212.225253 154.41899 
L 212.225253 156.33301 
L 212.29482 158.26141 
L 212.436004 160.233714 
L 212.497408 160.818951 
L 212.692853 162.290797 
L 213.051671 164.384034 
L 213.071668 164.476727 
L 213.67058 166.822142 
L 213.689581 166.881879 
L 214.351389 168.744858 
L 214.758186 169.678575 
L 215.097543 170.405418 
L 215.906753 171.831296 
L 216.783864 173.114526 
L 217.009112 173.38453 
L 217.721128 174.211085 
z
" clip-path="url(#p8a6332cbda)" style="fill: none; stroke: #ff9400; stroke-width: 1.5"/>
    <path d="M 126.494073 155.376 
L 126.82507 158.887391 
L 127.204688 160.203773 
L 127.852248 162.296174 
L 129.140693 164.666409 
L 129.635654 165.483325 
L 130.976962 166.956381 
L 132.394345 168.266981 
L 132.715713 168.475252 
L 134.364253 169.320981 
L 135.921994 169.85748 
L 137.291198 170.08522 
L 137.393886 170.092772 
L 138.785744 169.988762 
L 140.097143 169.663692 
L 141.330789 169.124996 
L 142.488441 168.37828 
L 142.488669 168.378122 
L 143.576014 167.312597 
L 144.59077 165.999861 
L 145.227813 164.937157 
L 145.534332 164.329524 
L 146.344405 162.262977 
L 146.408957 162.045886 
L 146.9119 159.863797 
L 147.215189 157.757898 
L 147.233952 157.590369 
L 147.317822 155.376 
M 147.317822 155.376 
L 147.233952 153.161631 
L 147.215189 152.994102 
L 146.9119 150.888203 
L 146.408957 148.706114 
L 146.344405 148.489023 
L 145.534332 146.422476 
L 145.227813 145.814843 
L 144.59077 144.752139 
L 143.576014 143.439403 
L 142.488669 142.373878 
L 142.488441 142.37372 
L 141.330789 141.627004 
L 140.097143 141.088308 
L 138.785744 140.763238 
L 137.393886 140.659228 
L 137.291198 140.66678 
L 135.921994 140.89452 
L 134.364253 141.431019 
L 132.715713 142.276748 
L 132.394345 142.485019 
L 130.976962 143.795619 
L 129.635654 145.268675 
L 129.140693 146.085591 
L 127.852248 148.455826 
L 127.204688 150.548227 
L 126.82507 151.864609 
L 126.494073 155.376 
M 220.578667 167.316604 
L 221.664061 168.31743 
L 222.823174 169.093799 
L 224.057224 169.641999 
L 225.368179 169.956043 
L 226.758714 170.027783 
L 228.232189 169.846987 
L 229.792645 169.401359 
L 229.813663 169.392621 
L 231.438187 168.412297 
L 233.178967 167.052569 
L 233.297106 166.944472 
L 235.013997 164.674603 
L 235.515579 163.926707 
L 236.913898 160.612247 
L 236.950403 160.432487 
L 237.578074 157.137807 
L 237.578074 153.614193 
L 236.950403 150.319513 
L 236.913898 150.139753 
L 235.515579 146.825293 
L 235.013997 146.077397 
L 233.297106 143.807528 
L 233.178967 143.699431 
L 231.438187 142.339703 
L 229.813663 141.359379 
L 229.792645 141.350641 
L 228.232189 140.905013 
L 226.758714 140.724217 
L 225.368179 140.795957 
L 224.057224 141.110001 
L 222.823174 141.658201 
L 221.664061 142.43457 
L 220.578667 143.435396 
L 219.890035 144.27322 
L 219.56497 144.72382 
L 218.620183 146.431928 
L 218.289133 147.197228 
L 217.745435 148.766444 
L 217.490399 149.709525 
L 217.05156 152.036376 
L 216.93966 153.188016 
L 216.857997 154.271929 
L 216.857997 156.480071 
L 216.93966 157.563984 
L 217.05156 158.715624 
L 217.490399 161.042475 
L 217.745435 161.985556 
L 218.289133 163.554772 
L 218.620183 164.320072 
L 219.56497 166.02818 
L 219.890035 166.47878 
L 220.578667 167.316604 
z
" clip-path="url(#p8a6332cbda)" style="fill: none; stroke: #ff1e00; stroke-width: 1.5"/>
    <path clip-path="url(#p8a6332cbda)" style="fill: none; stroke: #800000; stroke-width: 1.5"/>
   </g>
   <g id="patch_3">
    <path d="M 49.004687 288.432 
L 49.004687 22.32 
" style="fill: none; stroke: #000000; stroke-width: 0.8; stroke-linejoin: miter; stroke-linecap: square"/>
   </g>
   <g id="patch_4">
    <path d="M 315.116687 288.432 
L 315.116687 22.32 
" style="fill: none; stroke: #000000; stroke-width: 0.8; stroke-linejoin: miter; stroke-linecap: square"/>
   </g>
   <g id="patch_5">
    <path d="M 49.004687 288.432 
L 315.116687 288.432 
" style="fill: none; stroke: #000000; stroke-width: 0.8; stroke-linejoin: miter; stroke-linecap: square"/>
   </g>
   <g id="patch_6">
    <path d="M 49.004687 22.32 
L 315.116687 22.32 
" style="fill: none; stroke: #000000; stroke-width: 0.8; stroke-linejoin: miter; stroke-linecap: square"/>
   </g>
   <g id="text_13">
    <!-- $\mathbb{R}\;[\Psi_{2p}]$ -->
    <g transform="translate(161.300687 16.32) scale(0.12 -0.12)">
     <defs>
      <path id="STIXGeneral-Italic-211d" d="M 1229 4179 
L 3360 4179 
Q 3827 4179 4108 3894 
Q 4390 3610 4390 3142 
Q 4390 2554 4060 2186 
Q 3731 1818 3149 1715 
L 4026 0 
L 2925 0 
L 2125 1690 
L 1549 1690 
L 1094 0 
L 109 0 
L 1229 4179 
z
M 3866 3821 
L 3392 2022 
Q 3770 2144 3962 2438 
Q 4154 2733 4154 3136 
Q 4154 3584 3866 3821 
z
M 3142 1978 
L 3648 3872 
Q 3450 3942 3296 3942 
L 2150 3942 
L 1613 1926 
L 2630 1926 
Q 2957 1926 3142 1978 
z
M 3629 237 
L 2899 1696 
Q 2829 1683 2682 1683 
Q 2630 1683 2531 1686 
Q 2432 1690 2387 1690 
L 3072 237 
L 3629 237 
z
M 1907 3942 
L 1408 3942 
L 416 237 
L 915 237 
L 1907 3942 
z
" transform="scale(0.015625)"/>
      <path id="DejaVuSans-3a8" d="M 2206 0 
Q 2209 419 2206 969 
Q 1538 969 950 1625 
Q 375 2263 359 3388 
L 359 4666 
L 1025 4666 
L 1025 3388 
Q 1025 2506 1431 1994 
Q 1775 1556 2206 1513 
L 2206 4666 
L 2838 4666 
L 2838 1513 
Q 3269 1556 3613 1994 
Q 4019 2506 4019 3388 
L 4019 4666 
L 4684 4666 
L 4684 3388 
Q 4669 2263 4094 1625 
Q 3506 969 2838 969 
Q 2834 744 2838 0 
L 2206 0 
z
" transform="scale(0.015625)"/>
      <path id="DejaVuSans-32" d="M 1228 531 
L 3431 531 
L 3431 0 
L 469 0 
L 469 531 
Q 828 903 1448 1529 
Q 2069 2156 2228 2338 
Q 2531 2678 2651 2914 
Q 2772 3150 2772 3378 
Q 2772 3750 2511 3984 
Q 2250 4219 1831 4219 
Q 1534 4219 1204 4116 
Q 875 4013 500 3803 
L 500 4441 
Q 881 4594 1212 4672 
Q 1544 4750 1819 4750 
Q 2544 4750 2975 4387 
Q 3406 4025 3406 3419 
Q 3406 3131 3298 2873 
Q 3191 2616 2906 2266 
Q 2828 2175 2409 1742 
Q 1991 1309 1228 531 
z
" transform="scale(0.015625)"/>
      <path id="DejaVuSans-Oblique-70" d="M 3175 2156 
Q 3175 2616 2975 2859 
Q 2775 3103 2400 3103 
Q 2144 3103 1911 2972 
Q 1678 2841 1497 2591 
Q 1319 2344 1212 1994 
Q 1106 1644 1106 1300 
Q 1106 863 1306 627 
Q 1506 391 1875 391 
Q 2147 391 2380 519 
Q 2613 647 2778 891 
Q 2956 1147 3065 1494 
Q 3175 1841 3175 2156 
z
M 1394 2969 
Q 1625 3272 1939 3428 
Q 2253 3584 2638 3584 
Q 3175 3584 3472 3232 
Q 3769 2881 3769 2247 
Q 3769 1728 3584 1258 
Q 3400 788 3053 416 
Q 2822 169 2531 39 
Q 2241 -91 1919 -91 
Q 1547 -91 1294 64 
Q 1041 219 916 525 
L 556 -1331 
L -19 -1331 
L 922 3500 
L 1497 3500 
L 1394 2969 
z
" transform="scale(0.015625)"/>
     </defs>
     <use xlink:href="#STIXGeneral-Italic-211d" transform="translate(0 0.015625)"/>
     <use xlink:href="#DejaVuSans-5b" transform="translate(95.759117 0.015625)"/>
     <use xlink:href="#DejaVuSans-3a8" transform="translate(134.772789 0.015625)"/>
     <use xlink:href="#DejaVuSans-32" transform="translate(214.440758 -16.390625) scale(0.7)"/>
     <use xlink:href="#DejaVuSans-Oblique-70" transform="translate(258.976891 -16.390625) scale(0.7)"/>
     <use xlink:href="#DejaVuSans-5d" transform="translate(306.14486 0.015625)"/>
    </g>
   </g>
  </g>
 </g>
 <defs>
  <clipPath id="p8a6332cbda">
   <rect x="49.004687" y="22.32" width="266.112" height="266.112"/>
  </clipPath>
 </defs>
</svg>
