<?xml version="1.0" encoding="utf-8" standalone="no"?>
<!DOCTYPE svg PUBLIC "-//W3C//DTD SVG 1.1//EN"
  "http://www.w3.org/Graphics/SVG/1.1/DTD/svg11.dtd">
<svg xmlns:xlink="http://www.w3.org/1999/xlink" width="422.523437pt" height="325.986375pt" viewBox="0 0 422.523437 325.986375" xmlns="http://www.w3.org/2000/svg" version="1.1">
 <metadata>
  <rdf:RDF xmlns:dc="http://purl.org/dc/elements/1.1/" xmlns:cc="http://creativecommons.org/ns#" xmlns:rdf="http://www.w3.org/1999/02/22-rdf-syntax-ns#">
   <cc:Work>
    <dc:type rdf:resource="http://purl.org/dc/dcmitype/StillImage"/>
    <dc:date>2026-04-15T18:15:35.344734</dc:date>
    <dc:format>image/svg+xml</dc:format>
    <dc:creator>
     <cc:Agent>
      <dc:title>Matplotlib v3.10.8, https://matplotlib.org/</dc:title>
     </cc:Agent>
    </dc:creator>
   </cc:Work>
  </rdf:RDF>
 </metadata>
 <defs>
  <style type="text/css">*{stroke-linejoin: round; stroke-linecap: butt}</style>
 </defs>
 <g id="figure_1">
  <g id="patch_1">
   <path d="M 0 325.986375 
L 422.523437 325.986375 
L 422.523437 0 
L 0 0 
z
" style="fill: #ffffff"/>
  </g>
  <g id="axes_1">
   <g id="patch_2">
    <path d="M 52.182813 288.430125 
L 409.302813 288.430125 
L 409.302813 22.318125 
L 52.182813 22.318125 
z
" style="fill: #ffffff"/>
   </g>
   <g id="matplotlib.axis_1">
    <g id="xtick_1">
     <g id="line2d_1">
      <path d="M 68.41554 288.430125 
L 68.41554 22.318125 
" clip-path="url(#p97357ebc15)" style="fill: none; stroke: #b0b0b0; stroke-opacity: 0.5; stroke-width: 0.8; stroke-linecap: square"/>
     </g>
     <g id="line2d_2">
      <defs>
       <path id="m26954ce0c7" d="M 0 0 
L 0 3.5 
" style="stroke: #000000; stroke-width: 0.8"/>
      </defs>
      <g>
       <use xlink:href="#m26954ce0c7" x="68.41554" y="288.430125" style="stroke: #000000; stroke-width: 0.8"/>
      </g>
     </g>
     <g id="text_1">
      <!-- −4 -->
      <g transform="translate(61.044446 303.028562) scale(0.1 -0.1)">
       <defs>
        <path id="DejaVuSans-2212" d="M 678 2272 
L 4684 2272 
L 4684 1741 
L 678 1741 
L 678 2272 
z
" transform="scale(0.015625)"/>
        <path id="DejaVuSans-34" d="M 2419 4116 
L 825 1625 
L 2419 1625 
L 2419 4116 
z
M 2253 4666 
L 3047 4666 
L 3047 1625 
L 3713 1625 
L 3713 1100 
L 3047 1100 
L 3047 0 
L 2419 0 
L 2419 1100 
L 313 1100 
L 313 1709 
L 2253 4666 
z
" transform="scale(0.015625)"/>
       </defs>
       <use xlink:href="#DejaVuSans-2212"/>
       <use xlink:href="#DejaVuSans-34" transform="translate(83.789062 0)"/>
      </g>
     </g>
    </g>
    <g id="xtick_2">
     <g id="line2d_3">
      <path d="M 108.997358 288.430125 
L 108.997358 22.318125 
" clip-path="url(#p97357ebc15)" style="fill: none; stroke: #b0b0b0; stroke-opacity: 0.5; stroke-width: 0.8; stroke-linecap: square"/>
     </g>
     <g id="line2d_4">
      <g>
       <use xlink:href="#m26954ce0c7" x="108.997358" y="288.430125" style="stroke: #000000; stroke-width: 0.8"/>
      </g>
     </g>
     <g id="text_2">
      <!-- −3 -->
      <g transform="translate(101.626264 303.028562) scale(0.1 -0.1)">
       <defs>
        <path id="DejaVuSans-33" d="M 2597 2516 
Q 3050 2419 3304 2112 
Q 3559 1806 3559 1356 
Q 3559 666 3084 287 
Q 2609 -91 1734 -91 
Q 1441 -91 1130 -33 
Q 819 25 488 141 
L 488 750 
Q 750 597 1062 519 
Q 1375 441 1716 441 
Q 2309 441 2620 675 
Q 2931 909 2931 1356 
Q 2931 1769 2642 2001 
Q 2353 2234 1838 2234 
L 1294 2234 
L 1294 2753 
L 1863 2753 
Q 2328 2753 2575 2939 
Q 2822 3125 2822 3475 
Q 2822 3834 2567 4026 
Q 2313 4219 1838 4219 
Q 1578 4219 1281 4162 
Q 984 4106 628 3988 
L 628 4550 
Q 988 4650 1302 4700 
Q 1616 4750 1894 4750 
Q 2613 4750 3031 4423 
Q 3450 4097 3450 3541 
Q 3450 3153 3228 2886 
Q 3006 2619 2597 2516 
z
" transform="scale(0.015625)"/>
       </defs>
       <use xlink:href="#DejaVuSans-2212"/>
       <use xlink:href="#DejaVuSans-33" transform="translate(83.789062 0)"/>
      </g>
     </g>
    </g>
    <g id="xtick_3">
     <g id="line2d_5">
      <path d="M 149.579176 288.430125 
L 149.579176 22.318125 
" clip-path="url(#p97357ebc15)" style="fill: none; stroke: #b0b0b0; stroke-opacity: 0.5; stroke-width: 0.8; stroke-linecap: square"/>
     </g>
     <g id="line2d_6">
      <g>
       <use xlink:href="#m26954ce0c7" x="149.579176" y="288.430125" style="stroke: #000000; stroke-width: 0.8"/>
      </g>
     </g>
     <g id="text_3">
      <!-- −2 -->
      <g transform="translate(142.208082 303.028562) scale(0.1 -0.1)">
       <defs>
        <path id="DejaVuSans-32" d="M 1228 531 
L 3431 531 
L 3431 0 
L 469 0 
L 469 531 
Q 828 903 1448 1529 
Q 2069 2156 2228 2338 
Q 2531 2678 2651 2914 
Q 2772 3150 2772 3378 
Q 2772 3750 2511 3984 
Q 2250 4219 1831 4219 
Q 1534 4219 1204 4116 
Q 875 4013 500 3803 
L 500 4441 
Q 881 4594 1212 4672 
Q 1544 4750 1819 4750 
Q 2544 4750 2975 4387 
Q 3406 4025 3406 3419 
Q 3406 3131 3298 2873 
Q 3191 2616 2906 2266 
Q 2828 2175 2409 1742 
Q 1991 1309 1228 531 
z
" transform="scale(0.015625)"/>
       </defs>
       <use xlink:href="#DejaVuSans-2212"/>
       <use xlink:href="#DejaVuSans-32" transform="translate(83.789062 0)"/>
      </g>
     </g>
    </g>
    <g id="xtick_4">
     <g id="line2d_7">
      <path d="M 190.160994 288.430125 
L 190.160994 22.318125 
" clip-path="url(#p97357ebc15)" style="fill: none; stroke: #b0b0b0; stroke-opacity: 0.5; stroke-width: 0.8; stroke-linecap: square"/>
     </g>
     <g id="line2d_8">
      <g>
       <use xlink:href="#m26954ce0c7" x="190.160994" y="288.430125" style="stroke: #000000; stroke-width: 0.8"/>
      </g>
     </g>
     <g id="text_4">
      <!-- −1 -->
      <g transform="translate(182.789901 303.028562) scale(0.1 -0.1)">
       <defs>
        <path id="DejaVuSans-31" d="M 794 531 
L 1825 531 
L 1825 4091 
L 703 3866 
L 703 4441 
L 1819 4666 
L 2450 4666 
L 2450 531 
L 3481 531 
L 3481 0 
L 794 0 
L 794 531 
z
" transform="scale(0.015625)"/>
       </defs>
       <use xlink:href="#DejaVuSans-2212"/>
       <use xlink:href="#DejaVuSans-31" transform="translate(83.789062 0)"/>
      </g>
     </g>
    </g>
    <g id="xtick_5">
     <g id="line2d_9">
      <path d="M 230.742813 288.430125 
L 230.742813 22.318125 
" clip-path="url(#p97357ebc15)" style="fill: none; stroke: #b0b0b0; stroke-opacity: 0.5; stroke-width: 0.8; stroke-linecap: square"/>
     </g>
     <g id="line2d_10">
      <g>
       <use xlink:href="#m26954ce0c7" x="230.742813" y="288.430125" style="stroke: #000000; stroke-width: 0.8"/>
      </g>
     </g>
     <g id="text_5">
      <!-- 0 -->
      <g transform="translate(227.561563 303.028562) scale(0.1 -0.1)">
       <defs>
        <path id="DejaVuSans-30" d="M 2034 4250 
Q 1547 4250 1301 3770 
Q 1056 3291 1056 2328 
Q 1056 1369 1301 889 
Q 1547 409 2034 409 
Q 2525 409 2770 889 
Q 3016 1369 3016 2328 
Q 3016 3291 2770 3770 
Q 2525 4250 2034 4250 
z
M 2034 4750 
Q 2819 4750 3233 4129 
Q 3647 3509 3647 2328 
Q 3647 1150 3233 529 
Q 2819 -91 2034 -91 
Q 1250 -91 836 529 
Q 422 1150 422 2328 
Q 422 3509 836 4129 
Q 1250 4750 2034 4750 
z
" transform="scale(0.015625)"/>
       </defs>
       <use xlink:href="#DejaVuSans-30"/>
      </g>
     </g>
    </g>
    <g id="xtick_6">
     <g id="line2d_11">
      <path d="M 271.324631 288.430125 
L 271.324631 22.318125 
" clip-path="url(#p97357ebc15)" style="fill: none; stroke: #b0b0b0; stroke-opacity: 0.5; stroke-width: 0.8; stroke-linecap: square"/>
     </g>
     <g id="line2d_12">
      <g>
       <use xlink:href="#m26954ce0c7" x="271.324631" y="288.430125" style="stroke: #000000; stroke-width: 0.8"/>
      </g>
     </g>
     <g id="text_6">
      <!-- 1 -->
      <g transform="translate(268.143381 303.028562) scale(0.1 -0.1)">
       <use xlink:href="#DejaVuSans-31"/>
      </g>
     </g>
    </g>
    <g id="xtick_7">
     <g id="line2d_13">
      <path d="M 311.906449 288.430125 
L 311.906449 22.318125 
" clip-path="url(#p97357ebc15)" style="fill: none; stroke: #b0b0b0; stroke-opacity: 0.5; stroke-width: 0.8; stroke-linecap: square"/>
     </g>
     <g id="line2d_14">
      <g>
       <use xlink:href="#m26954ce0c7" x="311.906449" y="288.430125" style="stroke: #000000; stroke-width: 0.8"/>
      </g>
     </g>
     <g id="text_7">
      <!-- 2 -->
      <g transform="translate(308.725199 303.028562) scale(0.1 -0.1)">
       <use xlink:href="#DejaVuSans-32"/>
      </g>
     </g>
    </g>
    <g id="xtick_8">
     <g id="line2d_15">
      <path d="M 352.488267 288.430125 
L 352.488267 22.318125 
" clip-path="url(#p97357ebc15)" style="fill: none; stroke: #b0b0b0; stroke-opacity: 0.5; stroke-width: 0.8; stroke-linecap: square"/>
     </g>
     <g id="line2d_16">
      <g>
       <use xlink:href="#m26954ce0c7" x="352.488267" y="288.430125" style="stroke: #000000; stroke-width: 0.8"/>
      </g>
     </g>
     <g id="text_8">
      <!-- 3 -->
      <g transform="translate(349.307017 303.028562) scale(0.1 -0.1)">
       <use xlink:href="#DejaVuSans-33"/>
      </g>
     </g>
    </g>
    <g id="xtick_9">
     <g id="line2d_17">
      <path d="M 393.070085 288.430125 
L 393.070085 22.318125 
" clip-path="url(#p97357ebc15)" style="fill: none; stroke: #b0b0b0; stroke-opacity: 0.5; stroke-width: 0.8; stroke-linecap: square"/>
     </g>
     <g id="line2d_18">
      <g>
       <use xlink:href="#m26954ce0c7" x="393.070085" y="288.430125" style="stroke: #000000; stroke-width: 0.8"/>
      </g>
     </g>
     <g id="text_9">
      <!-- 4 -->
      <g transform="translate(389.888835 303.028562) scale(0.1 -0.1)">
       <use xlink:href="#DejaVuSans-34"/>
      </g>
     </g>
    </g>
    <g id="text_10">
     <!-- $y$ -->
     <g transform="translate(227.742813 316.686375) scale(0.1 -0.1)">
      <defs>
       <path id="DejaVuSans-Oblique-79" d="M 1588 -325 
Q 1188 -997 936 -1164 
Q 684 -1331 294 -1331 
L -159 -1331 
L -63 -850 
L 269 -850 
Q 509 -850 678 -719 
Q 847 -588 1056 -206 
L 1234 128 
L 459 3500 
L 1069 3500 
L 1650 819 
L 3256 3500 
L 3859 3500 
L 1588 -325 
z
" transform="scale(0.015625)"/>
      </defs>
      <use xlink:href="#DejaVuSans-Oblique-79" transform="translate(0 0.3125)"/>
     </g>
    </g>
   </g>
   <g id="matplotlib.axis_2">
    <g id="ytick_1">
     <g id="line2d_19">
      <path d="M 52.182813 268.656245 
L 409.302813 268.656245 
" clip-path="url(#p97357ebc15)" style="fill: none; stroke: #b0b0b0; stroke-opacity: 0.5; stroke-width: 0.8; stroke-linecap: square"/>
     </g>
     <g id="line2d_20">
      <defs>
       <path id="m4a45dedbd3" d="M 0 0 
L -3.5 0 
" style="stroke: #000000; stroke-width: 0.8"/>
      </defs>
      <g>
       <use xlink:href="#m4a45dedbd3" x="52.182813" y="268.656245" style="stroke: #000000; stroke-width: 0.8"/>
      </g>
     </g>
     <g id="text_11">
      <!-- −0.6 -->
      <g transform="translate(20.9 272.455464) scale(0.1 -0.1)">
       <defs>
        <path id="DejaVuSans-2e" d="M 684 794 
L 1344 794 
L 1344 0 
L 684 0 
L 684 794 
z
" transform="scale(0.015625)"/>
        <path id="DejaVuSans-36" d="M 2113 2584 
Q 1688 2584 1439 2293 
Q 1191 2003 1191 1497 
Q 1191 994 1439 701 
Q 1688 409 2113 409 
Q 2538 409 2786 701 
Q 3034 994 3034 1497 
Q 3034 2003 2786 2293 
Q 2538 2584 2113 2584 
z
M 3366 4563 
L 3366 3988 
Q 3128 4100 2886 4159 
Q 2644 4219 2406 4219 
Q 1781 4219 1451 3797 
Q 1122 3375 1075 2522 
Q 1259 2794 1537 2939 
Q 1816 3084 2150 3084 
Q 2853 3084 3261 2657 
Q 3669 2231 3669 1497 
Q 3669 778 3244 343 
Q 2819 -91 2113 -91 
Q 1303 -91 875 529 
Q 447 1150 447 2328 
Q 447 3434 972 4092 
Q 1497 4750 2381 4750 
Q 2619 4750 2861 4703 
Q 3103 4656 3366 4563 
z
" transform="scale(0.015625)"/>
       </defs>
       <use xlink:href="#DejaVuSans-2212"/>
       <use xlink:href="#DejaVuSans-30" transform="translate(83.789062 0)"/>
       <use xlink:href="#DejaVuSans-2e" transform="translate(147.412109 0)"/>
       <use xlink:href="#DejaVuSans-36" transform="translate(179.199219 0)"/>
      </g>
     </g>
    </g>
    <g id="ytick_2">
     <g id="line2d_21">
      <path d="M 52.182813 233.981998 
L 409.302813 233.981998 
" clip-path="url(#p97357ebc15)" style="fill: none; stroke: #b0b0b0; stroke-opacity: 0.5; stroke-width: 0.8; stroke-linecap: square"/>
     </g>
     <g id="line2d_22">
      <g>
       <use xlink:href="#m4a45dedbd3" x="52.182813" y="233.981998" style="stroke: #000000; stroke-width: 0.8"/>
      </g>
     </g>
     <g id="text_12">
      <!-- −0.4 -->
      <g transform="translate(20.9 237.781217) scale(0.1 -0.1)">
       <use xlink:href="#DejaVuSans-2212"/>
       <use xlink:href="#DejaVuSans-30" transform="translate(83.789062 0)"/>
       <use xlink:href="#DejaVuSans-2e" transform="translate(147.412109 0)"/>
       <use xlink:href="#DejaVuSans-34" transform="translate(179.199219 0)"/>
      </g>
     </g>
    </g>
    <g id="ytick_3">
     <g id="line2d_23">
      <path d="M 52.182813 199.307751 
L 409.302813 199.307751 
" clip-path="url(#p97357ebc15)" style="fill: none; stroke: #b0b0b0; stroke-opacity: 0.5; stroke-width: 0.8; stroke-linecap: square"/>
     </g>
     <g id="line2d_24">
      <g>
       <use xlink:href="#m4a45dedbd3" x="52.182813" y="199.307751" style="stroke: #000000; stroke-width: 0.8"/>
      </g>
     </g>
     <g id="text_13">
      <!-- −0.2 -->
      <g transform="translate(20.9 203.10697) scale(0.1 -0.1)">
       <use xlink:href="#DejaVuSans-2212"/>
       <use xlink:href="#DejaVuSans-30" transform="translate(83.789062 0)"/>
       <use xlink:href="#DejaVuSans-2e" transform="translate(147.412109 0)"/>
       <use xlink:href="#DejaVuSans-32" transform="translate(179.199219 0)"/>
      </g>
     </g>
    </g>
    <g id="ytick_4">
     <g id="line2d_25">
      <path d="M 52.182813 164.633504 
L 409.302813 164.633504 
" clip-path="url(#p97357ebc15)" style="fill: none; stroke: #b0b0b0; stroke-opacity: 0.5; stroke-width: 0.8; stroke-linecap: square"/>
     </g>
     <g id="line2d_26">
      <g>
       <use xlink:href="#m4a45dedbd3" x="52.182813" y="164.633504" style="stroke: #000000; stroke-width: 0.8"/>
      </g>
     </g>
     <g id="text_14">
      <!-- 0.0 -->
      <g transform="translate(29.279688 168.432723) scale(0.1 -0.1)">
       <use xlink:href="#DejaVuSans-30"/>
       <use xlink:href="#DejaVuSans-2e" transform="translate(63.623047 0)"/>
       <use xlink:href="#DejaVuSans-30" transform="translate(95.410156 0)"/>
      </g>
     </g>
    </g>
    <g id="ytick_5">
     <g id="line2d_27">
      <path d="M 52.182813 129.959257 
L 409.302813 129.959257 
" clip-path="url(#p97357ebc15)" style="fill: none; stroke: #b0b0b0; stroke-opacity: 0.5; stroke-width: 0.8; stroke-linecap: square"/>
     </g>
     <g id="line2d_28">
      <g>
       <use xlink:href="#m4a45dedbd3" x="52.182813" y="129.959257" style="stroke: #000000; stroke-width: 0.8"/>
      </g>
     </g>
     <g id="text_15">
      <!-- 0.2 -->
      <g transform="translate(29.279688 133.758476) scale(0.1 -0.1)">
       <use xlink:href="#DejaVuSans-30"/>
       <use xlink:href="#DejaVuSans-2e" transform="translate(63.623047 0)"/>
       <use xlink:href="#DejaVuSans-32" transform="translate(95.410156 0)"/>
      </g>
     </g>
    </g>
    <g id="ytick_6">
     <g id="line2d_29">
      <path d="M 52.182813 95.28501 
L 409.302813 95.28501 
" clip-path="url(#p97357ebc15)" style="fill: none; stroke: #b0b0b0; stroke-opacity: 0.5; stroke-width: 0.8; stroke-linecap: square"/>
     </g>
     <g id="line2d_30">
      <g>
       <use xlink:href="#m4a45dedbd3" x="52.182813" y="95.28501" style="stroke: #000000; stroke-width: 0.8"/>
      </g>
     </g>
     <g id="text_16">
      <!-- 0.4 -->
      <g transform="translate(29.279688 99.084229) scale(0.1 -0.1)">
       <use xlink:href="#DejaVuSans-30"/>
       <use xlink:href="#DejaVuSans-2e" transform="translate(63.623047 0)"/>
       <use xlink:href="#DejaVuSans-34" transform="translate(95.410156 0)"/>
      </g>
     </g>
    </g>
    <g id="ytick_7">
     <g id="line2d_31">
      <path d="M 52.182813 60.610763 
L 409.302813 60.610763 
" clip-path="url(#p97357ebc15)" style="fill: none; stroke: #b0b0b0; stroke-opacity: 0.5; stroke-width: 0.8; stroke-linecap: square"/>
     </g>
     <g id="line2d_32">
      <g>
       <use xlink:href="#m4a45dedbd3" x="52.182813" y="60.610763" style="stroke: #000000; stroke-width: 0.8"/>
      </g>
     </g>
     <g id="text_17">
      <!-- 0.6 -->
      <g transform="translate(29.279688 64.409982) scale(0.1 -0.1)">
       <use xlink:href="#DejaVuSans-30"/>
       <use xlink:href="#DejaVuSans-2e" transform="translate(63.623047 0)"/>
       <use xlink:href="#DejaVuSans-36" transform="translate(95.410156 0)"/>
      </g>
     </g>
    </g>
    <g id="ytick_8">
     <g id="line2d_33">
      <path d="M 52.182813 25.936517 
L 409.302813 25.936517 
" clip-path="url(#p97357ebc15)" style="fill: none; stroke: #b0b0b0; stroke-opacity: 0.5; stroke-width: 0.8; stroke-linecap: square"/>
     </g>
     <g id="line2d_34">
      <g>
       <use xlink:href="#m4a45dedbd3" x="52.182813" y="25.936517" style="stroke: #000000; stroke-width: 0.8"/>
      </g>
     </g>
     <g id="text_18">
      <!-- 0.8 -->
      <g transform="translate(29.279688 29.735735) scale(0.1 -0.1)">
       <defs>
        <path id="DejaVuSans-38" d="M 2034 2216 
Q 1584 2216 1326 1975 
Q 1069 1734 1069 1313 
Q 1069 891 1326 650 
Q 1584 409 2034 409 
Q 2484 409 2743 651 
Q 3003 894 3003 1313 
Q 3003 1734 2745 1975 
Q 2488 2216 2034 2216 
z
M 1403 2484 
Q 997 2584 770 2862 
Q 544 3141 544 3541 
Q 544 4100 942 4425 
Q 1341 4750 2034 4750 
Q 2731 4750 3128 4425 
Q 3525 4100 3525 3541 
Q 3525 3141 3298 2862 
Q 3072 2584 2669 2484 
Q 3125 2378 3379 2068 
Q 3634 1759 3634 1313 
Q 3634 634 3220 271 
Q 2806 -91 2034 -91 
Q 1263 -91 848 271 
Q 434 634 434 1313 
Q 434 1759 690 2068 
Q 947 2378 1403 2484 
z
M 1172 3481 
Q 1172 3119 1398 2916 
Q 1625 2713 2034 2713 
Q 2441 2713 2670 2916 
Q 2900 3119 2900 3481 
Q 2900 3844 2670 4047 
Q 2441 4250 2034 4250 
Q 1625 4250 1398 4047 
Q 1172 3844 1172 3481 
z
" transform="scale(0.015625)"/>
       </defs>
       <use xlink:href="#DejaVuSans-30"/>
       <use xlink:href="#DejaVuSans-2e" transform="translate(63.623047 0)"/>
       <use xlink:href="#DejaVuSans-38" transform="translate(95.410156 0)"/>
      </g>
     </g>
    </g>
    <g id="text_19">
     <!-- $\psi_n (y)$ -->
     <g transform="translate(14.8 167.924125) rotate(-90) scale(0.1 -0.1)">
      <defs>
       <path id="DejaVuSans-Oblique-3c8" d="M 1591 -78 
Q 891 38 616 341 
Q 278 713 425 1472 
L 819 3500 
L 1400 3500 
L 1009 1494 
Q 900 922 1119 684 
Q 1313 478 1691 434 
L 2284 3500 
L 2856 3500 
L 2263 438 
Q 2681 481 2928 688 
Q 3247 950 3353 1497 
L 3741 3500 
L 4322 3500 
L 3928 1475 
Q 3775 688 3300 344 
Q 2872 34 2163 -75 
L 1919 -1331 
L 1347 -1331 
L 1591 -78 
z
" transform="scale(0.015625)"/>
       <path id="DejaVuSans-Oblique-6e" d="M 3566 2113 
L 3156 0 
L 2578 0 
L 2988 2091 
Q 3016 2238 3031 2350 
Q 3047 2463 3047 2528 
Q 3047 2791 2881 2937 
Q 2716 3084 2419 3084 
Q 1956 3084 1622 2776 
Q 1288 2469 1184 1941 
L 800 0 
L 225 0 
L 903 3500 
L 1478 3500 
L 1363 2950 
Q 1603 3253 1940 3418 
Q 2278 3584 2650 3584 
Q 3113 3584 3367 3334 
Q 3622 3084 3622 2631 
Q 3622 2519 3608 2391 
Q 3594 2263 3566 2113 
z
" transform="scale(0.015625)"/>
       <path id="DejaVuSans-28" d="M 1984 4856 
Q 1566 4138 1362 3434 
Q 1159 2731 1159 2009 
Q 1159 1288 1364 580 
Q 1569 -128 1984 -844 
L 1484 -844 
Q 1016 -109 783 600 
Q 550 1309 550 2009 
Q 550 2706 781 3412 
Q 1013 4119 1484 4856 
L 1984 4856 
z
" transform="scale(0.015625)"/>
       <path id="DejaVuSans-29" d="M 513 4856 
L 1013 4856 
Q 1481 4119 1714 3412 
Q 1947 2706 1947 2009 
Q 1947 1309 1714 600 
Q 1481 -109 1013 -844 
L 513 -844 
Q 928 -128 1133 580 
Q 1338 1288 1338 2009 
Q 1338 2731 1133 3434 
Q 928 4138 513 4856 
z
" transform="scale(0.015625)"/>
      </defs>
      <use xlink:href="#DejaVuSans-Oblique-3c8" transform="translate(0 0.125)"/>
      <use xlink:href="#DejaVuSans-Oblique-6e" transform="translate(65.966797 -16.28125) scale(0.7)"/>
      <use xlink:href="#DejaVuSans-28" transform="translate(113.066406 0.125)"/>
      <use xlink:href="#DejaVuSans-Oblique-79" transform="translate(152.080078 0.125)"/>
      <use xlink:href="#DejaVuSans-29" transform="translate(211.259766 0.125)"/>
     </g>
    </g>
   </g>
   <g id="line2d_35">
    <path d="M 68.41554 164.589819 
L 85.982018 164.4088 
L 96.391783 164.090617 
L 104.199107 163.625922 
L 110.0546 163.069781 
L 115.259482 162.362384 
L 119.813754 161.527516 
L 123.717416 160.612048 
L 127.621078 159.474707 
L 131.52474 158.076658 
L 134.777792 156.682645 
L 138.030843 155.054012 
L 141.283895 153.165699 
L 144.536946 150.993092 
L 147.789998 148.512799 
L 151.043049 145.703534 
L 154.296101 142.547091 
L 157.549152 139.029386 
L 160.802204 135.141532 
L 164.055256 130.880909 
L 167.308307 126.252185 
L 170.561359 121.268242 
L 174.465021 114.850071 
L 178.368682 108.008377 
L 182.922955 99.594288 
L 190.079668 85.807206 
L 198.537602 69.587371 
L 203.091874 61.386408 
L 206.344926 55.940164 
L 209.597977 50.939546 
L 212.200419 47.317925 
L 214.80286 44.077738 
L 217.405301 41.256484 
L 219.357132 39.435638 
L 221.308963 37.881467 
L 223.260794 36.604508 
L 225.212625 35.613484 
L 227.164456 34.915207 
L 229.116287 34.514496 
L 231.068118 34.414125 
L 233.019949 34.61479 
L 234.97178 35.1151 
L 236.92361 35.911594 
L 238.875441 36.998782 
L 240.827272 38.369206 
L 242.779103 40.013526 
L 244.730934 41.920626 
L 247.333375 44.849907 
L 249.935817 48.189119 
L 252.538258 51.899808 
L 255.791309 56.996608 
L 259.044361 62.521229 
L 262.948023 69.587371 
L 268.152905 79.48858 
L 281.165112 104.451809 
L 285.719384 112.613212 
L 289.623046 119.179784 
L 293.526708 125.283248 
L 296.779759 129.984324 
L 300.032811 134.319191 
L 303.285862 138.281608 
L 306.538914 141.872817 
L 309.791965 145.100537 
L 313.045017 147.977898 
L 316.298068 150.522366 
L 319.55112 152.754692 
L 322.804172 154.697922 
L 326.057223 156.376491 
L 329.310275 157.815425 
L 332.563326 159.039659 
L 336.466988 160.259442 
L 340.37065 161.244744 
L 344.924922 162.146687 
L 350.129805 162.914212 
L 355.985297 163.520544 
L 362.491401 163.96359 
L 370.949335 164.300283 
L 382.66032 164.515566 
L 393.070085 164.589819 
L 393.070085 164.589819 
" clip-path="url(#p97357ebc15)" style="fill: none; stroke: #1f77b4; stroke-width: 1.5; stroke-linecap: square"/>
   </g>
   <g id="line2d_36">
    <path d="M 68.41554 164.880625 
L 77.524084 165.191714 
L 84.680798 165.653117 
L 90.53629 166.261617 
L 95.090563 166.940227 
L 99.644835 167.857148 
L 103.548497 168.881309 
L 106.801548 169.937844 
L 110.0546 171.210207 
L 113.307651 172.729659 
L 116.560703 174.528722 
L 119.163144 176.191444 
L 121.765585 178.07084 
L 124.368027 180.182851 
L 126.970468 182.542248 
L 129.572909 185.162081 
L 132.17535 188.053085 
L 134.777792 191.223025 
L 138.030843 195.583586 
L 141.283895 200.384443 
L 144.536946 205.611225 
L 147.789998 211.23487 
L 151.69366 218.441764 
L 156.247932 227.335414 
L 169.260138 253.186705 
L 172.51319 259.027245 
L 175.115631 263.2967 
L 177.718072 267.111252 
L 179.669903 269.619586 
L 181.621734 271.784077 
L 183.573565 273.568244 
L 184.874786 274.529015 
L 186.176006 275.295205 
L 187.477227 275.857335 
L 188.778447 276.206438 
L 190.079668 276.334125 
L 191.380889 276.232651 
L 192.682109 275.894974 
L 193.98333 275.314817 
L 195.284551 274.486721 
L 196.585771 273.406102 
L 197.886992 272.069298 
L 199.188212 270.473613 
L 200.489433 268.617358 
L 202.441264 265.343284 
L 204.393095 261.484083 
L 206.344926 257.04769 
L 208.296757 252.04771 
L 210.248588 246.503429 
L 212.851029 238.308197 
L 215.45347 229.26427 
L 218.055911 219.461937 
L 221.308963 206.303877 
L 225.212625 189.498046 
L 231.718728 160.205993 
L 237.574221 134.068113 
L 241.477883 117.591811 
L 244.730934 104.815345 
L 247.333375 95.379965 
L 249.935817 86.750085 
L 252.538258 79.008029 
L 254.490089 73.824193 
L 256.44192 69.198145 
L 258.393751 65.145386 
L 260.345582 61.675735 
L 262.297413 58.793395 
L 263.598633 57.19771 
L 264.899854 55.860906 
L 266.201074 54.780287 
L 267.502295 53.952192 
L 268.803516 53.372034 
L 270.104736 53.034357 
L 271.405957 52.932883 
L 272.707178 53.06057 
L 274.008398 53.409673 
L 275.309619 53.971803 
L 276.610839 54.737993 
L 277.91206 55.698764 
L 279.863891 57.482931 
L 281.815722 59.647422 
L 283.767553 62.155756 
L 286.369994 65.970308 
L 288.972435 70.239763 
L 292.225487 76.080303 
L 296.129149 83.605035 
L 304.587083 100.631077 
L 309.791965 110.825244 
L 313.695627 118.032138 
L 317.599289 124.734045 
L 320.852341 129.87747 
L 324.105392 134.590981 
L 327.358444 138.862913 
L 330.611495 142.693884 
L 333.213937 145.448131 
L 335.816378 147.936245 
L 338.418819 150.170197 
L 341.02126 152.163969 
L 344.274312 154.342017 
L 347.527363 156.20096 
L 350.780415 157.773705 
L 354.033467 159.092934 
L 357.286518 160.190217 
L 361.19018 161.255789 
L 365.093842 162.091747 
L 369.648114 162.832468 
L 374.852997 163.438773 
L 380.708489 163.896413 
L 388.515813 164.259593 
L 393.070085 164.386384 
L 393.070085 164.386384 
" clip-path="url(#p97357ebc15)" style="fill: none; stroke: #ff7f0e; stroke-width: 1.5; stroke-linecap: square"/>
   </g>
   <g id="line2d_37">
    <path d="M 68.41554 167.559213 
L 72.319202 168.590478 
L 75.572253 169.678103 
L 78.825305 171.01299 
L 82.078356 172.635562 
L 84.680798 174.169268 
L 87.283239 175.936452 
L 89.88568 177.959063 
L 92.488121 180.258133 
L 95.090563 182.852966 
L 97.693004 185.760198 
L 100.295445 188.99274 
L 102.897886 192.558612 
L 105.500328 196.459702 
L 108.753379 201.798219 
L 112.006431 207.620878 
L 115.259482 213.872233 
L 119.813754 223.178702 
L 131.52474 247.515054 
L 134.127181 252.335426 
L 136.729622 256.674902 
L 138.681453 259.531327 
L 140.633284 261.980822 
L 142.585115 263.964348 
L 143.886336 264.999132 
L 145.187557 265.784334 
L 146.488777 266.303849 
L 147.789998 266.542299 
L 149.091218 266.485198 
L 150.392439 266.119105 
L 151.69366 265.43179 
L 152.99488 264.41239 
L 154.296101 263.051569 
L 155.597322 261.34167 
L 156.898542 259.276865 
L 158.199763 256.85329 
L 159.500983 254.06918 
L 161.452814 249.218638 
L 163.404645 243.569889 
L 165.356476 237.14678 
L 167.308307 229.986044 
L 169.910748 219.379066 
L 172.51319 207.705374 
L 175.766241 191.913295 
L 180.320513 168.412623 
L 186.826616 134.831449 
L 190.079668 119.397827 
L 192.682109 108.274501 
L 194.63394 100.845829 
L 196.585771 94.332308 
L 197.886992 90.551691 
L 199.188212 87.254053 
L 200.489433 84.464933 
L 201.790654 82.206673 
L 203.091874 80.498182 
L 204.393095 79.354713 
L 205.043705 78.998583 
L 205.694316 78.787679 
L 206.344926 78.722799 
L 206.995536 78.804487 
L 207.646146 79.033021 
L 208.296757 79.408417 
L 208.947367 79.930426 
L 210.248588 81.411942 
L 211.549808 83.470204 
L 212.851029 86.09356 
L 214.15225 89.266105 
L 215.45347 92.967762 
L 217.405301 99.458464 
L 219.357132 106.986718 
L 221.308963 115.436568 
L 223.911404 127.905897 
L 227.164456 144.924847 
L 238.224831 204.591287 
L 240.827272 216.741603 
L 242.779103 224.89819 
L 244.730934 232.092612 
L 246.682765 238.214799 
L 247.983986 241.654666 
L 249.285206 244.554868 
L 250.586427 246.8974 
L 251.887648 248.668479 
L 253.188868 249.858591 
L 253.839479 250.233988 
L 254.490089 250.462521 
L 255.140699 250.544209 
L 255.791309 250.479329 
L 256.44192 250.268425 
L 257.09253 249.912295 
L 257.74314 249.411994 
L 259.044361 247.984343 
L 260.345582 245.998828 
L 261.646802 243.472554 
L 262.948023 240.426177 
L 264.249244 236.883668 
L 266.201074 230.699565 
L 268.152905 223.563336 
L 270.104736 215.589503 
L 272.707178 203.87009 
L 275.960229 187.914194 
L 281.165112 160.854385 
L 286.369994 134.107421 
L 289.623046 118.553184 
L 292.225487 107.129458 
L 294.827928 96.814901 
L 296.779759 89.89515 
L 298.73159 83.726723 
L 300.683421 78.342019 
L 302.635252 73.760682 
L 303.936473 71.156924 
L 305.237693 68.913088 
L 306.538914 67.026345 
L 307.840134 65.491832 
L 309.141355 64.302787 
L 310.442576 63.450695 
L 311.743796 62.925438 
L 313.045017 62.715449 
L 314.346238 62.807873 
L 315.647458 63.188726 
L 316.948679 63.843055 
L 318.249899 64.755101 
L 319.55112 65.90845 
L 320.852341 67.286186 
L 322.804172 69.735681 
L 324.756003 72.592106 
L 326.707833 75.796334 
L 329.310275 80.509104 
L 332.563326 86.921565 
L 337.768209 97.826787 
L 344.924922 112.791973 
L 348.828584 120.427899 
L 352.081636 126.341599 
L 355.334687 131.780122 
L 358.587739 136.708397 
L 361.19018 140.274268 
L 363.792621 143.50681 
L 366.395062 146.414042 
L 368.997504 149.008875 
L 371.599945 151.307946 
L 374.202386 153.330556 
L 376.804827 155.09774 
L 379.407269 156.631446 
L 382.66032 158.254018 
L 385.913372 159.588905 
L 389.166423 160.67653 
L 392.419475 161.554354 
L 393.070085 161.707795 
L 393.070085 161.707795 
" clip-path="url(#p97357ebc15)" style="fill: none; stroke: #2ca02c; stroke-width: 1.5; stroke-linecap: square"/>
   </g>
   <g id="patch_3">
    <path d="M 52.182813 288.430125 
L 52.182813 22.318125 
" style="fill: none; stroke: #000000; stroke-width: 0.8; stroke-linejoin: miter; stroke-linecap: square"/>
   </g>
   <g id="patch_4">
    <path d="M 409.302813 288.430125 
L 409.302813 22.318125 
" style="fill: none; stroke: #000000; stroke-width: 0.8; stroke-linejoin: miter; stroke-linecap: square"/>
   </g>
   <g id="patch_5">
    <path d="M 52.182813 288.430125 
L 409.302813 288.430125 
" style="fill: none; stroke: #000000; stroke-width: 0.8; stroke-linejoin: miter; stroke-linecap: square"/>
   </g>
   <g id="patch_6">
    <path d="M 52.182813 22.318125 
L 409.302813 22.318125 
" style="fill: none; stroke: #000000; stroke-width: 0.8; stroke-linejoin: miter; stroke-linecap: square"/>
   </g>
   <g id="text_20">
    <!-- Quantum Harmonic Oscillator Wavefunctions (n= 0, 1, and 3) -->
    <g transform="translate(46.162188 16.318125) scale(0.12 -0.12)">
     <defs>
      <path id="DejaVuSans-51" d="M 2522 4238 
Q 1834 4238 1429 3725 
Q 1025 3213 1025 2328 
Q 1025 1447 1429 934 
Q 1834 422 2522 422 
Q 3209 422 3611 934 
Q 4013 1447 4013 2328 
Q 4013 3213 3611 3725 
Q 3209 4238 2522 4238 
z
M 3406 84 
L 4238 -825 
L 3475 -825 
L 2784 -78 
Q 2681 -84 2626 -87 
Q 2572 -91 2522 -91 
Q 1538 -91 948 567 
Q 359 1225 359 2328 
Q 359 3434 948 4092 
Q 1538 4750 2522 4750 
Q 3503 4750 4090 4092 
Q 4678 3434 4678 2328 
Q 4678 1516 4351 937 
Q 4025 359 3406 84 
z
" transform="scale(0.015625)"/>
      <path id="DejaVuSans-75" d="M 544 1381 
L 544 3500 
L 1119 3500 
L 1119 1403 
Q 1119 906 1312 657 
Q 1506 409 1894 409 
Q 2359 409 2629 706 
Q 2900 1003 2900 1516 
L 2900 3500 
L 3475 3500 
L 3475 0 
L 2900 0 
L 2900 538 
Q 2691 219 2414 64 
Q 2138 -91 1772 -91 
Q 1169 -91 856 284 
Q 544 659 544 1381 
z
M 1991 3584 
L 1991 3584 
z
" transform="scale(0.015625)"/>
      <path id="DejaVuSans-61" d="M 2194 1759 
Q 1497 1759 1228 1600 
Q 959 1441 959 1056 
Q 959 750 1161 570 
Q 1363 391 1709 391 
Q 2188 391 2477 730 
Q 2766 1069 2766 1631 
L 2766 1759 
L 2194 1759 
z
M 3341 1997 
L 3341 0 
L 2766 0 
L 2766 531 
Q 2569 213 2275 61 
Q 1981 -91 1556 -91 
Q 1019 -91 701 211 
Q 384 513 384 1019 
Q 384 1609 779 1909 
Q 1175 2209 1959 2209 
L 2766 2209 
L 2766 2266 
Q 2766 2663 2505 2880 
Q 2244 3097 1772 3097 
Q 1472 3097 1187 3025 
Q 903 2953 641 2809 
L 641 3341 
Q 956 3463 1253 3523 
Q 1550 3584 1831 3584 
Q 2591 3584 2966 3190 
Q 3341 2797 3341 1997 
z
" transform="scale(0.015625)"/>
      <path id="DejaVuSans-6e" d="M 3513 2113 
L 3513 0 
L 2938 0 
L 2938 2094 
Q 2938 2591 2744 2837 
Q 2550 3084 2163 3084 
Q 1697 3084 1428 2787 
Q 1159 2491 1159 1978 
L 1159 0 
L 581 0 
L 581 3500 
L 1159 3500 
L 1159 2956 
Q 1366 3272 1645 3428 
Q 1925 3584 2291 3584 
Q 2894 3584 3203 3211 
Q 3513 2838 3513 2113 
z
" transform="scale(0.015625)"/>
      <path id="DejaVuSans-74" d="M 1172 4494 
L 1172 3500 
L 2356 3500 
L 2356 3053 
L 1172 3053 
L 1172 1153 
Q 1172 725 1289 603 
Q 1406 481 1766 481 
L 2356 481 
L 2356 0 
L 1766 0 
Q 1100 0 847 248 
Q 594 497 594 1153 
L 594 3053 
L 172 3053 
L 172 3500 
L 594 3500 
L 594 4494 
L 1172 4494 
z
" transform="scale(0.015625)"/>
      <path id="DejaVuSans-6d" d="M 3328 2828 
Q 3544 3216 3844 3400 
Q 4144 3584 4550 3584 
Q 5097 3584 5394 3201 
Q 5691 2819 5691 2113 
L 5691 0 
L 5113 0 
L 5113 2094 
Q 5113 2597 4934 2840 
Q 4756 3084 4391 3084 
Q 3944 3084 3684 2787 
Q 3425 2491 3425 1978 
L 3425 0 
L 2847 0 
L 2847 2094 
Q 2847 2600 2669 2842 
Q 2491 3084 2119 3084 
Q 1678 3084 1418 2786 
Q 1159 2488 1159 1978 
L 1159 0 
L 581 0 
L 581 3500 
L 1159 3500 
L 1159 2956 
Q 1356 3278 1631 3431 
Q 1906 3584 2284 3584 
Q 2666 3584 2933 3390 
Q 3200 3197 3328 2828 
z
" transform="scale(0.015625)"/>
      <path id="DejaVuSans-20" transform="scale(0.015625)"/>
      <path id="DejaVuSans-48" d="M 628 4666 
L 1259 4666 
L 1259 2753 
L 3553 2753 
L 3553 4666 
L 4184 4666 
L 4184 0 
L 3553 0 
L 3553 2222 
L 1259 2222 
L 1259 0 
L 628 0 
L 628 4666 
z
" transform="scale(0.015625)"/>
      <path id="DejaVuSans-72" d="M 2631 2963 
Q 2534 3019 2420 3045 
Q 2306 3072 2169 3072 
Q 1681 3072 1420 2755 
Q 1159 2438 1159 1844 
L 1159 0 
L 581 0 
L 581 3500 
L 1159 3500 
L 1159 2956 
Q 1341 3275 1631 3429 
Q 1922 3584 2338 3584 
Q 2397 3584 2469 3576 
Q 2541 3569 2628 3553 
L 2631 2963 
z
" transform="scale(0.015625)"/>
      <path id="DejaVuSans-6f" d="M 1959 3097 
Q 1497 3097 1228 2736 
Q 959 2375 959 1747 
Q 959 1119 1226 758 
Q 1494 397 1959 397 
Q 2419 397 2687 759 
Q 2956 1122 2956 1747 
Q 2956 2369 2687 2733 
Q 2419 3097 1959 3097 
z
M 1959 3584 
Q 2709 3584 3137 3096 
Q 3566 2609 3566 1747 
Q 3566 888 3137 398 
Q 2709 -91 1959 -91 
Q 1206 -91 779 398 
Q 353 888 353 1747 
Q 353 2609 779 3096 
Q 1206 3584 1959 3584 
z
" transform="scale(0.015625)"/>
      <path id="DejaVuSans-69" d="M 603 3500 
L 1178 3500 
L 1178 0 
L 603 0 
L 603 3500 
z
M 603 4863 
L 1178 4863 
L 1178 4134 
L 603 4134 
L 603 4863 
z
" transform="scale(0.015625)"/>
      <path id="DejaVuSans-63" d="M 3122 3366 
L 3122 2828 
Q 2878 2963 2633 3030 
Q 2388 3097 2138 3097 
Q 1578 3097 1268 2742 
Q 959 2388 959 1747 
Q 959 1106 1268 751 
Q 1578 397 2138 397 
Q 2388 397 2633 464 
Q 2878 531 3122 666 
L 3122 134 
Q 2881 22 2623 -34 
Q 2366 -91 2075 -91 
Q 1284 -91 818 406 
Q 353 903 353 1747 
Q 353 2603 823 3093 
Q 1294 3584 2113 3584 
Q 2378 3584 2631 3529 
Q 2884 3475 3122 3366 
z
" transform="scale(0.015625)"/>
      <path id="DejaVuSans-4f" d="M 2522 4238 
Q 1834 4238 1429 3725 
Q 1025 3213 1025 2328 
Q 1025 1447 1429 934 
Q 1834 422 2522 422 
Q 3209 422 3611 934 
Q 4013 1447 4013 2328 
Q 4013 3213 3611 3725 
Q 3209 4238 2522 4238 
z
M 2522 4750 
Q 3503 4750 4090 4092 
Q 4678 3434 4678 2328 
Q 4678 1225 4090 567 
Q 3503 -91 2522 -91 
Q 1538 -91 948 565 
Q 359 1222 359 2328 
Q 359 3434 948 4092 
Q 1538 4750 2522 4750 
z
" transform="scale(0.015625)"/>
      <path id="DejaVuSans-73" d="M 2834 3397 
L 2834 2853 
Q 2591 2978 2328 3040 
Q 2066 3103 1784 3103 
Q 1356 3103 1142 2972 
Q 928 2841 928 2578 
Q 928 2378 1081 2264 
Q 1234 2150 1697 2047 
L 1894 2003 
Q 2506 1872 2764 1633 
Q 3022 1394 3022 966 
Q 3022 478 2636 193 
Q 2250 -91 1575 -91 
Q 1294 -91 989 -36 
Q 684 19 347 128 
L 347 722 
Q 666 556 975 473 
Q 1284 391 1588 391 
Q 1994 391 2212 530 
Q 2431 669 2431 922 
Q 2431 1156 2273 1281 
Q 2116 1406 1581 1522 
L 1381 1569 
Q 847 1681 609 1914 
Q 372 2147 372 2553 
Q 372 3047 722 3315 
Q 1072 3584 1716 3584 
Q 2034 3584 2315 3537 
Q 2597 3491 2834 3397 
z
" transform="scale(0.015625)"/>
      <path id="DejaVuSans-6c" d="M 603 4863 
L 1178 4863 
L 1178 0 
L 603 0 
L 603 4863 
z
" transform="scale(0.015625)"/>
      <path id="DejaVuSans-57" d="M 213 4666 
L 850 4666 
L 1831 722 
L 2809 4666 
L 3519 4666 
L 4500 722 
L 5478 4666 
L 6119 4666 
L 4947 0 
L 4153 0 
L 3169 4050 
L 2175 0 
L 1381 0 
L 213 4666 
z
" transform="scale(0.015625)"/>
      <path id="DejaVuSans-76" d="M 191 3500 
L 800 3500 
L 1894 563 
L 2988 3500 
L 3597 3500 
L 2284 0 
L 1503 0 
L 191 3500 
z
" transform="scale(0.015625)"/>
      <path id="DejaVuSans-65" d="M 3597 1894 
L 3597 1613 
L 953 1613 
Q 991 1019 1311 708 
Q 1631 397 2203 397 
Q 2534 397 2845 478 
Q 3156 559 3463 722 
L 3463 178 
Q 3153 47 2828 -22 
Q 2503 -91 2169 -91 
Q 1331 -91 842 396 
Q 353 884 353 1716 
Q 353 2575 817 3079 
Q 1281 3584 2069 3584 
Q 2775 3584 3186 3129 
Q 3597 2675 3597 1894 
z
M 3022 2063 
Q 3016 2534 2758 2815 
Q 2500 3097 2075 3097 
Q 1594 3097 1305 2825 
Q 1016 2553 972 2059 
L 3022 2063 
z
" transform="scale(0.015625)"/>
      <path id="DejaVuSans-66" d="M 2375 4863 
L 2375 4384 
L 1825 4384 
Q 1516 4384 1395 4259 
Q 1275 4134 1275 3809 
L 1275 3500 
L 2222 3500 
L 2222 3053 
L 1275 3053 
L 1275 0 
L 697 0 
L 697 3053 
L 147 3053 
L 147 3500 
L 697 3500 
L 697 3744 
Q 697 4328 969 4595 
Q 1241 4863 1831 4863 
L 2375 4863 
z
" transform="scale(0.015625)"/>
      <path id="DejaVuSans-3d" d="M 678 2906 
L 4684 2906 
L 4684 2381 
L 678 2381 
L 678 2906 
z
M 678 1631 
L 4684 1631 
L 4684 1100 
L 678 1100 
L 678 1631 
z
" transform="scale(0.015625)"/>
      <path id="DejaVuSans-2c" d="M 750 794 
L 1409 794 
L 1409 256 
L 897 -744 
L 494 -744 
L 750 256 
L 750 794 
z
" transform="scale(0.015625)"/>
      <path id="DejaVuSans-64" d="M 2906 2969 
L 2906 4863 
L 3481 4863 
L 3481 0 
L 2906 0 
L 2906 525 
Q 2725 213 2448 61 
Q 2172 -91 1784 -91 
Q 1150 -91 751 415 
Q 353 922 353 1747 
Q 353 2572 751 3078 
Q 1150 3584 1784 3584 
Q 2172 3584 2448 3432 
Q 2725 3281 2906 2969 
z
M 947 1747 
Q 947 1113 1208 752 
Q 1469 391 1925 391 
Q 2381 391 2643 752 
Q 2906 1113 2906 1747 
Q 2906 2381 2643 2742 
Q 2381 3103 1925 3103 
Q 1469 3103 1208 2742 
Q 947 2381 947 1747 
z
" transform="scale(0.015625)"/>
     </defs>
     <use xlink:href="#DejaVuSans-51"/>
     <use xlink:href="#DejaVuSans-75" transform="translate(78.710938 0)"/>
     <use xlink:href="#DejaVuSans-61" transform="translate(142.089844 0)"/>
     <use xlink:href="#DejaVuSans-6e" transform="translate(203.369141 0)"/>
     <use xlink:href="#DejaVuSans-74" transform="translate(266.748047 0)"/>
     <use xlink:href="#DejaVuSans-75" transform="translate(305.957031 0)"/>
     <use xlink:href="#DejaVuSans-6d" transform="translate(369.335938 0)"/>
     <use xlink:href="#DejaVuSans-20" transform="translate(466.748047 0)"/>
     <use xlink:href="#DejaVuSans-48" transform="translate(498.535156 0)"/>
     <use xlink:href="#DejaVuSans-61" transform="translate(573.730469 0)"/>
     <use xlink:href="#DejaVuSans-72" transform="translate(635.009766 0)"/>
     <use xlink:href="#DejaVuSans-6d" transform="translate(674.373047 0)"/>
     <use xlink:href="#DejaVuSans-6f" transform="translate(771.785156 0)"/>
     <use xlink:href="#DejaVuSans-6e" transform="translate(832.966797 0)"/>
     <use xlink:href="#DejaVuSans-69" transform="translate(896.345703 0)"/>
     <use xlink:href="#DejaVuSans-63" transform="translate(924.128906 0)"/>
     <use xlink:href="#DejaVuSans-20" transform="translate(979.109375 0)"/>
     <use xlink:href="#DejaVuSans-4f" transform="translate(1010.896484 0)"/>
     <use xlink:href="#DejaVuSans-73" transform="translate(1089.607422 0)"/>
     <use xlink:href="#DejaVuSans-63" transform="translate(1141.707031 0)"/>
     <use xlink:href="#DejaVuSans-69" transform="translate(1196.6875 0)"/>
     <use xlink:href="#DejaVuSans-6c" transform="translate(1224.470703 0)"/>
     <use xlink:href="#DejaVuSans-6c" transform="translate(1252.253906 0)"/>
     <use xlink:href="#DejaVuSans-61" transform="translate(1280.037109 0)"/>
     <use xlink:href="#DejaVuSans-74" transform="translate(1341.316406 0)"/>
     <use xlink:href="#DejaVuSans-6f" transform="translate(1380.525391 0)"/>
     <use xlink:href="#DejaVuSans-72" transform="translate(1441.707031 0)"/>
     <use xlink:href="#DejaVuSans-20" transform="translate(1482.820312 0)"/>
     <use xlink:href="#DejaVuSans-57" transform="translate(1514.607422 0)"/>
     <use xlink:href="#DejaVuSans-61" transform="translate(1607.109375 0)"/>
     <use xlink:href="#DejaVuSans-76" transform="translate(1668.388672 0)"/>
     <use xlink:href="#DejaVuSans-65" transform="translate(1727.568359 0)"/>
     <use xlink:href="#DejaVuSans-66" transform="translate(1789.091797 0)"/>
     <use xlink:href="#DejaVuSans-75" transform="translate(1824.296875 0)"/>
     <use xlink:href="#DejaVuSans-6e" transform="translate(1887.675781 0)"/>
     <use xlink:href="#DejaVuSans-63" transform="translate(1951.054688 0)"/>
     <use xlink:href="#DejaVuSans-74" transform="translate(2006.035156 0)"/>
     <use xlink:href="#DejaVuSans-69" transform="translate(2045.244141 0)"/>
     <use xlink:href="#DejaVuSans-6f" transform="translate(2073.027344 0)"/>
     <use xlink:href="#DejaVuSans-6e" transform="translate(2134.208984 0)"/>
     <use xlink:href="#DejaVuSans-73" transform="translate(2197.587891 0)"/>
     <use xlink:href="#DejaVuSans-20" transform="translate(2249.6875 0)"/>
     <use xlink:href="#DejaVuSans-28" transform="translate(2281.474609 0)"/>
     <use xlink:href="#DejaVuSans-6e" transform="translate(2320.488281 0)"/>
     <use xlink:href="#DejaVuSans-3d" transform="translate(2383.867188 0)"/>
     <use xlink:href="#DejaVuSans-20" transform="translate(2467.65625 0)"/>
     <use xlink:href="#DejaVuSans-30" transform="translate(2499.443359 0)"/>
     <use xlink:href="#DejaVuSans-2c" transform="translate(2563.066406 0)"/>
     <use xlink:href="#DejaVuSans-20" transform="translate(2594.853516 0)"/>
     <use xlink:href="#DejaVuSans-31" transform="translate(2626.640625 0)"/>
     <use xlink:href="#DejaVuSans-2c" transform="translate(2690.263672 0)"/>
     <use xlink:href="#DejaVuSans-20" transform="translate(2722.050781 0)"/>
     <use xlink:href="#DejaVuSans-61" transform="translate(2753.837891 0)"/>
     <use xlink:href="#DejaVuSans-6e" transform="translate(2815.117188 0)"/>
     <use xlink:href="#DejaVuSans-64" transform="translate(2878.496094 0)"/>
     <use xlink:href="#DejaVuSans-20" transform="translate(2941.972656 0)"/>
     <use xlink:href="#DejaVuSans-33" transform="translate(2973.759766 0)"/>
     <use xlink:href="#DejaVuSans-29" transform="translate(3037.382812 0)"/>
    </g>
   </g>
   <g id="legend_1">
    <g id="patch_7">
     <path d="M 345.302813 74.3525 
L 402.302813 74.3525 
Q 404.302813 74.3525 404.302813 72.3525 
L 404.302813 29.318125 
Q 404.302813 27.318125 402.302813 27.318125 
L 345.302813 27.318125 
Q 343.302813 27.318125 343.302813 29.318125 
L 343.302813 72.3525 
Q 343.302813 74.3525 345.302813 74.3525 
z
" style="fill: #ffffff; opacity: 0.8; stroke: #cccccc; stroke-linejoin: miter"/>
    </g>
    <g id="line2d_38">
     <path d="M 347.302813 35.416562 
L 357.302813 35.416562 
L 367.302813 35.416562 
" style="fill: none; stroke: #1f77b4; stroke-width: 1.5; stroke-linecap: square"/>
    </g>
    <g id="text_21">
     <!-- $n=0$ -->
     <g transform="translate(375.302813 38.916562) scale(0.1 -0.1)">
      <use xlink:href="#DejaVuSans-Oblique-6e" transform="translate(0 0.78125)"/>
      <use xlink:href="#DejaVuSans-3d" transform="translate(82.861328 0.78125)"/>
      <use xlink:href="#DejaVuSans-30" transform="translate(186.132812 0.78125)"/>
     </g>
    </g>
    <g id="line2d_39">
     <path d="M 347.302813 50.094688 
L 357.302813 50.094688 
L 367.302813 50.094688 
" style="fill: none; stroke: #ff7f0e; stroke-width: 1.5; stroke-linecap: square"/>
    </g>
    <g id="text_22">
     <!-- $n=1$ -->
     <g transform="translate(375.302813 53.594688) scale(0.1 -0.1)">
      <use xlink:href="#DejaVuSans-Oblique-6e" transform="translate(0 0.09375)"/>
      <use xlink:href="#DejaVuSans-3d" transform="translate(82.861328 0.09375)"/>
      <use xlink:href="#DejaVuSans-31" transform="translate(186.132812 0.09375)"/>
     </g>
    </g>
    <g id="line2d_40">
     <path d="M 347.302813 64.772812 
L 357.302813 64.772812 
L 367.302813 64.772812 
" style="fill: none; stroke: #2ca02c; stroke-width: 1.5; stroke-linecap: square"/>
    </g>
    <g id="text_23">
     <!-- $n=3$ -->
     <g transform="translate(375.302813 68.272812) scale(0.1 -0.1)">
      <use xlink:href="#DejaVuSans-Oblique-6e" transform="translate(0 0.78125)"/>
      <use xlink:href="#DejaVuSans-3d" transform="translate(82.861328 0.78125)"/>
      <use xlink:href="#DejaVuSans-33" transform="translate(186.132812 0.78125)"/>
     </g>
    </g>
   </g>
  </g>
 </g>
 <defs>
  <clipPath id="p97357ebc15">
   <rect x="52.182813" y="22.318125" width="357.12" height="266.112"/>
  </clipPath>
 </defs>
</svg>
