<?xml version="1.0" encoding="utf-8" standalone="no"?>
<!DOCTYPE svg PUBLIC "-//W3C//DTD SVG 1.1//EN"
  "http://www.w3.org/Graphics/SVG/1.1/DTD/svg11.dtd">
<svg xmlns:xlink="http://www.w3.org/1999/xlink" width="397.139375pt" height="287.32925pt" viewBox="0 0 397.139375 287.32925" xmlns="http://www.w3.org/2000/svg" version="1.1">
 <metadata>
  <rdf:RDF xmlns:dc="http://purl.org/dc/elements/1.1/" xmlns:cc="http://creativecommons.org/ns#" xmlns:rdf="http://www.w3.org/1999/02/22-rdf-syntax-ns#">
   <cc:Work>
    <dc:type rdf:resource="http://purl.org/dc/dcmitype/StillImage"/>
    <dc:date>2025-12-26T12:20:19.302251</dc:date>
    <dc:format>image/svg+xml</dc:format>
    <dc:creator>
     <cc:Agent>
      <dc:title>Matplotlib v3.10.6, https://matplotlib.org/</dc:title>
     </cc:Agent>
    </dc:creator>
   </cc:Work>
  </rdf:RDF>
 </metadata>
 <defs>
  <style type="text/css">*{stroke-linejoin: round; stroke-linecap: butt}</style>
 </defs>
 <g id="figure_1">
  <g id="patch_1">
   <path d="M 0 287.32925 
L 397.139375 287.32925 
L 397.139375 0 
L 0 0 
z
" style="fill: #ffffff"/>
  </g>
  <g id="axes_1">
   <g id="patch_2">
    <path d="M 47.504375 245.90175 
L 382.304375 245.90175 
L 382.304375 24.14175 
L 47.504375 24.14175 
z
" style="fill: #ffffff"/>
   </g>
   <g id="FillBetweenPolyCollection_1">
    <defs>
     <path id="mfd6c2cd119" d="M 47.504375 -170.054382 
L 47.504375 -117.741211 
L 47.83951 -117.893975 
L 48.174645 -118.050483 
L 48.50978 -118.210788 
L 48.844916 -118.374946 
L 49.180051 -118.543011 
L 49.515186 -118.715033 
L 49.850321 -118.891065 
L 50.185456 -119.071158 
L 50.520591 -119.255359 
L 50.855726 -119.443718 
L 51.190861 -119.63628 
L 51.525997 -119.83309 
L 51.861132 -120.034191 
L 52.196267 -120.239626 
L 52.531402 -120.449434 
L 52.866537 -120.663652 
L 53.201672 -120.882318 
L 53.536807 -121.105465 
L 53.871943 -121.333125 
L 54.207078 -121.565328 
L 54.542213 -121.802101 
L 54.877348 -122.043469 
L 55.212483 -122.289456 
L 55.547618 -122.540081 
L 55.882753 -122.795362 
L 56.217889 -123.055313 
L 56.553024 -123.319947 
L 56.888159 -123.589273 
L 57.223294 -123.863296 
L 57.558429 -124.142021 
L 57.893564 -124.425448 
L 58.228699 -124.713573 
L 58.563834 -125.006391 
L 58.89897 -125.303892 
L 59.234105 -125.606064 
L 59.56924 -125.912891 
L 59.904375 -126.224353 
L 60.23951 -126.540427 
L 60.574645 -126.861088 
L 60.90978 -127.186305 
L 61.244916 -127.516044 
L 61.580051 -127.85027 
L 61.915186 -128.188942 
L 62.250321 -128.532014 
L 62.585456 -128.87944 
L 62.920591 -129.231168 
L 63.255726 -129.587142 
L 63.590861 -129.947305 
L 63.925997 -130.311592 
L 64.261132 -130.679938 
L 64.596267 -131.052274 
L 64.931402 -131.428525 
L 65.266537 -131.808614 
L 65.601672 -132.192462 
L 65.936807 -132.579983 
L 66.271943 -132.97109 
L 66.607078 -133.365692 
L 66.942213 -133.763694 
L 67.277348 -134.164997 
L 67.612483 -134.569502 
L 67.947618 -134.977102 
L 68.282753 -135.38769 
L 68.617889 -135.801155 
L 68.953024 -136.217383 
L 69.288159 -136.636258 
L 69.623294 -137.057658 
L 69.958429 -137.481463 
L 70.293564 -137.907545 
L 70.628699 -138.335777 
L 70.963834 -138.766029 
L 71.29897 -139.198168 
L 71.634105 -139.632058 
L 71.96924 -140.067563 
L 72.304375 -140.504542 
L 72.63951 -140.942854 
L 72.974645 -141.382356 
L 73.30978 -141.822904 
L 73.644916 -142.26435 
L 73.980051 -142.706547 
L 74.315186 -143.149346 
L 74.650321 -143.592595 
L 74.985456 -144.036145 
L 75.320591 -144.479841 
L 75.655726 -144.923533 
L 75.990861 -145.367065 
L 76.325997 -145.810284 
L 76.661132 -146.253036 
L 76.996267 -146.695165 
L 77.331402 -147.136518 
L 77.666537 -147.57694 
L 78.001672 -148.016277 
L 78.336807 -148.454375 
L 78.671943 -148.891082 
L 79.007078 -149.326244 
L 79.342213 -149.759712 
L 79.677348 -150.191334 
L 80.012483 -150.62096 
L 80.347618 -151.048445 
L 80.682753 -151.47364 
L 81.017889 -151.812634 
L 81.353024 -151.395236 
L 81.688159 -150.975478 
L 82.023294 -150.553513 
L 82.358429 -150.129497 
L 82.693564 -149.703586 
L 83.028699 -149.27594 
L 83.363834 -148.846718 
L 83.69897 -148.416082 
L 84.034105 -147.984193 
L 84.36924 -147.551215 
L 84.704375 -147.11731 
L 85.03951 -146.682644 
L 85.374645 -146.247382 
L 85.70978 -145.811688 
L 86.044916 -145.375728 
L 86.380051 -144.939668 
L 86.715186 -144.503672 
L 87.050321 -144.067906 
L 87.385456 -143.632534 
L 87.720591 -143.197721 
L 88.055726 -142.76363 
L 88.390861 -142.330424 
L 88.725997 -141.898265 
L 89.061132 -141.467314 
L 89.396267 -141.037731 
L 89.731402 -140.609673 
L 90.066537 -140.183298 
L 90.401672 -139.758762 
L 90.736807 -139.336219 
L 91.071943 -138.91582 
L 91.407078 -138.497717 
L 91.742213 -138.082058 
L 92.077348 -137.668989 
L 92.412483 -137.258654 
L 92.747618 -136.851197 
L 93.082753 -136.446757 
L 93.417889 -136.045471 
L 93.753024 -135.647475 
L 94.088159 -135.252901 
L 94.423294 -134.86188 
L 94.758429 -134.474539 
L 95.093564 -134.091002 
L 95.428699 -133.711393 
L 95.763834 -133.33583 
L 96.09897 -132.964431 
L 96.434105 -132.597308 
L 96.76924 -132.234573 
L 97.104375 -131.876333 
L 97.43951 -131.522695 
L 97.774645 -131.173759 
L 98.10978 -130.829626 
L 98.444916 -130.490392 
L 98.780051 -130.15615 
L 99.115186 -129.82699 
L 99.450321 -129.503 
L 99.785456 -129.184266 
L 100.120591 -128.870868 
L 100.455726 -128.562886 
L 100.790861 -128.260396 
L 101.125997 -127.96347 
L 101.461132 -127.672181 
L 101.796267 -127.386595 
L 102.131402 -127.106777 
L 102.466537 -126.832791 
L 102.801672 -126.564696 
L 103.136807 -126.302549 
L 103.471943 -126.046406 
L 103.807078 -125.796318 
L 104.142213 -125.552336 
L 104.477348 -125.314508 
L 104.812483 -125.082879 
L 105.147618 -124.857493 
L 105.482753 -124.63839 
L 105.817889 -124.425611 
L 106.153024 -124.219191 
L 106.488159 -124.019166 
L 106.823294 -123.825571 
L 107.158429 -123.638435 
L 107.493564 -123.45779 
L 107.828699 -123.283663 
L 108.163834 -123.116081 
L 108.49897 -122.95507 
L 108.834105 -122.800652 
L 109.16924 -122.65285 
L 109.504375 -122.511685 
L 109.83951 -122.377177 
L 110.174645 -122.249345 
L 110.50978 -122.128204 
L 110.844916 -122.013773 
L 111.180051 -121.906065 
L 111.515186 -121.805095 
L 111.850321 -121.710875 
L 112.185456 -121.623419 
L 112.520591 -121.542738 
L 112.855726 -121.468841 
L 113.190861 -121.401738 
L 113.525997 -121.341439 
L 113.861132 -121.28795 
L 114.196267 -121.24128 
L 114.531402 -121.201435 
L 114.866537 -121.168421 
L 115.201672 -121.142241 
L 115.536807 -121.122902 
L 115.871943 -121.110405 
L 116.207078 -121.104755 
L 116.542213 -121.105952 
L 116.877348 -121.113998 
L 117.212483 -121.128893 
L 117.547618 -121.150637 
L 117.882753 -121.179228 
L 118.217889 -121.214665 
L 118.553024 -121.256944 
L 118.888159 -121.306061 
L 119.223294 -121.36201 
L 119.558429 -121.424787 
L 119.893564 -121.494382 
L 120.228699 -121.570789 
L 120.563834 -121.653998 
L 120.89897 -121.743997 
L 121.234105 -121.840774 
L 121.56924 -121.944316 
L 121.904375 -122.054608 
L 122.23951 -122.171633 
L 122.574645 -122.295373 
L 122.90978 -122.425808 
L 123.244916 -122.562917 
L 123.580051 -122.706677 
L 123.915186 -122.857061 
L 124.250321 -123.014044 
L 124.585456 -123.177595 
L 124.920591 -123.347684 
L 125.255726 -123.524277 
L 125.590861 -123.707338 
L 125.925997 -123.89683 
L 126.261132 -124.092712 
L 126.596267 -124.294941 
L 126.931402 -124.503473 
L 127.266537 -124.718258 
L 127.601672 -124.939248 
L 127.936807 -125.166387 
L 128.271943 -125.399621 
L 128.607078 -125.63889 
L 128.942213 -125.884132 
L 129.277348 -126.135283 
L 129.612483 -126.392276 
L 129.947618 -126.655039 
L 130.282753 -126.923498 
L 130.617889 -127.197577 
L 130.953024 -127.477196 
L 131.288159 -127.76227 
L 131.623294 -128.052714 
L 131.958429 -128.348438 
L 132.293564 -128.649349 
L 132.628699 -128.955349 
L 132.963834 -129.26634 
L 133.29897 -129.582219 
L 133.634105 -129.902879 
L 133.96924 -130.22821 
L 134.304375 -130.5581 
L 134.63951 -130.892432 
L 134.974645 -131.231086 
L 135.30978 -131.573941 
L 135.644916 -131.920868 
L 135.980051 -132.27174 
L 136.315186 -132.626423 
L 136.650321 -132.984782 
L 136.985456 -133.346677 
L 137.320591 -133.711967 
L 137.655726 -134.080507 
L 137.990861 -134.452148 
L 138.325997 -134.82674 
L 138.661132 -135.204128 
L 138.996267 -135.584155 
L 139.331402 -135.966663 
L 139.666537 -136.351489 
L 140.001672 -136.738468 
L 140.336807 -137.127433 
L 140.671943 -137.518214 
L 141.007078 -137.910638 
L 141.342213 -138.304533 
L 141.677348 -138.699719 
L 142.012483 -139.09602 
L 142.347618 -139.493254 
L 142.682753 -139.891238 
L 143.017889 -140.289789 
L 143.353024 -140.688719 
L 143.688159 -141.087842 
L 144.023294 -141.486967 
L 144.358429 -141.885905 
L 144.693564 -142.284463 
L 145.028699 -142.682448 
L 145.363834 -143.079667 
L 145.69897 -143.475923 
L 146.034105 -143.871022 
L 146.36924 -144.264766 
L 146.704375 -144.65696 
L 147.03951 -145.047403 
L 147.374645 -145.4359 
L 147.70978 -145.822252 
L 148.044916 -145.955088 
L 148.380051 -145.499418 
L 148.715186 -145.041397 
L 149.050321 -144.58112 
L 149.385456 -144.118685 
L 149.720591 -143.65419 
L 150.055726 -143.187729 
L 150.390861 -142.719399 
L 150.725997 -142.249293 
L 151.061132 -141.777506 
L 151.396267 -141.30413 
L 151.731402 -140.829257 
L 152.066537 -140.352976 
L 152.401672 -139.875375 
L 152.736807 -139.396542 
L 153.071943 -138.916561 
L 153.407078 -138.435516 
L 153.742213 -137.953487 
L 154.077348 -137.470553 
L 154.412483 -136.986792 
L 154.747618 -136.502278 
L 155.082753 -136.017081 
L 155.417889 -135.531272 
L 155.753024 -135.044918 
L 156.088159 -134.558081 
L 156.423294 -134.070824 
L 156.758429 -133.583203 
L 157.093564 -133.095275 
L 157.428699 -132.607092 
L 157.763834 -132.118701 
L 158.09897 -131.63015 
L 158.434105 -131.14148 
L 158.76924 -130.652732 
L 159.104375 -130.16394 
L 159.43951 -129.675138 
L 159.774645 -129.186355 
L 160.10978 -128.697618 
L 160.444916 -128.208948 
L 160.780051 -127.720366 
L 161.115186 -127.231888 
L 161.450321 -126.743525 
L 161.785456 -126.255289 
L 162.120591 -125.767184 
L 162.455726 -125.279215 
L 162.790861 -124.791381 
L 163.125997 -124.303679 
L 163.461132 -123.816103 
L 163.796267 -123.328644 
L 164.131402 -122.84129 
L 164.466537 -122.354027 
L 164.801672 -121.866838 
L 165.136807 -121.379702 
L 165.471943 -120.892597 
L 165.807078 -120.4055 
L 166.142213 -119.918383 
L 166.477348 -119.431218 
L 166.812483 -118.943975 
L 167.147618 -118.45662 
L 167.482753 -117.969121 
L 167.817889 -117.481442 
L 168.153024 -116.993546 
L 168.488159 -116.505397 
L 168.823294 -116.016955 
L 169.158429 -115.528182 
L 169.493564 -115.039038 
L 169.828699 -114.549483 
L 170.163834 -114.059477 
L 170.49897 -113.568981 
L 170.834105 -113.077955 
L 171.16924 -112.586359 
L 171.504375 -112.094155 
L 171.83951 -111.601307 
L 172.174645 -111.107777 
L 172.50978 -110.613531 
L 172.844916 -110.118536 
L 173.180051 -109.62276 
L 173.515186 -109.126173 
L 173.850321 -108.628749 
L 174.185456 -108.130463 
L 174.520591 -107.631293 
L 174.855726 -107.131219 
L 175.190861 -106.630225 
L 175.525997 -106.1283 
L 175.861132 -105.625433 
L 176.196267 -105.121619 
L 176.531402 -104.616857 
L 176.866537 -104.111149 
L 177.201672 -103.604502 
L 177.536807 -103.096927 
L 177.871943 -102.588441 
L 178.207078 -102.079064 
L 178.542213 -101.568822 
L 178.877348 -101.057746 
L 179.212483 -100.545872 
L 179.547618 -100.033242 
L 179.882753 -99.519903 
L 180.217889 -99.005909 
L 180.553024 -98.491317 
L 180.888159 -97.976193 
L 181.223294 -97.460607 
L 181.558429 -96.944636 
L 181.893564 -96.428363 
L 182.228699 -95.911876 
L 182.563834 -95.395272 
L 182.89897 -94.878652 
L 183.234105 -94.362123 
L 183.56924 -93.845801 
L 183.904375 -93.329806 
L 184.23951 -92.814265 
L 184.574645 -92.299312 
L 184.90978 -91.785086 
L 185.244916 -91.271733 
L 185.580051 -90.759405 
L 185.915186 -90.248261 
L 186.250321 -89.738466 
L 186.585456 -89.230189 
L 186.920591 -88.723606 
L 187.255726 -88.218901 
L 187.590861 -87.716261 
L 187.925997 -87.215878 
L 188.261132 -86.717951 
L 188.596267 -86.222685 
L 188.931402 -85.730287 
L 189.266537 -85.240972 
L 189.601672 -84.754957 
L 189.936807 -84.272466 
L 190.271943 -83.793725 
L 190.607078 -83.318965 
L 190.942213 -82.848421 
L 191.277348 -82.382331 
L 191.612483 -81.920937 
L 191.947618 -81.464483 
L 192.282753 -81.013216 
L 192.617889 -80.567387 
L 192.953024 -80.127247 
L 193.288159 -79.693049 
L 193.623294 -79.265051 
L 193.958429 -78.843507 
L 194.293564 -78.428677 
L 194.628699 -78.020818 
L 194.963834 -77.620189 
L 195.29897 -77.22705 
L 195.634105 -76.841657 
L 195.96924 -76.46427 
L 196.304375 -76.095145 
L 196.63951 -75.734538 
L 196.974645 -75.382703 
L 197.30978 -75.039891 
L 197.644916 -74.706352 
L 197.980051 -74.382333 
L 198.315186 -74.068078 
L 198.650321 -73.763828 
L 198.985456 -73.469818 
L 199.320591 -73.186283 
L 199.655726 -72.913449 
L 199.990861 -72.651542 
L 200.325997 -72.400779 
L 200.661132 -72.161374 
L 200.996267 -71.933533 
L 201.331402 -71.717459 
L 201.666537 -71.513347 
L 202.001672 -71.321384 
L 202.336807 -71.141753 
L 202.671943 -70.974627 
L 203.007078 -70.820174 
L 203.342213 -70.678552 
L 203.677348 -70.549911 
L 204.012483 -70.434394 
L 204.347618 -70.332135 
L 204.682753 -70.243259 
L 205.017889 -70.167881 
L 205.353024 -70.106107 
L 205.688159 -70.058035 
L 206.023294 -70.023752 
L 206.358429 -70.003335 
L 206.693564 -69.996851 
L 207.028699 -70.004357 
L 207.363834 -70.025898 
L 207.69897 -70.061511 
L 208.034105 -70.111221 
L 208.36924 -70.175042 
L 208.704375 -70.252977 
L 209.03951 -70.345017 
L 209.374645 -70.451146 
L 209.70978 -70.571331 
L 210.044916 -70.705532 
L 210.380051 -70.853697 
L 210.715186 -71.015761 
L 211.050321 -71.19165 
L 211.385456 -71.381276 
L 211.720591 -71.584543 
L 212.055726 -71.801342 
L 212.390861 -72.031553 
L 212.725997 -72.275044 
L 213.061132 -72.531675 
L 213.396267 -72.801292 
L 213.731402 -73.083731 
L 214.066537 -73.378819 
L 214.401672 -73.686371 
L 214.736807 -74.006191 
L 215.071943 -73.977388 
L 215.407078 -73.604227 
L 215.742213 -73.249023 
L 216.077348 -72.911975 
L 216.412483 -72.593268 
L 216.747618 -72.293079 
L 217.082753 -72.011573 
L 217.417889 -71.748905 
L 217.753024 -71.505219 
L 218.088159 -71.280646 
L 218.423294 -71.075309 
L 218.758429 -70.889317 
L 219.093564 -70.72277 
L 219.428699 -70.575755 
L 219.763834 -70.448348 
L 220.09897 -70.340614 
L 220.434105 -70.252605 
L 220.76924 -70.184363 
L 221.104375 -70.135919 
L 221.43951 -70.107289 
L 221.774645 -70.098482 
L 222.10978 -70.109492 
L 222.444916 -70.140304 
L 222.780051 -70.19089 
L 223.115186 -70.261211 
L 223.450321 -70.351216 
L 223.785456 -70.460845 
L 224.120591 -70.590025 
L 224.455726 -70.738672 
L 224.790861 -70.906693 
L 225.125997 -71.093981 
L 225.461132 -71.300422 
L 225.796267 -71.525889 
L 226.131402 -71.770246 
L 226.466537 -72.033345 
L 226.801672 -72.315032 
L 227.136807 -72.615138 
L 227.471943 -72.933488 
L 227.807078 -73.269897 
L 228.142213 -73.62417 
L 228.477348 -73.996104 
L 228.812483 -74.385486 
L 229.147618 -74.792096 
L 229.482753 -75.215705 
L 229.817889 -75.656076 
L 230.153024 -76.112964 
L 230.488159 -76.586117 
L 230.823294 -77.075276 
L 231.158429 -77.580173 
L 231.493564 -78.100537 
L 231.828699 -78.636088 
L 232.163834 -79.18654 
L 232.49897 -79.751601 
L 232.834105 -80.330975 
L 233.16924 -80.92436 
L 233.504375 -81.531449 
L 233.83951 -82.151929 
L 234.174645 -82.785485 
L 234.50978 -83.431797 
L 234.844916 -84.090541 
L 235.180051 -84.761389 
L 235.515186 -85.444013 
L 235.850321 -86.138077 
L 236.185456 -86.843248 
L 236.520591 -87.559188 
L 236.855726 -88.285556 
L 237.190861 -89.022012 
L 237.525997 -89.768215 
L 237.861132 -90.52382 
L 238.196267 -91.288484 
L 238.531402 -92.061863 
L 238.866537 -92.843614 
L 239.201672 -93.633392 
L 239.536807 -94.430855 
L 239.871943 -95.235661 
L 240.207078 -96.047468 
L 240.542213 -96.865938 
L 240.877348 -97.690734 
L 241.212483 -98.521519 
L 241.547618 -99.357961 
L 241.882753 -100.19973 
L 242.217889 -101.046498 
L 242.553024 -101.897941 
L 242.888159 -102.753739 
L 243.223294 -103.613574 
L 243.558429 -104.477134 
L 243.893564 -105.34411 
L 244.228699 -106.214197 
L 244.563834 -107.087097 
L 244.89897 -107.962514 
L 245.234105 -108.84016 
L 245.56924 -109.719751 
L 245.904375 -110.601008 
L 246.23951 -111.483659 
L 246.574645 -112.367437 
L 246.90978 -113.252083 
L 247.244916 -114.137342 
L 247.580051 -115.022968 
L 247.915186 -115.908721 
L 248.250321 -116.794366 
L 248.585456 -117.244981 
L 248.920591 -117.400951 
L 249.255726 -117.551162 
L 249.590861 -117.695843 
L 249.925997 -117.835228 
L 250.261132 -117.969557 
L 250.596267 -118.099077 
L 250.931402 -118.224042 
L 251.266537 -118.344711 
L 251.601672 -118.461347 
L 251.936807 -118.574221 
L 252.271943 -118.683606 
L 252.607078 -118.789781 
L 252.942213 -118.893031 
L 253.277348 -118.993642 
L 253.612483 -119.091906 
L 253.947618 -119.188118 
L 254.282753 -119.282576 
L 254.617889 -119.375582 
L 254.953024 -119.467439 
L 255.288159 -119.558455 
L 255.623294 -119.648939 
L 255.958429 -119.739201 
L 256.293564 -119.829554 
L 256.628699 -119.920313 
L 256.963834 -120.011794 
L 257.29897 -120.104311 
L 257.634105 -120.198184 
L 257.96924 -120.29373 
L 258.304375 -120.391267 
L 258.63951 -120.491113 
L 258.974645 -120.593586 
L 259.30978 -120.699003 
L 259.644916 -120.807683 
L 259.980051 -120.91994 
L 260.315186 -121.03609 
L 260.650321 -121.156447 
L 260.985456 -121.281323 
L 261.320591 -121.411028 
L 261.655726 -121.545871 
L 261.990861 -121.686159 
L 262.325997 -121.832195 
L 262.661132 -121.984283 
L 262.996267 -122.14272 
L 263.331402 -122.307804 
L 263.666537 -122.479827 
L 264.001672 -122.65908 
L 264.336807 -122.845849 
L 264.671943 -123.040417 
L 265.007078 -123.243064 
L 265.342213 -123.454066 
L 265.677348 -123.673694 
L 266.012483 -123.902215 
L 266.347618 -124.139892 
L 266.682753 -124.386985 
L 267.017889 -124.643747 
L 267.353024 -124.910427 
L 267.688159 -125.187269 
L 268.023294 -125.474513 
L 268.358429 -125.772393 
L 268.693564 -126.081138 
L 269.028699 -126.40097 
L 269.363834 -126.732108 
L 269.69897 -127.074764 
L 270.034105 -127.429143 
L 270.36924 -127.795445 
L 270.704375 -128.173866 
L 271.03951 -128.564592 
L 271.374645 -128.967805 
L 271.70978 -129.383681 
L 272.044916 -129.812387 
L 272.380051 -130.254085 
L 272.715186 -130.708931 
L 273.050321 -131.177072 
L 273.385456 -131.658648 
L 273.720591 -132.153795 
L 274.055726 -132.662637 
L 274.390861 -133.185294 
L 274.725997 -133.721877 
L 275.061132 -134.272491 
L 275.396267 -134.83723 
L 275.731402 -135.416182 
L 276.066537 -136.009428 
L 276.401672 -136.61704 
L 276.736807 -137.23908 
L 277.071943 -137.875604 
L 277.407078 -138.526659 
L 277.742213 -139.192281 
L 278.077348 -139.872502 
L 278.412483 -140.567339 
L 278.747618 -141.276806 
L 279.082753 -142.000904 
L 279.417889 -142.739626 
L 279.753024 -143.492955 
L 280.088159 -144.260866 
L 280.423294 -145.043323 
L 280.758429 -145.840282 
L 281.093564 -146.651686 
L 281.428699 -147.477471 
L 281.763834 -148.317563 
L 282.09897 -149.171876 
L 282.434105 -150.040315 
L 282.76924 -150.922775 
L 283.104375 -151.819139 
L 283.43951 -152.729282 
L 283.774645 -153.653066 
L 284.10978 -154.590343 
L 284.444916 -155.540955 
L 284.780051 -156.504734 
L 285.115186 -157.481498 
L 285.450321 -158.471058 
L 285.785456 -159.47321 
L 286.120591 -160.487743 
L 286.455726 -161.514432 
L 286.790861 -162.553042 
L 287.125997 -163.603327 
L 287.461132 -164.665029 
L 287.796267 -165.737881 
L 288.131402 -166.821602 
L 288.466537 -167.915902 
L 288.801672 -169.02048 
L 289.136807 -170.135023 
L 289.471943 -171.259207 
L 289.807078 -172.392697 
L 290.142213 -173.535149 
L 290.477348 -174.686205 
L 290.812483 -175.8455 
L 291.147618 -177.012655 
L 291.482753 -178.187283 
L 291.817889 -179.368985 
L 292.153024 -180.557353 
L 292.488159 -181.75197 
L 292.823294 -182.952405 
L 293.158429 -184.158222 
L 293.493564 -185.368974 
L 293.828699 -186.584202 
L 294.163834 -187.803443 
L 294.49897 -189.026221 
L 294.834105 -190.252053 
L 295.16924 -191.480449 
L 295.504375 -192.710908 
L 295.83951 -193.942923 
L 296.174645 -195.175981 
L 296.50978 -196.40956 
L 296.844916 -197.643131 
L 297.180051 -198.87616 
L 297.515186 -200.108106 
L 297.850321 -201.338423 
L 298.185456 -202.566559 
L 298.520591 -203.791956 
L 298.855726 -205.014055 
L 299.190861 -206.23229 
L 299.525997 -207.446091 
L 299.861132 -208.654886 
L 300.196267 -209.858101 
L 300.531402 -211.055158 
L 300.866537 -212.245478 
L 301.201672 -213.428479 
L 301.536807 -214.603581 
L 301.871943 -215.7702 
L 302.207078 -216.927755 
L 302.542213 -218.075664 
L 302.877348 -219.213346 
L 303.212483 -220.340221 
L 303.547618 -221.455713 
L 303.882753 -222.559247 
L 304.217889 -223.65025 
L 304.553024 -224.728155 
L 304.888159 -225.792396 
L 305.223294 -226.842415 
L 305.558429 -227.877657 
L 305.893564 -228.897571 
L 306.228699 -229.901615 
L 306.563834 -230.889252 
L 306.89897 -231.859952 
L 307.234105 -232.813193 
L 307.56924 -233.74846 
L 307.904375 -234.665248 
L 308.23951 -235.56306 
L 308.574645 -236.441408 
L 308.90978 -237.299814 
L 309.244916 -238.137812 
L 309.580051 -238.954943 
L 309.915186 -239.750763 
L 310.250321 -240.524837 
L 310.585456 -241.276744 
L 310.920591 -242.006073 
L 311.255726 -242.712427 
L 311.590861 -243.395421 
L 311.925997 -244.054686 
L 312.261132 -244.689864 
L 312.596267 -245.300612 
L 312.931402 -245.886601 
L 313.266537 -246.447517 
L 313.601672 -246.983061 
L 313.936807 -247.492949 
L 314.271943 -247.976911 
L 314.607078 -248.434695 
L 314.942213 -248.866062 
L 315.277348 -249.270791 
L 315.612483 -248.978904 
L 315.947618 -248.492768 
L 316.282753 -247.979953 
L 316.617889 -247.440597 
L 316.953024 -246.874855 
L 317.288159 -246.282896 
L 317.623294 -245.664903 
L 317.958429 -245.021077 
L 318.293564 -244.351632 
L 318.628699 -243.656797 
L 318.963834 -242.936815 
L 319.29897 -242.191942 
L 319.634105 -241.42245 
L 319.96924 -240.628622 
L 320.304375 -239.810754 
L 320.63951 -238.969157 
L 320.974645 -238.10415 
L 321.30978 -237.216069 
L 321.644916 -236.305255 
L 321.980051 -235.372067 
L 322.315186 -234.416868 
L 322.650321 -233.440036 
L 322.985456 -232.441956 
L 323.320591 -231.423022 
L 323.655726 -230.38364 
L 323.990861 -229.324219 
L 324.325997 -228.245182 
L 324.661132 -227.146953 
L 324.996267 -226.029969 
L 325.331402 -224.894668 
L 325.666537 -223.741498 
L 326.001672 -222.570911 
L 326.336807 -221.383364 
L 326.671943 -220.179317 
L 327.007078 -218.959237 
L 327.342213 -217.723592 
L 327.677348 -216.472856 
L 328.012483 -215.207502 
L 328.347618 -213.928007 
L 328.682753 -212.634852 
L 329.017889 -211.328515 
L 329.353024 -210.009477 
L 329.688159 -208.678221 
L 330.023294 -207.335226 
L 330.358429 -205.980975 
L 330.693564 -204.615947 
L 331.028699 -203.240622 
L 331.363834 -201.855475 
L 331.69897 -200.460984 
L 332.034105 -199.05762 
L 332.36924 -197.645855 
L 332.704375 -196.226155 
L 333.03951 -194.798984 
L 333.374645 -193.364803 
L 333.70978 -191.924068 
L 334.044916 -190.477232 
L 334.380051 -189.024742 
L 334.715186 -187.567042 
L 335.050321 -186.104568 
L 335.385456 -184.637756 
L 335.720591 -183.167031 
L 336.055726 -181.692817 
L 336.390861 -180.21553 
L 336.725997 -178.73558 
L 337.061132 -177.253373 
L 337.396267 -175.769306 
L 337.731402 -174.283771 
L 338.066537 -172.797157 
L 338.401672 -171.309841 
L 338.736807 -169.822197 
L 339.071943 -168.334592 
L 339.407078 -166.847388 
L 339.742213 -165.360937 
L 340.077348 -163.875587 
L 340.412483 -162.39168 
L 340.747618 -160.90955 
L 341.082753 -159.429526 
L 341.417889 -157.95193 
L 341.753024 -156.477078 
L 342.088159 -155.005279 
L 342.423294 -153.536839 
L 342.758429 -152.072053 
L 343.093564 -150.611216 
L 343.428699 -149.154612 
L 343.763834 -147.702524 
L 344.09897 -146.255226 
L 344.434105 -144.81299 
L 344.76924 -143.37608 
L 345.104375 -141.944757 
L 345.43951 -140.519277 
L 345.774645 -139.099892 
L 346.10978 -137.686847 
L 346.444916 -136.280387 
L 346.780051 -134.88075 
L 347.115186 -133.488171 
L 347.450321 -132.102883 
L 347.785456 -130.725112 
L 348.120591 -129.355085 
L 348.455726 -127.993023 
L 348.790861 -126.639147 
L 349.125997 -125.293673 
L 349.461132 -123.956816 
L 349.796267 -122.628789 
L 350.131402 -121.309801 
L 350.466537 -120.000062 
L 350.801672 -118.699779 
L 351.136807 -117.409157 
L 351.471943 -116.128402 
L 351.807078 -114.857716 
L 352.142213 -113.597303 
L 352.477348 -112.347364 
L 352.812483 -111.1081 
L 353.147618 -109.879712 
L 353.482753 -108.6624 
L 353.817889 -107.456365 
L 354.153024 -106.261805 
L 354.488159 -105.078922 
L 354.823294 -103.907915 
L 355.158429 -102.748984 
L 355.493564 -101.602329 
L 355.828699 -100.468152 
L 356.163834 -99.346652 
L 356.49897 -98.23803 
L 356.834105 -97.14249 
L 357.16924 -96.060231 
L 357.504375 -94.991457 
L 357.83951 -93.936369 
L 358.174645 -92.895172 
L 358.50978 -91.868067 
L 358.844916 -90.855259 
L 359.180051 -89.856951 
L 359.515186 -88.873346 
L 359.850321 -87.904649 
L 360.185456 -86.951063 
L 360.520591 -86.012792 
L 360.855726 -85.090039 
L 361.190861 -84.183006 
L 361.525997 -83.291897 
L 361.861132 -82.416911 
L 362.196267 -81.558252 
L 362.531402 -80.716117 
L 362.866537 -79.890705 
L 363.201672 -79.082214 
L 363.536807 -78.29084 
L 363.871943 -77.516775 
L 364.207078 -76.760212 
L 364.542213 -76.02134 
L 364.877348 -75.300346 
L 365.212483 -74.597416 
L 365.547618 -73.912729 
L 365.882753 -73.246465 
L 366.217889 -72.598799 
L 366.553024 -71.969902 
L 366.888159 -71.359941 
L 367.223294 -70.76908 
L 367.558429 -70.197476 
L 367.893564 -69.645285 
L 368.228699 -69.112655 
L 368.563834 -68.599729 
L 368.89897 -68.106646 
L 369.234105 -67.633538 
L 369.56924 -67.180532 
L 369.904375 -66.747746 
L 370.23951 -66.335295 
L 370.574645 -65.943284 
L 370.90978 -65.571812 
L 371.244916 -65.220971 
L 371.580051 -64.890844 
L 371.915186 -64.581507 
L 372.250321 -64.293027 
L 372.585456 -64.025464 
L 372.920591 -63.778867 
L 373.255726 -63.553278 
L 373.590861 -63.348728 
L 373.925997 -63.16524 
L 374.261132 -63.002826 
L 374.596267 -62.861489 
L 374.931402 -62.741222 
L 375.266537 -62.642007 
L 375.601672 -62.563815 
L 375.936807 -62.506608 
L 376.271943 -62.470337 
L 376.607078 -62.454939 
L 376.942213 -62.460344 
L 377.277348 -62.486468 
L 377.612483 -62.533216 
L 377.947618 -62.600482 
L 378.282753 -62.688149 
L 378.617889 -62.796086 
L 378.953024 -62.924153 
L 379.288159 -63.072196 
L 379.623294 -63.24005 
L 379.958429 -63.427538 
L 380.293564 -63.634471 
L 380.628699 -63.860648 
L 380.963834 -64.105856 
L 381.29897 -64.369871 
L 381.634105 -64.652454 
L 381.96924 -64.953358 
L 382.304375 -65.272046 
L 382.304375 -65.272598 
L 382.304375 -65.272598 
L 381.96924 -65.790596 
L 381.634105 -66.326635 
L 381.29897 -66.880404 
L 380.963834 -67.451857 
L 380.628699 -68.040938 
L 380.293564 -68.647579 
L 379.958429 -69.271701 
L 379.623294 -69.913215 
L 379.288159 -70.572024 
L 378.953024 -71.248017 
L 378.617889 -71.941076 
L 378.282753 -72.651073 
L 377.947618 -73.377872 
L 377.612483 -74.121326 
L 377.277348 -74.881282 
L 376.942213 -75.657577 
L 376.607078 -76.45004 
L 376.271943 -77.258495 
L 375.936807 -78.082756 
L 375.601672 -78.92263 
L 375.266537 -79.777921 
L 374.931402 -80.648424 
L 374.596267 -81.533927 
L 374.261132 -82.434216 
L 373.925997 -83.349069 
L 373.590861 -84.27826 
L 373.255726 -85.221559 
L 372.920591 -86.178732 
L 372.585456 -87.14954 
L 372.250321 -88.133742 
L 371.915186 -89.131094 
L 371.580051 -90.141346 
L 371.244916 -91.164251 
L 370.90978 -92.199555 
L 370.574645 -93.247005 
L 370.23951 -94.306345 
L 369.904375 -95.377319 
L 369.56924 -96.45967 
L 369.234105 -97.55314 
L 368.89897 -98.65747 
L 368.563834 -99.772402 
L 368.228699 -100.897678 
L 367.893564 -102.033041 
L 367.558429 -103.178234 
L 367.223294 -104.333001 
L 366.888159 -105.497087 
L 366.553024 -106.67024 
L 366.217889 -107.852207 
L 365.882753 -109.04274 
L 365.547618 -110.241589 
L 365.212483 -111.448509 
L 364.877348 -112.663257 
L 364.542213 -113.885592 
L 364.207078 -115.115275 
L 363.871943 -116.35207 
L 363.536807 -117.595744 
L 363.201672 -118.846066 
L 362.866537 -120.102809 
L 362.531402 -121.365748 
L 362.196267 -122.634662 
L 361.861132 -123.909331 
L 361.525997 -125.189539 
L 361.190861 -126.475073 
L 360.855726 -127.765724 
L 360.520591 -129.061284 
L 360.185456 -130.361549 
L 359.850321 -131.666317 
L 359.515186 -132.975389 
L 359.180051 -134.288568 
L 358.844916 -135.605661 
L 358.50978 -136.926476 
L 358.174645 -138.250824 
L 357.83951 -139.578518 
L 357.504375 -140.909371 
L 357.16924 -142.243201 
L 356.834105 -143.579826 
L 356.49897 -144.919065 
L 356.163834 -146.260739 
L 355.828699 -147.604669 
L 355.493564 -148.950678 
L 355.158429 -150.29859 
L 354.823294 -151.648227 
L 354.488159 -152.999414 
L 354.153024 -154.351975 
L 353.817889 -155.705732 
L 353.482753 -157.060509 
L 353.147618 -158.416128 
L 352.812483 -159.772409 
L 352.477348 -161.129173 
L 352.142213 -162.486238 
L 351.807078 -163.843421 
L 351.471943 -165.200536 
L 351.136807 -166.557395 
L 350.801672 -167.913809 
L 350.466537 -169.269584 
L 350.131402 -170.624525 
L 349.796267 -171.978433 
L 349.461132 -173.331106 
L 349.125997 -174.682337 
L 348.790861 -176.031916 
L 348.455726 -177.37963 
L 348.120591 -178.725261 
L 347.785456 -180.068586 
L 347.450321 -181.409378 
L 347.115186 -182.747404 
L 346.780051 -184.082428 
L 346.444916 -185.414209 
L 346.10978 -186.742498 
L 345.774645 -188.067043 
L 345.43951 -189.387586 
L 345.104375 -190.703863 
L 344.76924 -192.015606 
L 344.434105 -193.322538 
L 344.09897 -194.624379 
L 343.763834 -195.920843 
L 343.428699 -197.211636 
L 343.093564 -198.49646 
L 342.758429 -199.775011 
L 342.423294 -201.046979 
L 342.088159 -202.312046 
L 341.753024 -203.569891 
L 341.417889 -204.820187 
L 341.082753 -206.0626 
L 340.747618 -207.29679 
L 340.412483 -208.522414 
L 340.077348 -209.739121 
L 339.742213 -210.946556 
L 339.407078 -212.144359 
L 339.071943 -213.332164 
L 338.736807 -214.509603 
L 338.401672 -215.676301 
L 338.066537 -216.831878 
L 337.731402 -217.975953 
L 337.396267 -219.108138 
L 337.061132 -220.228045 
L 336.725997 -221.335278 
L 336.390861 -222.429443 
L 336.055726 -223.51014 
L 335.720591 -224.576968 
L 335.385456 -225.629523 
L 335.050321 -226.667401 
L 334.715186 -227.690194 
L 334.380051 -228.697495 
L 334.044916 -229.688897 
L 333.70978 -230.663991 
L 333.374645 -231.622369 
L 333.03951 -232.563623 
L 332.704375 -233.487347 
L 332.36924 -234.393136 
L 332.034105 -235.280587 
L 331.69897 -236.149297 
L 331.363834 -236.99887 
L 331.028699 -237.828909 
L 330.693564 -238.639023 
L 330.358429 -239.428825 
L 330.023294 -240.197931 
L 329.688159 -240.945963 
L 329.353024 -241.672548 
L 329.017889 -242.377319 
L 328.682753 -243.059916 
L 328.347618 -243.719985 
L 328.012483 -244.357179 
L 327.677348 -244.971159 
L 327.342213 -245.561594 
L 327.007078 -246.128161 
L 326.671943 -246.670548 
L 326.336807 -247.18845 
L 326.001672 -247.681574 
L 325.666537 -248.149635 
L 325.331402 -248.59236 
L 324.996267 -249.009488 
L 324.661132 -249.400767 
L 324.325997 -249.765958 
L 323.990861 -250.104836 
L 323.655726 -250.417187 
L 323.320591 -250.702808 
L 322.985456 -250.961514 
L 322.650321 -251.193128 
L 322.315186 -251.397492 
L 321.980051 -251.574459 
L 321.644916 -251.723897 
L 321.30978 -251.84569 
L 320.974645 -251.939736 
L 320.63951 -252.005948 
L 320.304375 -252.044254 
L 319.96924 -252.0546 
L 319.634105 -252.036946 
L 319.29897 -251.991267 
L 318.963834 -251.917556 
L 318.628699 -251.815821 
L 318.293564 -251.686088 
L 317.958429 -251.528397 
L 317.623294 -251.342806 
L 317.288159 -251.129389 
L 316.953024 -250.888237 
L 316.617889 -250.619458 
L 316.282753 -250.323176 
L 315.947618 -249.99953 
L 315.612483 -249.648677 
L 315.277348 -249.438241 
L 314.942213 -249.87067 
L 314.607078 -250.276103 
L 314.271943 -250.654466 
L 313.936807 -251.005702 
L 313.601672 -251.329771 
L 313.266537 -251.626649 
L 312.931402 -251.896327 
L 312.596267 -252.138817 
L 312.261132 -252.354144 
L 311.925997 -252.54235 
L 311.590861 -252.703496 
L 311.255726 -252.837656 
L 310.920591 -252.944925 
L 310.585456 -253.02541 
L 310.250321 -253.079238 
L 309.915186 -253.106548 
L 309.580051 -253.1075 
L 309.244916 -253.082266 
L 308.90978 -253.031034 
L 308.574645 -252.954011 
L 308.23951 -252.851413 
L 307.904375 -252.723477 
L 307.56924 -252.570452 
L 307.234105 -252.3926 
L 306.89897 -252.190199 
L 306.563834 -251.963541 
L 306.228699 -251.71293 
L 305.893564 -251.438684 
L 305.558429 -251.141133 
L 305.223294 -250.820619 
L 304.888159 -250.477499 
L 304.553024 -250.112136 
L 304.217889 -249.724909 
L 303.882753 -249.316205 
L 303.547618 -248.886423 
L 303.212483 -248.435968 
L 302.877348 -247.96526 
L 302.542213 -247.474721 
L 302.207078 -246.964788 
L 301.871943 -246.435901 
L 301.536807 -245.888508 
L 301.201672 -245.323066 
L 300.866537 -244.740036 
L 300.531402 -244.139886 
L 300.196267 -243.523088 
L 299.861132 -242.89012 
L 299.525997 -242.241462 
L 299.190861 -241.577601 
L 298.855726 -240.899023 
L 298.520591 -240.206219 
L 298.185456 -239.499681 
L 297.850321 -238.779905 
L 297.515186 -238.047383 
L 297.180051 -237.302611 
L 296.844916 -236.546085 
L 296.50978 -235.778297 
L 296.174645 -234.999742 
L 295.83951 -234.21091 
L 295.504375 -233.41229 
L 295.16924 -232.604369 
L 294.834105 -231.787628 
L 294.49897 -230.962548 
L 294.163834 -230.129603 
L 293.828699 -229.289263 
L 293.493564 -228.441994 
L 293.158429 -227.588254 
L 292.823294 -226.728498 
L 292.488159 -225.863171 
L 292.153024 -224.992714 
L 291.817889 -224.11756 
L 291.482753 -223.238134 
L 291.147618 -222.354851 
L 290.812483 -221.468122 
L 290.477348 -220.578344 
L 290.142213 -219.68591 
L 289.807078 -218.7912 
L 289.471943 -217.894584 
L 289.136807 -216.996426 
L 288.801672 -216.097075 
L 288.466537 -215.196872 
L 288.131402 -214.296146 
L 287.796267 -213.395217 
L 287.461132 -212.494392 
L 287.125997 -211.593965 
L 286.790861 -210.694223 
L 286.455726 -209.795437 
L 286.120591 -208.897869 
L 285.785456 -208.001767 
L 285.450321 -207.107367 
L 285.115186 -206.214895 
L 284.780051 -205.324562 
L 284.444916 -204.436569 
L 284.10978 -203.551103 
L 283.774645 -202.66834 
L 283.43951 -201.788442 
L 283.104375 -200.911562 
L 282.76924 -200.037836 
L 282.434105 -199.167391 
L 282.09897 -198.300343 
L 281.763834 -197.436792 
L 281.428699 -196.576829 
L 281.093564 -195.720533 
L 280.758429 -194.86797 
L 280.423294 -194.019196 
L 280.088159 -193.174254 
L 279.753024 -192.333178 
L 279.417889 -191.495989 
L 279.082753 -190.662698 
L 278.747618 -189.833305 
L 278.412483 -189.007802 
L 278.077348 -188.186167 
L 277.742213 -187.368372 
L 277.407078 -186.554376 
L 277.071943 -185.744132 
L 276.736807 -184.937582 
L 276.401672 -184.13466 
L 276.066537 -183.335291 
L 275.731402 -182.539392 
L 275.396267 -181.746874 
L 275.061132 -180.957638 
L 274.725997 -180.17158 
L 274.390861 -179.388587 
L 274.055726 -178.608543 
L 273.720591 -177.831323 
L 273.385456 -177.056797 
L 273.050321 -176.284831 
L 272.715186 -175.515284 
L 272.380051 -174.748011 
L 272.044916 -173.982865 
L 271.70978 -173.219693 
L 271.374645 -172.458338 
L 271.03951 -171.698641 
L 270.704375 -170.940441 
L 270.36924 -170.183573 
L 270.034105 -169.427871 
L 269.69897 -168.673166 
L 269.363834 -167.919291 
L 269.028699 -167.166075 
L 268.693564 -166.413347 
L 268.358429 -165.660936 
L 268.023294 -164.908673 
L 267.688159 -164.156387 
L 267.353024 -163.40391 
L 267.017889 -162.651072 
L 266.682753 -161.897709 
L 266.347618 -161.143656 
L 266.012483 -160.38875 
L 265.677348 -159.632833 
L 265.342213 -158.875747 
L 265.007078 -158.117339 
L 264.671943 -157.357459 
L 264.336807 -156.595961 
L 264.001672 -155.832703 
L 263.666537 -155.067546 
L 263.331402 -154.300359 
L 262.996267 -153.531011 
L 262.661132 -152.759381 
L 262.325997 -151.985351 
L 261.990861 -151.208808 
L 261.655726 -150.429645 
L 261.320591 -149.647764 
L 260.985456 -148.863069 
L 260.650321 -148.075474 
L 260.315186 -147.284898 
L 259.980051 -146.491266 
L 259.644916 -145.694513 
L 259.30978 -144.894577 
L 258.974645 -144.091409 
L 258.63951 -143.284961 
L 258.304375 -142.475198 
L 257.96924 -141.662091 
L 257.634105 -140.845617 
L 257.29897 -140.025765 
L 256.963834 -139.202528 
L 256.628699 -138.375909 
L 256.293564 -137.545921 
L 255.958429 -136.712583 
L 255.623294 -135.875923 
L 255.288159 -135.035978 
L 254.953024 -134.192793 
L 254.617889 -133.346422 
L 254.282753 -132.496927 
L 253.947618 -131.64438 
L 253.612483 -130.78886 
L 253.277348 -129.930456 
L 252.942213 -129.069264 
L 252.607078 -128.205391 
L 252.271943 -127.338949 
L 251.936807 -126.470063 
L 251.601672 -125.598862 
L 251.266537 -124.725487 
L 250.931402 -123.850085 
L 250.596267 -122.972813 
L 250.261132 -122.093836 
L 249.925997 -121.213325 
L 249.590861 -120.331461 
L 249.255726 -119.448433 
L 248.920591 -118.564437 
L 248.585456 -117.679678 
L 248.250321 -117.083032 
L 247.915186 -116.914891 
L 247.580051 -116.740352 
L 247.244916 -116.559217 
L 246.90978 -116.371295 
L 246.574645 -116.176405 
L 246.23951 -115.974374 
L 245.904375 -115.765036 
L 245.56924 -115.548235 
L 245.234105 -115.323825 
L 244.89897 -115.091667 
L 244.563834 -114.851634 
L 244.228699 -114.603607 
L 243.893564 -114.347477 
L 243.558429 -114.083145 
L 243.223294 -113.810522 
L 242.888159 -113.529531 
L 242.553024 -113.240103 
L 242.217889 -112.94218 
L 241.882753 -112.635717 
L 241.547618 -112.320676 
L 241.212483 -111.997032 
L 240.877348 -111.664773 
L 240.542213 -111.323893 
L 240.207078 -110.974401 
L 239.871943 -110.616317 
L 239.536807 -110.24967 
L 239.201672 -109.874502 
L 238.866537 -109.490865 
L 238.531402 -109.098824 
L 238.196267 -108.698453 
L 237.861132 -108.289839 
L 237.525997 -107.873079 
L 237.190861 -107.448282 
L 236.855726 -107.015568 
L 236.520591 -106.575066 
L 236.185456 -106.126918 
L 235.850321 -105.671277 
L 235.515186 -105.208306 
L 235.180051 -104.738177 
L 234.844916 -104.261075 
L 234.50978 -103.777193 
L 234.174645 -103.286735 
L 233.83951 -102.789916 
L 233.504375 -102.286959 
L 233.16924 -101.778097 
L 232.834105 -101.263573 
L 232.49897 -100.743637 
L 232.163834 -100.21855 
L 231.828699 -99.68858 
L 231.493564 -99.154005 
L 231.158429 -98.615109 
L 230.823294 -98.072185 
L 230.488159 -97.525533 
L 230.153024 -96.975459 
L 229.817889 -96.422278 
L 229.482753 -95.866311 
L 229.147618 -95.307882 
L 228.812483 -94.747324 
L 228.477348 -94.184976 
L 228.142213 -93.621178 
L 227.807078 -93.056279 
L 227.471943 -92.49063 
L 227.136807 -91.924586 
L 226.801672 -91.358506 
L 226.466537 -90.792752 
L 226.131402 -90.227688 
L 225.796267 -89.663683 
L 225.461132 -89.101104 
L 225.125997 -88.540323 
L 224.790861 -87.98171 
L 224.455726 -87.425639 
L 224.120591 -86.872481 
L 223.785456 -86.322608 
L 223.450321 -85.776394 
L 223.115186 -85.234208 
L 222.780051 -84.69642 
L 222.444916 -84.163398 
L 222.10978 -83.635506 
L 221.774645 -83.113109 
L 221.43951 -82.596566 
L 221.104375 -82.086232 
L 220.76924 -81.582462 
L 220.434105 -81.085602 
L 220.09897 -80.595997 
L 219.763834 -80.113986 
L 219.428699 -79.639902 
L 219.093564 -79.174074 
L 218.758429 -78.716821 
L 218.423294 -78.268461 
L 218.088159 -77.829302 
L 217.753024 -77.399645 
L 217.417889 -76.979784 
L 217.082753 -76.570006 
L 216.747618 -76.17059 
L 216.412483 -75.781804 
L 216.077348 -75.403912 
L 215.742213 -75.037166 
L 215.407078 -74.681809 
L 215.071943 -74.338076 
L 214.736807 -74.3683 
L 214.401672 -74.776746 
L 214.066537 -75.202499 
L 213.731402 -75.645321 
L 213.396267 -76.104967 
L 213.061132 -76.581181 
L 212.725997 -77.073699 
L 212.390861 -77.582249 
L 212.055726 -78.106547 
L 211.720591 -78.646306 
L 211.385456 -79.201225 
L 211.050321 -79.771002 
L 210.715186 -80.355321 
L 210.380051 -80.953863 
L 210.044916 -81.566302 
L 209.70978 -82.192303 
L 209.374645 -82.831526 
L 209.03951 -83.483626 
L 208.704375 -84.148251 
L 208.36924 -84.825044 
L 208.034105 -85.513643 
L 207.69897 -86.213681 
L 207.363834 -86.924788 
L 207.028699 -87.646588 
L 206.693564 -88.378703 
L 206.358429 -89.120749 
L 206.023294 -89.872342 
L 205.688159 -90.633093 
L 205.353024 -91.402611 
L 205.017889 -92.180505 
L 204.682753 -92.966378 
L 204.347618 -93.759836 
L 204.012483 -94.560481 
L 203.677348 -95.367915 
L 203.342213 -96.18174 
L 203.007078 -97.001556 
L 202.671943 -97.826966 
L 202.336807 -98.657572 
L 202.001672 -99.492976 
L 201.666537 -100.332782 
L 201.331402 -101.176594 
L 200.996267 -102.02402 
L 200.661132 -102.874669 
L 200.325997 -103.72815 
L 199.990861 -104.584077 
L 199.655726 -105.442067 
L 199.320591 -106.301737 
L 198.985456 -107.16271 
L 198.650321 -108.024611 
L 198.315186 -108.88707 
L 197.980051 -109.749719 
L 197.644916 -110.612196 
L 197.30978 -111.474142 
L 196.974645 -112.335204 
L 196.63951 -113.195031 
L 196.304375 -114.053279 
L 195.96924 -114.90961 
L 195.634105 -115.763688 
L 195.29897 -116.615184 
L 194.963834 -117.463775 
L 194.628699 -118.309144 
L 194.293564 -119.150978 
L 193.958429 -119.98897 
L 193.623294 -120.822821 
L 193.288159 -121.652236 
L 192.953024 -122.476927 
L 192.617889 -123.296611 
L 192.282753 -124.111012 
L 191.947618 -124.919862 
L 191.612483 -125.722896 
L 191.277348 -126.519858 
L 190.942213 -127.310498 
L 190.607078 -128.094571 
L 190.271943 -128.871839 
L 189.936807 -129.642071 
L 189.601672 -130.405043 
L 189.266537 -131.160535 
L 188.931402 -131.908336 
L 188.596267 -132.64824 
L 188.261132 -133.380047 
L 187.925997 -134.103565 
L 187.590861 -134.818606 
L 187.255726 -135.524989 
L 186.920591 -136.222541 
L 186.585456 -136.911091 
L 186.250321 -137.590479 
L 185.915186 -138.260547 
L 185.580051 -138.921144 
L 185.244916 -139.572126 
L 184.90978 -140.213353 
L 184.574645 -140.844691 
L 184.23951 -141.466012 
L 183.904375 -142.077194 
L 183.56924 -142.678119 
L 183.234105 -143.268675 
L 182.89897 -143.848756 
L 182.563834 -144.418258 
L 182.228699 -144.977086 
L 181.893564 -145.525148 
L 181.558429 -146.062356 
L 181.223294 -146.588628 
L 180.888159 -147.103886 
L 180.553024 -147.608058 
L 180.217889 -148.101073 
L 179.882753 -148.582868 
L 179.547618 -149.053383 
L 179.212483 -149.512562 
L 178.877348 -149.960353 
L 178.542213 -150.396708 
L 178.207078 -150.821583 
L 177.871943 -151.234939 
L 177.536807 -151.636739 
L 177.201672 -152.026952 
L 176.866537 -152.405548 
L 176.531402 -152.772503 
L 176.196267 -153.127795 
L 175.861132 -153.471407 
L 175.525997 -153.803323 
L 175.190861 -154.123534 
L 174.855726 -154.432032 
L 174.520591 -154.728811 
L 174.185456 -155.013873 
L 173.850321 -155.287218 
L 173.515186 -155.548852 
L 173.180051 -155.798785 
L 172.844916 -156.037028 
L 172.50978 -156.263596 
L 172.174645 -156.478508 
L 171.83951 -156.681784 
L 171.504375 -156.873451 
L 171.16924 -157.053534 
L 170.834105 -157.222065 
L 170.49897 -157.379078 
L 170.163834 -157.524608 
L 169.828699 -157.658697 
L 169.493564 -157.781387 
L 169.158429 -157.892724 
L 168.823294 -157.992757 
L 168.488159 -158.081538 
L 168.153024 -158.159122 
L 167.817889 -158.225567 
L 167.482753 -158.280935 
L 167.147618 -158.32529 
L 166.812483 -158.3587 
L 166.477348 -158.381234 
L 166.142213 -158.392966 
L 165.807078 -158.393973 
L 165.471943 -158.384335 
L 165.136807 -158.364134 
L 164.801672 -158.333457 
L 164.466537 -158.292392 
L 164.131402 -158.241031 
L 163.796267 -158.17947 
L 163.461132 -158.107807 
L 163.125997 -158.026143 
L 162.790861 -157.934582 
L 162.455726 -157.833233 
L 162.120591 -157.722206 
L 161.785456 -157.601615 
L 161.450321 -157.471576 
L 161.115186 -157.332209 
L 160.780051 -157.183637 
L 160.444916 -157.025985 
L 160.10978 -156.859384 
L 159.774645 -156.683964 
L 159.43951 -156.49986 
L 159.104375 -156.307209 
L 158.76924 -156.106153 
L 158.434105 -155.896834 
L 158.09897 -155.6794 
L 157.763834 -155.453997 
L 157.428699 -155.220779 
L 157.093564 -154.979899 
L 156.758429 -154.731515 
L 156.423294 -154.475785 
L 156.088159 -154.212872 
L 155.753024 -153.942941 
L 155.417889 -153.666157 
L 155.082753 -153.382691 
L 154.747618 -153.092713 
L 154.412483 -152.796397 
L 154.077348 -152.493919 
L 153.742213 -152.185457 
L 153.407078 -151.87119 
L 153.071943 -151.5513 
L 152.736807 -151.22597 
L 152.401672 -150.895385 
L 152.066537 -150.559731 
L 151.731402 -150.219198 
L 151.396267 -149.873974 
L 151.061132 -149.52425 
L 150.725997 -149.170219 
L 150.390861 -148.812073 
L 150.055726 -148.450007 
L 149.720591 -148.084216 
L 149.385456 -147.714895 
L 149.050321 -147.342242 
L 148.715186 -146.966454 
L 148.380051 -146.587727 
L 148.044916 -146.206261 
L 147.70978 -146.408309 
L 147.374645 -146.858983 
L 147.03951 -147.307013 
L 146.704375 -147.752303 
L 146.36924 -148.194756 
L 146.034105 -148.634276 
L 145.69897 -149.07077 
L 145.363834 -149.504143 
L 145.028699 -149.934301 
L 144.693564 -150.361154 
L 144.358429 -150.784611 
L 144.023294 -151.204583 
L 143.688159 -151.620983 
L 143.353024 -152.033724 
L 143.017889 -152.442724 
L 142.682753 -152.847899 
L 142.347618 -153.249171 
L 142.012483 -153.646461 
L 141.677348 -154.039694 
L 141.342213 -154.428796 
L 141.007078 -154.813696 
L 140.671943 -155.194328 
L 140.336807 -155.570623 
L 140.001672 -155.942521 
L 139.666537 -156.30996 
L 139.331402 -156.672884 
L 138.996267 -157.031237 
L 138.661132 -157.384968 
L 138.325997 -157.734028 
L 137.990861 -158.078372 
L 137.655726 -158.417957 
L 137.320591 -158.752744 
L 136.985456 -159.082697 
L 136.650321 -159.407782 
L 136.315186 -159.72797 
L 135.980051 -160.043233 
L 135.644916 -160.353548 
L 135.30978 -160.658894 
L 134.974645 -160.959255 
L 134.63951 -161.254616 
L 134.304375 -161.544965 
L 133.96924 -161.830295 
L 133.634105 -162.1106 
L 133.29897 -162.385879 
L 132.963834 -162.656133 
L 132.628699 -162.921366 
L 132.293564 -163.181583 
L 131.958429 -163.436795 
L 131.623294 -163.687014 
L 131.288159 -163.932254 
L 130.953024 -164.172532 
L 130.617889 -164.40787 
L 130.282753 -164.638288 
L 129.947618 -164.863811 
L 129.612483 -165.084465 
L 129.277348 -165.30028 
L 128.942213 -165.511286 
L 128.607078 -165.717514 
L 128.271943 -165.919 
L 127.936807 -166.115779 
L 127.601672 -166.307889 
L 127.266537 -166.495367 
L 126.931402 -166.678254 
L 126.596267 -166.856591 
L 126.261132 -167.030419 
L 125.925997 -167.199782 
L 125.590861 -167.364723 
L 125.255726 -167.525285 
L 124.920591 -167.681514 
L 124.585456 -167.833454 
L 124.250321 -167.981149 
L 123.915186 -168.124645 
L 123.580051 -168.263987 
L 123.244916 -168.399219 
L 122.90978 -168.530385 
L 122.574645 -168.657529 
L 122.23951 -168.780694 
L 121.904375 -168.899921 
L 121.56924 -169.015253 
L 121.234105 -169.126728 
L 120.89897 -169.234387 
L 120.563834 -169.338267 
L 120.228699 -169.438404 
L 119.893564 -169.534832 
L 119.558429 -169.627586 
L 119.223294 -169.716696 
L 118.888159 -169.802192 
L 118.553024 -169.884102 
L 118.217889 -169.96245 
L 117.882753 -170.037262 
L 117.547618 -170.108557 
L 117.212483 -170.176355 
L 116.877348 -170.240673 
L 116.542213 -170.301525 
L 116.207078 -170.358923 
L 115.871943 -170.412876 
L 115.536807 -170.463391 
L 115.201672 -170.510472 
L 114.866537 -170.554122 
L 114.531402 -170.594338 
L 114.196267 -170.631118 
L 113.861132 -170.664455 
L 113.525997 -170.694341 
L 113.190861 -170.720763 
L 112.855726 -170.743708 
L 112.520591 -170.763158 
L 112.185456 -170.779095 
L 111.850321 -170.791496 
L 111.515186 -170.800338 
L 111.180051 -170.805592 
L 110.844916 -170.80723 
L 110.50978 -170.80522 
L 110.174645 -170.799528 
L 109.83951 -170.790118 
L 109.504375 -170.776952 
L 109.16924 -170.759988 
L 108.834105 -170.739186 
L 108.49897 -170.7145 
L 108.163834 -170.685884 
L 107.828699 -170.653291 
L 107.493564 -170.616672 
L 107.158429 -170.575976 
L 106.823294 -170.531151 
L 106.488159 -170.482144 
L 106.153024 -170.428901 
L 105.817889 -170.371366 
L 105.482753 -170.309484 
L 105.147618 -170.243198 
L 104.812483 -170.17245 
L 104.477348 -170.097184 
L 104.142213 -170.017342 
L 103.807078 -169.932864 
L 103.471943 -169.843695 
L 103.136807 -169.749776 
L 102.801672 -169.65105 
L 102.466537 -169.54746 
L 102.131402 -169.438951 
L 101.796267 -169.325466 
L 101.461132 -169.206951 
L 101.125997 -169.083354 
L 100.790861 -168.954621 
L 100.455726 -168.820704 
L 100.120591 -168.681551 
L 99.785456 -168.537117 
L 99.450321 -168.387355 
L 99.115186 -168.232221 
L 98.780051 -168.071675 
L 98.444916 -167.905677 
L 98.10978 -167.73419 
L 97.774645 -167.557179 
L 97.43951 -167.374613 
L 97.104375 -167.186463 
L 96.76924 -166.992701 
L 96.434105 -166.793306 
L 96.09897 -166.588256 
L 95.763834 -166.377535 
L 95.428699 -166.161128 
L 95.093564 -165.939026 
L 94.758429 -165.711221 
L 94.423294 -165.47771 
L 94.088159 -165.238492 
L 93.753024 -164.993572 
L 93.417889 -164.742957 
L 93.082753 -164.486659 
L 92.747618 -164.224692 
L 92.412483 -163.957076 
L 92.077348 -163.683834 
L 91.742213 -163.404993 
L 91.407078 -163.120583 
L 91.071943 -162.830641 
L 90.736807 -162.535204 
L 90.401672 -162.234318 
L 90.066537 -161.928027 
L 89.731402 -161.616385 
L 89.396267 -161.299447 
L 89.061132 -160.977272 
L 88.725997 -160.649924 
L 88.390861 -160.317471 
L 88.055726 -159.979983 
L 87.720591 -159.637538 
L 87.385456 -159.290213 
L 87.050321 -158.938094 
L 86.715186 -158.581266 
L 86.380051 -158.219821 
L 86.044916 -157.853854 
L 85.70978 -157.483463 
L 85.374645 -157.108749 
L 85.03951 -156.729819 
L 84.704375 -156.34678 
L 84.36924 -155.959745 
L 84.034105 -155.568829 
L 83.69897 -155.174151 
L 83.363834 -154.775831 
L 83.028699 -154.373994 
L 82.693564 -153.968767 
L 82.358429 -153.560279 
L 82.023294 -153.148663 
L 81.688159 -152.734053 
L 81.353024 -152.316586 
L 81.017889 -151.896402 
L 80.682753 -152.227521 
L 80.347618 -152.639744 
L 80.012483 -153.049158 
L 79.677348 -153.455618 
L 79.342213 -153.858979 
L 79.007078 -154.259101 
L 78.671943 -154.655848 
L 78.336807 -155.049083 
L 78.001672 -155.438675 
L 77.666537 -155.824495 
L 77.331402 -156.206417 
L 76.996267 -156.584318 
L 76.661132 -156.958078 
L 76.325997 -157.327583 
L 75.990861 -157.692719 
L 75.655726 -158.053377 
L 75.320591 -158.409454 
L 74.985456 -158.760846 
L 74.650321 -159.107458 
L 74.315186 -159.449195 
L 73.980051 -159.785968 
L 73.644916 -160.117691 
L 73.30978 -160.444284 
L 72.974645 -160.76567 
L 72.63951 -161.081775 
L 72.304375 -161.392531 
L 71.96924 -161.697873 
L 71.634105 -161.997742 
L 71.29897 -162.292083 
L 70.963834 -162.580843 
L 70.628699 -162.863977 
L 70.293564 -163.141442 
L 69.958429 -163.4132 
L 69.623294 -163.679217 
L 69.288159 -163.939465 
L 68.953024 -164.193919 
L 68.617889 -164.442559 
L 68.282753 -164.685368 
L 67.947618 -164.922335 
L 67.612483 -165.153453 
L 67.277348 -165.378719 
L 66.942213 -165.598134 
L 66.607078 -165.811704 
L 66.271943 -166.019438 
L 65.936807 -166.22135 
L 65.601672 -166.417457 
L 65.266537 -166.607783 
L 64.931402 -166.792351 
L 64.596267 -166.971191 
L 64.261132 -167.144338 
L 63.925997 -167.311826 
L 63.590861 -167.473698 
L 63.255726 -167.629996 
L 62.920591 -167.780768 
L 62.585456 -167.926065 
L 62.250321 -168.065941 
L 61.915186 -168.200452 
L 61.580051 -168.329659 
L 61.244916 -168.453624 
L 60.90978 -168.572413 
L 60.574645 -168.686095 
L 60.23951 -168.79474 
L 59.904375 -168.898423 
L 59.56924 -168.997218 
L 59.234105 -169.091204 
L 58.89897 -169.180462 
L 58.563834 -169.265072 
L 58.228699 -169.34512 
L 57.893564 -169.420691 
L 57.558429 -169.491872 
L 57.223294 -169.558753 
L 56.888159 -169.621424 
L 56.553024 -169.679976 
L 56.217889 -169.734503 
L 55.882753 -169.785099 
L 55.547618 -169.831857 
L 55.212483 -169.874874 
L 54.877348 -169.914246 
L 54.542213 -169.95007 
L 54.207078 -169.982442 
L 53.871943 -170.011462 
L 53.536807 -170.037225 
L 53.201672 -170.059832 
L 52.866537 -170.079378 
L 52.531402 -170.095963 
L 52.196267 -170.109683 
L 51.861132 -170.120637 
L 51.525997 -170.128921 
L 51.190861 -170.134631 
L 50.855726 -170.137863 
L 50.520591 -170.138713 
L 50.185456 -170.137275 
L 49.850321 -170.133641 
L 49.515186 -170.127906 
L 49.180051 -170.120159 
L 48.844916 -170.110492 
L 48.50978 -170.098993 
L 48.174645 -170.085751 
L 47.83951 -170.070852 
L 47.504375 -170.054382 
z
" style="stroke: #808080; stroke-opacity: 0.2"/>
    </defs>
    <g clip-path="url(#p4fd9c7b282)">
     <use xlink:href="#mfd6c2cd119" x="0" y="287.32925" style="fill: #808080; fill-opacity: 0.2; stroke: #808080; stroke-opacity: 0.2"/>
    </g>
   </g>
   <g id="matplotlib.axis_1">
    <g id="xtick_1">
     <g id="line2d_1">
      <defs>
       <path id="m8e5d54e6a9" d="M 0 0 
L 0 3.5 
" style="stroke: #000000; stroke-width: 0.8"/>
      </defs>
      <g>
       <use xlink:href="#m8e5d54e6a9" x="47.504375" y="245.90175" style="stroke: #000000; stroke-width: 0.8"/>
      </g>
     </g>
     <g id="text_1">
      <!-- 0 -->
      <g transform="translate(43.686875 262.019875) scale(0.12 -0.12)">
       <defs>
        <path id="DejaVuSans-30" d="M 2034 4250 
Q 1547 4250 1301 3770 
Q 1056 3291 1056 2328 
Q 1056 1369 1301 889 
Q 1547 409 2034 409 
Q 2525 409 2770 889 
Q 3016 1369 3016 2328 
Q 3016 3291 2770 3770 
Q 2525 4250 2034 4250 
z
M 2034 4750 
Q 2819 4750 3233 4129 
Q 3647 3509 3647 2328 
Q 3647 1150 3233 529 
Q 2819 -91 2034 -91 
Q 1250 -91 836 529 
Q 422 1150 422 2328 
Q 422 3509 836 4129 
Q 1250 4750 2034 4750 
z
" transform="scale(0.015625)"/>
       </defs>
       <use xlink:href="#DejaVuSans-30"/>
      </g>
     </g>
    </g>
    <g id="xtick_2">
     <g id="line2d_2">
      <g>
       <use xlink:href="#m8e5d54e6a9" x="114.464375" y="245.90175" style="stroke: #000000; stroke-width: 0.8"/>
      </g>
     </g>
     <g id="text_2">
      <!-- 2 -->
      <g transform="translate(110.646875 262.019875) scale(0.12 -0.12)">
       <defs>
        <path id="DejaVuSans-32" d="M 1228 531 
L 3431 531 
L 3431 0 
L 469 0 
L 469 531 
Q 828 903 1448 1529 
Q 2069 2156 2228 2338 
Q 2531 2678 2651 2914 
Q 2772 3150 2772 3378 
Q 2772 3750 2511 3984 
Q 2250 4219 1831 4219 
Q 1534 4219 1204 4116 
Q 875 4013 500 3803 
L 500 4441 
Q 881 4594 1212 4672 
Q 1544 4750 1819 4750 
Q 2544 4750 2975 4387 
Q 3406 4025 3406 3419 
Q 3406 3131 3298 2873 
Q 3191 2616 2906 2266 
Q 2828 2175 2409 1742 
Q 1991 1309 1228 531 
z
" transform="scale(0.015625)"/>
       </defs>
       <use xlink:href="#DejaVuSans-32"/>
      </g>
     </g>
    </g>
    <g id="xtick_3">
     <g id="line2d_3">
      <g>
       <use xlink:href="#m8e5d54e6a9" x="181.424375" y="245.90175" style="stroke: #000000; stroke-width: 0.8"/>
      </g>
     </g>
     <g id="text_3">
      <!-- 4 -->
      <g transform="translate(177.606875 262.019875) scale(0.12 -0.12)">
       <defs>
        <path id="DejaVuSans-34" d="M 2419 4116 
L 825 1625 
L 2419 1625 
L 2419 4116 
z
M 2253 4666 
L 3047 4666 
L 3047 1625 
L 3713 1625 
L 3713 1100 
L 3047 1100 
L 3047 0 
L 2419 0 
L 2419 1100 
L 313 1100 
L 313 1709 
L 2253 4666 
z
" transform="scale(0.015625)"/>
       </defs>
       <use xlink:href="#DejaVuSans-34"/>
      </g>
     </g>
    </g>
    <g id="xtick_4">
     <g id="line2d_4">
      <g>
       <use xlink:href="#m8e5d54e6a9" x="248.384375" y="245.90175" style="stroke: #000000; stroke-width: 0.8"/>
      </g>
     </g>
     <g id="text_4">
      <!-- 6 -->
      <g transform="translate(244.566875 262.019875) scale(0.12 -0.12)">
       <defs>
        <path id="DejaVuSans-36" d="M 2113 2584 
Q 1688 2584 1439 2293 
Q 1191 2003 1191 1497 
Q 1191 994 1439 701 
Q 1688 409 2113 409 
Q 2538 409 2786 701 
Q 3034 994 3034 1497 
Q 3034 2003 2786 2293 
Q 2538 2584 2113 2584 
z
M 3366 4563 
L 3366 3988 
Q 3128 4100 2886 4159 
Q 2644 4219 2406 4219 
Q 1781 4219 1451 3797 
Q 1122 3375 1075 2522 
Q 1259 2794 1537 2939 
Q 1816 3084 2150 3084 
Q 2853 3084 3261 2657 
Q 3669 2231 3669 1497 
Q 3669 778 3244 343 
Q 2819 -91 2113 -91 
Q 1303 -91 875 529 
Q 447 1150 447 2328 
Q 447 3434 972 4092 
Q 1497 4750 2381 4750 
Q 2619 4750 2861 4703 
Q 3103 4656 3366 4563 
z
" transform="scale(0.015625)"/>
       </defs>
       <use xlink:href="#DejaVuSans-36"/>
      </g>
     </g>
    </g>
    <g id="xtick_5">
     <g id="line2d_5">
      <g>
       <use xlink:href="#m8e5d54e6a9" x="315.344375" y="245.90175" style="stroke: #000000; stroke-width: 0.8"/>
      </g>
     </g>
     <g id="text_5">
      <!-- 8 -->
      <g transform="translate(311.526875 262.019875) scale(0.12 -0.12)">
       <defs>
        <path id="DejaVuSans-38" d="M 2034 2216 
Q 1584 2216 1326 1975 
Q 1069 1734 1069 1313 
Q 1069 891 1326 650 
Q 1584 409 2034 409 
Q 2484 409 2743 651 
Q 3003 894 3003 1313 
Q 3003 1734 2745 1975 
Q 2488 2216 2034 2216 
z
M 1403 2484 
Q 997 2584 770 2862 
Q 544 3141 544 3541 
Q 544 4100 942 4425 
Q 1341 4750 2034 4750 
Q 2731 4750 3128 4425 
Q 3525 4100 3525 3541 
Q 3525 3141 3298 2862 
Q 3072 2584 2669 2484 
Q 3125 2378 3379 2068 
Q 3634 1759 3634 1313 
Q 3634 634 3220 271 
Q 2806 -91 2034 -91 
Q 1263 -91 848 271 
Q 434 634 434 1313 
Q 434 1759 690 2068 
Q 947 2378 1403 2484 
z
M 1172 3481 
Q 1172 3119 1398 2916 
Q 1625 2713 2034 2713 
Q 2441 2713 2670 2916 
Q 2900 3119 2900 3481 
Q 2900 3844 2670 4047 
Q 2441 4250 2034 4250 
Q 1625 4250 1398 4047 
Q 1172 3844 1172 3481 
z
" transform="scale(0.015625)"/>
       </defs>
       <use xlink:href="#DejaVuSans-38"/>
      </g>
     </g>
    </g>
    <g id="xtick_6">
     <g id="line2d_6">
      <g>
       <use xlink:href="#m8e5d54e6a9" x="382.304375" y="245.90175" style="stroke: #000000; stroke-width: 0.8"/>
      </g>
     </g>
     <g id="text_6">
      <!-- 10 -->
      <g transform="translate(374.669375 262.019875) scale(0.12 -0.12)">
       <defs>
        <path id="DejaVuSans-31" d="M 794 531 
L 1825 531 
L 1825 4091 
L 703 3866 
L 703 4441 
L 1819 4666 
L 2450 4666 
L 2450 531 
L 3481 531 
L 3481 0 
L 794 0 
L 794 531 
z
" transform="scale(0.015625)"/>
       </defs>
       <use xlink:href="#DejaVuSans-31"/>
       <use xlink:href="#DejaVuSans-30" transform="translate(63.623047 0)"/>
      </g>
     </g>
    </g>
    <g id="text_7">
     <!-- $x$ -->
     <g transform="translate(211.304375 277.633625) scale(0.12 -0.12)">
      <defs>
       <path id="DejaVuSans-Oblique-78" d="M 3841 3500 
L 2234 1784 
L 3219 0 
L 2559 0 
L 1819 1388 
L 531 0 
L -166 0 
L 1556 1844 
L 641 3500 
L 1300 3500 
L 1972 2234 
L 3144 3500 
L 3841 3500 
z
" transform="scale(0.015625)"/>
      </defs>
      <use xlink:href="#DejaVuSans-Oblique-78" transform="translate(0 0.3125)"/>
     </g>
    </g>
   </g>
   <g id="matplotlib.axis_2">
    <g id="ytick_1">
     <g id="line2d_7">
      <defs>
       <path id="me8f4a966bc" d="M 0 0 
L -3.5 0 
" style="stroke: #000000; stroke-width: 0.8"/>
      </defs>
      <g>
       <use xlink:href="#me8f4a966bc" x="47.504375" y="229.772631" style="stroke: #000000; stroke-width: 0.8"/>
      </g>
     </g>
     <g id="text_8">
      <!-- 6 -->
      <g transform="translate(22.81375 234.331694) scale(0.12 -0.12)">
       <defs>
        <path id="DejaVuSans-2212" d="M 678 2272 
L 4684 2272 
L 4684 1741 
L 678 1741 
L 678 2272 
z
" transform="scale(0.015625)"/>
       </defs>
       <use xlink:href="#DejaVuSans-2212"/>
       <use xlink:href="#DejaVuSans-36" transform="translate(83.789062 0)"/>
      </g>
     </g>
    </g>
    <g id="ytick_2">
     <g id="line2d_8">
      <g>
       <use xlink:href="#me8f4a966bc" x="47.504375" y="202.206156" style="stroke: #000000; stroke-width: 0.8"/>
      </g>
     </g>
     <g id="text_9">
      <!-- 4 -->
      <g transform="translate(22.81375 206.765219) scale(0.12 -0.12)">
       <use xlink:href="#DejaVuSans-2212"/>
       <use xlink:href="#DejaVuSans-34" transform="translate(83.789062 0)"/>
      </g>
     </g>
    </g>
    <g id="ytick_3">
     <g id="line2d_9">
      <g>
       <use xlink:href="#me8f4a966bc" x="47.504375" y="174.639681" style="stroke: #000000; stroke-width: 0.8"/>
      </g>
     </g>
     <g id="text_10">
      <!-- 2 -->
      <g transform="translate(22.81375 179.198743) scale(0.12 -0.12)">
       <use xlink:href="#DejaVuSans-2212"/>
       <use xlink:href="#DejaVuSans-32" transform="translate(83.789062 0)"/>
      </g>
     </g>
    </g>
    <g id="ytick_4">
     <g id="line2d_10">
      <g>
       <use xlink:href="#me8f4a966bc" x="47.504375" y="147.073206" style="stroke: #000000; stroke-width: 0.8"/>
      </g>
     </g>
     <g id="text_11">
      <!-- 0 -->
      <g transform="translate(32.869375 151.632268) scale(0.12 -0.12)">
       <use xlink:href="#DejaVuSans-30"/>
      </g>
     </g>
    </g>
    <g id="ytick_5">
     <g id="line2d_11">
      <g>
       <use xlink:href="#me8f4a966bc" x="47.504375" y="119.506731" style="stroke: #000000; stroke-width: 0.8"/>
      </g>
     </g>
     <g id="text_12">
      <!-- 2 -->
      <g transform="translate(32.869375 124.065793) scale(0.12 -0.12)">
       <use xlink:href="#DejaVuSans-32"/>
      </g>
     </g>
    </g>
    <g id="ytick_6">
     <g id="line2d_12">
      <g>
       <use xlink:href="#me8f4a966bc" x="47.504375" y="91.940255" style="stroke: #000000; stroke-width: 0.8"/>
      </g>
     </g>
     <g id="text_13">
      <!-- 4 -->
      <g transform="translate(32.869375 96.499318) scale(0.12 -0.12)">
       <use xlink:href="#DejaVuSans-34"/>
      </g>
     </g>
    </g>
    <g id="ytick_7">
     <g id="line2d_13">
      <g>
       <use xlink:href="#me8f4a966bc" x="47.504375" y="64.37378" style="stroke: #000000; stroke-width: 0.8"/>
      </g>
     </g>
     <g id="text_14">
      <!-- 6 -->
      <g transform="translate(32.869375 68.932843) scale(0.12 -0.12)">
       <use xlink:href="#DejaVuSans-36"/>
      </g>
     </g>
    </g>
    <g id="ytick_8">
     <g id="line2d_14">
      <g>
       <use xlink:href="#me8f4a966bc" x="47.504375" y="36.807305" style="stroke: #000000; stroke-width: 0.8"/>
      </g>
     </g>
     <g id="text_15">
      <!-- 8 -->
      <g transform="translate(32.869375 41.366368) scale(0.12 -0.12)">
       <use xlink:href="#DejaVuSans-38"/>
      </g>
     </g>
    </g>
    <g id="text_16">
     <!-- $f(x)$ -->
     <g transform="translate(16.318125 145.40175) rotate(-90) scale(0.12 -0.12)">
      <defs>
       <path id="DejaVuSans-Oblique-66" d="M 3059 4863 
L 2969 4384 
L 2419 4384 
Q 2106 4384 1964 4261 
Q 1822 4138 1753 3809 
L 1691 3500 
L 2638 3500 
L 2553 3053 
L 1606 3053 
L 1013 0 
L 434 0 
L 1031 3053 
L 481 3053 
L 563 3500 
L 1113 3500 
L 1159 3744 
Q 1278 4363 1576 4613 
Q 1875 4863 2516 4863 
L 3059 4863 
z
" transform="scale(0.015625)"/>
       <path id="DejaVuSans-28" d="M 1984 4856 
Q 1566 4138 1362 3434 
Q 1159 2731 1159 2009 
Q 1159 1288 1364 580 
Q 1569 -128 1984 -844 
L 1484 -844 
Q 1016 -109 783 600 
Q 550 1309 550 2009 
Q 550 2706 781 3412 
Q 1013 4119 1484 4856 
L 1984 4856 
z
" transform="scale(0.015625)"/>
       <path id="DejaVuSans-29" d="M 513 4856 
L 1013 4856 
Q 1481 4119 1714 3412 
Q 1947 2706 1947 2009 
Q 1947 1309 1714 600 
Q 1481 -109 1013 -844 
L 513 -844 
Q 928 -128 1133 580 
Q 1338 1288 1338 2009 
Q 1338 2731 1133 3434 
Q 928 4138 513 4856 
z
" transform="scale(0.015625)"/>
      </defs>
      <use xlink:href="#DejaVuSans-Oblique-66" transform="translate(0 0.015625)"/>
      <use xlink:href="#DejaVuSans-28" transform="translate(35.205078 0.015625)"/>
      <use xlink:href="#DejaVuSans-Oblique-78" transform="translate(74.21875 0.015625)"/>
      <use xlink:href="#DejaVuSans-29" transform="translate(133.398438 0.015625)"/>
     </g>
    </g>
   </g>
   <g id="line2d_15">
    <defs>
     <path id="m516b5d6e25" d="M 0 3 
C 0.795609 3 1.55874 2.683901 2.12132 2.12132 
C 2.683901 1.55874 3 0.795609 3 0 
C 3 -0.795609 2.683901 -1.55874 2.12132 -2.12132 
C 1.55874 -2.683901 0.795609 -3 0 -3 
C -0.795609 -3 -1.55874 -2.683901 -2.12132 -2.12132 
C -2.683901 -1.55874 -3 -0.795609 -3 0 
C -3 0.795609 -2.683901 1.55874 -2.12132 2.12132 
C -1.55874 2.683901 -0.795609 3 0 3 
z
" style="stroke: #ff0000"/>
    </defs>
    <g clip-path="url(#p4fd9c7b282)">
     <use xlink:href="#m516b5d6e25" x="80.984375" y="135.475011" style="fill: #ff0000; stroke: #ff0000"/>
     <use xlink:href="#m516b5d6e25" x="147.944375" y="141.237934" style="fill: #ff0000; stroke: #ff0000"/>
     <use xlink:href="#m516b5d6e25" x="214.904375" y="213.158611" style="fill: #ff0000; stroke: #ff0000"/>
     <use xlink:href="#m516b5d6e25" x="248.384375" y="170.180707" style="fill: #ff0000; stroke: #ff0000"/>
     <use xlink:href="#m516b5d6e25" x="315.344375" y="37.980728" style="fill: #ff0000; stroke: #ff0000"/>
     <use xlink:href="#m516b5d6e25" x="382.304375" y="222.056928" style="fill: #ff0000; stroke: #ff0000"/>
     <use xlink:href="#m516b5d6e25" x="449.264375" y="235.82175" style="fill: #ff0000; stroke: #ff0000"/>
    </g>
   </g>
   <g id="line2d_16">
    <path d="M 47.504375 143.431454 
L 52.531402 142.056552 
L 59.904375 139.767862 
L 66.942213 137.648336 
L 70.963834 136.655814 
L 74.650321 135.979224 
L 78.001672 135.601774 
L 81.017889 135.474732 
L 84.034105 135.552739 
L 87.385456 135.867876 
L 91.071943 136.456019 
L 95.428699 137.392989 
L 110.50978 140.862538 
L 114.531402 141.431363 
L 118.217889 141.740692 
L 122.23951 141.853086 
L 126.931402 141.738386 
L 134.304375 141.277718 
L 140.336807 140.980222 
L 144.358429 140.993992 
L 147.70978 141.213969 
L 150.725997 141.619494 
L 153.742213 142.259778 
L 156.423294 143.055946 
L 159.104375 144.093675 
L 161.450321 145.2217 
L 163.796267 146.575193 
L 166.142213 148.173575 
L 168.488159 150.035783 
L 170.834105 152.17924 
L 173.180051 154.618478 
L 175.525997 157.363439 
L 178.207078 160.878927 
L 180.888159 164.78921 
L 183.904375 169.62575 
L 187.255726 175.457305 
L 191.947618 184.137078 
L 197.980051 195.263224 
L 200.996267 200.350473 
L 203.342213 203.899104 
L 205.353024 206.574891 
L 207.363834 208.853907 
L 209.03951 210.414928 
L 210.715186 211.643709 
L 212.055726 212.375305 
L 213.396267 212.876121 
L 214.736807 213.142004 
L 216.077348 213.171307 
L 217.417889 212.964905 
L 218.758429 212.526181 
L 220.09897 211.860944 
L 221.43951 210.977323 
L 223.115186 209.581541 
L 224.790861 207.885048 
L 226.801672 205.492481 
L 228.812483 202.762845 
L 231.493564 198.701979 
L 234.844916 193.153442 
L 248.250321 170.390551 
L 251.936807 164.807108 
L 256.293564 158.641512 
L 266.682753 144.186903 
L 269.69897 139.455285 
L 272.380051 134.828202 
L 275.061132 129.714186 
L 277.742213 124.048923 
L 280.423294 117.79799 
L 283.104375 110.9639 
L 286.120591 102.636444 
L 289.807078 91.737302 
L 299.525997 62.485473 
L 302.207078 55.382978 
L 304.217889 50.64167 
L 305.893564 47.161123 
L 307.56924 44.169794 
L 308.90978 42.163826 
L 310.250321 40.527212 
L 311.590861 39.279792 
L 312.596267 38.609536 
L 313.601672 38.172834 
L 314.607078 37.973851 
L 315.612483 38.015459 
L 316.617889 38.299222 
L 317.623294 38.825396 
L 318.628699 39.592941 
L 319.634105 40.599552 
L 320.974645 42.307307 
L 322.315186 44.42207 
L 323.655726 46.928837 
L 325.331402 50.585736 
L 327.007078 54.785551 
L 329.017889 60.476333 
L 331.363834 67.902077 
L 334.044916 77.246185 
L 337.061132 88.588541 
L 341.417889 105.943191 
L 353.147618 153.18133 
L 356.834105 166.968092 
L 360.185456 178.672944 
L 363.201672 188.36511 
L 365.882753 196.184647 
L 368.228699 202.324084 
L 370.23951 207.00843 
L 372.250321 211.115865 
L 373.925997 214.072096 
L 375.601672 216.586027 
L 377.277348 218.645375 
L 378.617889 219.960669 
L 379.958429 220.979631 
L 381.29897 221.704113 
L 382.304375 222.056928 
L 382.304375 222.056928 
" clip-path="url(#p4fd9c7b282)" style="fill: none; stroke-dasharray: 1.5,2.475; stroke-dashoffset: 0; stroke: #808080; stroke-width: 1.5"/>
   </g>
   <g id="patch_3">
    <path d="M 47.504375 245.90175 
L 47.504375 24.14175 
" style="fill: none; stroke: #000000; stroke-width: 0.8; stroke-linejoin: miter; stroke-linecap: square"/>
   </g>
   <g id="patch_4">
    <path d="M 382.304375 245.90175 
L 382.304375 24.14175 
" style="fill: none; stroke: #000000; stroke-width: 0.8; stroke-linejoin: miter; stroke-linecap: square"/>
   </g>
   <g id="patch_5">
    <path d="M 47.504375 245.90175 
L 382.304375 245.90175 
" style="fill: none; stroke: #000000; stroke-width: 0.8; stroke-linejoin: miter; stroke-linecap: square"/>
   </g>
   <g id="patch_6">
    <path d="M 47.504375 24.14175 
L 382.304375 24.14175 
" style="fill: none; stroke: #000000; stroke-width: 0.8; stroke-linejoin: miter; stroke-linecap: square"/>
   </g>
   <g id="text_17">
    <!-- Gaussian process regression -->
    <g transform="translate(112.1345 18.14175) scale(0.144 -0.144)">
     <defs>
      <path id="DejaVuSans-47" d="M 3809 666 
L 3809 1919 
L 2778 1919 
L 2778 2438 
L 4434 2438 
L 4434 434 
Q 4069 175 3628 42 
Q 3188 -91 2688 -91 
Q 1594 -91 976 548 
Q 359 1188 359 2328 
Q 359 3472 976 4111 
Q 1594 4750 2688 4750 
Q 3144 4750 3555 4637 
Q 3966 4525 4313 4306 
L 4313 3634 
Q 3963 3931 3569 4081 
Q 3175 4231 2741 4231 
Q 1884 4231 1454 3753 
Q 1025 3275 1025 2328 
Q 1025 1384 1454 906 
Q 1884 428 2741 428 
Q 3075 428 3337 486 
Q 3600 544 3809 666 
z
" transform="scale(0.015625)"/>
      <path id="DejaVuSans-61" d="M 2194 1759 
Q 1497 1759 1228 1600 
Q 959 1441 959 1056 
Q 959 750 1161 570 
Q 1363 391 1709 391 
Q 2188 391 2477 730 
Q 2766 1069 2766 1631 
L 2766 1759 
L 2194 1759 
z
M 3341 1997 
L 3341 0 
L 2766 0 
L 2766 531 
Q 2569 213 2275 61 
Q 1981 -91 1556 -91 
Q 1019 -91 701 211 
Q 384 513 384 1019 
Q 384 1609 779 1909 
Q 1175 2209 1959 2209 
L 2766 2209 
L 2766 2266 
Q 2766 2663 2505 2880 
Q 2244 3097 1772 3097 
Q 1472 3097 1187 3025 
Q 903 2953 641 2809 
L 641 3341 
Q 956 3463 1253 3523 
Q 1550 3584 1831 3584 
Q 2591 3584 2966 3190 
Q 3341 2797 3341 1997 
z
" transform="scale(0.015625)"/>
      <path id="DejaVuSans-75" d="M 544 1381 
L 544 3500 
L 1119 3500 
L 1119 1403 
Q 1119 906 1312 657 
Q 1506 409 1894 409 
Q 2359 409 2629 706 
Q 2900 1003 2900 1516 
L 2900 3500 
L 3475 3500 
L 3475 0 
L 2900 0 
L 2900 538 
Q 2691 219 2414 64 
Q 2138 -91 1772 -91 
Q 1169 -91 856 284 
Q 544 659 544 1381 
z
M 1991 3584 
L 1991 3584 
z
" transform="scale(0.015625)"/>
      <path id="DejaVuSans-73" d="M 2834 3397 
L 2834 2853 
Q 2591 2978 2328 3040 
Q 2066 3103 1784 3103 
Q 1356 3103 1142 2972 
Q 928 2841 928 2578 
Q 928 2378 1081 2264 
Q 1234 2150 1697 2047 
L 1894 2003 
Q 2506 1872 2764 1633 
Q 3022 1394 3022 966 
Q 3022 478 2636 193 
Q 2250 -91 1575 -91 
Q 1294 -91 989 -36 
Q 684 19 347 128 
L 347 722 
Q 666 556 975 473 
Q 1284 391 1588 391 
Q 1994 391 2212 530 
Q 2431 669 2431 922 
Q 2431 1156 2273 1281 
Q 2116 1406 1581 1522 
L 1381 1569 
Q 847 1681 609 1914 
Q 372 2147 372 2553 
Q 372 3047 722 3315 
Q 1072 3584 1716 3584 
Q 2034 3584 2315 3537 
Q 2597 3491 2834 3397 
z
" transform="scale(0.015625)"/>
      <path id="DejaVuSans-69" d="M 603 3500 
L 1178 3500 
L 1178 0 
L 603 0 
L 603 3500 
z
M 603 4863 
L 1178 4863 
L 1178 4134 
L 603 4134 
L 603 4863 
z
" transform="scale(0.015625)"/>
      <path id="DejaVuSans-6e" d="M 3513 2113 
L 3513 0 
L 2938 0 
L 2938 2094 
Q 2938 2591 2744 2837 
Q 2550 3084 2163 3084 
Q 1697 3084 1428 2787 
Q 1159 2491 1159 1978 
L 1159 0 
L 581 0 
L 581 3500 
L 1159 3500 
L 1159 2956 
Q 1366 3272 1645 3428 
Q 1925 3584 2291 3584 
Q 2894 3584 3203 3211 
Q 3513 2838 3513 2113 
z
" transform="scale(0.015625)"/>
      <path id="DejaVuSans-20" transform="scale(0.015625)"/>
      <path id="DejaVuSans-70" d="M 1159 525 
L 1159 -1331 
L 581 -1331 
L 581 3500 
L 1159 3500 
L 1159 2969 
Q 1341 3281 1617 3432 
Q 1894 3584 2278 3584 
Q 2916 3584 3314 3078 
Q 3713 2572 3713 1747 
Q 3713 922 3314 415 
Q 2916 -91 2278 -91 
Q 1894 -91 1617 61 
Q 1341 213 1159 525 
z
M 3116 1747 
Q 3116 2381 2855 2742 
Q 2594 3103 2138 3103 
Q 1681 3103 1420 2742 
Q 1159 2381 1159 1747 
Q 1159 1113 1420 752 
Q 1681 391 2138 391 
Q 2594 391 2855 752 
Q 3116 1113 3116 1747 
z
" transform="scale(0.015625)"/>
      <path id="DejaVuSans-72" d="M 2631 2963 
Q 2534 3019 2420 3045 
Q 2306 3072 2169 3072 
Q 1681 3072 1420 2755 
Q 1159 2438 1159 1844 
L 1159 0 
L 581 0 
L 581 3500 
L 1159 3500 
L 1159 2956 
Q 1341 3275 1631 3429 
Q 1922 3584 2338 3584 
Q 2397 3584 2469 3576 
Q 2541 3569 2628 3553 
L 2631 2963 
z
" transform="scale(0.015625)"/>
      <path id="DejaVuSans-6f" d="M 1959 3097 
Q 1497 3097 1228 2736 
Q 959 2375 959 1747 
Q 959 1119 1226 758 
Q 1494 397 1959 397 
Q 2419 397 2687 759 
Q 2956 1122 2956 1747 
Q 2956 2369 2687 2733 
Q 2419 3097 1959 3097 
z
M 1959 3584 
Q 2709 3584 3137 3096 
Q 3566 2609 3566 1747 
Q 3566 888 3137 398 
Q 2709 -91 1959 -91 
Q 1206 -91 779 398 
Q 353 888 353 1747 
Q 353 2609 779 3096 
Q 1206 3584 1959 3584 
z
" transform="scale(0.015625)"/>
      <path id="DejaVuSans-63" d="M 3122 3366 
L 3122 2828 
Q 2878 2963 2633 3030 
Q 2388 3097 2138 3097 
Q 1578 3097 1268 2742 
Q 959 2388 959 1747 
Q 959 1106 1268 751 
Q 1578 397 2138 397 
Q 2388 397 2633 464 
Q 2878 531 3122 666 
L 3122 134 
Q 2881 22 2623 -34 
Q 2366 -91 2075 -91 
Q 1284 -91 818 406 
Q 353 903 353 1747 
Q 353 2603 823 3093 
Q 1294 3584 2113 3584 
Q 2378 3584 2631 3529 
Q 2884 3475 3122 3366 
z
" transform="scale(0.015625)"/>
      <path id="DejaVuSans-65" d="M 3597 1894 
L 3597 1613 
L 953 1613 
Q 991 1019 1311 708 
Q 1631 397 2203 397 
Q 2534 397 2845 478 
Q 3156 559 3463 722 
L 3463 178 
Q 3153 47 2828 -22 
Q 2503 -91 2169 -91 
Q 1331 -91 842 396 
Q 353 884 353 1716 
Q 353 2575 817 3079 
Q 1281 3584 2069 3584 
Q 2775 3584 3186 3129 
Q 3597 2675 3597 1894 
z
M 3022 2063 
Q 3016 2534 2758 2815 
Q 2500 3097 2075 3097 
Q 1594 3097 1305 2825 
Q 1016 2553 972 2059 
L 3022 2063 
z
" transform="scale(0.015625)"/>
      <path id="DejaVuSans-67" d="M 2906 1791 
Q 2906 2416 2648 2759 
Q 2391 3103 1925 3103 
Q 1463 3103 1205 2759 
Q 947 2416 947 1791 
Q 947 1169 1205 825 
Q 1463 481 1925 481 
Q 2391 481 2648 825 
Q 2906 1169 2906 1791 
z
M 3481 434 
Q 3481 -459 3084 -895 
Q 2688 -1331 1869 -1331 
Q 1566 -1331 1297 -1286 
Q 1028 -1241 775 -1147 
L 775 -588 
Q 1028 -725 1275 -790 
Q 1522 -856 1778 -856 
Q 2344 -856 2625 -561 
Q 2906 -266 2906 331 
L 2906 616 
Q 2728 306 2450 153 
Q 2172 0 1784 0 
Q 1141 0 747 490 
Q 353 981 353 1791 
Q 353 2603 747 3093 
Q 1141 3584 1784 3584 
Q 2172 3584 2450 3431 
Q 2728 3278 2906 2969 
L 2906 3500 
L 3481 3500 
L 3481 434 
z
" transform="scale(0.015625)"/>
     </defs>
     <use xlink:href="#DejaVuSans-47"/>
     <use xlink:href="#DejaVuSans-61" transform="translate(77.490234 0)"/>
     <use xlink:href="#DejaVuSans-75" transform="translate(138.769531 0)"/>
     <use xlink:href="#DejaVuSans-73" transform="translate(202.148438 0)"/>
     <use xlink:href="#DejaVuSans-73" transform="translate(254.248047 0)"/>
     <use xlink:href="#DejaVuSans-69" transform="translate(306.347656 0)"/>
     <use xlink:href="#DejaVuSans-61" transform="translate(334.130859 0)"/>
     <use xlink:href="#DejaVuSans-6e" transform="translate(395.410156 0)"/>
     <use xlink:href="#DejaVuSans-20" transform="translate(458.789062 0)"/>
     <use xlink:href="#DejaVuSans-70" transform="translate(490.576172 0)"/>
     <use xlink:href="#DejaVuSans-72" transform="translate(554.052734 0)"/>
     <use xlink:href="#DejaVuSans-6f" transform="translate(592.916016 0)"/>
     <use xlink:href="#DejaVuSans-63" transform="translate(654.097656 0)"/>
     <use xlink:href="#DejaVuSans-65" transform="translate(709.078125 0)"/>
     <use xlink:href="#DejaVuSans-73" transform="translate(770.601562 0)"/>
     <use xlink:href="#DejaVuSans-73" transform="translate(822.701172 0)"/>
     <use xlink:href="#DejaVuSans-20" transform="translate(874.800781 0)"/>
     <use xlink:href="#DejaVuSans-72" transform="translate(906.587891 0)"/>
     <use xlink:href="#DejaVuSans-65" transform="translate(945.451172 0)"/>
     <use xlink:href="#DejaVuSans-67" transform="translate(1006.974609 0)"/>
     <use xlink:href="#DejaVuSans-72" transform="translate(1070.451172 0)"/>
     <use xlink:href="#DejaVuSans-65" transform="translate(1109.314453 0)"/>
     <use xlink:href="#DejaVuSans-73" transform="translate(1170.837891 0)"/>
     <use xlink:href="#DejaVuSans-73" transform="translate(1222.9375 0)"/>
     <use xlink:href="#DejaVuSans-69" transform="translate(1275.037109 0)"/>
     <use xlink:href="#DejaVuSans-6f" transform="translate(1302.820312 0)"/>
     <use xlink:href="#DejaVuSans-6e" transform="translate(1364.001953 0)"/>
    </g>
   </g>
   <g id="legend_1">
    <g id="patch_7">
     <path d="M 55.904375 86.583 
L 212.778125 86.583 
Q 215.178125 86.583 215.178125 84.183 
L 215.178125 32.54175 
Q 215.178125 30.14175 212.778125 30.14175 
L 55.904375 30.14175 
Q 53.504375 30.14175 53.504375 32.54175 
L 53.504375 84.183 
Q 53.504375 86.583 55.904375 86.583 
z
" style="fill: #ffffff; opacity: 0.8; stroke: #cccccc; stroke-linejoin: miter"/>
    </g>
    <g id="line2d_17">
     <g>
      <use xlink:href="#m516b5d6e25" x="70.304375" y="39.859875" style="fill: #ff0000; stroke: #ff0000"/>
     </g>
    </g>
    <g id="text_18">
     <!-- $f(x) = x \sin(x)$ -->
     <g transform="translate(91.904375 44.059875) scale(0.12 -0.12)">
      <defs>
       <path id="DejaVuSans-3d" d="M 678 2906 
L 4684 2906 
L 4684 2381 
L 678 2381 
L 678 2906 
z
M 678 1631 
L 4684 1631 
L 4684 1100 
L 678 1100 
L 678 1631 
z
" transform="scale(0.015625)"/>
      </defs>
      <use xlink:href="#DejaVuSans-Oblique-66" transform="translate(0 0.015625)"/>
      <use xlink:href="#DejaVuSans-28" transform="translate(35.205078 0.015625)"/>
      <use xlink:href="#DejaVuSans-Oblique-78" transform="translate(74.21875 0.015625)"/>
      <use xlink:href="#DejaVuSans-29" transform="translate(133.398438 0.015625)"/>
      <use xlink:href="#DejaVuSans-3d" transform="translate(191.894531 0.015625)"/>
      <use xlink:href="#DejaVuSans-Oblique-78" transform="translate(295.166016 0.015625)"/>
      <use xlink:href="#DejaVuSans-73" transform="translate(354.345703 0.015625)"/>
      <use xlink:href="#DejaVuSans-69" transform="translate(406.445312 0.015625)"/>
      <use xlink:href="#DejaVuSans-6e" transform="translate(434.228516 0.015625)"/>
      <use xlink:href="#DejaVuSans-28" transform="translate(497.607422 0.015625)"/>
      <use xlink:href="#DejaVuSans-Oblique-78" transform="translate(536.621094 0.015625)"/>
      <use xlink:href="#DejaVuSans-29" transform="translate(595.800781 0.015625)"/>
     </g>
    </g>
    <g id="line2d_18">
     <path d="M 58.304375 57.473625 
L 70.304375 57.473625 
L 82.304375 57.473625 
" style="fill: none; stroke-dasharray: 1.5,2.475; stroke-dashoffset: 0; stroke: #808080; stroke-width: 1.5"/>
    </g>
    <g id="text_19">
     <!-- Gaussian Prediction -->
     <g transform="translate(91.904375 61.673625) scale(0.12 -0.12)">
      <defs>
       <path id="DejaVuSans-50" d="M 1259 4147 
L 1259 2394 
L 2053 2394 
Q 2494 2394 2734 2622 
Q 2975 2850 2975 3272 
Q 2975 3691 2734 3919 
Q 2494 4147 2053 4147 
L 1259 4147 
z
M 628 4666 
L 2053 4666 
Q 2838 4666 3239 4311 
Q 3641 3956 3641 3272 
Q 3641 2581 3239 2228 
Q 2838 1875 2053 1875 
L 1259 1875 
L 1259 0 
L 628 0 
L 628 4666 
z
" transform="scale(0.015625)"/>
       <path id="DejaVuSans-64" d="M 2906 2969 
L 2906 4863 
L 3481 4863 
L 3481 0 
L 2906 0 
L 2906 525 
Q 2725 213 2448 61 
Q 2172 -91 1784 -91 
Q 1150 -91 751 415 
Q 353 922 353 1747 
Q 353 2572 751 3078 
Q 1150 3584 1784 3584 
Q 2172 3584 2448 3432 
Q 2725 3281 2906 2969 
z
M 947 1747 
Q 947 1113 1208 752 
Q 1469 391 1925 391 
Q 2381 391 2643 752 
Q 2906 1113 2906 1747 
Q 2906 2381 2643 2742 
Q 2381 3103 1925 3103 
Q 1469 3103 1208 2742 
Q 947 2381 947 1747 
z
" transform="scale(0.015625)"/>
       <path id="DejaVuSans-74" d="M 1172 4494 
L 1172 3500 
L 2356 3500 
L 2356 3053 
L 1172 3053 
L 1172 1153 
Q 1172 725 1289 603 
Q 1406 481 1766 481 
L 2356 481 
L 2356 0 
L 1766 0 
Q 1100 0 847 248 
Q 594 497 594 1153 
L 594 3053 
L 172 3053 
L 172 3500 
L 594 3500 
L 594 4494 
L 1172 4494 
z
" transform="scale(0.015625)"/>
      </defs>
      <use xlink:href="#DejaVuSans-47"/>
      <use xlink:href="#DejaVuSans-61" transform="translate(77.490234 0)"/>
      <use xlink:href="#DejaVuSans-75" transform="translate(138.769531 0)"/>
      <use xlink:href="#DejaVuSans-73" transform="translate(202.148438 0)"/>
      <use xlink:href="#DejaVuSans-73" transform="translate(254.248047 0)"/>
      <use xlink:href="#DejaVuSans-69" transform="translate(306.347656 0)"/>
      <use xlink:href="#DejaVuSans-61" transform="translate(334.130859 0)"/>
      <use xlink:href="#DejaVuSans-6e" transform="translate(395.410156 0)"/>
      <use xlink:href="#DejaVuSans-20" transform="translate(458.789062 0)"/>
      <use xlink:href="#DejaVuSans-50" transform="translate(490.576172 0)"/>
      <use xlink:href="#DejaVuSans-72" transform="translate(549.128906 0)"/>
      <use xlink:href="#DejaVuSans-65" transform="translate(587.992188 0)"/>
      <use xlink:href="#DejaVuSans-64" transform="translate(649.515625 0)"/>
      <use xlink:href="#DejaVuSans-69" transform="translate(712.992188 0)"/>
      <use xlink:href="#DejaVuSans-63" transform="translate(740.775391 0)"/>
      <use xlink:href="#DejaVuSans-74" transform="translate(795.755859 0)"/>
      <use xlink:href="#DejaVuSans-69" transform="translate(834.964844 0)"/>
      <use xlink:href="#DejaVuSans-6f" transform="translate(862.748047 0)"/>
      <use xlink:href="#DejaVuSans-6e" transform="translate(923.929688 0)"/>
     </g>
    </g>
    <g id="patch_8">
     <path d="M 58.304375 79.287375 
L 82.304375 79.287375 
L 82.304375 70.887375 
L 58.304375 70.887375 
z
" style="fill: #808080; fill-opacity: 0.2; stroke: #808080; stroke-opacity: 0.2; stroke-linejoin: miter"/>
    </g>
    <g id="text_20">
     <!-- Confidence Interval -->
     <g transform="translate(91.904375 79.287375) scale(0.12 -0.12)">
      <defs>
       <path id="DejaVuSans-43" d="M 4122 4306 
L 4122 3641 
Q 3803 3938 3442 4084 
Q 3081 4231 2675 4231 
Q 1875 4231 1450 3742 
Q 1025 3253 1025 2328 
Q 1025 1406 1450 917 
Q 1875 428 2675 428 
Q 3081 428 3442 575 
Q 3803 722 4122 1019 
L 4122 359 
Q 3791 134 3420 21 
Q 3050 -91 2638 -91 
Q 1578 -91 968 557 
Q 359 1206 359 2328 
Q 359 3453 968 4101 
Q 1578 4750 2638 4750 
Q 3056 4750 3426 4639 
Q 3797 4528 4122 4306 
z
" transform="scale(0.015625)"/>
       <path id="DejaVuSans-66" d="M 2375 4863 
L 2375 4384 
L 1825 4384 
Q 1516 4384 1395 4259 
Q 1275 4134 1275 3809 
L 1275 3500 
L 2222 3500 
L 2222 3053 
L 1275 3053 
L 1275 0 
L 697 0 
L 697 3053 
L 147 3053 
L 147 3500 
L 697 3500 
L 697 3744 
Q 697 4328 969 4595 
Q 1241 4863 1831 4863 
L 2375 4863 
z
" transform="scale(0.015625)"/>
       <path id="DejaVuSans-49" d="M 628 4666 
L 1259 4666 
L 1259 0 
L 628 0 
L 628 4666 
z
" transform="scale(0.015625)"/>
       <path id="DejaVuSans-76" d="M 191 3500 
L 800 3500 
L 1894 563 
L 2988 3500 
L 3597 3500 
L 2284 0 
L 1503 0 
L 191 3500 
z
" transform="scale(0.015625)"/>
       <path id="DejaVuSans-6c" d="M 603 4863 
L 1178 4863 
L 1178 0 
L 603 0 
L 603 4863 
z
" transform="scale(0.015625)"/>
      </defs>
      <use xlink:href="#DejaVuSans-43"/>
      <use xlink:href="#DejaVuSans-6f" transform="translate(69.824219 0)"/>
      <use xlink:href="#DejaVuSans-6e" transform="translate(131.005859 0)"/>
      <use xlink:href="#DejaVuSans-66" transform="translate(194.384766 0)"/>
      <use xlink:href="#DejaVuSans-69" transform="translate(229.589844 0)"/>
      <use xlink:href="#DejaVuSans-64" transform="translate(257.373047 0)"/>
      <use xlink:href="#DejaVuSans-65" transform="translate(320.849609 0)"/>
      <use xlink:href="#DejaVuSans-6e" transform="translate(382.373047 0)"/>
      <use xlink:href="#DejaVuSans-63" transform="translate(445.751953 0)"/>
      <use xlink:href="#DejaVuSans-65" transform="translate(500.732422 0)"/>
      <use xlink:href="#DejaVuSans-20" transform="translate(562.255859 0)"/>
      <use xlink:href="#DejaVuSans-49" transform="translate(594.042969 0)"/>
      <use xlink:href="#DejaVuSans-6e" transform="translate(623.535156 0)"/>
      <use xlink:href="#DejaVuSans-74" transform="translate(686.914062 0)"/>
      <use xlink:href="#DejaVuSans-65" transform="translate(726.123047 0)"/>
      <use xlink:href="#DejaVuSans-72" transform="translate(787.646484 0)"/>
      <use xlink:href="#DejaVuSans-76" transform="translate(828.759766 0)"/>
      <use xlink:href="#DejaVuSans-61" transform="translate(887.939453 0)"/>
      <use xlink:href="#DejaVuSans-6c" transform="translate(949.21875 0)"/>
     </g>
    </g>
   </g>
  </g>
 </g>
 <defs>
  <clipPath id="p4fd9c7b282">
   <rect x="47.504375" y="24.14175" width="334.8" height="221.76"/>
  </clipPath>
 </defs>
</svg>
