<?xml version="1.0" encoding="utf-8" standalone="no"?>
<!DOCTYPE svg PUBLIC "-//W3C//DTD SVG 1.1//EN"
  "http://www.w3.org/Graphics/SVG/1.1/DTD/svg11.dtd">
<svg xmlns:xlink="http://www.w3.org/1999/xlink" width="438.390312pt" height="325.986375pt" viewBox="0 0 438.390312 325.986375" xmlns="http://www.w3.org/2000/svg" version="1.1">
 <metadata>
  <rdf:RDF xmlns:dc="http://purl.org/dc/elements/1.1/" xmlns:cc="http://creativecommons.org/ns#" xmlns:rdf="http://www.w3.org/1999/02/22-rdf-syntax-ns#">
   <cc:Work>
    <dc:type rdf:resource="http://purl.org/dc/dcmitype/StillImage"/>
    <dc:date>2026-04-08T18:55:21.776246</dc:date>
    <dc:format>image/svg+xml</dc:format>
    <dc:creator>
     <cc:Agent>
      <dc:title>Matplotlib v3.10.8, https://matplotlib.org/</dc:title>
     </cc:Agent>
    </dc:creator>
   </cc:Work>
  </rdf:RDF>
 </metadata>
 <defs>
  <style type="text/css">*{stroke-linejoin: round; stroke-linecap: butt}</style>
 </defs>
 <g id="figure_1">
  <g id="patch_1">
   <path d="M 0 325.986375 
L 438.390312 325.986375 
L 438.390312 0 
L 0 0 
z
" style="fill: #ffffff"/>
  </g>
  <g id="axes_1">
   <g id="patch_2">
    <path d="M 74.070312 288.430125 
L 431.190313 288.430125 
L 431.190313 22.318125 
L 74.070312 22.318125 
z
" style="fill: #ffffff"/>
   </g>
   <g id="matplotlib.axis_1">
    <g id="xtick_1">
     <g id="line2d_1">
      <defs>
       <path id="m655b789168" d="M 0 0 
L 0 3.5 
" style="stroke: #000000; stroke-width: 0.8"/>
      </defs>
      <g>
       <use xlink:href="#m655b789168" x="90.30304" y="288.430125" style="stroke: #000000; stroke-width: 0.8"/>
      </g>
     </g>
     <g id="text_1">
      <!-- −1.00 -->
      <g transform="translate(74.980384 303.028562) scale(0.1 -0.1)">
       <defs>
        <path id="DejaVuSans-2212" d="M 678 2272 
L 4684 2272 
L 4684 1741 
L 678 1741 
L 678 2272 
z
" transform="scale(0.015625)"/>
        <path id="DejaVuSans-31" d="M 794 531 
L 1825 531 
L 1825 4091 
L 703 3866 
L 703 4441 
L 1819 4666 
L 2450 4666 
L 2450 531 
L 3481 531 
L 3481 0 
L 794 0 
L 794 531 
z
" transform="scale(0.015625)"/>
        <path id="DejaVuSans-2e" d="M 684 794 
L 1344 794 
L 1344 0 
L 684 0 
L 684 794 
z
" transform="scale(0.015625)"/>
        <path id="DejaVuSans-30" d="M 2034 4250 
Q 1547 4250 1301 3770 
Q 1056 3291 1056 2328 
Q 1056 1369 1301 889 
Q 1547 409 2034 409 
Q 2525 409 2770 889 
Q 3016 1369 3016 2328 
Q 3016 3291 2770 3770 
Q 2525 4250 2034 4250 
z
M 2034 4750 
Q 2819 4750 3233 4129 
Q 3647 3509 3647 2328 
Q 3647 1150 3233 529 
Q 2819 -91 2034 -91 
Q 1250 -91 836 529 
Q 422 1150 422 2328 
Q 422 3509 836 4129 
Q 1250 4750 2034 4750 
z
" transform="scale(0.015625)"/>
       </defs>
       <use xlink:href="#DejaVuSans-2212"/>
       <use xlink:href="#DejaVuSans-31" transform="translate(83.789062 0)"/>
       <use xlink:href="#DejaVuSans-2e" transform="translate(147.412109 0)"/>
       <use xlink:href="#DejaVuSans-30" transform="translate(179.199219 0)"/>
       <use xlink:href="#DejaVuSans-30" transform="translate(242.822266 0)"/>
      </g>
     </g>
    </g>
    <g id="xtick_2">
     <g id="line2d_2">
      <g>
       <use xlink:href="#m655b789168" x="130.884858" y="288.430125" style="stroke: #000000; stroke-width: 0.8"/>
      </g>
     </g>
     <g id="text_2">
      <!-- −0.75 -->
      <g transform="translate(115.562202 303.028562) scale(0.1 -0.1)">
       <defs>
        <path id="DejaVuSans-37" d="M 525 4666 
L 3525 4666 
L 3525 4397 
L 1831 0 
L 1172 0 
L 2766 4134 
L 525 4134 
L 525 4666 
z
" transform="scale(0.015625)"/>
        <path id="DejaVuSans-35" d="M 691 4666 
L 3169 4666 
L 3169 4134 
L 1269 4134 
L 1269 2991 
Q 1406 3038 1543 3061 
Q 1681 3084 1819 3084 
Q 2600 3084 3056 2656 
Q 3513 2228 3513 1497 
Q 3513 744 3044 326 
Q 2575 -91 1722 -91 
Q 1428 -91 1123 -41 
Q 819 9 494 109 
L 494 744 
Q 775 591 1075 516 
Q 1375 441 1709 441 
Q 2250 441 2565 725 
Q 2881 1009 2881 1497 
Q 2881 1984 2565 2268 
Q 2250 2553 1709 2553 
Q 1456 2553 1204 2497 
Q 953 2441 691 2322 
L 691 4666 
z
" transform="scale(0.015625)"/>
       </defs>
       <use xlink:href="#DejaVuSans-2212"/>
       <use xlink:href="#DejaVuSans-30" transform="translate(83.789062 0)"/>
       <use xlink:href="#DejaVuSans-2e" transform="translate(147.412109 0)"/>
       <use xlink:href="#DejaVuSans-37" transform="translate(179.199219 0)"/>
       <use xlink:href="#DejaVuSans-35" transform="translate(242.822266 0)"/>
      </g>
     </g>
    </g>
    <g id="xtick_3">
     <g id="line2d_3">
      <g>
       <use xlink:href="#m655b789168" x="171.466676" y="288.430125" style="stroke: #000000; stroke-width: 0.8"/>
      </g>
     </g>
     <g id="text_3">
      <!-- −0.50 -->
      <g transform="translate(156.14402 303.028562) scale(0.1 -0.1)">
       <use xlink:href="#DejaVuSans-2212"/>
       <use xlink:href="#DejaVuSans-30" transform="translate(83.789062 0)"/>
       <use xlink:href="#DejaVuSans-2e" transform="translate(147.412109 0)"/>
       <use xlink:href="#DejaVuSans-35" transform="translate(179.199219 0)"/>
       <use xlink:href="#DejaVuSans-30" transform="translate(242.822266 0)"/>
      </g>
     </g>
    </g>
    <g id="xtick_4">
     <g id="line2d_4">
      <g>
       <use xlink:href="#m655b789168" x="212.048494" y="288.430125" style="stroke: #000000; stroke-width: 0.8"/>
      </g>
     </g>
     <g id="text_4">
      <!-- −0.25 -->
      <g transform="translate(196.725838 303.028562) scale(0.1 -0.1)">
       <defs>
        <path id="DejaVuSans-32" d="M 1228 531 
L 3431 531 
L 3431 0 
L 469 0 
L 469 531 
Q 828 903 1448 1529 
Q 2069 2156 2228 2338 
Q 2531 2678 2651 2914 
Q 2772 3150 2772 3378 
Q 2772 3750 2511 3984 
Q 2250 4219 1831 4219 
Q 1534 4219 1204 4116 
Q 875 4013 500 3803 
L 500 4441 
Q 881 4594 1212 4672 
Q 1544 4750 1819 4750 
Q 2544 4750 2975 4387 
Q 3406 4025 3406 3419 
Q 3406 3131 3298 2873 
Q 3191 2616 2906 2266 
Q 2828 2175 2409 1742 
Q 1991 1309 1228 531 
z
" transform="scale(0.015625)"/>
       </defs>
       <use xlink:href="#DejaVuSans-2212"/>
       <use xlink:href="#DejaVuSans-30" transform="translate(83.789062 0)"/>
       <use xlink:href="#DejaVuSans-2e" transform="translate(147.412109 0)"/>
       <use xlink:href="#DejaVuSans-32" transform="translate(179.199219 0)"/>
       <use xlink:href="#DejaVuSans-35" transform="translate(242.822266 0)"/>
      </g>
     </g>
    </g>
    <g id="xtick_5">
     <g id="line2d_5">
      <g>
       <use xlink:href="#m655b789168" x="252.630313" y="288.430125" style="stroke: #000000; stroke-width: 0.8"/>
      </g>
     </g>
     <g id="text_5">
      <!-- 0.00 -->
      <g transform="translate(241.4975 303.028562) scale(0.1 -0.1)">
       <use xlink:href="#DejaVuSans-30"/>
       <use xlink:href="#DejaVuSans-2e" transform="translate(63.623047 0)"/>
       <use xlink:href="#DejaVuSans-30" transform="translate(95.410156 0)"/>
       <use xlink:href="#DejaVuSans-30" transform="translate(159.033203 0)"/>
      </g>
     </g>
    </g>
    <g id="xtick_6">
     <g id="line2d_6">
      <g>
       <use xlink:href="#m655b789168" x="293.212131" y="288.430125" style="stroke: #000000; stroke-width: 0.8"/>
      </g>
     </g>
     <g id="text_6">
      <!-- 0.25 -->
      <g transform="translate(282.079318 303.028562) scale(0.1 -0.1)">
       <use xlink:href="#DejaVuSans-30"/>
       <use xlink:href="#DejaVuSans-2e" transform="translate(63.623047 0)"/>
       <use xlink:href="#DejaVuSans-32" transform="translate(95.410156 0)"/>
       <use xlink:href="#DejaVuSans-35" transform="translate(159.033203 0)"/>
      </g>
     </g>
    </g>
    <g id="xtick_7">
     <g id="line2d_7">
      <g>
       <use xlink:href="#m655b789168" x="333.793949" y="288.430125" style="stroke: #000000; stroke-width: 0.8"/>
      </g>
     </g>
     <g id="text_7">
      <!-- 0.50 -->
      <g transform="translate(322.661136 303.028562) scale(0.1 -0.1)">
       <use xlink:href="#DejaVuSans-30"/>
       <use xlink:href="#DejaVuSans-2e" transform="translate(63.623047 0)"/>
       <use xlink:href="#DejaVuSans-35" transform="translate(95.410156 0)"/>
       <use xlink:href="#DejaVuSans-30" transform="translate(159.033203 0)"/>
      </g>
     </g>
    </g>
    <g id="xtick_8">
     <g id="line2d_8">
      <g>
       <use xlink:href="#m655b789168" x="374.375767" y="288.430125" style="stroke: #000000; stroke-width: 0.8"/>
      </g>
     </g>
     <g id="text_8">
      <!-- 0.75 -->
      <g transform="translate(363.242955 303.028562) scale(0.1 -0.1)">
       <use xlink:href="#DejaVuSans-30"/>
       <use xlink:href="#DejaVuSans-2e" transform="translate(63.623047 0)"/>
       <use xlink:href="#DejaVuSans-37" transform="translate(95.410156 0)"/>
       <use xlink:href="#DejaVuSans-35" transform="translate(159.033203 0)"/>
      </g>
     </g>
    </g>
    <g id="xtick_9">
     <g id="line2d_9">
      <g>
       <use xlink:href="#m655b789168" x="414.957585" y="288.430125" style="stroke: #000000; stroke-width: 0.8"/>
      </g>
     </g>
     <g id="text_9">
      <!-- 1.00 -->
      <g transform="translate(403.824773 303.028562) scale(0.1 -0.1)">
       <use xlink:href="#DejaVuSans-31"/>
       <use xlink:href="#DejaVuSans-2e" transform="translate(63.623047 0)"/>
       <use xlink:href="#DejaVuSans-30" transform="translate(95.410156 0)"/>
       <use xlink:href="#DejaVuSans-30" transform="translate(159.033203 0)"/>
      </g>
     </g>
    </g>
    <g id="text_10">
     <!-- $x \ / \ a_0$ -->
     <g transform="translate(239.280313 316.706687) scale(0.1 -0.1)">
      <defs>
       <path id="DejaVuSans-Oblique-78" d="M 3841 3500 
L 2234 1784 
L 3219 0 
L 2559 0 
L 1819 1388 
L 531 0 
L -166 0 
L 1556 1844 
L 641 3500 
L 1300 3500 
L 1972 2234 
L 3144 3500 
L 3841 3500 
z
" transform="scale(0.015625)"/>
       <path id="DejaVuSans-2f" d="M 1625 4666 
L 2156 4666 
L 531 -594 
L 0 -594 
L 1625 4666 
z
" transform="scale(0.015625)"/>
       <path id="DejaVuSans-Oblique-61" d="M 3438 1997 
L 3047 0 
L 2472 0 
L 2578 531 
Q 2325 219 2001 64 
Q 1678 -91 1281 -91 
Q 834 -91 548 182 
Q 263 456 263 884 
Q 263 1497 752 1853 
Q 1241 2209 2100 2209 
L 2900 2209 
L 2931 2363 
Q 2938 2388 2941 2417 
Q 2944 2447 2944 2509 
Q 2944 2788 2717 2942 
Q 2491 3097 2081 3097 
Q 1800 3097 1504 3025 
Q 1209 2953 897 2809 
L 997 3341 
Q 1322 3463 1633 3523 
Q 1944 3584 2234 3584 
Q 2853 3584 3176 3315 
Q 3500 3047 3500 2534 
Q 3500 2431 3484 2292 
Q 3469 2153 3438 1997 
z
M 2816 1759 
L 2241 1759 
Q 1534 1759 1195 1570 
Q 856 1381 856 984 
Q 856 709 1029 553 
Q 1203 397 1509 397 
Q 1978 397 2328 733 
Q 2678 1069 2791 1631 
L 2816 1759 
z
" transform="scale(0.015625)"/>
      </defs>
      <use xlink:href="#DejaVuSans-Oblique-78" transform="translate(0 0.09375)"/>
      <use xlink:href="#DejaVuSans-2f" transform="translate(91.650066 0.09375)"/>
      <use xlink:href="#DejaVuSans-Oblique-61" transform="translate(157.811851 0.09375)"/>
      <use xlink:href="#DejaVuSans-30" transform="translate(219.091147 -16.3125) scale(0.7)"/>
     </g>
    </g>
   </g>
   <g id="matplotlib.axis_2">
    <g id="ytick_1">
     <g id="line2d_10">
      <defs>
       <path id="m852801fe5b" d="M 0 0 
L -3.5 0 
" style="stroke: #000000; stroke-width: 0.8"/>
      </defs>
      <g>
       <use xlink:href="#m852801fe5b" x="74.070312" y="288.430125" style="stroke: #000000; stroke-width: 0.8"/>
      </g>
     </g>
     <g id="text_11">
      <!-- −0.0020 -->
      <g transform="translate(23.7 292.229344) scale(0.1 -0.1)">
       <use xlink:href="#DejaVuSans-2212"/>
       <use xlink:href="#DejaVuSans-30" transform="translate(83.789062 0)"/>
       <use xlink:href="#DejaVuSans-2e" transform="translate(147.412109 0)"/>
       <use xlink:href="#DejaVuSans-30" transform="translate(179.199219 0)"/>
       <use xlink:href="#DejaVuSans-30" transform="translate(242.822266 0)"/>
       <use xlink:href="#DejaVuSans-32" transform="translate(306.445312 0)"/>
       <use xlink:href="#DejaVuSans-30" transform="translate(370.068359 0)"/>
      </g>
     </g>
    </g>
    <g id="ytick_2">
     <g id="line2d_11">
      <g>
       <use xlink:href="#m852801fe5b" x="74.070312" y="255.166125" style="stroke: #000000; stroke-width: 0.8"/>
      </g>
     </g>
     <g id="text_12">
      <!-- −0.0015 -->
      <g transform="translate(23.7 258.965344) scale(0.1 -0.1)">
       <use xlink:href="#DejaVuSans-2212"/>
       <use xlink:href="#DejaVuSans-30" transform="translate(83.789062 0)"/>
       <use xlink:href="#DejaVuSans-2e" transform="translate(147.412109 0)"/>
       <use xlink:href="#DejaVuSans-30" transform="translate(179.199219 0)"/>
       <use xlink:href="#DejaVuSans-30" transform="translate(242.822266 0)"/>
       <use xlink:href="#DejaVuSans-31" transform="translate(306.445312 0)"/>
       <use xlink:href="#DejaVuSans-35" transform="translate(370.068359 0)"/>
      </g>
     </g>
    </g>
    <g id="ytick_3">
     <g id="line2d_12">
      <g>
       <use xlink:href="#m852801fe5b" x="74.070312" y="221.902125" style="stroke: #000000; stroke-width: 0.8"/>
      </g>
     </g>
     <g id="text_13">
      <!-- −0.0010 -->
      <g transform="translate(23.7 225.701344) scale(0.1 -0.1)">
       <use xlink:href="#DejaVuSans-2212"/>
       <use xlink:href="#DejaVuSans-30" transform="translate(83.789062 0)"/>
       <use xlink:href="#DejaVuSans-2e" transform="translate(147.412109 0)"/>
       <use xlink:href="#DejaVuSans-30" transform="translate(179.199219 0)"/>
       <use xlink:href="#DejaVuSans-30" transform="translate(242.822266 0)"/>
       <use xlink:href="#DejaVuSans-31" transform="translate(306.445312 0)"/>
       <use xlink:href="#DejaVuSans-30" transform="translate(370.068359 0)"/>
      </g>
     </g>
    </g>
    <g id="ytick_4">
     <g id="line2d_13">
      <g>
       <use xlink:href="#m852801fe5b" x="74.070312" y="188.638125" style="stroke: #000000; stroke-width: 0.8"/>
      </g>
     </g>
     <g id="text_14">
      <!-- −0.0005 -->
      <g transform="translate(23.7 192.437344) scale(0.1 -0.1)">
       <use xlink:href="#DejaVuSans-2212"/>
       <use xlink:href="#DejaVuSans-30" transform="translate(83.789062 0)"/>
       <use xlink:href="#DejaVuSans-2e" transform="translate(147.412109 0)"/>
       <use xlink:href="#DejaVuSans-30" transform="translate(179.199219 0)"/>
       <use xlink:href="#DejaVuSans-30" transform="translate(242.822266 0)"/>
       <use xlink:href="#DejaVuSans-30" transform="translate(306.445312 0)"/>
       <use xlink:href="#DejaVuSans-35" transform="translate(370.068359 0)"/>
      </g>
     </g>
    </g>
    <g id="ytick_5">
     <g id="line2d_14">
      <g>
       <use xlink:href="#m852801fe5b" x="74.070312" y="155.374125" style="stroke: #000000; stroke-width: 0.8"/>
      </g>
     </g>
     <g id="text_15">
      <!-- 0.0000 -->
      <g transform="translate(32.079687 159.173344) scale(0.1 -0.1)">
       <use xlink:href="#DejaVuSans-30"/>
       <use xlink:href="#DejaVuSans-2e" transform="translate(63.623047 0)"/>
       <use xlink:href="#DejaVuSans-30" transform="translate(95.410156 0)"/>
       <use xlink:href="#DejaVuSans-30" transform="translate(159.033203 0)"/>
       <use xlink:href="#DejaVuSans-30" transform="translate(222.65625 0)"/>
       <use xlink:href="#DejaVuSans-30" transform="translate(286.279297 0)"/>
      </g>
     </g>
    </g>
    <g id="ytick_6">
     <g id="line2d_15">
      <g>
       <use xlink:href="#m852801fe5b" x="74.070312" y="122.110125" style="stroke: #000000; stroke-width: 0.8"/>
      </g>
     </g>
     <g id="text_16">
      <!-- 0.0005 -->
      <g transform="translate(32.079687 125.909344) scale(0.1 -0.1)">
       <use xlink:href="#DejaVuSans-30"/>
       <use xlink:href="#DejaVuSans-2e" transform="translate(63.623047 0)"/>
       <use xlink:href="#DejaVuSans-30" transform="translate(95.410156 0)"/>
       <use xlink:href="#DejaVuSans-30" transform="translate(159.033203 0)"/>
       <use xlink:href="#DejaVuSans-30" transform="translate(222.65625 0)"/>
       <use xlink:href="#DejaVuSans-35" transform="translate(286.279297 0)"/>
      </g>
     </g>
    </g>
    <g id="ytick_7">
     <g id="line2d_16">
      <g>
       <use xlink:href="#m852801fe5b" x="74.070312" y="88.846125" style="stroke: #000000; stroke-width: 0.8"/>
      </g>
     </g>
     <g id="text_17">
      <!-- 0.0010 -->
      <g transform="translate(32.079687 92.645344) scale(0.1 -0.1)">
       <use xlink:href="#DejaVuSans-30"/>
       <use xlink:href="#DejaVuSans-2e" transform="translate(63.623047 0)"/>
       <use xlink:href="#DejaVuSans-30" transform="translate(95.410156 0)"/>
       <use xlink:href="#DejaVuSans-30" transform="translate(159.033203 0)"/>
       <use xlink:href="#DejaVuSans-31" transform="translate(222.65625 0)"/>
       <use xlink:href="#DejaVuSans-30" transform="translate(286.279297 0)"/>
      </g>
     </g>
    </g>
    <g id="ytick_8">
     <g id="line2d_17">
      <g>
       <use xlink:href="#m852801fe5b" x="74.070312" y="55.582125" style="stroke: #000000; stroke-width: 0.8"/>
      </g>
     </g>
     <g id="text_18">
      <!-- 0.0015 -->
      <g transform="translate(32.079687 59.381344) scale(0.1 -0.1)">
       <use xlink:href="#DejaVuSans-30"/>
       <use xlink:href="#DejaVuSans-2e" transform="translate(63.623047 0)"/>
       <use xlink:href="#DejaVuSans-30" transform="translate(95.410156 0)"/>
       <use xlink:href="#DejaVuSans-30" transform="translate(159.033203 0)"/>
       <use xlink:href="#DejaVuSans-31" transform="translate(222.65625 0)"/>
       <use xlink:href="#DejaVuSans-35" transform="translate(286.279297 0)"/>
      </g>
     </g>
    </g>
    <g id="ytick_9">
     <g id="line2d_18">
      <g>
       <use xlink:href="#m852801fe5b" x="74.070312" y="22.318125" style="stroke: #000000; stroke-width: 0.8"/>
      </g>
     </g>
     <g id="text_19">
      <!-- 0.0020 -->
      <g transform="translate(32.079687 26.117344) scale(0.1 -0.1)">
       <use xlink:href="#DejaVuSans-30"/>
       <use xlink:href="#DejaVuSans-2e" transform="translate(63.623047 0)"/>
       <use xlink:href="#DejaVuSans-30" transform="translate(95.410156 0)"/>
       <use xlink:href="#DejaVuSans-30" transform="translate(159.033203 0)"/>
       <use xlink:href="#DejaVuSans-32" transform="translate(222.65625 0)"/>
       <use xlink:href="#DejaVuSans-30" transform="translate(286.279297 0)"/>
      </g>
     </g>
    </g>
    <g id="text_20">
     <!-- $(\psi - \phi_m) \ / \ a_0^{-1/2}$ -->
     <g transform="translate(16.8 192.374125) rotate(-90) scale(0.1 -0.1)">
      <defs>
       <path id="DejaVuSans-28" d="M 1984 4856 
Q 1566 4138 1362 3434 
Q 1159 2731 1159 2009 
Q 1159 1288 1364 580 
Q 1569 -128 1984 -844 
L 1484 -844 
Q 1016 -109 783 600 
Q 550 1309 550 2009 
Q 550 2706 781 3412 
Q 1013 4119 1484 4856 
L 1984 4856 
z
" transform="scale(0.015625)"/>
       <path id="DejaVuSans-Oblique-3c8" d="M 1591 -78 
Q 891 38 616 341 
Q 278 713 425 1472 
L 819 3500 
L 1400 3500 
L 1009 1494 
Q 900 922 1119 684 
Q 1313 478 1691 434 
L 2284 3500 
L 2856 3500 
L 2263 438 
Q 2681 481 2928 688 
Q 3247 950 3353 1497 
L 3741 3500 
L 4322 3500 
L 3928 1475 
Q 3775 688 3300 344 
Q 2872 34 2163 -75 
L 1919 -1331 
L 1347 -1331 
L 1591 -78 
z
" transform="scale(0.015625)"/>
       <path id="DejaVuSans-Oblique-3d5" d="M 2991 4863 
L 2738 3572 
Q 3363 3572 3684 3094 
Q 4016 2606 3850 1747 
Q 3681 888 3159 400 
Q 2653 -78 2028 -78 
L 1784 -1331 
L 1213 -1331 
L 1456 -78 
Q 834 -78 509 400 
Q 178 888 347 1747 
Q 513 2606 1034 3094 
Q 1544 3572 2166 3572 
L 2419 4863 
L 2991 4863 
z
M 2128 434 
Q 2481 434 2784 756 
Q 3116 1116 3244 1747 
Q 3369 2372 3169 2738 
Q 2991 3059 2638 3059 
L 2128 434 
z
M 1556 434 
L 2066 3059 
Q 1716 3059 1413 2738 
Q 1072 2372 953 1747 
Q 834 1116 1028 756 
Q 1203 434 1556 434 
z
" transform="scale(0.015625)"/>
       <path id="DejaVuSans-Oblique-6d" d="M 5747 2113 
L 5338 0 
L 4763 0 
L 5166 2094 
Q 5191 2228 5203 2325 
Q 5216 2422 5216 2491 
Q 5216 2772 5059 2928 
Q 4903 3084 4622 3084 
Q 4203 3084 3875 2770 
Q 3547 2456 3450 1953 
L 3066 0 
L 2491 0 
L 2900 2094 
Q 2925 2209 2937 2307 
Q 2950 2406 2950 2484 
Q 2950 2769 2794 2926 
Q 2638 3084 2363 3084 
Q 1938 3084 1609 2770 
Q 1281 2456 1184 1953 
L 800 0 
L 225 0 
L 909 3500 
L 1484 3500 
L 1375 2956 
Q 1609 3263 1923 3423 
Q 2238 3584 2597 3584 
Q 2978 3584 3223 3384 
Q 3469 3184 3519 2828 
Q 3781 3197 4126 3390 
Q 4472 3584 4856 3584 
Q 5306 3584 5551 3325 
Q 5797 3066 5797 2591 
Q 5797 2488 5784 2364 
Q 5772 2241 5747 2113 
z
" transform="scale(0.015625)"/>
       <path id="DejaVuSans-29" d="M 513 4856 
L 1013 4856 
Q 1481 4119 1714 3412 
Q 1947 2706 1947 2009 
Q 1947 1309 1714 600 
Q 1481 -109 1013 -844 
L 513 -844 
Q 928 -128 1133 580 
Q 1338 1288 1338 2009 
Q 1338 2731 1133 3434 
Q 928 4138 513 4856 
z
" transform="scale(0.015625)"/>
      </defs>
      <use xlink:href="#DejaVuSans-28" transform="translate(0 0.440625)"/>
      <use xlink:href="#DejaVuSans-Oblique-3c8" transform="translate(39.013672 0.440625)"/>
      <use xlink:href="#DejaVuSans-2212" transform="translate(124.462891 0.440625)"/>
      <use xlink:href="#DejaVuSans-Oblique-3d5" transform="translate(227.734375 0.440625)"/>
      <use xlink:href="#DejaVuSans-Oblique-6d" transform="translate(293.701172 -15.965625) scale(0.7)"/>
      <use xlink:href="#DejaVuSans-29" transform="translate(364.624023 0.440625)"/>
      <use xlink:href="#DejaVuSans-2f" transform="translate(436.108074 0.440625)"/>
      <use xlink:href="#DejaVuSans-Oblique-61" transform="translate(502.269858 0.440625)"/>
      <use xlink:href="#DejaVuSans-2212" transform="translate(568.199051 44.046875) scale(0.7)"/>
      <use xlink:href="#DejaVuSans-31" transform="translate(626.851395 44.046875) scale(0.7)"/>
      <use xlink:href="#DejaVuSans-2f" transform="translate(671.387528 44.046875) scale(0.7)"/>
      <use xlink:href="#DejaVuSans-32" transform="translate(692.434012 44.046875) scale(0.7)"/>
      <use xlink:href="#DejaVuSans-30" transform="translate(563.549155 -26.903125) scale(0.7)"/>
     </g>
    </g>
   </g>
   <g id="line2d_19">
    <path d="M 90.30304 155.374125 
L 414.957585 155.374125 
" clip-path="url(#p567fe66b21)" style="fill: none; stroke: #000000; stroke-linecap: square"/>
   </g>
   <g id="line2d_20">
    <path d="M 90.30304 155.374125 
L 91.470605 326.986375 
M 189.593108 326.986375 
L 195.075295 -1 
M 310.18533 -1 
L 315.667517 326.986375 
M 413.79002 326.986375 
L 414.957585 155.374125 
L 414.957585 155.374125 
" clip-path="url(#p567fe66b21)" style="fill: none; stroke: #1f77b4; stroke-width: 1.5; stroke-linecap: square"/>
   </g>
   <g id="line2d_21">
    <path d="M 90.30304 155.374125 
L 95.502712 153.616151 
L 100.052426 152.299407 
L 104.602139 151.220659 
L 108.826873 150.44345 
L 113.051607 149.882597 
L 117.60132 149.511502 
L 122.151033 149.364795 
L 127.025726 149.43012 
L 132.550378 149.740886 
L 138.724989 150.323283 
L 146.524498 151.30138 
L 164.398371 153.871932 
L 174.472737 155.157153 
L 182.922204 156.017017 
L 191.046693 156.626509 
L 199.49616 157.038475 
L 208.920566 157.267172 
L 220.29485 157.309597 
L 271.966594 157.205416 
L 292.765284 157.302681 
L 303.164629 157.123653 
L 311.939076 156.758876 
L 320.388543 156.183023 
L 328.838011 155.375162 
L 337.937438 154.269135 
L 350.28666 152.514019 
L 363.61082 150.665073 
L 370.76037 149.901276 
L 376.610001 149.497517 
L 381.809674 149.360952 
L 386.684367 149.461892 
L 391.23408 149.783207 
L 395.458814 150.294991 
L 399.683548 151.021957 
L 403.908281 151.966072 
L 408.457995 153.217011 
L 413.332688 154.799363 
L 414.957585 155.374125 
L 414.957585 155.374125 
" clip-path="url(#p567fe66b21)" style="fill: none; stroke-dasharray: 5.55,2.4; stroke-dashoffset: 0; stroke: #ff7f0e; stroke-width: 1.5"/>
   </g>
   <g id="line2d_22">
    <path d="M 90.30304 155.374125 
L 91.602958 158.616619 
L 92.902876 161.291959 
L 94.202794 163.453169 
L 95.502712 165.15001 
L 96.80263 166.42912 
L 98.102548 167.334145 
L 99.402466 167.90587 
L 100.702385 168.182348 
L 102.002303 168.19902 
L 103.302221 167.988837 
L 104.927118 167.453453 
L 106.552016 166.665987 
L 108.501893 165.457732 
L 110.77675 163.780671 
L 114.026545 161.081106 
L 122.476013 153.900835 
L 125.725808 151.509009 
L 128.325644 149.847387 
L 130.92548 148.439021 
L 133.525317 147.298887 
L 135.800173 146.525683 
L 138.07503 145.960423 
L 140.349887 145.597465 
L 142.949723 145.418691 
L 145.549559 145.474511 
L 148.149395 145.743526 
L 151.074211 146.270995 
L 154.324006 147.09292 
L 158.22376 148.33512 
L 163.098453 150.149143 
L 178.372491 156.025979 
L 182.922204 157.432303 
L 186.821959 158.417438 
L 190.721713 159.176464 
L 194.621467 159.699926 
L 198.521222 159.989144 
L 202.420976 160.055117 
L 206.64571 159.897318 
L 211.195423 159.498836 
L 216.395095 158.818259 
L 223.869625 157.588309 
L 235.893867 155.600503 
L 241.743498 154.879864 
L 246.943171 154.469181 
L 251.817864 154.313497 
L 256.692557 154.391657 
L 261.567249 154.697959 
L 266.766922 155.250496 
L 272.941533 156.144378 
L 283.990837 158.036022 
L 291.140386 159.140594 
L 296.340059 159.724809 
L 300.889772 160.010155 
L 305.114506 160.042826 
L 309.01426 159.848476 
L 312.914014 159.423359 
L 316.813769 158.761976 
L 320.713523 157.869175 
L 324.938257 156.659837 
L 329.48797 155.117264 
L 335.337602 152.877094 
L 346.711885 148.448597 
L 350.611639 147.186845 
L 353.861435 146.342796 
L 356.78625 145.790969 
L 359.711066 145.474511 
L 362.310902 145.418691 
L 364.910738 145.597465 
L 367.185595 145.960423 
L 369.460452 146.525683 
L 371.735308 147.298887 
L 374.010165 148.28164 
L 376.610001 149.657082 
L 379.209837 151.288237 
L 382.134653 153.397556 
L 385.709428 156.289668 
L 396.108773 165.00361 
L 398.383629 166.482694 
L 400.008527 167.314468 
L 401.633425 167.904478 
L 402.933343 168.166508 
L 404.233261 168.209544 
L 405.533179 168.001241 
L 406.833097 167.506791 
L 407.808036 166.925779 
L 408.782974 166.146068 
L 410.082892 164.766732 
L 411.38281 162.95829 
L 412.682729 160.673338 
L 413.982647 157.861312 
L 414.957585 155.374125 
L 414.957585 155.374125 
" clip-path="url(#p567fe66b21)" style="fill: none; stroke-dasharray: 1.5,2.475; stroke-dashoffset: 0; stroke: #2ca02c; stroke-width: 1.5"/>
   </g>
   <g id="line2d_23">
    <path d="M 90.30304 155.374125 
L 92.252917 152.740483 
L 93.877815 150.921265 
L 95.502712 149.471904 
L 96.80263 148.5877 
L 98.102548 147.949879 
L 99.402466 147.555682 
L 100.702385 147.398853 
L 102.002303 147.470144 
L 103.302221 147.757771 
L 104.602139 148.247843 
L 106.227036 149.121206 
L 107.851934 150.253022 
L 109.801811 151.901968 
L 112.076668 154.145163 
L 115.001484 157.375037 
L 124.42589 168.080319 
L 127.025726 170.557975 
L 129.300583 172.409306 
L 131.25046 173.723935 
L 133.200337 174.763578 
L 134.825235 175.408029 
L 136.450132 175.843909 
L 138.07503 176.067687 
L 139.699928 176.078449 
L 141.324825 175.877768 
L 142.949723 175.469554 
L 144.57462 174.859902 
L 146.524498 173.873963 
L 148.474375 172.627178 
L 150.749231 170.870838 
L 153.024088 168.825823 
L 155.623924 166.189535 
L 158.87372 162.546024 
L 163.423433 157.049068 
L 171.222941 147.593994 
L 174.472737 144.01004 
L 177.397552 141.109774 
L 179.997389 138.851657 
L 182.272245 137.158266 
L 184.547102 135.75338 
L 186.496979 134.793065 
L 188.446856 134.067223 
L 190.396733 133.581838 
L 192.346611 133.340123 
L 194.296488 133.34256 
L 196.246365 133.58695 
L 198.196242 134.068499 
L 200.146119 134.779917 
L 202.095996 135.71155 
L 204.370853 137.060821 
L 206.64571 138.671199 
L 209.245546 140.798105 
L 212.170362 143.504042 
L 215.420157 146.819418 
L 219.96987 151.819821 
L 230.044236 163.022047 
L 233.61901 166.589896 
L 236.543826 169.203975 
L 239.143662 171.244798 
L 241.418519 172.781945 
L 243.693376 174.064969 
L 245.968232 175.076389 
L 247.918109 175.716619 
L 249.867987 176.140749 
L 251.817864 176.344552 
L 253.767741 176.325999 
L 255.717618 176.085274 
L 257.667495 175.624775 
L 259.617372 174.949092 
L 261.892229 173.89794 
L 264.167086 172.577459 
L 266.441942 171.005643 
L 269.041779 168.929232 
L 271.966594 166.281039 
L 275.216389 163.022047 
L 279.441123 158.435517 
L 291.465366 145.12684 
L 294.715161 141.963419 
L 297.639977 139.435007 
L 300.239813 137.495353 
L 302.51467 136.069039 
L 304.789526 134.92019 
L 306.739403 134.171337 
L 308.689281 133.650906 
L 310.639158 133.366587 
L 312.589035 133.323601 
L 314.538912 133.524584 
L 316.488789 133.969507 
L 318.438666 134.655613 
L 320.388543 135.577382 
L 322.338421 136.726522 
L 324.613277 138.339675 
L 326.888134 140.224991 
L 329.48797 142.678058 
L 332.412786 145.760835 
L 335.987561 149.881597 
L 341.837192 157.049068 
L 347.036865 163.299717 
L 350.28666 166.875119 
L 352.886496 169.437177 
L 355.161353 171.403854 
L 357.436209 173.070535 
L 359.386086 174.232527 
L 361.335964 175.12746 
L 362.960861 175.657401 
L 364.585759 175.983214 
L 366.210656 176.09966 
L 367.835554 176.003743 
L 369.460452 175.694871 
L 371.085349 175.174989 
L 372.710247 174.448706 
L 374.660124 173.315308 
L 376.610001 171.913651 
L 378.884858 169.971989 
L 381.484694 167.409803 
L 384.40951 164.199731 
L 394.483875 152.826661 
L 396.758732 150.770173 
L 398.708609 149.328008 
L 400.333507 148.400196 
L 401.958404 147.757771 
L 403.258322 147.470144 
L 404.55824 147.398853 
L 405.858159 147.555682 
L 407.158077 147.949879 
L 408.457995 148.5877 
L 409.757913 149.471904 
L 411.057831 150.601218 
L 412.682729 152.348091 
L 414.307626 154.445191 
L 414.957585 155.374125 
L 414.957585 155.374125 
" clip-path="url(#p567fe66b21)" style="fill: none; stroke-dasharray: 9.6,2.4,1.5,2.4; stroke-dashoffset: 0; stroke: #d62728; stroke-width: 1.5"/>
   </g>
   <g id="line2d_24">
    <path d="M 90.30304 155.374125 
L 91.277978 157.556304 
L 91.927937 158.588112 
L 92.577896 159.325943 
L 93.227855 159.804736 
L 93.877815 160.056817 
L 94.527774 160.112036 
L 95.177733 159.997908 
L 96.152671 159.563968 
L 97.12761 158.88217 
L 98.427528 157.702166 
L 100.702385 155.252973 
L 103.95218 151.783412 
L 105.577077 150.335651 
L 107.201975 149.178854 
L 108.501893 148.489622 
L 109.801811 148.020879 
L 111.101729 147.774098 
L 112.401647 147.744417 
L 113.701566 147.92185 
L 115.001484 148.292356 
L 116.626381 149.00064 
L 118.251279 149.94533 
L 120.201156 151.332151 
L 122.800992 153.487889 
L 132.875358 162.24855 
L 135.150214 163.790466 
L 137.100091 164.88236 
L 139.049969 165.74007 
L 140.999846 166.350909 
L 142.949723 166.709532 
L 144.8996 166.817264 
L 146.849477 166.681354 
L 148.799354 166.314185 
L 150.749231 165.732472 
L 153.024088 164.809814 
L 155.623924 163.478994 
L 158.54874 161.701885 
L 162.123515 159.254772 
L 173.822778 151.00916 
L 177.072573 149.096808 
L 179.997389 147.63466 
L 182.597225 146.569924 
L 185.197061 145.743124 
L 187.796897 145.163071 
L 190.396733 144.831951 
L 192.99657 144.74591 
L 195.596406 144.895724 
L 198.196242 145.267527 
L 201.121058 145.928914 
L 204.045874 146.818735 
L 207.295669 148.034312 
L 211.195423 149.740317 
L 216.395095 152.288545 
L 229.069297 158.627255 
L 233.294031 160.448177 
L 237.193785 161.887593 
L 240.76856 162.963968 
L 244.018355 163.717217 
L 247.26815 164.240313 
L 250.517946 164.523089 
L 253.767741 164.560125 
L 257.017536 164.350717 
L 260.267331 163.898867 
L 263.517127 163.213311 
L 266.766922 162.30758 
L 270.341697 161.079064 
L 274.241451 159.497533 
L 278.791164 157.400482 
L 285.290755 154.123384 
L 293.740222 149.892102 
L 297.964956 148.034312 
L 301.539731 146.709606 
L 304.464547 145.843561 
L 307.389362 145.209486 
L 309.989199 144.864533 
L 312.589035 144.74353 
L 315.188871 144.859805 
L 317.788707 145.221948 
L 320.388543 145.833095 
L 322.98838 146.69026 
L 325.588216 147.783769 
L 328.513032 149.275248 
L 331.762827 151.214845 
L 335.337602 153.614819 
L 341.837192 158.319803 
L 346.386905 161.489835 
L 349.636701 163.478994 
L 352.236537 164.809814 
L 354.511394 165.732472 
L 356.461271 166.314185 
L 358.411148 166.681354 
L 360.361025 166.817264 
L 362.310902 166.709532 
L 364.260779 166.350909 
L 366.210656 165.74007 
L 368.160534 164.88236 
L 370.110411 163.790466 
L 372.385267 162.24855 
L 374.985104 160.191922 
L 378.559878 157.026293 
L 384.08453 152.107306 
L 386.359387 150.380127 
L 388.309264 149.171964 
L 389.934162 148.413196 
L 391.559059 147.92185 
L 392.858978 147.744417 
L 394.158896 147.774098 
L 395.458814 148.020879 
L 396.758732 148.489622 
L 398.05865 149.178854 
L 399.683548 150.335651 
L 401.308445 151.783412 
L 403.583302 154.166611 
L 407.158077 158.019574 
L 408.457995 159.132647 
L 409.432933 159.739736 
L 410.407872 160.074508 
L 411.057831 160.107261 
L 411.70779 159.957193 
L 412.357749 159.59564 
L 413.007708 158.991528 
L 413.657667 158.111245 
L 414.307626 156.91849 
L 414.957585 155.374125 
L 414.957585 155.374125 
" clip-path="url(#p567fe66b21)" style="fill: none; stroke: #9467bd; stroke-width: 1.5; stroke-linecap: square"/>
   </g>
   <g id="line2d_25">
    <path d="M 90.30304 155.374125 
L 90.952999 156.42755 
L 91.602958 157.171858 
L 92.252917 157.651851 
L 92.902876 157.908075 
L 93.552835 157.977116 
L 94.527774 157.800754 
L 95.502712 157.373406 
L 96.80263 156.552091 
L 102.327282 152.665564 
L 103.95218 151.944603 
L 105.252098 151.585866 
L 106.552016 151.425924 
L 107.851934 151.458899 
L 109.476832 151.750692 
L 111.101729 152.285669 
L 113.051607 153.184666 
L 115.651443 154.679225 
L 123.450951 159.397235 
L 125.725808 160.432138 
L 127.675685 161.107624 
L 129.625562 161.568891 
L 131.575439 161.809545 
L 133.525317 161.832934 
L 135.475194 161.650707 
L 137.75005 161.203105 
L 140.349887 160.428934 
L 143.274702 159.303663 
L 147.499436 157.405342 
L 153.999027 154.481473 
L 157.248822 153.262485 
L 160.173638 152.39485 
L 162.773474 151.836073 
L 165.37331 151.490267 
L 167.973146 151.358789 
L 170.572982 151.433285 
L 173.497798 151.742182 
L 176.747593 152.324372 
L 180.647348 153.27476 
L 186.496979 154.976306 
L 193.321549 156.91856 
L 197.546283 157.877392 
L 201.121058 158.458843 
L 204.370853 158.773125 
L 207.620648 158.870248 
L 210.870444 158.750191 
L 214.445218 158.381266 
L 218.344973 157.730007 
L 222.569706 156.793819 
L 228.744317 155.171176 
L 237.518765 152.879485 
L 242.068478 151.936071 
L 245.968232 151.353865 
L 249.543007 151.04004 
L 253.117782 150.954981 
L 256.692557 151.103454 
L 260.267331 151.477135 
L 264.167086 152.116603 
L 268.716799 153.111145 
L 274.89141 154.726222 
L 283.990837 157.102735 
L 288.21557 157.973007 
L 291.790345 158.505117 
L 295.36512 158.80854 
L 298.614915 158.864145 
L 301.864711 158.701324 
L 305.114506 158.323725 
L 308.689281 157.679874 
L 312.589035 156.749791 
L 318.113687 155.171321 
L 325.913195 152.933633 
L 329.81295 152.064616 
L 333.062745 151.577309 
L 335.987561 151.371157 
L 338.587397 151.398046 
L 341.187233 151.636222 
L 343.787069 152.089336 
L 346.386905 152.750752 
L 349.311721 153.721203 
L 352.886496 155.170083 
L 358.736127 157.858551 
L 362.960861 159.702799 
L 365.885677 160.748299 
L 368.160534 161.3549 
L 370.43539 161.733281 
L 372.385267 161.848713 
L 374.335145 161.753818 
L 376.285022 161.439546 
L 378.234899 160.905641 
L 380.184776 160.162045 
L 382.459633 159.058644 
L 385.384448 157.355422 
L 392.533998 153.018617 
L 394.483875 152.161309 
L 396.108773 151.671544 
L 397.73367 151.433187 
L 399.033589 151.447451 
L 400.333507 151.656878 
L 401.633425 152.065149 
L 403.258322 152.843691 
L 404.88322 153.87843 
L 410.407872 157.681866 
L 411.38281 157.951862 
L 412.03277 157.963854 
L 412.682729 157.805558 
L 413.332688 157.442263 
L 413.982647 156.83544 
L 414.632606 155.942452 
L 414.957585 155.374125 
L 414.957585 155.374125 
" clip-path="url(#p567fe66b21)" style="fill: none; stroke-dasharray: 5.55,2.4; stroke-dashoffset: 0; stroke: #8c564b; stroke-width: 1.5"/>
   </g>
   <g id="patch_3">
    <path d="M 74.070312 288.430125 
L 74.070312 22.318125 
" style="fill: none; stroke: #000000; stroke-width: 0.8; stroke-linejoin: miter; stroke-linecap: square"/>
   </g>
   <g id="patch_4">
    <path d="M 431.190313 288.430125 
L 431.190313 22.318125 
" style="fill: none; stroke: #000000; stroke-width: 0.8; stroke-linejoin: miter; stroke-linecap: square"/>
   </g>
   <g id="patch_5">
    <path d="M 74.070312 288.430125 
L 431.190313 288.430125 
" style="fill: none; stroke: #000000; stroke-width: 0.8; stroke-linejoin: miter; stroke-linecap: square"/>
   </g>
   <g id="patch_6">
    <path d="M 74.070312 22.318125 
L 431.190313 22.318125 
" style="fill: none; stroke: #000000; stroke-width: 0.8; stroke-linejoin: miter; stroke-linecap: square"/>
   </g>
   <g id="text_21">
    <!-- Wavefunction Approximation Error vs Energy Error -->
    <g transform="translate(101.418125 16.318125) scale(0.12 -0.12)">
     <defs>
      <path id="DejaVuSans-57" d="M 213 4666 
L 850 4666 
L 1831 722 
L 2809 4666 
L 3519 4666 
L 4500 722 
L 5478 4666 
L 6119 4666 
L 4947 0 
L 4153 0 
L 3169 4050 
L 2175 0 
L 1381 0 
L 213 4666 
z
" transform="scale(0.015625)"/>
      <path id="DejaVuSans-61" d="M 2194 1759 
Q 1497 1759 1228 1600 
Q 959 1441 959 1056 
Q 959 750 1161 570 
Q 1363 391 1709 391 
Q 2188 391 2477 730 
Q 2766 1069 2766 1631 
L 2766 1759 
L 2194 1759 
z
M 3341 1997 
L 3341 0 
L 2766 0 
L 2766 531 
Q 2569 213 2275 61 
Q 1981 -91 1556 -91 
Q 1019 -91 701 211 
Q 384 513 384 1019 
Q 384 1609 779 1909 
Q 1175 2209 1959 2209 
L 2766 2209 
L 2766 2266 
Q 2766 2663 2505 2880 
Q 2244 3097 1772 3097 
Q 1472 3097 1187 3025 
Q 903 2953 641 2809 
L 641 3341 
Q 956 3463 1253 3523 
Q 1550 3584 1831 3584 
Q 2591 3584 2966 3190 
Q 3341 2797 3341 1997 
z
" transform="scale(0.015625)"/>
      <path id="DejaVuSans-76" d="M 191 3500 
L 800 3500 
L 1894 563 
L 2988 3500 
L 3597 3500 
L 2284 0 
L 1503 0 
L 191 3500 
z
" transform="scale(0.015625)"/>
      <path id="DejaVuSans-65" d="M 3597 1894 
L 3597 1613 
L 953 1613 
Q 991 1019 1311 708 
Q 1631 397 2203 397 
Q 2534 397 2845 478 
Q 3156 559 3463 722 
L 3463 178 
Q 3153 47 2828 -22 
Q 2503 -91 2169 -91 
Q 1331 -91 842 396 
Q 353 884 353 1716 
Q 353 2575 817 3079 
Q 1281 3584 2069 3584 
Q 2775 3584 3186 3129 
Q 3597 2675 3597 1894 
z
M 3022 2063 
Q 3016 2534 2758 2815 
Q 2500 3097 2075 3097 
Q 1594 3097 1305 2825 
Q 1016 2553 972 2059 
L 3022 2063 
z
" transform="scale(0.015625)"/>
      <path id="DejaVuSans-66" d="M 2375 4863 
L 2375 4384 
L 1825 4384 
Q 1516 4384 1395 4259 
Q 1275 4134 1275 3809 
L 1275 3500 
L 2222 3500 
L 2222 3053 
L 1275 3053 
L 1275 0 
L 697 0 
L 697 3053 
L 147 3053 
L 147 3500 
L 697 3500 
L 697 3744 
Q 697 4328 969 4595 
Q 1241 4863 1831 4863 
L 2375 4863 
z
" transform="scale(0.015625)"/>
      <path id="DejaVuSans-75" d="M 544 1381 
L 544 3500 
L 1119 3500 
L 1119 1403 
Q 1119 906 1312 657 
Q 1506 409 1894 409 
Q 2359 409 2629 706 
Q 2900 1003 2900 1516 
L 2900 3500 
L 3475 3500 
L 3475 0 
L 2900 0 
L 2900 538 
Q 2691 219 2414 64 
Q 2138 -91 1772 -91 
Q 1169 -91 856 284 
Q 544 659 544 1381 
z
M 1991 3584 
L 1991 3584 
z
" transform="scale(0.015625)"/>
      <path id="DejaVuSans-6e" d="M 3513 2113 
L 3513 0 
L 2938 0 
L 2938 2094 
Q 2938 2591 2744 2837 
Q 2550 3084 2163 3084 
Q 1697 3084 1428 2787 
Q 1159 2491 1159 1978 
L 1159 0 
L 581 0 
L 581 3500 
L 1159 3500 
L 1159 2956 
Q 1366 3272 1645 3428 
Q 1925 3584 2291 3584 
Q 2894 3584 3203 3211 
Q 3513 2838 3513 2113 
z
" transform="scale(0.015625)"/>
      <path id="DejaVuSans-63" d="M 3122 3366 
L 3122 2828 
Q 2878 2963 2633 3030 
Q 2388 3097 2138 3097 
Q 1578 3097 1268 2742 
Q 959 2388 959 1747 
Q 959 1106 1268 751 
Q 1578 397 2138 397 
Q 2388 397 2633 464 
Q 2878 531 3122 666 
L 3122 134 
Q 2881 22 2623 -34 
Q 2366 -91 2075 -91 
Q 1284 -91 818 406 
Q 353 903 353 1747 
Q 353 2603 823 3093 
Q 1294 3584 2113 3584 
Q 2378 3584 2631 3529 
Q 2884 3475 3122 3366 
z
" transform="scale(0.015625)"/>
      <path id="DejaVuSans-74" d="M 1172 4494 
L 1172 3500 
L 2356 3500 
L 2356 3053 
L 1172 3053 
L 1172 1153 
Q 1172 725 1289 603 
Q 1406 481 1766 481 
L 2356 481 
L 2356 0 
L 1766 0 
Q 1100 0 847 248 
Q 594 497 594 1153 
L 594 3053 
L 172 3053 
L 172 3500 
L 594 3500 
L 594 4494 
L 1172 4494 
z
" transform="scale(0.015625)"/>
      <path id="DejaVuSans-69" d="M 603 3500 
L 1178 3500 
L 1178 0 
L 603 0 
L 603 3500 
z
M 603 4863 
L 1178 4863 
L 1178 4134 
L 603 4134 
L 603 4863 
z
" transform="scale(0.015625)"/>
      <path id="DejaVuSans-6f" d="M 1959 3097 
Q 1497 3097 1228 2736 
Q 959 2375 959 1747 
Q 959 1119 1226 758 
Q 1494 397 1959 397 
Q 2419 397 2687 759 
Q 2956 1122 2956 1747 
Q 2956 2369 2687 2733 
Q 2419 3097 1959 3097 
z
M 1959 3584 
Q 2709 3584 3137 3096 
Q 3566 2609 3566 1747 
Q 3566 888 3137 398 
Q 2709 -91 1959 -91 
Q 1206 -91 779 398 
Q 353 888 353 1747 
Q 353 2609 779 3096 
Q 1206 3584 1959 3584 
z
" transform="scale(0.015625)"/>
      <path id="DejaVuSans-20" transform="scale(0.015625)"/>
      <path id="DejaVuSans-41" d="M 2188 4044 
L 1331 1722 
L 3047 1722 
L 2188 4044 
z
M 1831 4666 
L 2547 4666 
L 4325 0 
L 3669 0 
L 3244 1197 
L 1141 1197 
L 716 0 
L 50 0 
L 1831 4666 
z
" transform="scale(0.015625)"/>
      <path id="DejaVuSans-70" d="M 1159 525 
L 1159 -1331 
L 581 -1331 
L 581 3500 
L 1159 3500 
L 1159 2969 
Q 1341 3281 1617 3432 
Q 1894 3584 2278 3584 
Q 2916 3584 3314 3078 
Q 3713 2572 3713 1747 
Q 3713 922 3314 415 
Q 2916 -91 2278 -91 
Q 1894 -91 1617 61 
Q 1341 213 1159 525 
z
M 3116 1747 
Q 3116 2381 2855 2742 
Q 2594 3103 2138 3103 
Q 1681 3103 1420 2742 
Q 1159 2381 1159 1747 
Q 1159 1113 1420 752 
Q 1681 391 2138 391 
Q 2594 391 2855 752 
Q 3116 1113 3116 1747 
z
" transform="scale(0.015625)"/>
      <path id="DejaVuSans-72" d="M 2631 2963 
Q 2534 3019 2420 3045 
Q 2306 3072 2169 3072 
Q 1681 3072 1420 2755 
Q 1159 2438 1159 1844 
L 1159 0 
L 581 0 
L 581 3500 
L 1159 3500 
L 1159 2956 
Q 1341 3275 1631 3429 
Q 1922 3584 2338 3584 
Q 2397 3584 2469 3576 
Q 2541 3569 2628 3553 
L 2631 2963 
z
" transform="scale(0.015625)"/>
      <path id="DejaVuSans-78" d="M 3513 3500 
L 2247 1797 
L 3578 0 
L 2900 0 
L 1881 1375 
L 863 0 
L 184 0 
L 1544 1831 
L 300 3500 
L 978 3500 
L 1906 2253 
L 2834 3500 
L 3513 3500 
z
" transform="scale(0.015625)"/>
      <path id="DejaVuSans-6d" d="M 3328 2828 
Q 3544 3216 3844 3400 
Q 4144 3584 4550 3584 
Q 5097 3584 5394 3201 
Q 5691 2819 5691 2113 
L 5691 0 
L 5113 0 
L 5113 2094 
Q 5113 2597 4934 2840 
Q 4756 3084 4391 3084 
Q 3944 3084 3684 2787 
Q 3425 2491 3425 1978 
L 3425 0 
L 2847 0 
L 2847 2094 
Q 2847 2600 2669 2842 
Q 2491 3084 2119 3084 
Q 1678 3084 1418 2786 
Q 1159 2488 1159 1978 
L 1159 0 
L 581 0 
L 581 3500 
L 1159 3500 
L 1159 2956 
Q 1356 3278 1631 3431 
Q 1906 3584 2284 3584 
Q 2666 3584 2933 3390 
Q 3200 3197 3328 2828 
z
" transform="scale(0.015625)"/>
      <path id="DejaVuSans-45" d="M 628 4666 
L 3578 4666 
L 3578 4134 
L 1259 4134 
L 1259 2753 
L 3481 2753 
L 3481 2222 
L 1259 2222 
L 1259 531 
L 3634 531 
L 3634 0 
L 628 0 
L 628 4666 
z
" transform="scale(0.015625)"/>
      <path id="DejaVuSans-73" d="M 2834 3397 
L 2834 2853 
Q 2591 2978 2328 3040 
Q 2066 3103 1784 3103 
Q 1356 3103 1142 2972 
Q 928 2841 928 2578 
Q 928 2378 1081 2264 
Q 1234 2150 1697 2047 
L 1894 2003 
Q 2506 1872 2764 1633 
Q 3022 1394 3022 966 
Q 3022 478 2636 193 
Q 2250 -91 1575 -91 
Q 1294 -91 989 -36 
Q 684 19 347 128 
L 347 722 
Q 666 556 975 473 
Q 1284 391 1588 391 
Q 1994 391 2212 530 
Q 2431 669 2431 922 
Q 2431 1156 2273 1281 
Q 2116 1406 1581 1522 
L 1381 1569 
Q 847 1681 609 1914 
Q 372 2147 372 2553 
Q 372 3047 722 3315 
Q 1072 3584 1716 3584 
Q 2034 3584 2315 3537 
Q 2597 3491 2834 3397 
z
" transform="scale(0.015625)"/>
      <path id="DejaVuSans-67" d="M 2906 1791 
Q 2906 2416 2648 2759 
Q 2391 3103 1925 3103 
Q 1463 3103 1205 2759 
Q 947 2416 947 1791 
Q 947 1169 1205 825 
Q 1463 481 1925 481 
Q 2391 481 2648 825 
Q 2906 1169 2906 1791 
z
M 3481 434 
Q 3481 -459 3084 -895 
Q 2688 -1331 1869 -1331 
Q 1566 -1331 1297 -1286 
Q 1028 -1241 775 -1147 
L 775 -588 
Q 1028 -725 1275 -790 
Q 1522 -856 1778 -856 
Q 2344 -856 2625 -561 
Q 2906 -266 2906 331 
L 2906 616 
Q 2728 306 2450 153 
Q 2172 0 1784 0 
Q 1141 0 747 490 
Q 353 981 353 1791 
Q 353 2603 747 3093 
Q 1141 3584 1784 3584 
Q 2172 3584 2450 3431 
Q 2728 3278 2906 2969 
L 2906 3500 
L 3481 3500 
L 3481 434 
z
" transform="scale(0.015625)"/>
      <path id="DejaVuSans-79" d="M 2059 -325 
Q 1816 -950 1584 -1140 
Q 1353 -1331 966 -1331 
L 506 -1331 
L 506 -850 
L 844 -850 
Q 1081 -850 1212 -737 
Q 1344 -625 1503 -206 
L 1606 56 
L 191 3500 
L 800 3500 
L 1894 763 
L 2988 3500 
L 3597 3500 
L 2059 -325 
z
" transform="scale(0.015625)"/>
     </defs>
     <use xlink:href="#DejaVuSans-57"/>
     <use xlink:href="#DejaVuSans-61" transform="translate(92.501953 0)"/>
     <use xlink:href="#DejaVuSans-76" transform="translate(153.78125 0)"/>
     <use xlink:href="#DejaVuSans-65" transform="translate(212.960938 0)"/>
     <use xlink:href="#DejaVuSans-66" transform="translate(274.484375 0)"/>
     <use xlink:href="#DejaVuSans-75" transform="translate(309.689453 0)"/>
     <use xlink:href="#DejaVuSans-6e" transform="translate(373.068359 0)"/>
     <use xlink:href="#DejaVuSans-63" transform="translate(436.447266 0)"/>
     <use xlink:href="#DejaVuSans-74" transform="translate(491.427734 0)"/>
     <use xlink:href="#DejaVuSans-69" transform="translate(530.636719 0)"/>
     <use xlink:href="#DejaVuSans-6f" transform="translate(558.419922 0)"/>
     <use xlink:href="#DejaVuSans-6e" transform="translate(619.601562 0)"/>
     <use xlink:href="#DejaVuSans-20" transform="translate(682.980469 0)"/>
     <use xlink:href="#DejaVuSans-41" transform="translate(714.767578 0)"/>
     <use xlink:href="#DejaVuSans-70" transform="translate(783.175781 0)"/>
     <use xlink:href="#DejaVuSans-70" transform="translate(846.652344 0)"/>
     <use xlink:href="#DejaVuSans-72" transform="translate(910.128906 0)"/>
     <use xlink:href="#DejaVuSans-6f" transform="translate(948.992188 0)"/>
     <use xlink:href="#DejaVuSans-78" transform="translate(1007.048828 0)"/>
     <use xlink:href="#DejaVuSans-69" transform="translate(1066.228516 0)"/>
     <use xlink:href="#DejaVuSans-6d" transform="translate(1094.011719 0)"/>
     <use xlink:href="#DejaVuSans-61" transform="translate(1191.423828 0)"/>
     <use xlink:href="#DejaVuSans-74" transform="translate(1252.703125 0)"/>
     <use xlink:href="#DejaVuSans-69" transform="translate(1291.912109 0)"/>
     <use xlink:href="#DejaVuSans-6f" transform="translate(1319.695312 0)"/>
     <use xlink:href="#DejaVuSans-6e" transform="translate(1380.876953 0)"/>
     <use xlink:href="#DejaVuSans-20" transform="translate(1444.255859 0)"/>
     <use xlink:href="#DejaVuSans-45" transform="translate(1476.042969 0)"/>
     <use xlink:href="#DejaVuSans-72" transform="translate(1539.226562 0)"/>
     <use xlink:href="#DejaVuSans-72" transform="translate(1578.589844 0)"/>
     <use xlink:href="#DejaVuSans-6f" transform="translate(1617.453125 0)"/>
     <use xlink:href="#DejaVuSans-72" transform="translate(1678.634766 0)"/>
     <use xlink:href="#DejaVuSans-20" transform="translate(1719.748047 0)"/>
     <use xlink:href="#DejaVuSans-76" transform="translate(1751.535156 0)"/>
     <use xlink:href="#DejaVuSans-73" transform="translate(1810.714844 0)"/>
     <use xlink:href="#DejaVuSans-20" transform="translate(1862.814453 0)"/>
     <use xlink:href="#DejaVuSans-45" transform="translate(1894.601562 0)"/>
     <use xlink:href="#DejaVuSans-6e" transform="translate(1957.785156 0)"/>
     <use xlink:href="#DejaVuSans-65" transform="translate(2021.164062 0)"/>
     <use xlink:href="#DejaVuSans-72" transform="translate(2082.6875 0)"/>
     <use xlink:href="#DejaVuSans-67" transform="translate(2122.050781 0)"/>
     <use xlink:href="#DejaVuSans-79" transform="translate(2185.527344 0)"/>
     <use xlink:href="#DejaVuSans-20" transform="translate(2244.707031 0)"/>
     <use xlink:href="#DejaVuSans-45" transform="translate(2276.494141 0)"/>
     <use xlink:href="#DejaVuSans-72" transform="translate(2339.677734 0)"/>
     <use xlink:href="#DejaVuSans-72" transform="translate(2379.041016 0)"/>
     <use xlink:href="#DejaVuSans-6f" transform="translate(2417.904297 0)"/>
     <use xlink:href="#DejaVuSans-72" transform="translate(2479.085938 0)"/>
    </g>
   </g>
   <g id="legend_1">
    <g id="patch_7">
     <path d="M 263.590312 118.518125 
L 424.190313 118.518125 
Q 426.190313 118.518125 426.190313 116.518125 
L 426.190313 29.318125 
Q 426.190313 27.318125 424.190313 27.318125 
L 263.590312 27.318125 
Q 261.590312 27.318125 261.590312 29.318125 
L 261.590312 116.518125 
Q 261.590312 118.518125 263.590312 118.518125 
z
" style="fill: #ffffff; opacity: 0.8; stroke: #cccccc; stroke-linejoin: miter"/>
    </g>
    <g id="line2d_26">
     <path d="M 265.590312 35.418125 
L 275.590312 35.418125 
L 285.590312 35.418125 
" style="fill: none; stroke: #1f77b4; stroke-width: 1.5; stroke-linecap: square"/>
    </g>
    <g id="text_22">
     <!-- $\Delta \phi_1$ (err=-999998.8 ppm) -->
     <g transform="translate(293.590312 38.918125) scale(0.1 -0.1)">
      <defs>
       <path id="DejaVuSans-394" d="M 2188 4044 
L 906 525 
L 3472 525 
L 2188 4044 
z
M 50 0 
L 1831 4666 
L 2547 4666 
L 4325 0 
L 50 0 
z
" transform="scale(0.015625)"/>
       <path id="DejaVuSans-3d" d="M 678 2906 
L 4684 2906 
L 4684 2381 
L 678 2381 
L 678 2906 
z
M 678 1631 
L 4684 1631 
L 4684 1100 
L 678 1100 
L 678 1631 
z
" transform="scale(0.015625)"/>
       <path id="DejaVuSans-2d" d="M 313 2009 
L 1997 2009 
L 1997 1497 
L 313 1497 
L 313 2009 
z
" transform="scale(0.015625)"/>
       <path id="DejaVuSans-39" d="M 703 97 
L 703 672 
Q 941 559 1184 500 
Q 1428 441 1663 441 
Q 2288 441 2617 861 
Q 2947 1281 2994 2138 
Q 2813 1869 2534 1725 
Q 2256 1581 1919 1581 
Q 1219 1581 811 2004 
Q 403 2428 403 3163 
Q 403 3881 828 4315 
Q 1253 4750 1959 4750 
Q 2769 4750 3195 4129 
Q 3622 3509 3622 2328 
Q 3622 1225 3098 567 
Q 2575 -91 1691 -91 
Q 1453 -91 1209 -44 
Q 966 3 703 97 
z
M 1959 2075 
Q 2384 2075 2632 2365 
Q 2881 2656 2881 3163 
Q 2881 3666 2632 3958 
Q 2384 4250 1959 4250 
Q 1534 4250 1286 3958 
Q 1038 3666 1038 3163 
Q 1038 2656 1286 2365 
Q 1534 2075 1959 2075 
z
" transform="scale(0.015625)"/>
       <path id="DejaVuSans-38" d="M 2034 2216 
Q 1584 2216 1326 1975 
Q 1069 1734 1069 1313 
Q 1069 891 1326 650 
Q 1584 409 2034 409 
Q 2484 409 2743 651 
Q 3003 894 3003 1313 
Q 3003 1734 2745 1975 
Q 2488 2216 2034 2216 
z
M 1403 2484 
Q 997 2584 770 2862 
Q 544 3141 544 3541 
Q 544 4100 942 4425 
Q 1341 4750 2034 4750 
Q 2731 4750 3128 4425 
Q 3525 4100 3525 3541 
Q 3525 3141 3298 2862 
Q 3072 2584 2669 2484 
Q 3125 2378 3379 2068 
Q 3634 1759 3634 1313 
Q 3634 634 3220 271 
Q 2806 -91 2034 -91 
Q 1263 -91 848 271 
Q 434 634 434 1313 
Q 434 1759 690 2068 
Q 947 2378 1403 2484 
z
M 1172 3481 
Q 1172 3119 1398 2916 
Q 1625 2713 2034 2713 
Q 2441 2713 2670 2916 
Q 2900 3119 2900 3481 
Q 2900 3844 2670 4047 
Q 2441 4250 2034 4250 
Q 1625 4250 1398 4047 
Q 1172 3844 1172 3481 
z
" transform="scale(0.015625)"/>
      </defs>
      <use xlink:href="#DejaVuSans-394" transform="translate(0 0.015625)"/>
      <use xlink:href="#DejaVuSans-Oblique-3d5" transform="translate(68.408203 0.015625)"/>
      <use xlink:href="#DejaVuSans-31" transform="translate(134.375 -16.390625) scale(0.7)"/>
      <use xlink:href="#DejaVuSans-20" transform="translate(181.645508 0.015625)"/>
      <use xlink:href="#DejaVuSans-28" transform="translate(213.432617 0.015625)"/>
      <use xlink:href="#DejaVuSans-65" transform="translate(252.446289 0.015625)"/>
      <use xlink:href="#DejaVuSans-72" transform="translate(313.969727 0.015625)"/>
      <use xlink:href="#DejaVuSans-72" transform="translate(355.083008 0.015625)"/>
      <use xlink:href="#DejaVuSans-3d" transform="translate(396.196289 0.015625)"/>
      <use xlink:href="#DejaVuSans-2d" transform="translate(479.985352 0.015625)"/>
      <use xlink:href="#DejaVuSans-39" transform="translate(516.069336 0.015625)"/>
      <use xlink:href="#DejaVuSans-39" transform="translate(579.692383 0.015625)"/>
      <use xlink:href="#DejaVuSans-39" transform="translate(643.31543 0.015625)"/>
      <use xlink:href="#DejaVuSans-39" transform="translate(706.938477 0.015625)"/>
      <use xlink:href="#DejaVuSans-39" transform="translate(770.561523 0.015625)"/>
      <use xlink:href="#DejaVuSans-38" transform="translate(834.18457 0.015625)"/>
      <use xlink:href="#DejaVuSans-2e" transform="translate(897.807617 0.015625)"/>
      <use xlink:href="#DejaVuSans-38" transform="translate(926.969727 0.015625)"/>
      <use xlink:href="#DejaVuSans-20" transform="translate(990.592773 0.015625)"/>
      <use xlink:href="#DejaVuSans-70" transform="translate(1022.379883 0.015625)"/>
      <use xlink:href="#DejaVuSans-70" transform="translate(1085.856445 0.015625)"/>
      <use xlink:href="#DejaVuSans-6d" transform="translate(1149.333008 0.015625)"/>
      <use xlink:href="#DejaVuSans-29" transform="translate(1246.745117 0.015625)"/>
     </g>
    </g>
    <g id="line2d_27">
     <path d="M 265.590312 50.118125 
L 275.590312 50.118125 
L 285.590312 50.118125 
" style="fill: none; stroke-dasharray: 5.55,2.4; stroke-dashoffset: 0; stroke: #ff7f0e; stroke-width: 1.5"/>
    </g>
    <g id="text_23">
     <!-- $\Delta \phi_2$ (err=-999998.8 ppm) -->
     <g transform="translate(293.590312 53.618125) scale(0.1 -0.1)">
      <use xlink:href="#DejaVuSans-394" transform="translate(0 0.015625)"/>
      <use xlink:href="#DejaVuSans-Oblique-3d5" transform="translate(68.408203 0.015625)"/>
      <use xlink:href="#DejaVuSans-32" transform="translate(134.375 -16.390625) scale(0.7)"/>
      <use xlink:href="#DejaVuSans-20" transform="translate(181.645508 0.015625)"/>
      <use xlink:href="#DejaVuSans-28" transform="translate(213.432617 0.015625)"/>
      <use xlink:href="#DejaVuSans-65" transform="translate(252.446289 0.015625)"/>
      <use xlink:href="#DejaVuSans-72" transform="translate(313.969727 0.015625)"/>
      <use xlink:href="#DejaVuSans-72" transform="translate(355.083008 0.015625)"/>
      <use xlink:href="#DejaVuSans-3d" transform="translate(396.196289 0.015625)"/>
      <use xlink:href="#DejaVuSans-2d" transform="translate(479.985352 0.015625)"/>
      <use xlink:href="#DejaVuSans-39" transform="translate(516.069336 0.015625)"/>
      <use xlink:href="#DejaVuSans-39" transform="translate(579.692383 0.015625)"/>
      <use xlink:href="#DejaVuSans-39" transform="translate(643.31543 0.015625)"/>
      <use xlink:href="#DejaVuSans-39" transform="translate(706.938477 0.015625)"/>
      <use xlink:href="#DejaVuSans-39" transform="translate(770.561523 0.015625)"/>
      <use xlink:href="#DejaVuSans-38" transform="translate(834.18457 0.015625)"/>
      <use xlink:href="#DejaVuSans-2e" transform="translate(897.807617 0.015625)"/>
      <use xlink:href="#DejaVuSans-38" transform="translate(926.969727 0.015625)"/>
      <use xlink:href="#DejaVuSans-20" transform="translate(990.592773 0.015625)"/>
      <use xlink:href="#DejaVuSans-70" transform="translate(1022.379883 0.015625)"/>
      <use xlink:href="#DejaVuSans-70" transform="translate(1085.856445 0.015625)"/>
      <use xlink:href="#DejaVuSans-6d" transform="translate(1149.333008 0.015625)"/>
      <use xlink:href="#DejaVuSans-29" transform="translate(1246.745117 0.015625)"/>
     </g>
    </g>
    <g id="line2d_28">
     <path d="M 265.590312 64.818125 
L 275.590312 64.818125 
L 285.590312 64.818125 
" style="fill: none; stroke-dasharray: 1.5,2.475; stroke-dashoffset: 0; stroke: #2ca02c; stroke-width: 1.5"/>
    </g>
    <g id="text_24">
     <!-- $\Delta \phi_3$ (err=-999998.8 ppm) -->
     <g transform="translate(293.590312 68.318125) scale(0.1 -0.1)">
      <defs>
       <path id="DejaVuSans-33" d="M 2597 2516 
Q 3050 2419 3304 2112 
Q 3559 1806 3559 1356 
Q 3559 666 3084 287 
Q 2609 -91 1734 -91 
Q 1441 -91 1130 -33 
Q 819 25 488 141 
L 488 750 
Q 750 597 1062 519 
Q 1375 441 1716 441 
Q 2309 441 2620 675 
Q 2931 909 2931 1356 
Q 2931 1769 2642 2001 
Q 2353 2234 1838 2234 
L 1294 2234 
L 1294 2753 
L 1863 2753 
Q 2328 2753 2575 2939 
Q 2822 3125 2822 3475 
Q 2822 3834 2567 4026 
Q 2313 4219 1838 4219 
Q 1578 4219 1281 4162 
Q 984 4106 628 3988 
L 628 4550 
Q 988 4650 1302 4700 
Q 1616 4750 1894 4750 
Q 2613 4750 3031 4423 
Q 3450 4097 3450 3541 
Q 3450 3153 3228 2886 
Q 3006 2619 2597 2516 
z
" transform="scale(0.015625)"/>
      </defs>
      <use xlink:href="#DejaVuSans-394" transform="translate(0 0.015625)"/>
      <use xlink:href="#DejaVuSans-Oblique-3d5" transform="translate(68.408203 0.015625)"/>
      <use xlink:href="#DejaVuSans-33" transform="translate(134.375 -16.390625) scale(0.7)"/>
      <use xlink:href="#DejaVuSans-20" transform="translate(181.645508 0.015625)"/>
      <use xlink:href="#DejaVuSans-28" transform="translate(213.432617 0.015625)"/>
      <use xlink:href="#DejaVuSans-65" transform="translate(252.446289 0.015625)"/>
      <use xlink:href="#DejaVuSans-72" transform="translate(313.969727 0.015625)"/>
      <use xlink:href="#DejaVuSans-72" transform="translate(355.083008 0.015625)"/>
      <use xlink:href="#DejaVuSans-3d" transform="translate(396.196289 0.015625)"/>
      <use xlink:href="#DejaVuSans-2d" transform="translate(479.985352 0.015625)"/>
      <use xlink:href="#DejaVuSans-39" transform="translate(516.069336 0.015625)"/>
      <use xlink:href="#DejaVuSans-39" transform="translate(579.692383 0.015625)"/>
      <use xlink:href="#DejaVuSans-39" transform="translate(643.31543 0.015625)"/>
      <use xlink:href="#DejaVuSans-39" transform="translate(706.938477 0.015625)"/>
      <use xlink:href="#DejaVuSans-39" transform="translate(770.561523 0.015625)"/>
      <use xlink:href="#DejaVuSans-38" transform="translate(834.18457 0.015625)"/>
      <use xlink:href="#DejaVuSans-2e" transform="translate(897.807617 0.015625)"/>
      <use xlink:href="#DejaVuSans-38" transform="translate(926.969727 0.015625)"/>
      <use xlink:href="#DejaVuSans-20" transform="translate(990.592773 0.015625)"/>
      <use xlink:href="#DejaVuSans-70" transform="translate(1022.379883 0.015625)"/>
      <use xlink:href="#DejaVuSans-70" transform="translate(1085.856445 0.015625)"/>
      <use xlink:href="#DejaVuSans-6d" transform="translate(1149.333008 0.015625)"/>
      <use xlink:href="#DejaVuSans-29" transform="translate(1246.745117 0.015625)"/>
     </g>
    </g>
    <g id="line2d_29">
     <path d="M 265.590312 79.518125 
L 275.590312 79.518125 
L 285.590312 79.518125 
" style="fill: none; stroke-dasharray: 9.6,2.4,1.5,2.4; stroke-dashoffset: 0; stroke: #d62728; stroke-width: 1.5"/>
    </g>
    <g id="text_25">
     <!-- $\Delta \phi_4$ (err=-999998.8 ppm) -->
     <g transform="translate(293.590312 83.018125) scale(0.1 -0.1)">
      <defs>
       <path id="DejaVuSans-34" d="M 2419 4116 
L 825 1625 
L 2419 1625 
L 2419 4116 
z
M 2253 4666 
L 3047 4666 
L 3047 1625 
L 3713 1625 
L 3713 1100 
L 3047 1100 
L 3047 0 
L 2419 0 
L 2419 1100 
L 313 1100 
L 313 1709 
L 2253 4666 
z
" transform="scale(0.015625)"/>
      </defs>
      <use xlink:href="#DejaVuSans-394" transform="translate(0 0.015625)"/>
      <use xlink:href="#DejaVuSans-Oblique-3d5" transform="translate(68.408203 0.015625)"/>
      <use xlink:href="#DejaVuSans-34" transform="translate(134.375 -16.390625) scale(0.7)"/>
      <use xlink:href="#DejaVuSans-20" transform="translate(181.645508 0.015625)"/>
      <use xlink:href="#DejaVuSans-28" transform="translate(213.432617 0.015625)"/>
      <use xlink:href="#DejaVuSans-65" transform="translate(252.446289 0.015625)"/>
      <use xlink:href="#DejaVuSans-72" transform="translate(313.969727 0.015625)"/>
      <use xlink:href="#DejaVuSans-72" transform="translate(355.083008 0.015625)"/>
      <use xlink:href="#DejaVuSans-3d" transform="translate(396.196289 0.015625)"/>
      <use xlink:href="#DejaVuSans-2d" transform="translate(479.985352 0.015625)"/>
      <use xlink:href="#DejaVuSans-39" transform="translate(516.069336 0.015625)"/>
      <use xlink:href="#DejaVuSans-39" transform="translate(579.692383 0.015625)"/>
      <use xlink:href="#DejaVuSans-39" transform="translate(643.31543 0.015625)"/>
      <use xlink:href="#DejaVuSans-39" transform="translate(706.938477 0.015625)"/>
      <use xlink:href="#DejaVuSans-39" transform="translate(770.561523 0.015625)"/>
      <use xlink:href="#DejaVuSans-38" transform="translate(834.18457 0.015625)"/>
      <use xlink:href="#DejaVuSans-2e" transform="translate(897.807617 0.015625)"/>
      <use xlink:href="#DejaVuSans-38" transform="translate(926.969727 0.015625)"/>
      <use xlink:href="#DejaVuSans-20" transform="translate(990.592773 0.015625)"/>
      <use xlink:href="#DejaVuSans-70" transform="translate(1022.379883 0.015625)"/>
      <use xlink:href="#DejaVuSans-70" transform="translate(1085.856445 0.015625)"/>
      <use xlink:href="#DejaVuSans-6d" transform="translate(1149.333008 0.015625)"/>
      <use xlink:href="#DejaVuSans-29" transform="translate(1246.745117 0.015625)"/>
     </g>
    </g>
    <g id="line2d_30">
     <path d="M 265.590312 94.218125 
L 275.590312 94.218125 
L 285.590312 94.218125 
" style="fill: none; stroke: #9467bd; stroke-width: 1.5; stroke-linecap: square"/>
    </g>
    <g id="text_26">
     <!-- $\Delta \phi_5$ (err=-999998.8 ppm) -->
     <g transform="translate(293.590312 97.718125) scale(0.1 -0.1)">
      <use xlink:href="#DejaVuSans-394" transform="translate(0 0.015625)"/>
      <use xlink:href="#DejaVuSans-Oblique-3d5" transform="translate(68.408203 0.015625)"/>
      <use xlink:href="#DejaVuSans-35" transform="translate(134.375 -16.390625) scale(0.7)"/>
      <use xlink:href="#DejaVuSans-20" transform="translate(181.645508 0.015625)"/>
      <use xlink:href="#DejaVuSans-28" transform="translate(213.432617 0.015625)"/>
      <use xlink:href="#DejaVuSans-65" transform="translate(252.446289 0.015625)"/>
      <use xlink:href="#DejaVuSans-72" transform="translate(313.969727 0.015625)"/>
      <use xlink:href="#DejaVuSans-72" transform="translate(355.083008 0.015625)"/>
      <use xlink:href="#DejaVuSans-3d" transform="translate(396.196289 0.015625)"/>
      <use xlink:href="#DejaVuSans-2d" transform="translate(479.985352 0.015625)"/>
      <use xlink:href="#DejaVuSans-39" transform="translate(516.069336 0.015625)"/>
      <use xlink:href="#DejaVuSans-39" transform="translate(579.692383 0.015625)"/>
      <use xlink:href="#DejaVuSans-39" transform="translate(643.31543 0.015625)"/>
      <use xlink:href="#DejaVuSans-39" transform="translate(706.938477 0.015625)"/>
      <use xlink:href="#DejaVuSans-39" transform="translate(770.561523 0.015625)"/>
      <use xlink:href="#DejaVuSans-38" transform="translate(834.18457 0.015625)"/>
      <use xlink:href="#DejaVuSans-2e" transform="translate(897.807617 0.015625)"/>
      <use xlink:href="#DejaVuSans-38" transform="translate(926.969727 0.015625)"/>
      <use xlink:href="#DejaVuSans-20" transform="translate(990.592773 0.015625)"/>
      <use xlink:href="#DejaVuSans-70" transform="translate(1022.379883 0.015625)"/>
      <use xlink:href="#DejaVuSans-70" transform="translate(1085.856445 0.015625)"/>
      <use xlink:href="#DejaVuSans-6d" transform="translate(1149.333008 0.015625)"/>
      <use xlink:href="#DejaVuSans-29" transform="translate(1246.745117 0.015625)"/>
     </g>
    </g>
    <g id="line2d_31">
     <path d="M 265.590312 108.918125 
L 275.590312 108.918125 
L 285.590312 108.918125 
" style="fill: none; stroke-dasharray: 5.55,2.4; stroke-dashoffset: 0; stroke: #8c564b; stroke-width: 1.5"/>
    </g>
    <g id="text_27">
     <!-- $\Delta \phi_6$ (err=-999998.8 ppm) -->
     <g transform="translate(293.590312 112.418125) scale(0.1 -0.1)">
      <defs>
       <path id="DejaVuSans-36" d="M 2113 2584 
Q 1688 2584 1439 2293 
Q 1191 2003 1191 1497 
Q 1191 994 1439 701 
Q 1688 409 2113 409 
Q 2538 409 2786 701 
Q 3034 994 3034 1497 
Q 3034 2003 2786 2293 
Q 2538 2584 2113 2584 
z
M 3366 4563 
L 3366 3988 
Q 3128 4100 2886 4159 
Q 2644 4219 2406 4219 
Q 1781 4219 1451 3797 
Q 1122 3375 1075 2522 
Q 1259 2794 1537 2939 
Q 1816 3084 2150 3084 
Q 2853 3084 3261 2657 
Q 3669 2231 3669 1497 
Q 3669 778 3244 343 
Q 2819 -91 2113 -91 
Q 1303 -91 875 529 
Q 447 1150 447 2328 
Q 447 3434 972 4092 
Q 1497 4750 2381 4750 
Q 2619 4750 2861 4703 
Q 3103 4656 3366 4563 
z
" transform="scale(0.015625)"/>
      </defs>
      <use xlink:href="#DejaVuSans-394" transform="translate(0 0.015625)"/>
      <use xlink:href="#DejaVuSans-Oblique-3d5" transform="translate(68.408203 0.015625)"/>
      <use xlink:href="#DejaVuSans-36" transform="translate(134.375 -16.390625) scale(0.7)"/>
      <use xlink:href="#DejaVuSans-20" transform="translate(181.645508 0.015625)"/>
      <use xlink:href="#DejaVuSans-28" transform="translate(213.432617 0.015625)"/>
      <use xlink:href="#DejaVuSans-65" transform="translate(252.446289 0.015625)"/>
      <use xlink:href="#DejaVuSans-72" transform="translate(313.969727 0.015625)"/>
      <use xlink:href="#DejaVuSans-72" transform="translate(355.083008 0.015625)"/>
      <use xlink:href="#DejaVuSans-3d" transform="translate(396.196289 0.015625)"/>
      <use xlink:href="#DejaVuSans-2d" transform="translate(479.985352 0.015625)"/>
      <use xlink:href="#DejaVuSans-39" transform="translate(516.069336 0.015625)"/>
      <use xlink:href="#DejaVuSans-39" transform="translate(579.692383 0.015625)"/>
      <use xlink:href="#DejaVuSans-39" transform="translate(643.31543 0.015625)"/>
      <use xlink:href="#DejaVuSans-39" transform="translate(706.938477 0.015625)"/>
      <use xlink:href="#DejaVuSans-39" transform="translate(770.561523 0.015625)"/>
      <use xlink:href="#DejaVuSans-38" transform="translate(834.18457 0.015625)"/>
      <use xlink:href="#DejaVuSans-2e" transform="translate(897.807617 0.015625)"/>
      <use xlink:href="#DejaVuSans-38" transform="translate(926.969727 0.015625)"/>
      <use xlink:href="#DejaVuSans-20" transform="translate(990.592773 0.015625)"/>
      <use xlink:href="#DejaVuSans-70" transform="translate(1022.379883 0.015625)"/>
      <use xlink:href="#DejaVuSans-70" transform="translate(1085.856445 0.015625)"/>
      <use xlink:href="#DejaVuSans-6d" transform="translate(1149.333008 0.015625)"/>
      <use xlink:href="#DejaVuSans-29" transform="translate(1246.745117 0.015625)"/>
     </g>
    </g>
   </g>
  </g>
 </g>
 <defs>
  <clipPath id="p567fe66b21">
   <rect x="74.070312" y="22.318125" width="357.12" height="266.112"/>
  </clipPath>
 </defs>
</svg>
