<?xml version="1.0" encoding="utf-8" standalone="no"?>
<!DOCTYPE svg PUBLIC "-//W3C//DTD SVG 1.1//EN"
  "http://www.w3.org/Graphics/SVG/1.1/DTD/svg11.dtd">
<svg xmlns:xlink="http://www.w3.org/1999/xlink" width="415.985625pt" height="325.986375pt" viewBox="0 0 415.985625 325.986375" xmlns="http://www.w3.org/2000/svg" version="1.1">
 <metadata>
  <rdf:RDF xmlns:dc="http://purl.org/dc/elements/1.1/" xmlns:cc="http://creativecommons.org/ns#" xmlns:rdf="http://www.w3.org/1999/02/22-rdf-syntax-ns#">
   <cc:Work>
    <dc:type rdf:resource="http://purl.org/dc/dcmitype/StillImage"/>
    <dc:date>2026-01-05T20:23:24.714179</dc:date>
    <dc:format>image/svg+xml</dc:format>
    <dc:creator>
     <cc:Agent>
      <dc:title>Matplotlib v3.10.8, https://matplotlib.org/</dc:title>
     </cc:Agent>
    </dc:creator>
   </cc:Work>
  </rdf:RDF>
 </metadata>
 <defs>
  <style type="text/css">*{stroke-linejoin: round; stroke-linecap: butt}</style>
 </defs>
 <g id="figure_1">
  <g id="patch_1">
   <path d="M 0 325.986375 
L 415.985625 325.986375 
L 415.985625 0 
L 0 0 
z
" style="fill: #ffffff"/>
  </g>
  <g id="axes_1">
   <g id="patch_2">
    <path d="M 51.665625 288.430125 
L 408.785625 288.430125 
L 408.785625 22.318125 
L 51.665625 22.318125 
z
" style="fill: #ffffff"/>
   </g>
   <g id="matplotlib.axis_1">
    <g id="xtick_1">
     <g id="line2d_1">
      <defs>
       <path id="mb1ed99a82d" d="M 0 0 
L 0 3.5 
" style="stroke: #000000; stroke-width: 0.8"/>
      </defs>
      <g>
       <use xlink:href="#mb1ed99a82d" x="67.898352" y="288.430125" style="stroke: #000000; stroke-width: 0.8"/>
      </g>
     </g>
     <g id="text_1">
      <!-- 0 -->
      <g transform="translate(64.717102 303.028562) scale(0.1 -0.1)">
       <defs>
        <path id="DejaVuSans-30" d="M 2034 4250 
Q 1547 4250 1301 3770 
Q 1056 3291 1056 2328 
Q 1056 1369 1301 889 
Q 1547 409 2034 409 
Q 2525 409 2770 889 
Q 3016 1369 3016 2328 
Q 3016 3291 2770 3770 
Q 2525 4250 2034 4250 
z
M 2034 4750 
Q 2819 4750 3233 4129 
Q 3647 3509 3647 2328 
Q 3647 1150 3233 529 
Q 2819 -91 2034 -91 
Q 1250 -91 836 529 
Q 422 1150 422 2328 
Q 422 3509 836 4129 
Q 1250 4750 2034 4750 
z
" transform="scale(0.015625)"/>
       </defs>
       <use xlink:href="#DejaVuSans-30"/>
      </g>
     </g>
    </g>
    <g id="xtick_2">
     <g id="line2d_2">
      <g>
       <use xlink:href="#mb1ed99a82d" x="140.043807" y="288.430125" style="stroke: #000000; stroke-width: 0.8"/>
      </g>
     </g>
     <g id="text_2">
      <!-- 10 -->
      <g transform="translate(133.681307 303.028562) scale(0.1 -0.1)">
       <defs>
        <path id="DejaVuSans-31" d="M 794 531 
L 1825 531 
L 1825 4091 
L 703 3866 
L 703 4441 
L 1819 4666 
L 2450 4666 
L 2450 531 
L 3481 531 
L 3481 0 
L 794 0 
L 794 531 
z
" transform="scale(0.015625)"/>
       </defs>
       <use xlink:href="#DejaVuSans-31"/>
       <use xlink:href="#DejaVuSans-30" transform="translate(63.623047 0)"/>
      </g>
     </g>
    </g>
    <g id="xtick_3">
     <g id="line2d_3">
      <g>
       <use xlink:href="#mb1ed99a82d" x="212.189261" y="288.430125" style="stroke: #000000; stroke-width: 0.8"/>
      </g>
     </g>
     <g id="text_3">
      <!-- 20 -->
      <g transform="translate(205.826761 303.028562) scale(0.1 -0.1)">
       <defs>
        <path id="DejaVuSans-32" d="M 1228 531 
L 3431 531 
L 3431 0 
L 469 0 
L 469 531 
Q 828 903 1448 1529 
Q 2069 2156 2228 2338 
Q 2531 2678 2651 2914 
Q 2772 3150 2772 3378 
Q 2772 3750 2511 3984 
Q 2250 4219 1831 4219 
Q 1534 4219 1204 4116 
Q 875 4013 500 3803 
L 500 4441 
Q 881 4594 1212 4672 
Q 1544 4750 1819 4750 
Q 2544 4750 2975 4387 
Q 3406 4025 3406 3419 
Q 3406 3131 3298 2873 
Q 3191 2616 2906 2266 
Q 2828 2175 2409 1742 
Q 1991 1309 1228 531 
z
" transform="scale(0.015625)"/>
       </defs>
       <use xlink:href="#DejaVuSans-32"/>
       <use xlink:href="#DejaVuSans-30" transform="translate(63.623047 0)"/>
      </g>
     </g>
    </g>
    <g id="xtick_4">
     <g id="line2d_4">
      <g>
       <use xlink:href="#mb1ed99a82d" x="284.334716" y="288.430125" style="stroke: #000000; stroke-width: 0.8"/>
      </g>
     </g>
     <g id="text_4">
      <!-- 30 -->
      <g transform="translate(277.972216 303.028562) scale(0.1 -0.1)">
       <defs>
        <path id="DejaVuSans-33" d="M 2597 2516 
Q 3050 2419 3304 2112 
Q 3559 1806 3559 1356 
Q 3559 666 3084 287 
Q 2609 -91 1734 -91 
Q 1441 -91 1130 -33 
Q 819 25 488 141 
L 488 750 
Q 750 597 1062 519 
Q 1375 441 1716 441 
Q 2309 441 2620 675 
Q 2931 909 2931 1356 
Q 2931 1769 2642 2001 
Q 2353 2234 1838 2234 
L 1294 2234 
L 1294 2753 
L 1863 2753 
Q 2328 2753 2575 2939 
Q 2822 3125 2822 3475 
Q 2822 3834 2567 4026 
Q 2313 4219 1838 4219 
Q 1578 4219 1281 4162 
Q 984 4106 628 3988 
L 628 4550 
Q 988 4650 1302 4700 
Q 1616 4750 1894 4750 
Q 2613 4750 3031 4423 
Q 3450 4097 3450 3541 
Q 3450 3153 3228 2886 
Q 3006 2619 2597 2516 
z
" transform="scale(0.015625)"/>
       </defs>
       <use xlink:href="#DejaVuSans-33"/>
       <use xlink:href="#DejaVuSans-30" transform="translate(63.623047 0)"/>
      </g>
     </g>
    </g>
    <g id="xtick_5">
     <g id="line2d_5">
      <g>
       <use xlink:href="#mb1ed99a82d" x="356.48017" y="288.430125" style="stroke: #000000; stroke-width: 0.8"/>
      </g>
     </g>
     <g id="text_5">
      <!-- 40 -->
      <g transform="translate(350.11767 303.028562) scale(0.1 -0.1)">
       <defs>
        <path id="DejaVuSans-34" d="M 2419 4116 
L 825 1625 
L 2419 1625 
L 2419 4116 
z
M 2253 4666 
L 3047 4666 
L 3047 1625 
L 3713 1625 
L 3713 1100 
L 3047 1100 
L 3047 0 
L 2419 0 
L 2419 1100 
L 313 1100 
L 313 1709 
L 2253 4666 
z
" transform="scale(0.015625)"/>
       </defs>
       <use xlink:href="#DejaVuSans-34"/>
       <use xlink:href="#DejaVuSans-30" transform="translate(63.623047 0)"/>
      </g>
     </g>
    </g>
    <g id="text_6">
     <!-- $r/a_{0}\;(Bohrs)$ -->
     <g transform="translate(201.475625 316.706687) scale(0.1 -0.1)">
      <defs>
       <path id="DejaVuSans-Oblique-72" d="M 2853 2969 
Q 2766 3016 2653 3041 
Q 2541 3066 2413 3066 
Q 1953 3066 1609 2717 
Q 1266 2369 1153 1784 
L 800 0 
L 225 0 
L 909 3500 
L 1484 3500 
L 1375 2956 
Q 1603 3259 1920 3421 
Q 2238 3584 2597 3584 
Q 2691 3584 2781 3573 
Q 2872 3563 2963 3538 
L 2853 2969 
z
" transform="scale(0.015625)"/>
       <path id="DejaVuSans-2f" d="M 1625 4666 
L 2156 4666 
L 531 -594 
L 0 -594 
L 1625 4666 
z
" transform="scale(0.015625)"/>
       <path id="DejaVuSans-Oblique-61" d="M 3438 1997 
L 3047 0 
L 2472 0 
L 2578 531 
Q 2325 219 2001 64 
Q 1678 -91 1281 -91 
Q 834 -91 548 182 
Q 263 456 263 884 
Q 263 1497 752 1853 
Q 1241 2209 2100 2209 
L 2900 2209 
L 2931 2363 
Q 2938 2388 2941 2417 
Q 2944 2447 2944 2509 
Q 2944 2788 2717 2942 
Q 2491 3097 2081 3097 
Q 1800 3097 1504 3025 
Q 1209 2953 897 2809 
L 997 3341 
Q 1322 3463 1633 3523 
Q 1944 3584 2234 3584 
Q 2853 3584 3176 3315 
Q 3500 3047 3500 2534 
Q 3500 2431 3484 2292 
Q 3469 2153 3438 1997 
z
M 2816 1759 
L 2241 1759 
Q 1534 1759 1195 1570 
Q 856 1381 856 984 
Q 856 709 1029 553 
Q 1203 397 1509 397 
Q 1978 397 2328 733 
Q 2678 1069 2791 1631 
L 2816 1759 
z
" transform="scale(0.015625)"/>
       <path id="DejaVuSans-28" d="M 1984 4856 
Q 1566 4138 1362 3434 
Q 1159 2731 1159 2009 
Q 1159 1288 1364 580 
Q 1569 -128 1984 -844 
L 1484 -844 
Q 1016 -109 783 600 
Q 550 1309 550 2009 
Q 550 2706 781 3412 
Q 1013 4119 1484 4856 
L 1984 4856 
z
" transform="scale(0.015625)"/>
       <path id="DejaVuSans-Oblique-42" d="M 1081 4666 
L 2694 4666 
Q 3350 4666 3675 4422 
Q 4000 4178 4000 3688 
Q 4000 3238 3720 2911 
Q 3441 2584 2988 2516 
Q 3375 2428 3569 2181 
Q 3763 1934 3763 1522 
Q 3763 819 3242 409 
Q 2722 0 1819 0 
L 172 0 
L 1081 4666 
z
M 1234 2228 
L 903 519 
L 1919 519 
Q 2491 519 2800 781 
Q 3109 1044 3109 1522 
Q 3109 1891 2904 2059 
Q 2700 2228 2247 2228 
L 1234 2228 
z
M 1606 4147 
L 1331 2741 
L 2272 2741 
Q 2775 2741 3058 2959 
Q 3341 3178 3341 3566 
Q 3341 3869 3150 4008 
Q 2959 4147 2541 4147 
L 1606 4147 
z
" transform="scale(0.015625)"/>
       <path id="DejaVuSans-Oblique-6f" d="M 1625 -91 
Q 1009 -91 651 289 
Q 294 669 294 1325 
Q 294 1706 417 2101 
Q 541 2497 738 2766 
Q 1047 3184 1428 3384 
Q 1809 3584 2291 3584 
Q 2888 3584 3255 3212 
Q 3622 2841 3622 2241 
Q 3622 1825 3500 1412 
Q 3378 1000 3181 728 
Q 2875 309 2494 109 
Q 2113 -91 1625 -91 
z
M 891 1344 
Q 891 869 1089 633 
Q 1288 397 1691 397 
Q 2269 397 2648 901 
Q 3028 1406 3028 2181 
Q 3028 2634 2825 2865 
Q 2622 3097 2228 3097 
Q 1903 3097 1650 2945 
Q 1397 2794 1197 2484 
Q 1050 2253 970 1956 
Q 891 1659 891 1344 
z
" transform="scale(0.015625)"/>
       <path id="DejaVuSans-Oblique-68" d="M 3566 2113 
L 3156 0 
L 2578 0 
L 2988 2091 
Q 3016 2238 3031 2350 
Q 3047 2463 3047 2528 
Q 3047 2791 2881 2937 
Q 2716 3084 2419 3084 
Q 1956 3084 1617 2771 
Q 1278 2459 1178 1941 
L 800 0 
L 225 0 
L 1172 4863 
L 1747 4863 
L 1375 2950 
Q 1594 3244 1934 3414 
Q 2275 3584 2650 3584 
Q 3113 3584 3367 3334 
Q 3622 3084 3622 2631 
Q 3622 2519 3608 2391 
Q 3594 2263 3566 2113 
z
" transform="scale(0.015625)"/>
       <path id="DejaVuSans-Oblique-73" d="M 3200 3397 
L 3091 2853 
Q 2863 2978 2609 3040 
Q 2356 3103 2088 3103 
Q 1634 3103 1373 2948 
Q 1113 2794 1113 2528 
Q 1113 2219 1719 2053 
Q 1766 2041 1788 2034 
L 1972 1978 
Q 2547 1819 2739 1644 
Q 2931 1469 2931 1166 
Q 2931 609 2489 259 
Q 2047 -91 1331 -91 
Q 1053 -91 747 -37 
Q 441 16 72 128 
L 184 722 
Q 500 559 806 475 
Q 1113 391 1394 391 
Q 1816 391 2080 572 
Q 2344 753 2344 1031 
Q 2344 1331 1650 1516 
L 1591 1531 
L 1394 1581 
Q 956 1697 753 1886 
Q 550 2075 550 2369 
Q 550 2928 970 3256 
Q 1391 3584 2113 3584 
Q 2397 3584 2667 3537 
Q 2938 3491 3200 3397 
z
" transform="scale(0.015625)"/>
       <path id="DejaVuSans-29" d="M 513 4856 
L 1013 4856 
Q 1481 4119 1714 3412 
Q 1947 2706 1947 2009 
Q 1947 1309 1714 600 
Q 1481 -109 1013 -844 
L 513 -844 
Q 928 -128 1133 580 
Q 1338 1288 1338 2009 
Q 1338 2731 1133 3434 
Q 928 4138 513 4856 
z
" transform="scale(0.015625)"/>
      </defs>
      <use xlink:href="#DejaVuSans-Oblique-72" transform="translate(0 0.015625)"/>
      <use xlink:href="#DejaVuSans-2f" transform="translate(41.113281 0.015625)"/>
      <use xlink:href="#DejaVuSans-Oblique-61" transform="translate(74.804688 0.015625)"/>
      <use xlink:href="#DejaVuSans-30" transform="translate(136.083984 -16.390625) scale(0.7)"/>
      <use xlink:href="#DejaVuSans-28" transform="translate(210.413628 0.015625)"/>
      <use xlink:href="#DejaVuSans-Oblique-42" transform="translate(249.4273 0.015625)"/>
      <use xlink:href="#DejaVuSans-Oblique-6f" transform="translate(318.030815 0.015625)"/>
      <use xlink:href="#DejaVuSans-Oblique-68" transform="translate(379.212456 0.015625)"/>
      <use xlink:href="#DejaVuSans-Oblique-72" transform="translate(442.591362 0.015625)"/>
      <use xlink:href="#DejaVuSans-Oblique-73" transform="translate(483.704644 0.015625)"/>
      <use xlink:href="#DejaVuSans-29" transform="translate(535.804253 0.015625)"/>
     </g>
    </g>
   </g>
   <g id="matplotlib.axis_2">
    <g id="ytick_1">
     <g id="line2d_6">
      <defs>
       <path id="mbc4a37e6ea" d="M 0 0 
L -3.5 0 
" style="stroke: #000000; stroke-width: 0.8"/>
      </defs>
      <g>
       <use xlink:href="#mbc4a37e6ea" x="51.665625" y="276.334125" style="stroke: #000000; stroke-width: 0.8"/>
      </g>
     </g>
     <g id="text_7">
      <!-- 0.00 -->
      <g transform="translate(22.4 280.133344) scale(0.1 -0.1)">
       <defs>
        <path id="DejaVuSans-2e" d="M 684 794 
L 1344 794 
L 1344 0 
L 684 0 
L 684 794 
z
" transform="scale(0.015625)"/>
       </defs>
       <use xlink:href="#DejaVuSans-30"/>
       <use xlink:href="#DejaVuSans-2e" transform="translate(63.623047 0)"/>
       <use xlink:href="#DejaVuSans-30" transform="translate(95.410156 0)"/>
       <use xlink:href="#DejaVuSans-30" transform="translate(159.033203 0)"/>
      </g>
     </g>
    </g>
    <g id="ytick_2">
     <g id="line2d_7">
      <g>
       <use xlink:href="#mbc4a37e6ea" x="51.665625" y="231.146688" style="stroke: #000000; stroke-width: 0.8"/>
      </g>
     </g>
     <g id="text_8">
      <!-- 0.02 -->
      <g transform="translate(22.4 234.945907) scale(0.1 -0.1)">
       <use xlink:href="#DejaVuSans-30"/>
       <use xlink:href="#DejaVuSans-2e" transform="translate(63.623047 0)"/>
       <use xlink:href="#DejaVuSans-30" transform="translate(95.410156 0)"/>
       <use xlink:href="#DejaVuSans-32" transform="translate(159.033203 0)"/>
      </g>
     </g>
    </g>
    <g id="ytick_3">
     <g id="line2d_8">
      <g>
       <use xlink:href="#mbc4a37e6ea" x="51.665625" y="185.959252" style="stroke: #000000; stroke-width: 0.8"/>
      </g>
     </g>
     <g id="text_9">
      <!-- 0.04 -->
      <g transform="translate(22.4 189.758471) scale(0.1 -0.1)">
       <use xlink:href="#DejaVuSans-30"/>
       <use xlink:href="#DejaVuSans-2e" transform="translate(63.623047 0)"/>
       <use xlink:href="#DejaVuSans-30" transform="translate(95.410156 0)"/>
       <use xlink:href="#DejaVuSans-34" transform="translate(159.033203 0)"/>
      </g>
     </g>
    </g>
    <g id="ytick_4">
     <g id="line2d_9">
      <g>
       <use xlink:href="#mbc4a37e6ea" x="51.665625" y="140.771815" style="stroke: #000000; stroke-width: 0.8"/>
      </g>
     </g>
     <g id="text_10">
      <!-- 0.06 -->
      <g transform="translate(22.4 144.571034) scale(0.1 -0.1)">
       <defs>
        <path id="DejaVuSans-36" d="M 2113 2584 
Q 1688 2584 1439 2293 
Q 1191 2003 1191 1497 
Q 1191 994 1439 701 
Q 1688 409 2113 409 
Q 2538 409 2786 701 
Q 3034 994 3034 1497 
Q 3034 2003 2786 2293 
Q 2538 2584 2113 2584 
z
M 3366 4563 
L 3366 3988 
Q 3128 4100 2886 4159 
Q 2644 4219 2406 4219 
Q 1781 4219 1451 3797 
Q 1122 3375 1075 2522 
Q 1259 2794 1537 2939 
Q 1816 3084 2150 3084 
Q 2853 3084 3261 2657 
Q 3669 2231 3669 1497 
Q 3669 778 3244 343 
Q 2819 -91 2113 -91 
Q 1303 -91 875 529 
Q 447 1150 447 2328 
Q 447 3434 972 4092 
Q 1497 4750 2381 4750 
Q 2619 4750 2861 4703 
Q 3103 4656 3366 4563 
z
" transform="scale(0.015625)"/>
       </defs>
       <use xlink:href="#DejaVuSans-30"/>
       <use xlink:href="#DejaVuSans-2e" transform="translate(63.623047 0)"/>
       <use xlink:href="#DejaVuSans-30" transform="translate(95.410156 0)"/>
       <use xlink:href="#DejaVuSans-36" transform="translate(159.033203 0)"/>
      </g>
     </g>
    </g>
    <g id="ytick_5">
     <g id="line2d_10">
      <g>
       <use xlink:href="#mbc4a37e6ea" x="51.665625" y="95.584379" style="stroke: #000000; stroke-width: 0.8"/>
      </g>
     </g>
     <g id="text_11">
      <!-- 0.08 -->
      <g transform="translate(22.4 99.383598) scale(0.1 -0.1)">
       <defs>
        <path id="DejaVuSans-38" d="M 2034 2216 
Q 1584 2216 1326 1975 
Q 1069 1734 1069 1313 
Q 1069 891 1326 650 
Q 1584 409 2034 409 
Q 2484 409 2743 651 
Q 3003 894 3003 1313 
Q 3003 1734 2745 1975 
Q 2488 2216 2034 2216 
z
M 1403 2484 
Q 997 2584 770 2862 
Q 544 3141 544 3541 
Q 544 4100 942 4425 
Q 1341 4750 2034 4750 
Q 2731 4750 3128 4425 
Q 3525 4100 3525 3541 
Q 3525 3141 3298 2862 
Q 3072 2584 2669 2484 
Q 3125 2378 3379 2068 
Q 3634 1759 3634 1313 
Q 3634 634 3220 271 
Q 2806 -91 2034 -91 
Q 1263 -91 848 271 
Q 434 634 434 1313 
Q 434 1759 690 2068 
Q 947 2378 1403 2484 
z
M 1172 3481 
Q 1172 3119 1398 2916 
Q 1625 2713 2034 2713 
Q 2441 2713 2670 2916 
Q 2900 3119 2900 3481 
Q 2900 3844 2670 4047 
Q 2441 4250 2034 4250 
Q 1625 4250 1398 4047 
Q 1172 3844 1172 3481 
z
" transform="scale(0.015625)"/>
       </defs>
       <use xlink:href="#DejaVuSans-30"/>
       <use xlink:href="#DejaVuSans-2e" transform="translate(63.623047 0)"/>
       <use xlink:href="#DejaVuSans-30" transform="translate(95.410156 0)"/>
       <use xlink:href="#DejaVuSans-38" transform="translate(159.033203 0)"/>
      </g>
     </g>
    </g>
    <g id="ytick_6">
     <g id="line2d_11">
      <g>
       <use xlink:href="#mbc4a37e6ea" x="51.665625" y="50.396942" style="stroke: #000000; stroke-width: 0.8"/>
      </g>
     </g>
     <g id="text_12">
      <!-- 0.10 -->
      <g transform="translate(22.4 54.196161) scale(0.1 -0.1)">
       <use xlink:href="#DejaVuSans-30"/>
       <use xlink:href="#DejaVuSans-2e" transform="translate(63.623047 0)"/>
       <use xlink:href="#DejaVuSans-31" transform="translate(95.410156 0)"/>
       <use xlink:href="#DejaVuSans-30" transform="translate(159.033203 0)"/>
      </g>
     </g>
    </g>
    <g id="text_13">
     <!-- Radial Probability, $R^{2}\;r^{2}$ -->
     <g transform="translate(16.3 214.524125) rotate(-90) scale(0.1 -0.1)">
      <defs>
       <path id="DejaVuSans-52" d="M 2841 2188 
Q 3044 2119 3236 1894 
Q 3428 1669 3622 1275 
L 4263 0 
L 3584 0 
L 2988 1197 
Q 2756 1666 2539 1819 
Q 2322 1972 1947 1972 
L 1259 1972 
L 1259 0 
L 628 0 
L 628 4666 
L 2053 4666 
Q 2853 4666 3247 4331 
Q 3641 3997 3641 3322 
Q 3641 2881 3436 2590 
Q 3231 2300 2841 2188 
z
M 1259 4147 
L 1259 2491 
L 2053 2491 
Q 2509 2491 2742 2702 
Q 2975 2913 2975 3322 
Q 2975 3731 2742 3939 
Q 2509 4147 2053 4147 
L 1259 4147 
z
" transform="scale(0.015625)"/>
       <path id="DejaVuSans-61" d="M 2194 1759 
Q 1497 1759 1228 1600 
Q 959 1441 959 1056 
Q 959 750 1161 570 
Q 1363 391 1709 391 
Q 2188 391 2477 730 
Q 2766 1069 2766 1631 
L 2766 1759 
L 2194 1759 
z
M 3341 1997 
L 3341 0 
L 2766 0 
L 2766 531 
Q 2569 213 2275 61 
Q 1981 -91 1556 -91 
Q 1019 -91 701 211 
Q 384 513 384 1019 
Q 384 1609 779 1909 
Q 1175 2209 1959 2209 
L 2766 2209 
L 2766 2266 
Q 2766 2663 2505 2880 
Q 2244 3097 1772 3097 
Q 1472 3097 1187 3025 
Q 903 2953 641 2809 
L 641 3341 
Q 956 3463 1253 3523 
Q 1550 3584 1831 3584 
Q 2591 3584 2966 3190 
Q 3341 2797 3341 1997 
z
" transform="scale(0.015625)"/>
       <path id="DejaVuSans-64" d="M 2906 2969 
L 2906 4863 
L 3481 4863 
L 3481 0 
L 2906 0 
L 2906 525 
Q 2725 213 2448 61 
Q 2172 -91 1784 -91 
Q 1150 -91 751 415 
Q 353 922 353 1747 
Q 353 2572 751 3078 
Q 1150 3584 1784 3584 
Q 2172 3584 2448 3432 
Q 2725 3281 2906 2969 
z
M 947 1747 
Q 947 1113 1208 752 
Q 1469 391 1925 391 
Q 2381 391 2643 752 
Q 2906 1113 2906 1747 
Q 2906 2381 2643 2742 
Q 2381 3103 1925 3103 
Q 1469 3103 1208 2742 
Q 947 2381 947 1747 
z
" transform="scale(0.015625)"/>
       <path id="DejaVuSans-69" d="M 603 3500 
L 1178 3500 
L 1178 0 
L 603 0 
L 603 3500 
z
M 603 4863 
L 1178 4863 
L 1178 4134 
L 603 4134 
L 603 4863 
z
" transform="scale(0.015625)"/>
       <path id="DejaVuSans-6c" d="M 603 4863 
L 1178 4863 
L 1178 0 
L 603 0 
L 603 4863 
z
" transform="scale(0.015625)"/>
       <path id="DejaVuSans-20" transform="scale(0.015625)"/>
       <path id="DejaVuSans-50" d="M 1259 4147 
L 1259 2394 
L 2053 2394 
Q 2494 2394 2734 2622 
Q 2975 2850 2975 3272 
Q 2975 3691 2734 3919 
Q 2494 4147 2053 4147 
L 1259 4147 
z
M 628 4666 
L 2053 4666 
Q 2838 4666 3239 4311 
Q 3641 3956 3641 3272 
Q 3641 2581 3239 2228 
Q 2838 1875 2053 1875 
L 1259 1875 
L 1259 0 
L 628 0 
L 628 4666 
z
" transform="scale(0.015625)"/>
       <path id="DejaVuSans-72" d="M 2631 2963 
Q 2534 3019 2420 3045 
Q 2306 3072 2169 3072 
Q 1681 3072 1420 2755 
Q 1159 2438 1159 1844 
L 1159 0 
L 581 0 
L 581 3500 
L 1159 3500 
L 1159 2956 
Q 1341 3275 1631 3429 
Q 1922 3584 2338 3584 
Q 2397 3584 2469 3576 
Q 2541 3569 2628 3553 
L 2631 2963 
z
" transform="scale(0.015625)"/>
       <path id="DejaVuSans-6f" d="M 1959 3097 
Q 1497 3097 1228 2736 
Q 959 2375 959 1747 
Q 959 1119 1226 758 
Q 1494 397 1959 397 
Q 2419 397 2687 759 
Q 2956 1122 2956 1747 
Q 2956 2369 2687 2733 
Q 2419 3097 1959 3097 
z
M 1959 3584 
Q 2709 3584 3137 3096 
Q 3566 2609 3566 1747 
Q 3566 888 3137 398 
Q 2709 -91 1959 -91 
Q 1206 -91 779 398 
Q 353 888 353 1747 
Q 353 2609 779 3096 
Q 1206 3584 1959 3584 
z
" transform="scale(0.015625)"/>
       <path id="DejaVuSans-62" d="M 3116 1747 
Q 3116 2381 2855 2742 
Q 2594 3103 2138 3103 
Q 1681 3103 1420 2742 
Q 1159 2381 1159 1747 
Q 1159 1113 1420 752 
Q 1681 391 2138 391 
Q 2594 391 2855 752 
Q 3116 1113 3116 1747 
z
M 1159 2969 
Q 1341 3281 1617 3432 
Q 1894 3584 2278 3584 
Q 2916 3584 3314 3078 
Q 3713 2572 3713 1747 
Q 3713 922 3314 415 
Q 2916 -91 2278 -91 
Q 1894 -91 1617 61 
Q 1341 213 1159 525 
L 1159 0 
L 581 0 
L 581 4863 
L 1159 4863 
L 1159 2969 
z
" transform="scale(0.015625)"/>
       <path id="DejaVuSans-74" d="M 1172 4494 
L 1172 3500 
L 2356 3500 
L 2356 3053 
L 1172 3053 
L 1172 1153 
Q 1172 725 1289 603 
Q 1406 481 1766 481 
L 2356 481 
L 2356 0 
L 1766 0 
Q 1100 0 847 248 
Q 594 497 594 1153 
L 594 3053 
L 172 3053 
L 172 3500 
L 594 3500 
L 594 4494 
L 1172 4494 
z
" transform="scale(0.015625)"/>
       <path id="DejaVuSans-79" d="M 2059 -325 
Q 1816 -950 1584 -1140 
Q 1353 -1331 966 -1331 
L 506 -1331 
L 506 -850 
L 844 -850 
Q 1081 -850 1212 -737 
Q 1344 -625 1503 -206 
L 1606 56 
L 191 3500 
L 800 3500 
L 1894 763 
L 2988 3500 
L 3597 3500 
L 2059 -325 
z
" transform="scale(0.015625)"/>
       <path id="DejaVuSans-2c" d="M 750 794 
L 1409 794 
L 1409 256 
L 897 -744 
L 494 -744 
L 750 256 
L 750 794 
z
" transform="scale(0.015625)"/>
       <path id="DejaVuSans-Oblique-52" d="M 1613 4147 
L 1294 2491 
L 2106 2491 
Q 2584 2491 2879 2755 
Q 3175 3019 3175 3444 
Q 3175 3784 2976 3965 
Q 2778 4147 2406 4147 
L 1613 4147 
z
M 2772 2241 
Q 2972 2194 3105 2009 
Q 3238 1825 3413 1275 
L 3809 0 
L 3144 0 
L 2778 1197 
Q 2638 1659 2453 1815 
Q 2269 1972 1888 1972 
L 1191 1972 
L 806 0 
L 172 0 
L 1081 4666 
L 2503 4666 
Q 3150 4666 3495 4373 
Q 3841 4081 3841 3531 
Q 3841 3044 3547 2687 
Q 3253 2331 2772 2241 
z
" transform="scale(0.015625)"/>
      </defs>
      <use xlink:href="#DejaVuSans-52" transform="translate(0 0.765625)"/>
      <use xlink:href="#DejaVuSans-61" transform="translate(69.482422 0.765625)"/>
      <use xlink:href="#DejaVuSans-64" transform="translate(130.761719 0.765625)"/>
      <use xlink:href="#DejaVuSans-69" transform="translate(194.238281 0.765625)"/>
      <use xlink:href="#DejaVuSans-61" transform="translate(222.021484 0.765625)"/>
      <use xlink:href="#DejaVuSans-6c" transform="translate(283.300781 0.765625)"/>
      <use xlink:href="#DejaVuSans-20" transform="translate(311.083984 0.765625)"/>
      <use xlink:href="#DejaVuSans-50" transform="translate(342.871094 0.765625)"/>
      <use xlink:href="#DejaVuSans-72" transform="translate(403.173828 0.765625)"/>
      <use xlink:href="#DejaVuSans-6f" transform="translate(444.287109 0.765625)"/>
      <use xlink:href="#DejaVuSans-62" transform="translate(505.46875 0.765625)"/>
      <use xlink:href="#DejaVuSans-61" transform="translate(568.945312 0.765625)"/>
      <use xlink:href="#DejaVuSans-62" transform="translate(630.224609 0.765625)"/>
      <use xlink:href="#DejaVuSans-69" transform="translate(693.701172 0.765625)"/>
      <use xlink:href="#DejaVuSans-6c" transform="translate(721.484375 0.765625)"/>
      <use xlink:href="#DejaVuSans-69" transform="translate(749.267578 0.765625)"/>
      <use xlink:href="#DejaVuSans-74" transform="translate(777.050781 0.765625)"/>
      <use xlink:href="#DejaVuSans-79" transform="translate(816.259766 0.765625)"/>
      <use xlink:href="#DejaVuSans-2c" transform="translate(875.439453 0.765625)"/>
      <use xlink:href="#DejaVuSans-20" transform="translate(907.226562 0.765625)"/>
      <use xlink:href="#DejaVuSans-Oblique-52" transform="translate(939.013672 0.765625)"/>
      <use xlink:href="#DejaVuSans-32" transform="translate(1015.512865 39.046875) scale(0.7)"/>
      <use xlink:href="#DejaVuSans-Oblique-72" transform="translate(1089.842508 0.765625)"/>
      <use xlink:href="#DejaVuSans-32" transform="translate(1135.605685 39.046875) scale(0.7)"/>
     </g>
    </g>
   </g>
   <g id="line2d_12">
    <path d="M 67.898352 276.334125 
L 69.529782 271.819128 
L 71.161212 265.496155 
L 72.792642 262.477337 
L 74.424072 263.367118 
L 76.055502 266.837869 
L 77.686932 271.083607 
L 79.318361 274.554198 
L 80.949791 276.247975 
L 82.581221 275.750446 
L 84.212651 273.14226 
L 85.844081 268.854145 
L 89.106941 257.819351 
L 90.738371 252.422409 
L 92.3698 247.870697 
L 94.00123 244.560757 
L 95.63266 242.724225 
L 97.26409 242.432404 
L 98.89552 243.614635 
L 100.52695 246.0852 
L 102.15838 249.574339 
L 103.78981 253.759894 
L 108.684099 267.085422 
L 110.315529 270.744851 
L 111.946959 273.599913 
L 113.578389 275.486884 
L 115.209819 276.303366 
L 116.841249 276.007017 
L 118.472678 274.611412 
L 120.104108 272.179765 
L 121.735538 268.817187 
L 123.366968 264.662082 
L 124.998398 259.877227 
L 128.261258 249.13888 
L 131.524117 238.071146 
L 133.155547 232.849313 
L 134.786977 228.039159 
L 136.418407 223.76859 
L 138.049837 220.142613 
L 139.681267 217.241991 
L 141.312697 215.122785 
L 142.944127 213.816698 
L 144.575556 213.332098 
L 146.206986 213.655584 
L 147.838416 214.753997 
L 149.469846 216.576748 
L 151.101276 219.058367 
L 152.732706 222.121161 
L 154.364136 225.677914 
L 155.995566 229.634546 
L 159.258425 238.351976 
L 164.152715 251.950344 
L 167.415575 260.282013 
L 169.047005 263.985023 
L 170.678435 267.29003 
L 172.309864 270.141158 
L 173.941294 272.491919 
L 175.572724 274.305323 
L 177.204154 275.553819 
L 178.835584 276.219075 
L 180.467014 276.291628 
L 182.098444 275.770419 
L 183.729874 274.662232 
L 185.361303 272.981069 
L 186.992733 270.747463 
L 188.624163 267.987755 
L 190.255593 264.733357 
L 191.887023 261.019998 
L 193.518453 256.886983 
L 195.149883 252.376466 
L 198.412742 242.401601 
L 201.675602 231.46381 
L 206.569892 214.064824 
L 213.095611 190.843924 
L 216.358471 179.911263 
L 219.621331 169.763096 
L 222.884191 160.592013 
L 226.14705 152.54426 
L 227.77848 148.975003 
L 229.40991 145.72125 
L 231.04134 142.789153 
L 232.67277 140.182487 
L 234.3042 137.902787 
L 235.93563 135.949505 
L 237.567059 134.320157 
L 239.198489 133.010486 
L 240.829919 132.01462 
L 242.461349 131.325233 
L 244.092779 130.933698 
L 245.724209 130.83025 
L 247.355639 131.004129 
L 248.987069 131.443726 
L 250.618498 132.136729 
L 252.249928 133.070247 
L 253.881358 134.230943 
L 255.512788 135.605144 
L 257.144218 137.178961 
L 258.775648 138.938381 
L 262.038508 142.957946 
L 265.301367 147.552735 
L 268.564227 152.614924 
L 271.827087 158.041852 
L 276.721376 166.658077 
L 296.298535 202.006847 
L 301.192825 210.145111 
L 306.087114 217.775351 
L 310.981404 224.842235 
L 314.244264 229.225136 
L 317.507123 233.340973 
L 320.769983 237.190101 
L 324.032843 240.775893 
L 327.295703 244.104223 
L 330.558562 247.18298 
L 333.821422 250.02164 
L 337.084282 252.630878 
L 340.347142 255.022228 
L 343.610001 257.207792 
L 346.872861 259.199981 
L 350.135721 261.011309 
L 355.030011 263.416318 
L 359.9243 265.483184 
L 364.81859 267.250832 
L 369.712879 268.755669 
L 374.607169 270.031235 
L 379.501459 271.108039 
L 386.027178 272.281594 
L 392.552898 273.20707 
L 392.552898 273.20707 
" clip-path="url(#p800e4c2624)" style="fill: none; stroke: #1f77b4; stroke-width: 1.5; stroke-linecap: square"/>
   </g>
   <g id="line2d_13">
    <path d="M 67.898352 276.334125 
L 69.529782 276.303507 
L 71.161212 275.945769 
L 72.792642 274.782518 
L 74.424072 272.482904 
L 76.055502 268.989345 
L 77.686932 264.506587 
L 82.581221 249.441104 
L 84.212651 245.467529 
L 85.844081 242.65132 
L 87.475511 241.195564 
L 89.106941 241.169452 
L 90.738371 242.517559 
L 92.3698 245.078983 
L 94.00123 248.612232 
L 95.63266 252.822423 
L 100.52695 266.309807 
L 102.15838 270.091036 
L 103.78981 273.106407 
L 105.421239 275.187641 
L 107.052669 276.224393 
L 108.684099 276.164121 
L 110.315529 275.009027 
L 111.946959 272.810743 
L 113.578389 269.663388 
L 115.209819 265.695591 
L 116.841249 261.062025 
L 120.104108 250.4957 
L 124.998398 234.107865 
L 126.629828 229.175365 
L 128.261258 224.744529 
L 129.892688 220.926215 
L 131.524117 217.80777 
L 133.155547 215.452294 
L 134.786977 213.898715 
L 136.418407 213.162558 
L 138.049837 213.237309 
L 139.681267 214.096243 
L 141.312697 215.694611 
L 142.944127 217.972071 
L 144.575556 220.855278 
L 146.206986 224.260537 
L 147.838416 228.096436 
L 151.101276 236.671196 
L 157.626995 254.6779 
L 159.258425 258.8181 
L 160.889855 262.65119 
L 162.521285 266.10936 
L 164.152715 269.133636 
L 165.784145 271.674277 
L 167.415575 273.690954 
L 169.047005 275.15276 
L 170.678435 276.038046 
L 172.309864 276.334125 
L 173.941294 276.036852 
L 175.572724 275.150108 
L 177.204154 273.685194 
L 178.835584 271.660179 
L 180.467014 269.099193 
L 182.098444 266.031697 
L 183.729874 262.491743 
L 185.361303 258.517228 
L 186.992733 254.149168 
L 190.255593 244.407842 
L 193.518453 233.632121 
L 198.412742 216.342071 
L 204.938462 193.035825 
L 208.201322 181.976424 
L 211.464181 171.656527 
L 214.727041 162.277736 
L 217.989901 153.995356 
L 219.621331 150.301447 
L 221.252761 146.919555 
L 222.884191 143.856834 
L 224.51562 141.11801 
L 226.14705 138.70552 
L 227.77848 136.619656 
L 229.40991 134.858716 
L 231.04134 133.419164 
L 232.67277 132.295785 
L 234.3042 131.481847 
L 235.93563 130.969259 
L 237.567059 130.748722 
L 239.198489 130.809889 
L 240.829919 131.141503 
L 242.461349 131.731546 
L 244.092779 132.567372 
L 245.724209 133.635832 
L 247.355639 134.923399 
L 248.987069 136.416278 
L 250.618498 138.100515 
L 253.881358 141.987008 
L 257.144218 146.471502 
L 260.407078 151.445431 
L 263.669937 156.805023 
L 268.564227 165.35636 
L 276.721376 180.266522 
L 284.878526 195.065981 
L 289.772815 203.555597 
L 294.667105 211.604505 
L 299.561395 219.132717 
L 304.455684 226.090247 
L 307.718544 230.398382 
L 310.981404 234.439248 
L 314.244264 238.214107 
L 317.507123 241.72709 
L 320.769983 244.984681 
L 324.032843 247.995255 
L 327.295703 250.768658 
L 330.558562 253.315833 
L 333.821422 255.648498 
L 337.084282 257.77886 
L 340.347142 259.719373 
L 345.241431 262.301492 
L 350.135721 264.526071 
L 355.030011 266.433046 
L 359.9243 268.060076 
L 364.81859 269.442097 
L 369.712879 270.611078 
L 376.238599 271.887847 
L 382.764318 272.897086 
L 389.290038 273.689884 
L 392.552898 274.018785 
L 392.552898 274.018785 
" clip-path="url(#p800e4c2624)" style="fill: none; stroke: #ff7f0e; stroke-width: 1.5; stroke-linecap: square"/>
   </g>
   <g id="line2d_14">
    <path d="M 67.898352 276.334125 
L 74.424072 276.279089 
L 76.055502 276.153559 
L 77.686932 275.87041 
L 79.318361 275.328443 
L 80.949791 274.406863 
L 82.581221 272.973777 
L 84.212651 270.895893 
L 85.844081 268.048175 
L 87.475511 264.32249 
L 89.106941 259.634633 
L 90.738371 253.92939 
L 92.3698 247.183516 
L 94.00123 239.40675 
L 95.63266 230.641033 
L 97.26409 220.958261 
L 100.52695 199.257552 
L 103.78981 175.330851 
L 111.946959 113.919812 
L 115.209819 91.880735 
L 116.841249 81.907985 
L 118.472678 72.758509 
L 120.104108 64.505847 
L 121.735538 57.206983 
L 123.366968 50.902673 
L 124.998398 45.61811 
L 126.629828 41.363836 
L 128.261258 38.136866 
L 129.892688 35.921946 
L 131.524117 34.692917 
L 133.155547 34.414125 
L 134.786977 35.04184 
L 136.418407 36.52566 
L 138.049837 38.809867 
L 139.681267 41.834709 
L 141.312697 45.537604 
L 142.944127 49.85424 
L 144.575556 54.719578 
L 146.206986 60.068741 
L 149.469846 71.964404 
L 152.732706 85.052379 
L 157.626995 105.955537 
L 165.784145 141.192627 
L 170.678435 161.118884 
L 173.941294 173.531615 
L 177.204154 185.126881 
L 180.467014 195.845964 
L 183.729874 205.662596 
L 186.992733 214.576797 
L 190.255593 222.609195 
L 193.518453 229.795926 
L 196.781313 236.184203 
L 200.044172 241.828555 
L 203.307032 246.787724 
L 206.569892 251.122169 
L 209.832752 254.892118 
L 213.095611 258.156092 
L 216.358471 260.969847 
L 219.621331 263.385656 
L 222.884191 265.45186 
L 226.14705 267.212651 
L 229.40991 268.708021 
L 232.67277 269.973838 
L 235.93563 271.042016 
L 240.829919 272.334438 
L 245.724209 273.325727 
L 250.618498 274.081599 
L 257.144218 274.812795 
L 263.669937 275.313945 
L 271.827087 275.720798 
L 283.247096 276.038068 
L 299.561395 276.232513 
L 330.558562 276.321816 
L 392.552898 276.333982 
L 392.552898 276.333982 
" clip-path="url(#p800e4c2624)" style="fill: none; stroke: #2ca02c; stroke-width: 1.5; stroke-linecap: square"/>
   </g>
   <g id="patch_3">
    <path d="M 51.665625 288.430125 
L 51.665625 22.318125 
" style="fill: none; stroke: #000000; stroke-width: 0.8; stroke-linejoin: miter; stroke-linecap: square"/>
   </g>
   <g id="patch_4">
    <path d="M 408.785625 288.430125 
L 408.785625 22.318125 
" style="fill: none; stroke: #000000; stroke-width: 0.8; stroke-linejoin: miter; stroke-linecap: square"/>
   </g>
   <g id="patch_5">
    <path d="M 51.665625 288.430125 
L 408.785625 288.430125 
" style="fill: none; stroke: #000000; stroke-width: 0.8; stroke-linejoin: miter; stroke-linecap: square"/>
   </g>
   <g id="patch_6">
    <path d="M 51.665625 22.318125 
L 408.785625 22.318125 
" style="fill: none; stroke: #000000; stroke-width: 0.8; stroke-linejoin: miter; stroke-linecap: square"/>
   </g>
   <g id="text_14">
    <!-- Multiple plots of 4s, 4p, 3d orbitals -->
    <g transform="translate(126.0975 16.318125) scale(0.12 -0.12)">
     <defs>
      <path id="DejaVuSans-4d" d="M 628 4666 
L 1569 4666 
L 2759 1491 
L 3956 4666 
L 4897 4666 
L 4897 0 
L 4281 0 
L 4281 4097 
L 3078 897 
L 2444 897 
L 1241 4097 
L 1241 0 
L 628 0 
L 628 4666 
z
" transform="scale(0.015625)"/>
      <path id="DejaVuSans-75" d="M 544 1381 
L 544 3500 
L 1119 3500 
L 1119 1403 
Q 1119 906 1312 657 
Q 1506 409 1894 409 
Q 2359 409 2629 706 
Q 2900 1003 2900 1516 
L 2900 3500 
L 3475 3500 
L 3475 0 
L 2900 0 
L 2900 538 
Q 2691 219 2414 64 
Q 2138 -91 1772 -91 
Q 1169 -91 856 284 
Q 544 659 544 1381 
z
M 1991 3584 
L 1991 3584 
z
" transform="scale(0.015625)"/>
      <path id="DejaVuSans-70" d="M 1159 525 
L 1159 -1331 
L 581 -1331 
L 581 3500 
L 1159 3500 
L 1159 2969 
Q 1341 3281 1617 3432 
Q 1894 3584 2278 3584 
Q 2916 3584 3314 3078 
Q 3713 2572 3713 1747 
Q 3713 922 3314 415 
Q 2916 -91 2278 -91 
Q 1894 -91 1617 61 
Q 1341 213 1159 525 
z
M 3116 1747 
Q 3116 2381 2855 2742 
Q 2594 3103 2138 3103 
Q 1681 3103 1420 2742 
Q 1159 2381 1159 1747 
Q 1159 1113 1420 752 
Q 1681 391 2138 391 
Q 2594 391 2855 752 
Q 3116 1113 3116 1747 
z
" transform="scale(0.015625)"/>
      <path id="DejaVuSans-65" d="M 3597 1894 
L 3597 1613 
L 953 1613 
Q 991 1019 1311 708 
Q 1631 397 2203 397 
Q 2534 397 2845 478 
Q 3156 559 3463 722 
L 3463 178 
Q 3153 47 2828 -22 
Q 2503 -91 2169 -91 
Q 1331 -91 842 396 
Q 353 884 353 1716 
Q 353 2575 817 3079 
Q 1281 3584 2069 3584 
Q 2775 3584 3186 3129 
Q 3597 2675 3597 1894 
z
M 3022 2063 
Q 3016 2534 2758 2815 
Q 2500 3097 2075 3097 
Q 1594 3097 1305 2825 
Q 1016 2553 972 2059 
L 3022 2063 
z
" transform="scale(0.015625)"/>
      <path id="DejaVuSans-73" d="M 2834 3397 
L 2834 2853 
Q 2591 2978 2328 3040 
Q 2066 3103 1784 3103 
Q 1356 3103 1142 2972 
Q 928 2841 928 2578 
Q 928 2378 1081 2264 
Q 1234 2150 1697 2047 
L 1894 2003 
Q 2506 1872 2764 1633 
Q 3022 1394 3022 966 
Q 3022 478 2636 193 
Q 2250 -91 1575 -91 
Q 1294 -91 989 -36 
Q 684 19 347 128 
L 347 722 
Q 666 556 975 473 
Q 1284 391 1588 391 
Q 1994 391 2212 530 
Q 2431 669 2431 922 
Q 2431 1156 2273 1281 
Q 2116 1406 1581 1522 
L 1381 1569 
Q 847 1681 609 1914 
Q 372 2147 372 2553 
Q 372 3047 722 3315 
Q 1072 3584 1716 3584 
Q 2034 3584 2315 3537 
Q 2597 3491 2834 3397 
z
" transform="scale(0.015625)"/>
      <path id="DejaVuSans-66" d="M 2375 4863 
L 2375 4384 
L 1825 4384 
Q 1516 4384 1395 4259 
Q 1275 4134 1275 3809 
L 1275 3500 
L 2222 3500 
L 2222 3053 
L 1275 3053 
L 1275 0 
L 697 0 
L 697 3053 
L 147 3053 
L 147 3500 
L 697 3500 
L 697 3744 
Q 697 4328 969 4595 
Q 1241 4863 1831 4863 
L 2375 4863 
z
" transform="scale(0.015625)"/>
     </defs>
     <use xlink:href="#DejaVuSans-4d"/>
     <use xlink:href="#DejaVuSans-75" transform="translate(86.279297 0)"/>
     <use xlink:href="#DejaVuSans-6c" transform="translate(149.658203 0)"/>
     <use xlink:href="#DejaVuSans-74" transform="translate(177.441406 0)"/>
     <use xlink:href="#DejaVuSans-69" transform="translate(216.650391 0)"/>
     <use xlink:href="#DejaVuSans-70" transform="translate(244.433594 0)"/>
     <use xlink:href="#DejaVuSans-6c" transform="translate(307.910156 0)"/>
     <use xlink:href="#DejaVuSans-65" transform="translate(335.693359 0)"/>
     <use xlink:href="#DejaVuSans-20" transform="translate(397.216797 0)"/>
     <use xlink:href="#DejaVuSans-70" transform="translate(429.003906 0)"/>
     <use xlink:href="#DejaVuSans-6c" transform="translate(492.480469 0)"/>
     <use xlink:href="#DejaVuSans-6f" transform="translate(520.263672 0)"/>
     <use xlink:href="#DejaVuSans-74" transform="translate(581.445312 0)"/>
     <use xlink:href="#DejaVuSans-73" transform="translate(620.654297 0)"/>
     <use xlink:href="#DejaVuSans-20" transform="translate(672.753906 0)"/>
     <use xlink:href="#DejaVuSans-6f" transform="translate(704.541016 0)"/>
     <use xlink:href="#DejaVuSans-66" transform="translate(765.722656 0)"/>
     <use xlink:href="#DejaVuSans-20" transform="translate(800.927734 0)"/>
     <use xlink:href="#DejaVuSans-34" transform="translate(832.714844 0)"/>
     <use xlink:href="#DejaVuSans-73" transform="translate(896.337891 0)"/>
     <use xlink:href="#DejaVuSans-2c" transform="translate(948.4375 0)"/>
     <use xlink:href="#DejaVuSans-20" transform="translate(980.224609 0)"/>
     <use xlink:href="#DejaVuSans-34" transform="translate(1012.011719 0)"/>
     <use xlink:href="#DejaVuSans-70" transform="translate(1075.634766 0)"/>
     <use xlink:href="#DejaVuSans-2c" transform="translate(1139.111328 0)"/>
     <use xlink:href="#DejaVuSans-20" transform="translate(1170.898438 0)"/>
     <use xlink:href="#DejaVuSans-33" transform="translate(1202.685547 0)"/>
     <use xlink:href="#DejaVuSans-64" transform="translate(1266.308594 0)"/>
     <use xlink:href="#DejaVuSans-20" transform="translate(1329.785156 0)"/>
     <use xlink:href="#DejaVuSans-6f" transform="translate(1361.572266 0)"/>
     <use xlink:href="#DejaVuSans-72" transform="translate(1422.753906 0)"/>
     <use xlink:href="#DejaVuSans-62" transform="translate(1463.867188 0)"/>
     <use xlink:href="#DejaVuSans-69" transform="translate(1527.34375 0)"/>
     <use xlink:href="#DejaVuSans-74" transform="translate(1555.126953 0)"/>
     <use xlink:href="#DejaVuSans-61" transform="translate(1594.335938 0)"/>
     <use xlink:href="#DejaVuSans-6c" transform="translate(1655.615234 0)"/>
     <use xlink:href="#DejaVuSans-73" transform="translate(1683.398438 0)"/>
    </g>
   </g>
   <g id="legend_1">
    <g id="patch_7">
     <path d="M 357.074687 74.3525 
L 401.785625 74.3525 
Q 403.785625 74.3525 403.785625 72.3525 
L 403.785625 29.318125 
Q 403.785625 27.318125 401.785625 27.318125 
L 357.074687 27.318125 
Q 355.074687 27.318125 355.074687 29.318125 
L 355.074687 72.3525 
Q 355.074687 74.3525 357.074687 74.3525 
z
" style="fill: #ffffff; opacity: 0.8; stroke: #cccccc; stroke-linejoin: miter"/>
    </g>
    <g id="line2d_15">
     <path d="M 359.074687 35.416562 
L 369.074687 35.416562 
L 379.074687 35.416562 
" style="fill: none; stroke: #1f77b4; stroke-width: 1.5; stroke-linecap: square"/>
    </g>
    <g id="text_15">
     <!-- 4s -->
     <g transform="translate(387.074687 38.916562) scale(0.1 -0.1)">
      <use xlink:href="#DejaVuSans-34"/>
      <use xlink:href="#DejaVuSans-73" transform="translate(63.623047 0)"/>
     </g>
    </g>
    <g id="line2d_16">
     <path d="M 359.074687 50.094688 
L 369.074687 50.094688 
L 379.074687 50.094688 
" style="fill: none; stroke: #ff7f0e; stroke-width: 1.5; stroke-linecap: square"/>
    </g>
    <g id="text_16">
     <!-- 4p -->
     <g transform="translate(387.074687 53.594688) scale(0.1 -0.1)">
      <use xlink:href="#DejaVuSans-34"/>
      <use xlink:href="#DejaVuSans-70" transform="translate(63.623047 0)"/>
     </g>
    </g>
    <g id="line2d_17">
     <path d="M 359.074687 64.772812 
L 369.074687 64.772812 
L 379.074687 64.772812 
" style="fill: none; stroke: #2ca02c; stroke-width: 1.5; stroke-linecap: square"/>
    </g>
    <g id="text_17">
     <!-- 3d -->
     <g transform="translate(387.074687 68.272812) scale(0.1 -0.1)">
      <use xlink:href="#DejaVuSans-33"/>
      <use xlink:href="#DejaVuSans-64" transform="translate(63.623047 0)"/>
     </g>
    </g>
   </g>
  </g>
 </g>
 <defs>
  <clipPath id="p800e4c2624">
   <rect x="51.665625" y="22.318125" width="357.12" height="266.112"/>
  </clipPath>
 </defs>
</svg>
