<?xml version="1.0" encoding="utf-8" standalone="no"?>
<!DOCTYPE svg PUBLIC "-//W3C//DTD SVG 1.1//EN"
  "http://www.w3.org/Graphics/SVG/1.1/DTD/svg11.dtd">
<svg xmlns:xlink="http://www.w3.org/1999/xlink" width="1628.123438pt" height="392.51625pt" viewBox="0 0 1628.123438 392.51625" xmlns="http://www.w3.org/2000/svg" version="1.1">
 <metadata>
  <rdf:RDF xmlns:dc="http://purl.org/dc/elements/1.1/" xmlns:cc="http://creativecommons.org/ns#" xmlns:rdf="http://www.w3.org/1999/02/22-rdf-syntax-ns#">
   <cc:Work>
    <dc:type rdf:resource="http://purl.org/dc/dcmitype/StillImage"/>
    <dc:date>2026-01-05T19:15:19.615284</dc:date>
    <dc:format>image/svg+xml</dc:format>
    <dc:creator>
     <cc:Agent>
      <dc:title>Matplotlib v3.10.8, https://matplotlib.org/</dc:title>
     </cc:Agent>
    </dc:creator>
   </cc:Work>
  </rdf:RDF>
 </metadata>
 <defs>
  <style type="text/css">*{stroke-linejoin: round; stroke-linecap: butt}</style>
 </defs>
 <g id="figure_1">
  <g id="patch_1">
   <path d="M 0 392.51625 
L 1628.123438 392.51625 
L 1628.123438 0 
L 0 0 
z
" style="fill: #ffffff"/>
  </g>
  <g id="axes_1">
   <g id="patch_2">
    <path d="M 58.523438 354.96 
L 398.175611 354.96 
L 398.175611 22.32 
L 58.523438 22.32 
z
" style="fill: #ffffff"/>
   </g>
   <g id="matplotlib.axis_1">
    <g id="xtick_1">
     <g id="line2d_1">
      <defs>
       <path id="mf6f67f317e" d="M 0 0 
L 0 3.5 
" style="stroke: #000000; stroke-width: 0.8"/>
      </defs>
      <g>
       <use xlink:href="#mf6f67f317e" x="73.962173" y="354.96" style="stroke: #000000; stroke-width: 0.8"/>
      </g>
     </g>
     <g id="text_1">
      <!-- 0 -->
      <g transform="translate(70.780923 369.558437) scale(0.1 -0.1)">
       <defs>
        <path id="DejaVuSans-30" d="M 2034 4250 
Q 1547 4250 1301 3770 
Q 1056 3291 1056 2328 
Q 1056 1369 1301 889 
Q 1547 409 2034 409 
Q 2525 409 2770 889 
Q 3016 1369 3016 2328 
Q 3016 3291 2770 3770 
Q 2525 4250 2034 4250 
z
M 2034 4750 
Q 2819 4750 3233 4129 
Q 3647 3509 3647 2328 
Q 3647 1150 3233 529 
Q 2819 -91 2034 -91 
Q 1250 -91 836 529 
Q 422 1150 422 2328 
Q 422 3509 836 4129 
Q 1250 4750 2034 4750 
z
" transform="scale(0.015625)"/>
       </defs>
       <use xlink:href="#DejaVuSans-30"/>
      </g>
     </g>
    </g>
    <g id="xtick_2">
     <g id="line2d_2">
      <g>
       <use xlink:href="#mf6f67f317e" x="125.424623" y="354.96" style="stroke: #000000; stroke-width: 0.8"/>
      </g>
     </g>
     <g id="text_2">
      <!-- 5 -->
      <g transform="translate(122.243373 369.558437) scale(0.1 -0.1)">
       <defs>
        <path id="DejaVuSans-35" d="M 691 4666 
L 3169 4666 
L 3169 4134 
L 1269 4134 
L 1269 2991 
Q 1406 3038 1543 3061 
Q 1681 3084 1819 3084 
Q 2600 3084 3056 2656 
Q 3513 2228 3513 1497 
Q 3513 744 3044 326 
Q 2575 -91 1722 -91 
Q 1428 -91 1123 -41 
Q 819 9 494 109 
L 494 744 
Q 775 591 1075 516 
Q 1375 441 1709 441 
Q 2250 441 2565 725 
Q 2881 1009 2881 1497 
Q 2881 1984 2565 2268 
Q 2250 2553 1709 2553 
Q 1456 2553 1204 2497 
Q 953 2441 691 2322 
L 691 4666 
z
" transform="scale(0.015625)"/>
       </defs>
       <use xlink:href="#DejaVuSans-35"/>
      </g>
     </g>
    </g>
    <g id="xtick_3">
     <g id="line2d_3">
      <g>
       <use xlink:href="#mf6f67f317e" x="176.887074" y="354.96" style="stroke: #000000; stroke-width: 0.8"/>
      </g>
     </g>
     <g id="text_3">
      <!-- 10 -->
      <g transform="translate(170.524574 369.558437) scale(0.1 -0.1)">
       <defs>
        <path id="DejaVuSans-31" d="M 794 531 
L 1825 531 
L 1825 4091 
L 703 3866 
L 703 4441 
L 1819 4666 
L 2450 4666 
L 2450 531 
L 3481 531 
L 3481 0 
L 794 0 
L 794 531 
z
" transform="scale(0.015625)"/>
       </defs>
       <use xlink:href="#DejaVuSans-31"/>
       <use xlink:href="#DejaVuSans-30" transform="translate(63.623047 0)"/>
      </g>
     </g>
    </g>
    <g id="xtick_4">
     <g id="line2d_4">
      <g>
       <use xlink:href="#mf6f67f317e" x="228.349524" y="354.96" style="stroke: #000000; stroke-width: 0.8"/>
      </g>
     </g>
     <g id="text_4">
      <!-- 15 -->
      <g transform="translate(221.987024 369.558437) scale(0.1 -0.1)">
       <use xlink:href="#DejaVuSans-31"/>
       <use xlink:href="#DejaVuSans-35" transform="translate(63.623047 0)"/>
      </g>
     </g>
    </g>
    <g id="xtick_5">
     <g id="line2d_5">
      <g>
       <use xlink:href="#mf6f67f317e" x="279.811975" y="354.96" style="stroke: #000000; stroke-width: 0.8"/>
      </g>
     </g>
     <g id="text_5">
      <!-- 20 -->
      <g transform="translate(273.449475 369.558437) scale(0.1 -0.1)">
       <defs>
        <path id="DejaVuSans-32" d="M 1228 531 
L 3431 531 
L 3431 0 
L 469 0 
L 469 531 
Q 828 903 1448 1529 
Q 2069 2156 2228 2338 
Q 2531 2678 2651 2914 
Q 2772 3150 2772 3378 
Q 2772 3750 2511 3984 
Q 2250 4219 1831 4219 
Q 1534 4219 1204 4116 
Q 875 4013 500 3803 
L 500 4441 
Q 881 4594 1212 4672 
Q 1544 4750 1819 4750 
Q 2544 4750 2975 4387 
Q 3406 4025 3406 3419 
Q 3406 3131 3298 2873 
Q 3191 2616 2906 2266 
Q 2828 2175 2409 1742 
Q 1991 1309 1228 531 
z
" transform="scale(0.015625)"/>
       </defs>
       <use xlink:href="#DejaVuSans-32"/>
       <use xlink:href="#DejaVuSans-30" transform="translate(63.623047 0)"/>
      </g>
     </g>
    </g>
    <g id="xtick_6">
     <g id="line2d_6">
      <g>
       <use xlink:href="#mf6f67f317e" x="331.274426" y="354.96" style="stroke: #000000; stroke-width: 0.8"/>
      </g>
     </g>
     <g id="text_6">
      <!-- 25 -->
      <g transform="translate(324.911926 369.558437) scale(0.1 -0.1)">
       <use xlink:href="#DejaVuSans-32"/>
       <use xlink:href="#DejaVuSans-35" transform="translate(63.623047 0)"/>
      </g>
     </g>
    </g>
    <g id="xtick_7">
     <g id="line2d_7">
      <g>
       <use xlink:href="#mf6f67f317e" x="382.736876" y="354.96" style="stroke: #000000; stroke-width: 0.8"/>
      </g>
     </g>
     <g id="text_7">
      <!-- 30 -->
      <g transform="translate(376.374376 369.558437) scale(0.1 -0.1)">
       <defs>
        <path id="DejaVuSans-33" d="M 2597 2516 
Q 3050 2419 3304 2112 
Q 3559 1806 3559 1356 
Q 3559 666 3084 287 
Q 2609 -91 1734 -91 
Q 1441 -91 1130 -33 
Q 819 25 488 141 
L 488 750 
Q 750 597 1062 519 
Q 1375 441 1716 441 
Q 2309 441 2620 675 
Q 2931 909 2931 1356 
Q 2931 1769 2642 2001 
Q 2353 2234 1838 2234 
L 1294 2234 
L 1294 2753 
L 1863 2753 
Q 2328 2753 2575 2939 
Q 2822 3125 2822 3475 
Q 2822 3834 2567 4026 
Q 2313 4219 1838 4219 
Q 1578 4219 1281 4162 
Q 984 4106 628 3988 
L 628 4550 
Q 988 4650 1302 4700 
Q 1616 4750 1894 4750 
Q 2613 4750 3031 4423 
Q 3450 4097 3450 3541 
Q 3450 3153 3228 2886 
Q 3006 2619 2597 2516 
z
" transform="scale(0.015625)"/>
       </defs>
       <use xlink:href="#DejaVuSans-33"/>
       <use xlink:href="#DejaVuSans-30" transform="translate(63.623047 0)"/>
      </g>
     </g>
    </g>
    <g id="text_8">
     <!-- $r/a_{0}\;(Bohrs)$ -->
     <g transform="translate(199.599524 383.236562) scale(0.1 -0.1)">
      <defs>
       <path id="DejaVuSans-Oblique-72" d="M 2853 2969 
Q 2766 3016 2653 3041 
Q 2541 3066 2413 3066 
Q 1953 3066 1609 2717 
Q 1266 2369 1153 1784 
L 800 0 
L 225 0 
L 909 3500 
L 1484 3500 
L 1375 2956 
Q 1603 3259 1920 3421 
Q 2238 3584 2597 3584 
Q 2691 3584 2781 3573 
Q 2872 3563 2963 3538 
L 2853 2969 
z
" transform="scale(0.015625)"/>
       <path id="DejaVuSans-2f" d="M 1625 4666 
L 2156 4666 
L 531 -594 
L 0 -594 
L 1625 4666 
z
" transform="scale(0.015625)"/>
       <path id="DejaVuSans-Oblique-61" d="M 3438 1997 
L 3047 0 
L 2472 0 
L 2578 531 
Q 2325 219 2001 64 
Q 1678 -91 1281 -91 
Q 834 -91 548 182 
Q 263 456 263 884 
Q 263 1497 752 1853 
Q 1241 2209 2100 2209 
L 2900 2209 
L 2931 2363 
Q 2938 2388 2941 2417 
Q 2944 2447 2944 2509 
Q 2944 2788 2717 2942 
Q 2491 3097 2081 3097 
Q 1800 3097 1504 3025 
Q 1209 2953 897 2809 
L 997 3341 
Q 1322 3463 1633 3523 
Q 1944 3584 2234 3584 
Q 2853 3584 3176 3315 
Q 3500 3047 3500 2534 
Q 3500 2431 3484 2292 
Q 3469 2153 3438 1997 
z
M 2816 1759 
L 2241 1759 
Q 1534 1759 1195 1570 
Q 856 1381 856 984 
Q 856 709 1029 553 
Q 1203 397 1509 397 
Q 1978 397 2328 733 
Q 2678 1069 2791 1631 
L 2816 1759 
z
" transform="scale(0.015625)"/>
       <path id="DejaVuSans-28" d="M 1984 4856 
Q 1566 4138 1362 3434 
Q 1159 2731 1159 2009 
Q 1159 1288 1364 580 
Q 1569 -128 1984 -844 
L 1484 -844 
Q 1016 -109 783 600 
Q 550 1309 550 2009 
Q 550 2706 781 3412 
Q 1013 4119 1484 4856 
L 1984 4856 
z
" transform="scale(0.015625)"/>
       <path id="DejaVuSans-Oblique-42" d="M 1081 4666 
L 2694 4666 
Q 3350 4666 3675 4422 
Q 4000 4178 4000 3688 
Q 4000 3238 3720 2911 
Q 3441 2584 2988 2516 
Q 3375 2428 3569 2181 
Q 3763 1934 3763 1522 
Q 3763 819 3242 409 
Q 2722 0 1819 0 
L 172 0 
L 1081 4666 
z
M 1234 2228 
L 903 519 
L 1919 519 
Q 2491 519 2800 781 
Q 3109 1044 3109 1522 
Q 3109 1891 2904 2059 
Q 2700 2228 2247 2228 
L 1234 2228 
z
M 1606 4147 
L 1331 2741 
L 2272 2741 
Q 2775 2741 3058 2959 
Q 3341 3178 3341 3566 
Q 3341 3869 3150 4008 
Q 2959 4147 2541 4147 
L 1606 4147 
z
" transform="scale(0.015625)"/>
       <path id="DejaVuSans-Oblique-6f" d="M 1625 -91 
Q 1009 -91 651 289 
Q 294 669 294 1325 
Q 294 1706 417 2101 
Q 541 2497 738 2766 
Q 1047 3184 1428 3384 
Q 1809 3584 2291 3584 
Q 2888 3584 3255 3212 
Q 3622 2841 3622 2241 
Q 3622 1825 3500 1412 
Q 3378 1000 3181 728 
Q 2875 309 2494 109 
Q 2113 -91 1625 -91 
z
M 891 1344 
Q 891 869 1089 633 
Q 1288 397 1691 397 
Q 2269 397 2648 901 
Q 3028 1406 3028 2181 
Q 3028 2634 2825 2865 
Q 2622 3097 2228 3097 
Q 1903 3097 1650 2945 
Q 1397 2794 1197 2484 
Q 1050 2253 970 1956 
Q 891 1659 891 1344 
z
" transform="scale(0.015625)"/>
       <path id="DejaVuSans-Oblique-68" d="M 3566 2113 
L 3156 0 
L 2578 0 
L 2988 2091 
Q 3016 2238 3031 2350 
Q 3047 2463 3047 2528 
Q 3047 2791 2881 2937 
Q 2716 3084 2419 3084 
Q 1956 3084 1617 2771 
Q 1278 2459 1178 1941 
L 800 0 
L 225 0 
L 1172 4863 
L 1747 4863 
L 1375 2950 
Q 1594 3244 1934 3414 
Q 2275 3584 2650 3584 
Q 3113 3584 3367 3334 
Q 3622 3084 3622 2631 
Q 3622 2519 3608 2391 
Q 3594 2263 3566 2113 
z
" transform="scale(0.015625)"/>
       <path id="DejaVuSans-Oblique-73" d="M 3200 3397 
L 3091 2853 
Q 2863 2978 2609 3040 
Q 2356 3103 2088 3103 
Q 1634 3103 1373 2948 
Q 1113 2794 1113 2528 
Q 1113 2219 1719 2053 
Q 1766 2041 1788 2034 
L 1972 1978 
Q 2547 1819 2739 1644 
Q 2931 1469 2931 1166 
Q 2931 609 2489 259 
Q 2047 -91 1331 -91 
Q 1053 -91 747 -37 
Q 441 16 72 128 
L 184 722 
Q 500 559 806 475 
Q 1113 391 1394 391 
Q 1816 391 2080 572 
Q 2344 753 2344 1031 
Q 2344 1331 1650 1516 
L 1591 1531 
L 1394 1581 
Q 956 1697 753 1886 
Q 550 2075 550 2369 
Q 550 2928 970 3256 
Q 1391 3584 2113 3584 
Q 2397 3584 2667 3537 
Q 2938 3491 3200 3397 
z
" transform="scale(0.015625)"/>
       <path id="DejaVuSans-29" d="M 513 4856 
L 1013 4856 
Q 1481 4119 1714 3412 
Q 1947 2706 1947 2009 
Q 1947 1309 1714 600 
Q 1481 -109 1013 -844 
L 513 -844 
Q 928 -128 1133 580 
Q 1338 1288 1338 2009 
Q 1338 2731 1133 3434 
Q 928 4138 513 4856 
z
" transform="scale(0.015625)"/>
      </defs>
      <use xlink:href="#DejaVuSans-Oblique-72" transform="translate(0 0.015625)"/>
      <use xlink:href="#DejaVuSans-2f" transform="translate(41.113281 0.015625)"/>
      <use xlink:href="#DejaVuSans-Oblique-61" transform="translate(74.804688 0.015625)"/>
      <use xlink:href="#DejaVuSans-30" transform="translate(136.083984 -16.390625) scale(0.7)"/>
      <use xlink:href="#DejaVuSans-28" transform="translate(210.413628 0.015625)"/>
      <use xlink:href="#DejaVuSans-Oblique-42" transform="translate(249.4273 0.015625)"/>
      <use xlink:href="#DejaVuSans-Oblique-6f" transform="translate(318.030815 0.015625)"/>
      <use xlink:href="#DejaVuSans-Oblique-68" transform="translate(379.212456 0.015625)"/>
      <use xlink:href="#DejaVuSans-Oblique-72" transform="translate(442.591362 0.015625)"/>
      <use xlink:href="#DejaVuSans-Oblique-73" transform="translate(483.704644 0.015625)"/>
      <use xlink:href="#DejaVuSans-29" transform="translate(535.804253 0.015625)"/>
     </g>
    </g>
   </g>
   <g id="matplotlib.axis_2">
    <g id="ytick_1">
     <g id="line2d_8">
      <defs>
       <path id="m7a55892e69" d="M 0 0 
L -3.5 0 
" style="stroke: #000000; stroke-width: 0.8"/>
      </defs>
      <g>
       <use xlink:href="#m7a55892e69" x="58.523438" y="316.108953" style="stroke: #000000; stroke-width: 0.8"/>
      </g>
     </g>
     <g id="text_9">
      <!-- −0.02 -->
      <g transform="translate(20.878125 319.908172) scale(0.1 -0.1)">
       <defs>
        <path id="DejaVuSans-2212" d="M 678 2272 
L 4684 2272 
L 4684 1741 
L 678 1741 
L 678 2272 
z
" transform="scale(0.015625)"/>
        <path id="DejaVuSans-2e" d="M 684 794 
L 1344 794 
L 1344 0 
L 684 0 
L 684 794 
z
" transform="scale(0.015625)"/>
       </defs>
       <use xlink:href="#DejaVuSans-2212"/>
       <use xlink:href="#DejaVuSans-30" transform="translate(83.789062 0)"/>
       <use xlink:href="#DejaVuSans-2e" transform="translate(147.412109 0)"/>
       <use xlink:href="#DejaVuSans-30" transform="translate(179.199219 0)"/>
       <use xlink:href="#DejaVuSans-32" transform="translate(242.822266 0)"/>
      </g>
     </g>
    </g>
    <g id="ytick_2">
     <g id="line2d_9">
      <g>
       <use xlink:href="#m7a55892e69" x="58.523438" y="262.328784" style="stroke: #000000; stroke-width: 0.8"/>
      </g>
     </g>
     <g id="text_10">
      <!-- 0.00 -->
      <g transform="translate(29.257812 266.128003) scale(0.1 -0.1)">
       <use xlink:href="#DejaVuSans-30"/>
       <use xlink:href="#DejaVuSans-2e" transform="translate(63.623047 0)"/>
       <use xlink:href="#DejaVuSans-30" transform="translate(95.410156 0)"/>
       <use xlink:href="#DejaVuSans-30" transform="translate(159.033203 0)"/>
      </g>
     </g>
    </g>
    <g id="ytick_3">
     <g id="line2d_10">
      <g>
       <use xlink:href="#m7a55892e69" x="58.523438" y="208.548615" style="stroke: #000000; stroke-width: 0.8"/>
      </g>
     </g>
     <g id="text_11">
      <!-- 0.02 -->
      <g transform="translate(29.257812 212.347833) scale(0.1 -0.1)">
       <use xlink:href="#DejaVuSans-30"/>
       <use xlink:href="#DejaVuSans-2e" transform="translate(63.623047 0)"/>
       <use xlink:href="#DejaVuSans-30" transform="translate(95.410156 0)"/>
       <use xlink:href="#DejaVuSans-32" transform="translate(159.033203 0)"/>
      </g>
     </g>
    </g>
    <g id="ytick_4">
     <g id="line2d_11">
      <g>
       <use xlink:href="#m7a55892e69" x="58.523438" y="154.768445" style="stroke: #000000; stroke-width: 0.8"/>
      </g>
     </g>
     <g id="text_12">
      <!-- 0.04 -->
      <g transform="translate(29.257812 158.567664) scale(0.1 -0.1)">
       <defs>
        <path id="DejaVuSans-34" d="M 2419 4116 
L 825 1625 
L 2419 1625 
L 2419 4116 
z
M 2253 4666 
L 3047 4666 
L 3047 1625 
L 3713 1625 
L 3713 1100 
L 3047 1100 
L 3047 0 
L 2419 0 
L 2419 1100 
L 313 1100 
L 313 1709 
L 2253 4666 
z
" transform="scale(0.015625)"/>
       </defs>
       <use xlink:href="#DejaVuSans-30"/>
       <use xlink:href="#DejaVuSans-2e" transform="translate(63.623047 0)"/>
       <use xlink:href="#DejaVuSans-30" transform="translate(95.410156 0)"/>
       <use xlink:href="#DejaVuSans-34" transform="translate(159.033203 0)"/>
      </g>
     </g>
    </g>
    <g id="ytick_5">
     <g id="line2d_12">
      <g>
       <use xlink:href="#m7a55892e69" x="58.523438" y="100.988276" style="stroke: #000000; stroke-width: 0.8"/>
      </g>
     </g>
     <g id="text_13">
      <!-- 0.06 -->
      <g transform="translate(29.257812 104.787495) scale(0.1 -0.1)">
       <defs>
        <path id="DejaVuSans-36" d="M 2113 2584 
Q 1688 2584 1439 2293 
Q 1191 2003 1191 1497 
Q 1191 994 1439 701 
Q 1688 409 2113 409 
Q 2538 409 2786 701 
Q 3034 994 3034 1497 
Q 3034 2003 2786 2293 
Q 2538 2584 2113 2584 
z
M 3366 4563 
L 3366 3988 
Q 3128 4100 2886 4159 
Q 2644 4219 2406 4219 
Q 1781 4219 1451 3797 
Q 1122 3375 1075 2522 
Q 1259 2794 1537 2939 
Q 1816 3084 2150 3084 
Q 2853 3084 3261 2657 
Q 3669 2231 3669 1497 
Q 3669 778 3244 343 
Q 2819 -91 2113 -91 
Q 1303 -91 875 529 
Q 447 1150 447 2328 
Q 447 3434 972 4092 
Q 1497 4750 2381 4750 
Q 2619 4750 2861 4703 
Q 3103 4656 3366 4563 
z
" transform="scale(0.015625)"/>
       </defs>
       <use xlink:href="#DejaVuSans-30"/>
       <use xlink:href="#DejaVuSans-2e" transform="translate(63.623047 0)"/>
       <use xlink:href="#DejaVuSans-30" transform="translate(95.410156 0)"/>
       <use xlink:href="#DejaVuSans-36" transform="translate(159.033203 0)"/>
      </g>
     </g>
    </g>
    <g id="ytick_6">
     <g id="line2d_13">
      <g>
       <use xlink:href="#m7a55892e69" x="58.523438" y="47.208106" style="stroke: #000000; stroke-width: 0.8"/>
      </g>
     </g>
     <g id="text_14">
      <!-- 0.08 -->
      <g transform="translate(29.257812 51.007325) scale(0.1 -0.1)">
       <defs>
        <path id="DejaVuSans-38" d="M 2034 2216 
Q 1584 2216 1326 1975 
Q 1069 1734 1069 1313 
Q 1069 891 1326 650 
Q 1584 409 2034 409 
Q 2484 409 2743 651 
Q 3003 894 3003 1313 
Q 3003 1734 2745 1975 
Q 2488 2216 2034 2216 
z
M 1403 2484 
Q 997 2584 770 2862 
Q 544 3141 544 3541 
Q 544 4100 942 4425 
Q 1341 4750 2034 4750 
Q 2731 4750 3128 4425 
Q 3525 4100 3525 3541 
Q 3525 3141 3298 2862 
Q 3072 2584 2669 2484 
Q 3125 2378 3379 2068 
Q 3634 1759 3634 1313 
Q 3634 634 3220 271 
Q 2806 -91 2034 -91 
Q 1263 -91 848 271 
Q 434 634 434 1313 
Q 434 1759 690 2068 
Q 947 2378 1403 2484 
z
M 1172 3481 
Q 1172 3119 1398 2916 
Q 1625 2713 2034 2713 
Q 2441 2713 2670 2916 
Q 2900 3119 2900 3481 
Q 2900 3844 2670 4047 
Q 2441 4250 2034 4250 
Q 1625 4250 1398 4047 
Q 1172 3844 1172 3481 
z
" transform="scale(0.015625)"/>
       </defs>
       <use xlink:href="#DejaVuSans-30"/>
       <use xlink:href="#DejaVuSans-2e" transform="translate(63.623047 0)"/>
       <use xlink:href="#DejaVuSans-30" transform="translate(95.410156 0)"/>
       <use xlink:href="#DejaVuSans-38" transform="translate(159.033203 0)"/>
      </g>
     </g>
    </g>
    <g id="text_15">
     <!-- The Radial Wavefunction, $R(r)$ -->
     <g transform="translate(14.798437 263.79) rotate(-90) scale(0.1 -0.1)">
      <defs>
       <path id="DejaVuSans-54" d="M -19 4666 
L 3928 4666 
L 3928 4134 
L 2272 4134 
L 2272 0 
L 1638 0 
L 1638 4134 
L -19 4134 
L -19 4666 
z
" transform="scale(0.015625)"/>
       <path id="DejaVuSans-68" d="M 3513 2113 
L 3513 0 
L 2938 0 
L 2938 2094 
Q 2938 2591 2744 2837 
Q 2550 3084 2163 3084 
Q 1697 3084 1428 2787 
Q 1159 2491 1159 1978 
L 1159 0 
L 581 0 
L 581 4863 
L 1159 4863 
L 1159 2956 
Q 1366 3272 1645 3428 
Q 1925 3584 2291 3584 
Q 2894 3584 3203 3211 
Q 3513 2838 3513 2113 
z
" transform="scale(0.015625)"/>
       <path id="DejaVuSans-65" d="M 3597 1894 
L 3597 1613 
L 953 1613 
Q 991 1019 1311 708 
Q 1631 397 2203 397 
Q 2534 397 2845 478 
Q 3156 559 3463 722 
L 3463 178 
Q 3153 47 2828 -22 
Q 2503 -91 2169 -91 
Q 1331 -91 842 396 
Q 353 884 353 1716 
Q 353 2575 817 3079 
Q 1281 3584 2069 3584 
Q 2775 3584 3186 3129 
Q 3597 2675 3597 1894 
z
M 3022 2063 
Q 3016 2534 2758 2815 
Q 2500 3097 2075 3097 
Q 1594 3097 1305 2825 
Q 1016 2553 972 2059 
L 3022 2063 
z
" transform="scale(0.015625)"/>
       <path id="DejaVuSans-20" transform="scale(0.015625)"/>
       <path id="DejaVuSans-52" d="M 2841 2188 
Q 3044 2119 3236 1894 
Q 3428 1669 3622 1275 
L 4263 0 
L 3584 0 
L 2988 1197 
Q 2756 1666 2539 1819 
Q 2322 1972 1947 1972 
L 1259 1972 
L 1259 0 
L 628 0 
L 628 4666 
L 2053 4666 
Q 2853 4666 3247 4331 
Q 3641 3997 3641 3322 
Q 3641 2881 3436 2590 
Q 3231 2300 2841 2188 
z
M 1259 4147 
L 1259 2491 
L 2053 2491 
Q 2509 2491 2742 2702 
Q 2975 2913 2975 3322 
Q 2975 3731 2742 3939 
Q 2509 4147 2053 4147 
L 1259 4147 
z
" transform="scale(0.015625)"/>
       <path id="DejaVuSans-61" d="M 2194 1759 
Q 1497 1759 1228 1600 
Q 959 1441 959 1056 
Q 959 750 1161 570 
Q 1363 391 1709 391 
Q 2188 391 2477 730 
Q 2766 1069 2766 1631 
L 2766 1759 
L 2194 1759 
z
M 3341 1997 
L 3341 0 
L 2766 0 
L 2766 531 
Q 2569 213 2275 61 
Q 1981 -91 1556 -91 
Q 1019 -91 701 211 
Q 384 513 384 1019 
Q 384 1609 779 1909 
Q 1175 2209 1959 2209 
L 2766 2209 
L 2766 2266 
Q 2766 2663 2505 2880 
Q 2244 3097 1772 3097 
Q 1472 3097 1187 3025 
Q 903 2953 641 2809 
L 641 3341 
Q 956 3463 1253 3523 
Q 1550 3584 1831 3584 
Q 2591 3584 2966 3190 
Q 3341 2797 3341 1997 
z
" transform="scale(0.015625)"/>
       <path id="DejaVuSans-64" d="M 2906 2969 
L 2906 4863 
L 3481 4863 
L 3481 0 
L 2906 0 
L 2906 525 
Q 2725 213 2448 61 
Q 2172 -91 1784 -91 
Q 1150 -91 751 415 
Q 353 922 353 1747 
Q 353 2572 751 3078 
Q 1150 3584 1784 3584 
Q 2172 3584 2448 3432 
Q 2725 3281 2906 2969 
z
M 947 1747 
Q 947 1113 1208 752 
Q 1469 391 1925 391 
Q 2381 391 2643 752 
Q 2906 1113 2906 1747 
Q 2906 2381 2643 2742 
Q 2381 3103 1925 3103 
Q 1469 3103 1208 2742 
Q 947 2381 947 1747 
z
" transform="scale(0.015625)"/>
       <path id="DejaVuSans-69" d="M 603 3500 
L 1178 3500 
L 1178 0 
L 603 0 
L 603 3500 
z
M 603 4863 
L 1178 4863 
L 1178 4134 
L 603 4134 
L 603 4863 
z
" transform="scale(0.015625)"/>
       <path id="DejaVuSans-6c" d="M 603 4863 
L 1178 4863 
L 1178 0 
L 603 0 
L 603 4863 
z
" transform="scale(0.015625)"/>
       <path id="DejaVuSans-57" d="M 213 4666 
L 850 4666 
L 1831 722 
L 2809 4666 
L 3519 4666 
L 4500 722 
L 5478 4666 
L 6119 4666 
L 4947 0 
L 4153 0 
L 3169 4050 
L 2175 0 
L 1381 0 
L 213 4666 
z
" transform="scale(0.015625)"/>
       <path id="DejaVuSans-76" d="M 191 3500 
L 800 3500 
L 1894 563 
L 2988 3500 
L 3597 3500 
L 2284 0 
L 1503 0 
L 191 3500 
z
" transform="scale(0.015625)"/>
       <path id="DejaVuSans-66" d="M 2375 4863 
L 2375 4384 
L 1825 4384 
Q 1516 4384 1395 4259 
Q 1275 4134 1275 3809 
L 1275 3500 
L 2222 3500 
L 2222 3053 
L 1275 3053 
L 1275 0 
L 697 0 
L 697 3053 
L 147 3053 
L 147 3500 
L 697 3500 
L 697 3744 
Q 697 4328 969 4595 
Q 1241 4863 1831 4863 
L 2375 4863 
z
" transform="scale(0.015625)"/>
       <path id="DejaVuSans-75" d="M 544 1381 
L 544 3500 
L 1119 3500 
L 1119 1403 
Q 1119 906 1312 657 
Q 1506 409 1894 409 
Q 2359 409 2629 706 
Q 2900 1003 2900 1516 
L 2900 3500 
L 3475 3500 
L 3475 0 
L 2900 0 
L 2900 538 
Q 2691 219 2414 64 
Q 2138 -91 1772 -91 
Q 1169 -91 856 284 
Q 544 659 544 1381 
z
M 1991 3584 
L 1991 3584 
z
" transform="scale(0.015625)"/>
       <path id="DejaVuSans-6e" d="M 3513 2113 
L 3513 0 
L 2938 0 
L 2938 2094 
Q 2938 2591 2744 2837 
Q 2550 3084 2163 3084 
Q 1697 3084 1428 2787 
Q 1159 2491 1159 1978 
L 1159 0 
L 581 0 
L 581 3500 
L 1159 3500 
L 1159 2956 
Q 1366 3272 1645 3428 
Q 1925 3584 2291 3584 
Q 2894 3584 3203 3211 
Q 3513 2838 3513 2113 
z
" transform="scale(0.015625)"/>
       <path id="DejaVuSans-63" d="M 3122 3366 
L 3122 2828 
Q 2878 2963 2633 3030 
Q 2388 3097 2138 3097 
Q 1578 3097 1268 2742 
Q 959 2388 959 1747 
Q 959 1106 1268 751 
Q 1578 397 2138 397 
Q 2388 397 2633 464 
Q 2878 531 3122 666 
L 3122 134 
Q 2881 22 2623 -34 
Q 2366 -91 2075 -91 
Q 1284 -91 818 406 
Q 353 903 353 1747 
Q 353 2603 823 3093 
Q 1294 3584 2113 3584 
Q 2378 3584 2631 3529 
Q 2884 3475 3122 3366 
z
" transform="scale(0.015625)"/>
       <path id="DejaVuSans-74" d="M 1172 4494 
L 1172 3500 
L 2356 3500 
L 2356 3053 
L 1172 3053 
L 1172 1153 
Q 1172 725 1289 603 
Q 1406 481 1766 481 
L 2356 481 
L 2356 0 
L 1766 0 
Q 1100 0 847 248 
Q 594 497 594 1153 
L 594 3053 
L 172 3053 
L 172 3500 
L 594 3500 
L 594 4494 
L 1172 4494 
z
" transform="scale(0.015625)"/>
       <path id="DejaVuSans-6f" d="M 1959 3097 
Q 1497 3097 1228 2736 
Q 959 2375 959 1747 
Q 959 1119 1226 758 
Q 1494 397 1959 397 
Q 2419 397 2687 759 
Q 2956 1122 2956 1747 
Q 2956 2369 2687 2733 
Q 2419 3097 1959 3097 
z
M 1959 3584 
Q 2709 3584 3137 3096 
Q 3566 2609 3566 1747 
Q 3566 888 3137 398 
Q 2709 -91 1959 -91 
Q 1206 -91 779 398 
Q 353 888 353 1747 
Q 353 2609 779 3096 
Q 1206 3584 1959 3584 
z
" transform="scale(0.015625)"/>
       <path id="DejaVuSans-2c" d="M 750 794 
L 1409 794 
L 1409 256 
L 897 -744 
L 494 -744 
L 750 256 
L 750 794 
z
" transform="scale(0.015625)"/>
       <path id="DejaVuSans-Oblique-52" d="M 1613 4147 
L 1294 2491 
L 2106 2491 
Q 2584 2491 2879 2755 
Q 3175 3019 3175 3444 
Q 3175 3784 2976 3965 
Q 2778 4147 2406 4147 
L 1613 4147 
z
M 2772 2241 
Q 2972 2194 3105 2009 
Q 3238 1825 3413 1275 
L 3809 0 
L 3144 0 
L 2778 1197 
Q 2638 1659 2453 1815 
Q 2269 1972 1888 1972 
L 1191 1972 
L 806 0 
L 172 0 
L 1081 4666 
L 2503 4666 
Q 3150 4666 3495 4373 
Q 3841 4081 3841 3531 
Q 3841 3044 3547 2687 
Q 3253 2331 2772 2241 
z
" transform="scale(0.015625)"/>
      </defs>
      <use xlink:href="#DejaVuSans-54" transform="translate(0 0.015625)"/>
      <use xlink:href="#DejaVuSans-68" transform="translate(61.083984 0.015625)"/>
      <use xlink:href="#DejaVuSans-65" transform="translate(124.462891 0.015625)"/>
      <use xlink:href="#DejaVuSans-20" transform="translate(185.986328 0.015625)"/>
      <use xlink:href="#DejaVuSans-52" transform="translate(217.773438 0.015625)"/>
      <use xlink:href="#DejaVuSans-61" transform="translate(287.255859 0.015625)"/>
      <use xlink:href="#DejaVuSans-64" transform="translate(348.535156 0.015625)"/>
      <use xlink:href="#DejaVuSans-69" transform="translate(412.011719 0.015625)"/>
      <use xlink:href="#DejaVuSans-61" transform="translate(439.794922 0.015625)"/>
      <use xlink:href="#DejaVuSans-6c" transform="translate(501.074219 0.015625)"/>
      <use xlink:href="#DejaVuSans-20" transform="translate(528.857422 0.015625)"/>
      <use xlink:href="#DejaVuSans-57" transform="translate(560.644531 0.015625)"/>
      <use xlink:href="#DejaVuSans-61" transform="translate(659.521484 0.015625)"/>
      <use xlink:href="#DejaVuSans-76" transform="translate(720.800781 0.015625)"/>
      <use xlink:href="#DejaVuSans-65" transform="translate(779.980469 0.015625)"/>
      <use xlink:href="#DejaVuSans-66" transform="translate(841.503906 0.015625)"/>
      <use xlink:href="#DejaVuSans-75" transform="translate(876.708984 0.015625)"/>
      <use xlink:href="#DejaVuSans-6e" transform="translate(940.087891 0.015625)"/>
      <use xlink:href="#DejaVuSans-63" transform="translate(1003.466797 0.015625)"/>
      <use xlink:href="#DejaVuSans-74" transform="translate(1058.447266 0.015625)"/>
      <use xlink:href="#DejaVuSans-69" transform="translate(1097.65625 0.015625)"/>
      <use xlink:href="#DejaVuSans-6f" transform="translate(1125.439453 0.015625)"/>
      <use xlink:href="#DejaVuSans-6e" transform="translate(1186.621094 0.015625)"/>
      <use xlink:href="#DejaVuSans-2c" transform="translate(1250 0.015625)"/>
      <use xlink:href="#DejaVuSans-20" transform="translate(1281.787109 0.015625)"/>
      <use xlink:href="#DejaVuSans-Oblique-52" transform="translate(1313.574219 0.015625)"/>
      <use xlink:href="#DejaVuSans-28" transform="translate(1383.056641 0.015625)"/>
      <use xlink:href="#DejaVuSans-Oblique-72" transform="translate(1422.070312 0.015625)"/>
      <use xlink:href="#DejaVuSans-29" transform="translate(1463.183594 0.015625)"/>
     </g>
    </g>
   </g>
   <g id="line2d_14">
    <path d="M 73.962173 262.328784 
L 75.513804 216.868122 
L 77.065436 178.09196 
L 78.617068 145.345067 
L 80.168699 118.025731 
L 81.720331 95.581831 
L 83.271963 77.507167 
L 84.823594 63.33805 
L 86.375226 52.650123 
L 87.926858 45.055409 
L 89.478489 40.199557 
L 91.030121 37.759285 
L 92.581753 37.44 
L 94.133384 38.973589 
L 95.685016 42.116364 
L 97.236648 46.64715 
L 98.788279 52.365518 
L 100.339911 59.090132 
L 101.891543 66.65723 
L 104.994806 83.743284 
L 108.09807 102.613674 
L 114.304596 142.638091 
L 118.959491 172.47049 
L 123.614386 200.738888 
L 126.71765 218.321546 
L 129.820913 234.71947 
L 132.924176 249.844089 
L 136.02744 263.649362 
L 139.130703 276.123045 
L 142.233966 287.279369 
L 145.33723 297.15294 
L 148.440493 305.793664 
L 151.543756 313.262561 
L 153.095388 316.578824 
L 154.64702 319.628332 
L 156.198652 322.420413 
L 157.750283 324.964557 
L 159.301915 327.270352 
L 160.853547 329.347436 
L 162.405178 331.205449 
L 163.95681 332.853987 
L 165.508442 334.302572 
L 167.060073 335.560615 
L 168.611705 336.637392 
L 170.163337 337.542016 
L 171.714968 338.283419 
L 173.2666 338.870332 
L 174.818232 339.311274 
L 176.369863 339.614537 
L 177.921495 339.788175 
L 179.473127 339.84 
L 182.57639 339.608199 
L 185.679653 338.976554 
L 188.782917 337.998359 
L 191.88618 336.72279 
L 194.989443 335.194974 
L 198.092707 333.456105 
L 202.747602 330.532921 
L 207.402497 327.329445 
L 213.609024 322.783224 
L 235.331867 306.538379 
L 241.538394 302.218498 
L 247.74492 298.147717 
L 253.951447 294.352742 
L 260.157974 290.846996 
L 266.364501 287.633711 
L 272.571027 284.708496 
L 278.777554 282.061434 
L 284.984081 279.678771 
L 291.190607 277.544261 
L 297.397134 275.640212 
L 303.603661 273.9483 
L 309.810187 272.450173 
L 317.568346 270.822774 
L 325.326504 269.43685 
L 333.084663 268.261446 
L 342.394453 267.089292 
L 351.704243 266.136392 
L 362.565664 265.251949 
L 374.978718 264.480022 
L 382.736876 264.100847 
L 382.736876 264.100847 
" clip-path="url(#p3fa2f42594)" style="fill: none; stroke: #1f77b4; stroke-width: 1.5; stroke-linecap: square"/>
   </g>
   <g id="LineCollection_1">
    <path d="M 73.962173 262.328784 
L 382.736876 262.328784 
" clip-path="url(#p3fa2f42594)" style="fill: none; stroke-dasharray: 5.55,2.4; stroke-dashoffset: 0; stroke: #ff0000; stroke-width: 1.5"/>
   </g>
   <g id="patch_3">
    <path d="M 58.523438 354.96 
L 58.523438 22.32 
" style="fill: none; stroke: #000000; stroke-width: 0.8; stroke-linejoin: miter; stroke-linecap: square"/>
   </g>
   <g id="patch_4">
    <path d="M 398.175611 354.96 
L 398.175611 22.32 
" style="fill: none; stroke: #000000; stroke-width: 0.8; stroke-linejoin: miter; stroke-linecap: square"/>
   </g>
   <g id="patch_5">
    <path d="M 58.523438 354.96 
L 398.175611 354.96 
" style="fill: none; stroke: #000000; stroke-width: 0.8; stroke-linejoin: miter; stroke-linecap: square"/>
   </g>
   <g id="patch_6">
    <path d="M 58.523438 22.32 
L 398.175611 22.32 
" style="fill: none; stroke: #000000; stroke-width: 0.8; stroke-linejoin: miter; stroke-linecap: square"/>
   </g>
   <g id="text_16">
    <!-- 3p Radial function -->
    <g transform="translate(173.869524 16.32) scale(0.12 -0.12)">
     <defs>
      <path id="DejaVuSans-70" d="M 1159 525 
L 1159 -1331 
L 581 -1331 
L 581 3500 
L 1159 3500 
L 1159 2969 
Q 1341 3281 1617 3432 
Q 1894 3584 2278 3584 
Q 2916 3584 3314 3078 
Q 3713 2572 3713 1747 
Q 3713 922 3314 415 
Q 2916 -91 2278 -91 
Q 1894 -91 1617 61 
Q 1341 213 1159 525 
z
M 3116 1747 
Q 3116 2381 2855 2742 
Q 2594 3103 2138 3103 
Q 1681 3103 1420 2742 
Q 1159 2381 1159 1747 
Q 1159 1113 1420 752 
Q 1681 391 2138 391 
Q 2594 391 2855 752 
Q 3116 1113 3116 1747 
z
" transform="scale(0.015625)"/>
     </defs>
     <use xlink:href="#DejaVuSans-33"/>
     <use xlink:href="#DejaVuSans-70" transform="translate(63.623047 0)"/>
     <use xlink:href="#DejaVuSans-20" transform="translate(127.099609 0)"/>
     <use xlink:href="#DejaVuSans-52" transform="translate(158.886719 0)"/>
     <use xlink:href="#DejaVuSans-61" transform="translate(226.119141 0)"/>
     <use xlink:href="#DejaVuSans-64" transform="translate(287.398438 0)"/>
     <use xlink:href="#DejaVuSans-69" transform="translate(350.875 0)"/>
     <use xlink:href="#DejaVuSans-61" transform="translate(378.658203 0)"/>
     <use xlink:href="#DejaVuSans-6c" transform="translate(439.9375 0)"/>
     <use xlink:href="#DejaVuSans-20" transform="translate(467.720703 0)"/>
     <use xlink:href="#DejaVuSans-66" transform="translate(499.507812 0)"/>
     <use xlink:href="#DejaVuSans-75" transform="translate(534.712891 0)"/>
     <use xlink:href="#DejaVuSans-6e" transform="translate(598.091797 0)"/>
     <use xlink:href="#DejaVuSans-63" transform="translate(661.470703 0)"/>
     <use xlink:href="#DejaVuSans-74" transform="translate(716.451172 0)"/>
     <use xlink:href="#DejaVuSans-69" transform="translate(755.660156 0)"/>
     <use xlink:href="#DejaVuSans-6f" transform="translate(783.443359 0)"/>
     <use xlink:href="#DejaVuSans-6e" transform="translate(844.625 0)"/>
    </g>
   </g>
  </g>
  <g id="axes_2">
   <g id="patch_7">
    <path d="M 466.106046 354.96 
L 805.75822 354.96 
L 805.75822 22.32 
L 466.106046 22.32 
z
" style="fill: #ffffff"/>
   </g>
   <g id="matplotlib.axis_3">
    <g id="xtick_8">
     <g id="line2d_15">
      <g>
       <use xlink:href="#mf6f67f317e" x="481.544781" y="354.96" style="stroke: #000000; stroke-width: 0.8"/>
      </g>
     </g>
     <g id="text_17">
      <!-- 0 -->
      <g transform="translate(478.363531 369.558437) scale(0.1 -0.1)">
       <use xlink:href="#DejaVuSans-30"/>
      </g>
     </g>
    </g>
    <g id="xtick_9">
     <g id="line2d_16">
      <g>
       <use xlink:href="#mf6f67f317e" x="533.007232" y="354.96" style="stroke: #000000; stroke-width: 0.8"/>
      </g>
     </g>
     <g id="text_18">
      <!-- 5 -->
      <g transform="translate(529.825982 369.558437) scale(0.1 -0.1)">
       <use xlink:href="#DejaVuSans-35"/>
      </g>
     </g>
    </g>
    <g id="xtick_10">
     <g id="line2d_17">
      <g>
       <use xlink:href="#mf6f67f317e" x="584.469683" y="354.96" style="stroke: #000000; stroke-width: 0.8"/>
      </g>
     </g>
     <g id="text_19">
      <!-- 10 -->
      <g transform="translate(578.107183 369.558437) scale(0.1 -0.1)">
       <use xlink:href="#DejaVuSans-31"/>
       <use xlink:href="#DejaVuSans-30" transform="translate(63.623047 0)"/>
      </g>
     </g>
    </g>
    <g id="xtick_11">
     <g id="line2d_18">
      <g>
       <use xlink:href="#mf6f67f317e" x="635.932133" y="354.96" style="stroke: #000000; stroke-width: 0.8"/>
      </g>
     </g>
     <g id="text_20">
      <!-- 15 -->
      <g transform="translate(629.569633 369.558437) scale(0.1 -0.1)">
       <use xlink:href="#DejaVuSans-31"/>
       <use xlink:href="#DejaVuSans-35" transform="translate(63.623047 0)"/>
      </g>
     </g>
    </g>
    <g id="xtick_12">
     <g id="line2d_19">
      <g>
       <use xlink:href="#mf6f67f317e" x="687.394584" y="354.96" style="stroke: #000000; stroke-width: 0.8"/>
      </g>
     </g>
     <g id="text_21">
      <!-- 20 -->
      <g transform="translate(681.032084 369.558437) scale(0.1 -0.1)">
       <use xlink:href="#DejaVuSans-32"/>
       <use xlink:href="#DejaVuSans-30" transform="translate(63.623047 0)"/>
      </g>
     </g>
    </g>
    <g id="xtick_13">
     <g id="line2d_20">
      <g>
       <use xlink:href="#mf6f67f317e" x="738.857034" y="354.96" style="stroke: #000000; stroke-width: 0.8"/>
      </g>
     </g>
     <g id="text_22">
      <!-- 25 -->
      <g transform="translate(732.494534 369.558437) scale(0.1 -0.1)">
       <use xlink:href="#DejaVuSans-32"/>
       <use xlink:href="#DejaVuSans-35" transform="translate(63.623047 0)"/>
      </g>
     </g>
    </g>
    <g id="xtick_14">
     <g id="line2d_21">
      <g>
       <use xlink:href="#mf6f67f317e" x="790.319485" y="354.96" style="stroke: #000000; stroke-width: 0.8"/>
      </g>
     </g>
     <g id="text_23">
      <!-- 30 -->
      <g transform="translate(783.956985 369.558437) scale(0.1 -0.1)">
       <use xlink:href="#DejaVuSans-33"/>
       <use xlink:href="#DejaVuSans-30" transform="translate(63.623047 0)"/>
      </g>
     </g>
    </g>
    <g id="text_24">
     <!-- $r/a_{0}\;(Bohrs)$ -->
     <g transform="translate(607.182133 383.236562) scale(0.1 -0.1)">
      <use xlink:href="#DejaVuSans-Oblique-72" transform="translate(0 0.015625)"/>
      <use xlink:href="#DejaVuSans-2f" transform="translate(41.113281 0.015625)"/>
      <use xlink:href="#DejaVuSans-Oblique-61" transform="translate(74.804688 0.015625)"/>
      <use xlink:href="#DejaVuSans-30" transform="translate(136.083984 -16.390625) scale(0.7)"/>
      <use xlink:href="#DejaVuSans-28" transform="translate(210.413628 0.015625)"/>
      <use xlink:href="#DejaVuSans-Oblique-42" transform="translate(249.4273 0.015625)"/>
      <use xlink:href="#DejaVuSans-Oblique-6f" transform="translate(318.030815 0.015625)"/>
      <use xlink:href="#DejaVuSans-Oblique-68" transform="translate(379.212456 0.015625)"/>
      <use xlink:href="#DejaVuSans-Oblique-72" transform="translate(442.591362 0.015625)"/>
      <use xlink:href="#DejaVuSans-Oblique-73" transform="translate(483.704644 0.015625)"/>
      <use xlink:href="#DejaVuSans-29" transform="translate(535.804253 0.015625)"/>
     </g>
    </g>
   </g>
   <g id="matplotlib.axis_4">
    <g id="ytick_7">
     <g id="line2d_22">
      <g>
       <use xlink:href="#m7a55892e69" x="466.106046" y="339.84" style="stroke: #000000; stroke-width: 0.8"/>
      </g>
     </g>
     <g id="text_25">
      <!-- 0.00 -->
      <g transform="translate(436.840421 343.639219) scale(0.1 -0.1)">
       <use xlink:href="#DejaVuSans-30"/>
       <use xlink:href="#DejaVuSans-2e" transform="translate(63.623047 0)"/>
       <use xlink:href="#DejaVuSans-30" transform="translate(95.410156 0)"/>
       <use xlink:href="#DejaVuSans-30" transform="translate(159.033203 0)"/>
      </g>
     </g>
    </g>
    <g id="ytick_8">
     <g id="line2d_23">
      <g>
       <use xlink:href="#m7a55892e69" x="466.106046" y="280.409841" style="stroke: #000000; stroke-width: 0.8"/>
      </g>
     </g>
     <g id="text_26">
      <!-- 0.02 -->
      <g transform="translate(436.840421 284.20906) scale(0.1 -0.1)">
       <use xlink:href="#DejaVuSans-30"/>
       <use xlink:href="#DejaVuSans-2e" transform="translate(63.623047 0)"/>
       <use xlink:href="#DejaVuSans-30" transform="translate(95.410156 0)"/>
       <use xlink:href="#DejaVuSans-32" transform="translate(159.033203 0)"/>
      </g>
     </g>
    </g>
    <g id="ytick_9">
     <g id="line2d_24">
      <g>
       <use xlink:href="#m7a55892e69" x="466.106046" y="220.979682" style="stroke: #000000; stroke-width: 0.8"/>
      </g>
     </g>
     <g id="text_27">
      <!-- 0.04 -->
      <g transform="translate(436.840421 224.7789) scale(0.1 -0.1)">
       <use xlink:href="#DejaVuSans-30"/>
       <use xlink:href="#DejaVuSans-2e" transform="translate(63.623047 0)"/>
       <use xlink:href="#DejaVuSans-30" transform="translate(95.410156 0)"/>
       <use xlink:href="#DejaVuSans-34" transform="translate(159.033203 0)"/>
      </g>
     </g>
    </g>
    <g id="ytick_10">
     <g id="line2d_25">
      <g>
       <use xlink:href="#m7a55892e69" x="466.106046" y="161.549522" style="stroke: #000000; stroke-width: 0.8"/>
      </g>
     </g>
     <g id="text_28">
      <!-- 0.06 -->
      <g transform="translate(436.840421 165.348741) scale(0.1 -0.1)">
       <use xlink:href="#DejaVuSans-30"/>
       <use xlink:href="#DejaVuSans-2e" transform="translate(63.623047 0)"/>
       <use xlink:href="#DejaVuSans-30" transform="translate(95.410156 0)"/>
       <use xlink:href="#DejaVuSans-36" transform="translate(159.033203 0)"/>
      </g>
     </g>
    </g>
    <g id="ytick_11">
     <g id="line2d_26">
      <g>
       <use xlink:href="#m7a55892e69" x="466.106046" y="102.119363" style="stroke: #000000; stroke-width: 0.8"/>
      </g>
     </g>
     <g id="text_29">
      <!-- 0.08 -->
      <g transform="translate(436.840421 105.918582) scale(0.1 -0.1)">
       <use xlink:href="#DejaVuSans-30"/>
       <use xlink:href="#DejaVuSans-2e" transform="translate(63.623047 0)"/>
       <use xlink:href="#DejaVuSans-30" transform="translate(95.410156 0)"/>
       <use xlink:href="#DejaVuSans-38" transform="translate(159.033203 0)"/>
      </g>
     </g>
    </g>
    <g id="ytick_12">
     <g id="line2d_27">
      <g>
       <use xlink:href="#m7a55892e69" x="466.106046" y="42.689204" style="stroke: #000000; stroke-width: 0.8"/>
      </g>
     </g>
     <g id="text_30">
      <!-- 0.10 -->
      <g transform="translate(436.840421 46.488423) scale(0.1 -0.1)">
       <use xlink:href="#DejaVuSans-30"/>
       <use xlink:href="#DejaVuSans-2e" transform="translate(63.623047 0)"/>
       <use xlink:href="#DejaVuSans-31" transform="translate(95.410156 0)"/>
       <use xlink:href="#DejaVuSans-30" transform="translate(159.033203 0)"/>
      </g>
     </g>
    </g>
    <g id="text_31">
     <!-- Radial Probability, $R^{2}\;r^{2}$ -->
     <g transform="translate(430.740421 247.79) rotate(-90) scale(0.1 -0.1)">
      <defs>
       <path id="DejaVuSans-50" d="M 1259 4147 
L 1259 2394 
L 2053 2394 
Q 2494 2394 2734 2622 
Q 2975 2850 2975 3272 
Q 2975 3691 2734 3919 
Q 2494 4147 2053 4147 
L 1259 4147 
z
M 628 4666 
L 2053 4666 
Q 2838 4666 3239 4311 
Q 3641 3956 3641 3272 
Q 3641 2581 3239 2228 
Q 2838 1875 2053 1875 
L 1259 1875 
L 1259 0 
L 628 0 
L 628 4666 
z
" transform="scale(0.015625)"/>
       <path id="DejaVuSans-72" d="M 2631 2963 
Q 2534 3019 2420 3045 
Q 2306 3072 2169 3072 
Q 1681 3072 1420 2755 
Q 1159 2438 1159 1844 
L 1159 0 
L 581 0 
L 581 3500 
L 1159 3500 
L 1159 2956 
Q 1341 3275 1631 3429 
Q 1922 3584 2338 3584 
Q 2397 3584 2469 3576 
Q 2541 3569 2628 3553 
L 2631 2963 
z
" transform="scale(0.015625)"/>
       <path id="DejaVuSans-62" d="M 3116 1747 
Q 3116 2381 2855 2742 
Q 2594 3103 2138 3103 
Q 1681 3103 1420 2742 
Q 1159 2381 1159 1747 
Q 1159 1113 1420 752 
Q 1681 391 2138 391 
Q 2594 391 2855 752 
Q 3116 1113 3116 1747 
z
M 1159 2969 
Q 1341 3281 1617 3432 
Q 1894 3584 2278 3584 
Q 2916 3584 3314 3078 
Q 3713 2572 3713 1747 
Q 3713 922 3314 415 
Q 2916 -91 2278 -91 
Q 1894 -91 1617 61 
Q 1341 213 1159 525 
L 1159 0 
L 581 0 
L 581 4863 
L 1159 4863 
L 1159 2969 
z
" transform="scale(0.015625)"/>
       <path id="DejaVuSans-79" d="M 2059 -325 
Q 1816 -950 1584 -1140 
Q 1353 -1331 966 -1331 
L 506 -1331 
L 506 -850 
L 844 -850 
Q 1081 -850 1212 -737 
Q 1344 -625 1503 -206 
L 1606 56 
L 191 3500 
L 800 3500 
L 1894 763 
L 2988 3500 
L 3597 3500 
L 2059 -325 
z
" transform="scale(0.015625)"/>
      </defs>
      <use xlink:href="#DejaVuSans-52" transform="translate(0 0.765625)"/>
      <use xlink:href="#DejaVuSans-61" transform="translate(69.482422 0.765625)"/>
      <use xlink:href="#DejaVuSans-64" transform="translate(130.761719 0.765625)"/>
      <use xlink:href="#DejaVuSans-69" transform="translate(194.238281 0.765625)"/>
      <use xlink:href="#DejaVuSans-61" transform="translate(222.021484 0.765625)"/>
      <use xlink:href="#DejaVuSans-6c" transform="translate(283.300781 0.765625)"/>
      <use xlink:href="#DejaVuSans-20" transform="translate(311.083984 0.765625)"/>
      <use xlink:href="#DejaVuSans-50" transform="translate(342.871094 0.765625)"/>
      <use xlink:href="#DejaVuSans-72" transform="translate(403.173828 0.765625)"/>
      <use xlink:href="#DejaVuSans-6f" transform="translate(444.287109 0.765625)"/>
      <use xlink:href="#DejaVuSans-62" transform="translate(505.46875 0.765625)"/>
      <use xlink:href="#DejaVuSans-61" transform="translate(568.945312 0.765625)"/>
      <use xlink:href="#DejaVuSans-62" transform="translate(630.224609 0.765625)"/>
      <use xlink:href="#DejaVuSans-69" transform="translate(693.701172 0.765625)"/>
      <use xlink:href="#DejaVuSans-6c" transform="translate(721.484375 0.765625)"/>
      <use xlink:href="#DejaVuSans-69" transform="translate(749.267578 0.765625)"/>
      <use xlink:href="#DejaVuSans-74" transform="translate(777.050781 0.765625)"/>
      <use xlink:href="#DejaVuSans-79" transform="translate(816.259766 0.765625)"/>
      <use xlink:href="#DejaVuSans-2c" transform="translate(875.439453 0.765625)"/>
      <use xlink:href="#DejaVuSans-20" transform="translate(907.226562 0.765625)"/>
      <use xlink:href="#DejaVuSans-Oblique-52" transform="translate(939.013672 0.765625)"/>
      <use xlink:href="#DejaVuSans-32" transform="translate(1015.512865 39.046875) scale(0.7)"/>
      <use xlink:href="#DejaVuSans-Oblique-72" transform="translate(1089.842508 0.765625)"/>
      <use xlink:href="#DejaVuSans-32" transform="translate(1135.605685 39.046875) scale(0.7)"/>
     </g>
    </g>
   </g>
   <g id="line2d_28">
    <path d="M 481.544781 339.84 
L 483.096413 339.820698 
L 484.648045 339.57491 
L 486.199676 338.68967 
L 487.751308 336.728284 
L 489.30294 333.347907 
L 490.854571 328.354843 
L 492.406203 321.718644 
L 493.957835 313.560484 
L 495.509466 304.126949 
L 498.61273 282.847747 
L 501.715993 261.097766 
L 503.267625 251.069513 
L 504.819257 242.085274 
L 506.370888 234.436381 
L 507.92252 228.349113 
L 509.474152 223.981124 
L 511.025783 221.421463 
L 512.577415 220.693499 
L 514.129047 221.760061 
L 515.680678 224.530183 
L 517.23231 228.866885 
L 518.783942 234.595521 
L 520.335573 241.512281 
L 521.887205 249.39254 
L 524.990468 267.087893 
L 529.645363 294.870455 
L 532.748627 311.637696 
L 534.300258 318.930918 
L 535.85189 325.296455 
L 537.403522 330.613327 
L 538.955153 334.784743 
L 540.506785 337.737907 
L 542.058417 339.423358 
L 543.610048 339.81394 
L 545.16168 338.903458 
L 546.713312 336.705095 
L 548.264943 333.249659 
L 549.816575 328.583698 
L 551.368207 322.767563 
L 552.919838 315.873436 
L 554.47147 307.983371 
L 556.023102 299.187397 
L 557.574734 289.581677 
L 560.677997 268.346033 
L 563.78126 245.105403 
L 569.987787 195.886297 
L 574.642682 159.52527 
L 577.745945 136.744267 
L 580.849209 115.71859 
L 583.952472 96.834742 
L 585.504104 88.288635 
L 587.055735 80.376758 
L 588.607367 73.119528 
L 590.158999 66.531811 
L 591.71063 60.623232 
L 593.262262 55.398504 
L 594.813894 50.857764 
L 596.365525 46.996935 
L 597.917157 43.808077 
L 599.468789 41.279747 
L 601.02042 39.397358 
L 602.572052 38.14352 
L 604.123684 37.498392 
L 605.675315 37.44 
L 607.226947 37.94456 
L 608.778579 38.986775 
L 610.33021 40.540125 
L 611.881842 42.577128 
L 613.433474 45.069599 
L 614.985106 47.988877 
L 616.536737 51.306041 
L 618.088369 54.992111 
L 619.640001 59.018222 
L 622.743264 67.976646 
L 625.846527 77.958473 
L 628.949791 88.751391 
L 633.604686 106.030773 
L 639.811212 130.186516 
L 649.121002 166.500205 
L 653.775897 183.905091 
L 658.430792 200.467977 
L 663.085687 216.022117 
L 666.188951 225.776114 
L 669.292214 235.014216 
L 672.395478 243.726076 
L 675.498741 251.908785 
L 678.602004 259.565739 
L 681.705268 266.705611 
L 684.808531 273.341389 
L 687.911794 279.48952 
L 691.015058 285.169136 
L 694.118321 290.401374 
L 697.221584 295.208779 
L 700.324848 299.61479 
L 703.428111 303.643297 
L 706.531374 307.318274 
L 709.634638 310.66347 
L 712.737901 313.702159 
L 715.841164 316.45694 
L 718.944428 318.949579 
L 722.047691 321.200898 
L 725.150955 323.230686 
L 728.254218 325.057649 
L 731.357481 326.69938 
L 736.012376 328.850381 
L 740.667271 330.672285 
L 745.322166 332.210509 
L 749.977061 333.505275 
L 754.631956 334.591965 
L 760.838483 335.770068 
L 767.04501 336.695062 
L 773.251536 337.418149 
L 781.009695 338.100887 
L 790.319485 338.678569 
L 790.319485 338.678569 
" clip-path="url(#p43e55a5b33)" style="fill: none; stroke: #2ca02c; stroke-width: 1.5; stroke-linecap: square"/>
   </g>
   <g id="patch_8">
    <path d="M 466.106046 354.96 
L 466.106046 22.32 
" style="fill: none; stroke: #000000; stroke-width: 0.8; stroke-linejoin: miter; stroke-linecap: square"/>
   </g>
   <g id="patch_9">
    <path d="M 805.75822 354.96 
L 805.75822 22.32 
" style="fill: none; stroke: #000000; stroke-width: 0.8; stroke-linejoin: miter; stroke-linecap: square"/>
   </g>
   <g id="patch_10">
    <path d="M 466.106046 354.96 
L 805.75822 354.96 
" style="fill: none; stroke: #000000; stroke-width: 0.8; stroke-linejoin: miter; stroke-linecap: square"/>
   </g>
   <g id="patch_11">
    <path d="M 466.106046 22.32 
L 805.75822 22.32 
" style="fill: none; stroke: #000000; stroke-width: 0.8; stroke-linejoin: miter; stroke-linecap: square"/>
   </g>
   <g id="text_32">
    <!-- 3p Radial probability -->
    <g transform="translate(573.950258 16.32) scale(0.12 -0.12)">
     <use xlink:href="#DejaVuSans-33"/>
     <use xlink:href="#DejaVuSans-70" transform="translate(63.623047 0)"/>
     <use xlink:href="#DejaVuSans-20" transform="translate(127.099609 0)"/>
     <use xlink:href="#DejaVuSans-52" transform="translate(158.886719 0)"/>
     <use xlink:href="#DejaVuSans-61" transform="translate(226.119141 0)"/>
     <use xlink:href="#DejaVuSans-64" transform="translate(287.398438 0)"/>
     <use xlink:href="#DejaVuSans-69" transform="translate(350.875 0)"/>
     <use xlink:href="#DejaVuSans-61" transform="translate(378.658203 0)"/>
     <use xlink:href="#DejaVuSans-6c" transform="translate(439.9375 0)"/>
     <use xlink:href="#DejaVuSans-20" transform="translate(467.720703 0)"/>
     <use xlink:href="#DejaVuSans-70" transform="translate(499.507812 0)"/>
     <use xlink:href="#DejaVuSans-72" transform="translate(562.984375 0)"/>
     <use xlink:href="#DejaVuSans-6f" transform="translate(601.847656 0)"/>
     <use xlink:href="#DejaVuSans-62" transform="translate(663.029297 0)"/>
     <use xlink:href="#DejaVuSans-61" transform="translate(726.505859 0)"/>
     <use xlink:href="#DejaVuSans-62" transform="translate(787.785156 0)"/>
     <use xlink:href="#DejaVuSans-69" transform="translate(851.261719 0)"/>
     <use xlink:href="#DejaVuSans-6c" transform="translate(879.044922 0)"/>
     <use xlink:href="#DejaVuSans-69" transform="translate(906.828125 0)"/>
     <use xlink:href="#DejaVuSans-74" transform="translate(934.611328 0)"/>
     <use xlink:href="#DejaVuSans-79" transform="translate(973.820312 0)"/>
    </g>
   </g>
  </g>
  <g id="axes_3">
   <g id="patch_12">
    <path d="M 873.688655 354.96 
L 1213.340829 354.96 
L 1213.340829 22.32 
L 873.688655 22.32 
z
" style="fill: #ffffff"/>
   </g>
   <g id="matplotlib.axis_5">
    <g id="xtick_15">
     <g id="line2d_29">
      <g>
       <use xlink:href="#mf6f67f317e" x="889.12739" y="354.96" style="stroke: #000000; stroke-width: 0.8"/>
      </g>
     </g>
     <g id="text_33">
      <!-- 0 -->
      <g transform="translate(885.94614 369.558437) scale(0.1 -0.1)">
       <use xlink:href="#DejaVuSans-30"/>
      </g>
     </g>
    </g>
    <g id="xtick_16">
     <g id="line2d_30">
      <g>
       <use xlink:href="#mf6f67f317e" x="940.589841" y="354.96" style="stroke: #000000; stroke-width: 0.8"/>
      </g>
     </g>
     <g id="text_34">
      <!-- 5 -->
      <g transform="translate(937.408591 369.558437) scale(0.1 -0.1)">
       <use xlink:href="#DejaVuSans-35"/>
      </g>
     </g>
    </g>
    <g id="xtick_17">
     <g id="line2d_31">
      <g>
       <use xlink:href="#mf6f67f317e" x="992.052291" y="354.96" style="stroke: #000000; stroke-width: 0.8"/>
      </g>
     </g>
     <g id="text_35">
      <!-- 10 -->
      <g transform="translate(985.689791 369.558437) scale(0.1 -0.1)">
       <use xlink:href="#DejaVuSans-31"/>
       <use xlink:href="#DejaVuSans-30" transform="translate(63.623047 0)"/>
      </g>
     </g>
    </g>
    <g id="xtick_18">
     <g id="line2d_32">
      <g>
       <use xlink:href="#mf6f67f317e" x="1043.514742" y="354.96" style="stroke: #000000; stroke-width: 0.8"/>
      </g>
     </g>
     <g id="text_36">
      <!-- 15 -->
      <g transform="translate(1037.152242 369.558437) scale(0.1 -0.1)">
       <use xlink:href="#DejaVuSans-31"/>
       <use xlink:href="#DejaVuSans-35" transform="translate(63.623047 0)"/>
      </g>
     </g>
    </g>
    <g id="xtick_19">
     <g id="line2d_33">
      <g>
       <use xlink:href="#mf6f67f317e" x="1094.977192" y="354.96" style="stroke: #000000; stroke-width: 0.8"/>
      </g>
     </g>
     <g id="text_37">
      <!-- 20 -->
      <g transform="translate(1088.614692 369.558437) scale(0.1 -0.1)">
       <use xlink:href="#DejaVuSans-32"/>
       <use xlink:href="#DejaVuSans-30" transform="translate(63.623047 0)"/>
      </g>
     </g>
    </g>
    <g id="xtick_20">
     <g id="line2d_34">
      <g>
       <use xlink:href="#mf6f67f317e" x="1146.439643" y="354.96" style="stroke: #000000; stroke-width: 0.8"/>
      </g>
     </g>
     <g id="text_38">
      <!-- 25 -->
      <g transform="translate(1140.077143 369.558437) scale(0.1 -0.1)">
       <use xlink:href="#DejaVuSans-32"/>
       <use xlink:href="#DejaVuSans-35" transform="translate(63.623047 0)"/>
      </g>
     </g>
    </g>
    <g id="xtick_21">
     <g id="line2d_35">
      <g>
       <use xlink:href="#mf6f67f317e" x="1197.902094" y="354.96" style="stroke: #000000; stroke-width: 0.8"/>
      </g>
     </g>
     <g id="text_39">
      <!-- 30 -->
      <g transform="translate(1191.539594 369.558437) scale(0.1 -0.1)">
       <use xlink:href="#DejaVuSans-33"/>
       <use xlink:href="#DejaVuSans-30" transform="translate(63.623047 0)"/>
      </g>
     </g>
    </g>
    <g id="text_40">
     <!-- $r/a_{0}\;(Bohrs)$ -->
     <g transform="translate(1014.764742 383.236562) scale(0.1 -0.1)">
      <use xlink:href="#DejaVuSans-Oblique-72" transform="translate(0 0.015625)"/>
      <use xlink:href="#DejaVuSans-2f" transform="translate(41.113281 0.015625)"/>
      <use xlink:href="#DejaVuSans-Oblique-61" transform="translate(74.804688 0.015625)"/>
      <use xlink:href="#DejaVuSans-30" transform="translate(136.083984 -16.390625) scale(0.7)"/>
      <use xlink:href="#DejaVuSans-28" transform="translate(210.413628 0.015625)"/>
      <use xlink:href="#DejaVuSans-Oblique-42" transform="translate(249.4273 0.015625)"/>
      <use xlink:href="#DejaVuSans-Oblique-6f" transform="translate(318.030815 0.015625)"/>
      <use xlink:href="#DejaVuSans-Oblique-68" transform="translate(379.212456 0.015625)"/>
      <use xlink:href="#DejaVuSans-Oblique-72" transform="translate(442.591362 0.015625)"/>
      <use xlink:href="#DejaVuSans-Oblique-73" transform="translate(483.704644 0.015625)"/>
      <use xlink:href="#DejaVuSans-29" transform="translate(535.804253 0.015625)"/>
     </g>
    </g>
   </g>
   <g id="matplotlib.axis_6">
    <g id="ytick_13">
     <g id="line2d_36">
      <g>
       <use xlink:href="#m7a55892e69" x="873.688655" y="339.84" style="stroke: #000000; stroke-width: 0.8"/>
      </g>
     </g>
     <g id="text_41">
      <!-- 0 -->
      <g transform="translate(860.326155 343.639219) scale(0.1 -0.1)">
       <use xlink:href="#DejaVuSans-30"/>
      </g>
     </g>
    </g>
    <g id="ytick_14">
     <g id="line2d_37">
      <g>
       <use xlink:href="#m7a55892e69" x="873.688655" y="270.447161" style="stroke: #000000; stroke-width: 0.8"/>
      </g>
     </g>
     <g id="text_42">
      <!-- 50 -->
      <g transform="translate(853.963655 274.24638) scale(0.1 -0.1)">
       <use xlink:href="#DejaVuSans-35"/>
       <use xlink:href="#DejaVuSans-30" transform="translate(63.623047 0)"/>
      </g>
     </g>
    </g>
    <g id="ytick_15">
     <g id="line2d_38">
      <g>
       <use xlink:href="#m7a55892e69" x="873.688655" y="201.054323" style="stroke: #000000; stroke-width: 0.8"/>
      </g>
     </g>
     <g id="text_43">
      <!-- 100 -->
      <g transform="translate(847.601155 204.853541) scale(0.1 -0.1)">
       <use xlink:href="#DejaVuSans-31"/>
       <use xlink:href="#DejaVuSans-30" transform="translate(63.623047 0)"/>
       <use xlink:href="#DejaVuSans-30" transform="translate(127.246094 0)"/>
      </g>
     </g>
    </g>
    <g id="ytick_16">
     <g id="line2d_39">
      <g>
       <use xlink:href="#m7a55892e69" x="873.688655" y="131.661484" style="stroke: #000000; stroke-width: 0.8"/>
      </g>
     </g>
     <g id="text_44">
      <!-- 150 -->
      <g transform="translate(847.601155 135.460703) scale(0.1 -0.1)">
       <use xlink:href="#DejaVuSans-31"/>
       <use xlink:href="#DejaVuSans-35" transform="translate(63.623047 0)"/>
       <use xlink:href="#DejaVuSans-30" transform="translate(127.246094 0)"/>
      </g>
     </g>
    </g>
    <g id="ytick_17">
     <g id="line2d_40">
      <g>
       <use xlink:href="#m7a55892e69" x="873.688655" y="62.268645" style="stroke: #000000; stroke-width: 0.8"/>
      </g>
     </g>
     <g id="text_45">
      <!-- 200 -->
      <g transform="translate(847.601155 66.067864) scale(0.1 -0.1)">
       <use xlink:href="#DejaVuSans-32"/>
       <use xlink:href="#DejaVuSans-30" transform="translate(63.623047 0)"/>
       <use xlink:href="#DejaVuSans-30" transform="translate(127.246094 0)"/>
      </g>
     </g>
    </g>
    <g id="text_46">
     <!-- Radial Probability, $4\pi r^{2}R^{2}\;(r)$ -->
     <g transform="translate(841.501155 259.94) rotate(-90) scale(0.1 -0.1)">
      <defs>
       <path id="DejaVuSans-Oblique-3c0" d="M 584 3500 
L 3938 3500 
L 3825 2925 
L 3384 2925 
L 2966 775 
Q 2922 550 2981 450 
Q 3038 353 3209 353 
Q 3256 353 3325 363 
Q 3397 369 3419 372 
L 3338 -44 
Q 3222 -84 3103 -103 
Q 2981 -122 2866 -122 
Q 2491 -122 2388 81 
Q 2284 288 2391 838 
L 2797 2925 
L 1506 2925 
L 938 0 
L 350 0 
L 919 2925 
L 472 2925 
L 584 3500 
z
" transform="scale(0.015625)"/>
      </defs>
      <use xlink:href="#DejaVuSans-52" transform="translate(0 0.765625)"/>
      <use xlink:href="#DejaVuSans-61" transform="translate(69.482422 0.765625)"/>
      <use xlink:href="#DejaVuSans-64" transform="translate(130.761719 0.765625)"/>
      <use xlink:href="#DejaVuSans-69" transform="translate(194.238281 0.765625)"/>
      <use xlink:href="#DejaVuSans-61" transform="translate(222.021484 0.765625)"/>
      <use xlink:href="#DejaVuSans-6c" transform="translate(283.300781 0.765625)"/>
      <use xlink:href="#DejaVuSans-20" transform="translate(311.083984 0.765625)"/>
      <use xlink:href="#DejaVuSans-50" transform="translate(342.871094 0.765625)"/>
      <use xlink:href="#DejaVuSans-72" transform="translate(403.173828 0.765625)"/>
      <use xlink:href="#DejaVuSans-6f" transform="translate(444.287109 0.765625)"/>
      <use xlink:href="#DejaVuSans-62" transform="translate(505.46875 0.765625)"/>
      <use xlink:href="#DejaVuSans-61" transform="translate(568.945312 0.765625)"/>
      <use xlink:href="#DejaVuSans-62" transform="translate(630.224609 0.765625)"/>
      <use xlink:href="#DejaVuSans-69" transform="translate(693.701172 0.765625)"/>
      <use xlink:href="#DejaVuSans-6c" transform="translate(721.484375 0.765625)"/>
      <use xlink:href="#DejaVuSans-69" transform="translate(749.267578 0.765625)"/>
      <use xlink:href="#DejaVuSans-74" transform="translate(777.050781 0.765625)"/>
      <use xlink:href="#DejaVuSans-79" transform="translate(816.259766 0.765625)"/>
      <use xlink:href="#DejaVuSans-2c" transform="translate(875.439453 0.765625)"/>
      <use xlink:href="#DejaVuSans-20" transform="translate(907.226562 0.765625)"/>
      <use xlink:href="#DejaVuSans-34" transform="translate(939.013672 0.765625)"/>
      <use xlink:href="#DejaVuSans-Oblique-3c0" transform="translate(1002.636719 0.765625)"/>
      <use xlink:href="#DejaVuSans-Oblique-72" transform="translate(1062.841797 0.765625)"/>
      <use xlink:href="#DejaVuSans-32" transform="translate(1108.604974 39.046875) scale(0.7)"/>
      <use xlink:href="#DejaVuSans-Oblique-52" transform="translate(1155.875482 0.765625)"/>
      <use xlink:href="#DejaVuSans-32" transform="translate(1232.374674 39.046875) scale(0.7)"/>
      <use xlink:href="#DejaVuSans-28" transform="translate(1306.704318 0.765625)"/>
      <use xlink:href="#DejaVuSans-Oblique-72" transform="translate(1345.71799 0.765625)"/>
      <use xlink:href="#DejaVuSans-29" transform="translate(1386.831271 0.765625)"/>
     </g>
    </g>
   </g>
   <g id="line2d_41">
    <path d="M 889.12739 339.84 
L 898.43718 339.784849 
L 901.540443 339.615658 
L 904.643707 339.225313 
L 907.74697 338.533518 
L 910.850234 337.519195 
L 913.953497 336.240771 
L 920.160024 333.482955 
L 923.263287 332.39567 
L 924.814919 332.009537 
L 926.36655 331.753962 
L 927.918182 331.642717 
L 929.469814 331.684379 
L 931.021445 331.881823 
L 932.573077 332.231911 
L 934.124709 332.725388 
L 937.227972 334.075577 
L 941.882867 336.615913 
L 944.98613 338.244987 
L 946.537762 338.916875 
L 948.089394 339.435114 
L 949.641025 339.755471 
L 951.192657 339.834438 
L 952.744289 339.630005 
L 954.29592 339.102373 
L 955.847552 338.214605 
L 957.399184 336.933201 
L 958.950815 335.228582 
L 960.502447 333.075504 
L 962.054079 330.453374 
L 963.605711 327.34648 
L 965.157342 323.744142 
L 966.708974 319.640777 
L 968.260606 315.035886 
L 969.812237 309.933978 
L 971.363869 304.344416 
L 972.915501 298.281219 
L 976.018764 284.811665 
L 979.122027 269.719735 
L 982.225291 253.254 
L 985.328554 235.704657 
L 989.983449 208.050677 
L 999.293239 152.093364 
L 1002.396502 134.425622 
L 1005.499766 117.726454 
L 1008.603029 102.234223 
L 1011.706292 88.149935 
L 1014.809556 75.635285 
L 1016.361188 70.006201 
L 1017.912819 64.812138 
L 1019.464451 60.062224 
L 1021.016083 55.763247 
L 1022.567714 51.919728 
L 1024.119346 48.534012 
L 1025.670978 45.606362 
L 1027.222609 43.135064 
L 1028.774241 41.116541 
L 1030.325873 39.545466 
L 1031.877504 38.414885 
L 1033.429136 37.716342 
L 1034.980768 37.44 
L 1036.532399 37.57477 
L 1038.084031 38.108433 
L 1039.635663 39.027766 
L 1041.187294 40.318661 
L 1042.738926 41.966245 
L 1044.290558 43.954996 
L 1045.842189 46.268851 
L 1047.393821 48.891315 
L 1048.945453 51.805561 
L 1050.497084 54.99453 
L 1053.600348 62.127759 
L 1056.703611 70.153156 
L 1059.806874 78.934376 
L 1062.910138 88.338683 
L 1067.565033 103.336596 
L 1073.77156 124.385257 
L 1087.736245 172.3489 
L 1092.39114 187.620904 
L 1097.046035 202.233413 
L 1101.70093 216.068259 
L 1106.355825 229.043469 
L 1111.01072 241.108652 
L 1114.113983 248.633967 
L 1117.217246 255.742656 
L 1120.32051 262.437281 
L 1123.423773 268.72369 
L 1126.527037 274.610504 
L 1129.6303 280.108647 
L 1132.733563 285.230906 
L 1135.836827 289.991543 
L 1138.94009 294.405936 
L 1142.043353 298.490262 
L 1145.146617 302.261221 
L 1148.24988 305.735788 
L 1151.353143 308.931007 
L 1154.456407 311.863811 
L 1157.55967 314.550868 
L 1160.662933 317.008463 
L 1163.766197 319.25239 
L 1166.86946 321.29788 
L 1169.972723 323.159533 
L 1174.627618 325.6376 
L 1179.282514 327.777245 
L 1183.937409 329.618853 
L 1188.592304 331.199149 
L 1193.247199 332.551292 
L 1197.902094 333.705014 
L 1197.902094 333.705014 
" clip-path="url(#p03d54dc5d4)" style="fill: none; stroke: #ff7f0e; stroke-width: 1.5; stroke-linecap: square"/>
   </g>
   <g id="patch_13">
    <path d="M 873.688655 354.96 
L 873.688655 22.32 
" style="fill: none; stroke: #000000; stroke-width: 0.8; stroke-linejoin: miter; stroke-linecap: square"/>
   </g>
   <g id="patch_14">
    <path d="M 1213.340829 354.96 
L 1213.340829 22.32 
" style="fill: none; stroke: #000000; stroke-width: 0.8; stroke-linejoin: miter; stroke-linecap: square"/>
   </g>
   <g id="patch_15">
    <path d="M 873.688655 354.96 
L 1213.340829 354.96 
" style="fill: none; stroke: #000000; stroke-width: 0.8; stroke-linejoin: miter; stroke-linecap: square"/>
   </g>
   <g id="patch_16">
    <path d="M 873.688655 22.32 
L 1213.340829 22.32 
" style="fill: none; stroke: #000000; stroke-width: 0.8; stroke-linejoin: miter; stroke-linecap: square"/>
   </g>
   <g id="text_47">
    <!-- 3p Radial probability distribution -->
    <g transform="translate(945.434429 16.32) scale(0.12 -0.12)">
     <defs>
      <path id="DejaVuSans-73" d="M 2834 3397 
L 2834 2853 
Q 2591 2978 2328 3040 
Q 2066 3103 1784 3103 
Q 1356 3103 1142 2972 
Q 928 2841 928 2578 
Q 928 2378 1081 2264 
Q 1234 2150 1697 2047 
L 1894 2003 
Q 2506 1872 2764 1633 
Q 3022 1394 3022 966 
Q 3022 478 2636 193 
Q 2250 -91 1575 -91 
Q 1294 -91 989 -36 
Q 684 19 347 128 
L 347 722 
Q 666 556 975 473 
Q 1284 391 1588 391 
Q 1994 391 2212 530 
Q 2431 669 2431 922 
Q 2431 1156 2273 1281 
Q 2116 1406 1581 1522 
L 1381 1569 
Q 847 1681 609 1914 
Q 372 2147 372 2553 
Q 372 3047 722 3315 
Q 1072 3584 1716 3584 
Q 2034 3584 2315 3537 
Q 2597 3491 2834 3397 
z
" transform="scale(0.015625)"/>
     </defs>
     <use xlink:href="#DejaVuSans-33"/>
     <use xlink:href="#DejaVuSans-70" transform="translate(63.623047 0)"/>
     <use xlink:href="#DejaVuSans-20" transform="translate(127.099609 0)"/>
     <use xlink:href="#DejaVuSans-52" transform="translate(158.886719 0)"/>
     <use xlink:href="#DejaVuSans-61" transform="translate(226.119141 0)"/>
     <use xlink:href="#DejaVuSans-64" transform="translate(287.398438 0)"/>
     <use xlink:href="#DejaVuSans-69" transform="translate(350.875 0)"/>
     <use xlink:href="#DejaVuSans-61" transform="translate(378.658203 0)"/>
     <use xlink:href="#DejaVuSans-6c" transform="translate(439.9375 0)"/>
     <use xlink:href="#DejaVuSans-20" transform="translate(467.720703 0)"/>
     <use xlink:href="#DejaVuSans-70" transform="translate(499.507812 0)"/>
     <use xlink:href="#DejaVuSans-72" transform="translate(562.984375 0)"/>
     <use xlink:href="#DejaVuSans-6f" transform="translate(601.847656 0)"/>
     <use xlink:href="#DejaVuSans-62" transform="translate(663.029297 0)"/>
     <use xlink:href="#DejaVuSans-61" transform="translate(726.505859 0)"/>
     <use xlink:href="#DejaVuSans-62" transform="translate(787.785156 0)"/>
     <use xlink:href="#DejaVuSans-69" transform="translate(851.261719 0)"/>
     <use xlink:href="#DejaVuSans-6c" transform="translate(879.044922 0)"/>
     <use xlink:href="#DejaVuSans-69" transform="translate(906.828125 0)"/>
     <use xlink:href="#DejaVuSans-74" transform="translate(934.611328 0)"/>
     <use xlink:href="#DejaVuSans-79" transform="translate(973.820312 0)"/>
     <use xlink:href="#DejaVuSans-20" transform="translate(1033 0)"/>
     <use xlink:href="#DejaVuSans-64" transform="translate(1064.787109 0)"/>
     <use xlink:href="#DejaVuSans-69" transform="translate(1128.263672 0)"/>
     <use xlink:href="#DejaVuSans-73" transform="translate(1156.046875 0)"/>
     <use xlink:href="#DejaVuSans-74" transform="translate(1208.146484 0)"/>
     <use xlink:href="#DejaVuSans-72" transform="translate(1247.355469 0)"/>
     <use xlink:href="#DejaVuSans-69" transform="translate(1288.46875 0)"/>
     <use xlink:href="#DejaVuSans-62" transform="translate(1316.251953 0)"/>
     <use xlink:href="#DejaVuSans-75" transform="translate(1379.728516 0)"/>
     <use xlink:href="#DejaVuSans-74" transform="translate(1443.107422 0)"/>
     <use xlink:href="#DejaVuSans-69" transform="translate(1482.316406 0)"/>
     <use xlink:href="#DejaVuSans-6f" transform="translate(1510.099609 0)"/>
     <use xlink:href="#DejaVuSans-6e" transform="translate(1571.28125 0)"/>
    </g>
   </g>
  </g>
  <g id="axes_4">
   <g id="patch_17">
    <path d="M 1281.271264 354.96 
L 1620.923438 354.96 
L 1620.923438 22.32 
L 1281.271264 22.32 
z
" style="fill: #ffffff"/>
   </g>
   <g id="matplotlib.axis_7">
    <g id="xtick_22">
     <g id="line2d_42">
      <g>
       <use xlink:href="#mf6f67f317e" x="1296.709999" y="354.96" style="stroke: #000000; stroke-width: 0.8"/>
      </g>
     </g>
     <g id="text_48">
      <!-- 0 -->
      <g transform="translate(1293.528749 369.558437) scale(0.1 -0.1)">
       <use xlink:href="#DejaVuSans-30"/>
      </g>
     </g>
    </g>
    <g id="xtick_23">
     <g id="line2d_43">
      <g>
       <use xlink:href="#mf6f67f317e" x="1348.172449" y="354.96" style="stroke: #000000; stroke-width: 0.8"/>
      </g>
     </g>
     <g id="text_49">
      <!-- 5 -->
      <g transform="translate(1344.991199 369.558437) scale(0.1 -0.1)">
       <use xlink:href="#DejaVuSans-35"/>
      </g>
     </g>
    </g>
    <g id="xtick_24">
     <g id="line2d_44">
      <g>
       <use xlink:href="#mf6f67f317e" x="1399.6349" y="354.96" style="stroke: #000000; stroke-width: 0.8"/>
      </g>
     </g>
     <g id="text_50">
      <!-- 10 -->
      <g transform="translate(1393.2724 369.558437) scale(0.1 -0.1)">
       <use xlink:href="#DejaVuSans-31"/>
       <use xlink:href="#DejaVuSans-30" transform="translate(63.623047 0)"/>
      </g>
     </g>
    </g>
    <g id="xtick_25">
     <g id="line2d_45">
      <g>
       <use xlink:href="#mf6f67f317e" x="1451.097351" y="354.96" style="stroke: #000000; stroke-width: 0.8"/>
      </g>
     </g>
     <g id="text_51">
      <!-- 15 -->
      <g transform="translate(1444.734851 369.558437) scale(0.1 -0.1)">
       <use xlink:href="#DejaVuSans-31"/>
       <use xlink:href="#DejaVuSans-35" transform="translate(63.623047 0)"/>
      </g>
     </g>
    </g>
    <g id="xtick_26">
     <g id="line2d_46">
      <g>
       <use xlink:href="#mf6f67f317e" x="1502.559801" y="354.96" style="stroke: #000000; stroke-width: 0.8"/>
      </g>
     </g>
     <g id="text_52">
      <!-- 20 -->
      <g transform="translate(1496.197301 369.558437) scale(0.1 -0.1)">
       <use xlink:href="#DejaVuSans-32"/>
       <use xlink:href="#DejaVuSans-30" transform="translate(63.623047 0)"/>
      </g>
     </g>
    </g>
    <g id="xtick_27">
     <g id="line2d_47">
      <g>
       <use xlink:href="#mf6f67f317e" x="1554.022252" y="354.96" style="stroke: #000000; stroke-width: 0.8"/>
      </g>
     </g>
     <g id="text_53">
      <!-- 25 -->
      <g transform="translate(1547.659752 369.558437) scale(0.1 -0.1)">
       <use xlink:href="#DejaVuSans-32"/>
       <use xlink:href="#DejaVuSans-35" transform="translate(63.623047 0)"/>
      </g>
     </g>
    </g>
    <g id="xtick_28">
     <g id="line2d_48">
      <g>
       <use xlink:href="#mf6f67f317e" x="1605.484702" y="354.96" style="stroke: #000000; stroke-width: 0.8"/>
      </g>
     </g>
     <g id="text_54">
      <!-- 30 -->
      <g transform="translate(1599.122202 369.558437) scale(0.1 -0.1)">
       <use xlink:href="#DejaVuSans-33"/>
       <use xlink:href="#DejaVuSans-30" transform="translate(63.623047 0)"/>
      </g>
     </g>
    </g>
    <g id="text_55">
     <!-- $r/a_{0}\;(Bohrs)$ -->
     <g transform="translate(1422.347351 383.236562) scale(0.1 -0.1)">
      <use xlink:href="#DejaVuSans-Oblique-72" transform="translate(0 0.015625)"/>
      <use xlink:href="#DejaVuSans-2f" transform="translate(41.113281 0.015625)"/>
      <use xlink:href="#DejaVuSans-Oblique-61" transform="translate(74.804688 0.015625)"/>
      <use xlink:href="#DejaVuSans-30" transform="translate(136.083984 -16.390625) scale(0.7)"/>
      <use xlink:href="#DejaVuSans-28" transform="translate(210.413628 0.015625)"/>
      <use xlink:href="#DejaVuSans-Oblique-42" transform="translate(249.4273 0.015625)"/>
      <use xlink:href="#DejaVuSans-Oblique-6f" transform="translate(318.030815 0.015625)"/>
      <use xlink:href="#DejaVuSans-Oblique-68" transform="translate(379.212456 0.015625)"/>
      <use xlink:href="#DejaVuSans-Oblique-72" transform="translate(442.591362 0.015625)"/>
      <use xlink:href="#DejaVuSans-Oblique-73" transform="translate(483.704644 0.015625)"/>
      <use xlink:href="#DejaVuSans-29" transform="translate(535.804253 0.015625)"/>
     </g>
    </g>
   </g>
   <g id="matplotlib.axis_8">
    <g id="ytick_18">
     <g id="line2d_49">
      <g>
       <use xlink:href="#m7a55892e69" x="1281.271264" y="339.84" style="stroke: #000000; stroke-width: 0.8"/>
      </g>
     </g>
     <g id="text_56">
      <!-- 0 -->
      <g transform="translate(1267.908764 343.639219) scale(0.1 -0.1)">
       <use xlink:href="#DejaVuSans-30"/>
      </g>
     </g>
    </g>
    <g id="ytick_19">
     <g id="line2d_50">
      <g>
       <use xlink:href="#m7a55892e69" x="1281.271264" y="286.363939" style="stroke: #000000; stroke-width: 0.8"/>
      </g>
     </g>
     <g id="text_57">
      <!-- 2000 -->
      <g transform="translate(1248.821264 290.163158) scale(0.1 -0.1)">
       <use xlink:href="#DejaVuSans-32"/>
       <use xlink:href="#DejaVuSans-30" transform="translate(63.623047 0)"/>
       <use xlink:href="#DejaVuSans-30" transform="translate(127.246094 0)"/>
       <use xlink:href="#DejaVuSans-30" transform="translate(190.869141 0)"/>
      </g>
     </g>
    </g>
    <g id="ytick_20">
     <g id="line2d_51">
      <g>
       <use xlink:href="#m7a55892e69" x="1281.271264" y="232.887878" style="stroke: #000000; stroke-width: 0.8"/>
      </g>
     </g>
     <g id="text_58">
      <!-- 4000 -->
      <g transform="translate(1248.821264 236.687097) scale(0.1 -0.1)">
       <use xlink:href="#DejaVuSans-34"/>
       <use xlink:href="#DejaVuSans-30" transform="translate(63.623047 0)"/>
       <use xlink:href="#DejaVuSans-30" transform="translate(127.246094 0)"/>
       <use xlink:href="#DejaVuSans-30" transform="translate(190.869141 0)"/>
      </g>
     </g>
    </g>
    <g id="ytick_21">
     <g id="line2d_52">
      <g>
       <use xlink:href="#m7a55892e69" x="1281.271264" y="179.411817" style="stroke: #000000; stroke-width: 0.8"/>
      </g>
     </g>
     <g id="text_59">
      <!-- 6000 -->
      <g transform="translate(1248.821264 183.211036) scale(0.1 -0.1)">
       <use xlink:href="#DejaVuSans-36"/>
       <use xlink:href="#DejaVuSans-30" transform="translate(63.623047 0)"/>
       <use xlink:href="#DejaVuSans-30" transform="translate(127.246094 0)"/>
       <use xlink:href="#DejaVuSans-30" transform="translate(190.869141 0)"/>
      </g>
     </g>
    </g>
    <g id="ytick_22">
     <g id="line2d_53">
      <g>
       <use xlink:href="#m7a55892e69" x="1281.271264" y="125.935756" style="stroke: #000000; stroke-width: 0.8"/>
      </g>
     </g>
     <g id="text_60">
      <!-- 8000 -->
      <g transform="translate(1248.821264 129.734975) scale(0.1 -0.1)">
       <use xlink:href="#DejaVuSans-38"/>
       <use xlink:href="#DejaVuSans-30" transform="translate(63.623047 0)"/>
       <use xlink:href="#DejaVuSans-30" transform="translate(127.246094 0)"/>
       <use xlink:href="#DejaVuSans-30" transform="translate(190.869141 0)"/>
      </g>
     </g>
    </g>
    <g id="ytick_23">
     <g id="line2d_54">
      <g>
       <use xlink:href="#m7a55892e69" x="1281.271264" y="72.459696" style="stroke: #000000; stroke-width: 0.8"/>
      </g>
     </g>
     <g id="text_61">
      <!-- 10000 -->
      <g transform="translate(1242.458764 76.258914) scale(0.1 -0.1)">
       <use xlink:href="#DejaVuSans-31"/>
       <use xlink:href="#DejaVuSans-30" transform="translate(63.623047 0)"/>
       <use xlink:href="#DejaVuSans-30" transform="translate(127.246094 0)"/>
       <use xlink:href="#DejaVuSans-30" transform="translate(190.869141 0)"/>
       <use xlink:href="#DejaVuSans-30" transform="translate(254.492188 0)"/>
      </g>
     </g>
    </g>
    <g id="text_62">
     <!-- Surface Area / $4\pi r^{2}$ -->
     <g transform="translate(1236.379076 236.64) rotate(-90) scale(0.1 -0.1)">
      <defs>
       <path id="DejaVuSans-53" d="M 3425 4513 
L 3425 3897 
Q 3066 4069 2747 4153 
Q 2428 4238 2131 4238 
Q 1616 4238 1336 4038 
Q 1056 3838 1056 3469 
Q 1056 3159 1242 3001 
Q 1428 2844 1947 2747 
L 2328 2669 
Q 3034 2534 3370 2195 
Q 3706 1856 3706 1288 
Q 3706 609 3251 259 
Q 2797 -91 1919 -91 
Q 1588 -91 1214 -16 
Q 841 59 441 206 
L 441 856 
Q 825 641 1194 531 
Q 1563 422 1919 422 
Q 2459 422 2753 634 
Q 3047 847 3047 1241 
Q 3047 1584 2836 1778 
Q 2625 1972 2144 2069 
L 1759 2144 
Q 1053 2284 737 2584 
Q 422 2884 422 3419 
Q 422 4038 858 4394 
Q 1294 4750 2059 4750 
Q 2388 4750 2728 4690 
Q 3069 4631 3425 4513 
z
" transform="scale(0.015625)"/>
       <path id="DejaVuSans-41" d="M 2188 4044 
L 1331 1722 
L 3047 1722 
L 2188 4044 
z
M 1831 4666 
L 2547 4666 
L 4325 0 
L 3669 0 
L 3244 1197 
L 1141 1197 
L 716 0 
L 50 0 
L 1831 4666 
z
" transform="scale(0.015625)"/>
      </defs>
      <use xlink:href="#DejaVuSans-53" transform="translate(0 0.765625)"/>
      <use xlink:href="#DejaVuSans-75" transform="translate(63.476562 0.765625)"/>
      <use xlink:href="#DejaVuSans-72" transform="translate(126.855469 0.765625)"/>
      <use xlink:href="#DejaVuSans-66" transform="translate(167.96875 0.765625)"/>
      <use xlink:href="#DejaVuSans-61" transform="translate(203.173828 0.765625)"/>
      <use xlink:href="#DejaVuSans-63" transform="translate(264.453125 0.765625)"/>
      <use xlink:href="#DejaVuSans-65" transform="translate(319.433594 0.765625)"/>
      <use xlink:href="#DejaVuSans-20" transform="translate(380.957031 0.765625)"/>
      <use xlink:href="#DejaVuSans-41" transform="translate(412.744141 0.765625)"/>
      <use xlink:href="#DejaVuSans-72" transform="translate(481.152344 0.765625)"/>
      <use xlink:href="#DejaVuSans-65" transform="translate(522.265625 0.765625)"/>
      <use xlink:href="#DejaVuSans-61" transform="translate(583.789062 0.765625)"/>
      <use xlink:href="#DejaVuSans-20" transform="translate(645.068359 0.765625)"/>
      <use xlink:href="#DejaVuSans-2f" transform="translate(676.855469 0.765625)"/>
      <use xlink:href="#DejaVuSans-20" transform="translate(710.546875 0.765625)"/>
      <use xlink:href="#DejaVuSans-34" transform="translate(742.333984 0.765625)"/>
      <use xlink:href="#DejaVuSans-Oblique-3c0" transform="translate(805.957031 0.765625)"/>
      <use xlink:href="#DejaVuSans-Oblique-72" transform="translate(866.162109 0.765625)"/>
      <use xlink:href="#DejaVuSans-32" transform="translate(911.925286 39.046875) scale(0.7)"/>
     </g>
    </g>
   </g>
   <g id="line2d_55">
    <path d="M 1296.709999 339.84 
L 1302.916525 339.717821 
L 1309.123052 339.351285 
L 1315.329579 338.740391 
L 1321.536106 337.88514 
L 1327.742632 336.785532 
L 1333.949159 335.441566 
L 1340.155686 333.853242 
L 1346.362212 332.020561 
L 1352.568739 329.943523 
L 1358.775266 327.622127 
L 1364.981793 325.056373 
L 1371.188319 322.246262 
L 1377.394846 319.191794 
L 1383.601373 315.892968 
L 1389.807899 312.349785 
L 1396.014426 308.562244 
L 1402.220953 304.530346 
L 1408.427479 300.254091 
L 1414.634006 295.733477 
L 1420.840533 290.968507 
L 1427.04706 285.959179 
L 1433.253586 280.705493 
L 1439.460113 275.20745 
L 1445.66664 269.46505 
L 1453.424798 261.943422 
L 1461.182956 254.039985 
L 1468.941115 245.75474 
L 1476.699273 237.087686 
L 1484.457432 228.038823 
L 1492.21559 218.608152 
L 1499.973748 208.795673 
L 1507.731907 198.601385 
L 1515.490065 188.025288 
L 1523.248223 177.067383 
L 1531.006382 165.72767 
L 1538.76454 154.006147 
L 1546.522699 141.902817 
L 1554.280857 129.417677 
L 1562.039015 116.55073 
L 1569.797174 103.301973 
L 1577.555332 89.671408 
L 1585.313491 75.659035 
L 1594.623281 58.340199 
L 1603.933071 40.47156 
L 1605.484702 37.44 
L 1605.484702 37.44 
" clip-path="url(#pab76d3bd04)" style="fill: none; stroke: #d62728; stroke-width: 1.5; stroke-linecap: square"/>
   </g>
   <g id="patch_18">
    <path d="M 1281.271264 354.96 
L 1281.271264 22.32 
" style="fill: none; stroke: #000000; stroke-width: 0.8; stroke-linejoin: miter; stroke-linecap: square"/>
   </g>
   <g id="patch_19">
    <path d="M 1620.923438 354.96 
L 1620.923438 22.32 
" style="fill: none; stroke: #000000; stroke-width: 0.8; stroke-linejoin: miter; stroke-linecap: square"/>
   </g>
   <g id="patch_20">
    <path d="M 1281.271264 354.96 
L 1620.923438 354.96 
" style="fill: none; stroke: #000000; stroke-width: 0.8; stroke-linejoin: miter; stroke-linecap: square"/>
   </g>
   <g id="patch_21">
    <path d="M 1281.271264 22.32 
L 1620.923438 22.32 
" style="fill: none; stroke: #000000; stroke-width: 0.8; stroke-linejoin: miter; stroke-linecap: square"/>
   </g>
   <g id="text_63">
    <!-- Sphere Surface Area Over $4\pi$ -->
    <g transform="translate(1363.497351 16.32) scale(0.12 -0.12)">
     <defs>
      <path id="DejaVuSans-4f" d="M 2522 4238 
Q 1834 4238 1429 3725 
Q 1025 3213 1025 2328 
Q 1025 1447 1429 934 
Q 1834 422 2522 422 
Q 3209 422 3611 934 
Q 4013 1447 4013 2328 
Q 4013 3213 3611 3725 
Q 3209 4238 2522 4238 
z
M 2522 4750 
Q 3503 4750 4090 4092 
Q 4678 3434 4678 2328 
Q 4678 1225 4090 567 
Q 3503 -91 2522 -91 
Q 1538 -91 948 565 
Q 359 1222 359 2328 
Q 359 3434 948 4092 
Q 1538 4750 2522 4750 
z
" transform="scale(0.015625)"/>
     </defs>
     <use xlink:href="#DejaVuSans-53" transform="translate(0 0.015625)"/>
     <use xlink:href="#DejaVuSans-70" transform="translate(63.476562 0.015625)"/>
     <use xlink:href="#DejaVuSans-68" transform="translate(126.953125 0.015625)"/>
     <use xlink:href="#DejaVuSans-65" transform="translate(190.332031 0.015625)"/>
     <use xlink:href="#DejaVuSans-72" transform="translate(251.855469 0.015625)"/>
     <use xlink:href="#DejaVuSans-65" transform="translate(292.96875 0.015625)"/>
     <use xlink:href="#DejaVuSans-20" transform="translate(354.492188 0.015625)"/>
     <use xlink:href="#DejaVuSans-53" transform="translate(386.279297 0.015625)"/>
     <use xlink:href="#DejaVuSans-75" transform="translate(449.755859 0.015625)"/>
     <use xlink:href="#DejaVuSans-72" transform="translate(513.134766 0.015625)"/>
     <use xlink:href="#DejaVuSans-66" transform="translate(554.248047 0.015625)"/>
     <use xlink:href="#DejaVuSans-61" transform="translate(589.453125 0.015625)"/>
     <use xlink:href="#DejaVuSans-63" transform="translate(650.732422 0.015625)"/>
     <use xlink:href="#DejaVuSans-65" transform="translate(705.712891 0.015625)"/>
     <use xlink:href="#DejaVuSans-20" transform="translate(767.236328 0.015625)"/>
     <use xlink:href="#DejaVuSans-41" transform="translate(799.023438 0.015625)"/>
     <use xlink:href="#DejaVuSans-72" transform="translate(867.431641 0.015625)"/>
     <use xlink:href="#DejaVuSans-65" transform="translate(908.544922 0.015625)"/>
     <use xlink:href="#DejaVuSans-61" transform="translate(970.068359 0.015625)"/>
     <use xlink:href="#DejaVuSans-20" transform="translate(1031.347656 0.015625)"/>
     <use xlink:href="#DejaVuSans-4f" transform="translate(1063.134766 0.015625)"/>
     <use xlink:href="#DejaVuSans-76" transform="translate(1141.845703 0.015625)"/>
     <use xlink:href="#DejaVuSans-65" transform="translate(1201.025391 0.015625)"/>
     <use xlink:href="#DejaVuSans-72" transform="translate(1262.548828 0.015625)"/>
     <use xlink:href="#DejaVuSans-20" transform="translate(1303.662109 0.015625)"/>
     <use xlink:href="#DejaVuSans-34" transform="translate(1335.449219 0.015625)"/>
     <use xlink:href="#DejaVuSans-Oblique-3c0" transform="translate(1399.072266 0.015625)"/>
    </g>
   </g>
  </g>
 </g>
 <defs>
  <clipPath id="p3fa2f42594">
   <rect x="58.523438" y="22.32" width="339.652174" height="332.64"/>
  </clipPath>
  <clipPath id="p43e55a5b33">
   <rect x="466.106046" y="22.32" width="339.652174" height="332.64"/>
  </clipPath>
  <clipPath id="p03d54dc5d4">
   <rect x="873.688655" y="22.32" width="339.652174" height="332.64"/>
  </clipPath>
  <clipPath id="pab76d3bd04">
   <rect x="1281.271264" y="22.32" width="339.652174" height="332.64"/>
  </clipPath>
 </defs>
</svg>
