<?xml version="1.0" encoding="utf-8" standalone="no"?>
<!DOCTYPE svg PUBLIC "-//W3C//DTD SVG 1.1//EN"
  "http://www.w3.org/Graphics/SVG/1.1/DTD/svg11.dtd">
<svg xmlns:xlink="http://www.w3.org/1999/xlink" width="322.316687pt" height="326.00825pt" viewBox="0 0 322.316687 326.00825" xmlns="http://www.w3.org/2000/svg" version="1.1">
 <metadata>
  <rdf:RDF xmlns:dc="http://purl.org/dc/elements/1.1/" xmlns:cc="http://creativecommons.org/ns#" xmlns:rdf="http://www.w3.org/1999/02/22-rdf-syntax-ns#">
   <cc:Work>
    <dc:type rdf:resource="http://purl.org/dc/dcmitype/StillImage"/>
    <dc:date>2026-01-05T19:14:56.530548</dc:date>
    <dc:format>image/svg+xml</dc:format>
    <dc:creator>
     <cc:Agent>
      <dc:title>Matplotlib v3.10.8, https://matplotlib.org/</dc:title>
     </cc:Agent>
    </dc:creator>
   </cc:Work>
  </rdf:RDF>
 </metadata>
 <defs>
  <style type="text/css">*{stroke-linejoin: round; stroke-linecap: butt}</style>
 </defs>
 <g id="figure_1">
  <g id="patch_1">
   <path d="M -0 326.00825 
L 322.316687 326.00825 
L 322.316687 0 
L -0 0 
z
" style="fill: #ffffff"/>
  </g>
  <g id="axes_1">
   <g id="patch_2">
    <path d="M 49.004687 288.430125 
L 315.116687 288.430125 
L 315.116687 22.318125 
L 49.004687 22.318125 
z
" style="fill: #ffffff"/>
   </g>
   <g id="matplotlib.axis_1">
    <g id="xtick_1">
     <g id="line2d_1">
      <defs>
       <path id="m7c6fbbcb2e" d="M 0 0 
L 0 3.5 
" style="stroke: #000000; stroke-width: 0.8"/>
      </defs>
      <g>
       <use xlink:href="#m7c6fbbcb2e" x="71.183479" y="288.430125" style="stroke: #000000; stroke-width: 0.8"/>
      </g>
     </g>
     <g id="text_1">
      <!-- −10 -->
      <g transform="translate(60.631135 303.028562) scale(0.1 -0.1)">
       <defs>
        <path id="DejaVuSans-2212" d="M 678 2272 
L 4684 2272 
L 4684 1741 
L 678 1741 
L 678 2272 
z
" transform="scale(0.015625)"/>
        <path id="DejaVuSans-31" d="M 794 531 
L 1825 531 
L 1825 4091 
L 703 3866 
L 703 4441 
L 1819 4666 
L 2450 4666 
L 2450 531 
L 3481 531 
L 3481 0 
L 794 0 
L 794 531 
z
" transform="scale(0.015625)"/>
        <path id="DejaVuSans-30" d="M 2034 4250 
Q 1547 4250 1301 3770 
Q 1056 3291 1056 2328 
Q 1056 1369 1301 889 
Q 1547 409 2034 409 
Q 2525 409 2770 889 
Q 3016 1369 3016 2328 
Q 3016 3291 2770 3770 
Q 2525 4250 2034 4250 
z
M 2034 4750 
Q 2819 4750 3233 4129 
Q 3647 3509 3647 2328 
Q 3647 1150 3233 529 
Q 2819 -91 2034 -91 
Q 1250 -91 836 529 
Q 422 1150 422 2328 
Q 422 3509 836 4129 
Q 1250 4750 2034 4750 
z
" transform="scale(0.015625)"/>
       </defs>
       <use xlink:href="#DejaVuSans-2212"/>
       <use xlink:href="#DejaVuSans-31" transform="translate(83.789062 0)"/>
       <use xlink:href="#DejaVuSans-30" transform="translate(147.412109 0)"/>
      </g>
     </g>
    </g>
    <g id="xtick_2">
     <g id="line2d_2">
      <g>
       <use xlink:href="#m7c6fbbcb2e" x="126.630458" y="288.430125" style="stroke: #000000; stroke-width: 0.8"/>
      </g>
     </g>
     <g id="text_2">
      <!-- −5 -->
      <g transform="translate(119.259365 303.028562) scale(0.1 -0.1)">
       <defs>
        <path id="DejaVuSans-35" d="M 691 4666 
L 3169 4666 
L 3169 4134 
L 1269 4134 
L 1269 2991 
Q 1406 3038 1543 3061 
Q 1681 3084 1819 3084 
Q 2600 3084 3056 2656 
Q 3513 2228 3513 1497 
Q 3513 744 3044 326 
Q 2575 -91 1722 -91 
Q 1428 -91 1123 -41 
Q 819 9 494 109 
L 494 744 
Q 775 591 1075 516 
Q 1375 441 1709 441 
Q 2250 441 2565 725 
Q 2881 1009 2881 1497 
Q 2881 1984 2565 2268 
Q 2250 2553 1709 2553 
Q 1456 2553 1204 2497 
Q 953 2441 691 2322 
L 691 4666 
z
" transform="scale(0.015625)"/>
       </defs>
       <use xlink:href="#DejaVuSans-2212"/>
       <use xlink:href="#DejaVuSans-35" transform="translate(83.789062 0)"/>
      </g>
     </g>
    </g>
    <g id="xtick_3">
     <g id="line2d_3">
      <g>
       <use xlink:href="#m7c6fbbcb2e" x="182.077438" y="288.430125" style="stroke: #000000; stroke-width: 0.8"/>
      </g>
     </g>
     <g id="text_3">
      <!-- 0 -->
      <g transform="translate(178.896188 303.028562) scale(0.1 -0.1)">
       <use xlink:href="#DejaVuSans-30"/>
      </g>
     </g>
    </g>
    <g id="xtick_4">
     <g id="line2d_4">
      <g>
       <use xlink:href="#m7c6fbbcb2e" x="237.524417" y="288.430125" style="stroke: #000000; stroke-width: 0.8"/>
      </g>
     </g>
     <g id="text_4">
      <!-- 5 -->
      <g transform="translate(234.343167 303.028562) scale(0.1 -0.1)">
       <use xlink:href="#DejaVuSans-35"/>
      </g>
     </g>
    </g>
    <g id="xtick_5">
     <g id="line2d_5">
      <g>
       <use xlink:href="#m7c6fbbcb2e" x="292.971396" y="288.430125" style="stroke: #000000; stroke-width: 0.8"/>
      </g>
     </g>
     <g id="text_5">
      <!-- 10 -->
      <g transform="translate(286.608896 303.028562) scale(0.1 -0.1)">
       <use xlink:href="#DejaVuSans-31"/>
       <use xlink:href="#DejaVuSans-30" transform="translate(63.623047 0)"/>
      </g>
     </g>
    </g>
    <g id="text_6">
     <!-- $x$-position [a.u.] -->
     <g transform="translate(142.560687 316.70825) scale(0.1 -0.1)">
      <defs>
       <path id="DejaVuSans-Oblique-78" d="M 3841 3500 
L 2234 1784 
L 3219 0 
L 2559 0 
L 1819 1388 
L 531 0 
L -166 0 
L 1556 1844 
L 641 3500 
L 1300 3500 
L 1972 2234 
L 3144 3500 
L 3841 3500 
z
" transform="scale(0.015625)"/>
       <path id="DejaVuSans-2d" d="M 313 2009 
L 1997 2009 
L 1997 1497 
L 313 1497 
L 313 2009 
z
" transform="scale(0.015625)"/>
       <path id="DejaVuSans-70" d="M 1159 525 
L 1159 -1331 
L 581 -1331 
L 581 3500 
L 1159 3500 
L 1159 2969 
Q 1341 3281 1617 3432 
Q 1894 3584 2278 3584 
Q 2916 3584 3314 3078 
Q 3713 2572 3713 1747 
Q 3713 922 3314 415 
Q 2916 -91 2278 -91 
Q 1894 -91 1617 61 
Q 1341 213 1159 525 
z
M 3116 1747 
Q 3116 2381 2855 2742 
Q 2594 3103 2138 3103 
Q 1681 3103 1420 2742 
Q 1159 2381 1159 1747 
Q 1159 1113 1420 752 
Q 1681 391 2138 391 
Q 2594 391 2855 752 
Q 3116 1113 3116 1747 
z
" transform="scale(0.015625)"/>
       <path id="DejaVuSans-6f" d="M 1959 3097 
Q 1497 3097 1228 2736 
Q 959 2375 959 1747 
Q 959 1119 1226 758 
Q 1494 397 1959 397 
Q 2419 397 2687 759 
Q 2956 1122 2956 1747 
Q 2956 2369 2687 2733 
Q 2419 3097 1959 3097 
z
M 1959 3584 
Q 2709 3584 3137 3096 
Q 3566 2609 3566 1747 
Q 3566 888 3137 398 
Q 2709 -91 1959 -91 
Q 1206 -91 779 398 
Q 353 888 353 1747 
Q 353 2609 779 3096 
Q 1206 3584 1959 3584 
z
" transform="scale(0.015625)"/>
       <path id="DejaVuSans-73" d="M 2834 3397 
L 2834 2853 
Q 2591 2978 2328 3040 
Q 2066 3103 1784 3103 
Q 1356 3103 1142 2972 
Q 928 2841 928 2578 
Q 928 2378 1081 2264 
Q 1234 2150 1697 2047 
L 1894 2003 
Q 2506 1872 2764 1633 
Q 3022 1394 3022 966 
Q 3022 478 2636 193 
Q 2250 -91 1575 -91 
Q 1294 -91 989 -36 
Q 684 19 347 128 
L 347 722 
Q 666 556 975 473 
Q 1284 391 1588 391 
Q 1994 391 2212 530 
Q 2431 669 2431 922 
Q 2431 1156 2273 1281 
Q 2116 1406 1581 1522 
L 1381 1569 
Q 847 1681 609 1914 
Q 372 2147 372 2553 
Q 372 3047 722 3315 
Q 1072 3584 1716 3584 
Q 2034 3584 2315 3537 
Q 2597 3491 2834 3397 
z
" transform="scale(0.015625)"/>
       <path id="DejaVuSans-69" d="M 603 3500 
L 1178 3500 
L 1178 0 
L 603 0 
L 603 3500 
z
M 603 4863 
L 1178 4863 
L 1178 4134 
L 603 4134 
L 603 4863 
z
" transform="scale(0.015625)"/>
       <path id="DejaVuSans-74" d="M 1172 4494 
L 1172 3500 
L 2356 3500 
L 2356 3053 
L 1172 3053 
L 1172 1153 
Q 1172 725 1289 603 
Q 1406 481 1766 481 
L 2356 481 
L 2356 0 
L 1766 0 
Q 1100 0 847 248 
Q 594 497 594 1153 
L 594 3053 
L 172 3053 
L 172 3500 
L 594 3500 
L 594 4494 
L 1172 4494 
z
" transform="scale(0.015625)"/>
       <path id="DejaVuSans-6e" d="M 3513 2113 
L 3513 0 
L 2938 0 
L 2938 2094 
Q 2938 2591 2744 2837 
Q 2550 3084 2163 3084 
Q 1697 3084 1428 2787 
Q 1159 2491 1159 1978 
L 1159 0 
L 581 0 
L 581 3500 
L 1159 3500 
L 1159 2956 
Q 1366 3272 1645 3428 
Q 1925 3584 2291 3584 
Q 2894 3584 3203 3211 
Q 3513 2838 3513 2113 
z
" transform="scale(0.015625)"/>
       <path id="DejaVuSans-20" transform="scale(0.015625)"/>
       <path id="DejaVuSans-5b" d="M 550 4863 
L 1875 4863 
L 1875 4416 
L 1125 4416 
L 1125 -397 
L 1875 -397 
L 1875 -844 
L 550 -844 
L 550 4863 
z
" transform="scale(0.015625)"/>
       <path id="DejaVuSans-61" d="M 2194 1759 
Q 1497 1759 1228 1600 
Q 959 1441 959 1056 
Q 959 750 1161 570 
Q 1363 391 1709 391 
Q 2188 391 2477 730 
Q 2766 1069 2766 1631 
L 2766 1759 
L 2194 1759 
z
M 3341 1997 
L 3341 0 
L 2766 0 
L 2766 531 
Q 2569 213 2275 61 
Q 1981 -91 1556 -91 
Q 1019 -91 701 211 
Q 384 513 384 1019 
Q 384 1609 779 1909 
Q 1175 2209 1959 2209 
L 2766 2209 
L 2766 2266 
Q 2766 2663 2505 2880 
Q 2244 3097 1772 3097 
Q 1472 3097 1187 3025 
Q 903 2953 641 2809 
L 641 3341 
Q 956 3463 1253 3523 
Q 1550 3584 1831 3584 
Q 2591 3584 2966 3190 
Q 3341 2797 3341 1997 
z
" transform="scale(0.015625)"/>
       <path id="DejaVuSans-2e" d="M 684 794 
L 1344 794 
L 1344 0 
L 684 0 
L 684 794 
z
" transform="scale(0.015625)"/>
       <path id="DejaVuSans-75" d="M 544 1381 
L 544 3500 
L 1119 3500 
L 1119 1403 
Q 1119 906 1312 657 
Q 1506 409 1894 409 
Q 2359 409 2629 706 
Q 2900 1003 2900 1516 
L 2900 3500 
L 3475 3500 
L 3475 0 
L 2900 0 
L 2900 538 
Q 2691 219 2414 64 
Q 2138 -91 1772 -91 
Q 1169 -91 856 284 
Q 544 659 544 1381 
z
M 1991 3584 
L 1991 3584 
z
" transform="scale(0.015625)"/>
       <path id="DejaVuSans-5d" d="M 1947 4863 
L 1947 -844 
L 622 -844 
L 622 -397 
L 1369 -397 
L 1369 4416 
L 622 4416 
L 622 4863 
L 1947 4863 
z
" transform="scale(0.015625)"/>
      </defs>
      <use xlink:href="#DejaVuSans-Oblique-78" transform="translate(0 0.015625)"/>
      <use xlink:href="#DejaVuSans-2d" transform="translate(59.179688 0.015625)"/>
      <use xlink:href="#DejaVuSans-70" transform="translate(95.263672 0.015625)"/>
      <use xlink:href="#DejaVuSans-6f" transform="translate(158.740234 0.015625)"/>
      <use xlink:href="#DejaVuSans-73" transform="translate(219.921875 0.015625)"/>
      <use xlink:href="#DejaVuSans-69" transform="translate(272.021484 0.015625)"/>
      <use xlink:href="#DejaVuSans-74" transform="translate(299.804688 0.015625)"/>
      <use xlink:href="#DejaVuSans-69" transform="translate(339.013672 0.015625)"/>
      <use xlink:href="#DejaVuSans-6f" transform="translate(366.796875 0.015625)"/>
      <use xlink:href="#DejaVuSans-6e" transform="translate(427.978516 0.015625)"/>
      <use xlink:href="#DejaVuSans-20" transform="translate(491.357422 0.015625)"/>
      <use xlink:href="#DejaVuSans-5b" transform="translate(523.144531 0.015625)"/>
      <use xlink:href="#DejaVuSans-61" transform="translate(562.158203 0.015625)"/>
      <use xlink:href="#DejaVuSans-2e" transform="translate(623.4375 0.015625)"/>
      <use xlink:href="#DejaVuSans-75" transform="translate(655.224609 0.015625)"/>
      <use xlink:href="#DejaVuSans-2e" transform="translate(718.603516 0.015625)"/>
      <use xlink:href="#DejaVuSans-5d" transform="translate(750.390625 0.015625)"/>
     </g>
    </g>
   </g>
   <g id="matplotlib.axis_2">
    <g id="ytick_1">
     <g id="line2d_6">
      <defs>
       <path id="ma7175ab08d" d="M 0 0 
L -3.5 0 
" style="stroke: #000000; stroke-width: 0.8"/>
      </defs>
      <g>
       <use xlink:href="#ma7175ab08d" x="49.004687" y="266.268083" style="stroke: #000000; stroke-width: 0.8"/>
      </g>
     </g>
     <g id="text_7">
      <!-- −10 -->
      <g transform="translate(20.9 270.067302) scale(0.1 -0.1)">
       <use xlink:href="#DejaVuSans-2212"/>
       <use xlink:href="#DejaVuSans-31" transform="translate(83.789062 0)"/>
       <use xlink:href="#DejaVuSans-30" transform="translate(147.412109 0)"/>
      </g>
     </g>
    </g>
    <g id="ytick_2">
     <g id="line2d_7">
      <g>
       <use xlink:href="#ma7175ab08d" x="49.004687" y="210.821104" style="stroke: #000000; stroke-width: 0.8"/>
      </g>
     </g>
     <g id="text_8">
      <!-- −5 -->
      <g transform="translate(27.2625 214.620323) scale(0.1 -0.1)">
       <use xlink:href="#DejaVuSans-2212"/>
       <use xlink:href="#DejaVuSans-35" transform="translate(83.789062 0)"/>
      </g>
     </g>
    </g>
    <g id="ytick_3">
     <g id="line2d_8">
      <g>
       <use xlink:href="#ma7175ab08d" x="49.004687" y="155.374125" style="stroke: #000000; stroke-width: 0.8"/>
      </g>
     </g>
     <g id="text_9">
      <!-- 0 -->
      <g transform="translate(35.642187 159.173344) scale(0.1 -0.1)">
       <use xlink:href="#DejaVuSans-30"/>
      </g>
     </g>
    </g>
    <g id="ytick_4">
     <g id="line2d_9">
      <g>
       <use xlink:href="#ma7175ab08d" x="49.004687" y="99.927146" style="stroke: #000000; stroke-width: 0.8"/>
      </g>
     </g>
     <g id="text_10">
      <!-- 5 -->
      <g transform="translate(35.642187 103.726365) scale(0.1 -0.1)">
       <use xlink:href="#DejaVuSans-35"/>
      </g>
     </g>
    </g>
    <g id="ytick_5">
     <g id="line2d_10">
      <g>
       <use xlink:href="#ma7175ab08d" x="49.004687" y="44.480167" style="stroke: #000000; stroke-width: 0.8"/>
      </g>
     </g>
     <g id="text_11">
      <!-- 10 -->
      <g transform="translate(29.279687 48.279385) scale(0.1 -0.1)">
       <use xlink:href="#DejaVuSans-31"/>
       <use xlink:href="#DejaVuSans-30" transform="translate(63.623047 0)"/>
      </g>
     </g>
    </g>
    <g id="text_12">
     <!-- $y$-position [a.u.] -->
     <g transform="translate(14.8 194.874125) rotate(-90) scale(0.1 -0.1)">
      <defs>
       <path id="DejaVuSans-Oblique-79" d="M 1588 -325 
Q 1188 -997 936 -1164 
Q 684 -1331 294 -1331 
L -159 -1331 
L -63 -850 
L 269 -850 
Q 509 -850 678 -719 
Q 847 -588 1056 -206 
L 1234 128 
L 459 3500 
L 1069 3500 
L 1650 819 
L 3256 3500 
L 3859 3500 
L 1588 -325 
z
" transform="scale(0.015625)"/>
      </defs>
      <use xlink:href="#DejaVuSans-Oblique-79" transform="translate(0 0.015625)"/>
      <use xlink:href="#DejaVuSans-2d" transform="translate(59.179688 0.015625)"/>
      <use xlink:href="#DejaVuSans-70" transform="translate(95.263672 0.015625)"/>
      <use xlink:href="#DejaVuSans-6f" transform="translate(158.740234 0.015625)"/>
      <use xlink:href="#DejaVuSans-73" transform="translate(219.921875 0.015625)"/>
      <use xlink:href="#DejaVuSans-69" transform="translate(272.021484 0.015625)"/>
      <use xlink:href="#DejaVuSans-74" transform="translate(299.804688 0.015625)"/>
      <use xlink:href="#DejaVuSans-69" transform="translate(339.013672 0.015625)"/>
      <use xlink:href="#DejaVuSans-6f" transform="translate(366.796875 0.015625)"/>
      <use xlink:href="#DejaVuSans-6e" transform="translate(427.978516 0.015625)"/>
      <use xlink:href="#DejaVuSans-20" transform="translate(491.357422 0.015625)"/>
      <use xlink:href="#DejaVuSans-5b" transform="translate(523.144531 0.015625)"/>
      <use xlink:href="#DejaVuSans-61" transform="translate(562.158203 0.015625)"/>
      <use xlink:href="#DejaVuSans-2e" transform="translate(623.4375 0.015625)"/>
      <use xlink:href="#DejaVuSans-75" transform="translate(655.224609 0.015625)"/>
      <use xlink:href="#DejaVuSans-2e" transform="translate(718.603516 0.015625)"/>
      <use xlink:href="#DejaVuSans-5d" transform="translate(750.390625 0.015625)"/>
     </g>
    </g>
   </g>
   <g id="QuadContourSet_1">
    <path d="M 182.077438 155.374125 
L 182.077438 155.374125 
L 182.077438 155.374125 
L 182.077438 155.374125 
L 182.077438 155.374125 
L 182.077438 155.374125 
L 182.077438 155.374125 
L 182.077438 155.374125 
L 182.077438 155.374125 
L 182.077438 155.374125 
L 182.077438 155.374125 
L 182.077438 155.374125 
L 182.077438 155.374125 
L 182.077438 155.374125 
L 182.077438 155.374125 
L 182.077438 155.374125 
L 182.077438 155.374125 
L 182.077438 155.374125 
L 182.077438 155.374125 
L 182.077438 155.374125 
L 182.077438 155.374125 
L 182.077438 155.374125 
L 182.077438 155.374125 
L 182.077438 155.374125 
L 182.077438 155.374125 
L 182.077438 155.374125 
L 182.077438 155.374125 
L 182.077438 155.374125 
L 182.077438 155.374125 
L 182.077438 155.374125 
L 182.077438 155.374125 
L 182.077438 155.374125 
L 182.077438 155.374125 
L 182.077438 155.374125 
L 182.077438 155.374125 
L 182.077438 155.374125 
L 182.077438 155.374125 
L 182.077438 155.374125 
L 182.077438 155.374125 
L 182.077438 155.374125 
L 182.077438 155.374125 
L 182.077438 155.374125 
L 182.077438 155.374125 
L 182.077438 155.374125 
L 182.077438 155.374125 
L 182.077438 155.374125 
L 182.077438 155.374125 
L 182.077438 155.374125 
L 182.077438 155.374125 
L 182.077438 155.374125 
L 182.077438 155.374125 
L 182.077438 155.374125 
L 182.077438 155.374125 
L 182.077438 155.374125 
L 182.077438 155.374125 
L 182.077438 155.374125 
L 182.077438 155.374125 
L 182.077438 155.374125 
L 182.077438 155.374125 
L 182.077438 155.374125 
L 182.077438 155.374125 
L 182.077438 155.374125 
L 182.077438 155.374125 
L 182.077438 155.374125 
L 182.077438 155.374125 
L 182.077438 155.374125 
L 182.077438 155.374125 
L 182.077438 155.374125 
L 182.077438 155.374125 
L 182.077438 155.374125 
L 182.077438 155.374125 
L 182.077438 155.374125 
L 182.077438 155.374125 
L 182.077438 155.374125 
L 182.077438 155.374125 
L 182.077438 155.374125 
L 182.077438 155.374125 
L 182.077438 155.374125 
L 182.077438 155.374125 
L 182.077438 155.374125 
L 182.077438 155.374125 
L 182.077438 155.374125 
L 182.077438 155.374125 
L 182.077438 155.374125 
L 182.077438 155.374125 
L 182.077438 155.374125 
L 182.077438 155.374125 
L 182.077438 155.374125 
L 182.077438 155.374125 
L 182.077438 155.374125 
L 182.077438 155.374125 
L 182.077438 155.374125 
L 182.077438 155.374125 
L 182.077438 155.374125 
L 182.077438 155.374125 
L 182.077438 155.374125 
L 182.077438 155.374125 
L 182.077438 155.374125 
L 182.077438 155.374125 
L 182.077438 155.374125 
z
" clip-path="url(#p14381962b6)" style="fill: none; stroke: #000080; stroke-width: 1.5"/>
    <path d="M 167.110111 155.374125 
L 167.230526 157.268876 
L 167.589833 159.133139 
L 168.182252 160.936918 
L 168.998249 162.65119 
L 170.024695 164.248372 
L 171.245074 165.702763 
L 172.63975 166.990963 
L 174.186282 168.092243 
L 175.859785 168.988884 
L 177.633333 169.666459 
L 179.478389 170.114064 
L 181.365264 170.324499 
L 183.263598 170.294376 
L 185.142846 170.024181 
L 186.972771 169.518261 
L 188.723928 168.784756 
L 190.36814 167.83547 
L 191.878952 166.685676 
L 193.232054 165.353874 
L 194.405674 163.861495 
L 195.380928 162.232551 
L 196.142124 160.493252 
L 196.677014 158.671585 
L 196.976991 156.79686 
L 197.037229 154.899243 
L 196.856758 153.009266 
L 196.438482 151.157342 
L 195.789132 149.373267 
L 194.919156 147.685748 
L 193.842551 146.121938 
L 192.576641 144.706999 
L 191.141796 143.463698 
L 189.561101 142.41204 
L 187.859991 141.568947 
L 186.065838 140.947985 
L 184.20751 140.559144 
L 182.314909 140.408682 
L 180.418486 140.49902 
L 178.548757 140.828704 
L 176.735805 141.392429 
L 175.008802 142.181125 
L 173.395536 143.182101 
L 171.921966 144.379251 
L 170.6118 145.753313 
L 169.486121 147.282177 
L 168.563041 148.941244 
L 167.857413 150.703818 
L 167.38059 152.54154 
L 167.140245 154.424838 
L 167.110111 155.374125 
M 63.864889 155.374125 
L 64.102889 162.871628 
L 64.815931 170.338942 
L 66.001143 177.745997 
L 67.653754 185.062969 
L 69.767109 192.260394 
L 72.332698 199.309291 
L 75.34019 206.181277 
L 78.777475 212.848681 
L 82.630713 219.284654 
L 86.884388 225.463283 
L 91.521371 231.359687 
L 96.522992 236.950124 
L 101.869111 242.212083 
L 107.5382 247.124377 
L 113.507432 251.667225 
L 119.752771 255.822334 
L 126.24907 259.572974 
L 132.97017 262.904042 
L 139.889008 265.802125 
L 146.977723 268.255553 
L 154.207773 270.254448 
L 161.550044 271.79076 
L 168.974972 272.858303 
L 176.452658 273.452779 
L 183.952994 273.571794 
L 191.445777 273.214869 
L 198.900837 272.383441 
L 206.288156 271.080857 
L 213.577986 269.312363 
L 220.740975 267.085081 
L 227.74828 264.407977 
L 234.571684 261.291833 
L 241.183712 257.749196 
L 247.55774 253.79433 
L 253.668103 249.443161 
L 259.490194 244.713209 
L 265.000572 239.62352 
L 270.177048 234.194588 
L 274.998778 228.448275 
L 279.446346 222.407717 
L 283.501844 216.097239 
L 287.148942 209.54225 
L 290.372954 202.769146 
L 293.160898 195.805198 
L 295.501548 188.678449 
L 297.385479 181.417595 
L 298.805106 174.051873 
L 299.754711 166.610942 
L 300.230472 159.124765 
L 300.230472 151.623485 
L 299.754711 144.137308 
L 298.805106 136.696377 
L 297.385479 129.330655 
L 295.501548 122.069801 
L 293.160898 114.943052 
L 290.372954 107.979104 
L 287.148942 101.206 
L 283.501844 94.651011 
L 279.446346 88.340533 
L 274.998778 82.299975 
L 270.177048 76.553662 
L 265.000572 71.12473 
L 259.490194 66.035041 
L 253.668103 61.305089 
L 247.55774 56.95392 
L 241.183712 52.999054 
L 234.571684 49.456417 
L 227.74828 46.340273 
L 220.740975 43.663169 
L 213.577986 41.435887 
L 206.288156 39.667393 
L 198.900837 38.364809 
L 191.445777 37.533381 
L 183.952994 37.176456 
L 176.452658 37.295471 
L 168.974972 37.889947 
L 161.550044 38.95749 
L 154.207773 40.493802 
L 146.977723 42.492697 
L 139.889008 44.946125 
L 132.97017 47.844208 
L 126.24907 51.175276 
L 119.752771 54.925916 
L 113.507432 59.081025 
L 107.5382 63.623873 
L 101.869111 68.536167 
L 96.522992 73.798126 
L 91.521371 79.388563 
L 86.884388 85.284967 
L 82.630713 91.463596 
L 78.777475 97.899569 
L 75.34019 104.566973 
L 72.332698 111.438959 
L 69.767109 118.487856 
L 67.653754 125.685281 
L 66.001143 133.002253 
L 64.815931 140.409308 
L 64.102889 147.876622 
L 63.864889 155.374125 
M 178.64307 155.374125 
L 178.753146 154.51159 
L 179.076317 153.704347 
L 179.591869 153.00414 
L 180.266751 152.455855 
L 181.057704 152.094639 
L 181.914024 151.943647 
L 182.780819 152.012557 
L 183.602526 152.296953 
L 184.32647 152.778603 
L 184.906246 153.426633 
L 185.304688 154.199502 
L 185.496255 155.047668 
L 185.468666 155.91676 
L 185.223691 156.751068 
L 184.777033 157.49711 
L 184.157324 158.107064 
L 183.404289 158.541829 
L 182.566199 158.773536 
L 181.696779 158.787332 
L 180.851759 158.582332 
L 180.085309 158.171679 
L 179.446559 157.581694 
L 178.976456 156.850199 
L 178.705133 156.024083 
L 178.64307 155.374125 
M 152.890953 155.374125 
L 152.949714 153.523004 
L 153.125763 151.679336 
L 153.41839 149.850546 
L 153.826417 148.043998 
L 154.348201 146.266965 
L 154.981641 144.526604 
L 155.724186 142.829922 
L 156.572846 141.183751 
L 157.524204 139.59472 
L 158.574429 138.069227 
L 159.719293 136.613414 
L 160.954185 135.233144 
L 162.274133 133.933975 
L 163.673822 132.721138 
L 165.147615 131.599516 
L 166.689579 130.573626 
L 168.293505 129.6476 
L 169.952934 128.825164 
L 171.661183 128.109632 
L 173.411376 127.503885 
L 175.196463 127.010361 
L 177.009258 126.631048 
L 178.84246 126.367473 
L 180.688689 126.220698 
L 182.540509 126.191314 
L 184.390465 126.279438 
L 186.231108 126.484716 
L 188.055024 126.806322 
L 189.854872 127.24296 
L 191.623402 127.792873 
L 193.353494 128.453845 
L 195.038181 129.223216 
L 196.67068 130.097887 
L 198.244417 131.074337 
L 199.753056 132.148634 
L 201.190521 133.316451 
L 202.551024 134.573087 
L 203.829087 135.913482 
L 205.019565 137.332237 
L 206.117662 138.823641 
L 207.118958 140.381687 
L 208.01942 142.000103 
L 208.815424 143.672372 
L 209.503762 145.391759 
L 210.081665 147.151342 
L 210.546805 148.944035 
L 210.897308 150.76262 
L 211.131764 152.599773 
L 211.249229 154.448098 
L 211.249229 156.300152 
L 211.131764 158.148477 
L 210.897308 159.98563 
L 210.546805 161.804215 
L 210.081665 163.596908 
L 209.503762 165.356491 
L 208.815424 167.075878 
L 208.01942 168.748147 
L 207.118958 170.366563 
L 206.117662 171.924609 
L 205.019565 173.416013 
L 203.829087 174.834768 
L 202.551024 176.175163 
L 201.190521 177.431799 
L 199.753056 178.599616 
L 198.244417 179.673913 
L 196.67068 180.650363 
L 195.038181 181.525034 
L 193.353494 182.294405 
L 191.623402 182.955377 
L 189.854872 183.50529 
L 188.055024 183.941928 
L 186.231108 184.263534 
L 184.390465 184.468812 
L 182.540509 184.556936 
L 180.688689 184.527552 
L 178.84246 184.380777 
L 177.009258 184.117202 
L 175.196463 183.737889 
L 173.411376 183.244365 
L 171.661183 182.638618 
L 169.952934 181.923086 
L 168.293505 181.10065 
L 166.689579 180.174624 
L 165.147615 179.148734 
L 163.673822 178.027112 
L 162.274133 176.814275 
L 160.954185 175.515106 
L 159.719293 174.134836 
L 158.574429 172.679023 
L 157.524204 171.15353 
L 156.572846 169.564499 
L 155.724186 167.918328 
L 154.981641 166.221646 
L 154.348201 164.481285 
L 153.826417 162.704252 
L 153.41839 160.897704 
L 153.125763 159.068914 
L 152.949714 157.225246 
L 152.890953 155.374125 
L 152.890953 155.374125 
" clip-path="url(#p14381962b6)" style="fill: none; stroke: #0000ff; stroke-width: 1.5"/>
    <path d="M 172.283077 155.374125 
L 172.361874 156.614017 
L 172.596999 157.833959 
L 172.984667 159.014321 
L 173.518642 160.136111 
L 174.19033 161.181279 
L 174.988925 162.133008 
L 175.901577 162.975983 
L 176.913601 163.696642 
L 178.008713 164.283389 
L 179.169292 164.726782 
L 180.376665 165.019687 
L 181.611403 165.157392 
L 182.85364 165.13768 
L 184.083388 164.960869 
L 185.280859 164.629804 
L 186.426786 164.149811 
L 187.502731 163.528614 
L 188.49138 162.776209 
L 189.376827 161.904701 
L 190.144823 160.928114 
L 190.783013 159.862161 
L 191.281126 158.723994 
L 191.631149 157.531926 
L 191.827449 156.305138 
L 191.866867 155.06337 
L 191.74877 153.826602 
L 191.475058 152.614735 
L 191.050134 151.447267 
L 190.480837 150.342983 
L 189.776325 149.319653 
L 188.947936 148.393741 
L 188.008997 147.580147 
L 186.974618 146.89196 
L 185.861441 146.340254 
L 184.687378 145.933907 
L 183.471321 145.679457 
L 182.232835 145.580997 
L 180.991848 145.640113 
L 179.76833 145.855852 
L 178.581965 146.224744 
L 177.451844 146.740853 
L 176.396151 147.395874 
L 175.431872 148.179269 
L 174.574522 149.078431 
L 173.837897 150.078894 
L 173.233849 151.164559 
L 172.772098 152.317957 
L 172.460074 153.52053 
L 172.302796 154.752928 
L 172.283077 155.374125 
M 77.814682 155.374125 
L 78.024597 161.986878 
L 78.653496 168.573003 
L 79.698846 175.105981 
L 81.156439 181.559506 
L 83.020405 187.907592 
L 85.283239 194.124677 
L 87.935829 200.185727 
L 90.967494 206.066336 
L 94.366026 211.742826 
L 98.117742 217.192339 
L 102.207533 222.392932 
L 106.618933 227.323664 
L 111.334177 231.964681 
L 116.334279 236.297294 
L 121.599106 240.304058 
L 127.107458 243.96884 
L 132.837154 247.276882 
L 138.765124 250.214863 
L 144.867497 252.770955 
L 151.119701 254.934864 
L 157.496561 256.697877 
L 163.9724 258.052895 
L 170.521142 258.994462 
L 177.116416 259.518786 
L 183.731667 259.623757 
L 190.340257 259.308951 
L 196.915575 258.575636 
L 203.431145 257.426765 
L 209.860732 255.866964 
L 216.178445 253.902514 
L 222.358845 251.541325 
L 228.377046 248.792905 
L 234.208815 245.66832 
L 239.83067 242.180152 
L 245.219972 238.342447 
L 250.355022 234.170658 
L 255.215142 229.681583 
L 259.780763 224.893298 
L 264.033499 219.825084 
L 267.956228 214.497349 
L 271.533153 208.931545 
L 274.749871 203.150085 
L 277.59343 197.176247 
L 280.05238 191.034088 
L 282.116819 184.748338 
L 283.778435 178.344308 
L 285.030537 171.847786 
L 285.868083 165.28493 
L 286.287701 158.682167 
L 286.287701 152.066083 
L 285.868083 145.46332 
L 285.030537 138.900464 
L 283.778435 132.403942 
L 282.116819 125.999912 
L 280.05238 119.714162 
L 277.59343 113.572003 
L 274.749871 107.598165 
L 271.533153 101.816705 
L 267.956228 96.250901 
L 264.033499 90.923166 
L 259.780763 85.854952 
L 255.215142 81.066667 
L 250.355022 76.577592 
L 245.219972 72.405803 
L 239.83067 68.568098 
L 234.208815 65.07993 
L 228.377046 61.955345 
L 222.358845 59.206925 
L 216.178445 56.845736 
L 209.860732 54.881286 
L 203.431145 53.321485 
L 196.915575 52.172614 
L 190.340257 51.439299 
L 183.731667 51.124493 
L 177.116416 51.229464 
L 170.521142 51.753788 
L 163.9724 52.695355 
L 157.496561 54.050373 
L 151.119701 55.813386 
L 144.867497 57.977295 
L 138.765124 60.533387 
L 132.837154 63.471368 
L 127.107458 66.77941 
L 121.599106 70.444192 
L 116.334279 74.450956 
L 111.334177 78.783569 
L 106.618933 83.424586 
L 102.207533 88.355318 
L 98.117742 93.555911 
L 94.366026 99.005424 
L 90.967494 104.681914 
L 87.935829 110.562523 
L 85.283239 116.623573 
L 83.020405 122.840658 
L 81.156439 129.188744 
L 79.698846 135.642269 
L 78.653496 142.175247 
L 78.024597 148.761372 
L 77.814682 155.374125 
M 174.775363 155.374125 
L 174.907321 153.992198 
L 175.298426 152.660218 
L 175.934542 151.426325 
L 176.792678 150.335117 
L 177.841819 149.426031 
L 179.044046 148.731924 
L 180.355908 148.277885 
L 181.729991 148.080321 
L 183.116631 148.146375 
L 184.465712 148.473659 
L 185.728475 149.050343 
L 186.85928 149.855585 
L 187.817256 150.860282 
L 188.56778 152.028121 
L 189.083727 153.316893 
L 189.346448 154.680019 
L 189.346448 156.068231 
L 189.083727 157.431357 
L 188.56778 158.720129 
L 187.817256 159.887968 
L 186.85928 160.892665 
L 185.728475 161.697907 
L 184.465712 162.274591 
L 183.116631 162.601875 
L 181.729991 162.667929 
L 180.355908 162.470365 
L 179.044046 162.016326 
L 177.841819 161.322219 
L 176.792678 160.413133 
L 175.934542 159.321925 
L 175.298426 158.088032 
L 174.907321 156.756052 
L 174.775363 155.374125 
M 149.537231 155.374125 
L 149.602745 153.310298 
L 149.799023 151.25478 
L 150.125275 149.21585 
L 150.580187 147.201718 
L 151.161927 145.220492 
L 151.868154 143.280152 
L 152.696022 141.38851 
L 153.642199 139.553183 
L 154.702874 137.781561 
L 155.873777 136.080779 
L 157.150193 134.457684 
L 158.526983 132.918812 
L 159.998601 131.470359 
L 161.559124 130.118159 
L 163.202266 128.867655 
L 164.921412 127.723884 
L 166.709639 126.691451 
L 168.559747 125.774512 
L 170.464286 124.976761 
L 172.415587 124.301409 
L 174.405793 123.751176 
L 176.42689 123.328277 
L 178.47074 123.034416 
L 180.529112 122.870776 
L 182.593719 122.838015 
L 184.656248 122.936265 
L 186.708392 123.165131 
L 188.741889 123.523691 
L 190.748551 124.010502 
L 192.720297 124.623603 
L 194.649188 125.360526 
L 196.527457 126.218303 
L 198.347541 127.19348 
L 200.102111 128.28213 
L 201.784102 129.47987 
L 203.386741 130.781878 
L 204.903575 132.18291 
L 206.328497 133.677324 
L 207.655768 135.259104 
L 208.880044 136.92188 
L 209.996395 138.658957 
L 211.000327 140.463339 
L 211.887796 142.327763 
L 212.65523 144.244719 
L 213.299537 146.206489 
L 213.818124 148.205175 
L 214.208903 150.232727 
L 214.4703 152.280982 
L 214.601261 154.341691 
L 214.601261 156.406559 
L 214.4703 158.467268 
L 214.208903 160.515523 
L 213.818124 162.543075 
L 213.299537 164.541761 
L 212.65523 166.503531 
L 211.887796 168.420487 
L 211.000327 170.284911 
L 209.996395 172.089293 
L 208.880044 173.82637 
L 207.655768 175.489146 
L 206.328497 177.070926 
L 204.903575 178.56534 
L 203.386741 179.966372 
L 201.784102 181.26838 
L 200.102111 182.46612 
L 198.347541 183.55477 
L 196.527457 184.529947 
L 194.649188 185.387724 
L 192.720297 186.124647 
L 190.748551 186.737748 
L 188.741889 187.224559 
L 186.708392 187.583119 
L 184.656248 187.811985 
L 182.593719 187.910235 
L 180.529112 187.877474 
L 178.47074 187.713834 
L 176.42689 187.419973 
L 174.405793 186.997074 
L 172.415587 186.446841 
L 170.464286 185.771489 
L 168.559747 184.973738 
L 166.709639 184.056799 
L 164.921412 183.024366 
L 163.202266 181.880595 
L 161.559124 180.630091 
L 159.998601 179.277891 
L 158.526983 177.829438 
L 157.150193 176.290566 
L 155.873777 174.667471 
L 154.702874 172.966689 
L 153.642199 171.195067 
L 152.696022 169.35974 
L 151.868154 167.468098 
L 151.161927 165.527758 
L 150.580187 163.546532 
L 150.125275 161.5324 
L 149.799023 159.49347 
L 149.602745 157.437952 
L 149.537231 155.374125 
L 149.537231 155.374125 
" clip-path="url(#p14381962b6)" style="fill: none; stroke: #0080ff; stroke-width: 1.5"/>
    <path d="M 86.979386 155.374125 
L 87.17085 161.405616 
L 87.744468 167.412821 
L 88.697932 173.37155 
L 90.027402 179.257809 
L 91.727526 185.047898 
L 93.791456 190.7185 
L 96.210883 196.246784 
L 98.976065 201.610487 
L 102.075866 206.788013 
L 105.497805 211.758514 
L 109.228104 216.501974 
L 113.251741 220.999294 
L 117.552515 225.232365 
L 122.113108 229.184141 
L 126.915156 232.838711 
L 131.939323 236.181358 
L 137.165379 239.198622 
L 142.572279 241.878355 
L 148.138253 244.209766 
L 153.840889 246.183467 
L 159.657222 247.791511 
L 165.563834 249.027423 
L 171.536941 249.886226 
L 177.55249 250.364462 
L 183.58626 250.460206 
L 189.613954 250.173072 
L 195.611301 249.504215 
L 201.554153 248.45633 
L 207.418578 247.033636 
L 213.180964 245.241861 
L 218.818106 243.088221 
L 224.307307 240.581387 
L 229.626463 237.731453 
L 234.754156 234.549896 
L 239.669739 231.049525 
L 244.353417 227.244437 
L 248.786333 223.149952 
L 252.950635 218.782558 
L 256.829555 214.15984 
L 260.407475 209.300413 
L 263.669988 204.223844 
L 266.603957 198.950574 
L 269.197567 193.501838 
L 271.440375 187.899574 
L 273.32335 182.166342 
L 274.83891 176.325227 
L 275.980952 170.39975 
L 276.744878 164.413769 
L 277.127611 158.39139 
L 277.127611 152.35686 
L 276.744878 146.334481 
L 275.980952 140.3485 
L 274.83891 134.423023 
L 273.32335 128.581908 
L 271.440375 122.848676 
L 269.197567 117.246412 
L 266.603957 111.797676 
L 263.669988 106.524406 
L 260.407475 101.447837 
L 256.829555 96.58841 
L 252.950635 91.965692 
L 248.786333 87.598298 
L 244.353417 83.503813 
L 239.669739 79.698725 
L 234.754156 76.198354 
L 229.626463 73.016797 
L 224.307307 70.166863 
L 218.818106 67.660029 
L 213.180964 65.506389 
L 207.418578 63.714614 
L 201.554153 62.29192 
L 195.611301 61.244035 
L 189.613954 60.575178 
L 183.58626 60.288044 
L 177.55249 60.383788 
L 171.536941 60.862024 
L 165.563834 61.720827 
L 159.657222 62.956739 
L 153.840889 64.564783 
L 148.138253 66.538484 
L 142.572279 68.869895 
L 137.165379 71.549628 
L 131.939323 74.566892 
L 126.915156 77.909539 
L 122.113108 81.564109 
L 117.552515 85.515885 
L 113.251741 89.748956 
L 109.228104 94.246276 
L 105.497805 98.989736 
L 102.075866 103.960237 
L 98.976065 109.137763 
L 96.210883 114.501466 
L 93.791456 120.02975 
L 91.727526 125.700352 
L 90.027402 131.490441 
L 88.697932 137.3767 
L 87.744468 143.335429 
L 87.17085 149.342634 
L 86.979386 155.374125 
M 146.607648 155.374125 
L 146.679061 153.124492 
L 146.893009 150.883917 
L 147.248634 148.661423 
L 147.744501 146.465959 
L 148.378615 144.306364 
L 149.148423 142.191336 
L 150.050824 140.12939 
L 151.082184 138.128829 
L 152.238352 136.197709 
L 153.514671 134.343806 
L 154.906003 132.574584 
L 156.406744 130.897168 
L 158.010852 129.318312 
L 159.711867 127.844373 
L 161.502941 126.481288 
L 163.376861 125.234543 
L 165.326082 124.10916 
L 167.342755 123.10967 
L 169.418759 122.240097 
L 171.545735 121.503944 
L 173.715118 120.904173 
L 175.918173 120.443201 
L 178.14603 120.122884 
L 180.389717 119.944511 
L 182.6402 119.9088 
L 184.888417 120.015896 
L 187.125315 120.265367 
L 189.341887 120.656208 
L 191.529208 121.186847 
L 193.678469 121.855145 
L 195.781018 122.658412 
L 197.828387 123.593415 
L 199.812332 124.656386 
L 201.724866 125.843048 
L 203.558286 127.14862 
L 205.30521 128.567847 
L 206.958604 130.095013 
L 208.511811 131.723969 
L 209.958575 133.448156 
L 211.293073 135.260631 
L 212.509929 137.154096 
L 213.604244 139.120927 
L 214.571612 141.153203 
L 215.408137 143.242743 
L 216.110451 145.381131 
L 216.675727 147.559757 
L 217.101687 149.769849 
L 217.386617 152.002507 
L 217.529369 154.248742 
L 217.529369 156.499508 
L 217.386617 158.745743 
L 217.101687 160.978401 
L 216.675727 163.188493 
L 216.110451 165.367119 
L 215.408137 167.505507 
L 214.571612 169.595047 
L 213.604244 171.627323 
L 212.509929 173.594154 
L 211.293073 175.487619 
L 209.958575 177.300094 
L 208.511811 179.024281 
L 206.958604 180.653237 
L 205.30521 182.180403 
L 203.558286 183.59963 
L 201.724866 184.905202 
L 199.812332 186.091864 
L 197.828387 187.154835 
L 195.781018 188.089838 
L 193.678469 188.893105 
L 191.529208 189.561403 
L 189.341887 190.092042 
L 187.125315 190.482883 
L 184.888417 190.732354 
L 182.6402 190.83945 
L 180.389717 190.803739 
L 178.14603 190.625366 
L 175.918173 190.305049 
L 173.715118 189.844077 
L 171.545735 189.244306 
L 169.418759 188.508153 
L 167.342755 187.63858 
L 165.326082 186.63909 
L 163.376861 185.513707 
L 161.502941 184.266962 
L 159.711867 182.903877 
L 158.010852 181.429938 
L 156.406744 179.851082 
L 154.906003 178.173666 
L 153.514671 176.404444 
L 152.238352 174.550541 
L 151.082184 172.619421 
L 150.050824 170.61886 
L 149.148423 168.556914 
L 148.378615 166.441886 
L 147.744501 164.282291 
L 147.248634 162.086827 
L 146.893009 159.864333 
L 146.679061 157.623758 
L 146.607648 155.374125 
L 146.607648 155.374125 
" clip-path="url(#p14381962b6)" style="fill: none; stroke: #16ffe1; stroke-width: 1.5"/>
    <path d="M 94.283957 155.374125 
L 94.460714 160.942332 
L 94.990272 166.488117 
L 95.870499 171.98915 
L 97.097852 177.423281 
L 98.667387 182.768627 
L 100.572785 188.003666 
L 102.806374 193.107316 
L 105.359159 198.059029 
L 108.220862 202.838864 
L 111.379959 207.427576 
L 114.82373 211.806687 
L 118.538307 215.958563 
L 122.508735 219.866488 
L 126.719024 223.514725 
L 131.152223 226.888583 
L 135.790479 229.974478 
L 140.615116 232.759984 
L 145.606708 235.233884 
L 150.745154 237.386217 
L 156.009764 239.208317 
L 161.37934 240.692845 
L 166.83226 241.833826 
L 172.346566 242.626663 
L 177.900056 243.068166 
L 183.470366 243.156555 
L 189.035067 242.891476 
L 194.571753 242.273995 
L 200.058128 241.306599 
L 205.472101 239.993183 
L 210.791873 238.339036 
L 215.996021 236.350819 
L 221.063591 234.036537 
L 225.974178 231.40551 
L 230.708008 228.468331 
L 235.24602 225.236827 
L 239.569941 221.724011 
L 243.66236 217.944027 
L 247.506798 213.912096 
L 251.087775 209.644454 
L 254.390872 205.158284 
L 257.402788 200.471651 
L 260.111396 195.603426 
L 262.505788 190.573212 
L 264.576324 185.401264 
L 266.314666 180.108407 
L 267.713814 174.715954 
L 268.768135 169.245618 
L 269.473383 163.719426 
L 269.826718 158.159631 
L 269.826718 152.588619 
L 269.473383 147.028824 
L 268.768135 141.502632 
L 267.713814 136.032296 
L 266.314666 130.639843 
L 264.576324 125.346986 
L 262.505788 120.175038 
L 260.111396 115.144824 
L 257.402788 110.276599 
L 254.390872 105.589966 
L 251.087775 101.103796 
L 247.506798 96.836154 
L 243.66236 92.804223 
L 239.569941 89.024239 
L 235.24602 85.511423 
L 230.708008 82.279919 
L 225.974178 79.34274 
L 221.063591 76.711713 
L 215.996021 74.397431 
L 210.791873 72.409214 
L 205.472101 70.755067 
L 200.058128 69.441651 
L 194.571753 68.474255 
L 189.035067 67.856774 
L 183.470366 67.591695 
L 177.900056 67.680084 
L 172.346566 68.121587 
L 166.83226 68.914424 
L 161.37934 70.055405 
L 156.009764 71.539933 
L 150.745154 73.362033 
L 145.606708 75.514366 
L 140.615116 77.988266 
L 135.790479 80.773772 
L 131.152223 83.859667 
L 126.719024 87.233525 
L 122.508735 90.881762 
L 118.538307 94.789687 
L 114.82373 98.941563 
L 111.379959 103.320674 
L 108.220862 107.909386 
L 105.359159 112.689221 
L 102.806374 117.640934 
L 100.572785 122.744584 
L 98.667387 127.979623 
L 97.097852 133.324969 
L 95.870499 138.7591 
L 94.990272 144.260133 
L 94.460714 149.805918 
L 94.283957 155.374125 
M 143.733619 155.374125 
L 143.810818 152.94221 
L 144.042102 150.520087 
L 144.426542 148.11751 
L 144.962588 145.744152 
L 145.648083 143.409571 
L 146.480266 141.123167 
L 147.455786 138.894147 
L 148.570716 136.731486 
L 149.820565 134.643892 
L 151.200301 132.639771 
L 152.704369 130.727194 
L 154.326711 128.913861 
L 156.060796 127.207074 
L 157.899641 125.613706 
L 159.835841 124.140173 
L 161.8616 122.792407 
L 163.968761 121.575837 
L 166.14884 120.495361 
L 168.393057 119.555329 
L 170.692377 118.759527 
L 173.03754 118.111159 
L 175.419103 117.612835 
L 177.827478 117.266563 
L 180.252965 117.073737 
L 182.685799 117.035133 
L 185.116184 117.150906 
L 187.534332 117.420591 
L 189.930507 117.843102 
L 192.295061 118.416736 
L 194.618472 119.139185 
L 196.891385 120.007539 
L 199.104647 121.018302 
L 201.249347 122.167404 
L 203.316848 123.450218 
L 205.298826 124.861577 
L 207.187299 126.395801 
L 208.974663 128.046709 
L 210.653722 129.807656 
L 212.217715 131.671549 
L 213.660343 133.630885 
L 214.975798 135.677772 
L 216.158783 137.80397 
L 217.204534 140.000917 
L 218.108841 142.259767 
L 218.868062 144.571423 
L 219.47914 146.926578 
L 219.939615 149.315748 
L 220.247632 151.729313 
L 220.401952 154.157555 
L 220.401952 156.590695 
L 220.247632 159.018937 
L 219.939615 161.432502 
L 219.47914 163.821672 
L 218.868062 166.176827 
L 218.108841 168.488483 
L 217.204534 170.747333 
L 216.158783 172.94428 
L 214.975798 175.070478 
L 213.660343 177.117365 
L 212.217715 179.076701 
L 210.653722 180.940594 
L 208.974663 182.701541 
L 207.187299 184.352449 
L 205.298826 185.886673 
L 203.316848 187.298032 
L 201.249347 188.580846 
L 199.104647 189.729948 
L 196.891385 190.740711 
L 194.618472 191.609065 
L 192.295061 192.331514 
L 189.930507 192.905148 
L 187.534332 193.327659 
L 185.116184 193.597344 
L 182.685799 193.713117 
L 180.252965 193.674513 
L 177.827478 193.481687 
L 175.419103 193.135415 
L 173.03754 192.637091 
L 170.692377 191.988723 
L 168.393057 191.192921 
L 166.14884 190.252889 
L 163.968761 189.172413 
L 161.8616 187.955843 
L 159.835841 186.608077 
L 157.899641 185.134544 
L 156.060796 183.541176 
L 154.326711 181.834389 
L 152.704369 180.021056 
L 151.200301 178.108479 
L 149.820565 176.104358 
L 148.570716 174.016764 
L 147.455786 171.854103 
L 146.480266 169.625083 
L 145.648083 167.338679 
L 144.962588 165.004098 
L 144.426542 162.63074 
L 144.042102 160.228163 
L 143.810818 157.80604 
L 143.733619 155.374125 
L 143.733619 155.374125 
" clip-path="url(#p14381962b6)" style="fill: none; stroke: #7dff7a; stroke-width: 1.5"/>
    <path d="M 100.770625 155.374125 
L 100.934322 160.530922 
L 101.424753 165.666954 
L 102.239945 170.761541 
L 103.376614 175.794167 
L 104.830183 180.74457 
L 106.5948 185.592815 
L 108.663358 190.31938 
L 111.02753 194.905232 
L 113.677794 199.331907 
L 116.603479 203.581579 
L 119.792805 207.637137 
L 123.23293 211.48225 
L 126.91 215.101436 
L 130.80921 218.48012 
L 134.914859 221.6047 
L 139.210415 224.462592 
L 143.678582 227.042289 
L 148.301367 229.333404 
L 153.060156 231.32671 
L 157.935788 233.014183 
L 162.90863 234.389026 
L 167.958658 235.445705 
L 173.065537 236.179963 
L 178.208704 236.588845 
L 183.367449 236.670704 
L 188.520999 236.42521 
L 193.648604 235.853352 
L 198.729615 234.957432 
L 203.743574 233.741059 
L 208.670291 232.20913 
L 213.489929 230.367813 
L 218.183079 228.224523 
L 222.730844 225.787891 
L 227.114913 223.067726 
L 231.317631 220.074984 
L 235.322077 216.821714 
L 239.112125 213.321017 
L 242.672515 209.586987 
L 245.98891 205.634662 
L 249.047955 201.479955 
L 251.837335 197.139597 
L 254.345815 192.631063 
L 256.563297 187.972509 
L 258.48085 183.182693 
L 260.090753 178.280901 
L 261.386525 173.286872 
L 262.362947 168.220715 
L 263.016087 163.102829 
L 263.343316 157.953822 
L 263.343316 152.794428 
L 263.016087 147.645421 
L 262.362947 142.527535 
L 261.386525 137.461378 
L 260.090753 132.467349 
L 258.48085 127.565557 
L 256.563297 122.775741 
L 254.345815 118.117187 
L 251.837335 113.608653 
L 249.047955 109.268295 
L 245.98891 105.113588 
L 242.672515 101.161263 
L 239.112125 97.427233 
L 235.322077 93.926536 
L 231.317631 90.673266 
L 227.114913 87.680524 
L 222.730844 84.960359 
L 218.183079 82.523727 
L 213.489929 80.380437 
L 208.670291 78.53912 
L 203.743574 77.007191 
L 198.729615 75.790818 
L 193.648604 74.894898 
L 188.520999 74.32304 
L 183.367449 74.077546 
L 178.208704 74.159405 
L 173.065537 74.568287 
L 167.958658 75.302545 
L 162.90863 76.359224 
L 157.935788 77.734067 
L 153.060156 79.42154 
L 148.301367 81.414846 
L 143.678582 83.705961 
L 139.210415 86.285658 
L 134.914859 89.14355 
L 130.80921 92.26813 
L 126.91 95.646814 
L 123.23293 99.266 
L 119.792805 103.111113 
L 116.603479 107.166671 
L 113.677794 111.416343 
L 111.02753 115.843018 
L 108.663358 120.42887 
L 106.5948 125.155435 
L 104.830183 130.00368 
L 103.376614 134.954083 
L 102.239945 139.986709 
L 101.424753 145.081296 
L 100.934322 150.217328 
L 100.770625 155.374125 
M 140.692593 155.374125 
L 140.775914 152.749336 
L 141.025542 150.135116 
L 141.440471 147.541992 
L 142.019031 144.980405 
L 142.758892 142.460669 
L 143.657075 139.992932 
L 144.709963 137.587129 
L 145.913317 135.252949 
L 147.262291 132.999789 
L 148.751453 130.836723 
L 150.374808 128.77246 
L 152.125817 126.815313 
L 153.997431 124.973162 
L 155.982114 123.253424 
L 158.071873 121.663026 
L 160.258294 120.20837 
L 162.532573 118.895315 
L 164.885552 117.729147 
L 167.307757 116.714561 
L 169.789434 115.855644 
L 172.320591 115.155855 
L 174.891035 114.618009 
L 177.490416 114.244275 
L 180.108267 114.036156 
L 182.734048 113.99449 
L 185.357185 114.119445 
L 187.967115 114.410519 
L 190.55333 114.866538 
L 193.105415 115.485667 
L 195.613094 116.265413 
L 198.066271 117.202636 
L 200.455065 118.293562 
L 202.76986 119.533799 
L 205.001333 120.918351 
L 207.1405 122.441645 
L 209.178747 124.097547 
L 211.107867 125.879388 
L 212.920091 127.779994 
L 214.608123 129.791712 
L 216.165165 131.906441 
L 217.584948 134.115666 
L 218.861754 136.410492 
L 219.990444 138.781677 
L 220.96647 141.219675 
L 221.785905 143.714667 
L 222.445448 146.256608 
L 222.942442 148.835262 
L 223.274888 151.440245 
L 223.441446 154.061069 
L 223.441446 156.687181 
L 223.274888 159.308005 
L 222.942442 161.912988 
L 222.445448 164.491642 
L 221.785905 167.033583 
L 220.96647 169.528575 
L 219.990444 171.966573 
L 218.861754 174.337758 
L 217.584948 176.632584 
L 216.165165 178.841809 
L 214.608123 180.956538 
L 212.920091 182.968256 
L 211.107867 184.868862 
L 209.178747 186.650703 
L 207.1405 188.306605 
L 205.001333 189.829899 
L 202.76986 191.214451 
L 200.455065 192.454688 
L 198.066271 193.545614 
L 195.613094 194.482837 
L 193.105415 195.262583 
L 190.55333 195.881712 
L 187.967115 196.337731 
L 185.357185 196.628805 
L 182.734048 196.75376 
L 180.108267 196.712094 
L 177.490416 196.503975 
L 174.891035 196.130241 
L 172.320591 195.592395 
L 169.789434 194.892606 
L 167.307757 194.033689 
L 164.885552 193.019103 
L 162.532573 191.852935 
L 160.258294 190.53988 
L 158.071873 189.085224 
L 155.982114 187.494826 
L 153.997431 185.775088 
L 152.125817 183.932937 
L 150.374808 181.97579 
L 148.751453 179.911527 
L 147.262291 177.748461 
L 145.913317 175.495301 
L 144.709963 173.161121 
L 143.657075 170.755318 
L 142.758892 168.287581 
L 142.019031 165.767845 
L 141.440471 163.206258 
L 141.025542 160.613134 
L 140.775914 157.998914 
L 140.692593 155.374125 
L 140.692593 155.374125 
" clip-path="url(#p14381962b6)" style="fill: none; stroke: #e4ff13; stroke-width: 1.5"/>
    <path d="M 107.107279 155.374125 
L 107.258219 160.129026 
L 107.710428 164.864781 
L 108.462088 169.562321 
L 109.51017 174.202729 
L 110.850456 178.767322 
L 112.477547 183.237718 
L 114.384892 187.595918 
L 116.564812 191.824371 
L 119.008527 195.906053 
L 121.706199 199.824526 
L 124.646964 203.564014 
L 127.818982 207.109458 
L 131.20948 210.446582 
L 134.804804 213.561948 
L 138.590479 216.443013 
L 142.551261 219.078175 
L 146.6712 221.456823 
L 150.933708 223.56938 
L 155.321621 225.407338 
L 159.81727 226.963297 
L 164.402553 228.230992 
L 169.059006 229.205318 
L 173.76788 229.882352 
L 178.510214 230.259368 
L 183.266911 230.334847 
L 188.018819 230.108485 
L 192.746804 229.581195 
L 197.431826 228.755099 
L 202.055022 227.633524 
L 206.597775 226.220986 
L 211.041793 224.523172 
L 215.369182 222.54692 
L 219.562517 220.300187 
L 223.604913 217.792019 
L 227.480092 215.032516 
L 231.172451 212.03279 
L 234.667121 208.80492 
L 237.950031 205.361903 
L 241.007963 201.717602 
L 243.828601 197.886693 
L 246.40059 193.8846 
L 248.713572 189.72744 
L 250.758234 185.431951 
L 252.526342 181.015429 
L 254.010778 176.495659 
L 255.205563 171.890841 
L 256.105888 167.219515 
L 256.708125 162.500492 
L 257.009852 157.752773 
L 257.009852 152.995477 
L 256.708125 148.247758 
L 256.105888 143.528735 
L 255.205563 138.857409 
L 254.010778 134.252591 
L 252.526342 129.732821 
L 250.758234 125.316299 
L 248.713572 121.02081 
L 246.40059 116.86365 
L 243.828601 112.861557 
L 241.007963 109.030648 
L 237.950031 105.386347 
L 234.667121 101.94333 
L 231.172451 98.71546 
L 227.480092 95.715734 
L 223.604913 92.956231 
L 219.562517 90.448063 
L 215.369182 88.20133 
L 211.041793 86.225078 
L 206.597775 84.527264 
L 202.055022 83.114726 
L 197.431826 81.993151 
L 192.746804 81.167055 
L 188.018819 80.639765 
L 183.266911 80.413403 
L 178.510214 80.488882 
L 173.76788 80.865898 
L 169.059006 81.542932 
L 164.402553 82.517258 
L 159.81727 83.784953 
L 155.321621 85.340912 
L 150.933708 87.17887 
L 146.6712 89.291427 
L 142.551261 91.670075 
L 138.590479 94.305237 
L 134.804804 97.186302 
L 131.20948 100.301668 
L 127.818982 103.638792 
L 124.646964 107.184236 
L 121.706199 110.923724 
L 119.008527 114.842197 
L 116.564812 118.923879 
L 114.384892 123.152332 
L 112.477547 127.510532 
L 110.850456 131.980928 
L 109.51017 136.545521 
L 108.462088 141.185929 
L 107.710428 145.883469 
L 107.258219 150.619224 
L 107.107279 155.374125 
M 137.168176 155.374125 
L 137.258593 152.525804 
L 137.529479 149.688951 
L 137.979745 146.874991 
L 138.607576 144.095254 
L 139.410445 141.360933 
L 140.385119 138.683039 
L 141.527673 136.072353 
L 142.833507 133.539389 
L 144.297363 131.094345 
L 145.913345 128.747068 
L 147.674947 126.507008 
L 149.575076 124.383186 
L 151.606081 122.384154 
L 153.759783 120.51796 
L 156.02751 118.79212 
L 158.400131 117.213583 
L 160.868092 115.788705 
L 163.421456 114.523224 
L 166.049941 113.422234 
L 168.742963 112.49017 
L 171.489678 111.730785 
L 174.279026 111.147136 
L 177.099776 110.741573 
L 179.940569 110.51573 
L 182.789966 110.470516 
L 185.636495 110.606113 
L 188.468692 110.921975 
L 191.275154 111.41683 
L 194.04458 112.088685 
L 196.765818 112.934836 
L 199.427912 113.951875 
L 202.020141 115.135706 
L 204.532069 116.481563 
L 206.953579 117.984028 
L 209.274922 119.637048 
L 211.48675 121.43397 
L 213.580157 123.367556 
L 215.546714 125.430021 
L 217.378502 127.613061 
L 219.068145 129.907885 
L 220.608839 132.305253 
L 221.994381 134.79551 
L 223.219192 137.368631 
L 224.27834 140.014253 
L 225.167559 142.721724 
L 225.883269 145.480142 
L 226.422589 148.278399 
L 226.783347 151.105228 
L 226.964089 153.949247 
L 226.964089 156.799003 
L 226.783347 159.643022 
L 226.422589 162.469851 
L 225.883269 165.268108 
L 225.167559 168.026526 
L 224.27834 170.733997 
L 223.219192 173.379619 
L 221.994381 175.95274 
L 220.608839 178.442997 
L 219.068145 180.840365 
L 217.378502 183.135189 
L 215.546714 185.318229 
L 213.580157 187.380694 
L 211.48675 189.31428 
L 209.274922 191.111202 
L 206.953579 192.764222 
L 204.532069 194.266687 
L 202.020141 195.612544 
L 199.427912 196.796375 
L 196.765818 197.813414 
L 194.04458 198.659565 
L 191.275154 199.33142 
L 188.468692 199.826275 
L 185.636495 200.142137 
L 182.789966 200.277734 
L 179.940569 200.23252 
L 177.099776 200.006677 
L 174.279026 199.601114 
L 171.489678 199.017465 
L 168.742963 198.25808 
L 166.049941 197.326016 
L 163.421456 196.225026 
L 160.868092 194.959545 
L 158.400131 193.534667 
L 156.02751 191.95613 
L 153.759783 190.23029 
L 151.606081 188.364096 
L 149.575076 186.365064 
L 147.674947 184.241242 
L 145.913345 182.001182 
L 144.297363 179.653905 
L 142.833507 177.208861 
L 141.527673 174.675897 
L 140.385119 172.065211 
L 139.410445 169.387317 
L 138.607576 166.652996 
L 137.979745 163.873259 
L 137.529479 161.059299 
L 137.258593 158.222446 
L 137.168176 155.374125 
L 137.168176 155.374125 
" clip-path="url(#p14381962b6)" style="fill: none; stroke: #ff9400; stroke-width: 1.5"/>
    <path d="M 114.322065 155.374125 
L 114.458479 159.671436 
L 114.86717 163.951444 
L 115.546493 168.196914 
L 116.493713 172.39075 
L 117.705015 176.516067 
L 119.175523 180.556253 
L 120.899314 184.495039 
L 122.869448 188.316566 
L 125.077991 192.005445 
L 127.516051 195.546823 
L 130.173811 198.926439 
L 133.040568 202.130685 
L 136.10478 205.14666 
L 139.354107 207.962218 
L 142.775466 210.566022 
L 146.35508 212.947588 
L 150.078535 215.097326 
L 153.930839 217.00658 
L 157.896479 218.667661 
L 161.959487 220.073882 
L 166.103503 221.21958 
L 170.311841 222.100141 
L 174.567554 222.71202 
L 178.853507 223.052754 
L 183.152442 223.120969 
L 187.447048 222.916392 
L 191.720033 222.439845 
L 195.95419 221.693249 
L 200.13247 220.679609 
L 204.238049 219.403007 
L 208.254396 217.868584 
L 212.165336 216.082517 
L 215.955124 214.051999 
L 219.608498 211.785206 
L 223.110748 209.291265 
L 226.447771 206.580219 
L 229.60613 203.662984 
L 232.573108 200.551307 
L 235.336758 197.257717 
L 237.885951 193.795477 
L 240.210423 190.178528 
L 242.300815 186.421434 
L 244.148707 182.539323 
L 245.746661 178.547827 
L 247.088241 174.463019 
L 248.168046 170.301347 
L 248.981727 166.079568 
L 249.526009 161.814683 
L 249.798698 157.523863 
L 249.798698 153.224387 
L 249.526009 148.933567 
L 248.981727 144.668682 
L 248.168046 140.446903 
L 247.088241 136.285231 
L 245.746661 132.200423 
L 244.148707 128.208927 
L 242.300815 124.326816 
L 240.210423 120.569722 
L 237.885951 116.952773 
L 235.336758 113.490533 
L 232.573108 110.196943 
L 229.60613 107.085266 
L 226.447771 104.168031 
L 223.110748 101.456985 
L 219.608498 98.963044 
L 215.955124 96.696251 
L 212.165336 94.665733 
L 208.254396 92.879666 
L 204.238049 91.345243 
L 200.13247 90.068641 
L 195.95419 89.055001 
L 191.720033 88.308405 
L 187.447048 87.831858 
L 183.152442 87.627281 
L 178.853507 87.695496 
L 174.567554 88.03623 
L 170.311841 88.648109 
L 166.103503 89.52867 
L 161.959487 90.674368 
L 157.896479 92.080589 
L 153.930839 93.74167 
L 150.078535 95.650924 
L 146.35508 97.800662 
L 142.775466 100.182228 
L 139.354107 102.786032 
L 136.10478 105.60159 
L 133.040568 108.617565 
L 130.173811 111.821811 
L 127.516051 115.201427 
L 125.077991 118.742805 
L 122.869448 122.431684 
L 120.899314 126.253211 
L 119.175523 130.191997 
L 117.705015 134.232183 
L 116.493713 138.3575 
L 115.546493 142.551336 
L 114.86717 146.796806 
L 114.458479 151.076814 
L 114.322065 155.374125 
M 132.364 155.374125 
L 132.464089 152.221104 
L 132.763954 149.080779 
L 133.262386 145.965795 
L 133.95738 142.888695 
L 134.846136 139.86187 
L 135.925076 136.897507 
L 137.189855 134.007542 
L 138.635381 131.203614 
L 140.255832 128.497011 
L 142.044685 125.898633 
L 143.994735 123.418943 
L 146.098131 121.067925 
L 148.346402 118.855046 
L 150.730497 116.789216 
L 153.240815 114.878754 
L 155.867247 113.131353 
L 158.599219 111.554048 
L 161.425729 110.153191 
L 164.335397 108.934423 
L 167.316505 107.902652 
L 170.35705 107.062031 
L 173.44479 106.415946 
L 176.56729 105.966998 
L 179.711977 105.716996 
L 182.866189 105.666945 
L 186.017225 105.817047 
L 189.152398 106.166698 
L 192.259081 106.71449 
L 195.324767 107.458218 
L 198.337111 108.394885 
L 201.283982 109.520722 
L 204.153516 110.831194 
L 206.934157 112.321025 
L 209.614708 113.984215 
L 212.184377 115.814068 
L 214.632816 117.803215 
L 216.950166 119.943648 
L 219.127096 122.226746 
L 221.154839 124.643317 
L 223.025232 127.18363 
L 224.730743 129.837456 
L 226.264504 132.594109 
L 227.620339 135.44249 
L 228.792788 138.371128 
L 229.777132 141.368231 
L 230.569406 144.421731 
L 231.16642 147.519332 
L 231.565769 150.648562 
L 231.765847 153.79682 
L 231.765847 156.95143 
L 231.565769 160.099688 
L 231.16642 163.228918 
L 230.569406 166.326519 
L 229.777132 169.380019 
L 228.792788 172.377122 
L 227.620339 175.30576 
L 226.264504 178.154141 
L 224.730743 180.910794 
L 223.025232 183.56462 
L 221.154839 186.104933 
L 219.127096 188.521504 
L 216.950166 190.804602 
L 214.632816 192.945035 
L 212.184377 194.934182 
L 209.614708 196.764035 
L 206.934157 198.427225 
L 204.153516 199.917056 
L 201.283982 201.227528 
L 198.337111 202.353365 
L 195.324767 203.290032 
L 192.259081 204.03376 
L 189.152398 204.581552 
L 186.017225 204.931203 
L 182.866189 205.081305 
L 179.711977 205.031254 
L 176.56729 204.781252 
L 173.44479 204.332304 
L 170.35705 203.686219 
L 167.316505 202.845598 
L 164.335397 201.813827 
L 161.425729 200.595059 
L 158.599219 199.194202 
L 155.867247 197.616897 
L 153.240815 195.869496 
L 150.730497 193.959034 
L 148.346402 191.893204 
L 146.098131 189.680325 
L 143.994735 187.329307 
L 142.044685 184.849617 
L 140.255832 182.251239 
L 138.635381 179.544636 
L 137.189855 176.740708 
L 135.925076 173.850743 
L 134.846136 170.88638 
L 133.95738 167.859555 
L 133.262386 164.782455 
L 132.763954 161.667471 
L 132.464089 158.527146 
L 132.364 155.374125 
L 132.364 155.374125 
" clip-path="url(#p14381962b6)" style="fill: none; stroke: #ff1e00; stroke-width: 1.5"/>
    <path clip-path="url(#p14381962b6)" style="fill: none; stroke: #800000; stroke-width: 1.5"/>
   </g>
   <g id="patch_3">
    <path d="M 49.004687 288.430125 
L 49.004687 22.318125 
" style="fill: none; stroke: #000000; stroke-width: 0.8; stroke-linejoin: miter; stroke-linecap: square"/>
   </g>
   <g id="patch_4">
    <path d="M 315.116687 288.430125 
L 315.116687 22.318125 
" style="fill: none; stroke: #000000; stroke-width: 0.8; stroke-linejoin: miter; stroke-linecap: square"/>
   </g>
   <g id="patch_5">
    <path d="M 49.004687 288.430125 
L 315.116687 288.430125 
" style="fill: none; stroke: #000000; stroke-width: 0.8; stroke-linejoin: miter; stroke-linecap: square"/>
   </g>
   <g id="patch_6">
    <path d="M 49.004687 22.318125 
L 315.116687 22.318125 
" style="fill: none; stroke: #000000; stroke-width: 0.8; stroke-linejoin: miter; stroke-linecap: square"/>
   </g>
   <g id="text_13">
    <!-- $\mathbb{R}\;[\Psi_{2s}]$ -->
    <g transform="translate(161.780687 16.318125) scale(0.12 -0.12)">
     <defs>
      <path id="STIXGeneral-Italic-211d" d="M 1229 4179 
L 3360 4179 
Q 3827 4179 4108 3894 
Q 4390 3610 4390 3142 
Q 4390 2554 4060 2186 
Q 3731 1818 3149 1715 
L 4026 0 
L 2925 0 
L 2125 1690 
L 1549 1690 
L 1094 0 
L 109 0 
L 1229 4179 
z
M 3866 3821 
L 3392 2022 
Q 3770 2144 3962 2438 
Q 4154 2733 4154 3136 
Q 4154 3584 3866 3821 
z
M 3142 1978 
L 3648 3872 
Q 3450 3942 3296 3942 
L 2150 3942 
L 1613 1926 
L 2630 1926 
Q 2957 1926 3142 1978 
z
M 3629 237 
L 2899 1696 
Q 2829 1683 2682 1683 
Q 2630 1683 2531 1686 
Q 2432 1690 2387 1690 
L 3072 237 
L 3629 237 
z
M 1907 3942 
L 1408 3942 
L 416 237 
L 915 237 
L 1907 3942 
z
" transform="scale(0.015625)"/>
      <path id="DejaVuSans-3a8" d="M 2206 0 
Q 2209 419 2206 969 
Q 1538 969 950 1625 
Q 375 2263 359 3388 
L 359 4666 
L 1025 4666 
L 1025 3388 
Q 1025 2506 1431 1994 
Q 1775 1556 2206 1513 
L 2206 4666 
L 2838 4666 
L 2838 1513 
Q 3269 1556 3613 1994 
Q 4019 2506 4019 3388 
L 4019 4666 
L 4684 4666 
L 4684 3388 
Q 4669 2263 4094 1625 
Q 3506 969 2838 969 
Q 2834 744 2838 0 
L 2206 0 
z
" transform="scale(0.015625)"/>
      <path id="DejaVuSans-32" d="M 1228 531 
L 3431 531 
L 3431 0 
L 469 0 
L 469 531 
Q 828 903 1448 1529 
Q 2069 2156 2228 2338 
Q 2531 2678 2651 2914 
Q 2772 3150 2772 3378 
Q 2772 3750 2511 3984 
Q 2250 4219 1831 4219 
Q 1534 4219 1204 4116 
Q 875 4013 500 3803 
L 500 4441 
Q 881 4594 1212 4672 
Q 1544 4750 1819 4750 
Q 2544 4750 2975 4387 
Q 3406 4025 3406 3419 
Q 3406 3131 3298 2873 
Q 3191 2616 2906 2266 
Q 2828 2175 2409 1742 
Q 1991 1309 1228 531 
z
" transform="scale(0.015625)"/>
      <path id="DejaVuSans-Oblique-73" d="M 3200 3397 
L 3091 2853 
Q 2863 2978 2609 3040 
Q 2356 3103 2088 3103 
Q 1634 3103 1373 2948 
Q 1113 2794 1113 2528 
Q 1113 2219 1719 2053 
Q 1766 2041 1788 2034 
L 1972 1978 
Q 2547 1819 2739 1644 
Q 2931 1469 2931 1166 
Q 2931 609 2489 259 
Q 2047 -91 1331 -91 
Q 1053 -91 747 -37 
Q 441 16 72 128 
L 184 722 
Q 500 559 806 475 
Q 1113 391 1394 391 
Q 1816 391 2080 572 
Q 2344 753 2344 1031 
Q 2344 1331 1650 1516 
L 1591 1531 
L 1394 1581 
Q 956 1697 753 1886 
Q 550 2075 550 2369 
Q 550 2928 970 3256 
Q 1391 3584 2113 3584 
Q 2397 3584 2667 3537 
Q 2938 3491 3200 3397 
z
" transform="scale(0.015625)"/>
     </defs>
     <use xlink:href="#STIXGeneral-Italic-211d" transform="translate(0 0.015625)"/>
     <use xlink:href="#DejaVuSans-5b" transform="translate(95.759117 0.015625)"/>
     <use xlink:href="#DejaVuSans-3a8" transform="translate(134.772789 0.015625)"/>
     <use xlink:href="#DejaVuSans-32" transform="translate(214.440758 -16.390625) scale(0.7)"/>
     <use xlink:href="#DejaVuSans-Oblique-73" transform="translate(258.976891 -16.390625) scale(0.7)"/>
     <use xlink:href="#DejaVuSans-5d" transform="translate(298.180992 0.015625)"/>
    </g>
   </g>
  </g>
 </g>
 <defs>
  <clipPath id="p14381962b6">
   <rect x="49.004687" y="22.318125" width="266.112" height="266.112"/>
  </clipPath>
 </defs>
</svg>
