<?xml version="1.0" encoding="utf-8" standalone="no"?>
<!DOCTYPE svg PUBLIC "-//W3C//DTD SVG 1.1//EN"
  "http://www.w3.org/Graphics/SVG/1.1/DTD/svg11.dtd">
<svg xmlns:xlink="http://www.w3.org/1999/xlink" width="422.843437pt" height="333.78825pt" viewBox="0 0 422.843437 333.78825" xmlns="http://www.w3.org/2000/svg" version="1.1">
 <metadata>
  <rdf:RDF xmlns:dc="http://purl.org/dc/elements/1.1/" xmlns:cc="http://creativecommons.org/ns#" xmlns:rdf="http://www.w3.org/1999/02/22-rdf-syntax-ns#">
   <cc:Work>
    <dc:type rdf:resource="http://purl.org/dc/dcmitype/StillImage"/>
    <dc:date>2026-03-06T09:06:06.184836</dc:date>
    <dc:format>image/svg+xml</dc:format>
    <dc:creator>
     <cc:Agent>
      <dc:title>Matplotlib v3.10.8, https://matplotlib.org/</dc:title>
     </cc:Agent>
    </dc:creator>
   </cc:Work>
  </rdf:RDF>
 </metadata>
 <defs>
  <style type="text/css">*{stroke-linejoin: round; stroke-linecap: butt}</style>
 </defs>
 <g id="figure_1">
  <g id="patch_1">
   <path d="M 0 333.78825 
L 422.843437 333.78825 
L 422.843437 0 
L 0 0 
z
" style="fill: #ffffff"/>
  </g>
  <g id="axes_1">
   <g id="patch_2">
    <path d="M 58.523438 296.232 
L 415.643438 296.232 
L 415.643438 30.12 
L 58.523438 30.12 
z
" style="fill: #ffffff"/>
   </g>
   <g id="FillBetweenPolyCollection_1">
    <defs>
     <path id="md6a1c0c130" d="M 74.756165 -170.612008 
L 74.756165 -91.546865 
L 75.569835 -92.932343 
L 76.383506 -94.335387 
L 77.197176 -95.755679 
L 78.010847 -97.192898 
L 78.824517 -98.646718 
L 79.638188 -100.116812 
L 80.451859 -101.602847 
L 81.265529 -103.104486 
L 82.0792 -104.62139 
L 82.89287 -106.153217 
L 83.706541 -107.699619 
L 84.520211 -109.260247 
L 85.333882 -110.834749 
L 86.147552 -112.422767 
L 86.961223 -114.023944 
L 87.774893 -115.637916 
L 88.588564 -117.26432 
L 89.402234 -118.902787 
L 90.215905 -120.552946 
L 91.029576 -122.214425 
L 91.843246 -123.886849 
L 92.656917 -125.569837 
L 93.470587 -127.263011 
L 94.284258 -128.965988 
L 95.097928 -130.678381 
L 95.911599 -132.399804 
L 96.725269 -134.129869 
L 97.53894 -135.868182 
L 98.35261 -137.614353 
L 99.166281 -139.367984 
L 99.979952 -141.128681 
L 100.793622 -142.896045 
L 101.607293 -144.669676 
L 102.420963 -146.449173 
L 103.234634 -148.234134 
L 104.048304 -150.024155 
L 104.861975 -151.818832 
L 105.675645 -153.617758 
L 106.489316 -155.420527 
L 107.302986 -157.226731 
L 108.116657 -159.035962 
L 108.930327 -160.847811 
L 109.743998 -162.661868 
L 110.557669 -164.477722 
L 111.371339 -166.294963 
L 112.18501 -168.113181 
L 112.99868 -169.931964 
L 113.812351 -171.7509 
L 114.626021 -173.569579 
L 115.439692 -175.387589 
L 116.253362 -177.204519 
L 117.067033 -179.019959 
L 117.880703 -180.833497 
L 118.694374 -182.644724 
L 119.508044 -184.45323 
L 120.321715 -186.258606 
L 121.135386 -188.060444 
L 121.949056 -189.858337 
L 122.762727 -191.651877 
L 123.576397 -193.44066 
L 124.390068 -195.224281 
L 125.203738 -197.002336 
L 126.017409 -198.774424 
L 126.831079 -200.540143 
L 127.64475 -202.299095 
L 128.45842 -204.050882 
L 129.272091 -205.795107 
L 130.085761 -207.531377 
L 130.899432 -209.259298 
L 131.713103 -210.97848 
L 132.526773 -212.688535 
L 133.340444 -214.389074 
L 134.154114 -216.079715 
L 134.967785 -217.760074 
L 135.781455 -219.429772 
L 136.595126 -221.088431 
L 137.408796 -222.735676 
L 138.222467 -224.371135 
L 139.036137 -225.994437 
L 139.849808 -227.605216 
L 140.663479 -229.203107 
L 141.477149 -230.787749 
L 142.29082 -232.358785 
L 143.10449 -233.915857 
L 143.918161 -235.458615 
L 144.731831 -236.98671 
L 145.545502 -238.499796 
L 146.359172 -239.99753 
L 147.172843 -241.479575 
L 147.986513 -242.945595 
L 148.800184 -244.395258 
L 149.613854 -245.828237 
L 150.427525 -247.244208 
L 151.241196 -248.642851 
L 152.054866 -250.023848 
L 152.868537 -251.386889 
L 153.682207 -252.731665 
L 154.495878 -254.057871 
L 155.309548 -255.365208 
L 156.123219 -256.65338 
L 156.936889 -257.922096 
L 157.75056 -259.171069 
L 158.56423 -260.400017 
L 159.377901 -261.608661 
L 160.191571 -262.796729 
L 161.005242 -263.963951 
L 161.818913 -265.110065 
L 162.632583 -266.23481 
L 163.446254 -267.337932 
L 164.259924 -268.419182 
L 165.073595 -269.478315 
L 165.887265 -270.515092 
L 166.700936 -271.529279 
L 167.514606 -272.520646 
L 168.328277 -273.488969 
L 169.141947 -274.434028 
L 169.955618 -275.355611 
L 170.769288 -276.253509 
L 171.582959 -277.127518 
L 172.39663 -277.977442 
L 173.2103 -278.803088 
L 174.023971 -279.604269 
L 174.837641 -280.380804 
L 175.651312 -281.132518 
L 176.464982 -281.85924 
L 177.278653 -282.560807 
L 178.092323 -283.237059 
L 178.905994 -283.887843 
L 179.719664 -284.513014 
L 180.533335 -285.112428 
L 181.347006 -285.685951 
L 182.160676 -286.233453 
L 182.974347 -286.75481 
L 183.788017 -287.249904 
L 184.601688 -287.718623 
L 185.415358 -288.160862 
L 186.229029 -288.57652 
L 187.042699 -288.965503 
L 187.85637 -289.327724 
L 188.67004 -289.6631 
L 189.483711 -289.971555 
L 190.297381 -290.253021 
L 191.111052 -290.507432 
L 191.924723 -290.734732 
L 192.738393 -290.93487 
L 193.552064 -291.107799 
L 194.365734 -291.253482 
L 195.179405 -291.371884 
L 195.993075 -291.46298 
L 196.806746 -291.526748 
L 197.620416 -291.563174 
L 198.434087 -291.57225 
L 199.247757 -291.553974 
L 200.061428 -291.50835 
L 200.875098 -291.435388 
L 201.688769 -291.335105 
L 202.50244 -291.207524 
L 203.31611 -291.052673 
L 204.129781 -290.870587 
L 204.943451 -290.661308 
L 205.757122 -290.424883 
L 206.570792 -290.161365 
L 207.384463 -289.870814 
L 208.198133 -289.553296 
L 209.011804 -289.208882 
L 209.825474 -288.83765 
L 210.639145 -288.439684 
L 211.452815 -288.015075 
L 212.266486 -287.563918 
L 213.080157 -287.086315 
L 213.893827 -286.582375 
L 214.707498 -286.05221 
L 215.521168 -285.495942 
L 216.334839 -284.913695 
L 217.148509 -284.305603 
L 217.96218 -283.671801 
L 218.77585 -283.012433 
L 219.589521 -282.327649 
L 220.403191 -281.617604 
L 221.216862 -280.882457 
L 222.030533 -280.122375 
L 222.844203 -279.33753 
L 223.657874 -278.5281 
L 224.471544 -277.694267 
L 225.285215 -276.83622 
L 226.098885 -275.954153 
L 226.912556 -275.048266 
L 227.726226 -274.118763 
L 228.539897 -273.165855 
L 229.353567 -272.189757 
L 230.167238 -271.190689 
L 230.980908 -270.168878 
L 231.794579 -269.124555 
L 232.60825 -268.057955 
L 233.42192 -266.969321 
L 234.235591 -265.858898 
L 235.049261 -264.726937 
L 235.862932 -263.573694 
L 236.676602 -262.399431 
L 237.490273 -261.204412 
L 238.303943 -259.988907 
L 239.117614 -258.753193 
L 239.931284 -257.497547 
L 240.744955 -256.222255 
L 241.558625 -254.927604 
L 242.372296 -253.613887 
L 243.185967 -252.281401 
L 243.999637 -250.930448 
L 244.813308 -249.561333 
L 245.626978 -248.174365 
L 246.440649 -246.769859 
L 247.254319 -245.348131 
L 248.06799 -243.909504 
L 248.88166 -242.454302 
L 249.695331 -240.982855 
L 250.509001 -239.495495 
L 251.322672 -237.992559 
L 252.136342 -236.474387 
L 252.950013 -234.941322 
L 253.763684 -233.39371 
L 254.577354 -231.831901 
L 255.391025 -230.256249 
L 256.204695 -228.66711 
L 257.018366 -227.064844 
L 257.832036 -225.449812 
L 258.645707 -223.82238 
L 259.459377 -222.182915 
L 260.273048 -220.53179 
L 261.086718 -218.869376 
L 261.900389 -217.196049 
L 262.71406 -215.51219 
L 263.52773 -213.818177 
L 264.341401 -212.114394 
L 265.155071 -210.401226 
L 265.968742 -208.679061 
L 266.782412 -206.948288 
L 267.596083 -205.209298 
L 268.409753 -203.462485 
L 269.223424 -201.708244 
L 270.037094 -199.946972 
L 270.850765 -198.179065 
L 271.664435 -196.404926 
L 272.478106 -194.624954 
L 273.291777 -192.839551 
L 274.105447 -191.049123 
L 274.919118 -189.254074 
L 275.732788 -187.454808 
L 276.546459 -185.651735 
L 277.360129 -183.84526 
L 278.1738 -182.035793 
L 278.98747 -180.223743 
L 279.801141 -178.40952 
L 280.614811 -176.593533 
L 281.428482 -174.776194 
L 282.242152 -172.957913 
L 283.055823 -171.139101 
L 283.869494 -169.320171 
L 284.683164 -167.501532 
L 285.496835 -165.683597 
L 286.310505 -163.866777 
L 287.124176 -162.051481 
L 287.937846 -160.238121 
L 288.751517 -158.427108 
L 289.565187 -156.618849 
L 290.378858 -154.813755 
L 291.192528 -153.012233 
L 292.006199 -151.21469 
L 292.819869 -149.421534 
L 293.63354 -147.63317 
L 294.447211 -145.850002 
L 295.260881 -144.072433 
L 296.074552 -142.300865 
L 296.888222 -140.5357 
L 297.701893 -138.777335 
L 298.515563 -137.026169 
L 299.329234 -135.282597 
L 300.142904 -133.547014 
L 300.956575 -131.819813 
L 301.770245 -130.101383 
L 302.583916 -128.392114 
L 303.397587 -126.692392 
L 304.211257 -125.002601 
L 305.024928 -123.323124 
L 305.838598 -121.65434 
L 306.652269 -119.996626 
L 307.465939 -118.350358 
L 308.27961 -116.715908 
L 309.09328 -115.093644 
L 309.906951 -113.483935 
L 310.720621 -111.887144 
L 311.534292 -110.303632 
L 312.347962 -108.733757 
L 313.161633 -107.177875 
L 313.975304 -105.636336 
L 314.788974 -104.109491 
L 315.602645 -102.597683 
L 316.416315 -101.101254 
L 317.229986 -99.620544 
L 318.043656 -98.155887 
L 318.857327 -96.707614 
L 319.670997 -95.276053 
L 320.484668 -93.861527 
L 321.298338 -92.464356 
L 322.112009 -91.084856 
L 322.925679 -89.72334 
L 323.73935 -88.380114 
L 324.553021 -87.055483 
L 325.366691 -85.749746 
L 326.180362 -84.463199 
L 326.994032 -83.196132 
L 327.807703 -81.948832 
L 328.621373 -80.721581 
L 329.435044 -79.514656 
L 330.248714 -78.328331 
L 331.062385 -77.162874 
L 331.876055 -76.018547 
L 332.689726 -74.895611 
L 333.503396 -73.794318 
L 334.317067 -72.714919 
L 335.130738 -71.657656 
L 335.944408 -70.622769 
L 336.758079 -69.610493 
L 337.571749 -68.621055 
L 338.38542 -67.65468 
L 339.19909 -66.711587 
L 340.012761 -65.791987 
L 340.826431 -64.896091 
L 341.640102 -64.024099 
L 342.453772 -63.176209 
L 343.267443 -62.352614 
L 344.081114 -61.553498 
L 344.894784 -60.779044 
L 345.708455 -60.029425 
L 346.522125 -59.304812 
L 347.335796 -58.605368 
L 348.149466 -57.931252 
L 348.963137 -57.282615 
L 349.776807 -56.659605 
L 350.590478 -56.062363 
L 351.404148 -55.491023 
L 352.217819 -54.945715 
L 353.031489 -54.426562 
L 353.84516 -53.933682 
L 354.658831 -53.467185 
L 355.472501 -53.027177 
L 356.286172 -52.613759 
L 357.099842 -52.227023 
L 357.913513 -51.867057 
L 358.727183 -51.533941 
L 359.540854 -51.227753 
L 360.354524 -50.94856 
L 361.168195 -50.696426 
L 361.981865 -50.471408 
L 362.795536 -50.273557 
L 363.609206 -50.102917 
L 364.422877 -49.959527 
L 365.236548 -49.84342 
L 366.050218 -49.754622 
L 366.863889 -49.693153 
L 367.677559 -49.659026 
L 368.49123 -49.65225 
L 369.3049 -49.672826 
L 370.118571 -49.720749 
L 370.932241 -49.796009 
L 371.745912 -49.898588 
L 372.559582 -50.028464 
L 373.373253 -50.185606 
L 374.186923 -50.36998 
L 375.000594 -50.581544 
L 375.814265 -50.82025 
L 376.627935 -51.086043 
L 377.441606 -51.378865 
L 378.255276 -51.698647 
L 379.068947 -52.04532 
L 379.882617 -52.418803 
L 380.696288 -52.819012 
L 381.509958 -53.245858 
L 382.323629 -53.699243 
L 383.137299 -54.179064 
L 383.95097 -54.685214 
L 384.764641 -55.217579 
L 385.578311 -55.776036 
L 386.391982 -56.360461 
L 387.205652 -56.970721 
L 388.019323 -57.606678 
L 388.832993 -58.268189 
L 389.646664 -58.955103 
L 390.460334 -59.667266 
L 391.274005 -60.404516 
L 392.087675 -61.166687 
L 392.901346 -61.953606 
L 393.715016 -62.765095 
L 394.528687 -63.600972 
L 395.342358 -64.461046 
L 396.156028 -65.345123 
L 396.969699 -66.253004 
L 397.783369 -67.184484 
L 398.59704 -68.13935 
L 399.41071 -69.117389 
L 399.41071 -170.612008 
L 399.41071 -170.612008 
L 398.59704 -170.612008 
L 397.783369 -170.612008 
L 396.969699 -170.612008 
L 396.156028 -170.612008 
L 395.342358 -170.612008 
L 394.528687 -170.612008 
L 393.715016 -170.612008 
L 392.901346 -170.612008 
L 392.087675 -170.612008 
L 391.274005 -170.612008 
L 390.460334 -170.612008 
L 389.646664 -170.612008 
L 388.832993 -170.612008 
L 388.019323 -170.612008 
L 387.205652 -170.612008 
L 386.391982 -170.612008 
L 385.578311 -170.612008 
L 384.764641 -170.612008 
L 383.95097 -170.612008 
L 383.137299 -170.612008 
L 382.323629 -170.612008 
L 381.509958 -170.612008 
L 380.696288 -170.612008 
L 379.882617 -170.612008 
L 379.068947 -170.612008 
L 378.255276 -170.612008 
L 377.441606 -170.612008 
L 376.627935 -170.612008 
L 375.814265 -170.612008 
L 375.000594 -170.612008 
L 374.186923 -170.612008 
L 373.373253 -170.612008 
L 372.559582 -170.612008 
L 371.745912 -170.612008 
L 370.932241 -170.612008 
L 370.118571 -170.612008 
L 369.3049 -170.612008 
L 368.49123 -170.612008 
L 367.677559 -170.612008 
L 366.863889 -170.612008 
L 366.050218 -170.612008 
L 365.236548 -170.612008 
L 364.422877 -170.612008 
L 363.609206 -170.612008 
L 362.795536 -170.612008 
L 361.981865 -170.612008 
L 361.168195 -170.612008 
L 360.354524 -170.612008 
L 359.540854 -170.612008 
L 358.727183 -170.612008 
L 357.913513 -170.612008 
L 357.099842 -170.612008 
L 356.286172 -170.612008 
L 355.472501 -170.612008 
L 354.658831 -170.612008 
L 353.84516 -170.612008 
L 353.031489 -170.612008 
L 352.217819 -170.612008 
L 351.404148 -170.612008 
L 350.590478 -170.612008 
L 349.776807 -170.612008 
L 348.963137 -170.612008 
L 348.149466 -170.612008 
L 347.335796 -170.612008 
L 346.522125 -170.612008 
L 345.708455 -170.612008 
L 344.894784 -170.612008 
L 344.081114 -170.612008 
L 343.267443 -170.612008 
L 342.453772 -170.612008 
L 341.640102 -170.612008 
L 340.826431 -170.612008 
L 340.012761 -170.612008 
L 339.19909 -170.612008 
L 338.38542 -170.612008 
L 337.571749 -170.612008 
L 336.758079 -170.612008 
L 335.944408 -170.612008 
L 335.130738 -170.612008 
L 334.317067 -170.612008 
L 333.503396 -170.612008 
L 332.689726 -170.612008 
L 331.876055 -170.612008 
L 331.062385 -170.612008 
L 330.248714 -170.612008 
L 329.435044 -170.612008 
L 328.621373 -170.612008 
L 327.807703 -170.612008 
L 326.994032 -170.612008 
L 326.180362 -170.612008 
L 325.366691 -170.612008 
L 324.553021 -170.612008 
L 323.73935 -170.612008 
L 322.925679 -170.612008 
L 322.112009 -170.612008 
L 321.298338 -170.612008 
L 320.484668 -170.612008 
L 319.670997 -170.612008 
L 318.857327 -170.612008 
L 318.043656 -170.612008 
L 317.229986 -170.612008 
L 316.416315 -170.612008 
L 315.602645 -170.612008 
L 314.788974 -170.612008 
L 313.975304 -170.612008 
L 313.161633 -170.612008 
L 312.347962 -170.612008 
L 311.534292 -170.612008 
L 310.720621 -170.612008 
L 309.906951 -170.612008 
L 309.09328 -170.612008 
L 308.27961 -170.612008 
L 307.465939 -170.612008 
L 306.652269 -170.612008 
L 305.838598 -170.612008 
L 305.024928 -170.612008 
L 304.211257 -170.612008 
L 303.397587 -170.612008 
L 302.583916 -170.612008 
L 301.770245 -170.612008 
L 300.956575 -170.612008 
L 300.142904 -170.612008 
L 299.329234 -170.612008 
L 298.515563 -170.612008 
L 297.701893 -170.612008 
L 296.888222 -170.612008 
L 296.074552 -170.612008 
L 295.260881 -170.612008 
L 294.447211 -170.612008 
L 293.63354 -170.612008 
L 292.819869 -170.612008 
L 292.006199 -170.612008 
L 291.192528 -170.612008 
L 290.378858 -170.612008 
L 289.565187 -170.612008 
L 288.751517 -170.612008 
L 287.937846 -170.612008 
L 287.124176 -170.612008 
L 286.310505 -170.612008 
L 285.496835 -170.612008 
L 284.683164 -170.612008 
L 283.869494 -170.612008 
L 283.055823 -170.612008 
L 282.242152 -170.612008 
L 281.428482 -170.612008 
L 280.614811 -170.612008 
L 279.801141 -170.612008 
L 278.98747 -170.612008 
L 278.1738 -170.612008 
L 277.360129 -170.612008 
L 276.546459 -170.612008 
L 275.732788 -170.612008 
L 274.919118 -170.612008 
L 274.105447 -170.612008 
L 273.291777 -170.612008 
L 272.478106 -170.612008 
L 271.664435 -170.612008 
L 270.850765 -170.612008 
L 270.037094 -170.612008 
L 269.223424 -170.612008 
L 268.409753 -170.612008 
L 267.596083 -170.612008 
L 266.782412 -170.612008 
L 265.968742 -170.612008 
L 265.155071 -170.612008 
L 264.341401 -170.612008 
L 263.52773 -170.612008 
L 262.71406 -170.612008 
L 261.900389 -170.612008 
L 261.086718 -170.612008 
L 260.273048 -170.612008 
L 259.459377 -170.612008 
L 258.645707 -170.612008 
L 257.832036 -170.612008 
L 257.018366 -170.612008 
L 256.204695 -170.612008 
L 255.391025 -170.612008 
L 254.577354 -170.612008 
L 253.763684 -170.612008 
L 252.950013 -170.612008 
L 252.136342 -170.612008 
L 251.322672 -170.612008 
L 250.509001 -170.612008 
L 249.695331 -170.612008 
L 248.88166 -170.612008 
L 248.06799 -170.612008 
L 247.254319 -170.612008 
L 246.440649 -170.612008 
L 245.626978 -170.612008 
L 244.813308 -170.612008 
L 243.999637 -170.612008 
L 243.185967 -170.612008 
L 242.372296 -170.612008 
L 241.558625 -170.612008 
L 240.744955 -170.612008 
L 239.931284 -170.612008 
L 239.117614 -170.612008 
L 238.303943 -170.612008 
L 237.490273 -170.612008 
L 236.676602 -170.612008 
L 235.862932 -170.612008 
L 235.049261 -170.612008 
L 234.235591 -170.612008 
L 233.42192 -170.612008 
L 232.60825 -170.612008 
L 231.794579 -170.612008 
L 230.980908 -170.612008 
L 230.167238 -170.612008 
L 229.353567 -170.612008 
L 228.539897 -170.612008 
L 227.726226 -170.612008 
L 226.912556 -170.612008 
L 226.098885 -170.612008 
L 225.285215 -170.612008 
L 224.471544 -170.612008 
L 223.657874 -170.612008 
L 222.844203 -170.612008 
L 222.030533 -170.612008 
L 221.216862 -170.612008 
L 220.403191 -170.612008 
L 219.589521 -170.612008 
L 218.77585 -170.612008 
L 217.96218 -170.612008 
L 217.148509 -170.612008 
L 216.334839 -170.612008 
L 215.521168 -170.612008 
L 214.707498 -170.612008 
L 213.893827 -170.612008 
L 213.080157 -170.612008 
L 212.266486 -170.612008 
L 211.452815 -170.612008 
L 210.639145 -170.612008 
L 209.825474 -170.612008 
L 209.011804 -170.612008 
L 208.198133 -170.612008 
L 207.384463 -170.612008 
L 206.570792 -170.612008 
L 205.757122 -170.612008 
L 204.943451 -170.612008 
L 204.129781 -170.612008 
L 203.31611 -170.612008 
L 202.50244 -170.612008 
L 201.688769 -170.612008 
L 200.875098 -170.612008 
L 200.061428 -170.612008 
L 199.247757 -170.612008 
L 198.434087 -170.612008 
L 197.620416 -170.612008 
L 196.806746 -170.612008 
L 195.993075 -170.612008 
L 195.179405 -170.612008 
L 194.365734 -170.612008 
L 193.552064 -170.612008 
L 192.738393 -170.612008 
L 191.924723 -170.612008 
L 191.111052 -170.612008 
L 190.297381 -170.612008 
L 189.483711 -170.612008 
L 188.67004 -170.612008 
L 187.85637 -170.612008 
L 187.042699 -170.612008 
L 186.229029 -170.612008 
L 185.415358 -170.612008 
L 184.601688 -170.612008 
L 183.788017 -170.612008 
L 182.974347 -170.612008 
L 182.160676 -170.612008 
L 181.347006 -170.612008 
L 180.533335 -170.612008 
L 179.719664 -170.612008 
L 178.905994 -170.612008 
L 178.092323 -170.612008 
L 177.278653 -170.612008 
L 176.464982 -170.612008 
L 175.651312 -170.612008 
L 174.837641 -170.612008 
L 174.023971 -170.612008 
L 173.2103 -170.612008 
L 172.39663 -170.612008 
L 171.582959 -170.612008 
L 170.769288 -170.612008 
L 169.955618 -170.612008 
L 169.141947 -170.612008 
L 168.328277 -170.612008 
L 167.514606 -170.612008 
L 166.700936 -170.612008 
L 165.887265 -170.612008 
L 165.073595 -170.612008 
L 164.259924 -170.612008 
L 163.446254 -170.612008 
L 162.632583 -170.612008 
L 161.818913 -170.612008 
L 161.005242 -170.612008 
L 160.191571 -170.612008 
L 159.377901 -170.612008 
L 158.56423 -170.612008 
L 157.75056 -170.612008 
L 156.936889 -170.612008 
L 156.123219 -170.612008 
L 155.309548 -170.612008 
L 154.495878 -170.612008 
L 153.682207 -170.612008 
L 152.868537 -170.612008 
L 152.054866 -170.612008 
L 151.241196 -170.612008 
L 150.427525 -170.612008 
L 149.613854 -170.612008 
L 148.800184 -170.612008 
L 147.986513 -170.612008 
L 147.172843 -170.612008 
L 146.359172 -170.612008 
L 145.545502 -170.612008 
L 144.731831 -170.612008 
L 143.918161 -170.612008 
L 143.10449 -170.612008 
L 142.29082 -170.612008 
L 141.477149 -170.612008 
L 140.663479 -170.612008 
L 139.849808 -170.612008 
L 139.036137 -170.612008 
L 138.222467 -170.612008 
L 137.408796 -170.612008 
L 136.595126 -170.612008 
L 135.781455 -170.612008 
L 134.967785 -170.612008 
L 134.154114 -170.612008 
L 133.340444 -170.612008 
L 132.526773 -170.612008 
L 131.713103 -170.612008 
L 130.899432 -170.612008 
L 130.085761 -170.612008 
L 129.272091 -170.612008 
L 128.45842 -170.612008 
L 127.64475 -170.612008 
L 126.831079 -170.612008 
L 126.017409 -170.612008 
L 125.203738 -170.612008 
L 124.390068 -170.612008 
L 123.576397 -170.612008 
L 122.762727 -170.612008 
L 121.949056 -170.612008 
L 121.135386 -170.612008 
L 120.321715 -170.612008 
L 119.508044 -170.612008 
L 118.694374 -170.612008 
L 117.880703 -170.612008 
L 117.067033 -170.612008 
L 116.253362 -170.612008 
L 115.439692 -170.612008 
L 114.626021 -170.612008 
L 113.812351 -170.612008 
L 112.99868 -170.612008 
L 112.18501 -170.612008 
L 111.371339 -170.612008 
L 110.557669 -170.612008 
L 109.743998 -170.612008 
L 108.930327 -170.612008 
L 108.116657 -170.612008 
L 107.302986 -170.612008 
L 106.489316 -170.612008 
L 105.675645 -170.612008 
L 104.861975 -170.612008 
L 104.048304 -170.612008 
L 103.234634 -170.612008 
L 102.420963 -170.612008 
L 101.607293 -170.612008 
L 100.793622 -170.612008 
L 99.979952 -170.612008 
L 99.166281 -170.612008 
L 98.35261 -170.612008 
L 97.53894 -170.612008 
L 96.725269 -170.612008 
L 95.911599 -170.612008 
L 95.097928 -170.612008 
L 94.284258 -170.612008 
L 93.470587 -170.612008 
L 92.656917 -170.612008 
L 91.843246 -170.612008 
L 91.029576 -170.612008 
L 90.215905 -170.612008 
L 89.402234 -170.612008 
L 88.588564 -170.612008 
L 87.774893 -170.612008 
L 86.961223 -170.612008 
L 86.147552 -170.612008 
L 85.333882 -170.612008 
L 84.520211 -170.612008 
L 83.706541 -170.612008 
L 82.89287 -170.612008 
L 82.0792 -170.612008 
L 81.265529 -170.612008 
L 80.451859 -170.612008 
L 79.638188 -170.612008 
L 78.824517 -170.612008 
L 78.010847 -170.612008 
L 77.197176 -170.612008 
L 76.383506 -170.612008 
L 75.569835 -170.612008 
L 74.756165 -170.612008 
z
" style="stroke: #87ceeb; stroke-opacity: 0.2"/>
    </defs>
    <g clip-path="url(#pf5f4f3545b)">
     <use xlink:href="#md6a1c0c130" x="0" y="333.78825" style="fill: #87ceeb; fill-opacity: 0.2; stroke: #87ceeb; stroke-opacity: 0.2"/>
    </g>
   </g>
   <g id="matplotlib.axis_1">
    <g id="xtick_1">
     <g id="line2d_1">
      <path d="M 74.756165 296.232 
L 74.756165 30.12 
" clip-path="url(#pf5f4f3545b)" style="fill: none; stroke-dasharray: 2.96,1.28; stroke-dashoffset: 0; stroke: #b0b0b0; stroke-opacity: 0.6; stroke-width: 0.8"/>
     </g>
     <g id="line2d_2">
      <defs>
       <path id="m37028da645" d="M 0 0 
L 0 3.5 
" style="stroke: #000000; stroke-width: 0.8"/>
      </defs>
      <g>
       <use xlink:href="#m37028da645" x="74.756165" y="296.232" style="stroke: #000000; stroke-width: 0.8"/>
      </g>
     </g>
     <g id="text_1">
      <!-- 0.00 -->
      <g transform="translate(63.623352 310.830438) scale(0.1 -0.1)">
       <defs>
        <path id="DejaVuSans-30" d="M 2034 4250 
Q 1547 4250 1301 3770 
Q 1056 3291 1056 2328 
Q 1056 1369 1301 889 
Q 1547 409 2034 409 
Q 2525 409 2770 889 
Q 3016 1369 3016 2328 
Q 3016 3291 2770 3770 
Q 2525 4250 2034 4250 
z
M 2034 4750 
Q 2819 4750 3233 4129 
Q 3647 3509 3647 2328 
Q 3647 1150 3233 529 
Q 2819 -91 2034 -91 
Q 1250 -91 836 529 
Q 422 1150 422 2328 
Q 422 3509 836 4129 
Q 1250 4750 2034 4750 
z
" transform="scale(0.015625)"/>
        <path id="DejaVuSans-2e" d="M 684 794 
L 1344 794 
L 1344 0 
L 684 0 
L 684 794 
z
" transform="scale(0.015625)"/>
       </defs>
       <use xlink:href="#DejaVuSans-30"/>
       <use xlink:href="#DejaVuSans-2e" transform="translate(63.623047 0)"/>
       <use xlink:href="#DejaVuSans-30" transform="translate(95.410156 0)"/>
       <use xlink:href="#DejaVuSans-30" transform="translate(159.033203 0)"/>
      </g>
     </g>
    </g>
    <g id="xtick_2">
     <g id="line2d_3">
      <path d="M 115.337983 296.232 
L 115.337983 30.12 
" clip-path="url(#pf5f4f3545b)" style="fill: none; stroke-dasharray: 2.96,1.28; stroke-dashoffset: 0; stroke: #b0b0b0; stroke-opacity: 0.6; stroke-width: 0.8"/>
     </g>
     <g id="line2d_4">
      <g>
       <use xlink:href="#m37028da645" x="115.337983" y="296.232" style="stroke: #000000; stroke-width: 0.8"/>
      </g>
     </g>
     <g id="text_2">
      <!-- 0.25 -->
      <g transform="translate(104.20517 310.830438) scale(0.1 -0.1)">
       <defs>
        <path id="DejaVuSans-32" d="M 1228 531 
L 3431 531 
L 3431 0 
L 469 0 
L 469 531 
Q 828 903 1448 1529 
Q 2069 2156 2228 2338 
Q 2531 2678 2651 2914 
Q 2772 3150 2772 3378 
Q 2772 3750 2511 3984 
Q 2250 4219 1831 4219 
Q 1534 4219 1204 4116 
Q 875 4013 500 3803 
L 500 4441 
Q 881 4594 1212 4672 
Q 1544 4750 1819 4750 
Q 2544 4750 2975 4387 
Q 3406 4025 3406 3419 
Q 3406 3131 3298 2873 
Q 3191 2616 2906 2266 
Q 2828 2175 2409 1742 
Q 1991 1309 1228 531 
z
" transform="scale(0.015625)"/>
        <path id="DejaVuSans-35" d="M 691 4666 
L 3169 4666 
L 3169 4134 
L 1269 4134 
L 1269 2991 
Q 1406 3038 1543 3061 
Q 1681 3084 1819 3084 
Q 2600 3084 3056 2656 
Q 3513 2228 3513 1497 
Q 3513 744 3044 326 
Q 2575 -91 1722 -91 
Q 1428 -91 1123 -41 
Q 819 9 494 109 
L 494 744 
Q 775 591 1075 516 
Q 1375 441 1709 441 
Q 2250 441 2565 725 
Q 2881 1009 2881 1497 
Q 2881 1984 2565 2268 
Q 2250 2553 1709 2553 
Q 1456 2553 1204 2497 
Q 953 2441 691 2322 
L 691 4666 
z
" transform="scale(0.015625)"/>
       </defs>
       <use xlink:href="#DejaVuSans-30"/>
       <use xlink:href="#DejaVuSans-2e" transform="translate(63.623047 0)"/>
       <use xlink:href="#DejaVuSans-32" transform="translate(95.410156 0)"/>
       <use xlink:href="#DejaVuSans-35" transform="translate(159.033203 0)"/>
      </g>
     </g>
    </g>
    <g id="xtick_3">
     <g id="line2d_5">
      <path d="M 155.919801 296.232 
L 155.919801 30.12 
" clip-path="url(#pf5f4f3545b)" style="fill: none; stroke-dasharray: 2.96,1.28; stroke-dashoffset: 0; stroke: #b0b0b0; stroke-opacity: 0.6; stroke-width: 0.8"/>
     </g>
     <g id="line2d_6">
      <g>
       <use xlink:href="#m37028da645" x="155.919801" y="296.232" style="stroke: #000000; stroke-width: 0.8"/>
      </g>
     </g>
     <g id="text_3">
      <!-- 0.50 -->
      <g transform="translate(144.786989 310.830438) scale(0.1 -0.1)">
       <use xlink:href="#DejaVuSans-30"/>
       <use xlink:href="#DejaVuSans-2e" transform="translate(63.623047 0)"/>
       <use xlink:href="#DejaVuSans-35" transform="translate(95.410156 0)"/>
       <use xlink:href="#DejaVuSans-30" transform="translate(159.033203 0)"/>
      </g>
     </g>
    </g>
    <g id="xtick_4">
     <g id="line2d_7">
      <path d="M 196.501619 296.232 
L 196.501619 30.12 
" clip-path="url(#pf5f4f3545b)" style="fill: none; stroke-dasharray: 2.96,1.28; stroke-dashoffset: 0; stroke: #b0b0b0; stroke-opacity: 0.6; stroke-width: 0.8"/>
     </g>
     <g id="line2d_8">
      <g>
       <use xlink:href="#m37028da645" x="196.501619" y="296.232" style="stroke: #000000; stroke-width: 0.8"/>
      </g>
     </g>
     <g id="text_4">
      <!-- 0.75 -->
      <g transform="translate(185.368807 310.830438) scale(0.1 -0.1)">
       <defs>
        <path id="DejaVuSans-37" d="M 525 4666 
L 3525 4666 
L 3525 4397 
L 1831 0 
L 1172 0 
L 2766 4134 
L 525 4134 
L 525 4666 
z
" transform="scale(0.015625)"/>
       </defs>
       <use xlink:href="#DejaVuSans-30"/>
       <use xlink:href="#DejaVuSans-2e" transform="translate(63.623047 0)"/>
       <use xlink:href="#DejaVuSans-37" transform="translate(95.410156 0)"/>
       <use xlink:href="#DejaVuSans-35" transform="translate(159.033203 0)"/>
      </g>
     </g>
    </g>
    <g id="xtick_5">
     <g id="line2d_9">
      <path d="M 237.083438 296.232 
L 237.083438 30.12 
" clip-path="url(#pf5f4f3545b)" style="fill: none; stroke-dasharray: 2.96,1.28; stroke-dashoffset: 0; stroke: #b0b0b0; stroke-opacity: 0.6; stroke-width: 0.8"/>
     </g>
     <g id="line2d_10">
      <g>
       <use xlink:href="#m37028da645" x="237.083438" y="296.232" style="stroke: #000000; stroke-width: 0.8"/>
      </g>
     </g>
     <g id="text_5">
      <!-- 1.00 -->
      <g transform="translate(225.950625 310.830438) scale(0.1 -0.1)">
       <defs>
        <path id="DejaVuSans-31" d="M 794 531 
L 1825 531 
L 1825 4091 
L 703 3866 
L 703 4441 
L 1819 4666 
L 2450 4666 
L 2450 531 
L 3481 531 
L 3481 0 
L 794 0 
L 794 531 
z
" transform="scale(0.015625)"/>
       </defs>
       <use xlink:href="#DejaVuSans-31"/>
       <use xlink:href="#DejaVuSans-2e" transform="translate(63.623047 0)"/>
       <use xlink:href="#DejaVuSans-30" transform="translate(95.410156 0)"/>
       <use xlink:href="#DejaVuSans-30" transform="translate(159.033203 0)"/>
      </g>
     </g>
    </g>
    <g id="xtick_6">
     <g id="line2d_11">
      <path d="M 277.665256 296.232 
L 277.665256 30.12 
" clip-path="url(#pf5f4f3545b)" style="fill: none; stroke-dasharray: 2.96,1.28; stroke-dashoffset: 0; stroke: #b0b0b0; stroke-opacity: 0.6; stroke-width: 0.8"/>
     </g>
     <g id="line2d_12">
      <g>
       <use xlink:href="#m37028da645" x="277.665256" y="296.232" style="stroke: #000000; stroke-width: 0.8"/>
      </g>
     </g>
     <g id="text_6">
      <!-- 1.25 -->
      <g transform="translate(266.532443 310.830438) scale(0.1 -0.1)">
       <use xlink:href="#DejaVuSans-31"/>
       <use xlink:href="#DejaVuSans-2e" transform="translate(63.623047 0)"/>
       <use xlink:href="#DejaVuSans-32" transform="translate(95.410156 0)"/>
       <use xlink:href="#DejaVuSans-35" transform="translate(159.033203 0)"/>
      </g>
     </g>
    </g>
    <g id="xtick_7">
     <g id="line2d_13">
      <path d="M 318.247074 296.232 
L 318.247074 30.12 
" clip-path="url(#pf5f4f3545b)" style="fill: none; stroke-dasharray: 2.96,1.28; stroke-dashoffset: 0; stroke: #b0b0b0; stroke-opacity: 0.6; stroke-width: 0.8"/>
     </g>
     <g id="line2d_14">
      <g>
       <use xlink:href="#m37028da645" x="318.247074" y="296.232" style="stroke: #000000; stroke-width: 0.8"/>
      </g>
     </g>
     <g id="text_7">
      <!-- 1.50 -->
      <g transform="translate(307.114261 310.830438) scale(0.1 -0.1)">
       <use xlink:href="#DejaVuSans-31"/>
       <use xlink:href="#DejaVuSans-2e" transform="translate(63.623047 0)"/>
       <use xlink:href="#DejaVuSans-35" transform="translate(95.410156 0)"/>
       <use xlink:href="#DejaVuSans-30" transform="translate(159.033203 0)"/>
      </g>
     </g>
    </g>
    <g id="xtick_8">
     <g id="line2d_15">
      <path d="M 358.828892 296.232 
L 358.828892 30.12 
" clip-path="url(#pf5f4f3545b)" style="fill: none; stroke-dasharray: 2.96,1.28; stroke-dashoffset: 0; stroke: #b0b0b0; stroke-opacity: 0.6; stroke-width: 0.8"/>
     </g>
     <g id="line2d_16">
      <g>
       <use xlink:href="#m37028da645" x="358.828892" y="296.232" style="stroke: #000000; stroke-width: 0.8"/>
      </g>
     </g>
     <g id="text_8">
      <!-- 1.75 -->
      <g transform="translate(347.69608 310.830438) scale(0.1 -0.1)">
       <use xlink:href="#DejaVuSans-31"/>
       <use xlink:href="#DejaVuSans-2e" transform="translate(63.623047 0)"/>
       <use xlink:href="#DejaVuSans-37" transform="translate(95.410156 0)"/>
       <use xlink:href="#DejaVuSans-35" transform="translate(159.033203 0)"/>
      </g>
     </g>
    </g>
    <g id="xtick_9">
     <g id="line2d_17">
      <path d="M 399.41071 296.232 
L 399.41071 30.12 
" clip-path="url(#pf5f4f3545b)" style="fill: none; stroke-dasharray: 2.96,1.28; stroke-dashoffset: 0; stroke: #b0b0b0; stroke-opacity: 0.6; stroke-width: 0.8"/>
     </g>
     <g id="line2d_18">
      <g>
       <use xlink:href="#m37028da645" x="399.41071" y="296.232" style="stroke: #000000; stroke-width: 0.8"/>
      </g>
     </g>
     <g id="text_9">
      <!-- 2.00 -->
      <g transform="translate(388.277898 310.830438) scale(0.1 -0.1)">
       <use xlink:href="#DejaVuSans-32"/>
       <use xlink:href="#DejaVuSans-2e" transform="translate(63.623047 0)"/>
       <use xlink:href="#DejaVuSans-30" transform="translate(95.410156 0)"/>
       <use xlink:href="#DejaVuSans-30" transform="translate(159.033203 0)"/>
      </g>
     </g>
    </g>
    <g id="text_10">
     <!-- x -->
     <g transform="translate(234.124063 324.508562) scale(0.1 -0.1)">
      <defs>
       <path id="DejaVuSans-78" d="M 3513 3500 
L 2247 1797 
L 3578 0 
L 2900 0 
L 1881 1375 
L 863 0 
L 184 0 
L 1544 1831 
L 300 3500 
L 978 3500 
L 1906 2253 
L 2834 3500 
L 3513 3500 
z
" transform="scale(0.015625)"/>
      </defs>
      <use xlink:href="#DejaVuSans-78"/>
     </g>
    </g>
   </g>
   <g id="matplotlib.axis_2">
    <g id="ytick_1">
     <g id="line2d_19">
      <path d="M 58.523438 284.13687 
L 415.643438 284.13687 
" clip-path="url(#pf5f4f3545b)" style="fill: none; stroke-dasharray: 2.96,1.28; stroke-dashoffset: 0; stroke: #b0b0b0; stroke-opacity: 0.6; stroke-width: 0.8"/>
     </g>
     <g id="line2d_20">
      <defs>
       <path id="m893805468f" d="M 0 0 
L -3.5 0 
" style="stroke: #000000; stroke-width: 0.8"/>
      </defs>
      <g>
       <use xlink:href="#m893805468f" x="58.523438" y="284.13687" style="stroke: #000000; stroke-width: 0.8"/>
      </g>
     </g>
     <g id="text_11">
      <!-- −1.00 -->
      <g transform="translate(20.878125 287.936089) scale(0.1 -0.1)">
       <defs>
        <path id="DejaVuSans-2212" d="M 678 2272 
L 4684 2272 
L 4684 1741 
L 678 1741 
L 678 2272 
z
" transform="scale(0.015625)"/>
       </defs>
       <use xlink:href="#DejaVuSans-2212"/>
       <use xlink:href="#DejaVuSans-31" transform="translate(83.789062 0)"/>
       <use xlink:href="#DejaVuSans-2e" transform="translate(147.412109 0)"/>
       <use xlink:href="#DejaVuSans-30" transform="translate(179.199219 0)"/>
       <use xlink:href="#DejaVuSans-30" transform="translate(242.822266 0)"/>
      </g>
     </g>
    </g>
    <g id="ytick_2">
     <g id="line2d_21">
      <path d="M 58.523438 253.896713 
L 415.643438 253.896713 
" clip-path="url(#pf5f4f3545b)" style="fill: none; stroke-dasharray: 2.96,1.28; stroke-dashoffset: 0; stroke: #b0b0b0; stroke-opacity: 0.6; stroke-width: 0.8"/>
     </g>
     <g id="line2d_22">
      <g>
       <use xlink:href="#m893805468f" x="58.523438" y="253.896713" style="stroke: #000000; stroke-width: 0.8"/>
      </g>
     </g>
     <g id="text_12">
      <!-- −0.75 -->
      <g transform="translate(20.878125 257.695932) scale(0.1 -0.1)">
       <use xlink:href="#DejaVuSans-2212"/>
       <use xlink:href="#DejaVuSans-30" transform="translate(83.789062 0)"/>
       <use xlink:href="#DejaVuSans-2e" transform="translate(147.412109 0)"/>
       <use xlink:href="#DejaVuSans-37" transform="translate(179.199219 0)"/>
       <use xlink:href="#DejaVuSans-35" transform="translate(242.822266 0)"/>
      </g>
     </g>
    </g>
    <g id="ytick_3">
     <g id="line2d_23">
      <path d="M 58.523438 223.656556 
L 415.643438 223.656556 
" clip-path="url(#pf5f4f3545b)" style="fill: none; stroke-dasharray: 2.96,1.28; stroke-dashoffset: 0; stroke: #b0b0b0; stroke-opacity: 0.6; stroke-width: 0.8"/>
     </g>
     <g id="line2d_24">
      <g>
       <use xlink:href="#m893805468f" x="58.523438" y="223.656556" style="stroke: #000000; stroke-width: 0.8"/>
      </g>
     </g>
     <g id="text_13">
      <!-- −0.50 -->
      <g transform="translate(20.878125 227.455775) scale(0.1 -0.1)">
       <use xlink:href="#DejaVuSans-2212"/>
       <use xlink:href="#DejaVuSans-30" transform="translate(83.789062 0)"/>
       <use xlink:href="#DejaVuSans-2e" transform="translate(147.412109 0)"/>
       <use xlink:href="#DejaVuSans-35" transform="translate(179.199219 0)"/>
       <use xlink:href="#DejaVuSans-30" transform="translate(242.822266 0)"/>
      </g>
     </g>
    </g>
    <g id="ytick_4">
     <g id="line2d_25">
      <path d="M 58.523438 193.416399 
L 415.643438 193.416399 
" clip-path="url(#pf5f4f3545b)" style="fill: none; stroke-dasharray: 2.96,1.28; stroke-dashoffset: 0; stroke: #b0b0b0; stroke-opacity: 0.6; stroke-width: 0.8"/>
     </g>
     <g id="line2d_26">
      <g>
       <use xlink:href="#m893805468f" x="58.523438" y="193.416399" style="stroke: #000000; stroke-width: 0.8"/>
      </g>
     </g>
     <g id="text_14">
      <!-- −0.25 -->
      <g transform="translate(20.878125 197.215618) scale(0.1 -0.1)">
       <use xlink:href="#DejaVuSans-2212"/>
       <use xlink:href="#DejaVuSans-30" transform="translate(83.789062 0)"/>
       <use xlink:href="#DejaVuSans-2e" transform="translate(147.412109 0)"/>
       <use xlink:href="#DejaVuSans-32" transform="translate(179.199219 0)"/>
       <use xlink:href="#DejaVuSans-35" transform="translate(242.822266 0)"/>
      </g>
     </g>
    </g>
    <g id="ytick_5">
     <g id="line2d_27">
      <path d="M 58.523438 163.176242 
L 415.643438 163.176242 
" clip-path="url(#pf5f4f3545b)" style="fill: none; stroke-dasharray: 2.96,1.28; stroke-dashoffset: 0; stroke: #b0b0b0; stroke-opacity: 0.6; stroke-width: 0.8"/>
     </g>
     <g id="line2d_28">
      <g>
       <use xlink:href="#m893805468f" x="58.523438" y="163.176242" style="stroke: #000000; stroke-width: 0.8"/>
      </g>
     </g>
     <g id="text_15">
      <!-- 0.00 -->
      <g transform="translate(29.257813 166.975461) scale(0.1 -0.1)">
       <use xlink:href="#DejaVuSans-30"/>
       <use xlink:href="#DejaVuSans-2e" transform="translate(63.623047 0)"/>
       <use xlink:href="#DejaVuSans-30" transform="translate(95.410156 0)"/>
       <use xlink:href="#DejaVuSans-30" transform="translate(159.033203 0)"/>
      </g>
     </g>
    </g>
    <g id="ytick_6">
     <g id="line2d_29">
      <path d="M 58.523438 132.936085 
L 415.643438 132.936085 
" clip-path="url(#pf5f4f3545b)" style="fill: none; stroke-dasharray: 2.96,1.28; stroke-dashoffset: 0; stroke: #b0b0b0; stroke-opacity: 0.6; stroke-width: 0.8"/>
     </g>
     <g id="line2d_30">
      <g>
       <use xlink:href="#m893805468f" x="58.523438" y="132.936085" style="stroke: #000000; stroke-width: 0.8"/>
      </g>
     </g>
     <g id="text_16">
      <!-- 0.25 -->
      <g transform="translate(29.257813 136.735303) scale(0.1 -0.1)">
       <use xlink:href="#DejaVuSans-30"/>
       <use xlink:href="#DejaVuSans-2e" transform="translate(63.623047 0)"/>
       <use xlink:href="#DejaVuSans-32" transform="translate(95.410156 0)"/>
       <use xlink:href="#DejaVuSans-35" transform="translate(159.033203 0)"/>
      </g>
     </g>
    </g>
    <g id="ytick_7">
     <g id="line2d_31">
      <path d="M 58.523438 102.695927 
L 415.643438 102.695927 
" clip-path="url(#pf5f4f3545b)" style="fill: none; stroke-dasharray: 2.96,1.28; stroke-dashoffset: 0; stroke: #b0b0b0; stroke-opacity: 0.6; stroke-width: 0.8"/>
     </g>
     <g id="line2d_32">
      <g>
       <use xlink:href="#m893805468f" x="58.523438" y="102.695927" style="stroke: #000000; stroke-width: 0.8"/>
      </g>
     </g>
     <g id="text_17">
      <!-- 0.50 -->
      <g transform="translate(29.257813 106.495146) scale(0.1 -0.1)">
       <use xlink:href="#DejaVuSans-30"/>
       <use xlink:href="#DejaVuSans-2e" transform="translate(63.623047 0)"/>
       <use xlink:href="#DejaVuSans-35" transform="translate(95.410156 0)"/>
       <use xlink:href="#DejaVuSans-30" transform="translate(159.033203 0)"/>
      </g>
     </g>
    </g>
    <g id="ytick_8">
     <g id="line2d_33">
      <path d="M 58.523438 72.45577 
L 415.643438 72.45577 
" clip-path="url(#pf5f4f3545b)" style="fill: none; stroke-dasharray: 2.96,1.28; stroke-dashoffset: 0; stroke: #b0b0b0; stroke-opacity: 0.6; stroke-width: 0.8"/>
     </g>
     <g id="line2d_34">
      <g>
       <use xlink:href="#m893805468f" x="58.523438" y="72.45577" style="stroke: #000000; stroke-width: 0.8"/>
      </g>
     </g>
     <g id="text_18">
      <!-- 0.75 -->
      <g transform="translate(29.257813 76.254989) scale(0.1 -0.1)">
       <use xlink:href="#DejaVuSans-30"/>
       <use xlink:href="#DejaVuSans-2e" transform="translate(63.623047 0)"/>
       <use xlink:href="#DejaVuSans-37" transform="translate(95.410156 0)"/>
       <use xlink:href="#DejaVuSans-35" transform="translate(159.033203 0)"/>
      </g>
     </g>
    </g>
    <g id="ytick_9">
     <g id="line2d_35">
      <path d="M 58.523438 42.215613 
L 415.643438 42.215613 
" clip-path="url(#pf5f4f3545b)" style="fill: none; stroke-dasharray: 2.96,1.28; stroke-dashoffset: 0; stroke: #b0b0b0; stroke-opacity: 0.6; stroke-width: 0.8"/>
     </g>
     <g id="line2d_36">
      <g>
       <use xlink:href="#m893805468f" x="58.523438" y="42.215613" style="stroke: #000000; stroke-width: 0.8"/>
      </g>
     </g>
     <g id="text_19">
      <!-- 1.00 -->
      <g transform="translate(29.257813 46.014832) scale(0.1 -0.1)">
       <use xlink:href="#DejaVuSans-31"/>
       <use xlink:href="#DejaVuSans-2e" transform="translate(63.623047 0)"/>
       <use xlink:href="#DejaVuSans-30" transform="translate(95.410156 0)"/>
       <use xlink:href="#DejaVuSans-30" transform="translate(159.033203 0)"/>
      </g>
     </g>
    </g>
    <g id="text_20">
     <!-- f(x) -->
     <g transform="translate(14.798438 171.797094) rotate(-90) scale(0.1 -0.1)">
      <defs>
       <path id="DejaVuSans-66" d="M 2375 4863 
L 2375 4384 
L 1825 4384 
Q 1516 4384 1395 4259 
Q 1275 4134 1275 3809 
L 1275 3500 
L 2222 3500 
L 2222 3053 
L 1275 3053 
L 1275 0 
L 697 0 
L 697 3053 
L 147 3053 
L 147 3500 
L 697 3500 
L 697 3744 
Q 697 4328 969 4595 
Q 1241 4863 1831 4863 
L 2375 4863 
z
" transform="scale(0.015625)"/>
       <path id="DejaVuSans-28" d="M 1984 4856 
Q 1566 4138 1362 3434 
Q 1159 2731 1159 2009 
Q 1159 1288 1364 580 
Q 1569 -128 1984 -844 
L 1484 -844 
Q 1016 -109 783 600 
Q 550 1309 550 2009 
Q 550 2706 781 3412 
Q 1013 4119 1484 4856 
L 1984 4856 
z
" transform="scale(0.015625)"/>
       <path id="DejaVuSans-29" d="M 513 4856 
L 1013 4856 
Q 1481 4119 1714 3412 
Q 1947 2706 1947 2009 
Q 1947 1309 1714 600 
Q 1481 -109 1013 -844 
L 513 -844 
Q 928 -128 1133 580 
Q 1338 1288 1338 2009 
Q 1338 2731 1133 3434 
Q 928 4138 513 4856 
z
" transform="scale(0.015625)"/>
      </defs>
      <use xlink:href="#DejaVuSans-66"/>
      <use xlink:href="#DejaVuSans-28" transform="translate(35.205078 0)"/>
      <use xlink:href="#DejaVuSans-78" transform="translate(74.21875 0)"/>
      <use xlink:href="#DejaVuSans-29" transform="translate(133.398438 0)"/>
     </g>
    </g>
   </g>
   <g id="line2d_37">
    <path d="M 74.756165 242.241385 
L 78.824517 235.141532 
L 82.89287 227.635033 
L 87.774893 218.150334 
L 93.470587 206.525239 
L 99.979952 192.659569 
L 108.116657 174.752288 
L 127.64475 131.489155 
L 134.154114 117.708535 
L 139.849808 106.183034 
L 144.731831 96.80154 
L 148.800184 89.392992 
L 152.868537 82.401361 
L 156.936889 75.866154 
L 161.005242 69.824299 
L 164.259924 65.369068 
L 167.514606 61.267604 
L 170.769288 57.534741 
L 174.023971 54.183981 
L 177.278653 51.227443 
L 179.719664 49.275236 
L 182.160676 47.554797 
L 184.601688 46.069627 
L 187.042699 44.822747 
L 189.483711 43.816695 
L 191.924723 43.053518 
L 194.365734 42.534768 
L 196.806746 42.261502 
L 199.247757 42.234276 
L 201.688769 42.453145 
L 204.129781 42.917663 
L 206.570792 43.626885 
L 209.011804 44.579368 
L 211.452815 45.773175 
L 213.893827 47.205875 
L 216.334839 48.874555 
L 218.77585 50.775817 
L 221.216862 52.905793 
L 224.471544 56.093983 
L 227.726226 59.669487 
L 230.980908 63.619372 
L 234.235591 67.929352 
L 237.490273 72.583838 
L 241.558625 78.860646 
L 245.626978 85.613885 
L 249.695331 92.805395 
L 254.577354 101.956349 
L 259.459377 111.605335 
L 265.155071 123.387024 
L 271.664435 137.383324 
L 280.614811 157.194717 
L 296.074552 191.487385 
L 302.583916 205.396136 
L 308.27961 217.072342 
L 313.161633 226.610375 
L 318.043656 235.632363 
L 322.112009 242.703394 
L 326.180362 249.325051 
L 330.248714 255.459919 
L 333.503396 259.993932 
L 336.758079 264.177757 
L 340.012761 267.996263 
L 343.267443 271.435636 
L 346.522125 274.483438 
L 348.963137 276.505635 
L 351.404148 278.297227 
L 353.84516 279.854568 
L 356.286172 281.174491 
L 358.727183 282.254309 
L 361.168195 283.091824 
L 363.609206 283.685333 
L 366.050218 284.033628 
L 368.49123 284.136 
L 370.932241 283.992241 
L 373.373253 283.602644 
L 375.814265 282.968 
L 378.255276 282.089603 
L 380.696288 280.969238 
L 383.137299 279.609186 
L 385.578311 278.012214 
L 388.019323 276.181572 
L 390.460334 274.120984 
L 393.715016 271.023155 
L 396.969699 267.535246 
L 399.41071 264.670861 
L 399.41071 264.670861 
" clip-path="url(#pf5f4f3545b)" style="fill: none; stroke: #000080; stroke-width: 1.5; stroke-linecap: square"/>
   </g>
   <g id="patch_3">
    <path d="M 58.523438 296.232 
L 58.523438 30.12 
" style="fill: none; stroke: #000000; stroke-width: 0.8; stroke-linejoin: miter; stroke-linecap: square"/>
   </g>
   <g id="patch_4">
    <path d="M 415.643438 296.232 
L 415.643438 30.12 
" style="fill: none; stroke: #000000; stroke-width: 0.8; stroke-linejoin: miter; stroke-linecap: square"/>
   </g>
   <g id="patch_5">
    <path d="M 58.523438 296.232 
L 415.643438 296.232 
" style="fill: none; stroke: #000000; stroke-width: 0.8; stroke-linejoin: miter; stroke-linecap: square"/>
   </g>
   <g id="patch_6">
    <path d="M 58.523438 30.12 
L 415.643438 30.12 
" style="fill: none; stroke: #000000; stroke-width: 0.8; stroke-linejoin: miter; stroke-linecap: square"/>
   </g>
   <g id="text_21">
    <!-- Visualization of $\int_0^2  cos(3x+4) dx$ -->
    <g transform="translate(140.843437 23.76) scale(0.12 -0.12)">
     <defs>
      <path id="DejaVuSans-56" d="M 1831 0 
L 50 4666 
L 709 4666 
L 2188 738 
L 3669 4666 
L 4325 4666 
L 2547 0 
L 1831 0 
z
" transform="scale(0.015625)"/>
      <path id="DejaVuSans-69" d="M 603 3500 
L 1178 3500 
L 1178 0 
L 603 0 
L 603 3500 
z
M 603 4863 
L 1178 4863 
L 1178 4134 
L 603 4134 
L 603 4863 
z
" transform="scale(0.015625)"/>
      <path id="DejaVuSans-73" d="M 2834 3397 
L 2834 2853 
Q 2591 2978 2328 3040 
Q 2066 3103 1784 3103 
Q 1356 3103 1142 2972 
Q 928 2841 928 2578 
Q 928 2378 1081 2264 
Q 1234 2150 1697 2047 
L 1894 2003 
Q 2506 1872 2764 1633 
Q 3022 1394 3022 966 
Q 3022 478 2636 193 
Q 2250 -91 1575 -91 
Q 1294 -91 989 -36 
Q 684 19 347 128 
L 347 722 
Q 666 556 975 473 
Q 1284 391 1588 391 
Q 1994 391 2212 530 
Q 2431 669 2431 922 
Q 2431 1156 2273 1281 
Q 2116 1406 1581 1522 
L 1381 1569 
Q 847 1681 609 1914 
Q 372 2147 372 2553 
Q 372 3047 722 3315 
Q 1072 3584 1716 3584 
Q 2034 3584 2315 3537 
Q 2597 3491 2834 3397 
z
" transform="scale(0.015625)"/>
      <path id="DejaVuSans-75" d="M 544 1381 
L 544 3500 
L 1119 3500 
L 1119 1403 
Q 1119 906 1312 657 
Q 1506 409 1894 409 
Q 2359 409 2629 706 
Q 2900 1003 2900 1516 
L 2900 3500 
L 3475 3500 
L 3475 0 
L 2900 0 
L 2900 538 
Q 2691 219 2414 64 
Q 2138 -91 1772 -91 
Q 1169 -91 856 284 
Q 544 659 544 1381 
z
M 1991 3584 
L 1991 3584 
z
" transform="scale(0.015625)"/>
      <path id="DejaVuSans-61" d="M 2194 1759 
Q 1497 1759 1228 1600 
Q 959 1441 959 1056 
Q 959 750 1161 570 
Q 1363 391 1709 391 
Q 2188 391 2477 730 
Q 2766 1069 2766 1631 
L 2766 1759 
L 2194 1759 
z
M 3341 1997 
L 3341 0 
L 2766 0 
L 2766 531 
Q 2569 213 2275 61 
Q 1981 -91 1556 -91 
Q 1019 -91 701 211 
Q 384 513 384 1019 
Q 384 1609 779 1909 
Q 1175 2209 1959 2209 
L 2766 2209 
L 2766 2266 
Q 2766 2663 2505 2880 
Q 2244 3097 1772 3097 
Q 1472 3097 1187 3025 
Q 903 2953 641 2809 
L 641 3341 
Q 956 3463 1253 3523 
Q 1550 3584 1831 3584 
Q 2591 3584 2966 3190 
Q 3341 2797 3341 1997 
z
" transform="scale(0.015625)"/>
      <path id="DejaVuSans-6c" d="M 603 4863 
L 1178 4863 
L 1178 0 
L 603 0 
L 603 4863 
z
" transform="scale(0.015625)"/>
      <path id="DejaVuSans-7a" d="M 353 3500 
L 3084 3500 
L 3084 2975 
L 922 459 
L 3084 459 
L 3084 0 
L 275 0 
L 275 525 
L 2438 3041 
L 353 3041 
L 353 3500 
z
" transform="scale(0.015625)"/>
      <path id="DejaVuSans-74" d="M 1172 4494 
L 1172 3500 
L 2356 3500 
L 2356 3053 
L 1172 3053 
L 1172 1153 
Q 1172 725 1289 603 
Q 1406 481 1766 481 
L 2356 481 
L 2356 0 
L 1766 0 
Q 1100 0 847 248 
Q 594 497 594 1153 
L 594 3053 
L 172 3053 
L 172 3500 
L 594 3500 
L 594 4494 
L 1172 4494 
z
" transform="scale(0.015625)"/>
      <path id="DejaVuSans-6f" d="M 1959 3097 
Q 1497 3097 1228 2736 
Q 959 2375 959 1747 
Q 959 1119 1226 758 
Q 1494 397 1959 397 
Q 2419 397 2687 759 
Q 2956 1122 2956 1747 
Q 2956 2369 2687 2733 
Q 2419 3097 1959 3097 
z
M 1959 3584 
Q 2709 3584 3137 3096 
Q 3566 2609 3566 1747 
Q 3566 888 3137 398 
Q 2709 -91 1959 -91 
Q 1206 -91 779 398 
Q 353 888 353 1747 
Q 353 2609 779 3096 
Q 1206 3584 1959 3584 
z
" transform="scale(0.015625)"/>
      <path id="DejaVuSans-6e" d="M 3513 2113 
L 3513 0 
L 2938 0 
L 2938 2094 
Q 2938 2591 2744 2837 
Q 2550 3084 2163 3084 
Q 1697 3084 1428 2787 
Q 1159 2491 1159 1978 
L 1159 0 
L 581 0 
L 581 3500 
L 1159 3500 
L 1159 2956 
Q 1366 3272 1645 3428 
Q 1925 3584 2291 3584 
Q 2894 3584 3203 3211 
Q 3513 2838 3513 2113 
z
" transform="scale(0.015625)"/>
      <path id="DejaVuSans-20" transform="scale(0.015625)"/>
      <path id="DejaVuSansDisplay-222b" d="M 2134 5525 
Q 2172 6263 2528 6556 
Q 2884 6850 3218 6850 
Q 3553 6850 3833 6575 
Q 4113 6300 4200 5678 
L 3544 5613 
Q 3469 6188 3219 6188 
Q 2906 6188 2869 5413 
L 2581 -597 
Q 2547 -1334 2187 -1628 
Q 1828 -1922 1497 -1922 
Q 1163 -1922 883 -1647 
Q 603 -1372 516 -750 
L 1172 -684 
Q 1247 -1259 1497 -1259 
Q 1809 -1259 1847 -488 
L 2134 5525 
z
" transform="scale(0.015625)"/>
      <path id="DejaVuSans-Oblique-63" d="M 3431 3366 
L 3316 2797 
Q 3109 2947 2876 3022 
Q 2644 3097 2394 3097 
Q 2119 3097 1870 3000 
Q 1622 2903 1453 2725 
Q 1184 2453 1037 2087 
Q 891 1722 891 1331 
Q 891 859 1127 628 
Q 1363 397 1844 397 
Q 2081 397 2348 469 
Q 2616 541 2906 684 
L 2797 116 
Q 2547 13 2283 -39 
Q 2019 -91 1741 -91 
Q 1044 -91 669 257 
Q 294 606 294 1253 
Q 294 1797 489 2255 
Q 684 2713 1069 3078 
Q 1331 3328 1684 3456 
Q 2038 3584 2456 3584 
Q 2700 3584 2940 3529 
Q 3181 3475 3431 3366 
z
" transform="scale(0.015625)"/>
      <path id="DejaVuSans-Oblique-6f" d="M 1625 -91 
Q 1009 -91 651 289 
Q 294 669 294 1325 
Q 294 1706 417 2101 
Q 541 2497 738 2766 
Q 1047 3184 1428 3384 
Q 1809 3584 2291 3584 
Q 2888 3584 3255 3212 
Q 3622 2841 3622 2241 
Q 3622 1825 3500 1412 
Q 3378 1000 3181 728 
Q 2875 309 2494 109 
Q 2113 -91 1625 -91 
z
M 891 1344 
Q 891 869 1089 633 
Q 1288 397 1691 397 
Q 2269 397 2648 901 
Q 3028 1406 3028 2181 
Q 3028 2634 2825 2865 
Q 2622 3097 2228 3097 
Q 1903 3097 1650 2945 
Q 1397 2794 1197 2484 
Q 1050 2253 970 1956 
Q 891 1659 891 1344 
z
" transform="scale(0.015625)"/>
      <path id="DejaVuSans-Oblique-73" d="M 3200 3397 
L 3091 2853 
Q 2863 2978 2609 3040 
Q 2356 3103 2088 3103 
Q 1634 3103 1373 2948 
Q 1113 2794 1113 2528 
Q 1113 2219 1719 2053 
Q 1766 2041 1788 2034 
L 1972 1978 
Q 2547 1819 2739 1644 
Q 2931 1469 2931 1166 
Q 2931 609 2489 259 
Q 2047 -91 1331 -91 
Q 1053 -91 747 -37 
Q 441 16 72 128 
L 184 722 
Q 500 559 806 475 
Q 1113 391 1394 391 
Q 1816 391 2080 572 
Q 2344 753 2344 1031 
Q 2344 1331 1650 1516 
L 1591 1531 
L 1394 1581 
Q 956 1697 753 1886 
Q 550 2075 550 2369 
Q 550 2928 970 3256 
Q 1391 3584 2113 3584 
Q 2397 3584 2667 3537 
Q 2938 3491 3200 3397 
z
" transform="scale(0.015625)"/>
      <path id="DejaVuSans-33" d="M 2597 2516 
Q 3050 2419 3304 2112 
Q 3559 1806 3559 1356 
Q 3559 666 3084 287 
Q 2609 -91 1734 -91 
Q 1441 -91 1130 -33 
Q 819 25 488 141 
L 488 750 
Q 750 597 1062 519 
Q 1375 441 1716 441 
Q 2309 441 2620 675 
Q 2931 909 2931 1356 
Q 2931 1769 2642 2001 
Q 2353 2234 1838 2234 
L 1294 2234 
L 1294 2753 
L 1863 2753 
Q 2328 2753 2575 2939 
Q 2822 3125 2822 3475 
Q 2822 3834 2567 4026 
Q 2313 4219 1838 4219 
Q 1578 4219 1281 4162 
Q 984 4106 628 3988 
L 628 4550 
Q 988 4650 1302 4700 
Q 1616 4750 1894 4750 
Q 2613 4750 3031 4423 
Q 3450 4097 3450 3541 
Q 3450 3153 3228 2886 
Q 3006 2619 2597 2516 
z
" transform="scale(0.015625)"/>
      <path id="DejaVuSans-Oblique-78" d="M 3841 3500 
L 2234 1784 
L 3219 0 
L 2559 0 
L 1819 1388 
L 531 0 
L -166 0 
L 1556 1844 
L 641 3500 
L 1300 3500 
L 1972 2234 
L 3144 3500 
L 3841 3500 
z
" transform="scale(0.015625)"/>
      <path id="DejaVuSans-2b" d="M 2944 4013 
L 2944 2272 
L 4684 2272 
L 4684 1741 
L 2944 1741 
L 2944 0 
L 2419 0 
L 2419 1741 
L 678 1741 
L 678 2272 
L 2419 2272 
L 2419 4013 
L 2944 4013 
z
" transform="scale(0.015625)"/>
      <path id="DejaVuSans-34" d="M 2419 4116 
L 825 1625 
L 2419 1625 
L 2419 4116 
z
M 2253 4666 
L 3047 4666 
L 3047 1625 
L 3713 1625 
L 3713 1100 
L 3047 1100 
L 3047 0 
L 2419 0 
L 2419 1100 
L 313 1100 
L 313 1709 
L 2253 4666 
z
" transform="scale(0.015625)"/>
      <path id="DejaVuSans-Oblique-64" d="M 2675 525 
Q 2444 222 2128 65 
Q 1813 -91 1428 -91 
Q 903 -91 598 267 
Q 294 625 294 1247 
Q 294 1766 478 2236 
Q 663 2706 1013 3078 
Q 1244 3325 1534 3454 
Q 1825 3584 2144 3584 
Q 2481 3584 2739 3421 
Q 2997 3259 3138 2956 
L 3513 4863 
L 4091 4863 
L 3144 0 
L 2566 0 
L 2675 525 
z
M 891 1350 
Q 891 897 1095 644 
Q 1300 391 1663 391 
Q 1931 391 2161 520 
Q 2391 650 2566 903 
Q 2750 1166 2856 1509 
Q 2963 1853 2963 2188 
Q 2963 2622 2758 2865 
Q 2553 3109 2194 3109 
Q 1922 3109 1687 2981 
Q 1453 2853 1288 2613 
Q 1106 2353 998 2009 
Q 891 1666 891 1350 
z
" transform="scale(0.015625)"/>
     </defs>
     <use xlink:href="#DejaVuSans-56" transform="translate(0 0.890625)"/>
     <use xlink:href="#DejaVuSans-69" transform="translate(68.408203 0.890625)"/>
     <use xlink:href="#DejaVuSans-73" transform="translate(96.191406 0.890625)"/>
     <use xlink:href="#DejaVuSans-75" transform="translate(148.291016 0.890625)"/>
     <use xlink:href="#DejaVuSans-61" transform="translate(211.669922 0.890625)"/>
     <use xlink:href="#DejaVuSans-6c" transform="translate(272.949219 0.890625)"/>
     <use xlink:href="#DejaVuSans-69" transform="translate(300.732422 0.890625)"/>
     <use xlink:href="#DejaVuSans-7a" transform="translate(328.515625 0.890625)"/>
     <use xlink:href="#DejaVuSans-61" transform="translate(381.005859 0.890625)"/>
     <use xlink:href="#DejaVuSans-74" transform="translate(442.285156 0.890625)"/>
     <use xlink:href="#DejaVuSans-69" transform="translate(481.494141 0.890625)"/>
     <use xlink:href="#DejaVuSans-6f" transform="translate(509.277344 0.890625)"/>
     <use xlink:href="#DejaVuSans-6e" transform="translate(570.458984 0.890625)"/>
     <use xlink:href="#DejaVuSans-20" transform="translate(633.837891 0.890625)"/>
     <use xlink:href="#DejaVuSans-6f" transform="translate(665.625 0.890625)"/>
     <use xlink:href="#DejaVuSans-66" transform="translate(726.806641 0.890625)"/>
     <use xlink:href="#DejaVuSans-20" transform="translate(762.011719 0.890625)"/>
     <use xlink:href="#DejaVuSansDisplay-222b" transform="translate(793.798828 0.890625)"/>
     <use xlink:href="#DejaVuSans-32" transform="translate(880.542969 86.046875) scale(0.7)"/>
     <use xlink:href="#DejaVuSans-30" transform="translate(865.558594 -51.015625) scale(0.7)"/>
     <use xlink:href="#DejaVuSans-Oblique-63" transform="translate(925.079102 0.890625)"/>
     <use xlink:href="#DejaVuSans-Oblique-6f" transform="translate(980.05957 0.890625)"/>
     <use xlink:href="#DejaVuSans-Oblique-73" transform="translate(1041.241211 0.890625)"/>
     <use xlink:href="#DejaVuSans-28" transform="translate(1093.34082 0.890625)"/>
     <use xlink:href="#DejaVuSans-33" transform="translate(1132.354492 0.890625)"/>
     <use xlink:href="#DejaVuSans-Oblique-78" transform="translate(1195.977539 0.890625)"/>
     <use xlink:href="#DejaVuSans-2b" transform="translate(1274.639648 0.890625)"/>
     <use xlink:href="#DejaVuSans-34" transform="translate(1377.911133 0.890625)"/>
     <use xlink:href="#DejaVuSans-29" transform="translate(1441.53418 0.890625)"/>
     <use xlink:href="#DejaVuSans-Oblique-64" transform="translate(1480.547852 0.890625)"/>
     <use xlink:href="#DejaVuSans-Oblique-78" transform="translate(1544.024414 0.890625)"/>
    </g>
   </g>
   <g id="legend_1">
    <g id="patch_7">
     <path d="M 296.190313 67.47625 
L 408.643438 67.47625 
Q 410.643438 67.47625 410.643438 65.47625 
L 410.643438 37.12 
Q 410.643438 35.12 408.643438 35.12 
L 296.190313 35.12 
Q 294.190313 35.12 294.190313 37.12 
L 294.190313 65.47625 
Q 294.190313 67.47625 296.190313 67.47625 
z
" style="fill: #ffffff; opacity: 0.8; stroke: #cccccc; stroke-linejoin: miter"/>
    </g>
    <g id="line2d_38">
     <path d="M 298.190313 43.218437 
L 308.190313 43.218437 
L 318.190313 43.218437 
" style="fill: none; stroke: #000080; stroke-width: 1.5; stroke-linecap: square"/>
    </g>
    <g id="text_22">
     <!-- f(x)= cos(3x+4) -->
     <g transform="translate(326.190313 46.718437) scale(0.1 -0.1)">
      <defs>
       <path id="DejaVuSans-3d" d="M 678 2906 
L 4684 2906 
L 4684 2381 
L 678 2381 
L 678 2906 
z
M 678 1631 
L 4684 1631 
L 4684 1100 
L 678 1100 
L 678 1631 
z
" transform="scale(0.015625)"/>
       <path id="DejaVuSans-63" d="M 3122 3366 
L 3122 2828 
Q 2878 2963 2633 3030 
Q 2388 3097 2138 3097 
Q 1578 3097 1268 2742 
Q 959 2388 959 1747 
Q 959 1106 1268 751 
Q 1578 397 2138 397 
Q 2388 397 2633 464 
Q 2878 531 3122 666 
L 3122 134 
Q 2881 22 2623 -34 
Q 2366 -91 2075 -91 
Q 1284 -91 818 406 
Q 353 903 353 1747 
Q 353 2603 823 3093 
Q 1294 3584 2113 3584 
Q 2378 3584 2631 3529 
Q 2884 3475 3122 3366 
z
" transform="scale(0.015625)"/>
      </defs>
      <use xlink:href="#DejaVuSans-66"/>
      <use xlink:href="#DejaVuSans-28" transform="translate(35.205078 0)"/>
      <use xlink:href="#DejaVuSans-78" transform="translate(74.21875 0)"/>
      <use xlink:href="#DejaVuSans-29" transform="translate(133.398438 0)"/>
      <use xlink:href="#DejaVuSans-3d" transform="translate(172.412109 0)"/>
      <use xlink:href="#DejaVuSans-20" transform="translate(256.201172 0)"/>
      <use xlink:href="#DejaVuSans-63" transform="translate(287.988281 0)"/>
      <use xlink:href="#DejaVuSans-6f" transform="translate(342.96875 0)"/>
      <use xlink:href="#DejaVuSans-73" transform="translate(404.150391 0)"/>
      <use xlink:href="#DejaVuSans-28" transform="translate(456.25 0)"/>
      <use xlink:href="#DejaVuSans-33" transform="translate(495.263672 0)"/>
      <use xlink:href="#DejaVuSans-78" transform="translate(558.886719 0)"/>
      <use xlink:href="#DejaVuSans-2b" transform="translate(618.066406 0)"/>
      <use xlink:href="#DejaVuSans-34" transform="translate(701.855469 0)"/>
      <use xlink:href="#DejaVuSans-29" transform="translate(765.478516 0)"/>
     </g>
    </g>
    <g id="patch_8">
     <path d="M 298.190313 61.396563 
L 318.190313 61.396563 
L 318.190313 54.396563 
L 298.190313 54.396563 
z
" style="fill: #87ceeb; fill-opacity: 0.2; stroke: #87ceeb; stroke-opacity: 0.2; stroke-linejoin: miter"/>
    </g>
    <g id="text_23">
     <!-- Area -->
     <g transform="translate(326.190313 61.396563) scale(0.1 -0.1)">
      <defs>
       <path id="DejaVuSans-41" d="M 2188 4044 
L 1331 1722 
L 3047 1722 
L 2188 4044 
z
M 1831 4666 
L 2547 4666 
L 4325 0 
L 3669 0 
L 3244 1197 
L 1141 1197 
L 716 0 
L 50 0 
L 1831 4666 
z
" transform="scale(0.015625)"/>
       <path id="DejaVuSans-72" d="M 2631 2963 
Q 2534 3019 2420 3045 
Q 2306 3072 2169 3072 
Q 1681 3072 1420 2755 
Q 1159 2438 1159 1844 
L 1159 0 
L 581 0 
L 581 3500 
L 1159 3500 
L 1159 2956 
Q 1341 3275 1631 3429 
Q 1922 3584 2338 3584 
Q 2397 3584 2469 3576 
Q 2541 3569 2628 3553 
L 2631 2963 
z
" transform="scale(0.015625)"/>
       <path id="DejaVuSans-65" d="M 3597 1894 
L 3597 1613 
L 953 1613 
Q 991 1019 1311 708 
Q 1631 397 2203 397 
Q 2534 397 2845 478 
Q 3156 559 3463 722 
L 3463 178 
Q 3153 47 2828 -22 
Q 2503 -91 2169 -91 
Q 1331 -91 842 396 
Q 353 884 353 1716 
Q 353 2575 817 3079 
Q 1281 3584 2069 3584 
Q 2775 3584 3186 3129 
Q 3597 2675 3597 1894 
z
M 3022 2063 
Q 3016 2534 2758 2815 
Q 2500 3097 2075 3097 
Q 1594 3097 1305 2825 
Q 1016 2553 972 2059 
L 3022 2063 
z
" transform="scale(0.015625)"/>
      </defs>
      <use xlink:href="#DejaVuSans-41"/>
      <use xlink:href="#DejaVuSans-72" transform="translate(68.408203 0)"/>
      <use xlink:href="#DejaVuSans-65" transform="translate(107.271484 0)"/>
      <use xlink:href="#DejaVuSans-61" transform="translate(168.794922 0)"/>
     </g>
    </g>
   </g>
  </g>
 </g>
 <defs>
  <clipPath id="pf5f4f3545b">
   <rect x="58.523438" y="30.12" width="357.12" height="266.112"/>
  </clipPath>
 </defs>
</svg>
