<?xml version="1.0" encoding="utf-8" standalone="no"?>
<!DOCTYPE svg PUBLIC "-//W3C//DTD SVG 1.1//EN"
  "http://www.w3.org/Graphics/SVG/1.1/DTD/svg11.dtd">
<svg xmlns:xlink="http://www.w3.org/1999/xlink" width="1628.123438pt" height="400.31625pt" viewBox="0 0 1628.123438 400.31625" xmlns="http://www.w3.org/2000/svg" version="1.1">
 <metadata>
  <rdf:RDF xmlns:dc="http://purl.org/dc/elements/1.1/" xmlns:cc="http://creativecommons.org/ns#" xmlns:rdf="http://www.w3.org/1999/02/22-rdf-syntax-ns#">
   <cc:Work>
    <dc:type rdf:resource="http://purl.org/dc/dcmitype/StillImage"/>
    <dc:date>2026-03-06T09:08:07.494596</dc:date>
    <dc:format>image/svg+xml</dc:format>
    <dc:creator>
     <cc:Agent>
      <dc:title>Matplotlib v3.10.8, https://matplotlib.org/</dc:title>
     </cc:Agent>
    </dc:creator>
   </cc:Work>
  </rdf:RDF>
 </metadata>
 <defs>
  <style type="text/css">*{stroke-linejoin: round; stroke-linecap: butt}</style>
 </defs>
 <g id="figure_1">
  <g id="patch_1">
   <path d="M 0 400.31625 
L 1628.123438 400.31625 
L 1628.123438 0 
L 0 0 
z
" style="fill: #ffffff"/>
  </g>
  <g id="axes_1">
   <g id="patch_2">
    <path d="M 58.523438 362.76 
L 398.175611 362.76 
L 398.175611 30.12 
L 58.523438 30.12 
z
" style="fill: #ffffff"/>
   </g>
   <g id="matplotlib.axis_1">
    <g id="xtick_1">
     <g id="line2d_1">
      <defs>
       <path id="mf672d50ac4" d="M 0 0 
L 0 3.5 
" style="stroke: #000000; stroke-width: 0.8"/>
      </defs>
      <g>
       <use xlink:href="#mf672d50ac4" x="73.962173" y="362.76" style="stroke: #000000; stroke-width: 0.8"/>
      </g>
     </g>
     <g id="text_1">
      <!-- 0.00 -->
      <g transform="translate(62.82936 377.358437) scale(0.1 -0.1)">
       <defs>
        <path id="DejaVuSans-30" d="M 2034 4250 
Q 1547 4250 1301 3770 
Q 1056 3291 1056 2328 
Q 1056 1369 1301 889 
Q 1547 409 2034 409 
Q 2525 409 2770 889 
Q 3016 1369 3016 2328 
Q 3016 3291 2770 3770 
Q 2525 4250 2034 4250 
z
M 2034 4750 
Q 2819 4750 3233 4129 
Q 3647 3509 3647 2328 
Q 3647 1150 3233 529 
Q 2819 -91 2034 -91 
Q 1250 -91 836 529 
Q 422 1150 422 2328 
Q 422 3509 836 4129 
Q 1250 4750 2034 4750 
z
" transform="scale(0.015625)"/>
        <path id="DejaVuSans-2e" d="M 684 794 
L 1344 794 
L 1344 0 
L 684 0 
L 684 794 
z
" transform="scale(0.015625)"/>
       </defs>
       <use xlink:href="#DejaVuSans-30"/>
       <use xlink:href="#DejaVuSans-2e" transform="translate(63.623047 0)"/>
       <use xlink:href="#DejaVuSans-30" transform="translate(95.410156 0)"/>
       <use xlink:href="#DejaVuSans-30" transform="translate(159.033203 0)"/>
      </g>
     </g>
    </g>
    <g id="xtick_2">
     <g id="line2d_2">
      <g>
       <use xlink:href="#mf672d50ac4" x="112.559011" y="362.76" style="stroke: #000000; stroke-width: 0.8"/>
      </g>
     </g>
     <g id="text_2">
      <!-- 0.25 -->
      <g transform="translate(101.426198 377.358437) scale(0.1 -0.1)">
       <defs>
        <path id="DejaVuSans-32" d="M 1228 531 
L 3431 531 
L 3431 0 
L 469 0 
L 469 531 
Q 828 903 1448 1529 
Q 2069 2156 2228 2338 
Q 2531 2678 2651 2914 
Q 2772 3150 2772 3378 
Q 2772 3750 2511 3984 
Q 2250 4219 1831 4219 
Q 1534 4219 1204 4116 
Q 875 4013 500 3803 
L 500 4441 
Q 881 4594 1212 4672 
Q 1544 4750 1819 4750 
Q 2544 4750 2975 4387 
Q 3406 4025 3406 3419 
Q 3406 3131 3298 2873 
Q 3191 2616 2906 2266 
Q 2828 2175 2409 1742 
Q 1991 1309 1228 531 
z
" transform="scale(0.015625)"/>
        <path id="DejaVuSans-35" d="M 691 4666 
L 3169 4666 
L 3169 4134 
L 1269 4134 
L 1269 2991 
Q 1406 3038 1543 3061 
Q 1681 3084 1819 3084 
Q 2600 3084 3056 2656 
Q 3513 2228 3513 1497 
Q 3513 744 3044 326 
Q 2575 -91 1722 -91 
Q 1428 -91 1123 -41 
Q 819 9 494 109 
L 494 744 
Q 775 591 1075 516 
Q 1375 441 1709 441 
Q 2250 441 2565 725 
Q 2881 1009 2881 1497 
Q 2881 1984 2565 2268 
Q 2250 2553 1709 2553 
Q 1456 2553 1204 2497 
Q 953 2441 691 2322 
L 691 4666 
z
" transform="scale(0.015625)"/>
       </defs>
       <use xlink:href="#DejaVuSans-30"/>
       <use xlink:href="#DejaVuSans-2e" transform="translate(63.623047 0)"/>
       <use xlink:href="#DejaVuSans-32" transform="translate(95.410156 0)"/>
       <use xlink:href="#DejaVuSans-35" transform="translate(159.033203 0)"/>
      </g>
     </g>
    </g>
    <g id="xtick_3">
     <g id="line2d_3">
      <g>
       <use xlink:href="#mf672d50ac4" x="151.155849" y="362.76" style="stroke: #000000; stroke-width: 0.8"/>
      </g>
     </g>
     <g id="text_3">
      <!-- 0.50 -->
      <g transform="translate(140.023036 377.358437) scale(0.1 -0.1)">
       <use xlink:href="#DejaVuSans-30"/>
       <use xlink:href="#DejaVuSans-2e" transform="translate(63.623047 0)"/>
       <use xlink:href="#DejaVuSans-35" transform="translate(95.410156 0)"/>
       <use xlink:href="#DejaVuSans-30" transform="translate(159.033203 0)"/>
      </g>
     </g>
    </g>
    <g id="xtick_4">
     <g id="line2d_4">
      <g>
       <use xlink:href="#mf672d50ac4" x="189.752687" y="362.76" style="stroke: #000000; stroke-width: 0.8"/>
      </g>
     </g>
     <g id="text_4">
      <!-- 0.75 -->
      <g transform="translate(178.619874 377.358437) scale(0.1 -0.1)">
       <defs>
        <path id="DejaVuSans-37" d="M 525 4666 
L 3525 4666 
L 3525 4397 
L 1831 0 
L 1172 0 
L 2766 4134 
L 525 4134 
L 525 4666 
z
" transform="scale(0.015625)"/>
       </defs>
       <use xlink:href="#DejaVuSans-30"/>
       <use xlink:href="#DejaVuSans-2e" transform="translate(63.623047 0)"/>
       <use xlink:href="#DejaVuSans-37" transform="translate(95.410156 0)"/>
       <use xlink:href="#DejaVuSans-35" transform="translate(159.033203 0)"/>
      </g>
     </g>
    </g>
    <g id="xtick_5">
     <g id="line2d_5">
      <g>
       <use xlink:href="#mf672d50ac4" x="228.349524" y="362.76" style="stroke: #000000; stroke-width: 0.8"/>
      </g>
     </g>
     <g id="text_5">
      <!-- 1.00 -->
      <g transform="translate(217.216712 377.358437) scale(0.1 -0.1)">
       <defs>
        <path id="DejaVuSans-31" d="M 794 531 
L 1825 531 
L 1825 4091 
L 703 3866 
L 703 4441 
L 1819 4666 
L 2450 4666 
L 2450 531 
L 3481 531 
L 3481 0 
L 794 0 
L 794 531 
z
" transform="scale(0.015625)"/>
       </defs>
       <use xlink:href="#DejaVuSans-31"/>
       <use xlink:href="#DejaVuSans-2e" transform="translate(63.623047 0)"/>
       <use xlink:href="#DejaVuSans-30" transform="translate(95.410156 0)"/>
       <use xlink:href="#DejaVuSans-30" transform="translate(159.033203 0)"/>
      </g>
     </g>
    </g>
    <g id="xtick_6">
     <g id="line2d_6">
      <g>
       <use xlink:href="#mf672d50ac4" x="266.946362" y="362.76" style="stroke: #000000; stroke-width: 0.8"/>
      </g>
     </g>
     <g id="text_6">
      <!-- 1.25 -->
      <g transform="translate(255.81355 377.358437) scale(0.1 -0.1)">
       <use xlink:href="#DejaVuSans-31"/>
       <use xlink:href="#DejaVuSans-2e" transform="translate(63.623047 0)"/>
       <use xlink:href="#DejaVuSans-32" transform="translate(95.410156 0)"/>
       <use xlink:href="#DejaVuSans-35" transform="translate(159.033203 0)"/>
      </g>
     </g>
    </g>
    <g id="xtick_7">
     <g id="line2d_7">
      <g>
       <use xlink:href="#mf672d50ac4" x="305.5432" y="362.76" style="stroke: #000000; stroke-width: 0.8"/>
      </g>
     </g>
     <g id="text_7">
      <!-- 1.50 -->
      <g transform="translate(294.410388 377.358437) scale(0.1 -0.1)">
       <use xlink:href="#DejaVuSans-31"/>
       <use xlink:href="#DejaVuSans-2e" transform="translate(63.623047 0)"/>
       <use xlink:href="#DejaVuSans-35" transform="translate(95.410156 0)"/>
       <use xlink:href="#DejaVuSans-30" transform="translate(159.033203 0)"/>
      </g>
     </g>
    </g>
    <g id="xtick_8">
     <g id="line2d_8">
      <g>
       <use xlink:href="#mf672d50ac4" x="344.140038" y="362.76" style="stroke: #000000; stroke-width: 0.8"/>
      </g>
     </g>
     <g id="text_8">
      <!-- 1.75 -->
      <g transform="translate(333.007226 377.358437) scale(0.1 -0.1)">
       <use xlink:href="#DejaVuSans-31"/>
       <use xlink:href="#DejaVuSans-2e" transform="translate(63.623047 0)"/>
       <use xlink:href="#DejaVuSans-37" transform="translate(95.410156 0)"/>
       <use xlink:href="#DejaVuSans-35" transform="translate(159.033203 0)"/>
      </g>
     </g>
    </g>
    <g id="xtick_9">
     <g id="line2d_9">
      <g>
       <use xlink:href="#mf672d50ac4" x="382.736876" y="362.76" style="stroke: #000000; stroke-width: 0.8"/>
      </g>
     </g>
     <g id="text_9">
      <!-- 2.00 -->
      <g transform="translate(371.604064 377.358437) scale(0.1 -0.1)">
       <use xlink:href="#DejaVuSans-32"/>
       <use xlink:href="#DejaVuSans-2e" transform="translate(63.623047 0)"/>
       <use xlink:href="#DejaVuSans-30" transform="translate(95.410156 0)"/>
       <use xlink:href="#DejaVuSans-30" transform="translate(159.033203 0)"/>
      </g>
     </g>
    </g>
    <g id="text_10">
     <!-- x -->
     <g transform="translate(225.390149 391.036562) scale(0.1 -0.1)">
      <defs>
       <path id="DejaVuSans-78" d="M 3513 3500 
L 2247 1797 
L 3578 0 
L 2900 0 
L 1881 1375 
L 863 0 
L 184 0 
L 1544 1831 
L 300 3500 
L 978 3500 
L 1906 2253 
L 2834 3500 
L 3513 3500 
z
" transform="scale(0.015625)"/>
      </defs>
      <use xlink:href="#DejaVuSans-78"/>
     </g>
    </g>
   </g>
   <g id="matplotlib.axis_2">
    <g id="ytick_1">
     <g id="line2d_10">
      <defs>
       <path id="mb69a9a0059" d="M 0 0 
L -3.5 0 
" style="stroke: #000000; stroke-width: 0.8"/>
      </defs>
      <g>
       <use xlink:href="#mb69a9a0059" x="58.523438" y="347.641481" style="stroke: #000000; stroke-width: 0.8"/>
      </g>
     </g>
     <g id="text_11">
      <!-- −1.00 -->
      <g transform="translate(20.878125 351.4407) scale(0.1 -0.1)">
       <defs>
        <path id="DejaVuSans-2212" d="M 678 2272 
L 4684 2272 
L 4684 1741 
L 678 1741 
L 678 2272 
z
" transform="scale(0.015625)"/>
       </defs>
       <use xlink:href="#DejaVuSans-2212"/>
       <use xlink:href="#DejaVuSans-31" transform="translate(83.789062 0)"/>
       <use xlink:href="#DejaVuSans-2e" transform="translate(147.412109 0)"/>
       <use xlink:href="#DejaVuSans-30" transform="translate(179.199219 0)"/>
       <use xlink:href="#DejaVuSans-30" transform="translate(242.822266 0)"/>
      </g>
     </g>
    </g>
    <g id="ytick_2">
     <g id="line2d_11">
      <g>
       <use xlink:href="#mb69a9a0059" x="58.523438" y="309.840462" style="stroke: #000000; stroke-width: 0.8"/>
      </g>
     </g>
     <g id="text_12">
      <!-- −0.75 -->
      <g transform="translate(20.878125 313.639681) scale(0.1 -0.1)">
       <use xlink:href="#DejaVuSans-2212"/>
       <use xlink:href="#DejaVuSans-30" transform="translate(83.789062 0)"/>
       <use xlink:href="#DejaVuSans-2e" transform="translate(147.412109 0)"/>
       <use xlink:href="#DejaVuSans-37" transform="translate(179.199219 0)"/>
       <use xlink:href="#DejaVuSans-35" transform="translate(242.822266 0)"/>
      </g>
     </g>
    </g>
    <g id="ytick_3">
     <g id="line2d_12">
      <g>
       <use xlink:href="#mb69a9a0059" x="58.523438" y="272.039443" style="stroke: #000000; stroke-width: 0.8"/>
      </g>
     </g>
     <g id="text_13">
      <!-- −0.50 -->
      <g transform="translate(20.878125 275.838662) scale(0.1 -0.1)">
       <use xlink:href="#DejaVuSans-2212"/>
       <use xlink:href="#DejaVuSans-30" transform="translate(83.789062 0)"/>
       <use xlink:href="#DejaVuSans-2e" transform="translate(147.412109 0)"/>
       <use xlink:href="#DejaVuSans-35" transform="translate(179.199219 0)"/>
       <use xlink:href="#DejaVuSans-30" transform="translate(242.822266 0)"/>
      </g>
     </g>
    </g>
    <g id="ytick_4">
     <g id="line2d_13">
      <g>
       <use xlink:href="#mb69a9a0059" x="58.523438" y="234.238424" style="stroke: #000000; stroke-width: 0.8"/>
      </g>
     </g>
     <g id="text_14">
      <!-- −0.25 -->
      <g transform="translate(20.878125 238.037643) scale(0.1 -0.1)">
       <use xlink:href="#DejaVuSans-2212"/>
       <use xlink:href="#DejaVuSans-30" transform="translate(83.789062 0)"/>
       <use xlink:href="#DejaVuSans-2e" transform="translate(147.412109 0)"/>
       <use xlink:href="#DejaVuSans-32" transform="translate(179.199219 0)"/>
       <use xlink:href="#DejaVuSans-35" transform="translate(242.822266 0)"/>
      </g>
     </g>
    </g>
    <g id="ytick_5">
     <g id="line2d_14">
      <g>
       <use xlink:href="#mb69a9a0059" x="58.523438" y="196.437405" style="stroke: #000000; stroke-width: 0.8"/>
      </g>
     </g>
     <g id="text_15">
      <!-- 0.00 -->
      <g transform="translate(29.257812 200.236624) scale(0.1 -0.1)">
       <use xlink:href="#DejaVuSans-30"/>
       <use xlink:href="#DejaVuSans-2e" transform="translate(63.623047 0)"/>
       <use xlink:href="#DejaVuSans-30" transform="translate(95.410156 0)"/>
       <use xlink:href="#DejaVuSans-30" transform="translate(159.033203 0)"/>
      </g>
     </g>
    </g>
    <g id="ytick_6">
     <g id="line2d_15">
      <g>
       <use xlink:href="#mb69a9a0059" x="58.523438" y="158.636387" style="stroke: #000000; stroke-width: 0.8"/>
      </g>
     </g>
     <g id="text_16">
      <!-- 0.25 -->
      <g transform="translate(29.257812 162.435605) scale(0.1 -0.1)">
       <use xlink:href="#DejaVuSans-30"/>
       <use xlink:href="#DejaVuSans-2e" transform="translate(63.623047 0)"/>
       <use xlink:href="#DejaVuSans-32" transform="translate(95.410156 0)"/>
       <use xlink:href="#DejaVuSans-35" transform="translate(159.033203 0)"/>
      </g>
     </g>
    </g>
    <g id="ytick_7">
     <g id="line2d_16">
      <g>
       <use xlink:href="#mb69a9a0059" x="58.523438" y="120.835368" style="stroke: #000000; stroke-width: 0.8"/>
      </g>
     </g>
     <g id="text_17">
      <!-- 0.50 -->
      <g transform="translate(29.257812 124.634586) scale(0.1 -0.1)">
       <use xlink:href="#DejaVuSans-30"/>
       <use xlink:href="#DejaVuSans-2e" transform="translate(63.623047 0)"/>
       <use xlink:href="#DejaVuSans-35" transform="translate(95.410156 0)"/>
       <use xlink:href="#DejaVuSans-30" transform="translate(159.033203 0)"/>
      </g>
     </g>
    </g>
    <g id="ytick_8">
     <g id="line2d_17">
      <g>
       <use xlink:href="#mb69a9a0059" x="58.523438" y="83.034349" style="stroke: #000000; stroke-width: 0.8"/>
      </g>
     </g>
     <g id="text_18">
      <!-- 0.75 -->
      <g transform="translate(29.257812 86.833568) scale(0.1 -0.1)">
       <use xlink:href="#DejaVuSans-30"/>
       <use xlink:href="#DejaVuSans-2e" transform="translate(63.623047 0)"/>
       <use xlink:href="#DejaVuSans-37" transform="translate(95.410156 0)"/>
       <use xlink:href="#DejaVuSans-35" transform="translate(159.033203 0)"/>
      </g>
     </g>
    </g>
    <g id="ytick_9">
     <g id="line2d_18">
      <g>
       <use xlink:href="#mb69a9a0059" x="58.523438" y="45.23333" style="stroke: #000000; stroke-width: 0.8"/>
      </g>
     </g>
     <g id="text_19">
      <!-- 1.00 -->
      <g transform="translate(29.257812 49.032549) scale(0.1 -0.1)">
       <use xlink:href="#DejaVuSans-31"/>
       <use xlink:href="#DejaVuSans-2e" transform="translate(63.623047 0)"/>
       <use xlink:href="#DejaVuSans-30" transform="translate(95.410156 0)"/>
       <use xlink:href="#DejaVuSans-30" transform="translate(159.033203 0)"/>
      </g>
     </g>
    </g>
    <g id="text_20">
     <!-- f(x) -->
     <g transform="translate(14.798437 205.061094) rotate(-90) scale(0.1 -0.1)">
      <defs>
       <path id="DejaVuSans-66" d="M 2375 4863 
L 2375 4384 
L 1825 4384 
Q 1516 4384 1395 4259 
Q 1275 4134 1275 3809 
L 1275 3500 
L 2222 3500 
L 2222 3053 
L 1275 3053 
L 1275 0 
L 697 0 
L 697 3053 
L 147 3053 
L 147 3500 
L 697 3500 
L 697 3744 
Q 697 4328 969 4595 
Q 1241 4863 1831 4863 
L 2375 4863 
z
" transform="scale(0.015625)"/>
       <path id="DejaVuSans-28" d="M 1984 4856 
Q 1566 4138 1362 3434 
Q 1159 2731 1159 2009 
Q 1159 1288 1364 580 
Q 1569 -128 1984 -844 
L 1484 -844 
Q 1016 -109 783 600 
Q 550 1309 550 2009 
Q 550 2706 781 3412 
Q 1013 4119 1484 4856 
L 1984 4856 
z
" transform="scale(0.015625)"/>
       <path id="DejaVuSans-29" d="M 513 4856 
L 1013 4856 
Q 1481 4119 1714 3412 
Q 1947 2706 1947 2009 
Q 1947 1309 1714 600 
Q 1481 -109 1013 -844 
L 513 -844 
Q 928 -128 1133 580 
Q 1338 1288 1338 2009 
Q 1338 2731 1133 3434 
Q 928 4138 513 4856 
z
" transform="scale(0.015625)"/>
      </defs>
      <use xlink:href="#DejaVuSans-66"/>
      <use xlink:href="#DejaVuSans-28" transform="translate(35.205078 0)"/>
      <use xlink:href="#DejaVuSans-78" transform="translate(74.21875 0)"/>
      <use xlink:href="#DejaVuSans-29" transform="translate(133.398438 0)"/>
     </g>
    </g>
   </g>
   <g id="line2d_19">
    <path d="M 73.962173 217.775326 
L 78.605401 248.585807 
L 81.700887 267.927248 
L 84.796373 285.862767 
L 87.117987 298.178346 
L 89.439601 309.367642 
L 91.761216 319.306789 
L 93.308959 325.183417 
L 94.856701 330.426284 
L 96.404444 335.009581 
L 97.952187 338.910747 
L 99.49993 342.110577 
L 101.047673 344.593321 
L 101.821544 345.561827 
L 102.595416 346.346757 
L 103.369287 346.947145 
L 104.143159 347.362253 
L 104.91703 347.591569 
L 105.690902 347.634811 
L 106.464773 347.491925 
L 107.238644 347.163089 
L 108.012516 346.648705 
L 108.786387 345.949408 
L 109.560259 345.066059 
L 111.108002 342.751778 
L 112.655745 339.717254 
L 114.203487 335.977424 
L 115.75123 331.550699 
L 117.298973 326.458869 
L 118.846716 320.726999 
L 121.16833 310.991668 
L 123.489945 299.988209 
L 125.811559 287.838432 
L 128.907045 270.08968 
L 132.00253 250.892478 
L 135.871888 225.436357 
L 149.027702 137.067468 
L 152.123188 118.197974 
L 155.218674 100.867141 
L 157.540288 89.085123 
L 159.861902 78.491507 
L 162.183517 69.203563 
L 163.731259 63.78838 
L 165.279002 59.026171 
L 166.826745 54.940379 
L 168.374488 51.551116 
L 169.922231 48.875066 
L 171.469974 46.925402 
L 172.243845 46.226106 
L 173.017717 45.711722 
L 173.791588 45.382885 
L 174.56546 45.24 
L 175.339331 45.283242 
L 176.113202 45.512558 
L 176.887074 45.927666 
L 177.660945 46.528054 
L 178.434817 47.312984 
L 179.208688 48.28149 
L 180.756431 50.764234 
L 182.304174 53.964064 
L 183.851917 57.86523 
L 185.39966 62.448527 
L 186.947403 67.691394 
L 188.495145 73.568022 
L 190.81676 83.507169 
L 193.138374 94.696465 
L 195.459988 107.012044 
L 198.555474 124.947563 
L 201.65096 144.289004 
L 205.520317 169.861384 
L 217.90226 253.184677 
L 220.997746 272.232538 
L 224.093232 289.789808 
L 226.414846 301.770554 
L 228.73646 312.585251 
L 231.058074 322.114179 
L 232.605817 327.699767 
L 234.15356 332.639207 
L 235.701303 336.908184 
L 237.249046 340.485684 
L 238.796789 343.354095 
L 240.344532 345.499299 
L 241.118403 346.297257 
L 241.892275 346.910735 
L 242.666146 347.338976 
L 243.440017 347.581455 
L 244.213889 347.637872 
L 244.98776 347.508158 
L 245.761632 347.192472 
L 246.535503 346.691204 
L 247.309375 346.00497 
L 248.083246 345.134615 
L 249.630989 342.846053 
L 251.178732 339.836784 
L 252.726475 336.121622 
L 254.274218 331.718854 
L 255.82196 326.650154 
L 257.369703 320.940472 
L 259.691318 311.23642 
L 262.012932 300.261531 
L 264.334546 288.137298 
L 266.656161 274.997937 
L 269.751646 256.152524 
L 273.621004 230.990052 
L 279.811975 188.857997 
L 285.229075 152.366119 
L 289.098432 127.797344 
L 292.193918 109.625327 
L 294.515532 97.098354 
L 296.837147 85.671075 
L 299.158761 75.469991 
L 300.706504 69.406852 
L 302.254247 63.969029 
L 303.80199 59.183292 
L 305.349732 55.073197 
L 306.897475 51.658978 
L 308.445218 48.957442 
L 309.992961 46.981886 
L 310.766833 46.269531 
L 311.540704 45.742035 
L 312.314575 45.400049 
L 313.088447 45.243993 
L 313.862318 45.27406 
L 314.63619 45.490212 
L 315.410061 45.892183 
L 316.183933 46.479479 
L 316.957804 47.251376 
L 317.731675 48.206925 
L 319.279418 50.664045 
L 320.827161 53.838746 
L 322.374904 57.715399 
L 323.922647 62.27492 
L 325.47039 67.494866 
L 327.018133 73.349541 
L 329.339747 83.257807 
L 331.661361 94.418982 
L 333.982976 106.709512 
L 337.078461 124.616884 
L 340.173947 143.936683 
L 344.043304 169.491789 
L 356.425247 252.836429 
L 359.520733 271.907369 
L 362.616219 289.494114 
L 364.937833 301.500817 
L 367.259447 312.344458 
L 369.581062 321.904995 
L 371.128805 327.512966 
L 372.676548 332.475708 
L 374.22429 336.768791 
L 375.772033 340.371083 
L 377.319776 343.264852 
L 378.867519 345.435852 
L 379.64139 346.246833 
L 380.415262 346.873396 
L 381.189133 347.314769 
L 381.963005 347.570408 
L 382.736876 347.64 
L 382.736876 347.64 
" clip-path="url(#p7d51c4a975)" style="fill: none; stroke: #000080; stroke-width: 1.5; stroke-linecap: square"/>
   </g>
   <g id="patch_3">
    <path d="M 58.523438 362.76 
L 58.523438 30.12 
" style="fill: none; stroke: #000000; stroke-width: 0.8; stroke-linejoin: miter; stroke-linecap: square"/>
   </g>
   <g id="patch_4">
    <path d="M 398.175611 362.76 
L 398.175611 30.12 
" style="fill: none; stroke: #000000; stroke-width: 0.8; stroke-linejoin: miter; stroke-linecap: square"/>
   </g>
   <g id="patch_5">
    <path d="M 58.523438 362.76 
L 398.175611 362.76 
" style="fill: none; stroke: #000000; stroke-width: 0.8; stroke-linejoin: miter; stroke-linecap: square"/>
   </g>
   <g id="patch_6">
    <path d="M 58.523438 30.12 
L 398.175611 30.12 
" style="fill: none; stroke: #000000; stroke-width: 0.8; stroke-linejoin: miter; stroke-linecap: square"/>
   </g>
   <g id="text_21">
    <!-- Visualization $\int_0^1 7x-3$ -->
    <g transform="translate(161.929524 23.76) scale(0.12 -0.12)">
     <defs>
      <path id="DejaVuSans-56" d="M 1831 0 
L 50 4666 
L 709 4666 
L 2188 738 
L 3669 4666 
L 4325 4666 
L 2547 0 
L 1831 0 
z
" transform="scale(0.015625)"/>
      <path id="DejaVuSans-69" d="M 603 3500 
L 1178 3500 
L 1178 0 
L 603 0 
L 603 3500 
z
M 603 4863 
L 1178 4863 
L 1178 4134 
L 603 4134 
L 603 4863 
z
" transform="scale(0.015625)"/>
      <path id="DejaVuSans-73" d="M 2834 3397 
L 2834 2853 
Q 2591 2978 2328 3040 
Q 2066 3103 1784 3103 
Q 1356 3103 1142 2972 
Q 928 2841 928 2578 
Q 928 2378 1081 2264 
Q 1234 2150 1697 2047 
L 1894 2003 
Q 2506 1872 2764 1633 
Q 3022 1394 3022 966 
Q 3022 478 2636 193 
Q 2250 -91 1575 -91 
Q 1294 -91 989 -36 
Q 684 19 347 128 
L 347 722 
Q 666 556 975 473 
Q 1284 391 1588 391 
Q 1994 391 2212 530 
Q 2431 669 2431 922 
Q 2431 1156 2273 1281 
Q 2116 1406 1581 1522 
L 1381 1569 
Q 847 1681 609 1914 
Q 372 2147 372 2553 
Q 372 3047 722 3315 
Q 1072 3584 1716 3584 
Q 2034 3584 2315 3537 
Q 2597 3491 2834 3397 
z
" transform="scale(0.015625)"/>
      <path id="DejaVuSans-75" d="M 544 1381 
L 544 3500 
L 1119 3500 
L 1119 1403 
Q 1119 906 1312 657 
Q 1506 409 1894 409 
Q 2359 409 2629 706 
Q 2900 1003 2900 1516 
L 2900 3500 
L 3475 3500 
L 3475 0 
L 2900 0 
L 2900 538 
Q 2691 219 2414 64 
Q 2138 -91 1772 -91 
Q 1169 -91 856 284 
Q 544 659 544 1381 
z
M 1991 3584 
L 1991 3584 
z
" transform="scale(0.015625)"/>
      <path id="DejaVuSans-61" d="M 2194 1759 
Q 1497 1759 1228 1600 
Q 959 1441 959 1056 
Q 959 750 1161 570 
Q 1363 391 1709 391 
Q 2188 391 2477 730 
Q 2766 1069 2766 1631 
L 2766 1759 
L 2194 1759 
z
M 3341 1997 
L 3341 0 
L 2766 0 
L 2766 531 
Q 2569 213 2275 61 
Q 1981 -91 1556 -91 
Q 1019 -91 701 211 
Q 384 513 384 1019 
Q 384 1609 779 1909 
Q 1175 2209 1959 2209 
L 2766 2209 
L 2766 2266 
Q 2766 2663 2505 2880 
Q 2244 3097 1772 3097 
Q 1472 3097 1187 3025 
Q 903 2953 641 2809 
L 641 3341 
Q 956 3463 1253 3523 
Q 1550 3584 1831 3584 
Q 2591 3584 2966 3190 
Q 3341 2797 3341 1997 
z
" transform="scale(0.015625)"/>
      <path id="DejaVuSans-6c" d="M 603 4863 
L 1178 4863 
L 1178 0 
L 603 0 
L 603 4863 
z
" transform="scale(0.015625)"/>
      <path id="DejaVuSans-7a" d="M 353 3500 
L 3084 3500 
L 3084 2975 
L 922 459 
L 3084 459 
L 3084 0 
L 275 0 
L 275 525 
L 2438 3041 
L 353 3041 
L 353 3500 
z
" transform="scale(0.015625)"/>
      <path id="DejaVuSans-74" d="M 1172 4494 
L 1172 3500 
L 2356 3500 
L 2356 3053 
L 1172 3053 
L 1172 1153 
Q 1172 725 1289 603 
Q 1406 481 1766 481 
L 2356 481 
L 2356 0 
L 1766 0 
Q 1100 0 847 248 
Q 594 497 594 1153 
L 594 3053 
L 172 3053 
L 172 3500 
L 594 3500 
L 594 4494 
L 1172 4494 
z
" transform="scale(0.015625)"/>
      <path id="DejaVuSans-6f" d="M 1959 3097 
Q 1497 3097 1228 2736 
Q 959 2375 959 1747 
Q 959 1119 1226 758 
Q 1494 397 1959 397 
Q 2419 397 2687 759 
Q 2956 1122 2956 1747 
Q 2956 2369 2687 2733 
Q 2419 3097 1959 3097 
z
M 1959 3584 
Q 2709 3584 3137 3096 
Q 3566 2609 3566 1747 
Q 3566 888 3137 398 
Q 2709 -91 1959 -91 
Q 1206 -91 779 398 
Q 353 888 353 1747 
Q 353 2609 779 3096 
Q 1206 3584 1959 3584 
z
" transform="scale(0.015625)"/>
      <path id="DejaVuSans-6e" d="M 3513 2113 
L 3513 0 
L 2938 0 
L 2938 2094 
Q 2938 2591 2744 2837 
Q 2550 3084 2163 3084 
Q 1697 3084 1428 2787 
Q 1159 2491 1159 1978 
L 1159 0 
L 581 0 
L 581 3500 
L 1159 3500 
L 1159 2956 
Q 1366 3272 1645 3428 
Q 1925 3584 2291 3584 
Q 2894 3584 3203 3211 
Q 3513 2838 3513 2113 
z
" transform="scale(0.015625)"/>
      <path id="DejaVuSans-20" transform="scale(0.015625)"/>
      <path id="DejaVuSansDisplay-222b" d="M 2134 5525 
Q 2172 6263 2528 6556 
Q 2884 6850 3218 6850 
Q 3553 6850 3833 6575 
Q 4113 6300 4200 5678 
L 3544 5613 
Q 3469 6188 3219 6188 
Q 2906 6188 2869 5413 
L 2581 -597 
Q 2547 -1334 2187 -1628 
Q 1828 -1922 1497 -1922 
Q 1163 -1922 883 -1647 
Q 603 -1372 516 -750 
L 1172 -684 
Q 1247 -1259 1497 -1259 
Q 1809 -1259 1847 -488 
L 2134 5525 
z
" transform="scale(0.015625)"/>
      <path id="DejaVuSans-Oblique-78" d="M 3841 3500 
L 2234 1784 
L 3219 0 
L 2559 0 
L 1819 1388 
L 531 0 
L -166 0 
L 1556 1844 
L 641 3500 
L 1300 3500 
L 1972 2234 
L 3144 3500 
L 3841 3500 
z
" transform="scale(0.015625)"/>
      <path id="DejaVuSans-33" d="M 2597 2516 
Q 3050 2419 3304 2112 
Q 3559 1806 3559 1356 
Q 3559 666 3084 287 
Q 2609 -91 1734 -91 
Q 1441 -91 1130 -33 
Q 819 25 488 141 
L 488 750 
Q 750 597 1062 519 
Q 1375 441 1716 441 
Q 2309 441 2620 675 
Q 2931 909 2931 1356 
Q 2931 1769 2642 2001 
Q 2353 2234 1838 2234 
L 1294 2234 
L 1294 2753 
L 1863 2753 
Q 2328 2753 2575 2939 
Q 2822 3125 2822 3475 
Q 2822 3834 2567 4026 
Q 2313 4219 1838 4219 
Q 1578 4219 1281 4162 
Q 984 4106 628 3988 
L 628 4550 
Q 988 4650 1302 4700 
Q 1616 4750 1894 4750 
Q 2613 4750 3031 4423 
Q 3450 4097 3450 3541 
Q 3450 3153 3228 2886 
Q 3006 2619 2597 2516 
z
" transform="scale(0.015625)"/>
     </defs>
     <use xlink:href="#DejaVuSans-56" transform="translate(0 0.809375)"/>
     <use xlink:href="#DejaVuSans-69" transform="translate(68.408203 0.809375)"/>
     <use xlink:href="#DejaVuSans-73" transform="translate(96.191406 0.809375)"/>
     <use xlink:href="#DejaVuSans-75" transform="translate(148.291016 0.809375)"/>
     <use xlink:href="#DejaVuSans-61" transform="translate(211.669922 0.809375)"/>
     <use xlink:href="#DejaVuSans-6c" transform="translate(272.949219 0.809375)"/>
     <use xlink:href="#DejaVuSans-69" transform="translate(300.732422 0.809375)"/>
     <use xlink:href="#DejaVuSans-7a" transform="translate(328.515625 0.809375)"/>
     <use xlink:href="#DejaVuSans-61" transform="translate(381.005859 0.809375)"/>
     <use xlink:href="#DejaVuSans-74" transform="translate(442.285156 0.809375)"/>
     <use xlink:href="#DejaVuSans-69" transform="translate(481.494141 0.809375)"/>
     <use xlink:href="#DejaVuSans-6f" transform="translate(509.277344 0.809375)"/>
     <use xlink:href="#DejaVuSans-6e" transform="translate(570.458984 0.809375)"/>
     <use xlink:href="#DejaVuSans-20" transform="translate(633.837891 0.809375)"/>
     <use xlink:href="#DejaVuSansDisplay-222b" transform="translate(665.625 0.809375)"/>
     <use xlink:href="#DejaVuSans-31" transform="translate(752.369141 85.965625) scale(0.7)"/>
     <use xlink:href="#DejaVuSans-30" transform="translate(737.384766 -51.096875) scale(0.7)"/>
     <use xlink:href="#DejaVuSans-37" transform="translate(796.905273 0.809375)"/>
     <use xlink:href="#DejaVuSans-Oblique-78" transform="translate(860.52832 0.809375)"/>
     <use xlink:href="#DejaVuSans-2212" transform="translate(939.19043 0.809375)"/>
     <use xlink:href="#DejaVuSans-33" transform="translate(1042.461914 0.809375)"/>
    </g>
   </g>
   <g id="legend_1">
    <g id="patch_7">
     <path d="M 65.523438 52.798125 
L 154.9375 52.798125 
Q 156.9375 52.798125 156.9375 50.798125 
L 156.9375 37.12 
Q 156.9375 35.12 154.9375 35.12 
L 65.523438 35.12 
Q 63.523438 35.12 63.523438 37.12 
L 63.523438 50.798125 
Q 63.523438 52.798125 65.523438 52.798125 
z
" style="fill: #ffffff; opacity: 0.8; stroke: #cccccc; stroke-linejoin: miter"/>
    </g>
    <g id="line2d_20">
     <path d="M 67.523438 43.218437 
L 77.523438 43.218437 
L 87.523438 43.218437 
" style="fill: none; stroke: #000080; stroke-width: 1.5; stroke-linecap: square"/>
    </g>
    <g id="text_22">
     <!-- $f(x)= 7x-3 -->
     <g transform="translate(95.523438 46.718437) scale(0.1 -0.1)">
      <defs>
       <path id="DejaVuSans-24" d="M 2163 -941 
L 1850 -941 
L 1847 0 
Q 1519 6 1191 76 
Q 863 147 531 288 
L 531 850 
Q 850 650 1176 548 
Q 1503 447 1850 444 
L 1850 1869 
Q 1159 1981 845 2250 
Q 531 2519 531 2988 
Q 531 3497 872 3790 
Q 1213 4084 1850 4128 
L 1850 4863 
L 2163 4863 
L 2163 4138 
Q 2453 4125 2725 4076 
Q 2997 4028 3256 3944 
L 3256 3397 
Q 2997 3528 2723 3600 
Q 2450 3672 2163 3684 
L 2163 2350 
Q 2872 2241 3206 1959 
Q 3541 1678 3541 1191 
Q 3541 663 3186 358 
Q 2831 53 2163 6 
L 2163 -941 
z
M 1850 2406 
L 1850 3688 
Q 1488 3647 1297 3481 
Q 1106 3316 1106 3041 
Q 1106 2772 1282 2622 
Q 1459 2472 1850 2406 
z
M 2163 1806 
L 2163 453 
Q 2559 506 2761 678 
Q 2963 850 2963 1131 
Q 2963 1406 2770 1568 
Q 2578 1731 2163 1806 
z
" transform="scale(0.015625)"/>
       <path id="DejaVuSans-3d" d="M 678 2906 
L 4684 2906 
L 4684 2381 
L 678 2381 
L 678 2906 
z
M 678 1631 
L 4684 1631 
L 4684 1100 
L 678 1100 
L 678 1631 
z
" transform="scale(0.015625)"/>
       <path id="DejaVuSans-2d" d="M 313 2009 
L 1997 2009 
L 1997 1497 
L 313 1497 
L 313 2009 
z
" transform="scale(0.015625)"/>
      </defs>
      <use xlink:href="#DejaVuSans-24"/>
      <use xlink:href="#DejaVuSans-66" transform="translate(63.623047 0)"/>
      <use xlink:href="#DejaVuSans-28" transform="translate(98.828125 0)"/>
      <use xlink:href="#DejaVuSans-78" transform="translate(137.841797 0)"/>
      <use xlink:href="#DejaVuSans-29" transform="translate(197.021484 0)"/>
      <use xlink:href="#DejaVuSans-3d" transform="translate(236.035156 0)"/>
      <use xlink:href="#DejaVuSans-20" transform="translate(319.824219 0)"/>
      <use xlink:href="#DejaVuSans-37" transform="translate(351.611328 0)"/>
      <use xlink:href="#DejaVuSans-78" transform="translate(415.234375 0)"/>
      <use xlink:href="#DejaVuSans-2d" transform="translate(474.414062 0)"/>
      <use xlink:href="#DejaVuSans-33" transform="translate(510.498047 0)"/>
     </g>
    </g>
   </g>
  </g>
  <g id="axes_2">
   <g id="patch_8">
    <path d="M 466.106046 362.76 
L 805.75822 362.76 
L 805.75822 30.12 
L 466.106046 30.12 
z
" style="fill: #ffffff"/>
   </g>
   <g id="matplotlib.axis_3">
    <g id="xtick_10">
     <g id="line2d_21">
      <g>
       <use xlink:href="#mf672d50ac4" x="481.544781" y="362.76" style="stroke: #000000; stroke-width: 0.8"/>
      </g>
     </g>
     <g id="text_23">
      <!-- 0.00 -->
      <g transform="translate(470.411969 377.358437) scale(0.1 -0.1)">
       <use xlink:href="#DejaVuSans-30"/>
       <use xlink:href="#DejaVuSans-2e" transform="translate(63.623047 0)"/>
       <use xlink:href="#DejaVuSans-30" transform="translate(95.410156 0)"/>
       <use xlink:href="#DejaVuSans-30" transform="translate(159.033203 0)"/>
      </g>
     </g>
    </g>
    <g id="xtick_11">
     <g id="line2d_22">
      <g>
       <use xlink:href="#mf672d50ac4" x="520.141619" y="362.76" style="stroke: #000000; stroke-width: 0.8"/>
      </g>
     </g>
     <g id="text_24">
      <!-- 0.25 -->
      <g transform="translate(509.008807 377.358437) scale(0.1 -0.1)">
       <use xlink:href="#DejaVuSans-30"/>
       <use xlink:href="#DejaVuSans-2e" transform="translate(63.623047 0)"/>
       <use xlink:href="#DejaVuSans-32" transform="translate(95.410156 0)"/>
       <use xlink:href="#DejaVuSans-35" transform="translate(159.033203 0)"/>
      </g>
     </g>
    </g>
    <g id="xtick_12">
     <g id="line2d_23">
      <g>
       <use xlink:href="#mf672d50ac4" x="558.738457" y="362.76" style="stroke: #000000; stroke-width: 0.8"/>
      </g>
     </g>
     <g id="text_25">
      <!-- 0.50 -->
      <g transform="translate(547.605645 377.358437) scale(0.1 -0.1)">
       <use xlink:href="#DejaVuSans-30"/>
       <use xlink:href="#DejaVuSans-2e" transform="translate(63.623047 0)"/>
       <use xlink:href="#DejaVuSans-35" transform="translate(95.410156 0)"/>
       <use xlink:href="#DejaVuSans-30" transform="translate(159.033203 0)"/>
      </g>
     </g>
    </g>
    <g id="xtick_13">
     <g id="line2d_24">
      <g>
       <use xlink:href="#mf672d50ac4" x="597.335295" y="362.76" style="stroke: #000000; stroke-width: 0.8"/>
      </g>
     </g>
     <g id="text_26">
      <!-- 0.75 -->
      <g transform="translate(586.202483 377.358437) scale(0.1 -0.1)">
       <use xlink:href="#DejaVuSans-30"/>
       <use xlink:href="#DejaVuSans-2e" transform="translate(63.623047 0)"/>
       <use xlink:href="#DejaVuSans-37" transform="translate(95.410156 0)"/>
       <use xlink:href="#DejaVuSans-35" transform="translate(159.033203 0)"/>
      </g>
     </g>
    </g>
    <g id="xtick_14">
     <g id="line2d_25">
      <g>
       <use xlink:href="#mf672d50ac4" x="635.932133" y="362.76" style="stroke: #000000; stroke-width: 0.8"/>
      </g>
     </g>
     <g id="text_27">
      <!-- 1.00 -->
      <g transform="translate(624.799321 377.358437) scale(0.1 -0.1)">
       <use xlink:href="#DejaVuSans-31"/>
       <use xlink:href="#DejaVuSans-2e" transform="translate(63.623047 0)"/>
       <use xlink:href="#DejaVuSans-30" transform="translate(95.410156 0)"/>
       <use xlink:href="#DejaVuSans-30" transform="translate(159.033203 0)"/>
      </g>
     </g>
    </g>
    <g id="xtick_15">
     <g id="line2d_26">
      <g>
       <use xlink:href="#mf672d50ac4" x="674.528971" y="362.76" style="stroke: #000000; stroke-width: 0.8"/>
      </g>
     </g>
     <g id="text_28">
      <!-- 1.25 -->
      <g transform="translate(663.396159 377.358437) scale(0.1 -0.1)">
       <use xlink:href="#DejaVuSans-31"/>
       <use xlink:href="#DejaVuSans-2e" transform="translate(63.623047 0)"/>
       <use xlink:href="#DejaVuSans-32" transform="translate(95.410156 0)"/>
       <use xlink:href="#DejaVuSans-35" transform="translate(159.033203 0)"/>
      </g>
     </g>
    </g>
    <g id="xtick_16">
     <g id="line2d_27">
      <g>
       <use xlink:href="#mf672d50ac4" x="713.125809" y="362.76" style="stroke: #000000; stroke-width: 0.8"/>
      </g>
     </g>
     <g id="text_29">
      <!-- 1.50 -->
      <g transform="translate(701.992997 377.358437) scale(0.1 -0.1)">
       <use xlink:href="#DejaVuSans-31"/>
       <use xlink:href="#DejaVuSans-2e" transform="translate(63.623047 0)"/>
       <use xlink:href="#DejaVuSans-35" transform="translate(95.410156 0)"/>
       <use xlink:href="#DejaVuSans-30" transform="translate(159.033203 0)"/>
      </g>
     </g>
    </g>
    <g id="xtick_17">
     <g id="line2d_28">
      <g>
       <use xlink:href="#mf672d50ac4" x="751.722647" y="362.76" style="stroke: #000000; stroke-width: 0.8"/>
      </g>
     </g>
     <g id="text_30">
      <!-- 1.75 -->
      <g transform="translate(740.589834 377.358437) scale(0.1 -0.1)">
       <use xlink:href="#DejaVuSans-31"/>
       <use xlink:href="#DejaVuSans-2e" transform="translate(63.623047 0)"/>
       <use xlink:href="#DejaVuSans-37" transform="translate(95.410156 0)"/>
       <use xlink:href="#DejaVuSans-35" transform="translate(159.033203 0)"/>
      </g>
     </g>
    </g>
    <g id="xtick_18">
     <g id="line2d_29">
      <g>
       <use xlink:href="#mf672d50ac4" x="790.319485" y="362.76" style="stroke: #000000; stroke-width: 0.8"/>
      </g>
     </g>
     <g id="text_31">
      <!-- 2.00 -->
      <g transform="translate(779.186672 377.358437) scale(0.1 -0.1)">
       <use xlink:href="#DejaVuSans-32"/>
       <use xlink:href="#DejaVuSans-2e" transform="translate(63.623047 0)"/>
       <use xlink:href="#DejaVuSans-30" transform="translate(95.410156 0)"/>
       <use xlink:href="#DejaVuSans-30" transform="translate(159.033203 0)"/>
      </g>
     </g>
    </g>
    <g id="text_32">
     <!-- x -->
     <g transform="translate(632.972758 391.036562) scale(0.1 -0.1)">
      <use xlink:href="#DejaVuSans-78"/>
     </g>
    </g>
   </g>
   <g id="matplotlib.axis_4">
    <g id="ytick_10">
     <g id="line2d_30">
      <g>
       <use xlink:href="#mb69a9a0059" x="466.106046" y="348.391437" style="stroke: #000000; stroke-width: 0.8"/>
      </g>
     </g>
     <g id="text_33">
      <!-- 0 -->
      <g transform="translate(452.743546 352.190656) scale(0.1 -0.1)">
       <use xlink:href="#DejaVuSans-30"/>
      </g>
     </g>
    </g>
    <g id="ytick_11">
     <g id="line2d_31">
      <g>
       <use xlink:href="#mb69a9a0059" x="466.106046" y="292.867315" style="stroke: #000000; stroke-width: 0.8"/>
      </g>
     </g>
     <g id="text_34">
      <!-- 10 -->
      <g transform="translate(446.381046 296.666533) scale(0.1 -0.1)">
       <use xlink:href="#DejaVuSans-31"/>
       <use xlink:href="#DejaVuSans-30" transform="translate(63.623047 0)"/>
      </g>
     </g>
    </g>
    <g id="ytick_12">
     <g id="line2d_32">
      <g>
       <use xlink:href="#mb69a9a0059" x="466.106046" y="237.343192" style="stroke: #000000; stroke-width: 0.8"/>
      </g>
     </g>
     <g id="text_35">
      <!-- 20 -->
      <g transform="translate(446.381046 241.142411) scale(0.1 -0.1)">
       <use xlink:href="#DejaVuSans-32"/>
       <use xlink:href="#DejaVuSans-30" transform="translate(63.623047 0)"/>
      </g>
     </g>
    </g>
    <g id="ytick_13">
     <g id="line2d_33">
      <g>
       <use xlink:href="#mb69a9a0059" x="466.106046" y="181.81907" style="stroke: #000000; stroke-width: 0.8"/>
      </g>
     </g>
     <g id="text_36">
      <!-- 30 -->
      <g transform="translate(446.381046 185.618288) scale(0.1 -0.1)">
       <use xlink:href="#DejaVuSans-33"/>
       <use xlink:href="#DejaVuSans-30" transform="translate(63.623047 0)"/>
      </g>
     </g>
    </g>
    <g id="ytick_14">
     <g id="line2d_34">
      <g>
       <use xlink:href="#mb69a9a0059" x="466.106046" y="126.294947" style="stroke: #000000; stroke-width: 0.8"/>
      </g>
     </g>
     <g id="text_37">
      <!-- 40 -->
      <g transform="translate(446.381046 130.094166) scale(0.1 -0.1)">
       <defs>
        <path id="DejaVuSans-34" d="M 2419 4116 
L 825 1625 
L 2419 1625 
L 2419 4116 
z
M 2253 4666 
L 3047 4666 
L 3047 1625 
L 3713 1625 
L 3713 1100 
L 3047 1100 
L 3047 0 
L 2419 0 
L 2419 1100 
L 313 1100 
L 313 1709 
L 2253 4666 
z
" transform="scale(0.015625)"/>
       </defs>
       <use xlink:href="#DejaVuSans-34"/>
       <use xlink:href="#DejaVuSans-30" transform="translate(63.623047 0)"/>
      </g>
     </g>
    </g>
    <g id="ytick_15">
     <g id="line2d_35">
      <g>
       <use xlink:href="#mb69a9a0059" x="466.106046" y="70.770825" style="stroke: #000000; stroke-width: 0.8"/>
      </g>
     </g>
     <g id="text_38">
      <!-- 50 -->
      <g transform="translate(446.381046 74.570043) scale(0.1 -0.1)">
       <use xlink:href="#DejaVuSans-35"/>
       <use xlink:href="#DejaVuSans-30" transform="translate(63.623047 0)"/>
      </g>
     </g>
    </g>
    <g id="text_39">
     <!-- f(x) -->
     <g transform="translate(440.301359 205.061094) rotate(-90) scale(0.1 -0.1)">
      <use xlink:href="#DejaVuSans-66"/>
      <use xlink:href="#DejaVuSans-28" transform="translate(35.205078 0)"/>
      <use xlink:href="#DejaVuSans-78" transform="translate(74.21875 0)"/>
      <use xlink:href="#DejaVuSans-29" transform="translate(133.398438 0)"/>
     </g>
    </g>
   </g>
   <g id="line2d_36">
    <path d="M 481.544781 347.64 
L 507.082539 347.157175 
L 527.203196 346.566674 
L 544.228368 345.851149 
L 558.931925 345.011045 
L 571.313868 344.09153 
L 582.92194 343.003529 
L 592.982268 341.840252 
L 602.268726 340.544705 
L 610.781311 339.133228 
L 618.520026 337.630888 
L 625.484869 336.071425 
L 632.449712 334.285958 
L 638.640683 332.48277 
L 644.831655 330.44907 
L 650.248755 328.457414 
L 655.665855 326.244679 
L 661.082955 323.786324 
L 666.500055 321.055084 
L 671.143284 318.473955 
L 675.786512 315.649113 
L 680.429741 312.557546 
L 685.072969 309.17407 
L 689.716198 305.471122 
L 693.585555 302.119613 
L 697.454912 298.506395 
L 701.32427 294.611033 
L 705.193627 290.411495 
L 709.062984 285.884028 
L 712.932341 281.003025 
L 716.801698 275.740881 
L 720.671056 270.067833 
L 724.540413 263.951795 
L 728.40977 257.358175 
L 732.279127 250.249681 
L 736.148484 242.586107 
L 740.017841 234.32411 
L 743.887199 225.41696 
L 747.756556 215.814279 
L 751.625913 205.461755 
L 754.721399 196.600653 
L 757.816885 187.190197 
L 760.91237 177.196327 
L 764.007856 166.582875 
L 767.103342 155.311429 
L 770.198828 143.341196 
L 773.294313 130.628853 
L 776.389799 117.128393 
L 779.485285 102.790956 
L 782.580771 87.564651 
L 785.676256 71.394372 
L 788.771742 54.221598 
L 790.319485 45.24 
L 790.319485 45.24 
" clip-path="url(#pfd71eaae1e)" style="fill: none; stroke: #2ca02c; stroke-width: 1.5; stroke-linecap: square"/>
   </g>
   <g id="patch_9">
    <path d="M 466.106046 362.76 
L 466.106046 30.12 
" style="fill: none; stroke: #000000; stroke-width: 0.8; stroke-linejoin: miter; stroke-linecap: square"/>
   </g>
   <g id="patch_10">
    <path d="M 805.75822 362.76 
L 805.75822 30.12 
" style="fill: none; stroke: #000000; stroke-width: 0.8; stroke-linejoin: miter; stroke-linecap: square"/>
   </g>
   <g id="patch_11">
    <path d="M 466.106046 362.76 
L 805.75822 362.76 
" style="fill: none; stroke: #000000; stroke-width: 0.8; stroke-linejoin: miter; stroke-linecap: square"/>
   </g>
   <g id="patch_12">
    <path d="M 466.106046 30.12 
L 805.75822 30.12 
" style="fill: none; stroke: #000000; stroke-width: 0.8; stroke-linejoin: miter; stroke-linecap: square"/>
   </g>
   <g id="text_40">
    <!--  Visualization $\int_0^1 e^{3x-2}$ -->
    <g transform="translate(569.032133 23.76) scale(0.12 -0.12)">
     <defs>
      <path id="DejaVuSans-Oblique-65" d="M 3078 2063 
Q 3088 2113 3092 2166 
Q 3097 2219 3097 2272 
Q 3097 2653 2873 2875 
Q 2650 3097 2266 3097 
Q 1838 3097 1509 2826 
Q 1181 2556 1013 2059 
L 3078 2063 
z
M 3578 1613 
L 903 1613 
Q 884 1494 878 1425 
Q 872 1356 872 1306 
Q 872 872 1139 634 
Q 1406 397 1894 397 
Q 2269 397 2603 481 
Q 2938 566 3225 728 
L 3116 159 
Q 2806 34 2476 -28 
Q 2147 -91 1806 -91 
Q 1078 -91 686 257 
Q 294 606 294 1247 
Q 294 1794 489 2264 
Q 684 2734 1063 3103 
Q 1306 3334 1642 3459 
Q 1978 3584 2356 3584 
Q 2950 3584 3301 3228 
Q 3653 2872 3653 2272 
Q 3653 2128 3634 1964 
Q 3616 1800 3578 1613 
z
" transform="scale(0.015625)"/>
     </defs>
     <use xlink:href="#DejaVuSans-20" transform="translate(0 0.809375)"/>
     <use xlink:href="#DejaVuSans-56" transform="translate(31.787109 0.809375)"/>
     <use xlink:href="#DejaVuSans-69" transform="translate(100.195312 0.809375)"/>
     <use xlink:href="#DejaVuSans-73" transform="translate(127.978516 0.809375)"/>
     <use xlink:href="#DejaVuSans-75" transform="translate(180.078125 0.809375)"/>
     <use xlink:href="#DejaVuSans-61" transform="translate(243.457031 0.809375)"/>
     <use xlink:href="#DejaVuSans-6c" transform="translate(304.736328 0.809375)"/>
     <use xlink:href="#DejaVuSans-69" transform="translate(332.519531 0.809375)"/>
     <use xlink:href="#DejaVuSans-7a" transform="translate(360.302734 0.809375)"/>
     <use xlink:href="#DejaVuSans-61" transform="translate(412.792969 0.809375)"/>
     <use xlink:href="#DejaVuSans-74" transform="translate(474.072266 0.809375)"/>
     <use xlink:href="#DejaVuSans-69" transform="translate(513.28125 0.809375)"/>
     <use xlink:href="#DejaVuSans-6f" transform="translate(541.064453 0.809375)"/>
     <use xlink:href="#DejaVuSans-6e" transform="translate(602.246094 0.809375)"/>
     <use xlink:href="#DejaVuSans-20" transform="translate(665.625 0.809375)"/>
     <use xlink:href="#DejaVuSansDisplay-222b" transform="translate(697.412109 0.809375)"/>
     <use xlink:href="#DejaVuSans-31" transform="translate(784.15625 85.965625) scale(0.7)"/>
     <use xlink:href="#DejaVuSans-30" transform="translate(769.171875 -51.096875) scale(0.7)"/>
     <use xlink:href="#DejaVuSans-Oblique-65" transform="translate(828.692383 0.809375)"/>
     <use xlink:href="#DejaVuSans-33" transform="translate(894.865716 39.090625) scale(0.7)"/>
     <use xlink:href="#DejaVuSans-Oblique-78" transform="translate(939.401849 39.090625) scale(0.7)"/>
     <use xlink:href="#DejaVuSans-2212" transform="translate(994.465326 39.090625) scale(0.7)"/>
     <use xlink:href="#DejaVuSans-32" transform="translate(1066.755365 39.090625) scale(0.7)"/>
    </g>
   </g>
   <g id="legend_2">
    <g id="patch_13">
     <path d="M 473.106046 53.62 
L 563.206046 53.62 
Q 565.206046 53.62 565.206046 51.62 
L 565.206046 37.12 
Q 565.206046 35.12 563.206046 35.12 
L 473.106046 35.12 
Q 471.106046 35.12 471.106046 37.12 
L 471.106046 51.62 
Q 471.106046 53.62 473.106046 53.62 
z
" style="fill: #ffffff; opacity: 0.8; stroke: #cccccc; stroke-linejoin: miter"/>
    </g>
    <g id="line2d_37">
     <path d="M 475.106046 44.040312 
L 485.106046 44.040312 
L 495.106046 44.040312 
" style="fill: none; stroke: #2ca02c; stroke-width: 1.5; stroke-linecap: square"/>
    </g>
    <g id="text_41">
     <!-- $f(x)= e^{3x-2}$ -->
     <g transform="translate(503.106046 47.540312) scale(0.1 -0.1)">
      <defs>
       <path id="DejaVuSans-Oblique-66" d="M 3059 4863 
L 2969 4384 
L 2419 4384 
Q 2106 4384 1964 4261 
Q 1822 4138 1753 3809 
L 1691 3500 
L 2638 3500 
L 2553 3053 
L 1606 3053 
L 1013 0 
L 434 0 
L 1031 3053 
L 481 3053 
L 563 3500 
L 1113 3500 
L 1159 3744 
Q 1278 4363 1576 4613 
Q 1875 4863 2516 4863 
L 3059 4863 
z
" transform="scale(0.015625)"/>
      </defs>
      <use xlink:href="#DejaVuSans-Oblique-66" transform="translate(0 0.765625)"/>
      <use xlink:href="#DejaVuSans-28" transform="translate(35.205078 0.765625)"/>
      <use xlink:href="#DejaVuSans-Oblique-78" transform="translate(74.21875 0.765625)"/>
      <use xlink:href="#DejaVuSans-29" transform="translate(133.398438 0.765625)"/>
      <use xlink:href="#DejaVuSans-3d" transform="translate(191.894531 0.765625)"/>
      <use xlink:href="#DejaVuSans-Oblique-65" transform="translate(295.166016 0.765625)"/>
      <use xlink:href="#DejaVuSans-33" transform="translate(361.339349 39.046875) scale(0.7)"/>
      <use xlink:href="#DejaVuSans-Oblique-78" transform="translate(405.875482 39.046875) scale(0.7)"/>
      <use xlink:href="#DejaVuSans-2212" transform="translate(460.938958 39.046875) scale(0.7)"/>
      <use xlink:href="#DejaVuSans-32" transform="translate(533.228997 39.046875) scale(0.7)"/>
     </g>
    </g>
   </g>
  </g>
  <g id="axes_3">
   <g id="patch_14">
    <path d="M 873.688655 362.76 
L 1213.340829 362.76 
L 1213.340829 30.12 
L 873.688655 30.12 
z
" style="fill: #ffffff"/>
   </g>
   <g id="matplotlib.axis_5">
    <g id="xtick_19">
     <g id="line2d_38">
      <g>
       <use xlink:href="#mf672d50ac4" x="889.12739" y="362.76" style="stroke: #000000; stroke-width: 0.8"/>
      </g>
     </g>
     <g id="text_42">
      <!-- 0.00 -->
      <g transform="translate(877.994578 377.358437) scale(0.1 -0.1)">
       <use xlink:href="#DejaVuSans-30"/>
       <use xlink:href="#DejaVuSans-2e" transform="translate(63.623047 0)"/>
       <use xlink:href="#DejaVuSans-30" transform="translate(95.410156 0)"/>
       <use xlink:href="#DejaVuSans-30" transform="translate(159.033203 0)"/>
      </g>
     </g>
    </g>
    <g id="xtick_20">
     <g id="line2d_39">
      <g>
       <use xlink:href="#mf672d50ac4" x="927.724228" y="362.76" style="stroke: #000000; stroke-width: 0.8"/>
      </g>
     </g>
     <g id="text_43">
      <!-- 0.25 -->
      <g transform="translate(916.591416 377.358437) scale(0.1 -0.1)">
       <use xlink:href="#DejaVuSans-30"/>
       <use xlink:href="#DejaVuSans-2e" transform="translate(63.623047 0)"/>
       <use xlink:href="#DejaVuSans-32" transform="translate(95.410156 0)"/>
       <use xlink:href="#DejaVuSans-35" transform="translate(159.033203 0)"/>
      </g>
     </g>
    </g>
    <g id="xtick_21">
     <g id="line2d_40">
      <g>
       <use xlink:href="#mf672d50ac4" x="966.321066" y="362.76" style="stroke: #000000; stroke-width: 0.8"/>
      </g>
     </g>
     <g id="text_44">
      <!-- 0.50 -->
      <g transform="translate(955.188253 377.358437) scale(0.1 -0.1)">
       <use xlink:href="#DejaVuSans-30"/>
       <use xlink:href="#DejaVuSans-2e" transform="translate(63.623047 0)"/>
       <use xlink:href="#DejaVuSans-35" transform="translate(95.410156 0)"/>
       <use xlink:href="#DejaVuSans-30" transform="translate(159.033203 0)"/>
      </g>
     </g>
    </g>
    <g id="xtick_22">
     <g id="line2d_41">
      <g>
       <use xlink:href="#mf672d50ac4" x="1004.917904" y="362.76" style="stroke: #000000; stroke-width: 0.8"/>
      </g>
     </g>
     <g id="text_45">
      <!-- 0.75 -->
      <g transform="translate(993.785091 377.358437) scale(0.1 -0.1)">
       <use xlink:href="#DejaVuSans-30"/>
       <use xlink:href="#DejaVuSans-2e" transform="translate(63.623047 0)"/>
       <use xlink:href="#DejaVuSans-37" transform="translate(95.410156 0)"/>
       <use xlink:href="#DejaVuSans-35" transform="translate(159.033203 0)"/>
      </g>
     </g>
    </g>
    <g id="xtick_23">
     <g id="line2d_42">
      <g>
       <use xlink:href="#mf672d50ac4" x="1043.514742" y="362.76" style="stroke: #000000; stroke-width: 0.8"/>
      </g>
     </g>
     <g id="text_46">
      <!-- 1.00 -->
      <g transform="translate(1032.381929 377.358437) scale(0.1 -0.1)">
       <use xlink:href="#DejaVuSans-31"/>
       <use xlink:href="#DejaVuSans-2e" transform="translate(63.623047 0)"/>
       <use xlink:href="#DejaVuSans-30" transform="translate(95.410156 0)"/>
       <use xlink:href="#DejaVuSans-30" transform="translate(159.033203 0)"/>
      </g>
     </g>
    </g>
    <g id="xtick_24">
     <g id="line2d_43">
      <g>
       <use xlink:href="#mf672d50ac4" x="1082.11158" y="362.76" style="stroke: #000000; stroke-width: 0.8"/>
      </g>
     </g>
     <g id="text_47">
      <!-- 1.25 -->
      <g transform="translate(1070.978767 377.358437) scale(0.1 -0.1)">
       <use xlink:href="#DejaVuSans-31"/>
       <use xlink:href="#DejaVuSans-2e" transform="translate(63.623047 0)"/>
       <use xlink:href="#DejaVuSans-32" transform="translate(95.410156 0)"/>
       <use xlink:href="#DejaVuSans-35" transform="translate(159.033203 0)"/>
      </g>
     </g>
    </g>
    <g id="xtick_25">
     <g id="line2d_44">
      <g>
       <use xlink:href="#mf672d50ac4" x="1120.708418" y="362.76" style="stroke: #000000; stroke-width: 0.8"/>
      </g>
     </g>
     <g id="text_48">
      <!-- 1.50 -->
      <g transform="translate(1109.575605 377.358437) scale(0.1 -0.1)">
       <use xlink:href="#DejaVuSans-31"/>
       <use xlink:href="#DejaVuSans-2e" transform="translate(63.623047 0)"/>
       <use xlink:href="#DejaVuSans-35" transform="translate(95.410156 0)"/>
       <use xlink:href="#DejaVuSans-30" transform="translate(159.033203 0)"/>
      </g>
     </g>
    </g>
    <g id="xtick_26">
     <g id="line2d_45">
      <g>
       <use xlink:href="#mf672d50ac4" x="1159.305256" y="362.76" style="stroke: #000000; stroke-width: 0.8"/>
      </g>
     </g>
     <g id="text_49">
      <!-- 1.75 -->
      <g transform="translate(1148.172443 377.358437) scale(0.1 -0.1)">
       <use xlink:href="#DejaVuSans-31"/>
       <use xlink:href="#DejaVuSans-2e" transform="translate(63.623047 0)"/>
       <use xlink:href="#DejaVuSans-37" transform="translate(95.410156 0)"/>
       <use xlink:href="#DejaVuSans-35" transform="translate(159.033203 0)"/>
      </g>
     </g>
    </g>
    <g id="xtick_27">
     <g id="line2d_46">
      <g>
       <use xlink:href="#mf672d50ac4" x="1197.902094" y="362.76" style="stroke: #000000; stroke-width: 0.8"/>
      </g>
     </g>
     <g id="text_50">
      <!-- 2.00 -->
      <g transform="translate(1186.769281 377.358437) scale(0.1 -0.1)">
       <use xlink:href="#DejaVuSans-32"/>
       <use xlink:href="#DejaVuSans-2e" transform="translate(63.623047 0)"/>
       <use xlink:href="#DejaVuSans-30" transform="translate(95.410156 0)"/>
       <use xlink:href="#DejaVuSans-30" transform="translate(159.033203 0)"/>
      </g>
     </g>
    </g>
    <g id="text_51">
     <!-- x -->
     <g transform="translate(1040.555367 391.036562) scale(0.1 -0.1)">
      <use xlink:href="#DejaVuSans-78"/>
     </g>
    </g>
   </g>
   <g id="matplotlib.axis_6">
    <g id="ytick_16">
     <g id="line2d_47">
      <g>
       <use xlink:href="#mb69a9a0059" x="873.688655" y="308.369179" style="stroke: #000000; stroke-width: 0.8"/>
      </g>
     </g>
     <g id="text_52">
      <!-- 0.6 -->
      <g transform="translate(850.78553 312.168397) scale(0.1 -0.1)">
       <defs>
        <path id="DejaVuSans-36" d="M 2113 2584 
Q 1688 2584 1439 2293 
Q 1191 2003 1191 1497 
Q 1191 994 1439 701 
Q 1688 409 2113 409 
Q 2538 409 2786 701 
Q 3034 994 3034 1497 
Q 3034 2003 2786 2293 
Q 2538 2584 2113 2584 
z
M 3366 4563 
L 3366 3988 
Q 3128 4100 2886 4159 
Q 2644 4219 2406 4219 
Q 1781 4219 1451 3797 
Q 1122 3375 1075 2522 
Q 1259 2794 1537 2939 
Q 1816 3084 2150 3084 
Q 2853 3084 3261 2657 
Q 3669 2231 3669 1497 
Q 3669 778 3244 343 
Q 2819 -91 2113 -91 
Q 1303 -91 875 529 
Q 447 1150 447 2328 
Q 447 3434 972 4092 
Q 1497 4750 2381 4750 
Q 2619 4750 2861 4703 
Q 3103 4656 3366 4563 
z
" transform="scale(0.015625)"/>
       </defs>
       <use xlink:href="#DejaVuSans-30"/>
       <use xlink:href="#DejaVuSans-2e" transform="translate(63.623047 0)"/>
       <use xlink:href="#DejaVuSans-36" transform="translate(95.410156 0)"/>
      </g>
     </g>
    </g>
    <g id="ytick_17">
     <g id="line2d_48">
      <g>
       <use xlink:href="#mb69a9a0059" x="873.688655" y="242.586367" style="stroke: #000000; stroke-width: 0.8"/>
      </g>
     </g>
     <g id="text_53">
      <!-- 0.7 -->
      <g transform="translate(850.78553 246.385586) scale(0.1 -0.1)">
       <use xlink:href="#DejaVuSans-30"/>
       <use xlink:href="#DejaVuSans-2e" transform="translate(63.623047 0)"/>
       <use xlink:href="#DejaVuSans-37" transform="translate(95.410156 0)"/>
      </g>
     </g>
    </g>
    <g id="ytick_18">
     <g id="line2d_49">
      <g>
       <use xlink:href="#mb69a9a0059" x="873.688655" y="176.803556" style="stroke: #000000; stroke-width: 0.8"/>
      </g>
     </g>
     <g id="text_54">
      <!-- 0.8 -->
      <g transform="translate(850.78553 180.602775) scale(0.1 -0.1)">
       <defs>
        <path id="DejaVuSans-38" d="M 2034 2216 
Q 1584 2216 1326 1975 
Q 1069 1734 1069 1313 
Q 1069 891 1326 650 
Q 1584 409 2034 409 
Q 2484 409 2743 651 
Q 3003 894 3003 1313 
Q 3003 1734 2745 1975 
Q 2488 2216 2034 2216 
z
M 1403 2484 
Q 997 2584 770 2862 
Q 544 3141 544 3541 
Q 544 4100 942 4425 
Q 1341 4750 2034 4750 
Q 2731 4750 3128 4425 
Q 3525 4100 3525 3541 
Q 3525 3141 3298 2862 
Q 3072 2584 2669 2484 
Q 3125 2378 3379 2068 
Q 3634 1759 3634 1313 
Q 3634 634 3220 271 
Q 2806 -91 2034 -91 
Q 1263 -91 848 271 
Q 434 634 434 1313 
Q 434 1759 690 2068 
Q 947 2378 1403 2484 
z
M 1172 3481 
Q 1172 3119 1398 2916 
Q 1625 2713 2034 2713 
Q 2441 2713 2670 2916 
Q 2900 3119 2900 3481 
Q 2900 3844 2670 4047 
Q 2441 4250 2034 4250 
Q 1625 4250 1398 4047 
Q 1172 3844 1172 3481 
z
" transform="scale(0.015625)"/>
       </defs>
       <use xlink:href="#DejaVuSans-30"/>
       <use xlink:href="#DejaVuSans-2e" transform="translate(63.623047 0)"/>
       <use xlink:href="#DejaVuSans-38" transform="translate(95.410156 0)"/>
      </g>
     </g>
    </g>
    <g id="ytick_19">
     <g id="line2d_50">
      <g>
       <use xlink:href="#mb69a9a0059" x="873.688655" y="111.020745" style="stroke: #000000; stroke-width: 0.8"/>
      </g>
     </g>
     <g id="text_55">
      <!-- 0.9 -->
      <g transform="translate(850.78553 114.819964) scale(0.1 -0.1)">
       <defs>
        <path id="DejaVuSans-39" d="M 703 97 
L 703 672 
Q 941 559 1184 500 
Q 1428 441 1663 441 
Q 2288 441 2617 861 
Q 2947 1281 2994 2138 
Q 2813 1869 2534 1725 
Q 2256 1581 1919 1581 
Q 1219 1581 811 2004 
Q 403 2428 403 3163 
Q 403 3881 828 4315 
Q 1253 4750 1959 4750 
Q 2769 4750 3195 4129 
Q 3622 3509 3622 2328 
Q 3622 1225 3098 567 
Q 2575 -91 1691 -91 
Q 1453 -91 1209 -44 
Q 966 3 703 97 
z
M 1959 2075 
Q 2384 2075 2632 2365 
Q 2881 2656 2881 3163 
Q 2881 3666 2632 3958 
Q 2384 4250 1959 4250 
Q 1534 4250 1286 3958 
Q 1038 3666 1038 3163 
Q 1038 2656 1286 2365 
Q 1534 2075 1959 2075 
z
" transform="scale(0.015625)"/>
       </defs>
       <use xlink:href="#DejaVuSans-30"/>
       <use xlink:href="#DejaVuSans-2e" transform="translate(63.623047 0)"/>
       <use xlink:href="#DejaVuSans-39" transform="translate(95.410156 0)"/>
      </g>
     </g>
    </g>
    <g id="ytick_20">
     <g id="line2d_51">
      <g>
       <use xlink:href="#mb69a9a0059" x="873.688655" y="45.237934" style="stroke: #000000; stroke-width: 0.8"/>
      </g>
     </g>
     <g id="text_56">
      <!-- 1.0 -->
      <g transform="translate(850.78553 49.037153) scale(0.1 -0.1)">
       <use xlink:href="#DejaVuSans-31"/>
       <use xlink:href="#DejaVuSans-2e" transform="translate(63.623047 0)"/>
       <use xlink:href="#DejaVuSans-30" transform="translate(95.410156 0)"/>
      </g>
     </g>
    </g>
    <g id="text_57">
     <!-- f(x) -->
     <g transform="translate(844.705842 205.061094) rotate(-90) scale(0.1 -0.1)">
      <use xlink:href="#DejaVuSans-66"/>
      <use xlink:href="#DejaVuSans-28" transform="translate(35.205078 0)"/>
      <use xlink:href="#DejaVuSans-78" transform="translate(74.21875 0)"/>
      <use xlink:href="#DejaVuSans-29" transform="translate(133.398438 0)"/>
     </g>
    </g>
   </g>
   <g id="line2d_52">
    <path d="M 889.12739 347.64 
L 896.092233 323.038206 
L 903.057076 299.2097 
L 910.021919 276.202968 
L 916.21289 256.480309 
L 922.403862 237.475676 
L 928.594833 219.219627 
L 934.011933 203.882761 
L 939.429034 189.160401 
L 944.846134 175.07067 
L 950.263234 161.630912 
L 955.680334 148.857673 
L 960.323562 138.451619 
L 964.966791 128.556229 
L 969.61002 119.180454 
L 974.253248 110.332773 
L 978.896477 102.02119 
L 982.765834 95.509826 
L 986.635191 89.380072 
L 990.504548 83.635776 
L 994.373906 78.280546 
L 998.243263 73.317747 
L 1002.11262 68.750495 
L 1005.981977 64.581659 
L 1009.077463 61.535218 
L 1012.172949 58.746668 
L 1015.268434 56.217131 
L 1018.36392 53.947623 
L 1021.459406 51.939058 
L 1024.554892 50.192241 
L 1027.650377 48.707876 
L 1030.745863 47.486559 
L 1033.841349 46.52878 
L 1036.936835 45.834926 
L 1040.03232 45.405275 
L 1043.127806 45.24 
L 1046.223292 45.339167 
L 1049.318778 45.702736 
L 1052.414263 46.330561 
L 1055.509749 47.22239 
L 1058.605235 48.377865 
L 1061.700721 49.79652 
L 1064.796206 51.477785 
L 1067.891692 53.420985 
L 1070.987178 55.625339 
L 1074.082664 58.08996 
L 1077.178149 60.813857 
L 1080.273635 63.795936 
L 1083.369121 67.034998 
L 1087.238478 71.443214 
L 1091.107835 76.248155 
L 1094.977192 81.446802 
L 1098.84655 87.035891 
L 1102.715907 93.011911 
L 1106.585264 99.371108 
L 1110.454621 106.109488 
L 1115.09785 114.69009 
L 1119.741078 123.802848 
L 1124.384307 133.43952 
L 1129.027536 143.59139 
L 1133.670764 154.249276 
L 1138.313993 165.403539 
L 1143.731093 179.030727 
L 1149.148193 193.303014 
L 1154.565293 208.20283 
L 1159.982393 223.711834 
L 1166.173365 242.157828 
L 1172.364336 261.344878 
L 1178.555308 281.242133 
L 1185.520151 304.435588 
L 1192.484994 328.440183 
L 1197.902094 347.64 
L 1197.902094 347.64 
" clip-path="url(#p23c405cf1c)" style="fill: none; stroke: #ff7f0e; stroke-width: 1.5; stroke-linecap: square"/>
   </g>
   <g id="patch_15">
    <path d="M 873.688655 362.76 
L 873.688655 30.12 
" style="fill: none; stroke: #000000; stroke-width: 0.8; stroke-linejoin: miter; stroke-linecap: square"/>
   </g>
   <g id="patch_16">
    <path d="M 1213.340829 362.76 
L 1213.340829 30.12 
" style="fill: none; stroke: #000000; stroke-width: 0.8; stroke-linejoin: miter; stroke-linecap: square"/>
   </g>
   <g id="patch_17">
    <path d="M 873.688655 362.76 
L 1213.340829 362.76 
" style="fill: none; stroke: #000000; stroke-width: 0.8; stroke-linejoin: miter; stroke-linecap: square"/>
   </g>
   <g id="patch_18">
    <path d="M 873.688655 30.12 
L 1213.340829 30.12 
" style="fill: none; stroke: #000000; stroke-width: 0.8; stroke-linejoin: miter; stroke-linecap: square"/>
   </g>
   <g id="text_58">
    <!-- Visualization $\int_0^{\pi / 2} cos (1-x)$ -->
    <g transform="translate(962.394742 23.76) scale(0.12 -0.12)">
     <defs>
      <path id="DejaVuSans-Oblique-3c0" d="M 584 3500 
L 3938 3500 
L 3825 2925 
L 3384 2925 
L 2966 775 
Q 2922 550 2981 450 
Q 3038 353 3209 353 
Q 3256 353 3325 363 
Q 3397 369 3419 372 
L 3338 -44 
Q 3222 -84 3103 -103 
Q 2981 -122 2866 -122 
Q 2491 -122 2388 81 
Q 2284 288 2391 838 
L 2797 2925 
L 1506 2925 
L 938 0 
L 350 0 
L 919 2925 
L 472 2925 
L 584 3500 
z
" transform="scale(0.015625)"/>
      <path id="DejaVuSans-2f" d="M 1625 4666 
L 2156 4666 
L 531 -594 
L 0 -594 
L 1625 4666 
z
" transform="scale(0.015625)"/>
      <path id="DejaVuSans-Oblique-63" d="M 3431 3366 
L 3316 2797 
Q 3109 2947 2876 3022 
Q 2644 3097 2394 3097 
Q 2119 3097 1870 3000 
Q 1622 2903 1453 2725 
Q 1184 2453 1037 2087 
Q 891 1722 891 1331 
Q 891 859 1127 628 
Q 1363 397 1844 397 
Q 2081 397 2348 469 
Q 2616 541 2906 684 
L 2797 116 
Q 2547 13 2283 -39 
Q 2019 -91 1741 -91 
Q 1044 -91 669 257 
Q 294 606 294 1253 
Q 294 1797 489 2255 
Q 684 2713 1069 3078 
Q 1331 3328 1684 3456 
Q 2038 3584 2456 3584 
Q 2700 3584 2940 3529 
Q 3181 3475 3431 3366 
z
" transform="scale(0.015625)"/>
      <path id="DejaVuSans-Oblique-6f" d="M 1625 -91 
Q 1009 -91 651 289 
Q 294 669 294 1325 
Q 294 1706 417 2101 
Q 541 2497 738 2766 
Q 1047 3184 1428 3384 
Q 1809 3584 2291 3584 
Q 2888 3584 3255 3212 
Q 3622 2841 3622 2241 
Q 3622 1825 3500 1412 
Q 3378 1000 3181 728 
Q 2875 309 2494 109 
Q 2113 -91 1625 -91 
z
M 891 1344 
Q 891 869 1089 633 
Q 1288 397 1691 397 
Q 2269 397 2648 901 
Q 3028 1406 3028 2181 
Q 3028 2634 2825 2865 
Q 2622 3097 2228 3097 
Q 1903 3097 1650 2945 
Q 1397 2794 1197 2484 
Q 1050 2253 970 1956 
Q 891 1659 891 1344 
z
" transform="scale(0.015625)"/>
      <path id="DejaVuSans-Oblique-73" d="M 3200 3397 
L 3091 2853 
Q 2863 2978 2609 3040 
Q 2356 3103 2088 3103 
Q 1634 3103 1373 2948 
Q 1113 2794 1113 2528 
Q 1113 2219 1719 2053 
Q 1766 2041 1788 2034 
L 1972 1978 
Q 2547 1819 2739 1644 
Q 2931 1469 2931 1166 
Q 2931 609 2489 259 
Q 2047 -91 1331 -91 
Q 1053 -91 747 -37 
Q 441 16 72 128 
L 184 722 
Q 500 559 806 475 
Q 1113 391 1394 391 
Q 1816 391 2080 572 
Q 2344 753 2344 1031 
Q 2344 1331 1650 1516 
L 1591 1531 
L 1394 1581 
Q 956 1697 753 1886 
Q 550 2075 550 2369 
Q 550 2928 970 3256 
Q 1391 3584 2113 3584 
Q 2397 3584 2667 3537 
Q 2938 3491 3200 3397 
z
" transform="scale(0.015625)"/>
     </defs>
     <use xlink:href="#DejaVuSans-56" transform="translate(0 0.890625)"/>
     <use xlink:href="#DejaVuSans-69" transform="translate(68.408203 0.890625)"/>
     <use xlink:href="#DejaVuSans-73" transform="translate(96.191406 0.890625)"/>
     <use xlink:href="#DejaVuSans-75" transform="translate(148.291016 0.890625)"/>
     <use xlink:href="#DejaVuSans-61" transform="translate(211.669922 0.890625)"/>
     <use xlink:href="#DejaVuSans-6c" transform="translate(272.949219 0.890625)"/>
     <use xlink:href="#DejaVuSans-69" transform="translate(300.732422 0.890625)"/>
     <use xlink:href="#DejaVuSans-7a" transform="translate(328.515625 0.890625)"/>
     <use xlink:href="#DejaVuSans-61" transform="translate(381.005859 0.890625)"/>
     <use xlink:href="#DejaVuSans-74" transform="translate(442.285156 0.890625)"/>
     <use xlink:href="#DejaVuSans-69" transform="translate(481.494141 0.890625)"/>
     <use xlink:href="#DejaVuSans-6f" transform="translate(509.277344 0.890625)"/>
     <use xlink:href="#DejaVuSans-6e" transform="translate(570.458984 0.890625)"/>
     <use xlink:href="#DejaVuSans-20" transform="translate(633.837891 0.890625)"/>
     <use xlink:href="#DejaVuSansDisplay-222b" transform="translate(665.625 0.890625)"/>
     <use xlink:href="#DejaVuSans-Oblique-3c0" transform="translate(752.369141 86.046875) scale(0.7)"/>
     <use xlink:href="#DejaVuSans-2f" transform="translate(794.512695 86.046875) scale(0.7)"/>
     <use xlink:href="#DejaVuSans-32" transform="translate(815.55918 86.046875) scale(0.7)"/>
     <use xlink:href="#DejaVuSans-30" transform="translate(737.384766 -51.015625) scale(0.7)"/>
     <use xlink:href="#DejaVuSans-Oblique-63" transform="translate(860.095312 0.890625)"/>
     <use xlink:href="#DejaVuSans-Oblique-6f" transform="translate(915.075781 0.890625)"/>
     <use xlink:href="#DejaVuSans-Oblique-73" transform="translate(976.257422 0.890625)"/>
     <use xlink:href="#DejaVuSans-28" transform="translate(1028.357031 0.890625)"/>
     <use xlink:href="#DejaVuSans-31" transform="translate(1067.370703 0.890625)"/>
     <use xlink:href="#DejaVuSans-2212" transform="translate(1150.476172 0.890625)"/>
     <use xlink:href="#DejaVuSans-Oblique-78" transform="translate(1253.747656 0.890625)"/>
     <use xlink:href="#DejaVuSans-29" transform="translate(1312.927344 0.890625)"/>
    </g>
   </g>
   <g id="legend_3">
    <g id="patch_19">
     <path d="M 1095.540829 52.798125 
L 1206.340829 52.798125 
Q 1208.340829 52.798125 1208.340829 50.798125 
L 1208.340829 37.12 
Q 1208.340829 35.12 1206.340829 35.12 
L 1095.540829 35.12 
Q 1093.540829 35.12 1093.540829 37.12 
L 1093.540829 50.798125 
Q 1093.540829 52.798125 1095.540829 52.798125 
z
" style="fill: #ffffff; opacity: 0.8; stroke: #cccccc; stroke-linejoin: miter"/>
    </g>
    <g id="line2d_53">
     <path d="M 1097.540829 43.218437 
L 1107.540829 43.218437 
L 1117.540829 43.218437 
" style="fill: none; stroke: #ff7f0e; stroke-width: 1.5; stroke-linecap: square"/>
    </g>
    <g id="text_59">
     <!-- $f(x)= cos (1-x)$ -->
     <g transform="translate(1125.540829 46.718437) scale(0.1 -0.1)">
      <use xlink:href="#DejaVuSans-Oblique-66" transform="translate(0 0.015625)"/>
      <use xlink:href="#DejaVuSans-28" transform="translate(35.205078 0.015625)"/>
      <use xlink:href="#DejaVuSans-Oblique-78" transform="translate(74.21875 0.015625)"/>
      <use xlink:href="#DejaVuSans-29" transform="translate(133.398438 0.015625)"/>
      <use xlink:href="#DejaVuSans-3d" transform="translate(191.894531 0.015625)"/>
      <use xlink:href="#DejaVuSans-Oblique-63" transform="translate(295.166016 0.015625)"/>
      <use xlink:href="#DejaVuSans-Oblique-6f" transform="translate(350.146484 0.015625)"/>
      <use xlink:href="#DejaVuSans-Oblique-73" transform="translate(411.328125 0.015625)"/>
      <use xlink:href="#DejaVuSans-28" transform="translate(463.427734 0.015625)"/>
      <use xlink:href="#DejaVuSans-31" transform="translate(502.441406 0.015625)"/>
      <use xlink:href="#DejaVuSans-2212" transform="translate(585.546875 0.015625)"/>
      <use xlink:href="#DejaVuSans-Oblique-78" transform="translate(688.818359 0.015625)"/>
      <use xlink:href="#DejaVuSans-29" transform="translate(747.998047 0.015625)"/>
     </g>
    </g>
   </g>
  </g>
  <g id="axes_4">
   <g id="patch_20">
    <path d="M 1281.271264 362.76 
L 1620.923438 362.76 
L 1620.923438 30.12 
L 1281.271264 30.12 
z
" style="fill: #ffffff"/>
   </g>
   <g id="matplotlib.axis_7">
    <g id="xtick_28">
     <g id="line2d_54">
      <g>
       <use xlink:href="#mf672d50ac4" x="1296.709999" y="362.76" style="stroke: #000000; stroke-width: 0.8"/>
      </g>
     </g>
     <g id="text_60">
      <!-- 0.00 -->
      <g transform="translate(1285.577186 377.358437) scale(0.1 -0.1)">
       <use xlink:href="#DejaVuSans-30"/>
       <use xlink:href="#DejaVuSans-2e" transform="translate(63.623047 0)"/>
       <use xlink:href="#DejaVuSans-30" transform="translate(95.410156 0)"/>
       <use xlink:href="#DejaVuSans-30" transform="translate(159.033203 0)"/>
      </g>
     </g>
    </g>
    <g id="xtick_29">
     <g id="line2d_55">
      <g>
       <use xlink:href="#mf672d50ac4" x="1335.306837" y="362.76" style="stroke: #000000; stroke-width: 0.8"/>
      </g>
     </g>
     <g id="text_61">
      <!-- 0.25 -->
      <g transform="translate(1324.174024 377.358437) scale(0.1 -0.1)">
       <use xlink:href="#DejaVuSans-30"/>
       <use xlink:href="#DejaVuSans-2e" transform="translate(63.623047 0)"/>
       <use xlink:href="#DejaVuSans-32" transform="translate(95.410156 0)"/>
       <use xlink:href="#DejaVuSans-35" transform="translate(159.033203 0)"/>
      </g>
     </g>
    </g>
    <g id="xtick_30">
     <g id="line2d_56">
      <g>
       <use xlink:href="#mf672d50ac4" x="1373.903675" y="362.76" style="stroke: #000000; stroke-width: 0.8"/>
      </g>
     </g>
     <g id="text_62">
      <!-- 0.50 -->
      <g transform="translate(1362.770862 377.358437) scale(0.1 -0.1)">
       <use xlink:href="#DejaVuSans-30"/>
       <use xlink:href="#DejaVuSans-2e" transform="translate(63.623047 0)"/>
       <use xlink:href="#DejaVuSans-35" transform="translate(95.410156 0)"/>
       <use xlink:href="#DejaVuSans-30" transform="translate(159.033203 0)"/>
      </g>
     </g>
    </g>
    <g id="xtick_31">
     <g id="line2d_57">
      <g>
       <use xlink:href="#mf672d50ac4" x="1412.500513" y="362.76" style="stroke: #000000; stroke-width: 0.8"/>
      </g>
     </g>
     <g id="text_63">
      <!-- 0.75 -->
      <g transform="translate(1401.3677 377.358437) scale(0.1 -0.1)">
       <use xlink:href="#DejaVuSans-30"/>
       <use xlink:href="#DejaVuSans-2e" transform="translate(63.623047 0)"/>
       <use xlink:href="#DejaVuSans-37" transform="translate(95.410156 0)"/>
       <use xlink:href="#DejaVuSans-35" transform="translate(159.033203 0)"/>
      </g>
     </g>
    </g>
    <g id="xtick_32">
     <g id="line2d_58">
      <g>
       <use xlink:href="#mf672d50ac4" x="1451.097351" y="362.76" style="stroke: #000000; stroke-width: 0.8"/>
      </g>
     </g>
     <g id="text_64">
      <!-- 1.00 -->
      <g transform="translate(1439.964538 377.358437) scale(0.1 -0.1)">
       <use xlink:href="#DejaVuSans-31"/>
       <use xlink:href="#DejaVuSans-2e" transform="translate(63.623047 0)"/>
       <use xlink:href="#DejaVuSans-30" transform="translate(95.410156 0)"/>
       <use xlink:href="#DejaVuSans-30" transform="translate(159.033203 0)"/>
      </g>
     </g>
    </g>
    <g id="xtick_33">
     <g id="line2d_59">
      <g>
       <use xlink:href="#mf672d50ac4" x="1489.694188" y="362.76" style="stroke: #000000; stroke-width: 0.8"/>
      </g>
     </g>
     <g id="text_65">
      <!-- 1.25 -->
      <g transform="translate(1478.561376 377.358437) scale(0.1 -0.1)">
       <use xlink:href="#DejaVuSans-31"/>
       <use xlink:href="#DejaVuSans-2e" transform="translate(63.623047 0)"/>
       <use xlink:href="#DejaVuSans-32" transform="translate(95.410156 0)"/>
       <use xlink:href="#DejaVuSans-35" transform="translate(159.033203 0)"/>
      </g>
     </g>
    </g>
    <g id="xtick_34">
     <g id="line2d_60">
      <g>
       <use xlink:href="#mf672d50ac4" x="1528.291026" y="362.76" style="stroke: #000000; stroke-width: 0.8"/>
      </g>
     </g>
     <g id="text_66">
      <!-- 1.50 -->
      <g transform="translate(1517.158214 377.358437) scale(0.1 -0.1)">
       <use xlink:href="#DejaVuSans-31"/>
       <use xlink:href="#DejaVuSans-2e" transform="translate(63.623047 0)"/>
       <use xlink:href="#DejaVuSans-35" transform="translate(95.410156 0)"/>
       <use xlink:href="#DejaVuSans-30" transform="translate(159.033203 0)"/>
      </g>
     </g>
    </g>
    <g id="xtick_35">
     <g id="line2d_61">
      <g>
       <use xlink:href="#mf672d50ac4" x="1566.887864" y="362.76" style="stroke: #000000; stroke-width: 0.8"/>
      </g>
     </g>
     <g id="text_67">
      <!-- 1.75 -->
      <g transform="translate(1555.755052 377.358437) scale(0.1 -0.1)">
       <use xlink:href="#DejaVuSans-31"/>
       <use xlink:href="#DejaVuSans-2e" transform="translate(63.623047 0)"/>
       <use xlink:href="#DejaVuSans-37" transform="translate(95.410156 0)"/>
       <use xlink:href="#DejaVuSans-35" transform="translate(159.033203 0)"/>
      </g>
     </g>
    </g>
    <g id="xtick_36">
     <g id="line2d_62">
      <g>
       <use xlink:href="#mf672d50ac4" x="1605.484702" y="362.76" style="stroke: #000000; stroke-width: 0.8"/>
      </g>
     </g>
     <g id="text_68">
      <!-- 2.00 -->
      <g transform="translate(1594.35189 377.358437) scale(0.1 -0.1)">
       <use xlink:href="#DejaVuSans-32"/>
       <use xlink:href="#DejaVuSans-2e" transform="translate(63.623047 0)"/>
       <use xlink:href="#DejaVuSans-30" transform="translate(95.410156 0)"/>
       <use xlink:href="#DejaVuSans-30" transform="translate(159.033203 0)"/>
      </g>
     </g>
    </g>
    <g id="text_69">
     <!-- x -->
     <g transform="translate(1448.137976 391.036562) scale(0.1 -0.1)">
      <use xlink:href="#DejaVuSans-78"/>
     </g>
    </g>
   </g>
   <g id="matplotlib.axis_8">
    <g id="ytick_21">
     <g id="line2d_63">
      <g>
       <use xlink:href="#mb69a9a0059" x="1281.271264" y="355.597895" style="stroke: #000000; stroke-width: 0.8"/>
      </g>
     </g>
     <g id="text_70">
      <!-- −60 -->
      <g transform="translate(1253.166576 359.397113) scale(0.1 -0.1)">
       <use xlink:href="#DejaVuSans-2212"/>
       <use xlink:href="#DejaVuSans-36" transform="translate(83.789062 0)"/>
       <use xlink:href="#DejaVuSans-30" transform="translate(147.412109 0)"/>
      </g>
     </g>
    </g>
    <g id="ytick_22">
     <g id="line2d_64">
      <g>
       <use xlink:href="#mb69a9a0059" x="1281.271264" y="302.545263" style="stroke: #000000; stroke-width: 0.8"/>
      </g>
     </g>
     <g id="text_71">
      <!-- −40 -->
      <g transform="translate(1253.166576 306.344482) scale(0.1 -0.1)">
       <use xlink:href="#DejaVuSans-2212"/>
       <use xlink:href="#DejaVuSans-34" transform="translate(83.789062 0)"/>
       <use xlink:href="#DejaVuSans-30" transform="translate(147.412109 0)"/>
      </g>
     </g>
    </g>
    <g id="ytick_23">
     <g id="line2d_65">
      <g>
       <use xlink:href="#mb69a9a0059" x="1281.271264" y="249.492632" style="stroke: #000000; stroke-width: 0.8"/>
      </g>
     </g>
     <g id="text_72">
      <!-- −20 -->
      <g transform="translate(1253.166576 253.29185) scale(0.1 -0.1)">
       <use xlink:href="#DejaVuSans-2212"/>
       <use xlink:href="#DejaVuSans-32" transform="translate(83.789062 0)"/>
       <use xlink:href="#DejaVuSans-30" transform="translate(147.412109 0)"/>
      </g>
     </g>
    </g>
    <g id="ytick_24">
     <g id="line2d_66">
      <g>
       <use xlink:href="#mb69a9a0059" x="1281.271264" y="196.44" style="stroke: #000000; stroke-width: 0.8"/>
      </g>
     </g>
     <g id="text_73">
      <!-- 0 -->
      <g transform="translate(1267.908764 200.239219) scale(0.1 -0.1)">
       <use xlink:href="#DejaVuSans-30"/>
      </g>
     </g>
    </g>
    <g id="ytick_25">
     <g id="line2d_67">
      <g>
       <use xlink:href="#mb69a9a0059" x="1281.271264" y="143.387368" style="stroke: #000000; stroke-width: 0.8"/>
      </g>
     </g>
     <g id="text_74">
      <!-- 20 -->
      <g transform="translate(1261.546264 147.186587) scale(0.1 -0.1)">
       <use xlink:href="#DejaVuSans-32"/>
       <use xlink:href="#DejaVuSans-30" transform="translate(63.623047 0)"/>
      </g>
     </g>
    </g>
    <g id="ytick_26">
     <g id="line2d_68">
      <g>
       <use xlink:href="#mb69a9a0059" x="1281.271264" y="90.334737" style="stroke: #000000; stroke-width: 0.8"/>
      </g>
     </g>
     <g id="text_75">
      <!-- 40 -->
      <g transform="translate(1261.546264 94.133956) scale(0.1 -0.1)">
       <use xlink:href="#DejaVuSans-34"/>
       <use xlink:href="#DejaVuSans-30" transform="translate(63.623047 0)"/>
      </g>
     </g>
    </g>
    <g id="ytick_27">
     <g id="line2d_69">
      <g>
       <use xlink:href="#mb69a9a0059" x="1281.271264" y="37.282105" style="stroke: #000000; stroke-width: 0.8"/>
      </g>
     </g>
     <g id="text_76">
      <!-- 60 -->
      <g transform="translate(1261.546264 41.081324) scale(0.1 -0.1)">
       <use xlink:href="#DejaVuSans-36"/>
       <use xlink:href="#DejaVuSans-30" transform="translate(63.623047 0)"/>
      </g>
     </g>
    </g>
    <g id="text_77">
     <!-- f(x) -->
     <g transform="translate(1247.086889 205.061094) rotate(-90) scale(0.1 -0.1)">
      <use xlink:href="#DejaVuSans-66"/>
      <use xlink:href="#DejaVuSans-28" transform="translate(35.205078 0)"/>
      <use xlink:href="#DejaVuSans-78" transform="translate(74.21875 0)"/>
      <use xlink:href="#DejaVuSans-29" transform="translate(133.398438 0)"/>
     </g>
    </g>
   </g>
   <g id="line2d_70">
    <path d="M 1296.709999 196.970526 
L 1336.951314 197.275359 
L 1357.845842 197.630551 
L 1370.227785 198.031579 
L 1378.740371 198.511233 
L 1384.157471 199.002712 
L 1388.026828 199.525714 
L 1391.122314 200.127805 
L 1393.443928 200.76 
L 1395.765543 201.653793 
L 1397.313286 202.488 
L 1398.861029 203.64 
L 1399.6349 204.397895 
L 1400.408771 205.334118 
L 1401.182643 206.52 
L 1401.956514 208.070769 
L 1402.730386 210.185455 
L 1403.504257 213.24 
L 1404.278129 218.04 
L 1405.052 226.68 
L 1405.825871 246.84 
L 1406.599743 347.64 
L 1407.373614 45.24 
L 1408.147486 146.04 
L 1408.921357 166.2 
L 1409.695229 174.84 
L 1410.4691 179.64 
L 1411.242972 182.694545 
L 1412.016843 184.809231 
L 1412.790714 186.36 
L 1413.564586 187.545882 
L 1414.338457 188.482105 
L 1415.8862 189.866087 
L 1417.433943 190.84 
L 1418.981686 191.562581 
L 1421.3033 192.353514 
L 1424.398786 193.08 
L 1428.268143 193.690909 
L 1432.911372 194.183284 
L 1439.876215 194.661176 
L 1449.162672 195.052844 
L 1463.092358 195.397241 
L 1484.760758 195.687761 
L 1521.132716 195.927458 
L 1588.459531 196.117612 
L 1605.484702 196.145263 
L 1605.484702 196.145263 
" clip-path="url(#pa31ee0b2d4)" style="fill: none; stroke: #d62728; stroke-width: 1.5; stroke-linecap: square"/>
   </g>
   <g id="patch_21">
    <path d="M 1281.271264 362.76 
L 1281.271264 30.12 
" style="fill: none; stroke: #000000; stroke-width: 0.8; stroke-linejoin: miter; stroke-linecap: square"/>
   </g>
   <g id="patch_22">
    <path d="M 1620.923438 362.76 
L 1620.923438 30.12 
" style="fill: none; stroke: #000000; stroke-width: 0.8; stroke-linejoin: miter; stroke-linecap: square"/>
   </g>
   <g id="patch_23">
    <path d="M 1281.271264 362.76 
L 1620.923438 362.76 
" style="fill: none; stroke: #000000; stroke-width: 0.8; stroke-linejoin: miter; stroke-linecap: square"/>
   </g>
   <g id="patch_24">
    <path d="M 1281.271264 30.12 
L 1620.923438 30.12 
" style="fill: none; stroke: #000000; stroke-width: 0.8; stroke-linejoin: miter; stroke-linecap: square"/>
   </g>
   <g id="text_78">
    <!-- Visualization $\int_{1}^2 \frac{1}{7x-5} $ -->
    <g transform="translate(1389.537351 23.88) scale(0.12 -0.12)">
     <use xlink:href="#DejaVuSans-56" transform="translate(0 0.890625)"/>
     <use xlink:href="#DejaVuSans-69" transform="translate(68.408203 0.890625)"/>
     <use xlink:href="#DejaVuSans-73" transform="translate(96.191406 0.890625)"/>
     <use xlink:href="#DejaVuSans-75" transform="translate(148.291016 0.890625)"/>
     <use xlink:href="#DejaVuSans-61" transform="translate(211.669922 0.890625)"/>
     <use xlink:href="#DejaVuSans-6c" transform="translate(272.949219 0.890625)"/>
     <use xlink:href="#DejaVuSans-69" transform="translate(300.732422 0.890625)"/>
     <use xlink:href="#DejaVuSans-7a" transform="translate(328.515625 0.890625)"/>
     <use xlink:href="#DejaVuSans-61" transform="translate(381.005859 0.890625)"/>
     <use xlink:href="#DejaVuSans-74" transform="translate(442.285156 0.890625)"/>
     <use xlink:href="#DejaVuSans-69" transform="translate(481.494141 0.890625)"/>
     <use xlink:href="#DejaVuSans-6f" transform="translate(509.277344 0.890625)"/>
     <use xlink:href="#DejaVuSans-6e" transform="translate(570.458984 0.890625)"/>
     <use xlink:href="#DejaVuSans-20" transform="translate(633.837891 0.890625)"/>
     <use xlink:href="#DejaVuSansDisplay-222b" transform="translate(665.625 0.890625)"/>
     <use xlink:href="#DejaVuSans-32" transform="translate(752.369141 86.046875) scale(0.7)"/>
     <use xlink:href="#DejaVuSans-31" transform="translate(737.384766 -51.015625) scale(0.7)"/>
     <use xlink:href="#DejaVuSans-31" transform="translate(882.905273 44.6875) scale(0.7)"/>
     <use xlink:href="#DejaVuSans-37" transform="translate(796.905273 -37.596875) scale(0.7)"/>
     <use xlink:href="#DejaVuSans-Oblique-78" transform="translate(841.441406 -37.596875) scale(0.7)"/>
     <use xlink:href="#DejaVuSans-2212" transform="translate(896.504883 -37.596875) scale(0.7)"/>
     <use xlink:href="#DejaVuSans-35" transform="translate(968.794922 -37.596875) scale(0.7)"/>
     <path d="M 796.905273 19.6875 
L 796.905273 25.9375 
L 1013.331055 25.9375 
L 1013.331055 19.6875 
L 796.905273 19.6875 
z
"/>
    </g>
   </g>
   <g id="legend_4">
    <g id="patch_25">
     <path d="M 1529.423438 56.62 
L 1613.923438 56.62 
Q 1615.923438 56.62 1615.923438 54.62 
L 1615.923438 37.12 
Q 1615.923438 35.12 1613.923438 35.12 
L 1529.423438 35.12 
Q 1527.423438 35.12 1527.423438 37.12 
L 1527.423438 54.62 
Q 1527.423438 56.62 1529.423438 56.62 
z
" style="fill: #ffffff; opacity: 0.8; stroke: #cccccc; stroke-linejoin: miter"/>
    </g>
    <g id="line2d_71">
     <path d="M 1531.423438 45.12 
L 1541.423438 45.12 
L 1551.423438 45.12 
" style="fill: none; stroke: #d62728; stroke-width: 1.5; stroke-linecap: square"/>
    </g>
    <g id="text_79">
     <!-- $f(x)=\frac{1}{7x-5}$ -->
     <g transform="translate(1559.423438 48.62) scale(0.1 -0.1)">
      <use xlink:href="#DejaVuSans-Oblique-66" transform="translate(0 0.16875)"/>
      <use xlink:href="#DejaVuSans-28" transform="translate(35.205078 0.16875)"/>
      <use xlink:href="#DejaVuSans-Oblique-78" transform="translate(74.21875 0.16875)"/>
      <use xlink:href="#DejaVuSans-29" transform="translate(133.398438 0.16875)"/>
      <use xlink:href="#DejaVuSans-3d" transform="translate(191.894531 0.16875)"/>
      <use xlink:href="#DejaVuSans-31" transform="translate(381.166016 43.965625) scale(0.7)"/>
      <use xlink:href="#DejaVuSans-37" transform="translate(295.166016 -38.31875) scale(0.7)"/>
      <use xlink:href="#DejaVuSans-Oblique-78" transform="translate(339.702148 -38.31875) scale(0.7)"/>
      <use xlink:href="#DejaVuSans-2212" transform="translate(394.765625 -38.31875) scale(0.7)"/>
      <use xlink:href="#DejaVuSans-35" transform="translate(467.055664 -38.31875) scale(0.7)"/>
      <path d="M 295.166016 18.965625 
L 295.166016 25.215625 
L 511.591797 25.215625 
L 511.591797 18.965625 
L 295.166016 18.965625 
z
"/>
     </g>
    </g>
   </g>
  </g>
 </g>
 <defs>
  <clipPath id="p7d51c4a975">
   <rect x="58.523438" y="30.12" width="339.652174" height="332.64"/>
  </clipPath>
  <clipPath id="pfd71eaae1e">
   <rect x="466.106046" y="30.12" width="339.652174" height="332.64"/>
  </clipPath>
  <clipPath id="p23c405cf1c">
   <rect x="873.688655" y="30.12" width="339.652174" height="332.64"/>
  </clipPath>
  <clipPath id="pa31ee0b2d4">
   <rect x="1281.271264" y="30.12" width="339.652174" height="332.64"/>
  </clipPath>
 </defs>
</svg>
